<?xml version="1.0" encoding="utf-8"?>
<svg xmlns="http://www.w3.org/2000/svg" xmlns:xlink="http://www.w3.org/1999/xlink" width="600" height="400" viewBox="0 0 2400 1600">
<defs>
  <clipPath id="clip330">
    <rect x="0" y="0" width="2400" height="1600"/>
  </clipPath>
</defs>
<path clip-path="url(#clip330)" d="M0 1600 L2400 1600 L2400 0 L0 0  Z" fill="#ffffff" fill-rule="evenodd" fill-opacity="1"/>
<defs>
  <clipPath id="clip331">
    <rect x="480" y="0" width="1681" height="1600"/>
  </clipPath>
</defs>
<path clip-path="url(#clip330)" d="M219.866 1423.18 L2352.76 1423.18 L2352.76 47.2441 L219.866 47.2441  Z" fill="#ffffff" fill-rule="evenodd" fill-opacity="1"/>
<defs>
  <clipPath id="clip332">
    <rect x="219" y="47" width="2134" height="1377"/>
  </clipPath>
</defs>
<polyline clip-path="url(#clip332)" style="stroke:#000000; stroke-linecap:round; stroke-linejoin:round; stroke-width:2; stroke-opacity:0.1; fill:none" points="278.217,1423.18 278.217,47.2441 "/>
<polyline clip-path="url(#clip332)" style="stroke:#000000; stroke-linecap:round; stroke-linejoin:round; stroke-width:2; stroke-opacity:0.1; fill:none" points="781.76,1423.18 781.76,47.2441 "/>
<polyline clip-path="url(#clip332)" style="stroke:#000000; stroke-linecap:round; stroke-linejoin:round; stroke-width:2; stroke-opacity:0.1; fill:none" points="1285.3,1423.18 1285.3,47.2441 "/>
<polyline clip-path="url(#clip332)" style="stroke:#000000; stroke-linecap:round; stroke-linejoin:round; stroke-width:2; stroke-opacity:0.1; fill:none" points="1788.85,1423.18 1788.85,47.2441 "/>
<polyline clip-path="url(#clip332)" style="stroke:#000000; stroke-linecap:round; stroke-linejoin:round; stroke-width:2; stroke-opacity:0.1; fill:none" points="2292.39,1423.18 2292.39,47.2441 "/>
<polyline clip-path="url(#clip330)" style="stroke:#000000; stroke-linecap:round; stroke-linejoin:round; stroke-width:4; stroke-opacity:1; fill:none" points="219.866,1423.18 2352.76,1423.18 "/>
<polyline clip-path="url(#clip330)" style="stroke:#000000; stroke-linecap:round; stroke-linejoin:round; stroke-width:4; stroke-opacity:1; fill:none" points="278.217,1423.18 278.217,1404.28 "/>
<polyline clip-path="url(#clip330)" style="stroke:#000000; stroke-linecap:round; stroke-linejoin:round; stroke-width:4; stroke-opacity:1; fill:none" points="781.76,1423.18 781.76,1404.28 "/>
<polyline clip-path="url(#clip330)" style="stroke:#000000; stroke-linecap:round; stroke-linejoin:round; stroke-width:4; stroke-opacity:1; fill:none" points="1285.3,1423.18 1285.3,1404.28 "/>
<polyline clip-path="url(#clip330)" style="stroke:#000000; stroke-linecap:round; stroke-linejoin:round; stroke-width:4; stroke-opacity:1; fill:none" points="1788.85,1423.18 1788.85,1404.28 "/>
<polyline clip-path="url(#clip330)" style="stroke:#000000; stroke-linecap:round; stroke-linejoin:round; stroke-width:4; stroke-opacity:1; fill:none" points="2292.39,1423.18 2292.39,1404.28 "/>
<path clip-path="url(#clip330)" d="M278.217 1454.1 Q274.606 1454.1 272.777 1457.66 Q270.972 1461.2 270.972 1468.33 Q270.972 1475.44 272.777 1479.01 Q274.606 1482.55 278.217 1482.55 Q281.851 1482.55 283.657 1479.01 Q285.485 1475.44 285.485 1468.33 Q285.485 1461.2 283.657 1457.66 Q281.851 1454.1 278.217 1454.1 M278.217 1450.39 Q284.027 1450.39 287.083 1455 Q290.161 1459.58 290.161 1468.33 Q290.161 1477.06 287.083 1481.67 Q284.027 1486.25 278.217 1486.25 Q272.407 1486.25 269.328 1481.67 Q266.273 1477.06 266.273 1468.33 Q266.273 1459.58 269.328 1455 Q272.407 1450.39 278.217 1450.39 Z" fill="#000000" fill-rule="nonzero" fill-opacity="1" /><path clip-path="url(#clip330)" d="M745.453 1481.64 L761.772 1481.64 L761.772 1485.58 L739.828 1485.58 L739.828 1481.64 Q742.49 1478.89 747.073 1474.26 Q751.68 1469.61 752.86 1468.27 Q755.105 1465.74 755.985 1464.01 Q756.888 1462.25 756.888 1460.56 Q756.888 1457.8 754.943 1456.07 Q753.022 1454.33 749.92 1454.33 Q747.721 1454.33 745.268 1455.09 Q742.837 1455.86 740.059 1457.41 L740.059 1452.69 Q742.883 1451.55 745.337 1450.97 Q747.791 1450.39 749.828 1450.39 Q755.198 1450.39 758.393 1453.08 Q761.587 1455.77 761.587 1460.26 Q761.587 1462.39 760.777 1464.31 Q759.99 1466.2 757.883 1468.8 Q757.305 1469.47 754.203 1472.69 Q751.101 1475.88 745.453 1481.64 Z" fill="#000000" fill-rule="nonzero" fill-opacity="1" /><path clip-path="url(#clip330)" d="M771.633 1451.02 L789.99 1451.02 L789.99 1454.96 L775.916 1454.96 L775.916 1463.43 Q776.934 1463.08 777.953 1462.92 Q778.971 1462.73 779.99 1462.73 Q785.777 1462.73 789.156 1465.9 Q792.536 1469.08 792.536 1474.49 Q792.536 1480.07 789.064 1483.17 Q785.591 1486.25 779.272 1486.25 Q777.096 1486.25 774.828 1485.88 Q772.582 1485.51 770.175 1484.77 L770.175 1480.07 Q772.258 1481.2 774.48 1481.76 Q776.703 1482.32 779.179 1482.32 Q783.184 1482.32 785.522 1480.21 Q787.86 1478.1 787.86 1474.49 Q787.86 1470.88 785.522 1468.77 Q783.184 1466.67 779.179 1466.67 Q777.304 1466.67 775.429 1467.08 Q773.578 1467.5 771.633 1468.38 L771.633 1451.02 Z" fill="#000000" fill-rule="nonzero" fill-opacity="1" /><path clip-path="url(#clip330)" d="M811.749 1454.1 Q808.138 1454.1 806.309 1457.66 Q804.503 1461.2 804.503 1468.33 Q804.503 1475.44 806.309 1479.01 Q808.138 1482.55 811.749 1482.55 Q815.383 1482.55 817.188 1479.01 Q819.017 1475.44 819.017 1468.33 Q819.017 1461.2 817.188 1457.66 Q815.383 1454.1 811.749 1454.1 M811.749 1450.39 Q817.559 1450.39 820.614 1455 Q823.693 1459.58 823.693 1468.33 Q823.693 1477.06 820.614 1481.67 Q817.559 1486.25 811.749 1486.25 Q805.939 1486.25 802.86 1481.67 Q799.804 1477.06 799.804 1468.33 Q799.804 1459.58 802.86 1455 Q805.939 1450.39 811.749 1450.39 Z" fill="#000000" fill-rule="nonzero" fill-opacity="1" /><path clip-path="url(#clip330)" d="M1244.92 1451.02 L1263.28 1451.02 L1263.28 1454.96 L1249.2 1454.96 L1249.2 1463.43 Q1250.22 1463.08 1251.24 1462.92 Q1252.26 1462.73 1253.28 1462.73 Q1259.07 1462.73 1262.45 1465.9 Q1265.82 1469.08 1265.82 1474.49 Q1265.82 1480.07 1262.35 1483.17 Q1258.88 1486.25 1252.56 1486.25 Q1250.39 1486.25 1248.12 1485.88 Q1245.87 1485.51 1243.46 1484.77 L1243.46 1480.07 Q1245.55 1481.2 1247.77 1481.76 Q1249.99 1482.32 1252.47 1482.32 Q1256.47 1482.32 1258.81 1480.21 Q1261.15 1478.1 1261.15 1474.49 Q1261.15 1470.88 1258.81 1468.77 Q1256.47 1466.67 1252.47 1466.67 Q1250.59 1466.67 1248.72 1467.08 Q1246.87 1467.5 1244.92 1468.38 L1244.92 1451.02 Z" fill="#000000" fill-rule="nonzero" fill-opacity="1" /><path clip-path="url(#clip330)" d="M1285.04 1454.1 Q1281.43 1454.1 1279.6 1457.66 Q1277.79 1461.2 1277.79 1468.33 Q1277.79 1475.44 1279.6 1479.01 Q1281.43 1482.55 1285.04 1482.55 Q1288.67 1482.55 1290.48 1479.01 Q1292.31 1475.44 1292.31 1468.33 Q1292.31 1461.2 1290.48 1457.66 Q1288.67 1454.1 1285.04 1454.1 M1285.04 1450.39 Q1290.85 1450.39 1293.9 1455 Q1296.98 1459.58 1296.98 1468.33 Q1296.98 1477.06 1293.9 1481.67 Q1290.85 1486.25 1285.04 1486.25 Q1279.23 1486.25 1276.15 1481.67 Q1273.09 1477.06 1273.09 1468.33 Q1273.09 1459.58 1276.15 1455 Q1279.23 1450.39 1285.04 1450.39 Z" fill="#000000" fill-rule="nonzero" fill-opacity="1" /><path clip-path="url(#clip330)" d="M1315.2 1454.1 Q1311.59 1454.1 1309.76 1457.66 Q1307.95 1461.2 1307.95 1468.33 Q1307.95 1475.44 1309.76 1479.01 Q1311.59 1482.55 1315.2 1482.55 Q1318.83 1482.55 1320.64 1479.01 Q1322.47 1475.44 1322.47 1468.33 Q1322.47 1461.2 1320.64 1457.66 Q1318.83 1454.1 1315.2 1454.1 M1315.2 1450.39 Q1321.01 1450.39 1324.07 1455 Q1327.14 1459.58 1327.14 1468.33 Q1327.14 1477.06 1324.07 1481.67 Q1321.01 1486.25 1315.2 1486.25 Q1309.39 1486.25 1306.31 1481.67 Q1303.26 1477.06 1303.26 1468.33 Q1303.26 1459.58 1306.31 1455 Q1309.39 1450.39 1315.2 1450.39 Z" fill="#000000" fill-rule="nonzero" fill-opacity="1" /><path clip-path="url(#clip330)" d="M1747.12 1451.02 L1769.35 1451.02 L1769.35 1453.01 L1756.8 1485.58 L1751.91 1485.58 L1763.72 1454.96 L1747.12 1454.96 L1747.12 1451.02 Z" fill="#000000" fill-rule="nonzero" fill-opacity="1" /><path clip-path="url(#clip330)" d="M1778.51 1451.02 L1796.87 1451.02 L1796.87 1454.96 L1782.79 1454.96 L1782.79 1463.43 Q1783.81 1463.08 1784.83 1462.92 Q1785.85 1462.73 1786.87 1462.73 Q1792.66 1462.73 1796.04 1465.9 Q1799.41 1469.08 1799.41 1474.49 Q1799.41 1480.07 1795.94 1483.17 Q1792.47 1486.25 1786.15 1486.25 Q1783.97 1486.25 1781.71 1485.88 Q1779.46 1485.51 1777.05 1484.77 L1777.05 1480.07 Q1779.14 1481.2 1781.36 1481.76 Q1783.58 1482.32 1786.06 1482.32 Q1790.06 1482.32 1792.4 1480.21 Q1794.74 1478.1 1794.74 1474.49 Q1794.74 1470.88 1792.4 1468.77 Q1790.06 1466.67 1786.06 1466.67 Q1784.18 1466.67 1782.31 1467.08 Q1780.46 1467.5 1778.51 1468.38 L1778.51 1451.02 Z" fill="#000000" fill-rule="nonzero" fill-opacity="1" /><path clip-path="url(#clip330)" d="M1818.63 1454.1 Q1815.02 1454.1 1813.19 1457.66 Q1811.38 1461.2 1811.38 1468.33 Q1811.38 1475.44 1813.19 1479.01 Q1815.02 1482.55 1818.63 1482.55 Q1822.26 1482.55 1824.07 1479.01 Q1825.9 1475.44 1825.9 1468.33 Q1825.9 1461.2 1824.07 1457.66 Q1822.26 1454.1 1818.63 1454.1 M1818.63 1450.39 Q1824.44 1450.39 1827.49 1455 Q1830.57 1459.58 1830.57 1468.33 Q1830.57 1477.06 1827.49 1481.67 Q1824.44 1486.25 1818.63 1486.25 Q1812.82 1486.25 1809.74 1481.67 Q1806.68 1477.06 1806.68 1468.33 Q1806.68 1459.58 1809.74 1455 Q1812.82 1450.39 1818.63 1450.39 Z" fill="#000000" fill-rule="nonzero" fill-opacity="1" /><path clip-path="url(#clip330)" d="M2236.92 1481.64 L2244.56 1481.64 L2244.56 1455.28 L2236.25 1456.95 L2236.25 1452.69 L2244.51 1451.02 L2249.19 1451.02 L2249.19 1481.64 L2256.82 1481.64 L2256.82 1485.58 L2236.92 1485.58 L2236.92 1481.64 Z" fill="#000000" fill-rule="nonzero" fill-opacity="1" /><path clip-path="url(#clip330)" d="M2276.27 1454.1 Q2272.66 1454.1 2270.83 1457.66 Q2269.02 1461.2 2269.02 1468.33 Q2269.02 1475.44 2270.83 1479.01 Q2272.66 1482.55 2276.27 1482.55 Q2279.9 1482.55 2281.71 1479.01 Q2283.54 1475.44 2283.54 1468.33 Q2283.54 1461.2 2281.71 1457.66 Q2279.9 1454.1 2276.27 1454.1 M2276.27 1450.39 Q2282.08 1450.39 2285.13 1455 Q2288.21 1459.58 2288.21 1468.33 Q2288.21 1477.06 2285.13 1481.67 Q2282.08 1486.25 2276.27 1486.25 Q2270.46 1486.25 2267.38 1481.67 Q2264.32 1477.06 2264.32 1468.33 Q2264.32 1459.58 2267.38 1455 Q2270.46 1450.39 2276.27 1450.39 Z" fill="#000000" fill-rule="nonzero" fill-opacity="1" /><path clip-path="url(#clip330)" d="M2306.43 1454.1 Q2302.82 1454.1 2300.99 1457.66 Q2299.19 1461.2 2299.19 1468.33 Q2299.19 1475.44 2300.99 1479.01 Q2302.82 1482.55 2306.43 1482.55 Q2310.06 1482.55 2311.87 1479.01 Q2313.7 1475.44 2313.7 1468.33 Q2313.7 1461.2 2311.87 1457.66 Q2310.06 1454.1 2306.43 1454.1 M2306.43 1450.39 Q2312.24 1450.39 2315.3 1455 Q2318.37 1459.58 2318.37 1468.33 Q2318.37 1477.06 2315.3 1481.67 Q2312.24 1486.25 2306.43 1486.25 Q2300.62 1486.25 2297.54 1481.67 Q2294.49 1477.06 2294.49 1468.33 Q2294.49 1459.58 2297.54 1455 Q2300.62 1450.39 2306.43 1450.39 Z" fill="#000000" fill-rule="nonzero" fill-opacity="1" /><path clip-path="url(#clip330)" d="M2336.59 1454.1 Q2332.98 1454.1 2331.15 1457.66 Q2329.35 1461.2 2329.35 1468.33 Q2329.35 1475.44 2331.15 1479.01 Q2332.98 1482.55 2336.59 1482.55 Q2340.23 1482.55 2342.03 1479.01 Q2343.86 1475.44 2343.86 1468.33 Q2343.86 1461.2 2342.03 1457.66 Q2340.23 1454.1 2336.59 1454.1 M2336.59 1450.39 Q2342.4 1450.39 2345.46 1455 Q2348.54 1459.58 2348.54 1468.33 Q2348.54 1477.06 2345.46 1481.67 Q2342.4 1486.25 2336.59 1486.25 Q2330.78 1486.25 2327.7 1481.67 Q2324.65 1477.06 2324.65 1468.33 Q2324.65 1459.58 2327.7 1455 Q2330.78 1450.39 2336.59 1450.39 Z" fill="#000000" fill-rule="nonzero" fill-opacity="1" /><path clip-path="url(#clip330)" d="M1208.19 1520.52 L1248.39 1520.52 L1248.39 1525.93 L1231.52 1525.93 L1231.52 1568.04 L1225.06 1568.04 L1225.06 1525.93 L1208.19 1525.93 L1208.19 1520.52 Z" fill="#000000" fill-rule="nonzero" fill-opacity="1" /><path clip-path="url(#clip330)" d="M1252.33 1532.4 L1258.19 1532.4 L1258.19 1568.04 L1252.33 1568.04 L1252.33 1532.4 M1252.33 1518.52 L1258.19 1518.52 L1258.19 1525.93 L1252.33 1525.93 L1252.33 1518.52 Z" fill="#000000" fill-rule="nonzero" fill-opacity="1" /><path clip-path="url(#clip330)" d="M1298.2 1539.24 Q1300.4 1535.29 1303.45 1533.41 Q1306.51 1531.54 1310.64 1531.54 Q1316.21 1531.54 1319.24 1535.45 Q1322.26 1539.33 1322.26 1546.53 L1322.26 1568.04 L1316.37 1568.04 L1316.37 1546.72 Q1316.37 1541.59 1314.56 1539.11 Q1312.74 1536.63 1309.02 1536.63 Q1304.47 1536.63 1301.83 1539.65 Q1299.19 1542.68 1299.19 1547.9 L1299.19 1568.04 L1293.3 1568.04 L1293.3 1546.72 Q1293.3 1541.56 1291.48 1539.11 Q1289.67 1536.63 1285.88 1536.63 Q1281.39 1536.63 1278.75 1539.68 Q1276.11 1542.71 1276.11 1547.9 L1276.11 1568.04 L1270.22 1568.04 L1270.22 1532.4 L1276.11 1532.4 L1276.11 1537.93 Q1278.12 1534.66 1280.92 1533.1 Q1283.72 1531.54 1287.57 1531.54 Q1291.45 1531.54 1294.16 1533.51 Q1296.89 1535.48 1298.2 1539.24 Z" fill="#000000" fill-rule="nonzero" fill-opacity="1" /><path clip-path="url(#clip330)" d="M1364.43 1548.76 L1364.43 1551.62 L1337.51 1551.62 Q1337.89 1557.67 1341.14 1560.85 Q1344.41 1564 1350.24 1564 Q1353.61 1564 1356.76 1563.17 Q1359.95 1562.35 1363.07 1560.69 L1363.07 1566.23 Q1359.91 1567.57 1356.6 1568.27 Q1353.29 1568.97 1349.89 1568.97 Q1341.36 1568.97 1336.36 1564 Q1331.4 1559.04 1331.4 1550.57 Q1331.4 1541.82 1336.11 1536.69 Q1340.85 1531.54 1348.87 1531.54 Q1356.06 1531.54 1360.23 1536.18 Q1364.43 1540.8 1364.43 1548.76 M1358.58 1547.04 Q1358.51 1542.23 1355.87 1539.37 Q1353.26 1536.5 1348.93 1536.5 Q1344.03 1536.5 1341.07 1539.27 Q1338.14 1542.04 1337.7 1547.07 L1358.58 1547.04 Z" fill="#000000" fill-rule="nonzero" fill-opacity="1" /><polyline clip-path="url(#clip332)" style="stroke:#000000; stroke-linecap:round; stroke-linejoin:round; stroke-width:2; stroke-opacity:0.1; fill:none" points="219.866,1423.18 2352.76,1423.18 "/>
<polyline clip-path="url(#clip332)" style="stroke:#000000; stroke-linecap:round; stroke-linejoin:round; stroke-width:2; stroke-opacity:0.1; fill:none" points="219.866,1220.08 2352.76,1220.08 "/>
<polyline clip-path="url(#clip332)" style="stroke:#000000; stroke-linecap:round; stroke-linejoin:round; stroke-width:2; stroke-opacity:0.1; fill:none" points="219.866,1016.99 2352.76,1016.99 "/>
<polyline clip-path="url(#clip332)" style="stroke:#000000; stroke-linecap:round; stroke-linejoin:round; stroke-width:2; stroke-opacity:0.1; fill:none" points="219.866,813.891 2352.76,813.891 "/>
<polyline clip-path="url(#clip332)" style="stroke:#000000; stroke-linecap:round; stroke-linejoin:round; stroke-width:2; stroke-opacity:0.1; fill:none" points="219.866,610.795 2352.76,610.795 "/>
<polyline clip-path="url(#clip332)" style="stroke:#000000; stroke-linecap:round; stroke-linejoin:round; stroke-width:2; stroke-opacity:0.1; fill:none" points="219.866,407.698 2352.76,407.698 "/>
<polyline clip-path="url(#clip332)" style="stroke:#000000; stroke-linecap:round; stroke-linejoin:round; stroke-width:2; stroke-opacity:0.1; fill:none" points="219.866,204.602 2352.76,204.602 "/>
<polyline clip-path="url(#clip330)" style="stroke:#000000; stroke-linecap:round; stroke-linejoin:round; stroke-width:4; stroke-opacity:1; fill:none" points="219.866,1423.18 219.866,47.2441 "/>
<polyline clip-path="url(#clip330)" style="stroke:#000000; stroke-linecap:round; stroke-linejoin:round; stroke-width:4; stroke-opacity:1; fill:none" points="219.866,1423.18 238.764,1423.18 "/>
<polyline clip-path="url(#clip330)" style="stroke:#000000; stroke-linecap:round; stroke-linejoin:round; stroke-width:4; stroke-opacity:1; fill:none" points="219.866,1220.08 238.764,1220.08 "/>
<polyline clip-path="url(#clip330)" style="stroke:#000000; stroke-linecap:round; stroke-linejoin:round; stroke-width:4; stroke-opacity:1; fill:none" points="219.866,1016.99 238.764,1016.99 "/>
<polyline clip-path="url(#clip330)" style="stroke:#000000; stroke-linecap:round; stroke-linejoin:round; stroke-width:4; stroke-opacity:1; fill:none" points="219.866,813.891 238.764,813.891 "/>
<polyline clip-path="url(#clip330)" style="stroke:#000000; stroke-linecap:round; stroke-linejoin:round; stroke-width:4; stroke-opacity:1; fill:none" points="219.866,610.795 238.764,610.795 "/>
<polyline clip-path="url(#clip330)" style="stroke:#000000; stroke-linecap:round; stroke-linejoin:round; stroke-width:4; stroke-opacity:1; fill:none" points="219.866,407.698 238.764,407.698 "/>
<polyline clip-path="url(#clip330)" style="stroke:#000000; stroke-linecap:round; stroke-linejoin:round; stroke-width:4; stroke-opacity:1; fill:none" points="219.866,204.602 238.764,204.602 "/>
<path clip-path="url(#clip330)" d="M126.691 1408.98 Q123.08 1408.98 121.251 1412.54 Q119.445 1416.08 119.445 1423.21 Q119.445 1430.32 121.251 1433.89 Q123.08 1437.43 126.691 1437.43 Q130.325 1437.43 132.13 1433.89 Q133.959 1430.32 133.959 1423.21 Q133.959 1416.08 132.13 1412.54 Q130.325 1408.98 126.691 1408.98 M126.691 1405.27 Q132.501 1405.27 135.556 1409.88 Q138.635 1414.46 138.635 1423.21 Q138.635 1431.94 135.556 1436.55 Q132.501 1441.13 126.691 1441.13 Q120.88 1441.13 117.802 1436.55 Q114.746 1431.94 114.746 1423.21 Q114.746 1414.46 117.802 1409.88 Q120.88 1405.27 126.691 1405.27 Z" fill="#000000" fill-rule="nonzero" fill-opacity="1" /><path clip-path="url(#clip330)" d="M146.853 1434.58 L151.737 1434.58 L151.737 1440.46 L146.853 1440.46 L146.853 1434.58 Z" fill="#000000" fill-rule="nonzero" fill-opacity="1" /><path clip-path="url(#clip330)" d="M171.922 1408.98 Q168.311 1408.98 166.482 1412.54 Q164.677 1416.08 164.677 1423.21 Q164.677 1430.32 166.482 1433.89 Q168.311 1437.43 171.922 1437.43 Q175.556 1437.43 177.362 1433.89 Q179.19 1430.32 179.19 1423.21 Q179.19 1416.08 177.362 1412.54 Q175.556 1408.98 171.922 1408.98 M171.922 1405.27 Q177.732 1405.27 180.788 1409.88 Q183.866 1414.46 183.866 1423.21 Q183.866 1431.94 180.788 1436.55 Q177.732 1441.13 171.922 1441.13 Q166.112 1441.13 163.033 1436.55 Q159.978 1431.94 159.978 1423.21 Q159.978 1414.46 163.033 1409.88 Q166.112 1405.27 171.922 1405.27 Z" fill="#000000" fill-rule="nonzero" fill-opacity="1" /><path clip-path="url(#clip330)" d="M127.917 1205.88 Q124.306 1205.88 122.478 1209.45 Q120.672 1212.99 120.672 1220.12 Q120.672 1227.22 122.478 1230.79 Q124.306 1234.33 127.917 1234.33 Q131.552 1234.33 133.357 1230.79 Q135.186 1227.22 135.186 1220.12 Q135.186 1212.99 133.357 1209.45 Q131.552 1205.88 127.917 1205.88 M127.917 1202.18 Q133.728 1202.18 136.783 1206.78 Q139.862 1211.37 139.862 1220.12 Q139.862 1228.85 136.783 1233.45 Q133.728 1238.03 127.917 1238.03 Q122.107 1238.03 119.029 1233.45 Q115.973 1228.85 115.973 1220.12 Q115.973 1211.37 119.029 1206.78 Q122.107 1202.18 127.917 1202.18 Z" fill="#000000" fill-rule="nonzero" fill-opacity="1" /><path clip-path="url(#clip330)" d="M148.079 1231.48 L152.964 1231.48 L152.964 1237.36 L148.079 1237.36 L148.079 1231.48 Z" fill="#000000" fill-rule="nonzero" fill-opacity="1" /><path clip-path="url(#clip330)" d="M163.959 1233.43 L171.598 1233.43 L171.598 1207.06 L163.288 1208.73 L163.288 1204.47 L171.552 1202.8 L176.227 1202.8 L176.227 1233.43 L183.866 1233.43 L183.866 1237.36 L163.959 1237.36 L163.959 1233.43 Z" fill="#000000" fill-rule="nonzero" fill-opacity="1" /><path clip-path="url(#clip330)" d="M128.288 1002.79 Q124.677 1002.79 122.848 1006.35 Q121.043 1009.89 121.043 1017.02 Q121.043 1024.13 122.848 1027.69 Q124.677 1031.23 128.288 1031.23 Q131.922 1031.23 133.728 1027.69 Q135.556 1024.13 135.556 1017.02 Q135.556 1009.89 133.728 1006.35 Q131.922 1002.79 128.288 1002.79 M128.288 999.082 Q134.098 999.082 137.154 1003.69 Q140.232 1008.27 140.232 1017.02 Q140.232 1025.75 137.154 1030.36 Q134.098 1034.94 128.288 1034.94 Q122.478 1034.94 119.399 1030.36 Q116.343 1025.75 116.343 1017.02 Q116.343 1008.27 119.399 1003.69 Q122.478 999.082 128.288 999.082 Z" fill="#000000" fill-rule="nonzero" fill-opacity="1" /><path clip-path="url(#clip330)" d="M148.45 1028.39 L153.334 1028.39 L153.334 1034.27 L148.45 1034.27 L148.45 1028.39 Z" fill="#000000" fill-rule="nonzero" fill-opacity="1" /><path clip-path="url(#clip330)" d="M167.547 1030.33 L183.866 1030.33 L183.866 1034.27 L161.922 1034.27 L161.922 1030.33 Q164.584 1027.58 169.167 1022.95 Q173.774 1018.3 174.954 1016.95 Q177.2 1014.43 178.079 1012.69 Q178.982 1010.93 178.982 1009.24 Q178.982 1006.49 177.038 1004.75 Q175.116 1003.02 172.014 1003.02 Q169.815 1003.02 167.362 1003.78 Q164.931 1004.55 162.153 1006.1 L162.153 1001.37 Q164.977 1000.24 167.431 999.661 Q169.885 999.082 171.922 999.082 Q177.292 999.082 180.487 1001.77 Q183.681 1004.45 183.681 1008.94 Q183.681 1011.07 182.871 1012.99 Q182.084 1014.89 179.977 1017.48 Q179.399 1018.16 176.297 1021.37 Q173.195 1024.57 167.547 1030.33 Z" fill="#000000" fill-rule="nonzero" fill-opacity="1" /><path clip-path="url(#clip330)" d="M127.339 799.69 Q123.728 799.69 121.899 803.254 Q120.093 806.796 120.093 813.926 Q120.093 821.032 121.899 824.597 Q123.728 828.138 127.339 828.138 Q130.973 828.138 132.779 824.597 Q134.607 821.032 134.607 813.926 Q134.607 806.796 132.779 803.254 Q130.973 799.69 127.339 799.69 M127.339 795.986 Q133.149 795.986 136.204 800.592 Q139.283 805.176 139.283 813.926 Q139.283 822.652 136.204 827.259 Q133.149 831.842 127.339 831.842 Q121.529 831.842 118.45 827.259 Q115.394 822.652 115.394 813.926 Q115.394 805.176 118.45 800.592 Q121.529 795.986 127.339 795.986 Z" fill="#000000" fill-rule="nonzero" fill-opacity="1" /><path clip-path="url(#clip330)" d="M147.501 825.291 L152.385 825.291 L152.385 831.171 L147.501 831.171 L147.501 825.291 Z" fill="#000000" fill-rule="nonzero" fill-opacity="1" /><path clip-path="url(#clip330)" d="M176.737 812.537 Q180.093 813.254 181.968 815.523 Q183.866 817.791 183.866 821.125 Q183.866 826.24 180.348 829.041 Q176.829 831.842 170.348 831.842 Q168.172 831.842 165.857 831.402 Q163.565 830.986 161.112 830.129 L161.112 825.615 Q163.056 826.75 165.371 827.328 Q167.686 827.907 170.209 827.907 Q174.607 827.907 176.899 826.171 Q179.214 824.435 179.214 821.125 Q179.214 818.069 177.061 816.356 Q174.931 814.62 171.112 814.62 L167.084 814.62 L167.084 810.777 L171.297 810.777 Q174.746 810.777 176.575 809.412 Q178.403 808.023 178.403 805.43 Q178.403 802.768 176.505 801.356 Q174.63 799.921 171.112 799.921 Q169.19 799.921 166.991 800.338 Q164.792 800.754 162.153 801.634 L162.153 797.467 Q164.815 796.727 167.13 796.356 Q169.468 795.986 171.528 795.986 Q176.852 795.986 179.954 798.416 Q183.056 800.824 183.056 804.944 Q183.056 807.815 181.413 809.805 Q179.769 811.773 176.737 812.537 Z" fill="#000000" fill-rule="nonzero" fill-opacity="1" /><path clip-path="url(#clip330)" d="M126.205 596.593 Q122.593 596.593 120.765 600.158 Q118.959 603.7 118.959 610.829 Q118.959 617.936 120.765 621.501 Q122.593 625.042 126.205 625.042 Q129.839 625.042 131.644 621.501 Q133.473 617.936 133.473 610.829 Q133.473 603.7 131.644 600.158 Q129.839 596.593 126.205 596.593 M126.205 592.89 Q132.015 592.89 135.07 597.496 Q138.149 602.079 138.149 610.829 Q138.149 619.556 135.07 624.163 Q132.015 628.746 126.205 628.746 Q120.394 628.746 117.316 624.163 Q114.26 619.556 114.26 610.829 Q114.26 602.079 117.316 597.496 Q120.394 592.89 126.205 592.89 Z" fill="#000000" fill-rule="nonzero" fill-opacity="1" /><path clip-path="url(#clip330)" d="M146.366 622.195 L151.251 622.195 L151.251 628.075 L146.366 628.075 L146.366 622.195 Z" fill="#000000" fill-rule="nonzero" fill-opacity="1" /><path clip-path="url(#clip330)" d="M174.283 597.589 L162.477 616.038 L174.283 616.038 L174.283 597.589 M173.056 593.515 L178.936 593.515 L178.936 616.038 L183.866 616.038 L183.866 619.926 L178.936 619.926 L178.936 628.075 L174.283 628.075 L174.283 619.926 L158.681 619.926 L158.681 615.413 L173.056 593.515 Z" fill="#000000" fill-rule="nonzero" fill-opacity="1" /><path clip-path="url(#clip330)" d="M127.686 393.497 Q124.075 393.497 122.246 397.062 Q120.441 400.603 120.441 407.733 Q120.441 414.839 122.246 418.404 Q124.075 421.946 127.686 421.946 Q131.32 421.946 133.126 418.404 Q134.954 414.839 134.954 407.733 Q134.954 400.603 133.126 397.062 Q131.32 393.497 127.686 393.497 M127.686 389.793 Q133.496 389.793 136.552 394.4 Q139.63 398.983 139.63 407.733 Q139.63 416.46 136.552 421.066 Q133.496 425.65 127.686 425.65 Q121.876 425.65 118.797 421.066 Q115.742 416.46 115.742 407.733 Q115.742 398.983 118.797 394.4 Q121.876 389.793 127.686 389.793 Z" fill="#000000" fill-rule="nonzero" fill-opacity="1" /><path clip-path="url(#clip330)" d="M147.848 419.099 L152.732 419.099 L152.732 424.978 L147.848 424.978 L147.848 419.099 Z" fill="#000000" fill-rule="nonzero" fill-opacity="1" /><path clip-path="url(#clip330)" d="M162.964 390.418 L181.32 390.418 L181.32 394.353 L167.246 394.353 L167.246 402.826 Q168.264 402.478 169.283 402.316 Q170.302 402.131 171.32 402.131 Q177.107 402.131 180.487 405.302 Q183.866 408.474 183.866 413.89 Q183.866 419.469 180.394 422.571 Q176.922 425.65 170.602 425.65 Q168.427 425.65 166.158 425.279 Q163.913 424.909 161.505 424.168 L161.505 419.469 Q163.589 420.603 165.811 421.159 Q168.033 421.714 170.51 421.714 Q174.514 421.714 176.852 419.608 Q179.19 417.501 179.19 413.89 Q179.19 410.279 176.852 408.173 Q174.514 406.066 170.51 406.066 Q168.635 406.066 166.76 406.483 Q164.908 406.9 162.964 407.779 L162.964 390.418 Z" fill="#000000" fill-rule="nonzero" fill-opacity="1" /><path clip-path="url(#clip330)" d="M126.529 190.401 Q122.918 190.401 121.089 193.965 Q119.283 197.507 119.283 204.637 Q119.283 211.743 121.089 215.308 Q122.918 218.85 126.529 218.85 Q130.163 218.85 131.968 215.308 Q133.797 211.743 133.797 204.637 Q133.797 197.507 131.968 193.965 Q130.163 190.401 126.529 190.401 M126.529 186.697 Q132.339 186.697 135.394 191.303 Q138.473 195.887 138.473 204.637 Q138.473 213.363 135.394 217.97 Q132.339 222.553 126.529 222.553 Q120.718 222.553 117.64 217.97 Q114.584 213.363 114.584 204.637 Q114.584 195.887 117.64 191.303 Q120.718 186.697 126.529 186.697 Z" fill="#000000" fill-rule="nonzero" fill-opacity="1" /><path clip-path="url(#clip330)" d="M146.691 216.002 L151.575 216.002 L151.575 221.882 L146.691 221.882 L146.691 216.002 Z" fill="#000000" fill-rule="nonzero" fill-opacity="1" /><path clip-path="url(#clip330)" d="M172.339 202.739 Q169.19 202.739 167.339 204.891 Q165.51 207.044 165.51 210.794 Q165.51 214.521 167.339 216.697 Q169.19 218.85 172.339 218.85 Q175.487 218.85 177.315 216.697 Q179.167 214.521 179.167 210.794 Q179.167 207.044 177.315 204.891 Q175.487 202.739 172.339 202.739 M181.621 188.086 L181.621 192.345 Q179.862 191.512 178.056 191.072 Q176.274 190.632 174.514 190.632 Q169.885 190.632 167.431 193.757 Q165.001 196.882 164.653 203.201 Q166.019 201.188 168.079 200.123 Q170.139 199.035 172.616 199.035 Q177.825 199.035 180.834 202.206 Q183.866 205.354 183.866 210.794 Q183.866 216.118 180.718 219.336 Q177.57 222.553 172.339 222.553 Q166.343 222.553 163.172 217.97 Q160.001 213.363 160.001 204.637 Q160.001 196.442 163.89 191.581 Q167.778 186.697 174.329 186.697 Q176.089 186.697 177.871 187.044 Q179.676 187.391 181.621 188.086 Z" fill="#000000" fill-rule="nonzero" fill-opacity="1" /><path clip-path="url(#clip330)" d="M16.4842 1115.37 L16.4842 1085.33 L21.895 1085.33 L21.895 1108.94 L35.9632 1108.94 L35.9632 1086.31 L41.3741 1086.31 L41.3741 1108.94 L58.5933 1108.94 L58.5933 1084.75 L64.0042 1084.75 L64.0042 1115.37 L16.4842 1115.37 Z" fill="#000000" fill-rule="nonzero" fill-opacity="1" /><path clip-path="url(#clip330)" d="M14.5426 1060.37 Q21.8632 1064.64 29.0246 1066.71 Q36.186 1068.77 43.5384 1068.77 Q50.8908 1068.77 58.1159 1066.71 Q65.3091 1064.61 72.5979 1060.37 L72.5979 1065.46 Q65.1182 1070.24 57.8931 1072.63 Q50.668 1074.98 43.5384 1074.98 Q36.4406 1074.98 29.2474 1072.63 Q22.0542 1070.27 14.5426 1065.46 L14.5426 1060.37 Z" fill="#000000" fill-rule="nonzero" fill-opacity="1" /><path clip-path="url(#clip330)" d="M16.4842 1048.75 L16.4842 1018.71 L21.895 1018.71 L21.895 1042.33 L35.9632 1042.33 L35.9632 1019.7 L41.3741 1019.7 L41.3741 1042.33 L58.5933 1042.33 L58.5933 1018.14 L64.0042 1018.14 L64.0042 1048.75 L16.4842 1048.75 Z" fill="#000000" fill-rule="nonzero" fill-opacity="1" /><path clip-path="url(#clip330)" d="M29.4065 985.098 L34.9447 985.098 Q33.6716 987.58 33.035 990.254 Q32.3984 992.928 32.3984 995.792 Q32.3984 1000.15 33.7352 1002.35 Q35.072 1004.51 37.7456 1004.51 Q39.7826 1004.51 40.9603 1002.95 Q42.1061 1001.39 43.1565 996.683 L43.6021 994.678 Q44.9389 988.44 47.3897 985.83 Q49.8086 983.188 54.1691 983.188 Q59.1344 983.188 62.0308 987.135 Q64.9272 991.05 64.9272 997.925 Q64.9272 1000.79 64.3543 1003.91 Q63.8132 1007 62.6992 1010.43 L56.6518 1010.43 Q58.3387 1007.19 59.198 1004.04 Q60.0256 1000.88 60.0256 997.797 Q60.0256 993.66 58.6251 991.432 Q57.1929 989.204 54.6147 989.204 Q52.2276 989.204 50.9545 990.827 Q49.6813 992.418 48.5037 997.861 L48.0262 999.898 Q46.8804 1005.34 44.5251 1007.76 Q42.138 1010.18 38.0002 1010.18 Q32.9713 1010.18 30.2341 1006.61 Q27.4968 1003.05 27.4968 996.492 Q27.4968 993.246 27.9743 990.381 Q28.4517 987.517 29.4065 985.098 Z" fill="#000000" fill-rule="nonzero" fill-opacity="1" /><path clip-path="url(#clip330)" d="M18.2347 968.07 L28.3562 968.07 L28.3562 956.007 L32.9077 956.007 L32.9077 968.07 L52.2594 968.07 Q56.6199 968.07 57.8613 966.892 Q59.1026 965.682 59.1026 962.022 L59.1026 956.007 L64.0042 956.007 L64.0042 962.022 Q64.0042 968.802 61.4897 971.38 Q58.9434 973.958 52.2594 973.958 L32.9077 973.958 L32.9077 978.255 L28.3562 978.255 L28.3562 973.958 L18.2347 973.958 L18.2347 968.07 Z" fill="#000000" fill-rule="nonzero" fill-opacity="1" /><path clip-path="url(#clip330)" d="M28.3562 948.304 L28.3562 942.448 L64.0042 942.448 L64.0042 948.304 L28.3562 948.304 M14.479 948.304 L14.479 942.448 L21.895 942.448 L21.895 948.304 L14.479 948.304 Z" fill="#000000" fill-rule="nonzero" fill-opacity="1" /><path clip-path="url(#clip330)" d="M35.1993 902.439 Q31.2526 900.243 29.3747 897.187 Q27.4968 894.132 27.4968 889.994 Q27.4968 884.424 31.4117 881.4 Q35.2948 878.377 42.4881 878.377 L64.0042 878.377 L64.0042 884.265 L42.679 884.265 Q37.5546 884.265 35.072 886.079 Q32.5894 887.893 32.5894 891.617 Q32.5894 896.169 35.6131 898.811 Q38.6368 901.452 43.8567 901.452 L64.0042 901.452 L64.0042 907.341 L42.679 907.341 Q37.5228 907.341 35.072 909.155 Q32.5894 910.969 32.5894 914.757 Q32.5894 919.245 35.6449 921.886 Q38.6686 924.528 43.8567 924.528 L64.0042 924.528 L64.0042 930.416 L28.3562 930.416 L28.3562 924.528 L33.8944 924.528 Q30.616 922.523 29.0564 919.722 Q27.4968 916.921 27.4968 913.07 Q27.4968 909.187 29.4702 906.481 Q31.4436 903.744 35.1993 902.439 Z" fill="#000000" fill-rule="nonzero" fill-opacity="1" /><path clip-path="url(#clip330)" d="M46.0847 850.495 Q46.0847 857.593 47.7079 860.33 Q49.3312 863.067 53.2461 863.067 Q56.3653 863.067 58.2114 861.03 Q60.0256 858.961 60.0256 855.428 Q60.0256 850.559 56.5881 847.63 Q53.1188 844.67 47.3897 844.67 L46.0847 844.67 L46.0847 850.495 M43.6657 838.814 L64.0042 838.814 L64.0042 844.67 L58.5933 844.67 Q61.8398 846.675 63.3994 849.667 Q64.9272 852.659 64.9272 856.988 Q64.9272 862.462 61.8716 865.709 Q58.7843 868.924 53.6281 868.924 Q47.6125 868.924 44.5569 864.913 Q41.5014 860.871 41.5014 852.882 L41.5014 844.67 L40.9285 844.67 Q36.8862 844.67 34.6901 847.344 Q32.4621 849.986 32.4621 854.792 Q32.4621 857.847 33.1941 860.744 Q33.9262 863.64 35.3903 866.314 L29.9795 866.314 Q28.7381 863.099 28.1334 860.075 Q27.4968 857.052 27.4968 854.187 Q27.4968 846.453 31.5072 842.633 Q35.5176 838.814 43.6657 838.814 Z" fill="#000000" fill-rule="nonzero" fill-opacity="1" /><path clip-path="url(#clip330)" d="M18.2347 820.958 L28.3562 820.958 L28.3562 808.895 L32.9077 808.895 L32.9077 820.958 L52.2594 820.958 Q56.6199 820.958 57.8613 819.78 Q59.1026 818.571 59.1026 814.911 L59.1026 808.895 L64.0042 808.895 L64.0042 814.911 Q64.0042 821.69 61.4897 824.268 Q58.9434 826.846 52.2594 826.846 L32.9077 826.846 L32.9077 831.143 L28.3562 831.143 L28.3562 826.846 L18.2347 826.846 L18.2347 820.958 Z" fill="#000000" fill-rule="nonzero" fill-opacity="1" /><path clip-path="url(#clip330)" d="M44.7161 770.701 L47.5806 770.701 L47.5806 797.628 Q53.6281 797.246 56.8109 793.999 Q59.9619 790.721 59.9619 784.896 Q59.9619 781.522 59.1344 778.371 Q58.3069 775.189 56.6518 772.069 L62.1899 772.069 Q63.5267 775.22 64.227 778.531 Q64.9272 781.841 64.9272 785.246 Q64.9272 793.776 59.9619 798.774 Q54.9967 803.739 46.5303 803.739 Q37.7774 803.739 32.6531 799.028 Q27.4968 794.286 27.4968 786.265 Q27.4968 779.072 32.1438 774.902 Q36.7589 770.701 44.7161 770.701 M42.9973 776.557 Q38.1912 776.621 35.3266 779.263 Q32.4621 781.873 32.4621 786.201 Q32.4621 791.103 35.2312 794.063 Q38.0002 796.991 43.0292 797.437 L42.9973 776.557 Z" fill="#000000" fill-rule="nonzero" fill-opacity="1" /><path clip-path="url(#clip330)" d="M33.7671 737.631 L14.479 737.631 L14.479 731.774 L64.0042 731.774 L64.0042 737.631 L58.657 737.631 Q61.8398 739.477 63.3994 742.31 Q64.9272 745.111 64.9272 749.057 Q64.9272 755.519 59.771 759.593 Q54.6147 763.635 46.212 763.635 Q37.8093 763.635 32.6531 759.593 Q27.4968 755.519 27.4968 749.057 Q27.4968 745.111 29.0564 742.31 Q30.5842 739.477 33.7671 737.631 M46.212 757.587 Q52.6732 757.587 56.3653 754.946 Q60.0256 752.272 60.0256 747.625 Q60.0256 742.978 56.3653 740.305 Q52.6732 737.631 46.212 737.631 Q39.7508 737.631 36.0905 740.305 Q32.3984 742.978 32.3984 747.625 Q32.3984 752.272 36.0905 754.946 Q39.7508 757.587 46.212 757.587 Z" fill="#000000" fill-rule="nonzero" fill-opacity="1" /><path clip-path="url(#clip330)" d="M57.5111 681.517 Q59.0389 680.371 59.0389 676.934 L59.0389 674.101 L64.0042 674.101 L64.0042 677.634 Q64.0042 683.363 60.9486 685.973 Q57.8294 688.583 51.0818 688.583 L34.2127 688.583 L34.2127 701.951 L28.3562 701.951 L28.3562 669.072 L34.2127 669.072 L34.2127 682.599 L51.4319 682.599 Q56.047 682.599 57.5111 681.517 Z" fill="#000000" fill-rule="nonzero" fill-opacity="1" /><path clip-path="url(#clip330)" d="M43.5384 641.986 L43.5384 624.831 L48.7583 624.831 L48.7583 641.986 L43.5384 641.986 Z" fill="#000000" fill-rule="nonzero" fill-opacity="1" /><path clip-path="url(#clip330)" d="M16.4842 601.118 L16.4842 560.919 L21.895 560.919 L21.895 577.788 L64.0042 577.788 L64.0042 584.249 L21.895 584.249 L21.895 601.118 L16.4842 601.118 Z" fill="#000000" fill-rule="nonzero" fill-opacity="1" /><path clip-path="url(#clip330)" d="M33.8307 543.891 Q33.2578 544.877 33.0032 546.055 Q32.7167 547.201 32.7167 548.601 Q32.7167 553.567 35.9632 556.24 Q39.1779 558.882 45.2253 558.882 L64.0042 558.882 L64.0042 564.77 L28.3562 564.77 L28.3562 558.882 L33.8944 558.882 Q30.6479 557.036 29.0883 554.076 Q27.4968 551.116 27.4968 546.883 Q27.4968 546.278 27.5923 545.546 Q27.656 544.814 27.8151 543.922 L33.8307 543.891 Z" fill="#000000" fill-rule="nonzero" fill-opacity="1" /><path clip-path="url(#clip330)" d="M49.9359 538.352 L28.3562 538.352 L28.3562 532.496 L49.7131 532.496 Q54.7739 532.496 57.3202 530.523 Q59.8346 528.549 59.8346 524.603 Q59.8346 519.86 56.8109 517.123 Q53.7872 514.354 48.5673 514.354 L28.3562 514.354 L28.3562 508.497 L64.0042 508.497 L64.0042 514.354 L58.5296 514.354 Q61.7762 516.486 63.3676 519.319 Q64.9272 522.12 64.9272 525.844 Q64.9272 531.987 61.1078 535.17 Q57.2883 538.352 49.9359 538.352 M27.4968 523.616 L27.4968 523.616 Z" fill="#000000" fill-rule="nonzero" fill-opacity="1" /><path clip-path="url(#clip330)" d="M44.7161 465.943 L47.5806 465.943 L47.5806 492.87 Q53.6281 492.488 56.8109 489.241 Q59.9619 485.963 59.9619 480.138 Q59.9619 476.764 59.1344 473.613 Q58.3069 470.43 56.6518 467.311 L62.1899 467.311 Q63.5267 470.462 64.227 473.772 Q64.9272 477.083 64.9272 480.488 Q64.9272 489.018 59.9619 494.015 Q54.9967 498.981 46.5303 498.981 Q37.7774 498.981 32.6531 494.27 Q27.4968 489.528 27.4968 481.507 Q27.4968 474.313 32.1438 470.144 Q36.7589 465.943 44.7161 465.943 M42.9973 471.799 Q38.1912 471.863 35.3266 474.504 Q32.4621 477.114 32.4621 481.443 Q32.4621 486.345 35.2312 489.305 Q38.0002 492.233 43.0292 492.679 L42.9973 471.799 Z" fill="#000000" fill-rule="nonzero" fill-opacity="1" /><path clip-path="url(#clip330)" d="M57.5111 418.136 Q59.0389 416.99 59.0389 413.553 L59.0389 410.72 L64.0042 410.72 L64.0042 414.253 Q64.0042 419.982 60.9486 422.592 Q57.8294 425.202 51.0818 425.202 L34.2127 425.202 L34.2127 438.57 L28.3562 438.57 L28.3562 405.691 L34.2127 405.691 L34.2127 419.218 L51.4319 419.218 Q56.047 419.218 57.5111 418.136 Z" fill="#000000" fill-rule="nonzero" fill-opacity="1" /><path clip-path="url(#clip330)" d="M14.5426 397.288 L14.5426 392.196 Q22.0542 387.422 29.2474 385.066 Q36.4406 382.679 43.5384 382.679 Q50.668 382.679 57.8931 385.066 Q65.1182 387.422 72.5979 392.196 L72.5979 397.288 Q65.3091 393.055 58.1159 390.986 Q50.8908 388.886 43.5384 388.886 Q36.186 388.886 29.0246 390.986 Q21.8632 393.055 14.5426 397.288 Z" fill="#000000" fill-rule="nonzero" fill-opacity="1" /><path clip-path="url(#clip330)" d="M39.1142 368.547 L39.1142 355.052 L42.7427 355.052 L42.7427 374.085 L39.2416 374.085 Q38.2549 373.003 36.4725 370.998 Q26.7648 360.049 23.7729 360.049 Q21.6722 360.049 20.3991 361.704 Q19.0941 363.359 19.0941 366.065 Q19.0941 367.72 19.667 369.661 Q20.2081 371.603 21.3221 373.894 L17.4072 373.894 Q16.516 371.444 16.0704 369.343 Q15.6248 367.21 15.6248 365.396 Q15.6248 360.781 17.7255 358.012 Q19.8262 355.243 23.2636 355.243 Q27.6878 355.243 36.7271 365.778 Q38.2549 367.561 39.1142 368.547 Z" fill="#000000" fill-rule="nonzero" fill-opacity="1" /><polyline clip-path="url(#clip332)" style="stroke:#009af9; stroke-linecap:round; stroke-linejoin:round; stroke-width:4; stroke-opacity:1; fill:none" points="280.231,1406.53 282.245,47.2441 284.259,144.525 286.274,311.976 288.288,616.25 290.302,916.771 292.316,1054.92 294.33,1135.5 296.344,1203.92 298.359,1249.99 300.373,1273.19 302.387,1333.55 304.401,1372.24 306.415,1382.04 308.43,1387.6 310.444,1389.08 312.458,1393.58 314.472,1406.45 316.486,1408.1 318.5,1408.69 320.515,1410.35 322.529,1411.16 324.543,1410.76 326.557,1411.46 328.571,1411.76 330.585,1411.33 332.6,1410.14 334.614,1410.65 336.628,1409.48 338.642,1409.1 340.656,1409.07 342.67,1409.57 344.685,1409.24 346.699,1408.45 348.713,1408.32 350.727,1409.78 352.741,1408.72 354.756,1409.53 356.77,1410.07 358.784,1410.3 360.798,1411.07 362.812,1411.33 364.826,1411.23 366.841,1411.49 368.855,1410.87 370.869,1409.98 372.883,1410.51 374.897,1409.27 376.911,1408.34 378.926,1409.36 380.94,1410.74 382.954,1410.73 384.968,1411 386.982,1411.12 388.996,1411.18 391.011,1410.91 393.025,1411.74 395.039,1411.16 397.053,1410.23 399.067,1410.24 401.082,1411.03 403.096,1410.44 405.11,1410.67 407.124,1409.91 409.138,1409.74 411.152,1409.75 413.167,1409.84 415.181,1409.12 417.195,1409.06 419.209,1409.92 421.223,1410.14 423.237,1410.09 425.252,1410.5 427.266,1410.74 429.28,1410.8 431.294,1410.86 433.308,1410.72 435.322,1410.68 437.337,1410.73 439.351,1410.78 441.365,1410.91 443.379,1410.6 445.393,1410.27 447.408,1409.9 449.422,1409.68 451.436,1409.67 453.45,1409.45 455.464,1410.09 457.478,1409.9 459.493,1409.7 461.507,1409.12 463.521,1409.01 465.535,1409.22 467.549,1409.09 469.563,1409 471.578,1408.61 473.592,1408.85 475.606,1409.03 477.62,1409.14 479.634,1409.07 481.648,1409.39 483.663,1409.35 485.677,1409.64 487.691,1409.58 489.705,1409.83 491.719,1409.84 493.734,1409.9 495.748,1410.03 497.762,1410.21 499.776,1409.78 501.79,1409.7 503.804,1409.52 505.819,1409.87 507.833,1410.13 509.847,1410.3 511.861,1410.4 513.875,1410.46 515.889,1410.18 517.904,1410.45 519.918,1410.7 521.932,1410.31 523.946,1410.46 525.96,1410.69 527.974,1411.08 529.989,1411.49 532.003,1411.02 534.017,1410.96 536.031,1410.98 538.045,1410.8 540.06,1411.31 542.074,1411.5 544.088,1412.01 546.102,1412.21 548.116,1412.05 550.13,1412.2 552.145,1412.3 554.159,1412.31 556.173,1412.41 558.187,1412.31 560.201,1412.28 562.215,1412.49 564.23,1412.59 566.244,1412.6 568.258,1412.21 570.272,1412.32 572.286,1412.43 574.301,1412.37 576.315,1412.27 578.329,1412.02 580.343,1411.74 582.357,1411.46 584.371,1411.61 586.386,1411.73 588.4,1411.44 590.414,1411.7 592.428,1411.88 594.442,1412.08 596.456,1411.77 598.471,1411.48 600.485,1411.48 602.499,1411.26 604.513,1410.96 606.527,1411.51 608.541,1411.42 610.556,1411.55 612.57,1411.95 614.584,1412.05 616.598,1411.94 618.612,1411.97 620.627,1412.12 622.641,1411.94 624.655,1411.73 626.669,1412.04 628.683,1412.05 630.697,1412.29 632.712,1412.03 634.726,1412 636.74,1412.14 638.754,1412.19 640.768,1411.91 642.782,1411.96 644.797,1412.25 646.811,1411.93 648.825,1412.1 650.839,1412.08 652.853,1412.25 654.867,1412.43 656.882,1412.53 658.896,1412.73 660.91,1413.1 662.924,1413.1 664.938,1413.24 666.953,1413.01 668.967,1413.01 670.981,1412.78 672.995,1412.57 675.009,1413.12 677.023,1412.83 679.038,1413 681.052,1412.66 683.066,1412.55 685.08,1412.92 687.094,1413.23 689.108,1413.72 691.123,1413.46 693.137,1413.79 695.151,1413.74 697.165,1413.78 699.179,1413.97 701.193,1413.77 703.208,1413.62 705.222,1413.48 707.236,1413.51 709.25,1413.48 711.264,1413.75 713.279,1413.73 715.293,1413.73 717.307,1413.04 719.321,1413.04 721.335,1413.12 723.349,1413.16 725.364,1413 727.378,1412.81 729.392,1412.8 731.406,1413.04 733.42,1413.12 735.434,1413.15 737.449,1413.2 739.463,1413.47 741.477,1413.32 743.491,1413.38 745.505,1413.42 747.519,1413.25 749.534,1413.17 751.548,1413.08 753.562,1413.12 755.576,1413.4 757.59,1413.26 759.605,1413.1 761.619,1413.3 763.633,1412.97 765.647,1413.36 767.661,1413.47 769.675,1413.44 771.69,1413.46 773.704,1413.42 775.718,1413.1 777.732,1412.92 779.746,1412.98 781.76,1413.22 783.775,1413.15 785.789,1413.27 787.803,1412.89 789.817,1413.05 791.831,1412.93 793.845,1413.24 795.86,1413.24 797.874,1413.33 799.888,1413.21 801.902,1413.15 803.916,1413.12 805.931,1412.83 807.945,1412.79 809.959,1412.76 811.973,1413.22 813.987,1413.51 816.001,1413.53 818.016,1413.59 820.03,1413.34 822.044,1413.25 824.058,1413.38 826.072,1413.55 828.086,1413.36 830.101,1413.85 832.115,1413.71 834.129,1413.81 836.143,1413.62 838.157,1413.7 840.171,1414.34 842.186,1414.14 844.2,1414.3 846.214,1414.42 848.228,1414.41 850.242,1414.45 852.257,1414.54 854.271,1414.88 856.285,1415.13 858.299,1415.15 860.313,1415.16 862.327,1415.48 864.342,1415.5 866.356,1415.56 868.37,1415.17 870.384,1415.09 872.398,1414.86 874.412,1415.22 876.427,1415.25 878.441,1415.14 880.455,1415.18 882.469,1415.02 884.483,1415.13 886.498,1415.08 888.512,1414.9 890.526,1415.14 892.54,1415.16 894.554,1415.3 896.568,1415.32 898.583,1415.41 900.597,1415.41 902.611,1415.49 904.625,1415.51 906.639,1415.48 908.653,1415.53 910.668,1415.52 912.682,1415.53 914.696,1415.54 916.71,1415.54 918.724,1415.29 920.738,1415.51 922.753,1415.67 924.767,1416.15 926.781,1416.11 928.795,1416.09 930.809,1415.84 932.824,1415.86 934.838,1415.77 936.852,1415.62 938.866,1415.46 940.88,1415.46 942.894,1415.25 944.909,1415.31 946.923,1415.55 948.937,1415.7 950.951,1415.54 952.965,1415.6 954.979,1415.32 956.994,1415.31 959.008,1415.29 961.022,1415.46 963.036,1415.53 965.05,1415.28 967.064,1415.28 969.079,1415.37 971.093,1415.71 973.107,1415.37 975.121,1415.38 977.135,1415.42 979.15,1415.81 981.164,1415.63 983.178,1415.73 985.192,1415.63 987.206,1415.41 989.22,1415.51 991.235,1415.33 993.249,1415.34 995.263,1415.34 997.277,1415.23 999.291,1415.17 1001.31,1415.04 1003.32,1415.19 1005.33,1415.46 1007.35,1415.49 1009.36,1415.68 1011.38,1415.94 1013.39,1415.7 1015.4,1415.65 1017.42,1415.92 1019.43,1415.86 1021.45,1416.01 1023.46,1416.18 1025.48,1416.15 1027.49,1416.25 1029.5,1416.26 1031.52,1416.14 1033.53,1416.59 1035.55,1416.76 1037.56,1416.73 1039.57,1416.52 1041.59,1416.26 1043.6,1416.28 1045.62,1416.2 1047.63,1416.08 1049.65,1415.75 1051.66,1415.64 1053.67,1415.84 1055.69,1415.83 1057.7,1415.87 1059.72,1416.07 1061.73,1416 1063.74,1416.12 1065.76,1415.94 1067.77,1416.08 1069.79,1415.64 1071.8,1416.02 1073.82,1416.31 1075.83,1416.39 1077.84,1416.47 1079.86,1416.64 1081.87,1416.76 1083.89,1416.83 1085.9,1416.71 1087.91,1416.44 1089.93,1416.49 1091.94,1416.65 1093.96,1416.66 1095.97,1416.89 1097.99,1416.8 1100,1417.07 1102.01,1417.1 1104.03,1417.32 1106.04,1417.29 1108.06,1417.29 1110.07,1417.14 1112.09,1417.15 1114.1,1416.91 1116.11,1416.88 1118.13,1417.05 1120.14,1416.94 1122.16,1417.07 1124.17,1417.17 1126.18,1417.22 1128.2,1417.13 1130.21,1417.16 1132.23,1417.26 1134.24,1417.14 1136.26,1417.22 1138.27,1417.05 1140.28,1417.03 1142.3,1416.85 1144.31,1416.82 1146.33,1416.4 1148.34,1416.52 1150.35,1416.63 1152.37,1416.66 1154.38,1416.57 1156.4,1416.53 1158.41,1416.76 1160.43,1416.64 1162.44,1416.52 1164.45,1416.51 1166.47,1416.28 1168.48,1416.17 1170.5,1416.39 1172.51,1416.19 1174.52,1416.11 1176.54,1416.17 1178.55,1416.04 1180.57,1415.99 1182.58,1415.96 1184.6,1415.74 1186.61,1415.74 1188.62,1415.88 1190.64,1415.96 1192.65,1416.02 1194.67,1416.36 1196.68,1416.28 1198.69,1416.41 1200.71,1416.57 1202.72,1416.47 1204.74,1416.45 1206.75,1416.52 1208.77,1416.4 1210.78,1416.44 1212.79,1416.28 1214.81,1416.23 1216.82,1416.26 1218.84,1416.29 1220.85,1416.72 1222.86,1416.69 1224.88,1416.44 1226.89,1416.61 1228.91,1416.82 1230.92,1417.02 1232.94,1416.68 1234.95,1416.8 1236.96,1417.06 1238.98,1416.76 1240.99,1416.67 1243.01,1416.55 1245.02,1416.53 1247.03,1416.79 1249.05,1416.85 1251.06,1416.85 1253.08,1416.94 1255.09,1416.75 1257.11,1416.89 1259.12,1416.97 1261.13,1417.05 1263.15,1417.09 1265.16,1416.84 1267.18,1416.6 1269.19,1416.65 1271.2,1416.56 1273.22,1416.52 1275.23,1416.48 1277.25,1416.42 1279.26,1416.48 1281.28,1416.74 1283.29,1416.76 1285.3,1416.96 1287.32,1416.85 1289.33,1416.91 1291.35,1416.88 1293.36,1416.83 1295.37,1416.95 1297.39,1416.97 1299.4,1417.19 1301.42,1416.95 1303.43,1416.82 1305.45,1416.77 1307.46,1416.68 1309.47,1416.63 1311.49,1416.85 1313.5,1417.26 1315.52,1417.63 1317.53,1417.58 1319.54,1417.69 1321.56,1417.67 1323.57,1417.64 1325.59,1417.94 1327.6,1418.22 1329.62,1418.14 1331.63,1418.06 1333.64,1418.17 1335.66,1418.26 1337.67,1418.25 1339.69,1418.24 1341.7,1418.1 1343.72,1417.87 1345.73,1417.87 1347.74,1418.03 1349.76,1417.94 1351.77,1417.82 1353.79,1417.72 1355.8,1417.78 1357.81,1417.78 1359.83,1417.88 1361.84,1418.04 1363.86,1417.97 1365.87,1417.92 1367.89,1417.9 1369.9,1418.05 1371.91,1418.1 1373.93,1418.06 1375.94,1418.23 1377.96,1418.12 1379.97,1417.81 1381.98,1417.77 1384,1417.79 1386.01,1417.85 1388.03,1418.07 1390.04,1418.03 1392.06,1418 1394.07,1417.95 1396.08,1417.62 1398.1,1417.92 1400.11,1417.94 1402.13,1418.15 1404.14,1418.06 1406.15,1418.27 1408.17,1418.05 1410.18,1417.9 1412.2,1418.03 1414.21,1418.02 1416.23,1418.22 1418.24,1418.28 1420.25,1418.28 1422.27,1418.5 1424.28,1418.67 1426.3,1418.65 1428.31,1418.58 1430.32,1418.51 1432.34,1418.37 1434.35,1418.46 1436.37,1418.15 1438.38,1418.21 1440.4,1418.37 1442.41,1418.68 1444.42,1418.76 1446.44,1418.72 1448.45,1418.68 1450.47,1418.89 1452.48,1418.96 1454.49,1418.86 1456.51,1418.69 1458.52,1418.4 1460.54,1418.22 1462.55,1418.18 1464.57,1418.28 1466.58,1418.32 1468.59,1418.49 1470.61,1418.39 1472.62,1418.26 1474.64,1418.14 1476.65,1418.28 1478.66,1418.33 1480.68,1418.5 1482.69,1418.75 1484.71,1418.7 1486.72,1418.76 1488.74,1418.81 1490.75,1418.72 1492.76,1418.87 1494.78,1418.99 1496.79,1419.12 1498.81,1418.96 1500.82,1419.06 1502.83,1419.12 1504.85,1419.35 1506.86,1419.39 1508.88,1419.4 1510.89,1419.44 1512.91,1419.47 1514.92,1419.48 1516.93,1419.51 1518.95,1419.53 1520.96,1419.52 1522.98,1419.45 1524.99,1419.48 1527,1419.4 1529.02,1419.22 1531.03,1419.15 1533.05,1419.18 1535.06,1419.36 1537.08,1419.2 1539.09,1419.24 1541.1,1419.19 1543.12,1419.19 1545.13,1419.03 1547.15,1418.99 1549.16,1419.1 1551.17,1419.06 1553.19,1419.01 1555.2,1419.09 1557.22,1419.23 1559.23,1419.25 1561.25,1419.3 1563.26,1419.31 1565.27,1419.35 1567.29,1419.15 1569.3,1419.19 1571.32,1419.14 1573.33,1418.83 1575.35,1419.03 1577.36,1419.09 1579.37,1419.1 1581.39,1419.19 1583.4,1419.22 1585.42,1419.16 1587.43,1419.25 1589.44,1419.1 1591.46,1419.22 1593.47,1419.34 1595.49,1419.28 1597.5,1419.23 1599.52,1419.1 1601.53,1419.24 1603.54,1419.36 1605.56,1419.28 1607.57,1419.1 1609.59,1419.29 1611.6,1419.03 1613.61,1419.02 1615.63,1418.84 1617.64,1418.86 1619.66,1419.02 1621.67,1418.82 1623.69,1419.1 1625.7,1419.19 1627.71,1419.21 1629.73,1419.12 1631.74,1419.3 1633.76,1419.2 1635.77,1419.13 1637.78,1419.12 1639.8,1418.86 1641.81,1418.87 1643.83,1418.92 1645.84,1418.95 1647.86,1418.89 1649.87,1418.9 1651.88,1419.01 1653.9,1419.18 1655.91,1419.1 1657.93,1419 1659.94,1418.88 1661.95,1419.02 1663.97,1418.9 1665.98,1418.79 1668,1418.47 1670.01,1418.7 1672.03,1418.41 1674.04,1418.51 1676.05,1418.35 1678.07,1418.42 1680.08,1418.32 1682.1,1418.56 1684.11,1418.74 1686.12,1418.74 1688.14,1419.03 1690.15,1418.89 1692.17,1418.81 1694.18,1418.93 1696.2,1418.9 1698.21,1418.96 1700.22,1418.82 1702.24,1418.78 1704.25,1418.64 1706.27,1418.52 1708.28,1418.8 1710.29,1418.96 1712.31,1418.95 1714.32,1419.13 1716.34,1419.14 1718.35,1419.16 1720.37,1419.38 1722.38,1419.35 1724.39,1419.37 1726.41,1419.24 1728.42,1419.4 1730.44,1419.37 1732.45,1419.28 1734.46,1419.47 1736.48,1419.41 1738.49,1419.39 1740.51,1419.41 1742.52,1419.43 1744.54,1419.31 1746.55,1419.19 1748.56,1419.08 1750.58,1418.79 1752.59,1418.9 1754.61,1418.92 1756.62,1418.96 1758.63,1419.02 1760.65,1419.02 1762.66,1419.14 1764.68,1419.1 1766.69,1419.09 1768.71,1418.97 1770.72,1419.02 1772.73,1418.99 1774.75,1418.96 1776.76,1418.88 1778.78,1418.76 1780.79,1418.86 1782.81,1418.78 1784.82,1418.69 1786.83,1418.74 1788.85,1418.79 1790.86,1418.91 1792.88,1418.82 1794.89,1418.77 1796.9,1418.87 1798.92,1418.61 1800.93,1419.06 1802.95,1419.05 1804.96,1418.89 1806.98,1418.73 1808.99,1418.71 1811,1418.69 1813.02,1418.78 1815.03,1418.72 1817.05,1418.69 1819.06,1418.56 1821.07,1418.61 1823.09,1418.42 1825.1,1418.39 1827.12,1418.49 1829.13,1418.49 1831.15,1418.4 1833.16,1418.51 1835.17,1418.62 1837.19,1418.56 1839.2,1418.44 1841.22,1418.45 1843.23,1418.45 1845.24,1418.43 1847.26,1418.45 1849.27,1418.68 1851.29,1418.66 1853.3,1418.89 1855.32,1418.99 1857.33,1419.07 1859.34,1419.05 1861.36,1418.86 1863.37,1418.91 1865.39,1418.93 1867.4,1418.97 1869.41,1418.99 1871.43,1418.85 1873.44,1419.01 1875.46,1418.73 1877.47,1418.83 1879.49,1418.87 1881.5,1418.74 1883.51,1418.65 1885.53,1418.56 1887.54,1418.52 1889.56,1418.44 1891.57,1418.53 1893.58,1418.27 1895.6,1418.15 1897.61,1418.31 1899.63,1418.55 1901.64,1418.41 1903.66,1418.58 1905.67,1418.43 1907.68,1418.33 1909.7,1418.13 1911.71,1418.36 1913.73,1418.39 1915.74,1418.58 1917.75,1418.63 1919.77,1418.73 1921.78,1418.76 1923.8,1418.79 1925.81,1418.82 1927.83,1419.11 1929.84,1418.96 1931.85,1419.09 1933.87,1418.97 1935.88,1418.97 1937.9,1418.89 1939.91,1418.43 1941.92,1418.44 1943.94,1418.48 1945.95,1418.5 1947.97,1418.6 1949.98,1418.46 1952,1418.44 1954.01,1418.4 1956.02,1418.59 1958.04,1418.7 1960.05,1418.71 1962.07,1418.68 1964.08,1418.77 1966.09,1418.89 1968.11,1418.98 1970.12,1418.94 1972.14,1418.62 1974.15,1418.68 1976.17,1418.62 1978.18,1418.71 1980.19,1418.69 1982.21,1418.6 1984.22,1418.81 1986.24,1418.87 1988.25,1418.88 1990.26,1418.81 1992.28,1418.84 1994.29,1418.76 1996.31,1418.64 1998.32,1418.83 2000.34,1418.91 2002.35,1418.86 2004.36,1419.08 2006.38,1419.21 2008.39,1419.25 2010.41,1419.23 2012.42,1419.31 2014.44,1419.15 2016.45,1419.35 2018.46,1419.45 2020.48,1419.25 2022.49,1419.24 2024.51,1419.19 2026.52,1419.32 2028.53,1419.38 2030.55,1419.51 2032.56,1419.5 2034.58,1419.37 2036.59,1419.48 2038.61,1419.55 2040.62,1419.56 2042.63,1419.63 2044.65,1419.81 2046.66,1419.83 2048.68,1419.89 2050.69,1419.64 2052.7,1419.78 2054.72,1419.67 2056.73,1419.37 2058.75,1419.37 2060.76,1419.41 2062.78,1419.32 2064.79,1419.43 2066.8,1419.31 2068.82,1419.56 2070.83,1419.6 2072.85,1419.83 2074.86,1419.83 2076.87,1419.75 2078.89,1419.78 2080.9,1419.83 2082.92,1419.86 2084.93,1419.64 2086.95,1419.76 2088.96,1419.65 2090.97,1419.77 2092.99,1419.78 2095,1419.73 2097.02,1419.65 2099.03,1419.51 2101.04,1419.52 2103.06,1419.58 2105.07,1419.62 2107.09,1419.76 2109.1,1419.84 2111.12,1419.75 2113.13,1419.73 2115.14,1419.82 2117.16,1419.99 2119.17,1419.88 2121.19,1419.78 2123.2,1419.71 2125.21,1419.75 2127.23,1419.81 2129.24,1419.69 2131.26,1419.84 2133.27,1419.8 2135.29,1419.51 2137.3,1419.52 2139.31,1419.53 2141.33,1419.62 2143.34,1419.57 2145.36,1419.26 2147.37,1419.5 2149.38,1419.47 2151.4,1419.66 2153.41,1419.48 2155.43,1419.53 2157.44,1419.63 2159.46,1419.4 2161.47,1419.35 2163.48,1419.3 2165.5,1419.45 2167.51,1419.46 2169.53,1419.5 2171.54,1419.42 2173.55,1419.53 2175.57,1419.52 2177.58,1419.34 2179.6,1419.58 2181.61,1419.58 2183.63,1419.43 2185.64,1419.52 2187.65,1419.61 2189.67,1419.74 2191.68,1419.62 2193.7,1419.54 2195.71,1419.64 2197.72,1419.63 2199.74,1419.51 2201.75,1419.4 2203.77,1419.38 2205.78,1419.37 2207.8,1419.48 2209.81,1419.54 2211.82,1419.63 2213.84,1419.43 2215.85,1419.44 2217.87,1419.47 2219.88,1419.25 2221.9,1419.34 2223.91,1419.58 2225.92,1419.75 2227.94,1419.79 2229.95,1419.81 2231.97,1419.95 2233.98,1419.78 2235.99,1419.83 2238.01,1419.82 2240.02,1419.88 2242.04,1419.82 2244.05,1419.8 2246.07,1419.77 2248.08,1419.65 2250.09,1419.68 2252.11,1419.64 2254.12,1419.75 2256.14,1419.91 2258.15,1419.94 2260.16,1419.9 2262.18,1419.9 2264.19,1419.86 2266.21,1419.87 2268.22,1420 2270.24,1420.08 2272.25,1420 2274.26,1419.79 2276.28,1419.83 2278.29,1419.92 2280.31,1420.02 2282.32,1419.97 2284.33,1420 2286.35,1420.1 2288.36,1420.08 2290.38,1420.04 2292.39,1419.92 "/>
<polyline clip-path="url(#clip332)" style="stroke:#e26f46; stroke-linecap:round; stroke-linejoin:round; stroke-width:4; stroke-opacity:1; fill:none" points="280.231,1404.48 282.245,41.9048 284.259,169.144 286.274,379.599 288.288,623.629 290.302,813.31 292.316,979.971 294.33,1110.92 296.344,1231.6 298.359,1291.68 300.373,1328.37 302.387,1348.14 304.401,1364.08 306.415,1374.01 308.43,1386.9 310.444,1391.87 312.458,1397.45 314.472,1399.44 316.486,1402.22 318.5,1402.57 320.515,1404.21 322.529,1404.91 324.543,1405.5 326.557,1405.61 328.571,1406.32 330.585,1408.03 332.6,1409.1 334.614,1409.55 336.628,1409.06 338.642,1409.09 340.656,1409.23 342.67,1408.71 344.685,1407.83 346.699,1406.92 348.713,1406.41 350.727,1406.99 352.741,1407.6 354.756,1408.53 356.77,1408.26 358.784,1408.4 360.798,1408.22 362.812,1407.87 364.826,1407.82 366.841,1408.25 368.855,1408.18 370.869,1407.88 372.883,1407.55 374.897,1407.22 376.911,1407.06 378.926,1406.9 380.94,1406.31 382.954,1406.83 384.968,1406.85 386.982,1406.43 388.996,1406.3 391.011,1406.65 393.025,1405.58 395.039,1405.73 397.053,1405.65 399.067,1405.49 401.082,1404.73 403.096,1404.17 405.11,1404 407.124,1403.73 409.138,1403.06 411.152,1402.41 413.167,1402.04 415.181,1402.02 417.195,1402.37 419.209,1402.11 421.223,1402.45 423.237,1402.44 425.252,1401.92 427.266,1402.55 429.28,1402.86 431.294,1402.88 433.308,1403.01 435.322,1403.63 437.337,1404.04 439.351,1404.25 441.365,1404.14 443.379,1404.77 445.393,1404.76 447.408,1405.31 449.422,1405.52 451.436,1405.39 453.45,1405.71 455.464,1405.72 457.478,1405.06 459.493,1405.15 461.507,1405.63 463.521,1405.34 465.535,1405.48 467.549,1405.78 469.563,1405.43 471.578,1404.84 473.592,1404.93 475.606,1405.51 477.62,1406.16 479.634,1406.05 481.648,1406.59 483.663,1406.34 485.677,1406.68 487.691,1406.58 489.705,1406.27 491.719,1406.67 493.734,1406.46 495.748,1406.43 497.762,1406.75 499.776,1406.48 501.79,1406.71 503.804,1406.03 505.819,1406.11 507.833,1406.42 509.847,1405.94 511.861,1404.89 513.875,1404.62 515.889,1405.07 517.904,1405.35 519.918,1405.42 521.932,1405.06 523.946,1404.51 525.96,1404.22 527.974,1404.1 529.989,1403.18 532.003,1402.88 534.017,1402.83 536.031,1403.55 538.045,1403.23 540.06,1403.09 542.074,1403.54 544.088,1403.59 546.102,1404.28 548.116,1404.37 550.13,1404.11 552.145,1404.4 554.159,1403.88 556.173,1403.88 558.187,1404.18 560.201,1404.5 562.215,1404.93 564.23,1404.76 566.244,1405.05 568.258,1405.07 570.272,1405.06 572.286,1404.83 574.301,1405.22 576.315,1405.05 578.329,1404.96 580.343,1405.02 582.357,1404.94 584.371,1404.91 586.386,1404.71 588.4,1404.64 590.414,1404.69 592.428,1404.82 594.442,1405.36 596.456,1405.03 598.471,1405.09 600.485,1405.19 602.499,1405.47 604.513,1404.77 606.527,1404.7 608.541,1404.75 610.556,1404.56 612.57,1404.76 614.584,1405.17 616.598,1405.57 618.612,1405.32 620.627,1405.28 622.641,1405.16 624.655,1405.33 626.669,1405.37 628.683,1405.05 630.697,1405.26 632.712,1405.15 634.726,1405.22 636.74,1405.42 638.754,1405.61 640.768,1405.58 642.782,1405.97 644.797,1406.08 646.811,1405.99 648.825,1405.81 650.839,1405.41 652.853,1405.62 654.867,1405.93 656.882,1406.16 658.896,1405.96 660.91,1406.33 662.924,1406.44 664.938,1406.79 666.953,1406.38 668.967,1406.47 670.981,1406.39 672.995,1406.48 675.009,1406.85 677.023,1406.79 679.038,1406.84 681.052,1407.31 683.066,1407.69 685.08,1407.97 687.094,1408.05 689.108,1407.79 691.123,1407.65 693.137,1407.8 695.151,1407.86 697.165,1407.57 699.179,1407.68 701.193,1408.14 703.208,1408.39 705.222,1408.34 707.236,1408.42 709.25,1408.45 711.264,1408.12 713.279,1408 715.293,1408.04 717.307,1407.82 719.321,1407.76 721.335,1407.81 723.349,1408.14 725.364,1408 727.378,1408.1 729.392,1408.55 731.406,1408.23 733.42,1408.59 735.434,1409.05 737.449,1408.92 739.463,1409.3 741.477,1409.64 743.491,1409.67 745.505,1409.83 747.519,1409.82 749.534,1410.11 751.548,1410.12 753.562,1410.2 755.576,1410.08 757.59,1410.27 759.605,1410.03 761.619,1409.59 763.633,1409.66 765.647,1409.71 767.661,1409.92 769.675,1409.97 771.69,1410.24 773.704,1410.31 775.718,1409.98 777.732,1410.15 779.746,1410.27 781.76,1410.38 783.775,1410.17 785.789,1409.69 787.803,1409.86 789.817,1409.92 791.831,1410.03 793.845,1410.11 795.86,1410.25 797.874,1410.32 799.888,1410.38 801.902,1410.48 803.916,1410.55 805.931,1410.21 807.945,1410.48 809.959,1410.44 811.973,1410.53 813.987,1410.71 816.001,1410.91 818.016,1411.14 820.03,1411.21 822.044,1411.19 824.058,1411.13 826.072,1411.24 828.086,1411.46 830.101,1411.68 832.115,1411.61 834.129,1411.89 836.143,1411.97 838.157,1412.14 840.171,1412.26 842.186,1412.21 844.2,1412.35 846.214,1412.04 848.228,1412.32 850.242,1412.42 852.257,1412.14 854.271,1412.29 856.285,1412.18 858.299,1412.27 860.313,1412.03 862.327,1411.95 864.342,1412.18 866.356,1412.4 868.37,1412.41 870.384,1412.64 872.398,1412.42 874.412,1412.3 876.427,1412.61 878.441,1412.72 880.455,1412.62 882.469,1412.65 884.483,1412.5 886.498,1412.7 888.512,1412.49 890.526,1412.53 892.54,1412.59 894.554,1412.78 896.568,1412.74 898.583,1412.62 900.597,1412.61 902.611,1412.67 904.625,1412.87 906.639,1412.9 908.653,1412.95 910.668,1412.88 912.682,1413.05 914.696,1413.37 916.71,1413.55 918.724,1413.42 920.738,1413.18 922.753,1413.18 924.767,1413.27 926.781,1413.21 928.795,1413.55 930.809,1413.71 932.824,1413.53 934.838,1413.66 936.852,1413.77 938.866,1414.33 940.88,1414.43 942.894,1414.34 944.909,1414.07 946.923,1414.14 948.937,1414.19 950.951,1414.59 952.965,1414.81 954.979,1414.4 956.994,1414.24 959.008,1414.41 961.022,1414.33 963.036,1414.75 965.05,1415.01 967.064,1415.08 969.079,1414.98 971.093,1415.11 973.107,1414.97 975.121,1415.02 977.135,1414.94 979.15,1414.9 981.164,1414.64 983.178,1414.91 985.192,1414.8 987.206,1414.77 989.22,1414.83 991.235,1414.63 993.249,1414.55 995.263,1414.68 997.277,1414.67 999.291,1414.67 1001.31,1414.81 1003.32,1415 1005.33,1415.08 1007.35,1414.72 1009.36,1414.96 1011.38,1415.05 1013.39,1415.27 1015.4,1415.51 1017.42,1415.15 1019.43,1415.21 1021.45,1415.34 1023.46,1415.34 1025.48,1415.28 1027.49,1415.42 1029.5,1415.79 1031.52,1415.58 1033.53,1415.52 1035.55,1415.62 1037.56,1415.45 1039.57,1415.58 1041.59,1415.88 1043.6,1415.9 1045.62,1415.94 1047.63,1416.02 1049.65,1416.22 1051.66,1416.23 1053.67,1416.1 1055.69,1416.27 1057.7,1416.42 1059.72,1416.26 1061.73,1416.17 1063.74,1416.48 1065.76,1416.54 1067.77,1416.54 1069.79,1416.87 1071.8,1416.81 1073.82,1416.87 1075.83,1416.71 1077.84,1416.61 1079.86,1416.71 1081.87,1416.7 1083.89,1416.71 1085.9,1416.98 1087.91,1417.04 1089.93,1417.04 1091.94,1417.05 1093.96,1417.02 1095.97,1417.18 1097.99,1417.05 1100,1416.83 1102.01,1417.1 1104.03,1417.13 1106.04,1417.01 1108.06,1417.16 1110.07,1416.93 1112.09,1417.13 1114.1,1416.97 1116.11,1416.56 1118.13,1416.21 1120.14,1416.07 1122.16,1416.45 1124.17,1416.46 1126.18,1416.42 1128.2,1416.81 1130.21,1416.99 1132.23,1416.88 1134.24,1416.86 1136.26,1417.02 1138.27,1417.27 1140.28,1417.04 1142.3,1417.38 1144.31,1417.5 1146.33,1417.49 1148.34,1417.69 1150.35,1417.93 1152.37,1417.64 1154.38,1417.74 1156.4,1417.62 1158.41,1417.62 1160.43,1417.63 1162.44,1417.46 1164.45,1417.31 1166.47,1417.46 1168.48,1417.4 1170.5,1417.48 1172.51,1417.72 1174.52,1417.81 1176.54,1417.87 1178.55,1417.78 1180.57,1417.92 1182.58,1417.93 1184.6,1418.07 1186.61,1417.89 1188.62,1417.91 1190.64,1417.79 1192.65,1417.84 1194.67,1417.73 1196.68,1417.8 1198.69,1417.83 1200.71,1417.72 1202.72,1417.68 1204.74,1417.64 1206.75,1417.63 1208.77,1417.63 1210.78,1417.67 1212.79,1417.54 1214.81,1417.58 1216.82,1417.69 1218.84,1417.57 1220.85,1417.68 1222.86,1417.62 1224.88,1417.57 1226.89,1417.76 1228.91,1418.05 1230.92,1418.12 1232.94,1418 1234.95,1418 1236.96,1417.94 1238.98,1417.9 1240.99,1417.62 1243.01,1417.6 1245.02,1417.49 1247.03,1417.77 1249.05,1417.78 1251.06,1417.83 1253.08,1417.92 1255.09,1417.56 1257.11,1417.53 1259.12,1417.59 1261.13,1417.88 1263.15,1417.6 1265.16,1417.58 1267.18,1417.55 1269.19,1417.59 1271.2,1417.81 1273.22,1417.87 1275.23,1418.06 1277.25,1418.08 1279.26,1418.06 1281.28,1418.15 1283.29,1418.22 1285.3,1418.36 1287.32,1418.52 1289.33,1418.56 1291.35,1418.62 1293.36,1418.62 1295.37,1418.43 1297.39,1418.59 1299.4,1418.61 1301.42,1418.46 1303.43,1418.45 1305.45,1418.51 1307.46,1418.57 1309.47,1418.66 1311.49,1419.03 1313.5,1419.13 1315.52,1418.92 1317.53,1419.01 1319.54,1419.02 1321.56,1419.05 1323.57,1419.14 1325.59,1419.12 1327.6,1419.08 1329.62,1419.11 1331.63,1419.21 1333.64,1419.16 1335.66,1419.33 1337.67,1419.19 1339.69,1419.14 1341.7,1419.25 1343.72,1419.2 1345.73,1419.1 1347.74,1419.01 1349.76,1419.02 1351.77,1419.16 1353.79,1419.13 1355.8,1419.21 1357.81,1419.31 1359.83,1419.58 1361.84,1419.45 1363.86,1419.56 1365.87,1419.78 1367.89,1419.66 1369.9,1419.54 1371.91,1419.59 1373.93,1419.42 1375.94,1419.44 1377.96,1419.5 1379.97,1419.38 1381.98,1419.34 1384,1419.48 1386.01,1419.33 1388.03,1419.39 1390.04,1419.35 1392.06,1419.59 1394.07,1419.48 1396.08,1419.45 1398.1,1419.33 1400.11,1419.25 1402.13,1419.24 1404.14,1419.08 1406.15,1419.18 1408.17,1419.1 1410.18,1419.44 1412.2,1419.5 1414.21,1419.63 1416.23,1419.5 1418.24,1419.38 1420.25,1419.36 1422.27,1419.3 1424.28,1419.34 1426.3,1419.15 1428.31,1419.12 1430.32,1419.09 1432.34,1418.97 1434.35,1418.85 1436.37,1418.92 1438.38,1418.88 1440.4,1419.07 1442.41,1419.01 1444.42,1418.99 1446.44,1418.95 1448.45,1419.08 1450.47,1418.93 1452.48,1418.92 1454.49,1418.89 1456.51,1418.83 1458.52,1418.63 1460.54,1418.42 1462.55,1418.62 1464.57,1418.81 1466.58,1418.76 1468.59,1418.89 1470.61,1418.77 1472.62,1418.96 1474.64,1418.87 1476.65,1419.09 1478.66,1419.19 1480.68,1418.87 1482.69,1418.86 1484.71,1418.81 1486.72,1418.96 1488.74,1419.03 1490.75,1419.09 1492.76,1419.22 1494.78,1419.24 1496.79,1419.35 1498.81,1419.24 1500.82,1419.47 1502.83,1419.24 1504.85,1419.13 1506.86,1418.97 1508.88,1419.13 1510.89,1419.2 1512.91,1419.33 1514.92,1419.32 1516.93,1419.3 1518.95,1419.29 1520.96,1419.2 1522.98,1419.13 1524.99,1419.09 1527,1418.82 1529.02,1419.07 1531.03,1419.42 1533.05,1419.57 1535.06,1419.53 1537.08,1419.41 1539.09,1419.41 1541.1,1419.57 1543.12,1419.56 1545.13,1419.5 1547.15,1419.55 1549.16,1419.64 1551.17,1419.65 1553.19,1419.66 1555.2,1419.69 1557.22,1419.54 1559.23,1419.42 1561.25,1419.72 1563.26,1419.55 1565.27,1419.73 1567.29,1419.79 1569.3,1419.84 1571.32,1419.85 1573.33,1419.84 1575.35,1419.85 1577.36,1419.86 1579.37,1419.91 1581.39,1420.11 1583.4,1420.18 1585.42,1420.12 1587.43,1420.08 1589.44,1420.14 1591.46,1420.05 1593.47,1420.07 1595.49,1420.13 1597.5,1420.18 1599.52,1420.35 1601.53,1420.52 1603.54,1420.66 1605.56,1420.5 1607.57,1420.49 1609.59,1420.51 1611.6,1420.4 1613.61,1420.42 1615.63,1420.34 1617.64,1420.23 1619.66,1420.22 1621.67,1420.2 1623.69,1420.37 1625.7,1420.38 1627.71,1420.41 1629.73,1420.47 1631.74,1420.48 1633.76,1420.53 1635.77,1420.59 1637.78,1420.5 1639.8,1420.38 1641.81,1420.35 1643.83,1420.25 1645.84,1420.07 1647.86,1420.04 1649.87,1419.9 1651.88,1419.82 1653.9,1419.75 1655.91,1419.73 1657.93,1419.51 1659.94,1419.69 1661.95,1419.83 1663.97,1419.82 1665.98,1419.85 1668,1419.77 1670.01,1419.62 1672.03,1419.35 1674.04,1419.2 1676.05,1419.47 1678.07,1419.36 1680.08,1419.44 1682.1,1419.63 1684.11,1419.64 1686.12,1419.75 1688.14,1419.58 1690.15,1419.7 1692.17,1419.55 1694.18,1419.69 1696.2,1419.54 1698.21,1419.73 1700.22,1419.69 1702.24,1419.66 1704.25,1419.79 1706.27,1419.54 1708.28,1419.61 1710.29,1419.87 1712.31,1419.96 1714.32,1419.85 1716.34,1419.74 1718.35,1419.71 1720.37,1419.63 1722.38,1419.54 1724.39,1419.5 1726.41,1419.33 1728.42,1419.55 1730.44,1419.53 1732.45,1419.53 1734.46,1419.27 1736.48,1419.54 1738.49,1419.47 1740.51,1419.51 1742.52,1419.48 1744.54,1419.47 1746.55,1419.6 1748.56,1419.6 1750.58,1419.81 1752.59,1419.82 1754.61,1419.82 1756.62,1419.73 1758.63,1419.75 1760.65,1419.65 1762.66,1419.83 1764.68,1419.81 1766.69,1419.74 1768.71,1419.6 1770.72,1419.69 1772.73,1419.6 1774.75,1419.73 1776.76,1419.67 1778.78,1419.64 1780.79,1419.3 1782.81,1419.53 1784.82,1419.48 1786.83,1419.45 1788.85,1419.76 1790.86,1419.87 1792.88,1419.91 1794.89,1419.76 1796.9,1419.79 1798.92,1419.71 1800.93,1419.82 1802.95,1419.85 1804.96,1419.92 1806.98,1420.08 1808.99,1419.81 1811,1419.98 1813.02,1419.82 1815.03,1419.92 1817.05,1419.81 1819.06,1419.85 1821.07,1419.65 1823.09,1419.62 1825.1,1419.71 1827.12,1419.55 1829.13,1419.6 1831.15,1419.76 1833.16,1419.85 1835.17,1419.62 1837.19,1419.73 1839.2,1419.65 1841.22,1419.6 1843.23,1419.73 1845.24,1419.78 1847.26,1419.85 1849.27,1419.94 1851.29,1420.08 1853.3,1419.95 1855.32,1420.01 1857.33,1420.02 1859.34,1420 1861.36,1419.79 1863.37,1419.9 1865.39,1419.86 1867.4,1419.79 1869.41,1419.7 1871.43,1419.75 1873.44,1419.72 1875.46,1419.49 1877.47,1419.67 1879.49,1419.75 1881.5,1419.61 1883.51,1419.67 1885.53,1419.62 1887.54,1419.62 1889.56,1419.79 1891.57,1419.84 1893.58,1419.8 1895.6,1419.77 1897.61,1419.62 1899.63,1419.71 1901.64,1419.7 1903.66,1419.63 1905.67,1419.38 1907.68,1419.34 1909.7,1419.45 1911.71,1419.34 1913.73,1419.31 1915.74,1419.33 1917.75,1419.52 1919.77,1419.64 1921.78,1419.7 1923.8,1419.68 1925.81,1419.52 1927.83,1419.49 1929.84,1419.42 1931.85,1419.43 1933.87,1419.45 1935.88,1419.37 1937.9,1419.35 1939.91,1419.36 1941.92,1419.41 1943.94,1419.27 1945.95,1419.32 1947.97,1419.25 1949.98,1419.34 1952,1419.49 1954.01,1419.33 1956.02,1419.38 1958.04,1419.53 1960.05,1419.46 1962.07,1419.41 1964.08,1419.54 1966.09,1419.47 1968.11,1419.55 1970.12,1419.62 1972.14,1419.48 1974.15,1419.56 1976.17,1419.43 1978.18,1419.38 1980.19,1419.55 1982.21,1419.58 1984.22,1419.6 1986.24,1419.65 1988.25,1419.66 1990.26,1419.58 1992.28,1419.72 1994.29,1419.75 1996.31,1419.94 1998.32,1419.96 2000.34,1420.03 2002.35,1420.07 2004.36,1419.99 2006.38,1419.92 2008.39,1419.81 2010.41,1419.6 2012.42,1419.47 2014.44,1419.35 2016.45,1419.54 2018.46,1419.61 2020.48,1419.67 2022.49,1419.54 2024.51,1419.57 2026.52,1419.48 2028.53,1419.56 2030.55,1419.62 2032.56,1419.61 2034.58,1419.5 2036.59,1419.52 2038.61,1419.65 2040.62,1419.75 2042.63,1419.94 2044.65,1419.68 2046.66,1419.63 2048.68,1419.64 2050.69,1419.76 2052.7,1419.75 2054.72,1419.83 2056.73,1419.63 2058.75,1419.62 2060.76,1419.56 2062.78,1419.54 2064.79,1419.78 2066.8,1419.8 2068.82,1419.76 2070.83,1419.91 2072.85,1420.05 2074.86,1420.12 2076.87,1420.06 2078.89,1419.94 2080.9,1419.79 2082.92,1419.87 2084.93,1419.88 2086.95,1419.82 2088.96,1419.75 2090.97,1419.6 2092.99,1419.55 2095,1419.55 2097.02,1419.51 2099.03,1419.39 2101.04,1419.25 2103.06,1419.37 2105.07,1419.62 2107.09,1419.62 2109.1,1419.81 2111.12,1419.79 2113.13,1419.74 2115.14,1419.68 2117.16,1419.58 2119.17,1419.58 2121.19,1419.27 2123.2,1419.19 2125.21,1419.24 2127.23,1419.41 2129.24,1419.56 2131.26,1419.57 2133.27,1419.49 2135.29,1419.43 2137.3,1419.45 2139.31,1419.56 2141.33,1419.55 2143.34,1419.6 2145.36,1419.5 2147.37,1419.46 2149.38,1419.28 2151.4,1419.16 2153.41,1419.16 2155.43,1419.24 2157.44,1419.26 2159.46,1419.29 2161.47,1419.33 2163.48,1419.28 2165.5,1419.27 2167.51,1419.28 2169.53,1419.09 2171.54,1419.18 2173.55,1419.06 2175.57,1419.02 2177.58,1418.88 2179.6,1418.81 2181.61,1419 2183.63,1419.3 2185.64,1419.19 2187.65,1419.21 2189.67,1419.33 2191.68,1419.49 2193.7,1419.2 2195.71,1419.28 2197.72,1419.27 2199.74,1419.14 2201.75,1418.72 2203.77,1418.8 2205.78,1418.49 2207.8,1418.43 2209.81,1418.52 2211.82,1418.54 2213.84,1418.28 2215.85,1418.24 2217.87,1418.4 2219.88,1418.37 2221.9,1418.43 2223.91,1418.58 2225.92,1418.72 2227.94,1418.71 2229.95,1418.78 2231.97,1418.82 2233.98,1418.65 2235.99,1418.9 2238.01,1418.79 2240.02,1419.01 2242.04,1418.95 2244.05,1419.05 2246.07,1418.95 2248.08,1418.96 2250.09,1418.92 2252.11,1419.03 2254.12,1419.05 2256.14,1419.05 2258.15,1419.19 2260.16,1419.16 2262.18,1418.97 2264.19,1419 2266.21,1418.97 2268.22,1419.02 2270.24,1419.1 2272.25,1419.06 2274.26,1418.88 2276.28,1418.91 2278.29,1418.88 2280.31,1419.02 2282.32,1418.89 2284.33,1418.88 2286.35,1418.6 2288.36,1418.56 2290.38,1418.41 2292.39,1418.53 "/>
<path clip-path="url(#clip330)" d="M1521.64 248.629 L2281.66 248.629 L2281.66 93.1086 L1521.64 93.1086  Z" fill="#ffffff" fill-rule="evenodd" fill-opacity="1"/>
<polyline clip-path="url(#clip330)" style="stroke:#000000; stroke-linecap:round; stroke-linejoin:round; stroke-width:4; stroke-opacity:1; fill:none" points="1521.64,248.629 2281.66,248.629 2281.66,93.1086 1521.64,93.1086 1521.64,248.629 "/>
<polyline clip-path="url(#clip330)" style="stroke:#009af9; stroke-linecap:round; stroke-linejoin:round; stroke-width:4; stroke-opacity:1; fill:none" points="1545.34,144.949 1687.53,144.949 "/>
<path clip-path="url(#clip330)" d="M1711.23 127.669 L1718.2 127.669 L1727.01 151.187 L1735.88 127.669 L1742.85 127.669 L1742.85 162.229 L1738.29 162.229 L1738.29 131.882 L1729.38 155.585 L1724.68 155.585 L1715.76 131.882 L1715.76 162.229 L1711.23 162.229 L1711.23 127.669 Z" fill="#000000" fill-rule="nonzero" fill-opacity="1" /><path clip-path="url(#clip330)" d="M1751.51 151.997 L1751.51 136.303 L1755.76 136.303 L1755.76 151.835 Q1755.76 155.516 1757.2 157.368 Q1758.63 159.196 1761.51 159.196 Q1764.95 159.196 1766.94 156.997 Q1768.96 154.798 1768.96 151.002 L1768.96 136.303 L1773.22 136.303 L1773.22 162.229 L1768.96 162.229 L1768.96 158.247 Q1767.41 160.608 1765.35 161.766 Q1763.31 162.9 1760.6 162.9 Q1756.13 162.9 1753.82 160.122 Q1751.51 157.344 1751.51 151.997 M1762.22 135.678 L1762.22 135.678 Z" fill="#000000" fill-rule="nonzero" fill-opacity="1" /><path clip-path="url(#clip330)" d="M1781.99 126.21 L1786.25 126.21 L1786.25 162.229 L1781.99 162.229 L1781.99 126.21 Z" fill="#000000" fill-rule="nonzero" fill-opacity="1" /><path clip-path="url(#clip330)" d="M1799.38 128.942 L1799.38 136.303 L1808.15 136.303 L1808.15 139.613 L1799.38 139.613 L1799.38 153.687 Q1799.38 156.858 1800.23 157.761 Q1801.11 158.664 1803.77 158.664 L1808.15 158.664 L1808.15 162.229 L1803.77 162.229 Q1798.84 162.229 1796.97 160.4 Q1795.09 158.548 1795.09 153.687 L1795.09 139.613 L1791.97 139.613 L1791.97 136.303 L1795.09 136.303 L1795.09 128.942 L1799.38 128.942 Z" fill="#000000" fill-rule="nonzero" fill-opacity="1" /><path clip-path="url(#clip330)" d="M1813.75 136.303 L1818.01 136.303 L1818.01 162.229 L1813.75 162.229 L1813.75 136.303 M1813.75 126.21 L1818.01 126.21 L1818.01 131.604 L1813.75 131.604 L1813.75 126.21 Z" fill="#000000" fill-rule="nonzero" fill-opacity="1" /><path clip-path="url(#clip330)" d="M1848.47 146.581 L1848.47 162.229 L1844.21 162.229 L1844.21 146.719 Q1844.21 143.039 1842.78 141.21 Q1841.34 139.382 1838.47 139.382 Q1835.02 139.382 1833.03 141.581 Q1831.04 143.78 1831.04 147.576 L1831.04 162.229 L1826.76 162.229 L1826.76 136.303 L1831.04 136.303 L1831.04 140.331 Q1832.57 137.993 1834.63 136.835 Q1836.71 135.678 1839.42 135.678 Q1843.89 135.678 1846.18 138.456 Q1848.47 141.21 1848.47 146.581 Z" fill="#000000" fill-rule="nonzero" fill-opacity="1" /><path clip-path="url(#clip330)" d="M1867.01 139.289 Q1863.59 139.289 1861.6 141.974 Q1859.61 144.636 1859.61 149.289 Q1859.61 153.942 1861.57 156.627 Q1863.56 159.289 1867.01 159.289 Q1870.42 159.289 1872.41 156.604 Q1874.4 153.918 1874.4 149.289 Q1874.4 144.682 1872.41 141.997 Q1870.42 139.289 1867.01 139.289 M1867.01 135.678 Q1872.57 135.678 1875.74 139.289 Q1878.91 142.9 1878.91 149.289 Q1878.91 155.655 1875.74 159.289 Q1872.57 162.9 1867.01 162.9 Q1861.44 162.9 1858.26 159.289 Q1855.12 155.655 1855.12 149.289 Q1855.12 142.9 1858.26 139.289 Q1861.44 135.678 1867.01 135.678 Z" fill="#000000" fill-rule="nonzero" fill-opacity="1" /><path clip-path="url(#clip330)" d="M1906.16 141.28 Q1907.75 138.409 1909.98 137.044 Q1912.2 135.678 1915.21 135.678 Q1919.26 135.678 1921.46 138.525 Q1923.66 141.349 1923.66 146.581 L1923.66 162.229 L1919.37 162.229 L1919.37 146.719 Q1919.37 142.993 1918.06 141.187 Q1916.74 139.382 1914.03 139.382 Q1910.72 139.382 1908.8 141.581 Q1906.87 143.78 1906.87 147.576 L1906.87 162.229 L1902.59 162.229 L1902.59 146.719 Q1902.59 142.969 1901.27 141.187 Q1899.95 139.382 1897.2 139.382 Q1893.93 139.382 1892.01 141.604 Q1890.09 143.803 1890.09 147.576 L1890.09 162.229 L1885.81 162.229 L1885.81 136.303 L1890.09 136.303 L1890.09 140.331 Q1891.55 137.946 1893.59 136.812 Q1895.62 135.678 1898.43 135.678 Q1901.25 135.678 1903.22 137.113 Q1905.21 138.548 1906.16 141.28 Z" fill="#000000" fill-rule="nonzero" fill-opacity="1" /><path clip-path="url(#clip330)" d="M1932.15 136.303 L1936.41 136.303 L1936.41 162.229 L1932.15 162.229 L1932.15 136.303 M1932.15 126.21 L1936.41 126.21 L1936.41 131.604 L1932.15 131.604 L1932.15 126.21 Z" fill="#000000" fill-rule="nonzero" fill-opacity="1" /><path clip-path="url(#clip330)" d="M1957.11 149.196 Q1951.94 149.196 1949.95 150.377 Q1947.96 151.557 1947.96 154.405 Q1947.96 156.673 1949.44 158.016 Q1950.95 159.335 1953.52 159.335 Q1957.06 159.335 1959.19 156.835 Q1961.34 154.312 1961.34 150.145 L1961.34 149.196 L1957.11 149.196 M1965.6 147.437 L1965.6 162.229 L1961.34 162.229 L1961.34 158.293 Q1959.88 160.655 1957.71 161.789 Q1955.53 162.9 1952.38 162.9 Q1948.4 162.9 1946.04 160.678 Q1943.7 158.432 1943.7 154.682 Q1943.7 150.307 1946.62 148.085 Q1949.56 145.863 1955.37 145.863 L1961.34 145.863 L1961.34 145.446 Q1961.34 142.507 1959.4 140.909 Q1957.48 139.289 1953.98 139.289 Q1951.76 139.289 1949.65 139.821 Q1947.55 140.354 1945.6 141.419 L1945.6 137.483 Q1947.94 136.581 1950.14 136.141 Q1952.34 135.678 1954.42 135.678 Q1960.05 135.678 1962.82 138.594 Q1965.6 141.511 1965.6 147.437 Z" fill="#000000" fill-rule="nonzero" fill-opacity="1" /><path clip-path="url(#clip330)" d="M1974.37 126.21 L1978.63 126.21 L1978.63 162.229 L1974.37 162.229 L1974.37 126.21 Z" fill="#000000" fill-rule="nonzero" fill-opacity="1" /><path clip-path="url(#clip330)" d="M2017.64 140.284 Q2016.92 139.868 2016.06 139.682 Q2015.23 139.474 2014.21 139.474 Q2010.6 139.474 2008.66 141.835 Q2006.74 144.173 2006.74 148.571 L2006.74 162.229 L2002.45 162.229 L2002.45 136.303 L2006.74 136.303 L2006.74 140.331 Q2008.08 137.969 2010.23 136.835 Q2012.38 135.678 2015.46 135.678 Q2015.9 135.678 2016.43 135.747 Q2016.97 135.794 2017.61 135.909 L2017.64 140.284 Z" fill="#000000" fill-rule="nonzero" fill-opacity="1" /><path clip-path="url(#clip330)" d="M2043.24 148.201 L2043.24 150.284 L2023.66 150.284 Q2023.93 154.682 2026.3 156.997 Q2028.68 159.289 2032.92 159.289 Q2035.37 159.289 2037.66 158.687 Q2039.98 158.085 2042.24 156.881 L2042.24 160.909 Q2039.95 161.881 2037.55 162.391 Q2035.14 162.9 2032.66 162.9 Q2026.46 162.9 2022.82 159.289 Q2019.21 155.678 2019.21 149.52 Q2019.21 143.155 2022.64 139.428 Q2026.09 135.678 2031.92 135.678 Q2037.15 135.678 2040.18 139.057 Q2043.24 142.414 2043.24 148.201 M2038.98 146.951 Q2038.93 143.456 2037.01 141.372 Q2035.11 139.289 2031.97 139.289 Q2028.4 139.289 2026.25 141.303 Q2024.12 143.317 2023.8 146.974 L2038.98 146.951 Z" fill="#000000" fill-rule="nonzero" fill-opacity="1" /><path clip-path="url(#clip330)" d="M2066.76 137.067 L2066.76 141.094 Q2064.95 140.169 2063.01 139.706 Q2061.06 139.243 2058.98 139.243 Q2055.81 139.243 2054.21 140.215 Q2052.64 141.187 2052.64 143.131 Q2052.64 144.613 2053.77 145.469 Q2054.91 146.303 2058.33 147.067 L2059.79 147.391 Q2064.33 148.363 2066.23 150.145 Q2068.15 151.905 2068.15 155.076 Q2068.15 158.687 2065.28 160.793 Q2062.43 162.9 2057.43 162.9 Q2055.35 162.9 2053.08 162.483 Q2050.83 162.09 2048.33 161.28 L2048.33 156.881 Q2050.69 158.108 2052.99 158.733 Q2055.28 159.335 2057.52 159.335 Q2060.53 159.335 2062.15 158.317 Q2063.77 157.275 2063.77 155.4 Q2063.77 153.664 2062.59 152.738 Q2061.43 151.812 2057.48 150.956 L2055.99 150.608 Q2052.04 149.775 2050.28 148.062 Q2048.52 146.326 2048.52 143.317 Q2048.52 139.659 2051.11 137.669 Q2053.7 135.678 2058.47 135.678 Q2060.83 135.678 2062.92 136.025 Q2065 136.372 2066.76 137.067 Z" fill="#000000" fill-rule="nonzero" fill-opacity="1" /><path clip-path="url(#clip330)" d="M2086.71 149.196 Q2081.55 149.196 2079.56 150.377 Q2077.57 151.557 2077.57 154.405 Q2077.57 156.673 2079.05 158.016 Q2080.55 159.335 2083.12 159.335 Q2086.67 159.335 2088.8 156.835 Q2090.95 154.312 2090.95 150.145 L2090.95 149.196 L2086.71 149.196 M2095.21 147.437 L2095.21 162.229 L2090.95 162.229 L2090.95 158.293 Q2089.49 160.655 2087.31 161.789 Q2085.14 162.9 2081.99 162.9 Q2078.01 162.9 2075.65 160.678 Q2073.31 158.432 2073.31 154.682 Q2073.31 150.307 2076.23 148.085 Q2079.17 145.863 2084.98 145.863 L2090.95 145.863 L2090.95 145.446 Q2090.95 142.507 2089 140.909 Q2087.08 139.289 2083.59 139.289 Q2081.36 139.289 2079.26 139.821 Q2077.15 140.354 2075.21 141.419 L2075.21 137.483 Q2077.55 136.581 2079.74 136.141 Q2081.94 135.678 2084.03 135.678 Q2089.65 135.678 2092.43 138.594 Q2095.21 141.511 2095.21 147.437 Z" fill="#000000" fill-rule="nonzero" fill-opacity="1" /><path clip-path="url(#clip330)" d="M2124.17 141.28 Q2125.76 138.409 2127.98 137.044 Q2130.21 135.678 2133.22 135.678 Q2137.27 135.678 2139.47 138.525 Q2141.67 141.349 2141.67 146.581 L2141.67 162.229 L2137.38 162.229 L2137.38 146.719 Q2137.38 142.993 2136.06 141.187 Q2134.74 139.382 2132.04 139.382 Q2128.73 139.382 2126.8 141.581 Q2124.88 143.78 2124.88 147.576 L2124.88 162.229 L2120.6 162.229 L2120.6 146.719 Q2120.6 142.969 2119.28 141.187 Q2117.96 139.382 2115.21 139.382 Q2111.94 139.382 2110.02 141.604 Q2108.1 143.803 2108.1 147.576 L2108.1 162.229 L2103.82 162.229 L2103.82 136.303 L2108.1 136.303 L2108.1 140.331 Q2109.56 137.946 2111.6 136.812 Q2113.63 135.678 2116.43 135.678 Q2119.26 135.678 2121.23 137.113 Q2123.22 138.548 2124.17 141.28 Z" fill="#000000" fill-rule="nonzero" fill-opacity="1" /><path clip-path="url(#clip330)" d="M2154.28 158.34 L2154.28 172.09 L2150 172.09 L2150 136.303 L2154.28 136.303 L2154.28 140.238 Q2155.62 137.923 2157.66 136.812 Q2159.72 135.678 2162.57 135.678 Q2167.29 135.678 2170.23 139.428 Q2173.19 143.178 2173.19 149.289 Q2173.19 155.4 2170.23 159.15 Q2167.29 162.9 2162.57 162.9 Q2159.72 162.9 2157.66 161.789 Q2155.62 160.655 2154.28 158.34 M2168.77 149.289 Q2168.77 144.59 2166.83 141.928 Q2164.91 139.243 2161.53 139.243 Q2158.15 139.243 2156.2 141.928 Q2154.28 144.59 2154.28 149.289 Q2154.28 153.988 2156.2 156.673 Q2158.15 159.335 2161.53 159.335 Q2164.91 159.335 2166.83 156.673 Q2168.77 153.988 2168.77 149.289 Z" fill="#000000" fill-rule="nonzero" fill-opacity="1" /><path clip-path="url(#clip330)" d="M2180.25 126.21 L2184.51 126.21 L2184.51 162.229 L2180.25 162.229 L2180.25 126.21 Z" fill="#000000" fill-rule="nonzero" fill-opacity="1" /><path clip-path="url(#clip330)" d="M2193.42 136.303 L2197.68 136.303 L2197.68 162.229 L2193.42 162.229 L2193.42 136.303 M2193.42 126.21 L2197.68 126.21 L2197.68 131.604 L2193.42 131.604 L2193.42 126.21 Z" fill="#000000" fill-rule="nonzero" fill-opacity="1" /><path clip-path="url(#clip330)" d="M2228.15 146.581 L2228.15 162.229 L2223.89 162.229 L2223.89 146.719 Q2223.89 143.039 2222.45 141.21 Q2221.02 139.382 2218.15 139.382 Q2214.7 139.382 2212.71 141.581 Q2210.72 143.78 2210.72 147.576 L2210.72 162.229 L2206.43 162.229 L2206.43 136.303 L2210.72 136.303 L2210.72 140.331 Q2212.24 137.993 2214.3 136.835 Q2216.39 135.678 2219.1 135.678 Q2223.56 135.678 2225.85 138.456 Q2228.15 141.21 2228.15 146.581 Z" fill="#000000" fill-rule="nonzero" fill-opacity="1" /><path clip-path="url(#clip330)" d="M2253.7 148.965 Q2253.7 144.335 2251.78 141.789 Q2249.88 139.243 2246.43 139.243 Q2243.01 139.243 2241.09 141.789 Q2239.19 144.335 2239.19 148.965 Q2239.19 153.571 2241.09 156.118 Q2243.01 158.664 2246.43 158.664 Q2249.88 158.664 2251.78 156.118 Q2253.7 153.571 2253.7 148.965 M2257.96 159.011 Q2257.96 165.631 2255.02 168.849 Q2252.08 172.09 2246.02 172.09 Q2243.77 172.09 2241.78 171.742 Q2239.79 171.418 2237.91 170.724 L2237.91 166.58 Q2239.79 167.599 2241.62 168.085 Q2243.45 168.571 2245.35 168.571 Q2249.53 168.571 2251.62 166.372 Q2253.7 164.196 2253.7 159.775 L2253.7 157.668 Q2252.38 159.96 2250.32 161.094 Q2248.26 162.229 2245.39 162.229 Q2240.62 162.229 2237.71 158.594 Q2234.79 154.96 2234.79 148.965 Q2234.79 142.946 2237.71 139.312 Q2240.62 135.678 2245.39 135.678 Q2248.26 135.678 2250.32 136.812 Q2252.38 137.946 2253.7 140.238 L2253.7 136.303 L2257.96 136.303 L2257.96 159.011 Z" fill="#000000" fill-rule="nonzero" fill-opacity="1" /><polyline clip-path="url(#clip330)" style="stroke:#e26f46; stroke-linecap:round; stroke-linejoin:round; stroke-width:4; stroke-opacity:1; fill:none" points="1545.34,196.789 1687.53,196.789 "/>
<path clip-path="url(#clip330)" d="M1733.47 180.643 L1733.47 185.203 Q1730.81 183.93 1728.45 183.305 Q1726.09 182.68 1723.89 182.68 Q1720.07 182.68 1717.99 184.161 Q1715.93 185.643 1715.93 188.374 Q1715.93 190.666 1717.29 191.847 Q1718.68 193.004 1722.52 193.722 L1725.35 194.3 Q1730.58 195.296 1733.06 197.819 Q1735.56 200.319 1735.56 204.532 Q1735.56 209.555 1732.18 212.147 Q1728.82 214.74 1722.32 214.74 Q1719.86 214.74 1717.08 214.184 Q1714.33 213.629 1711.37 212.541 L1711.37 207.726 Q1714.21 209.323 1716.95 210.133 Q1719.68 210.944 1722.32 210.944 Q1726.32 210.944 1728.5 209.37 Q1730.67 207.796 1730.67 204.879 Q1730.67 202.333 1729.1 200.897 Q1727.55 199.462 1723.98 198.745 L1721.13 198.189 Q1715.9 197.147 1713.57 194.925 Q1711.23 192.703 1711.23 188.745 Q1711.23 184.161 1714.45 181.522 Q1717.69 178.884 1723.36 178.884 Q1725.79 178.884 1728.31 179.323 Q1730.83 179.763 1733.47 180.643 Z" fill="#000000" fill-rule="nonzero" fill-opacity="1" /><path clip-path="url(#clip330)" d="M1746.88 180.782 L1746.88 188.143 L1755.65 188.143 L1755.65 191.453 L1746.88 191.453 L1746.88 205.527 Q1746.88 208.698 1747.73 209.601 Q1748.61 210.504 1751.27 210.504 L1755.65 210.504 L1755.65 214.069 L1751.27 214.069 Q1746.34 214.069 1744.47 212.24 Q1742.59 210.388 1742.59 205.527 L1742.59 191.453 L1739.47 191.453 L1739.47 188.143 L1742.59 188.143 L1742.59 180.782 L1746.88 180.782 Z" fill="#000000" fill-rule="nonzero" fill-opacity="1" /><path clip-path="url(#clip330)" d="M1776.27 192.124 Q1775.56 191.708 1774.7 191.522 Q1773.87 191.314 1772.85 191.314 Q1769.24 191.314 1767.29 193.675 Q1765.37 196.013 1765.37 200.411 L1765.37 214.069 L1761.09 214.069 L1761.09 188.143 L1765.37 188.143 L1765.37 192.171 Q1766.71 189.809 1768.87 188.675 Q1771.02 187.518 1774.1 187.518 Q1774.54 187.518 1775.07 187.587 Q1775.6 187.634 1776.25 187.749 L1776.27 192.124 Z" fill="#000000" fill-rule="nonzero" fill-opacity="1" /><path clip-path="url(#clip330)" d="M1792.52 201.036 Q1787.36 201.036 1785.37 202.217 Q1783.38 203.397 1783.38 206.245 Q1783.38 208.513 1784.86 209.856 Q1786.37 211.175 1788.94 211.175 Q1792.48 211.175 1794.61 208.675 Q1796.76 206.152 1796.76 201.985 L1796.76 201.036 L1792.52 201.036 M1801.02 199.277 L1801.02 214.069 L1796.76 214.069 L1796.76 210.133 Q1795.3 212.495 1793.13 213.629 Q1790.95 214.74 1787.8 214.74 Q1783.82 214.74 1781.46 212.518 Q1779.12 210.272 1779.12 206.522 Q1779.12 202.147 1782.04 199.925 Q1784.98 197.703 1790.79 197.703 L1796.76 197.703 L1796.76 197.286 Q1796.76 194.347 1794.82 192.749 Q1792.89 191.129 1789.4 191.129 Q1787.18 191.129 1785.07 191.661 Q1782.96 192.194 1781.02 193.259 L1781.02 189.323 Q1783.36 188.421 1785.56 187.981 Q1787.75 187.518 1789.84 187.518 Q1795.46 187.518 1798.24 190.434 Q1801.02 193.351 1801.02 199.277 Z" fill="#000000" fill-rule="nonzero" fill-opacity="1" /><path clip-path="url(#clip330)" d="M1814 180.782 L1814 188.143 L1822.78 188.143 L1822.78 191.453 L1814 191.453 L1814 205.527 Q1814 208.698 1814.86 209.601 Q1815.74 210.504 1818.4 210.504 L1822.78 210.504 L1822.78 214.069 L1818.4 214.069 Q1813.47 214.069 1811.6 212.24 Q1809.72 210.388 1809.72 205.527 L1809.72 191.453 L1806.6 191.453 L1806.6 188.143 L1809.72 188.143 L1809.72 180.782 L1814 180.782 Z" fill="#000000" fill-rule="nonzero" fill-opacity="1" /><path clip-path="url(#clip330)" d="M1828.38 188.143 L1832.64 188.143 L1832.64 214.069 L1828.38 214.069 L1828.38 188.143 M1828.38 178.05 L1832.64 178.05 L1832.64 183.444 L1828.38 183.444 L1828.38 178.05 Z" fill="#000000" fill-rule="nonzero" fill-opacity="1" /><path clip-path="url(#clip330)" d="M1854.68 178.05 L1854.68 181.592 L1850.6 181.592 Q1848.31 181.592 1847.41 182.518 Q1846.53 183.444 1846.53 185.851 L1846.53 188.143 L1853.54 188.143 L1853.54 191.453 L1846.53 191.453 L1846.53 214.069 L1842.25 214.069 L1842.25 191.453 L1838.17 191.453 L1838.17 188.143 L1842.25 188.143 L1842.25 186.337 Q1842.25 182.009 1844.26 180.041 Q1846.27 178.05 1850.65 178.05 L1854.68 178.05 Z" fill="#000000" fill-rule="nonzero" fill-opacity="1" /><path clip-path="url(#clip330)" d="M1858.24 188.143 L1862.5 188.143 L1862.5 214.069 L1858.24 214.069 L1858.24 188.143 M1858.24 178.05 L1862.5 178.05 L1862.5 183.444 L1858.24 183.444 L1858.24 178.05 Z" fill="#000000" fill-rule="nonzero" fill-opacity="1" /><path clip-path="url(#clip330)" d="M1893.59 200.041 L1893.59 202.124 L1874 202.124 Q1874.28 206.522 1876.64 208.837 Q1879.03 211.129 1883.26 211.129 Q1885.72 211.129 1888.01 210.527 Q1890.32 209.925 1892.59 208.721 L1892.59 212.749 Q1890.3 213.721 1887.89 214.231 Q1885.49 214.74 1883.01 214.74 Q1876.81 214.74 1873.17 211.129 Q1869.56 207.518 1869.56 201.36 Q1869.56 194.995 1872.99 191.268 Q1876.44 187.518 1882.27 187.518 Q1887.5 187.518 1890.53 190.897 Q1893.59 194.254 1893.59 200.041 M1889.33 198.791 Q1889.28 195.296 1887.36 193.212 Q1885.46 191.129 1882.31 191.129 Q1878.75 191.129 1876.6 193.143 Q1874.47 195.157 1874.14 198.814 L1889.33 198.791 Z" fill="#000000" fill-rule="nonzero" fill-opacity="1" /><path clip-path="url(#clip330)" d="M1917.64 192.078 L1917.64 178.05 L1921.9 178.05 L1921.9 214.069 L1917.64 214.069 L1917.64 210.18 Q1916.3 212.495 1914.24 213.629 Q1912.2 214.74 1909.33 214.74 Q1904.63 214.74 1901.67 210.99 Q1898.73 207.24 1898.73 201.129 Q1898.73 195.018 1901.67 191.268 Q1904.63 187.518 1909.33 187.518 Q1912.2 187.518 1914.24 188.652 Q1916.3 189.763 1917.64 192.078 M1903.12 201.129 Q1903.12 205.828 1905.05 208.513 Q1906.99 211.175 1910.37 211.175 Q1913.75 211.175 1915.69 208.513 Q1917.64 205.828 1917.64 201.129 Q1917.64 196.43 1915.69 193.768 Q1913.75 191.083 1910.37 191.083 Q1906.99 191.083 1905.05 193.768 Q1903.12 196.43 1903.12 201.129 Z" fill="#000000" fill-rule="nonzero" fill-opacity="1" /><path clip-path="url(#clip330)" d="M1960.76 192.124 Q1960.05 191.708 1959.19 191.522 Q1958.36 191.314 1957.34 191.314 Q1953.73 191.314 1951.78 193.675 Q1949.86 196.013 1949.86 200.411 L1949.86 214.069 L1945.58 214.069 L1945.58 188.143 L1949.86 188.143 L1949.86 192.171 Q1951.2 189.809 1953.36 188.675 Q1955.51 187.518 1958.59 187.518 Q1959.03 187.518 1959.56 187.587 Q1960.09 187.634 1960.74 187.749 L1960.76 192.124 Z" fill="#000000" fill-rule="nonzero" fill-opacity="1" /><path clip-path="url(#clip330)" d="M1986.37 200.041 L1986.37 202.124 L1966.78 202.124 Q1967.06 206.522 1969.42 208.837 Q1971.8 211.129 1976.04 211.129 Q1978.49 211.129 1980.79 210.527 Q1983.1 209.925 1985.37 208.721 L1985.37 212.749 Q1983.08 213.721 1980.67 214.231 Q1978.26 214.74 1975.79 214.74 Q1969.58 214.74 1965.95 211.129 Q1962.34 207.518 1962.34 201.36 Q1962.34 194.995 1965.76 191.268 Q1969.21 187.518 1975.05 187.518 Q1980.28 187.518 1983.31 190.897 Q1986.37 194.254 1986.37 200.041 M1982.11 198.791 Q1982.06 195.296 1980.14 193.212 Q1978.24 191.129 1975.09 191.129 Q1971.53 191.129 1969.37 193.143 Q1967.24 195.157 1966.92 198.814 L1982.11 198.791 Z" fill="#000000" fill-rule="nonzero" fill-opacity="1" /><path clip-path="url(#clip330)" d="M2009.88 188.907 L2009.88 192.934 Q2008.08 192.009 2006.13 191.546 Q2004.19 191.083 2002.11 191.083 Q1998.93 191.083 1997.34 192.055 Q1995.76 193.027 1995.76 194.971 Q1995.76 196.453 1996.9 197.309 Q1998.03 198.143 2001.46 198.907 L2002.92 199.231 Q2007.45 200.203 2009.35 201.985 Q2011.27 203.745 2011.27 206.916 Q2011.27 210.527 2008.4 212.633 Q2005.55 214.74 2000.55 214.74 Q1998.47 214.74 1996.2 214.323 Q1993.96 213.93 1991.46 213.12 L1991.46 208.721 Q1993.82 209.948 1996.11 210.573 Q1998.4 211.175 2000.65 211.175 Q2003.66 211.175 2005.28 210.157 Q2006.9 209.115 2006.9 207.24 Q2006.9 205.504 2005.72 204.578 Q2004.56 203.652 2000.6 202.796 L1999.12 202.448 Q1995.16 201.615 1993.4 199.902 Q1991.64 198.166 1991.64 195.157 Q1991.64 191.499 1994.24 189.509 Q1996.83 187.518 2001.6 187.518 Q2003.96 187.518 2006.04 187.865 Q2008.12 188.212 2009.88 188.907 Z" fill="#000000" fill-rule="nonzero" fill-opacity="1" /><path clip-path="url(#clip330)" d="M2029.84 201.036 Q2024.68 201.036 2022.68 202.217 Q2020.69 203.397 2020.69 206.245 Q2020.69 208.513 2022.18 209.856 Q2023.68 211.175 2026.25 211.175 Q2029.79 211.175 2031.92 208.675 Q2034.07 206.152 2034.07 201.985 L2034.07 201.036 L2029.84 201.036 M2038.33 199.277 L2038.33 214.069 L2034.07 214.069 L2034.07 210.133 Q2032.61 212.495 2030.44 213.629 Q2028.26 214.74 2025.11 214.74 Q2021.13 214.74 2018.77 212.518 Q2016.43 210.272 2016.43 206.522 Q2016.43 202.147 2019.35 199.925 Q2022.29 197.703 2028.1 197.703 L2034.07 197.703 L2034.07 197.286 Q2034.07 194.347 2032.13 192.749 Q2030.21 191.129 2026.71 191.129 Q2024.49 191.129 2022.38 191.661 Q2020.28 192.194 2018.33 193.259 L2018.33 189.323 Q2020.67 188.421 2022.87 187.981 Q2025.07 187.518 2027.15 187.518 Q2032.78 187.518 2035.55 190.434 Q2038.33 193.351 2038.33 199.277 Z" fill="#000000" fill-rule="nonzero" fill-opacity="1" /><path clip-path="url(#clip330)" d="M2067.29 193.12 Q2068.89 190.249 2071.11 188.884 Q2073.33 187.518 2076.34 187.518 Q2080.39 187.518 2082.59 190.365 Q2084.79 193.189 2084.79 198.421 L2084.79 214.069 L2080.51 214.069 L2080.51 198.559 Q2080.51 194.833 2079.19 193.027 Q2077.87 191.222 2075.16 191.222 Q2071.85 191.222 2069.93 193.421 Q2068.01 195.62 2068.01 199.416 L2068.01 214.069 L2063.73 214.069 L2063.73 198.559 Q2063.73 194.809 2062.41 193.027 Q2061.09 191.222 2058.33 191.222 Q2055.07 191.222 2053.15 193.444 Q2051.23 195.643 2051.23 199.416 L2051.23 214.069 L2046.94 214.069 L2046.94 188.143 L2051.23 188.143 L2051.23 192.171 Q2052.68 189.786 2054.72 188.652 Q2056.76 187.518 2059.56 187.518 Q2062.38 187.518 2064.35 188.953 Q2066.34 190.388 2067.29 193.12 Z" fill="#000000" fill-rule="nonzero" fill-opacity="1" /><path clip-path="url(#clip330)" d="M2097.41 210.18 L2097.41 223.93 L2093.12 223.93 L2093.12 188.143 L2097.41 188.143 L2097.41 192.078 Q2098.75 189.763 2100.79 188.652 Q2102.85 187.518 2105.69 187.518 Q2110.42 187.518 2113.36 191.268 Q2116.32 195.018 2116.32 201.129 Q2116.32 207.24 2113.36 210.99 Q2110.42 214.74 2105.69 214.74 Q2102.85 214.74 2100.79 213.629 Q2098.75 212.495 2097.41 210.18 M2111.9 201.129 Q2111.9 196.43 2109.95 193.768 Q2108.03 191.083 2104.65 191.083 Q2101.27 191.083 2099.33 193.768 Q2097.41 196.43 2097.41 201.129 Q2097.41 205.828 2099.33 208.513 Q2101.27 211.175 2104.65 211.175 Q2108.03 211.175 2109.95 208.513 Q2111.9 205.828 2111.9 201.129 Z" fill="#000000" fill-rule="nonzero" fill-opacity="1" /><path clip-path="url(#clip330)" d="M2123.38 178.05 L2127.64 178.05 L2127.64 214.069 L2123.38 214.069 L2123.38 178.05 Z" fill="#000000" fill-rule="nonzero" fill-opacity="1" /><path clip-path="url(#clip330)" d="M2136.55 188.143 L2140.81 188.143 L2140.81 214.069 L2136.55 214.069 L2136.55 188.143 M2136.55 178.05 L2140.81 178.05 L2140.81 183.444 L2136.55 183.444 L2136.55 178.05 Z" fill="#000000" fill-rule="nonzero" fill-opacity="1" /><path clip-path="url(#clip330)" d="M2171.27 198.421 L2171.27 214.069 L2167.01 214.069 L2167.01 198.559 Q2167.01 194.879 2165.58 193.05 Q2164.14 191.222 2161.27 191.222 Q2157.82 191.222 2155.83 193.421 Q2153.84 195.62 2153.84 199.416 L2153.84 214.069 L2149.56 214.069 L2149.56 188.143 L2153.84 188.143 L2153.84 192.171 Q2155.37 189.833 2157.43 188.675 Q2159.51 187.518 2162.22 187.518 Q2166.69 187.518 2168.98 190.296 Q2171.27 193.05 2171.27 198.421 Z" fill="#000000" fill-rule="nonzero" fill-opacity="1" /><path clip-path="url(#clip330)" d="M2196.83 200.805 Q2196.83 196.175 2194.91 193.629 Q2193.01 191.083 2189.56 191.083 Q2186.13 191.083 2184.21 193.629 Q2182.31 196.175 2182.31 200.805 Q2182.31 205.411 2184.21 207.958 Q2186.13 210.504 2189.56 210.504 Q2193.01 210.504 2194.91 207.958 Q2196.83 205.411 2196.83 200.805 M2201.09 210.851 Q2201.09 217.471 2198.15 220.689 Q2195.21 223.93 2189.14 223.93 Q2186.9 223.93 2184.91 223.582 Q2182.91 223.258 2181.04 222.564 L2181.04 218.42 Q2182.91 219.439 2184.74 219.925 Q2186.57 220.411 2188.47 220.411 Q2192.66 220.411 2194.74 218.212 Q2196.83 216.036 2196.83 211.615 L2196.83 209.508 Q2195.51 211.8 2193.45 212.934 Q2191.39 214.069 2188.52 214.069 Q2183.75 214.069 2180.83 210.434 Q2177.91 206.8 2177.91 200.805 Q2177.91 194.786 2180.83 191.152 Q2183.75 187.518 2188.52 187.518 Q2191.39 187.518 2193.45 188.652 Q2195.51 189.786 2196.83 192.078 L2196.83 188.143 L2201.09 188.143 L2201.09 210.851 Z" fill="#000000" fill-rule="nonzero" fill-opacity="1" /></svg>
