<?xml version="1.0" encoding="utf-8"?>
<svg xmlns="http://www.w3.org/2000/svg" xmlns:xlink="http://www.w3.org/1999/xlink" width="600" height="400" viewBox="0 0 2400 1600">
<defs>
  <clipPath id="clip240">
    <rect x="0" y="0" width="2400" height="1600"/>
  </clipPath>
</defs>
<path clip-path="url(#clip240)" d="M0 1600 L2400 1600 L2400 0 L0 0  Z" fill="#ffffff" fill-rule="evenodd" fill-opacity="1"/>
<defs>
  <clipPath id="clip241">
    <rect x="480" y="0" width="1681" height="1600"/>
  </clipPath>
</defs>
<path clip-path="url(#clip240)" d="M203.964 1423.18 L2352.76 1423.18 L2352.76 47.2441 L203.964 47.2441  Z" fill="#ffffff" fill-rule="evenodd" fill-opacity="1"/>
<defs>
  <clipPath id="clip242">
    <rect x="203" y="47" width="2150" height="1377"/>
  </clipPath>
</defs>
<polyline clip-path="url(#clip242)" style="stroke:#000000; stroke-linecap:round; stroke-linejoin:round; stroke-width:2; stroke-opacity:0.1; fill:none" points="262.749,1423.18 262.749,47.2441 "/>
<polyline clip-path="url(#clip242)" style="stroke:#000000; stroke-linecap:round; stroke-linejoin:round; stroke-width:2; stroke-opacity:0.1; fill:none" points="770.047,1423.18 770.047,47.2441 "/>
<polyline clip-path="url(#clip242)" style="stroke:#000000; stroke-linecap:round; stroke-linejoin:round; stroke-width:2; stroke-opacity:0.1; fill:none" points="1277.35,1423.18 1277.35,47.2441 "/>
<polyline clip-path="url(#clip242)" style="stroke:#000000; stroke-linecap:round; stroke-linejoin:round; stroke-width:2; stroke-opacity:0.1; fill:none" points="1784.64,1423.18 1784.64,47.2441 "/>
<polyline clip-path="url(#clip242)" style="stroke:#000000; stroke-linecap:round; stroke-linejoin:round; stroke-width:2; stroke-opacity:0.1; fill:none" points="2291.94,1423.18 2291.94,47.2441 "/>
<polyline clip-path="url(#clip240)" style="stroke:#000000; stroke-linecap:round; stroke-linejoin:round; stroke-width:4; stroke-opacity:1; fill:none" points="203.964,1423.18 2352.76,1423.18 "/>
<polyline clip-path="url(#clip240)" style="stroke:#000000; stroke-linecap:round; stroke-linejoin:round; stroke-width:4; stroke-opacity:1; fill:none" points="262.749,1423.18 262.749,1404.28 "/>
<polyline clip-path="url(#clip240)" style="stroke:#000000; stroke-linecap:round; stroke-linejoin:round; stroke-width:4; stroke-opacity:1; fill:none" points="770.047,1423.18 770.047,1404.28 "/>
<polyline clip-path="url(#clip240)" style="stroke:#000000; stroke-linecap:round; stroke-linejoin:round; stroke-width:4; stroke-opacity:1; fill:none" points="1277.35,1423.18 1277.35,1404.28 "/>
<polyline clip-path="url(#clip240)" style="stroke:#000000; stroke-linecap:round; stroke-linejoin:round; stroke-width:4; stroke-opacity:1; fill:none" points="1784.64,1423.18 1784.64,1404.28 "/>
<polyline clip-path="url(#clip240)" style="stroke:#000000; stroke-linecap:round; stroke-linejoin:round; stroke-width:4; stroke-opacity:1; fill:none" points="2291.94,1423.18 2291.94,1404.28 "/>
<path clip-path="url(#clip240)" d="M262.749 1454.1 Q259.138 1454.1 257.309 1457.66 Q255.504 1461.2 255.504 1468.33 Q255.504 1475.44 257.309 1479.01 Q259.138 1482.55 262.749 1482.55 Q266.383 1482.55 268.189 1479.01 Q270.018 1475.44 270.018 1468.33 Q270.018 1461.2 268.189 1457.66 Q266.383 1454.1 262.749 1454.1 M262.749 1450.39 Q268.559 1450.39 271.615 1455 Q274.694 1459.58 274.694 1468.33 Q274.694 1477.06 271.615 1481.67 Q268.559 1486.25 262.749 1486.25 Q256.939 1486.25 253.86 1481.67 Q250.805 1477.06 250.805 1468.33 Q250.805 1459.58 253.86 1455 Q256.939 1450.39 262.749 1450.39 Z" fill="#000000" fill-rule="nonzero" fill-opacity="1" /><path clip-path="url(#clip240)" d="M733.74 1481.64 L750.059 1481.64 L750.059 1485.58 L728.115 1485.58 L728.115 1481.64 Q730.777 1478.89 735.36 1474.26 Q739.966 1469.61 741.147 1468.27 Q743.392 1465.74 744.272 1464.01 Q745.175 1462.25 745.175 1460.56 Q745.175 1457.8 743.23 1456.07 Q741.309 1454.33 738.207 1454.33 Q736.008 1454.33 733.554 1455.09 Q731.124 1455.86 728.346 1457.41 L728.346 1452.69 Q731.17 1451.55 733.624 1450.97 Q736.077 1450.39 738.115 1450.39 Q743.485 1450.39 746.679 1453.08 Q749.874 1455.77 749.874 1460.26 Q749.874 1462.39 749.064 1464.31 Q748.276 1466.2 746.17 1468.8 Q745.591 1469.47 742.489 1472.69 Q739.388 1475.88 733.74 1481.64 Z" fill="#000000" fill-rule="nonzero" fill-opacity="1" /><path clip-path="url(#clip240)" d="M759.92 1451.02 L778.276 1451.02 L778.276 1454.96 L764.202 1454.96 L764.202 1463.43 Q765.221 1463.08 766.239 1462.92 Q767.258 1462.73 768.276 1462.73 Q774.063 1462.73 777.443 1465.9 Q780.823 1469.08 780.823 1474.49 Q780.823 1480.07 777.35 1483.17 Q773.878 1486.25 767.559 1486.25 Q765.383 1486.25 763.114 1485.88 Q760.869 1485.51 758.462 1484.77 L758.462 1480.07 Q760.545 1481.2 762.767 1481.76 Q764.989 1482.32 767.466 1482.32 Q771.471 1482.32 773.809 1480.21 Q776.147 1478.1 776.147 1474.49 Q776.147 1470.88 773.809 1468.77 Q771.471 1466.67 767.466 1466.67 Q765.591 1466.67 763.716 1467.08 Q761.864 1467.5 759.92 1468.38 L759.92 1451.02 Z" fill="#000000" fill-rule="nonzero" fill-opacity="1" /><path clip-path="url(#clip240)" d="M800.035 1454.1 Q796.424 1454.1 794.596 1457.66 Q792.79 1461.2 792.79 1468.33 Q792.79 1475.44 794.596 1479.01 Q796.424 1482.55 800.035 1482.55 Q803.67 1482.55 805.475 1479.01 Q807.304 1475.44 807.304 1468.33 Q807.304 1461.2 805.475 1457.66 Q803.67 1454.1 800.035 1454.1 M800.035 1450.39 Q805.846 1450.39 808.901 1455 Q811.98 1459.58 811.98 1468.33 Q811.98 1477.06 808.901 1481.67 Q805.846 1486.25 800.035 1486.25 Q794.225 1486.25 791.147 1481.67 Q788.091 1477.06 788.091 1468.33 Q788.091 1459.58 791.147 1455 Q794.225 1450.39 800.035 1450.39 Z" fill="#000000" fill-rule="nonzero" fill-opacity="1" /><path clip-path="url(#clip240)" d="M1236.96 1451.02 L1255.32 1451.02 L1255.32 1454.96 L1241.25 1454.96 L1241.25 1463.43 Q1242.26 1463.08 1243.28 1462.92 Q1244.3 1462.73 1245.32 1462.73 Q1251.11 1462.73 1254.49 1465.9 Q1257.87 1469.08 1257.87 1474.49 Q1257.87 1480.07 1254.39 1483.17 Q1250.92 1486.25 1244.6 1486.25 Q1242.43 1486.25 1240.16 1485.88 Q1237.91 1485.51 1235.51 1484.77 L1235.51 1480.07 Q1237.59 1481.2 1239.81 1481.76 Q1242.03 1482.32 1244.51 1482.32 Q1248.51 1482.32 1250.85 1480.21 Q1253.19 1478.1 1253.19 1474.49 Q1253.19 1470.88 1250.85 1468.77 Q1248.51 1466.67 1244.51 1466.67 Q1242.63 1466.67 1240.76 1467.08 Q1238.91 1467.5 1236.96 1468.38 L1236.96 1451.02 Z" fill="#000000" fill-rule="nonzero" fill-opacity="1" /><path clip-path="url(#clip240)" d="M1277.08 1454.1 Q1273.47 1454.1 1271.64 1457.66 Q1269.83 1461.2 1269.83 1468.33 Q1269.83 1475.44 1271.64 1479.01 Q1273.47 1482.55 1277.08 1482.55 Q1280.71 1482.55 1282.52 1479.01 Q1284.35 1475.44 1284.35 1468.33 Q1284.35 1461.2 1282.52 1457.66 Q1280.71 1454.1 1277.08 1454.1 M1277.08 1450.39 Q1282.89 1450.39 1285.94 1455 Q1289.02 1459.58 1289.02 1468.33 Q1289.02 1477.06 1285.94 1481.67 Q1282.89 1486.25 1277.08 1486.25 Q1271.27 1486.25 1268.19 1481.67 Q1265.13 1477.06 1265.13 1468.33 Q1265.13 1459.58 1268.19 1455 Q1271.27 1450.39 1277.08 1450.39 Z" fill="#000000" fill-rule="nonzero" fill-opacity="1" /><path clip-path="url(#clip240)" d="M1307.24 1454.1 Q1303.63 1454.1 1301.8 1457.66 Q1300 1461.2 1300 1468.33 Q1300 1475.44 1301.8 1479.01 Q1303.63 1482.55 1307.24 1482.55 Q1310.88 1482.55 1312.68 1479.01 Q1314.51 1475.44 1314.51 1468.33 Q1314.51 1461.2 1312.68 1457.66 Q1310.88 1454.1 1307.24 1454.1 M1307.24 1450.39 Q1313.05 1450.39 1316.11 1455 Q1319.19 1459.58 1319.19 1468.33 Q1319.19 1477.06 1316.11 1481.67 Q1313.05 1486.25 1307.24 1486.25 Q1301.43 1486.25 1298.35 1481.67 Q1295.3 1477.06 1295.3 1468.33 Q1295.3 1459.58 1298.35 1455 Q1301.43 1450.39 1307.24 1450.39 Z" fill="#000000" fill-rule="nonzero" fill-opacity="1" /><path clip-path="url(#clip240)" d="M1742.92 1451.02 L1765.14 1451.02 L1765.14 1453.01 L1752.59 1485.58 L1747.71 1485.58 L1759.52 1454.96 L1742.92 1454.96 L1742.92 1451.02 Z" fill="#000000" fill-rule="nonzero" fill-opacity="1" /><path clip-path="url(#clip240)" d="M1774.31 1451.02 L1792.66 1451.02 L1792.66 1454.96 L1778.59 1454.96 L1778.59 1463.43 Q1779.61 1463.08 1780.63 1462.92 Q1781.65 1462.73 1782.66 1462.73 Q1788.45 1462.73 1791.83 1465.9 Q1795.21 1469.08 1795.21 1474.49 Q1795.21 1480.07 1791.74 1483.17 Q1788.27 1486.25 1781.95 1486.25 Q1779.77 1486.25 1777.5 1485.88 Q1775.26 1485.51 1772.85 1484.77 L1772.85 1480.07 Q1774.93 1481.2 1777.15 1481.76 Q1779.38 1482.32 1781.85 1482.32 Q1785.86 1482.32 1788.2 1480.21 Q1790.53 1478.1 1790.53 1474.49 Q1790.53 1470.88 1788.2 1468.77 Q1785.86 1466.67 1781.85 1466.67 Q1779.98 1466.67 1778.1 1467.08 Q1776.25 1467.5 1774.31 1468.38 L1774.31 1451.02 Z" fill="#000000" fill-rule="nonzero" fill-opacity="1" /><path clip-path="url(#clip240)" d="M1814.42 1454.1 Q1810.81 1454.1 1808.98 1457.66 Q1807.18 1461.2 1807.18 1468.33 Q1807.18 1475.44 1808.98 1479.01 Q1810.81 1482.55 1814.42 1482.55 Q1818.06 1482.55 1819.86 1479.01 Q1821.69 1475.44 1821.69 1468.33 Q1821.69 1461.2 1819.86 1457.66 Q1818.06 1454.1 1814.42 1454.1 M1814.42 1450.39 Q1820.23 1450.39 1823.29 1455 Q1826.37 1459.58 1826.37 1468.33 Q1826.37 1477.06 1823.29 1481.67 Q1820.23 1486.25 1814.42 1486.25 Q1808.61 1486.25 1805.53 1481.67 Q1802.48 1477.06 1802.48 1468.33 Q1802.48 1459.58 1805.53 1455 Q1808.61 1450.39 1814.42 1450.39 Z" fill="#000000" fill-rule="nonzero" fill-opacity="1" /><path clip-path="url(#clip240)" d="M2236.47 1481.64 L2244.11 1481.64 L2244.11 1455.28 L2235.8 1456.95 L2235.8 1452.69 L2244.06 1451.02 L2248.74 1451.02 L2248.74 1481.64 L2256.37 1481.64 L2256.37 1485.58 L2236.47 1485.58 L2236.47 1481.64 Z" fill="#000000" fill-rule="nonzero" fill-opacity="1" /><path clip-path="url(#clip240)" d="M2275.82 1454.1 Q2272.21 1454.1 2270.38 1457.66 Q2268.57 1461.2 2268.57 1468.33 Q2268.57 1475.44 2270.38 1479.01 Q2272.21 1482.55 2275.82 1482.55 Q2279.45 1482.55 2281.26 1479.01 Q2283.09 1475.44 2283.09 1468.33 Q2283.09 1461.2 2281.26 1457.66 Q2279.45 1454.1 2275.82 1454.1 M2275.82 1450.39 Q2281.63 1450.39 2284.68 1455 Q2287.76 1459.58 2287.76 1468.33 Q2287.76 1477.06 2284.68 1481.67 Q2281.63 1486.25 2275.82 1486.25 Q2270.01 1486.25 2266.93 1481.67 Q2263.87 1477.06 2263.87 1468.33 Q2263.87 1459.58 2266.93 1455 Q2270.01 1450.39 2275.82 1450.39 Z" fill="#000000" fill-rule="nonzero" fill-opacity="1" /><path clip-path="url(#clip240)" d="M2305.98 1454.1 Q2302.37 1454.1 2300.54 1457.66 Q2298.73 1461.2 2298.73 1468.33 Q2298.73 1475.44 2300.54 1479.01 Q2302.37 1482.55 2305.98 1482.55 Q2309.61 1482.55 2311.42 1479.01 Q2313.25 1475.44 2313.25 1468.33 Q2313.25 1461.2 2311.42 1457.66 Q2309.61 1454.1 2305.98 1454.1 M2305.98 1450.39 Q2311.79 1450.39 2314.85 1455 Q2317.92 1459.58 2317.92 1468.33 Q2317.92 1477.06 2314.85 1481.67 Q2311.79 1486.25 2305.98 1486.25 Q2300.17 1486.25 2297.09 1481.67 Q2294.04 1477.06 2294.04 1468.33 Q2294.04 1459.58 2297.09 1455 Q2300.17 1450.39 2305.98 1450.39 Z" fill="#000000" fill-rule="nonzero" fill-opacity="1" /><path clip-path="url(#clip240)" d="M2336.14 1454.1 Q2332.53 1454.1 2330.7 1457.66 Q2328.9 1461.2 2328.9 1468.33 Q2328.9 1475.44 2330.7 1479.01 Q2332.53 1482.55 2336.14 1482.55 Q2339.78 1482.55 2341.58 1479.01 Q2343.41 1475.44 2343.41 1468.33 Q2343.41 1461.2 2341.58 1457.66 Q2339.78 1454.1 2336.14 1454.1 M2336.14 1450.39 Q2341.95 1450.39 2345.01 1455 Q2348.09 1459.58 2348.09 1468.33 Q2348.09 1477.06 2345.01 1481.67 Q2341.95 1486.25 2336.14 1486.25 Q2330.33 1486.25 2327.25 1481.67 Q2324.2 1477.06 2324.2 1468.33 Q2324.2 1459.58 2327.25 1455 Q2330.33 1450.39 2336.14 1450.39 Z" fill="#000000" fill-rule="nonzero" fill-opacity="1" /><path clip-path="url(#clip240)" d="M1200.24 1520.52 L1240.44 1520.52 L1240.44 1525.93 L1223.57 1525.93 L1223.57 1568.04 L1217.11 1568.04 L1217.11 1525.93 L1200.24 1525.93 L1200.24 1520.52 Z" fill="#000000" fill-rule="nonzero" fill-opacity="1" /><path clip-path="url(#clip240)" d="M1244.38 1532.4 L1250.24 1532.4 L1250.24 1568.04 L1244.38 1568.04 L1244.38 1532.4 M1244.38 1518.52 L1250.24 1518.52 L1250.24 1525.93 L1244.38 1525.93 L1244.38 1518.52 Z" fill="#000000" fill-rule="nonzero" fill-opacity="1" /><path clip-path="url(#clip240)" d="M1290.25 1539.24 Q1292.44 1535.29 1295.5 1533.41 Q1298.55 1531.54 1302.69 1531.54 Q1308.26 1531.54 1311.29 1535.45 Q1314.31 1539.33 1314.31 1546.53 L1314.31 1568.04 L1308.42 1568.04 L1308.42 1546.72 Q1308.42 1541.59 1306.61 1539.11 Q1304.79 1536.63 1301.07 1536.63 Q1296.52 1536.63 1293.88 1539.65 Q1291.23 1542.68 1291.23 1547.9 L1291.23 1568.04 L1285.35 1568.04 L1285.35 1546.72 Q1285.35 1541.56 1283.53 1539.11 Q1281.72 1536.63 1277.93 1536.63 Q1273.44 1536.63 1270.8 1539.68 Q1268.16 1542.71 1268.16 1547.9 L1268.16 1568.04 L1262.27 1568.04 L1262.27 1532.4 L1268.16 1532.4 L1268.16 1537.93 Q1270.16 1534.66 1272.96 1533.1 Q1275.77 1531.54 1279.62 1531.54 Q1283.5 1531.54 1286.21 1533.51 Q1288.94 1535.48 1290.25 1539.24 Z" fill="#000000" fill-rule="nonzero" fill-opacity="1" /><path clip-path="url(#clip240)" d="M1356.48 1548.76 L1356.48 1551.62 L1329.56 1551.62 Q1329.94 1557.67 1333.18 1560.85 Q1336.46 1564 1342.29 1564 Q1345.66 1564 1348.81 1563.17 Q1352 1562.35 1355.11 1560.69 L1355.11 1566.23 Q1351.96 1567.57 1348.65 1568.27 Q1345.34 1568.97 1341.94 1568.97 Q1333.41 1568.97 1328.41 1564 Q1323.44 1559.04 1323.44 1550.57 Q1323.44 1541.82 1328.16 1536.69 Q1332.9 1531.54 1340.92 1531.54 Q1348.11 1531.54 1352.28 1536.18 Q1356.48 1540.8 1356.48 1548.76 M1350.63 1547.04 Q1350.56 1542.23 1347.92 1539.37 Q1345.31 1536.5 1340.98 1536.5 Q1336.08 1536.5 1333.12 1539.27 Q1330.19 1542.04 1329.75 1547.07 L1350.63 1547.04 Z" fill="#000000" fill-rule="nonzero" fill-opacity="1" /><polyline clip-path="url(#clip242)" style="stroke:#000000; stroke-linecap:round; stroke-linejoin:round; stroke-width:2; stroke-opacity:0.1; fill:none" points="203.964,1423.18 2352.76,1423.18 "/>
<polyline clip-path="url(#clip242)" style="stroke:#000000; stroke-linecap:round; stroke-linejoin:round; stroke-width:2; stroke-opacity:0.1; fill:none" points="203.964,1162.21 2352.76,1162.21 "/>
<polyline clip-path="url(#clip242)" style="stroke:#000000; stroke-linecap:round; stroke-linejoin:round; stroke-width:2; stroke-opacity:0.1; fill:none" points="203.964,901.242 2352.76,901.242 "/>
<polyline clip-path="url(#clip242)" style="stroke:#000000; stroke-linecap:round; stroke-linejoin:round; stroke-width:2; stroke-opacity:0.1; fill:none" points="203.964,640.273 2352.76,640.273 "/>
<polyline clip-path="url(#clip242)" style="stroke:#000000; stroke-linecap:round; stroke-linejoin:round; stroke-width:2; stroke-opacity:0.1; fill:none" points="203.964,379.305 2352.76,379.305 "/>
<polyline clip-path="url(#clip242)" style="stroke:#000000; stroke-linecap:round; stroke-linejoin:round; stroke-width:2; stroke-opacity:0.1; fill:none" points="203.964,118.336 2352.76,118.336 "/>
<polyline clip-path="url(#clip240)" style="stroke:#000000; stroke-linecap:round; stroke-linejoin:round; stroke-width:4; stroke-opacity:1; fill:none" points="203.964,1423.18 203.964,47.2441 "/>
<polyline clip-path="url(#clip240)" style="stroke:#000000; stroke-linecap:round; stroke-linejoin:round; stroke-width:4; stroke-opacity:1; fill:none" points="203.964,1423.18 222.861,1423.18 "/>
<polyline clip-path="url(#clip240)" style="stroke:#000000; stroke-linecap:round; stroke-linejoin:round; stroke-width:4; stroke-opacity:1; fill:none" points="203.964,1162.21 222.861,1162.21 "/>
<polyline clip-path="url(#clip240)" style="stroke:#000000; stroke-linecap:round; stroke-linejoin:round; stroke-width:4; stroke-opacity:1; fill:none" points="203.964,901.242 222.861,901.242 "/>
<polyline clip-path="url(#clip240)" style="stroke:#000000; stroke-linecap:round; stroke-linejoin:round; stroke-width:4; stroke-opacity:1; fill:none" points="203.964,640.273 222.861,640.273 "/>
<polyline clip-path="url(#clip240)" style="stroke:#000000; stroke-linecap:round; stroke-linejoin:round; stroke-width:4; stroke-opacity:1; fill:none" points="203.964,379.305 222.861,379.305 "/>
<polyline clip-path="url(#clip240)" style="stroke:#000000; stroke-linecap:round; stroke-linejoin:round; stroke-width:4; stroke-opacity:1; fill:none" points="203.964,118.336 222.861,118.336 "/>
<path clip-path="url(#clip240)" d="M156.019 1408.98 Q152.408 1408.98 150.579 1412.54 Q148.774 1416.08 148.774 1423.21 Q148.774 1430.32 150.579 1433.89 Q152.408 1437.43 156.019 1437.43 Q159.653 1437.43 161.459 1433.89 Q163.288 1430.32 163.288 1423.21 Q163.288 1416.08 161.459 1412.54 Q159.653 1408.98 156.019 1408.98 M156.019 1405.27 Q161.829 1405.27 164.885 1409.88 Q167.964 1414.46 167.964 1423.21 Q167.964 1431.94 164.885 1436.55 Q161.829 1441.13 156.019 1441.13 Q150.209 1441.13 147.13 1436.55 Q144.075 1431.94 144.075 1423.21 Q144.075 1414.46 147.13 1409.88 Q150.209 1405.27 156.019 1405.27 Z" fill="#000000" fill-rule="nonzero" fill-opacity="1" /><path clip-path="url(#clip240)" d="M147.061 1144.93 L165.417 1144.93 L165.417 1148.87 L151.343 1148.87 L151.343 1157.34 Q152.362 1156.99 153.38 1156.83 Q154.399 1156.64 155.417 1156.64 Q161.204 1156.64 164.584 1159.82 Q167.964 1162.99 167.964 1168.4 Q167.964 1173.98 164.491 1177.08 Q161.019 1180.16 154.7 1180.16 Q152.524 1180.16 150.255 1179.79 Q148.01 1179.42 145.603 1178.68 L145.603 1173.98 Q147.686 1175.12 149.908 1175.67 Q152.13 1176.23 154.607 1176.23 Q158.612 1176.23 160.95 1174.12 Q163.288 1172.01 163.288 1168.4 Q163.288 1164.79 160.95 1162.69 Q158.612 1160.58 154.607 1160.58 Q152.732 1160.58 150.857 1161 Q149.005 1161.41 147.061 1162.29 L147.061 1144.93 Z" fill="#000000" fill-rule="nonzero" fill-opacity="1" /><path clip-path="url(#clip240)" d="M116.668 914.587 L124.306 914.587 L124.306 888.221 L115.996 889.888 L115.996 885.629 L124.26 883.962 L128.936 883.962 L128.936 914.587 L136.575 914.587 L136.575 918.522 L116.668 918.522 L116.668 914.587 Z" fill="#000000" fill-rule="nonzero" fill-opacity="1" /><path clip-path="url(#clip240)" d="M156.019 887.041 Q152.408 887.041 150.579 890.606 Q148.774 894.147 148.774 901.277 Q148.774 908.383 150.579 911.948 Q152.408 915.49 156.019 915.49 Q159.653 915.49 161.459 911.948 Q163.288 908.383 163.288 901.277 Q163.288 894.147 161.459 890.606 Q159.653 887.041 156.019 887.041 M156.019 883.337 Q161.829 883.337 164.885 887.944 Q167.964 892.527 167.964 901.277 Q167.964 910.004 164.885 914.61 Q161.829 919.194 156.019 919.194 Q150.209 919.194 147.13 914.61 Q144.075 910.004 144.075 901.277 Q144.075 892.527 147.13 887.944 Q150.209 883.337 156.019 883.337 Z" fill="#000000" fill-rule="nonzero" fill-opacity="1" /><path clip-path="url(#clip240)" d="M117.663 653.618 L125.302 653.618 L125.302 627.253 L116.992 628.919 L116.992 624.66 L125.255 622.993 L129.931 622.993 L129.931 653.618 L137.57 653.618 L137.57 657.553 L117.663 657.553 L117.663 653.618 Z" fill="#000000" fill-rule="nonzero" fill-opacity="1" /><path clip-path="url(#clip240)" d="M147.061 622.993 L165.417 622.993 L165.417 626.929 L151.343 626.929 L151.343 635.401 Q152.362 635.054 153.38 634.892 Q154.399 634.706 155.417 634.706 Q161.204 634.706 164.584 637.878 Q167.964 641.049 167.964 646.466 Q167.964 652.044 164.491 655.146 Q161.019 658.225 154.7 658.225 Q152.524 658.225 150.255 657.854 Q148.01 657.484 145.603 656.743 L145.603 652.044 Q147.686 653.178 149.908 653.734 Q152.13 654.29 154.607 654.29 Q158.612 654.29 160.95 652.183 Q163.288 650.077 163.288 646.466 Q163.288 642.854 160.95 640.748 Q158.612 638.641 154.607 638.641 Q152.732 638.641 150.857 639.058 Q149.005 639.475 147.061 640.354 L147.061 622.993 Z" fill="#000000" fill-rule="nonzero" fill-opacity="1" /><path clip-path="url(#clip240)" d="M119.885 392.649 L136.204 392.649 L136.204 396.585 L114.26 396.585 L114.26 392.649 Q116.922 389.895 121.505 385.265 Q126.112 380.612 127.292 379.27 Q129.538 376.747 130.417 375.011 Q131.32 373.251 131.32 371.562 Q131.32 368.807 129.376 367.071 Q127.455 365.335 124.353 365.335 Q122.154 365.335 119.7 366.099 Q117.269 366.863 114.492 368.413 L114.492 363.691 Q117.316 362.557 119.769 361.978 Q122.223 361.4 124.26 361.4 Q129.63 361.4 132.825 364.085 Q136.019 366.77 136.019 371.261 Q136.019 373.39 135.209 375.312 Q134.422 377.21 132.316 379.802 Q131.737 380.474 128.635 383.691 Q125.533 386.886 119.885 392.649 Z" fill="#000000" fill-rule="nonzero" fill-opacity="1" /><path clip-path="url(#clip240)" d="M156.019 365.103 Q152.408 365.103 150.579 368.668 Q148.774 372.21 148.774 379.339 Q148.774 386.446 150.579 390.011 Q152.408 393.552 156.019 393.552 Q159.653 393.552 161.459 390.011 Q163.288 386.446 163.288 379.339 Q163.288 372.21 161.459 368.668 Q159.653 365.103 156.019 365.103 M156.019 361.4 Q161.829 361.4 164.885 366.006 Q167.964 370.589 167.964 379.339 Q167.964 388.066 164.885 392.673 Q161.829 397.256 156.019 397.256 Q150.209 397.256 147.13 392.673 Q144.075 388.066 144.075 379.339 Q144.075 370.589 147.13 366.006 Q150.209 361.4 156.019 361.4 Z" fill="#000000" fill-rule="nonzero" fill-opacity="1" /><path clip-path="url(#clip240)" d="M120.88 131.681 L137.2 131.681 L137.2 135.616 L115.256 135.616 L115.256 131.681 Q117.918 128.926 122.501 124.296 Q127.107 119.644 128.288 118.301 Q130.533 115.778 131.413 114.042 Q132.316 112.283 132.316 110.593 Q132.316 107.838 130.371 106.102 Q128.45 104.366 125.348 104.366 Q123.149 104.366 120.695 105.13 Q118.265 105.894 115.487 107.445 L115.487 102.722 Q118.311 101.588 120.765 101.01 Q123.218 100.431 125.255 100.431 Q130.626 100.431 133.82 103.116 Q137.015 105.801 137.015 110.292 Q137.015 112.421 136.204 114.343 Q135.417 116.241 133.311 118.833 Q132.732 119.505 129.63 122.722 Q126.529 125.917 120.88 131.681 Z" fill="#000000" fill-rule="nonzero" fill-opacity="1" /><path clip-path="url(#clip240)" d="M147.061 101.056 L165.417 101.056 L165.417 104.991 L151.343 104.991 L151.343 113.463 Q152.362 113.116 153.38 112.954 Q154.399 112.769 155.417 112.769 Q161.204 112.769 164.584 115.94 Q167.964 119.111 167.964 124.528 Q167.964 130.107 164.491 133.208 Q161.019 136.287 154.7 136.287 Q152.524 136.287 150.255 135.917 Q148.01 135.546 145.603 134.806 L145.603 130.107 Q147.686 131.241 149.908 131.796 Q152.13 132.352 154.607 132.352 Q158.612 132.352 160.95 130.245 Q163.288 128.139 163.288 124.528 Q163.288 120.917 160.95 118.81 Q158.612 116.704 154.607 116.704 Q152.732 116.704 150.857 117.121 Q149.005 117.537 147.061 118.417 L147.061 101.056 Z" fill="#000000" fill-rule="nonzero" fill-opacity="1" /><path clip-path="url(#clip240)" d="M16.4842 1124.89 L16.4842 1094.84 L21.895 1094.84 L21.895 1118.46 L35.9632 1118.46 L35.9632 1095.83 L41.3741 1095.83 L41.3741 1118.46 L58.5933 1118.46 L58.5933 1094.27 L64.0042 1094.27 L64.0042 1124.89 L16.4842 1124.89 Z" fill="#000000" fill-rule="nonzero" fill-opacity="1" /><path clip-path="url(#clip240)" d="M14.5426 1069.89 Q21.8632 1074.15 29.0246 1076.22 Q36.186 1078.29 43.5384 1078.29 Q50.8908 1078.29 58.1159 1076.22 Q65.3091 1074.12 72.5979 1069.89 L72.5979 1074.98 Q65.1182 1079.76 57.8931 1082.14 Q50.668 1084.5 43.5384 1084.5 Q36.4406 1084.5 29.2474 1082.14 Q22.0542 1079.79 14.5426 1074.98 L14.5426 1069.89 Z" fill="#000000" fill-rule="nonzero" fill-opacity="1" /><path clip-path="url(#clip240)" d="M16.4842 1058.27 L16.4842 1028.23 L21.895 1028.23 L21.895 1051.84 L35.9632 1051.84 L35.9632 1029.21 L41.3741 1029.21 L41.3741 1051.84 L58.5933 1051.84 L58.5933 1027.65 L64.0042 1027.65 L64.0042 1058.27 L16.4842 1058.27 Z" fill="#000000" fill-rule="nonzero" fill-opacity="1" /><path clip-path="url(#clip240)" d="M29.4065 994.615 L34.9447 994.615 Q33.6716 997.097 33.035 999.771 Q32.3984 1002.44 32.3984 1005.31 Q32.3984 1009.67 33.7352 1011.87 Q35.072 1014.03 37.7456 1014.03 Q39.7826 1014.03 40.9603 1012.47 Q42.1061 1010.91 43.1565 1006.2 L43.6021 1004.19 Q44.9389 997.957 47.3897 995.347 Q49.8086 992.705 54.1691 992.705 Q59.1344 992.705 62.0308 996.652 Q64.9272 1000.57 64.9272 1007.44 Q64.9272 1010.31 64.3543 1013.43 Q63.8132 1016.51 62.6992 1019.95 L56.6518 1019.95 Q58.3387 1016.7 59.198 1013.55 Q60.0256 1010.4 60.0256 1007.31 Q60.0256 1003.18 58.6251 1000.95 Q57.1929 998.72 54.6147 998.72 Q52.2276 998.72 50.9545 1000.34 Q49.6813 1001.94 48.5037 1007.38 L48.0262 1009.41 Q46.8804 1014.86 44.5251 1017.28 Q42.138 1019.7 38.0002 1019.7 Q32.9713 1019.7 30.2341 1016.13 Q27.4968 1012.57 27.4968 1006.01 Q27.4968 1002.76 27.9743 999.898 Q28.4517 997.033 29.4065 994.615 Z" fill="#000000" fill-rule="nonzero" fill-opacity="1" /><path clip-path="url(#clip240)" d="M18.2347 977.586 L28.3562 977.586 L28.3562 965.523 L32.9077 965.523 L32.9077 977.586 L52.2594 977.586 Q56.6199 977.586 57.8613 976.409 Q59.1026 975.199 59.1026 971.539 L59.1026 965.523 L64.0042 965.523 L64.0042 971.539 Q64.0042 978.318 61.4897 980.896 Q58.9434 983.475 52.2594 983.475 L32.9077 983.475 L32.9077 987.771 L28.3562 987.771 L28.3562 983.475 L18.2347 983.475 L18.2347 977.586 Z" fill="#000000" fill-rule="nonzero" fill-opacity="1" /><path clip-path="url(#clip240)" d="M28.3562 957.821 L28.3562 951.964 L64.0042 951.964 L64.0042 957.821 L28.3562 957.821 M14.479 957.821 L14.479 951.964 L21.895 951.964 L21.895 957.821 L14.479 957.821 Z" fill="#000000" fill-rule="nonzero" fill-opacity="1" /><path clip-path="url(#clip240)" d="M35.1993 911.956 Q31.2526 909.76 29.3747 906.704 Q27.4968 903.649 27.4968 899.511 Q27.4968 893.941 31.4117 890.917 Q35.2948 887.893 42.4881 887.893 L64.0042 887.893 L64.0042 893.782 L42.679 893.782 Q37.5546 893.782 35.072 895.596 Q32.5894 897.41 32.5894 901.134 Q32.5894 905.686 35.6131 908.327 Q38.6368 910.969 43.8567 910.969 L64.0042 910.969 L64.0042 916.857 L42.679 916.857 Q37.5228 916.857 35.072 918.672 Q32.5894 920.486 32.5894 924.273 Q32.5894 928.761 35.6449 931.403 Q38.6686 934.045 43.8567 934.045 L64.0042 934.045 L64.0042 939.933 L28.3562 939.933 L28.3562 934.045 L33.8944 934.045 Q30.616 932.04 29.0564 929.239 Q27.4968 926.438 27.4968 922.587 Q27.4968 918.703 29.4702 915.998 Q31.4436 913.261 35.1993 911.956 Z" fill="#000000" fill-rule="nonzero" fill-opacity="1" /><path clip-path="url(#clip240)" d="M46.0847 860.012 Q46.0847 867.109 47.7079 869.847 Q49.3312 872.584 53.2461 872.584 Q56.3653 872.584 58.2114 870.547 Q60.0256 868.478 60.0256 864.945 Q60.0256 860.075 56.5881 857.147 Q53.1188 854.187 47.3897 854.187 L46.0847 854.187 L46.0847 860.012 M43.6657 848.331 L64.0042 848.331 L64.0042 854.187 L58.5933 854.187 Q61.8398 856.192 63.3994 859.184 Q64.9272 862.176 64.9272 866.505 Q64.9272 871.979 61.8716 875.226 Q58.7843 878.44 53.6281 878.44 Q47.6125 878.44 44.5569 874.43 Q41.5014 870.388 41.5014 862.399 L41.5014 854.187 L40.9285 854.187 Q36.8862 854.187 34.6901 856.861 Q32.4621 859.502 32.4621 864.308 Q32.4621 867.364 33.1941 870.26 Q33.9262 873.157 35.3903 875.83 L29.9795 875.83 Q28.7381 872.616 28.1334 869.592 Q27.4968 866.568 27.4968 863.704 Q27.4968 855.969 31.5072 852.15 Q35.5176 848.331 43.6657 848.331 Z" fill="#000000" fill-rule="nonzero" fill-opacity="1" /><path clip-path="url(#clip240)" d="M18.2347 830.475 L28.3562 830.475 L28.3562 818.412 L32.9077 818.412 L32.9077 830.475 L52.2594 830.475 Q56.6199 830.475 57.8613 829.297 Q59.1026 828.088 59.1026 824.427 L59.1026 818.412 L64.0042 818.412 L64.0042 824.427 Q64.0042 831.207 61.4897 833.785 Q58.9434 836.363 52.2594 836.363 L32.9077 836.363 L32.9077 840.66 L28.3562 840.66 L28.3562 836.363 L18.2347 836.363 L18.2347 830.475 Z" fill="#000000" fill-rule="nonzero" fill-opacity="1" /><path clip-path="url(#clip240)" d="M44.7161 780.218 L47.5806 780.218 L47.5806 807.144 Q53.6281 806.763 56.8109 803.516 Q59.9619 800.238 59.9619 794.413 Q59.9619 791.039 59.1344 787.888 Q58.3069 784.705 56.6518 781.586 L62.1899 781.586 Q63.5267 784.737 64.227 788.047 Q64.9272 791.358 64.9272 794.763 Q64.9272 803.293 59.9619 808.29 Q54.9967 813.256 46.5303 813.256 Q37.7774 813.256 32.6531 808.545 Q27.4968 803.802 27.4968 795.782 Q27.4968 788.588 32.1438 784.419 Q36.7589 780.218 44.7161 780.218 M42.9973 786.074 Q38.1912 786.138 35.3266 788.779 Q32.4621 791.389 32.4621 795.718 Q32.4621 800.62 35.2312 803.58 Q38.0002 806.508 43.0292 806.953 L42.9973 786.074 Z" fill="#000000" fill-rule="nonzero" fill-opacity="1" /><path clip-path="url(#clip240)" d="M33.7671 747.148 L14.479 747.148 L14.479 741.291 L64.0042 741.291 L64.0042 747.148 L58.657 747.148 Q61.8398 748.994 63.3994 751.826 Q64.9272 754.627 64.9272 758.574 Q64.9272 765.035 59.771 769.109 Q54.6147 773.152 46.212 773.152 Q37.8093 773.152 32.6531 769.109 Q27.4968 765.035 27.4968 758.574 Q27.4968 754.627 29.0564 751.826 Q30.5842 748.994 33.7671 747.148 M46.212 767.104 Q52.6732 767.104 56.3653 764.462 Q60.0256 761.789 60.0256 757.142 Q60.0256 752.495 56.3653 749.821 Q52.6732 747.148 46.212 747.148 Q39.7508 747.148 36.0905 749.821 Q32.3984 752.495 32.3984 757.142 Q32.3984 761.789 36.0905 764.462 Q39.7508 767.104 46.212 767.104 Z" fill="#000000" fill-rule="nonzero" fill-opacity="1" /><path clip-path="url(#clip240)" d="M16.4842 708.253 L16.4842 699.596 L56.238 678.525 L16.4842 678.525 L16.4842 672.287 L64.0042 672.287 L64.0042 680.944 L24.2503 702.015 L64.0042 702.015 L64.0042 708.253 L16.4842 708.253 Z" fill="#000000" fill-rule="nonzero" fill-opacity="1" /><path clip-path="url(#clip240)" d="M43.5384 641.986 L43.5384 624.831 L48.7583 624.831 L48.7583 641.986 L43.5384 641.986 Z" fill="#000000" fill-rule="nonzero" fill-opacity="1" /><path clip-path="url(#clip240)" d="M16.4842 601.118 L16.4842 560.919 L21.895 560.919 L21.895 577.788 L64.0042 577.788 L64.0042 584.249 L21.895 584.249 L21.895 601.118 L16.4842 601.118 Z" fill="#000000" fill-rule="nonzero" fill-opacity="1" /><path clip-path="url(#clip240)" d="M33.8307 543.891 Q33.2578 544.877 33.0032 546.055 Q32.7167 547.201 32.7167 548.601 Q32.7167 553.567 35.9632 556.24 Q39.1779 558.882 45.2253 558.882 L64.0042 558.882 L64.0042 564.77 L28.3562 564.77 L28.3562 558.882 L33.8944 558.882 Q30.6479 557.036 29.0883 554.076 Q27.4968 551.116 27.4968 546.883 Q27.4968 546.278 27.5923 545.546 Q27.656 544.814 27.8151 543.922 L33.8307 543.891 Z" fill="#000000" fill-rule="nonzero" fill-opacity="1" /><path clip-path="url(#clip240)" d="M49.9359 538.352 L28.3562 538.352 L28.3562 532.496 L49.7131 532.496 Q54.7739 532.496 57.3202 530.523 Q59.8346 528.549 59.8346 524.603 Q59.8346 519.86 56.8109 517.123 Q53.7872 514.354 48.5673 514.354 L28.3562 514.354 L28.3562 508.497 L64.0042 508.497 L64.0042 514.354 L58.5296 514.354 Q61.7762 516.486 63.3676 519.319 Q64.9272 522.12 64.9272 525.844 Q64.9272 531.987 61.1078 535.17 Q57.2883 538.352 49.9359 538.352 M27.4968 523.616 L27.4968 523.616 Z" fill="#000000" fill-rule="nonzero" fill-opacity="1" /><path clip-path="url(#clip240)" d="M44.7161 465.943 L47.5806 465.943 L47.5806 492.87 Q53.6281 492.488 56.8109 489.241 Q59.9619 485.963 59.9619 480.138 Q59.9619 476.764 59.1344 473.613 Q58.3069 470.43 56.6518 467.311 L62.1899 467.311 Q63.5267 470.462 64.227 473.772 Q64.9272 477.083 64.9272 480.488 Q64.9272 489.018 59.9619 494.015 Q54.9967 498.981 46.5303 498.981 Q37.7774 498.981 32.6531 494.27 Q27.4968 489.528 27.4968 481.507 Q27.4968 474.313 32.1438 470.144 Q36.7589 465.943 44.7161 465.943 M42.9973 471.799 Q38.1912 471.863 35.3266 474.504 Q32.4621 477.114 32.4621 481.443 Q32.4621 486.345 35.2312 489.305 Q38.0002 492.233 43.0292 492.679 L42.9973 471.799 Z" fill="#000000" fill-rule="nonzero" fill-opacity="1" /><path clip-path="url(#clip240)" d="M16.4842 435.355 L16.4842 426.698 L56.238 405.628 L16.4842 405.628 L16.4842 399.389 L64.0042 399.389 L64.0042 408.046 L24.2503 429.117 L64.0042 429.117 L64.0042 435.355 L16.4842 435.355 Z" fill="#000000" fill-rule="nonzero" fill-opacity="1" /><path clip-path="url(#clip240)" d="M14.5426 387.772 L14.5426 382.679 Q22.0542 377.905 29.2474 375.55 Q36.4406 373.162 43.5384 373.162 Q50.668 373.162 57.8931 375.55 Q65.1182 377.905 72.5979 382.679 L72.5979 387.772 Q65.3091 383.539 58.1159 381.47 Q50.8908 379.369 43.5384 379.369 Q36.186 379.369 29.0246 381.47 Q21.8632 383.539 14.5426 387.772 Z" fill="#000000" fill-rule="nonzero" fill-opacity="1" /><path clip-path="url(#clip240)" d="M39.1142 359.031 L39.1142 345.535 L42.7427 345.535 L42.7427 364.569 L39.2416 364.569 Q38.2549 363.487 36.4725 361.481 Q26.7648 350.532 23.7729 350.532 Q21.6722 350.532 20.3991 352.187 Q19.0941 353.842 19.0941 356.548 Q19.0941 358.203 19.667 360.145 Q20.2081 362.086 21.3221 364.378 L17.4072 364.378 Q16.516 361.927 16.0704 359.826 Q15.6248 357.694 15.6248 355.88 Q15.6248 351.264 17.7255 348.495 Q19.8262 345.726 23.2636 345.726 Q27.6878 345.726 36.7271 356.261 Q38.2549 358.044 39.1142 359.031 Z" fill="#000000" fill-rule="nonzero" fill-opacity="1" /><polyline clip-path="url(#clip242)" style="stroke:#009af9; stroke-linecap:round; stroke-linejoin:round; stroke-width:4; stroke-opacity:1; fill:none" points="264.778,1275.45 266.808,1018.26 268.837,938.356 270.866,897.263 272.895,810.213 274.924,759.35 276.954,722.783 278.983,703.444 281.012,727.428 283.041,691.369 285.07,700.13 287.1,711.988 289.129,717.923 291.158,649.365 293.187,644.019 295.216,590.792 297.246,575.95 299.275,563.208 301.304,511.22 303.333,507.397 305.362,481.42 307.391,498.119 309.421,489.415 311.45,462.592 313.479,477.725 315.508,492.664 317.537,448.037 319.567,447.161 321.596,423.437 323.625,385.587 325.654,332.588 327.683,331.241 329.713,339.658 331.742,316.361 333.771,298.753 335.8,319.708 337.829,295.19 339.859,300.71 341.888,289.987 343.917,299.827 345.946,274.494 347.975,267.903 350.005,257.223 352.034,267.308 354.063,224.538 356.092,212.195 358.121,191.449 360.15,180.319 362.18,191.391 364.209,191.096 366.238,194.352 368.267,202.747 370.296,200.393 372.326,184.467 374.355,183.52 376.384,163.629 378.413,129.234 380.442,133.255 382.472,139.992 384.501,133.046 386.53,151.773 388.559,122.321 390.588,134.102 392.618,115.587 394.647,116.213 396.676,105.63 398.705,75.8126 400.734,49.714 402.763,47.2441 404.793,63.9406 406.822,70.9465 408.851,83.6598 410.88,72.676 412.909,65.7275 414.939,83.7026 416.968,91.3613 418.997,96.2893 421.026,95.2695 423.055,86.9407 425.085,100.153 427.114,100.898 429.143,94.8819 431.172,90.3662 433.201,118.494 435.231,104.853 437.26,94.7286 439.289,118.162 441.318,103.992 443.347,97.1408 445.377,82.9309 447.406,87.8939 449.435,94.3748 451.464,111.814 453.493,110.81 455.522,132.36 457.552,135.73 459.581,139.337 461.61,118.856 463.639,115.741 465.668,116.792 467.698,141.434 469.727,128.87 471.756,130.36 473.785,133.003 475.814,130.662 477.844,132.241 479.873,137.132 481.902,136.223 483.931,120.308 485.96,121.948 487.99,108.437 490.019,118.086 492.048,104.451 494.077,70.5391 496.106,71.4161 498.136,66.1604 500.165,69.6328 502.194,92.5274 504.223,82.8112 506.252,72.8394 508.281,87.3413 510.311,86.9453 512.34,95.037 514.369,82.9396 516.398,74.7397 518.427,83.6972 520.457,106.864 522.486,84.9919 524.515,105.864 526.544,110.663 528.573,104.117 530.603,142.578 532.632,140.54 534.661,154.285 536.69,164.098 538.719,146.668 540.749,148.655 542.778,149.382 544.807,156.471 546.836,169.144 548.865,160.713 550.894,159.432 552.924,159.899 554.953,195.708 556.982,177.182 559.011,161.737 561.04,157.171 563.07,168.037 565.099,211.372 567.128,215.364 569.157,220.282 571.186,237.04 573.216,239.09 575.245,271.494 577.274,255.845 579.303,257.565 581.332,238.538 583.362,259.76 585.391,276.67 587.42,266.342 589.449,278.771 591.478,273.713 593.508,275.999 595.537,275.816 597.566,294.344 599.595,299.478 601.624,306.962 603.653,320.434 605.683,346.178 607.712,345.546 609.741,343.974 611.77,348.715 613.799,323.535 615.829,329.726 617.858,329.256 619.887,326.068 621.916,327.157 623.945,335.879 625.975,313.8 628.004,323.092 630.033,314.511 632.062,313.136 634.091,333.235 636.121,327.012 638.15,307.628 640.179,299.973 642.208,310.028 644.237,307.542 646.267,317.947 648.296,325.187 650.325,339.964 652.354,317.962 654.383,315.389 656.412,329.044 658.442,323.846 660.471,319.705 662.5,311.25 664.529,315.876 666.558,339.609 668.588,341.839 670.617,346.684 672.646,349.035 674.675,339.945 676.704,333.979 678.734,354.344 680.763,363.28 682.792,365.597 684.821,369.76 686.85,379.839 688.88,373.601 690.909,364.064 692.938,354.132 694.967,362.988 696.996,353.875 699.025,349.179 701.055,338.84 703.084,356.683 705.113,343.351 707.142,363.157 709.171,372.524 711.201,371.452 713.23,379.874 715.259,382.18 717.288,385.51 719.317,388.368 721.347,390.675 723.376,386.527 725.405,395.519 727.434,383.949 729.463,394.295 731.493,385.79 733.522,409.918 735.551,385.066 737.58,377.46 739.609,373.874 741.639,365.276 743.668,381.104 745.697,404.418 747.726,395.334 749.755,388.326 751.784,418.412 753.814,426.2 755.843,434.454 757.872,440.396 759.901,450.558 761.93,442.615 763.96,448.242 765.989,445.365 768.018,460.114 770.047,443.59 772.076,442.491 774.106,460.333 776.135,476.639 778.164,486.077 780.193,498.435 782.222,483.005 784.252,477.814 786.281,479.167 788.31,468.127 790.339,470.584 792.368,481.161 794.398,487.059 796.427,491.521 798.456,485.902 800.485,486.449 802.514,495.47 804.543,484.914 806.573,494.277 808.602,501.048 810.631,512.652 812.66,512.158 814.689,501.356 816.719,517.563 818.748,501.831 820.777,493.553 822.806,501.904 824.835,498.276 826.865,505.592 828.894,488.019 830.923,484.211 832.952,493.646 834.981,517.398 837.011,524.261 839.04,514.854 841.069,538.486 843.098,538.757 845.127,526.789 847.156,502.883 849.186,519.775 851.215,519.627 853.244,528.467 855.273,515.181 857.302,524.112 859.332,537.171 861.361,555.14 863.39,570.673 865.419,590.85 867.448,603.883 869.478,617.725 871.507,607.723 873.536,614.862 875.565,612.119 877.594,584.004 879.624,577.336 881.653,583.172 883.682,607.572 885.711,634.133 887.74,642.41 889.77,651.625 891.799,655.789 893.828,661.627 895.857,649.262 897.886,632.001 899.915,635.824 901.945,642.253 903.974,647.273 906.003,632.493 908.032,616.737 910.061,629.745 912.091,624.34 914.12,623.078 916.149,612.158 918.178,621.395 920.207,635.837 922.237,637.375 924.266,628.369 926.295,640.311 928.324,643.375 930.353,669.324 932.383,671.359 934.412,654.176 936.441,631.343 938.47,627.635 940.499,631.317 942.529,625.252 944.558,632.667 946.587,651.653 948.616,657.426 950.645,646.428 952.674,636.108 954.704,635.926 956.733,650.627 958.762,647.763 960.791,640.586 962.82,620.512 964.85,625.731 966.879,621.491 968.908,618.903 970.937,628.828 972.966,635.476 974.996,625.243 977.025,630.997 979.054,643.767 981.083,659.151 983.112,672.426 985.142,666.087 987.171,662.151 989.2,692.925 991.229,717.364 993.258,699.306 995.287,684.345 997.317,685.812 999.346,695.614 1001.38,687.855 1003.4,698.497 1005.43,676.7 1007.46,673.586 1009.49,695.3 1011.52,709.141 1013.55,713.929 1015.58,728.171 1017.61,723.2 1019.64,723.39 1021.67,702.88 1023.7,702.234 1025.73,689.203 1027.75,683.097 1029.78,695.961 1031.81,718.685 1033.84,688.751 1035.87,702.958 1037.9,702.911 1039.93,713.82 1041.96,715.094 1043.99,718.4 1046.02,714.538 1048.05,726.216 1050.08,730.97 1052.1,698.289 1054.13,679.169 1056.16,680.355 1058.19,685.389 1060.22,686.704 1062.25,680.399 1064.28,684.116 1066.31,673.471 1068.34,669.214 1070.37,695.264 1072.4,696.447 1074.43,683.471 1076.46,686.696 1078.48,694.768 1080.51,672.5 1082.54,674.344 1084.57,683.968 1086.6,673.481 1088.63,679.144 1090.66,691.432 1092.69,684.814 1094.72,705.851 1096.75,705.493 1098.78,727.012 1100.81,729.226 1102.83,733.805 1104.86,727.005 1106.89,729.086 1108.92,743.485 1110.95,731.832 1112.98,731.653 1115.01,759.284 1117.04,770.518 1119.07,785.528 1121.1,790.082 1123.13,783.376 1125.16,776.382 1127.18,775.281 1129.21,770.698 1131.24,774.401 1133.27,770.992 1135.3,776.617 1137.33,785.733 1139.36,783.92 1141.39,800.366 1143.42,799.855 1145.45,794.32 1147.48,810.873 1149.51,817.443 1151.54,809.927 1153.56,806.441 1155.59,808.083 1157.62,788.927 1159.65,793.391 1161.68,805.607 1163.71,806.819 1165.74,805.578 1167.77,797.826 1169.8,791.472 1171.83,774.205 1173.86,774.8 1175.89,787.301 1177.91,788.239 1179.94,785.331 1181.97,782.306 1184,786.199 1186.03,798.223 1188.06,794.008 1190.09,803.171 1192.12,822.292 1194.15,819.302 1196.18,811.769 1198.21,810.136 1200.24,813.727 1202.27,810.053 1204.29,798.774 1206.32,802.655 1208.35,818.019 1210.38,821.139 1212.41,815.073 1214.44,814.856 1216.47,820.243 1218.5,829.227 1220.53,832.553 1222.56,814.643 1224.59,834.438 1226.62,840.609 1228.64,841.659 1230.67,821.724 1232.7,837.613 1234.73,835.189 1236.76,836.707 1238.79,835.103 1240.82,841.974 1242.85,850.493 1244.88,851.311 1246.91,853.057 1248.94,860.352 1250.97,861.009 1252.99,856.641 1255.02,867.444 1257.05,873.333 1259.08,861.198 1261.11,855.028 1263.14,859.662 1265.17,853.349 1267.2,856.836 1269.23,865.066 1271.26,878.672 1273.29,873.547 1275.32,868.7 1277.35,877.583 1279.37,880.603 1281.4,870.666 1283.43,872.075 1285.46,875.039 1287.49,874.738 1289.52,900.657 1291.55,894.231 1293.58,891.503 1295.61,890.951 1297.64,878.458 1299.67,876.083 1301.7,889.73 1303.72,901.504 1305.75,894.48 1307.78,898.265 1309.81,887.378 1311.84,886.056 1313.87,886.608 1315.9,886.834 1317.93,890.452 1319.96,887.23 1321.99,899.846 1324.02,901.607 1326.05,912.737 1328.07,919.592 1330.1,927.392 1332.13,940.711 1334.16,948.419 1336.19,951.648 1338.22,948.249 1340.25,935.334 1342.28,949.872 1344.31,954.578 1346.34,959.135 1348.37,970.236 1350.4,971.836 1352.43,980.471 1354.45,975.786 1356.48,988.061 1358.51,985.601 1360.54,979.063 1362.57,974.464 1364.6,968.178 1366.63,970.222 1368.66,971.775 1370.69,963.675 1372.72,955.852 1374.75,945.435 1376.78,944.167 1378.8,965.689 1380.83,959.658 1382.86,967.943 1384.89,963.901 1386.92,962.476 1388.95,969.708 1390.98,970.963 1393.01,970.725 1395.04,973.474 1397.07,971.114 1399.1,973.197 1401.13,983.558 1403.16,984.289 1405.18,993.356 1407.21,996.97 1409.24,994.934 1411.27,985.589 1413.3,978.581 1415.33,961.851 1417.36,966.483 1419.39,973.461 1421.42,970.276 1423.45,977.262 1425.48,973.045 1427.51,976.619 1429.53,972.897 1431.56,967.362 1433.59,973.596 1435.62,978.674 1437.65,970.723 1439.68,968.627 1441.71,981.531 1443.74,988.215 1445.77,988.591 1447.8,994.879 1449.83,982.56 1451.86,985.211 1453.88,992.039 1455.91,1002.18 1457.94,1011.02 1459.97,1001.44 1462,1002.84 1464.03,1006.26 1466.06,998.672 1468.09,1006.98 1470.12,1011.37 1472.15,1020.65 1474.18,1008.87 1476.21,992.072 1478.24,991.255 1480.26,991.716 1482.29,995.125 1484.32,1004.81 1486.35,1003.86 1488.38,1016.43 1490.41,998.237 1492.44,998.285 1494.47,998.424 1496.5,1007.65 1498.53,1014.8 1500.56,1007.79 1502.59,994.777 1504.61,1000.48 1506.64,1007.2 1508.67,1015.45 1510.7,1035.86 1512.73,1034.53 1514.76,1036.59 1516.79,1053.07 1518.82,1060.29 1520.85,1057.06 1522.88,1067.53 1524.91,1071 1526.94,1066.75 1528.96,1060.36 1530.99,1056.76 1533.02,1057.24 1535.05,1060.7 1537.08,1050.46 1539.11,1057.1 1541.14,1060.64 1543.17,1067.33 1545.2,1072.44 1547.23,1072.96 1549.26,1068.55 1551.29,1067.89 1553.32,1056.37 1555.34,1063.15 1557.37,1066.7 1559.4,1064.76 1561.43,1064.92 1563.46,1062.04 1565.49,1065.49 1567.52,1071.04 1569.55,1074.71 1571.58,1076.59 1573.61,1062.53 1575.64,1075.68 1577.67,1075.5 1579.69,1074.67 1581.72,1059.15 1583.75,1065.59 1585.78,1064.24 1587.81,1069.12 1589.84,1080.54 1591.87,1077.06 1593.9,1083.97 1595.93,1073.28 1597.96,1071.25 1599.99,1062.93 1602.02,1065.59 1604.05,1067.54 1606.07,1070.15 1608.1,1070.85 1610.13,1071.99 1612.16,1069.2 1614.19,1077.13 1616.22,1078.98 1618.25,1074.46 1620.28,1077.66 1622.31,1067.97 1624.34,1073.7 1626.37,1082.86 1628.4,1090.14 1630.42,1106.59 1632.45,1099.87 1634.48,1094.3 1636.51,1091.02 1638.54,1092.27 1640.57,1090.77 1642.6,1082.39 1644.63,1091.39 1646.66,1090.94 1648.69,1089.51 1650.72,1095.14 1652.75,1088.94 1654.77,1089.12 1656.8,1088.77 1658.83,1097.97 1660.86,1103.41 1662.89,1101.67 1664.92,1089.81 1666.95,1083.18 1668.98,1093.21 1671.01,1081.18 1673.04,1098.77 1675.07,1101.08 1677.1,1091.83 1679.13,1089.66 1681.15,1080.46 1683.18,1071.41 1685.21,1067.84 1687.24,1076.16 1689.27,1080.57 1691.3,1075.16 1693.33,1077.69 1695.36,1068.49 1697.39,1071.27 1699.42,1072.71 1701.45,1074.7 1703.48,1083.13 1705.5,1085.1 1707.53,1086.94 1709.56,1084.26 1711.59,1084.73 1713.62,1070.63 1715.65,1072.65 1717.68,1072.03 1719.71,1075.87 1721.74,1080.46 1723.77,1087.67 1725.8,1082.37 1727.83,1096.19 1729.85,1091.91 1731.88,1108.06 1733.91,1102.92 1735.94,1105.47 1737.97,1096.27 1740,1102.9 1742.03,1095.65 1744.06,1103.32 1746.09,1115.81 1748.12,1118.01 1750.15,1120.07 1752.18,1126.7 1754.21,1119.13 1756.23,1113.88 1758.26,1105.04 1760.29,1120.83 1762.32,1104.14 1764.35,1110.06 1766.38,1115.94 1768.41,1116.96 1770.44,1128.71 1772.47,1126.81 1774.5,1114.29 1776.53,1115.93 1778.56,1112.19 1780.58,1104.61 1782.61,1114.6 1784.64,1114.58 1786.67,1113.4 1788.7,1105.89 1790.73,1103.54 1792.76,1103.25 1794.79,1106.13 1796.82,1108.24 1798.85,1133.03 1800.88,1124.25 1802.91,1117.01 1804.94,1121.42 1806.96,1121.41 1808.99,1126.7 1811.02,1136.41 1813.05,1140.12 1815.08,1126.94 1817.11,1116.3 1819.14,1117.04 1821.17,1127.38 1823.2,1126.54 1825.23,1124.61 1827.26,1127.62 1829.29,1112.06 1831.31,1109.15 1833.34,1116.38 1835.37,1118.76 1837.4,1118.34 1839.43,1111.8 1841.46,1104.19 1843.49,1100.29 1845.52,1099.04 1847.55,1098.66 1849.58,1104.39 1851.61,1110.52 1853.64,1102.47 1855.66,1092.46 1857.69,1096.91 1859.72,1098.63 1861.75,1090.83 1863.78,1097.05 1865.81,1115.05 1867.84,1123.98 1869.87,1119.17 1871.9,1115.56 1873.93,1113.42 1875.96,1113.44 1877.99,1109.33 1880.02,1108.36 1882.04,1105.41 1884.07,1098.19 1886.1,1089.23 1888.13,1097.21 1890.16,1101.89 1892.19,1101.91 1894.22,1102.15 1896.25,1093.82 1898.28,1087.33 1900.31,1089.99 1902.34,1095.82 1904.37,1084.66 1906.39,1081.58 1908.42,1094.77 1910.45,1107.05 1912.48,1100.96 1914.51,1118.17 1916.54,1125.84 1918.57,1136.53 1920.6,1134.02 1922.63,1144 1924.66,1145.05 1926.69,1149.49 1928.72,1147.19 1930.74,1149.28 1932.77,1139.07 1934.8,1144.59 1936.83,1126.86 1938.86,1122.71 1940.89,1126.44 1942.92,1115.61 1944.95,1121.03 1946.98,1122.35 1949.01,1134.33 1951.04,1142.94 1953.07,1137.79 1955.1,1136.5 1957.12,1134.64 1959.15,1135.15 1961.18,1142.45 1963.21,1158.2 1965.24,1141.62 1967.27,1144.57 1969.3,1146.53 1971.33,1153.2 1973.36,1151.45 1975.39,1155.02 1977.42,1153.84 1979.45,1159.19 1981.47,1149.26 1983.5,1146.93 1985.53,1160.22 1987.56,1152.74 1989.59,1161.04 1991.62,1169.54 1993.65,1176.73 1995.68,1166.08 1997.71,1158.43 1999.74,1156.34 2001.77,1158.51 2003.8,1172.94 2005.82,1162.63 2007.85,1170.86 2009.88,1169.51 2011.91,1169.02 2013.94,1170.95 2015.97,1174.98 2018,1170.7 2020.03,1170.26 2022.06,1179.33 2024.09,1176.76 2026.12,1177.2 2028.15,1185.51 2030.18,1183.02 2032.2,1181.4 2034.23,1184.78 2036.26,1185.87 2038.29,1183.39 2040.32,1194.38 2042.35,1181.66 2044.38,1173.98 2046.41,1159.12 2048.44,1167.6 2050.47,1161.47 2052.5,1155.64 2054.53,1164.76 2056.55,1155.88 2058.58,1164.91 2060.61,1162.21 2062.64,1150.26 2064.67,1171.06 2066.7,1167.11 2068.73,1174.36 2070.76,1166.03 2072.79,1178.5 2074.82,1179.71 2076.85,1183.54 2078.88,1171.46 2080.91,1182.34 2082.93,1195.17 2084.96,1197.3 2086.99,1194.79 2089.02,1188.61 2091.05,1193.3 2093.08,1200.29 2095.11,1202.2 2097.14,1200.35 2099.17,1193.74 2101.2,1186.38 2103.23,1190.56 2105.26,1174.5 2107.28,1179.5 2109.31,1187.36 2111.34,1188.11 2113.37,1196.55 2115.4,1207.48 2117.43,1208.06 2119.46,1211.22 2121.49,1206.83 2123.52,1203.98 2125.55,1203.13 2127.58,1200.15 2129.61,1221.96 2131.63,1215.15 2133.66,1214.12 2135.69,1213.31 2137.72,1212.51 2139.75,1212.71 2141.78,1209.44 2143.81,1209.26 2145.84,1213.67 2147.87,1216.56 2149.9,1223.95 2151.93,1224.13 2153.96,1220.93 2155.99,1222.9 2158.01,1224.74 2160.04,1225.75 2162.07,1225.43 2164.1,1223.54 2166.13,1234.23 2168.16,1229.82 2170.19,1229.99 2172.22,1235.58 2174.25,1240.48 2176.28,1244.49 2178.31,1248.51 2180.34,1254.75 2182.36,1247.43 2184.39,1244.79 2186.42,1243 2188.45,1245.15 2190.48,1243.17 2192.51,1244.34 2194.54,1251.16 2196.57,1243.2 2198.6,1241.89 2200.63,1248.1 2202.66,1261.86 2204.69,1261.56 2206.71,1263.16 2208.74,1268.53 2210.77,1276.51 2212.8,1271.06 2214.83,1256.26 2216.86,1271.29 2218.89,1279.45 2220.92,1289.06 2222.95,1281.35 2224.98,1282.36 2227.01,1282.49 2229.04,1285.87 2231.07,1287.73 2233.09,1286.69 2235.12,1274.96 2237.15,1269.03 2239.18,1273.16 2241.21,1277.37 2243.24,1271.88 2245.27,1280.21 2247.3,1275.54 2249.33,1270.99 2251.36,1262.93 2253.39,1265.44 2255.42,1267.72 2257.44,1272.41 2259.47,1267.98 2261.5,1268.97 2263.53,1269.32 2265.56,1258.06 2267.59,1256.54 2269.62,1262.66 2271.65,1264.64 2273.68,1270.14 2275.71,1285.97 2277.74,1300.69 2279.77,1293.07 2281.8,1290.5 2283.82,1300.93 2285.85,1296.36 2287.88,1293.67 2289.91,1297.42 2291.94,1286.84 "/>
<polyline clip-path="url(#clip242)" style="stroke:#e26f46; stroke-linecap:round; stroke-linejoin:round; stroke-width:4; stroke-opacity:1; fill:none" points="264.778,1332.39 266.808,990.416 268.837,908.39 270.866,855.265 272.895,814.682 274.924,807.423 276.954,789.158 278.983,789.331 281.012,783.433 283.041,803.245 285.07,785.259 287.1,776.907 289.129,759.594 291.158,721.359 293.187,691.954 295.216,649.744 297.246,653.03 299.275,623.876 301.304,598.066 303.333,575.049 305.362,562.131 307.391,537.291 309.421,494.155 311.45,457.02 313.479,429.037 315.508,381.233 317.537,406.191 319.567,391.727 321.596,374.859 323.625,347.627 325.654,332.768 327.683,314.331 329.713,282.886 331.742,310.185 333.771,292.785 335.8,288.9 337.829,323.76 339.859,347.334 341.888,349.182 343.917,361.702 345.946,322.552 347.975,313.653 350.005,319.244 352.034,296.301 354.063,331.842 356.092,321.625 358.121,317.127 360.15,302.918 362.18,271.291 364.209,279.865 366.238,250.282 368.267,246.289 370.296,219.803 372.326,225.657 374.355,227.674 376.384,208.261 378.413,188.246 380.442,183.732 382.472,175.177 384.501,169.849 386.53,165.017 388.559,186.713 390.588,182.467 392.618,196.718 394.647,149.852 396.676,138.127 398.705,116.962 400.734,98.7392 402.763,99.6648 404.793,73.6885 406.822,51.992 408.851,40.3782 410.88,33.8135 412.909,49.1269 414.939,63.6971 416.968,68.3709 418.997,62.1223 421.026,41.9009 423.055,65.5488 425.085,61.1315 427.114,65.6859 429.143,94.687 431.172,90.3853 433.201,116.226 435.231,117.227 437.26,131.589 439.289,119.438 441.318,128.188 443.347,157.948 445.377,141.255 447.406,164.73 449.435,155.361 451.464,145.324 453.493,156.85 455.522,151.165 457.552,144.047 459.581,157.041 461.61,145.943 463.639,138.796 465.668,121.317 467.698,152.654 469.727,171.546 471.756,174.639 473.785,206.024 475.814,165.073 477.844,152.717 479.873,165.568 481.902,137.773 483.931,140.633 485.96,155.545 487.99,158.147 490.019,146.838 492.048,148.846 494.077,161.844 496.106,164.962 498.136,167.964 500.165,167.231 502.194,188.074 504.223,207.659 506.252,216.418 508.281,199.197 510.311,178.243 512.34,153.871 514.369,163.263 516.398,171.471 518.427,182.156 520.457,174.447 522.486,175.042 524.515,172.735 526.544,185.502 528.573,212.235 530.603,218.147 532.632,206.902 534.661,211.554 536.69,255.693 538.719,264.985 540.749,279.583 542.778,257.445 544.807,264.841 546.836,258.287 548.865,246.177 550.894,244.399 552.924,257.465 554.953,278.472 556.982,287.757 559.011,302.182 561.04,313.245 563.07,311.811 565.099,302.989 567.128,319.989 569.157,312.502 571.186,317.651 573.216,317.301 575.245,342.868 577.274,341.695 579.303,338.361 581.332,321.791 583.362,339.893 585.391,367.107 587.42,352.313 589.449,363.07 591.478,399.767 593.508,408.423 595.537,421.007 597.566,426.159 599.595,433.015 601.624,424.702 603.653,404.934 605.683,394.852 607.712,421.103 609.741,433.57 611.77,417.057 613.799,429.683 615.829,435.898 617.858,439.569 619.887,451.924 621.916,449.183 623.945,428.344 625.975,424.744 628.004,430.504 630.033,426.501 632.062,435.089 634.091,443.023 636.121,455.855 638.15,455.864 640.179,448.445 642.208,444.779 644.237,446.494 646.267,470.419 648.296,439.955 650.325,421.435 652.354,415.859 654.383,416.143 656.412,435.941 658.442,418.748 660.471,425.489 662.5,420.99 664.529,438.567 666.558,450.119 668.588,448.994 670.617,460.227 672.646,476.313 674.675,495.924 676.704,504.354 678.734,531.69 680.763,522.078 682.792,524.368 684.821,519.066 686.85,514.821 688.88,514.684 690.909,512.783 692.938,510.463 694.967,501.071 696.996,504.842 699.025,507.437 701.055,534.64 703.084,547.276 705.113,540.311 707.142,559.282 709.171,552.481 711.201,556.766 713.23,541.443 715.259,540.445 717.288,546.55 719.317,559.424 721.347,550.443 723.376,543.759 725.405,540.624 727.434,551.462 729.463,556.755 731.493,561.403 733.522,560.197 735.551,572.361 737.58,586.289 739.609,592.769 741.639,587.819 743.668,604.647 745.697,600.709 747.726,591.702 749.755,600.754 751.784,619.285 753.814,650.493 755.843,657.903 757.872,668.002 759.901,669.295 761.93,659.041 763.96,689.593 765.989,681.478 768.018,683.528 770.047,658.528 772.076,673.833 774.106,693.9 776.135,701.957 778.164,698.739 780.193,696.194 782.222,699.083 784.252,701.205 786.281,687.36 788.31,682.414 790.339,667.862 792.368,685.631 794.398,692.071 796.427,681.606 798.456,696.807 800.485,698.912 802.514,697.772 804.543,701.573 806.573,698.445 808.602,692.68 810.631,695.296 812.66,696 814.689,700.779 816.719,710.409 818.748,713.139 820.777,705.126 822.806,708.521 824.835,707.061 826.865,720.375 828.894,725.922 830.923,719.812 832.952,731.542 834.981,735.561 837.011,737.794 839.04,731.963 841.069,736.134 843.098,744.71 845.127,753.41 847.156,754.829 849.186,746.624 851.215,761.559 853.244,776.687 855.273,782.884 857.302,777.235 859.332,782.697 861.361,789.57 863.39,794.348 865.419,807.809 867.448,817.166 869.478,816.253 871.507,802.082 873.536,796.241 875.565,798.389 877.594,779.926 879.624,789.512 881.653,785.231 883.682,798.592 885.711,808.186 887.74,817.111 889.77,825.081 891.799,818.713 893.828,820.184 895.857,828.679 897.886,828.835 899.915,833.34 901.945,846.314 903.974,843.568 906.003,840.436 908.032,876.335 910.061,876.903 912.091,874.925 914.12,875.978 916.149,889.228 918.178,882.669 920.207,893.956 922.237,904.693 924.266,902.932 926.295,885.855 928.324,899.489 930.353,906.706 932.383,913.721 934.412,928.373 936.441,930.375 938.47,941.751 940.499,951.56 942.529,946.196 944.558,942.376 946.587,940.254 948.616,932.854 950.645,935.141 952.674,931.855 954.704,931.639 956.733,942.912 958.762,941.537 960.791,942.185 962.82,955.217 964.85,956.607 966.879,962.684 968.908,956.251 970.937,964.189 972.966,969.012 974.996,958.922 977.025,965.334 979.054,961.67 981.083,970.742 983.112,973.991 985.142,981.338 987.171,984.393 989.2,984.008 991.229,979.979 993.258,993.077 995.287,989.108 997.317,1009.79 999.346,1022.1 1001.38,1018.52 1003.4,1019.46 1005.43,1025.49 1007.46,1017 1009.49,1018.34 1011.52,1012.09 1013.55,1010.61 1015.58,1018.5 1017.61,1027.01 1019.64,1031.92 1021.67,1031.71 1023.7,1040.98 1025.73,1038.45 1027.75,1042.98 1029.78,1053.73 1031.81,1050.43 1033.84,1043.5 1035.87,1047.76 1037.9,1056.5 1039.93,1057.01 1041.96,1058.77 1043.99,1057.94 1046.02,1057.84 1048.05,1065.11 1050.08,1068.66 1052.1,1073.13 1054.13,1079.32 1056.16,1083.89 1058.19,1089.12 1060.22,1082.34 1062.25,1090.16 1064.28,1075.79 1066.31,1079.28 1068.34,1092.08 1070.37,1089 1072.4,1082.62 1074.43,1084 1076.46,1090 1078.48,1090.26 1080.51,1078.52 1082.54,1084.66 1084.57,1092.99 1086.6,1092.33 1088.63,1093.5 1090.66,1107.63 1092.69,1112.73 1094.72,1114.76 1096.75,1124.85 1098.78,1118.61 1100.81,1126.01 1102.83,1117.53 1104.86,1128.81 1106.89,1132.02 1108.92,1139.82 1110.95,1136.88 1112.98,1130.59 1115.01,1128.03 1117.04,1119.78 1119.07,1116.56 1121.1,1111.91 1123.13,1115.71 1125.16,1125.51 1127.18,1139.44 1129.21,1128.57 1131.24,1136.47 1133.27,1137.11 1135.3,1133.68 1137.33,1145.91 1139.36,1151.11 1141.39,1149.48 1143.42,1144.98 1145.45,1141.92 1147.48,1144.83 1149.51,1142.28 1151.54,1144.21 1153.56,1148.84 1155.59,1147.27 1157.62,1146.38 1159.65,1146.71 1161.68,1161.47 1163.71,1148.12 1165.74,1149.92 1167.77,1146.99 1169.8,1143.46 1171.83,1154.1 1173.86,1151.17 1175.89,1146.34 1177.91,1147.14 1179.94,1147.36 1181.97,1154.52 1184,1162.12 1186.03,1179.8 1188.06,1181.87 1190.09,1200.22 1192.12,1191.11 1194.15,1196.7 1196.18,1194.36 1198.21,1187.74 1200.24,1193.25 1202.27,1187.41 1204.29,1191.83 1206.32,1184.08 1208.35,1193.17 1210.38,1202.05 1212.41,1208.73 1214.44,1221.18 1216.47,1218.73 1218.5,1217.63 1220.53,1230.47 1222.56,1228.87 1224.59,1229.82 1226.62,1218.94 1228.64,1222.6 1230.67,1223.9 1232.7,1227.22 1234.73,1235.68 1236.76,1221.44 1238.79,1218.2 1240.82,1212.95 1242.85,1219.29 1244.88,1226.16 1246.91,1233.84 1248.94,1233.98 1250.97,1236.45 1252.99,1224.05 1255.02,1226.33 1257.05,1229.05 1259.08,1221.13 1261.11,1213.03 1263.14,1221.08 1265.17,1218.44 1267.2,1223.27 1269.23,1217.25 1271.26,1216.44 1273.29,1217.4 1275.32,1224.24 1277.35,1226.73 1279.37,1240.04 1281.4,1246.15 1283.43,1242.39 1285.46,1257.32 1287.49,1247.96 1289.52,1241.59 1291.55,1242.77 1293.58,1241.22 1295.61,1241.7 1297.64,1252.16 1299.67,1252.49 1301.7,1256.28 1303.72,1264.03 1305.75,1262.46 1307.78,1257.79 1309.81,1260.44 1311.84,1259.88 1313.87,1259.56 1315.9,1264.19 1317.93,1260.76 1319.96,1263.62 1321.99,1262.34 1324.02,1261.86 1326.05,1265.01 1328.07,1270.95 1330.1,1281.39 1332.13,1272.71 1334.16,1275.55 1336.19,1274.55 1338.22,1274.21 1340.25,1273.85 1342.28,1271.98 1344.31,1272.38 1346.34,1276.83 1348.37,1270.6 1350.4,1272.73 1352.43,1273.15 1354.45,1276.17 1356.48,1268.96 1358.51,1263.19 1360.54,1255.97 1362.57,1258.62 1364.6,1260.19 1366.63,1255.93 1368.66,1267.77 1370.69,1264.71 1372.72,1256.23 1374.75,1259.9 1376.78,1256.3 1378.8,1264.33 1380.83,1265.92 1382.86,1267.21 1384.89,1267.94 1386.92,1270.98 1388.95,1272.6 1390.98,1276.43 1393.01,1271.18 1395.04,1267.72 1397.07,1268.44 1399.1,1263.59 1401.13,1267.12 1403.16,1266.63 1405.18,1270.17 1407.21,1266.51 1409.24,1261.89 1411.27,1265.78 1413.3,1272.88 1415.33,1254.27 1417.36,1258.93 1419.39,1261.58 1421.42,1261.87 1423.45,1247.76 1425.48,1257.05 1427.51,1256.57 1429.53,1255.06 1431.56,1253.44 1433.59,1252.15 1435.62,1250.27 1437.65,1253.19 1439.68,1263.31 1441.71,1255.24 1443.74,1262.13 1445.77,1260.25 1447.8,1259.57 1449.83,1252.95 1451.86,1249.26 1453.88,1244.65 1455.91,1241.55 1457.94,1244.61 1459.97,1250.14 1462,1263.67 1464.03,1257.16 1466.06,1252.73 1468.09,1256.28 1470.12,1252.32 1472.15,1242.6 1474.18,1246.15 1476.21,1250.32 1478.24,1253.63 1480.26,1251.62 1482.29,1260.19 1484.32,1260.78 1486.35,1257.93 1488.38,1257.25 1490.41,1257.42 1492.44,1266.12 1494.47,1257.46 1496.5,1247.4 1498.53,1243.18 1500.56,1234.16 1502.59,1242.3 1504.61,1251.56 1506.64,1254.08 1508.67,1257.38 1510.7,1257.49 1512.73,1256.49 1514.76,1259.53 1516.79,1245.8 1518.82,1243.57 1520.85,1249.4 1522.88,1239.79 1524.91,1241.17 1526.94,1246.92 1528.96,1249.61 1530.99,1253.43 1533.02,1262.88 1535.05,1260.85 1537.08,1251.02 1539.11,1250.67 1541.14,1260.07 1543.17,1260.01 1545.2,1262.2 1547.23,1250.01 1549.26,1253 1551.29,1253.77 1553.32,1258.8 1555.34,1252.96 1557.37,1266.13 1559.4,1270.84 1561.43,1264.21 1563.46,1265.21 1565.49,1261.18 1567.52,1269.81 1569.55,1269.04 1571.58,1263.88 1573.61,1258.87 1575.64,1264.93 1577.67,1260.6 1579.69,1261.68 1581.72,1258.02 1583.75,1263.48 1585.78,1271.85 1587.81,1269.47 1589.84,1267.94 1591.87,1273.54 1593.9,1275.92 1595.93,1284.36 1597.96,1278.62 1599.99,1280.7 1602.02,1285.97 1604.05,1298.03 1606.07,1296.86 1608.1,1286.67 1610.13,1283.84 1612.16,1287.43 1614.19,1289.71 1616.22,1281.29 1618.25,1279.26 1620.28,1285.09 1622.31,1279.35 1624.34,1277.19 1626.37,1275.53 1628.4,1281.63 1630.42,1282.08 1632.45,1288.86 1634.48,1278.9 1636.51,1281.07 1638.54,1283.36 1640.57,1289.57 1642.6,1286.26 1644.63,1286.86 1646.66,1285.12 1648.69,1283.36 1650.72,1291.9 1652.75,1295.99 1654.77,1293.06 1656.8,1284.02 1658.83,1288.38 1660.86,1275.93 1662.89,1273.85 1664.92,1282.96 1666.95,1283.12 1668.98,1284.91 1671.01,1275.21 1673.04,1272.55 1675.07,1278.95 1677.1,1279.64 1679.13,1279.03 1681.15,1284.51 1683.18,1279.1 1685.21,1285.76 1687.24,1287.27 1689.27,1300.03 1691.3,1291.29 1693.33,1291.12 1695.36,1302.62 1697.39,1302.57 1699.42,1302.02 1701.45,1308.49 1703.48,1311.07 1705.5,1308.8 1707.53,1309.58 1709.56,1311.28 1711.59,1315.89 1713.62,1317.31 1715.65,1320.46 1717.68,1314.61 1719.71,1312.2 1721.74,1311.54 1723.77,1309.06 1725.8,1300.05 1727.83,1303.23 1729.85,1301.25 1731.88,1299.53 1733.91,1295.9 1735.94,1300.51 1737.97,1298.06 1740,1301.18 1742.03,1301.57 1744.06,1306.33 1746.09,1303.98 1748.12,1299.84 1750.15,1303.38 1752.18,1304.39 1754.21,1310.27 1756.23,1308.17 1758.26,1311.92 1760.29,1302.01 1762.32,1307.17 1764.35,1306.46 1766.38,1302.01 1768.41,1306.62 1770.44,1313.68 1772.47,1305.72 1774.5,1305.51 1776.53,1300.4 1778.56,1305.57 1780.58,1303.03 1782.61,1301.28 1784.64,1303.42 1786.67,1301.59 1788.7,1302.53 1790.73,1300.42 1792.76,1305.77 1794.79,1308.44 1796.82,1307.79 1798.85,1301.36 1800.88,1305.25 1802.91,1309.22 1804.94,1312.74 1806.96,1310.42 1808.99,1324.74 1811.02,1313.7 1813.05,1317.41 1815.08,1309.7 1817.11,1308.48 1819.14,1317.18 1821.17,1315.14 1823.2,1318.67 1825.23,1315 1827.26,1315.63 1829.29,1309.75 1831.31,1316.36 1833.34,1328.33 1835.37,1321.37 1837.4,1322.28 1839.43,1320.27 1841.46,1318.07 1843.49,1324.29 1845.52,1326.55 1847.55,1333.4 1849.58,1334.7 1851.61,1339.39 1853.64,1334.02 1855.66,1327.23 1857.69,1331.03 1859.72,1322.79 1861.75,1326.35 1863.78,1335.12 1865.81,1340.56 1867.84,1333.67 1869.87,1332.93 1871.9,1334.69 1873.93,1326.58 1875.96,1330.57 1877.99,1329.83 1880.02,1329.01 1882.04,1330.45 1884.07,1326.7 1886.1,1327.03 1888.13,1332.01 1890.16,1335.35 1892.19,1332.24 1894.22,1338.37 1896.25,1335.95 1898.28,1342.15 1900.31,1345.31 1902.34,1352 1904.37,1353.35 1906.39,1349.24 1908.42,1353.62 1910.45,1352.32 1912.48,1348.67 1914.51,1348.53 1916.54,1349.49 1918.57,1352.06 1920.6,1341.9 1922.63,1345.68 1924.66,1356.19 1926.69,1349.23 1928.72,1350.94 1930.74,1346.3 1932.77,1346.89 1934.8,1341.9 1936.83,1346.39 1938.86,1349.07 1940.89,1342.51 1942.92,1339.86 1944.95,1340.39 1946.98,1335.47 1949.01,1338.75 1951.04,1344.3 1953.07,1346.39 1955.1,1340.3 1957.12,1340.84 1959.15,1347.98 1961.18,1349.55 1963.21,1350.37 1965.24,1355.68 1967.27,1350.98 1969.3,1348.4 1971.33,1349.97 1973.36,1351.13 1975.39,1348.12 1977.42,1351.24 1979.45,1340.61 1981.47,1341.23 1983.5,1336.94 1985.53,1328.14 1987.56,1325.69 1989.59,1328.35 1991.62,1328.53 1993.65,1333.58 1995.68,1337.62 1997.71,1333.95 1999.74,1335.86 2001.77,1334.68 2003.8,1334.82 2005.82,1341.03 2007.85,1342.56 2009.88,1339.39 2011.91,1340.29 2013.94,1338.43 2015.97,1329.38 2018,1325.67 2020.03,1328.52 2022.06,1334.46 2024.09,1329.7 2026.12,1328.15 2028.15,1330.22 2030.18,1331.51 2032.2,1332.92 2034.23,1329.08 2036.26,1324.02 2038.29,1328.32 2040.32,1317.27 2042.35,1320.85 2044.38,1325.33 2046.41,1321.44 2048.44,1317.17 2050.47,1307.8 2052.5,1313.86 2054.53,1316.51 2056.55,1316.9 2058.58,1314.42 2060.61,1316.05 2062.64,1317.86 2064.67,1329.8 2066.7,1330.65 2068.73,1331.56 2070.76,1338.32 2072.79,1336.5 2074.82,1342.35 2076.85,1346.13 2078.88,1343.67 2080.91,1342.89 2082.93,1343.39 2084.96,1345.62 2086.99,1343.99 2089.02,1347.64 2091.05,1344.95 2093.08,1342.3 2095.11,1345.39 2097.14,1340.8 2099.17,1342.59 2101.2,1341.07 2103.23,1336.37 2105.26,1338.78 2107.28,1338.66 2109.31,1341.41 2111.34,1343.89 2113.37,1343.73 2115.4,1338.77 2117.43,1333.3 2119.46,1328.58 2121.49,1329.36 2123.52,1326.94 2125.55,1325.7 2127.58,1323.63 2129.61,1320.99 2131.63,1315.43 2133.66,1318.96 2135.69,1317.56 2137.72,1314 2139.75,1325.51 2141.78,1330.11 2143.81,1322.65 2145.84,1325.04 2147.87,1320.82 2149.9,1315.17 2151.93,1309.92 2153.96,1305.02 2155.99,1311.12 2158.01,1314.93 2160.04,1310.03 2162.07,1308.6 2164.1,1309.49 2166.13,1312.6 2168.16,1321.22 2170.19,1321.06 2172.22,1322.61 2174.25,1319.4 2176.28,1322.84 2178.31,1327.31 2180.34,1325.82 2182.36,1322.98 2184.39,1326.36 2186.42,1322.17 2188.45,1319.19 2190.48,1317.33 2192.51,1316.61 2194.54,1313.27 2196.57,1317.17 2198.6,1308.96 2200.63,1309.66 2202.66,1310.22 2204.69,1306.42 2206.71,1310.62 2208.74,1311.69 2210.77,1318.88 2212.8,1325.87 2214.83,1323.59 2216.86,1314.38 2218.89,1317.82 2220.92,1316.52 2222.95,1311.58 2224.98,1318.31 2227.01,1320.33 2229.04,1320.05 2231.07,1310.56 2233.09,1312.4 2235.12,1316.31 2237.15,1318.55 2239.18,1312.38 2241.21,1305.22 2243.24,1308.74 2245.27,1315.19 2247.3,1316.21 2249.33,1324.24 2251.36,1324.9 2253.39,1326.91 2255.42,1325.78 2257.44,1327.02 2259.47,1328.2 2261.5,1339.85 2263.53,1344.42 2265.56,1340.72 2267.59,1336.77 2269.62,1336.78 2271.65,1338.15 2273.68,1342.74 2275.71,1335.78 2277.74,1336.01 2279.77,1332.93 2281.8,1337.75 2283.82,1339.71 2285.85,1337.79 2287.88,1337.25 2289.91,1338.21 2291.94,1330.98 "/>
<path clip-path="url(#clip240)" d="M1519.52 248.629 L2281.13 248.629 L2281.13 93.1086 L1519.52 93.1086  Z" fill="#ffffff" fill-rule="evenodd" fill-opacity="1"/>
<polyline clip-path="url(#clip240)" style="stroke:#000000; stroke-linecap:round; stroke-linejoin:round; stroke-width:4; stroke-opacity:1; fill:none" points="1519.52,248.629 2281.13,248.629 2281.13,93.1086 1519.52,93.1086 1519.52,248.629 "/>
<polyline clip-path="url(#clip240)" style="stroke:#009af9; stroke-linecap:round; stroke-linejoin:round; stroke-width:4; stroke-opacity:1; fill:none" points="1543.39,144.949 1686.65,144.949 "/>
<path clip-path="url(#clip240)" d="M1710.52 127.669 L1717.49 127.669 L1726.31 151.187 L1735.17 127.669 L1742.14 127.669 L1742.14 162.229 L1737.58 162.229 L1737.58 131.882 L1728.67 155.585 L1723.97 155.585 L1715.06 131.882 L1715.06 162.229 L1710.52 162.229 L1710.52 127.669 Z" fill="#000000" fill-rule="nonzero" fill-opacity="1" /><path clip-path="url(#clip240)" d="M1750.8 151.997 L1750.8 136.303 L1755.06 136.303 L1755.06 151.835 Q1755.06 155.516 1756.49 157.368 Q1757.93 159.196 1760.8 159.196 Q1764.25 159.196 1766.24 156.997 Q1768.25 154.798 1768.25 151.002 L1768.25 136.303 L1772.51 136.303 L1772.51 162.229 L1768.25 162.229 L1768.25 158.247 Q1766.7 160.608 1764.64 161.766 Q1762.6 162.9 1759.9 162.9 Q1755.43 162.9 1753.11 160.122 Q1750.8 157.344 1750.8 151.997 M1761.52 135.678 L1761.52 135.678 Z" fill="#000000" fill-rule="nonzero" fill-opacity="1" /><path clip-path="url(#clip240)" d="M1781.28 126.21 L1785.54 126.21 L1785.54 162.229 L1781.28 162.229 L1781.28 126.21 Z" fill="#000000" fill-rule="nonzero" fill-opacity="1" /><path clip-path="url(#clip240)" d="M1798.67 128.942 L1798.67 136.303 L1807.44 136.303 L1807.44 139.613 L1798.67 139.613 L1798.67 153.687 Q1798.67 156.858 1799.52 157.761 Q1800.4 158.664 1803.07 158.664 L1807.44 158.664 L1807.44 162.229 L1803.07 162.229 Q1798.14 162.229 1796.26 160.4 Q1794.39 158.548 1794.39 153.687 L1794.39 139.613 L1791.26 139.613 L1791.26 136.303 L1794.39 136.303 L1794.39 128.942 L1798.67 128.942 Z" fill="#000000" fill-rule="nonzero" fill-opacity="1" /><path clip-path="url(#clip240)" d="M1813.04 136.303 L1817.3 136.303 L1817.3 162.229 L1813.04 162.229 L1813.04 136.303 M1813.04 126.21 L1817.3 126.21 L1817.3 131.604 L1813.04 131.604 L1813.04 126.21 Z" fill="#000000" fill-rule="nonzero" fill-opacity="1" /><path clip-path="url(#clip240)" d="M1847.77 146.581 L1847.77 162.229 L1843.51 162.229 L1843.51 146.719 Q1843.51 143.039 1842.07 141.21 Q1840.64 139.382 1837.77 139.382 Q1834.32 139.382 1832.33 141.581 Q1830.34 143.78 1830.34 147.576 L1830.34 162.229 L1826.05 162.229 L1826.05 136.303 L1830.34 136.303 L1830.34 140.331 Q1831.86 137.993 1833.92 136.835 Q1836.01 135.678 1838.71 135.678 Q1843.18 135.678 1845.47 138.456 Q1847.77 141.21 1847.77 146.581 Z" fill="#000000" fill-rule="nonzero" fill-opacity="1" /><path clip-path="url(#clip240)" d="M1866.31 139.289 Q1862.88 139.289 1860.89 141.974 Q1858.9 144.636 1858.9 149.289 Q1858.9 153.942 1860.87 156.627 Q1862.86 159.289 1866.31 159.289 Q1869.71 159.289 1871.7 156.604 Q1873.69 153.918 1873.69 149.289 Q1873.69 144.682 1871.7 141.997 Q1869.71 139.289 1866.31 139.289 M1866.31 135.678 Q1871.86 135.678 1875.03 139.289 Q1878.21 142.9 1878.21 149.289 Q1878.21 155.655 1875.03 159.289 Q1871.86 162.9 1866.31 162.9 Q1860.73 162.9 1857.56 159.289 Q1854.41 155.655 1854.41 149.289 Q1854.41 142.9 1857.56 139.289 Q1860.73 135.678 1866.31 135.678 Z" fill="#000000" fill-rule="nonzero" fill-opacity="1" /><path clip-path="url(#clip240)" d="M1905.45 141.28 Q1907.05 138.409 1909.27 137.044 Q1911.49 135.678 1914.5 135.678 Q1918.55 135.678 1920.75 138.525 Q1922.95 141.349 1922.95 146.581 L1922.95 162.229 L1918.67 162.229 L1918.67 146.719 Q1918.67 142.993 1917.35 141.187 Q1916.03 139.382 1913.32 139.382 Q1910.01 139.382 1908.09 141.581 Q1906.17 143.78 1906.17 147.576 L1906.17 162.229 L1901.89 162.229 L1901.89 146.719 Q1901.89 142.969 1900.57 141.187 Q1899.25 139.382 1896.49 139.382 Q1893.23 139.382 1891.31 141.604 Q1889.39 143.803 1889.39 147.576 L1889.39 162.229 L1885.1 162.229 L1885.1 136.303 L1889.39 136.303 L1889.39 140.331 Q1890.84 137.946 1892.88 136.812 Q1894.92 135.678 1897.72 135.678 Q1900.54 135.678 1902.51 137.113 Q1904.5 138.548 1905.45 141.28 Z" fill="#000000" fill-rule="nonzero" fill-opacity="1" /><path clip-path="url(#clip240)" d="M1931.45 136.303 L1935.7 136.303 L1935.7 162.229 L1931.45 162.229 L1931.45 136.303 M1931.45 126.21 L1935.7 126.21 L1935.7 131.604 L1931.45 131.604 L1931.45 126.21 Z" fill="#000000" fill-rule="nonzero" fill-opacity="1" /><path clip-path="url(#clip240)" d="M1956.4 149.196 Q1951.24 149.196 1949.25 150.377 Q1947.26 151.557 1947.26 154.405 Q1947.26 156.673 1948.74 158.016 Q1950.24 159.335 1952.81 159.335 Q1956.35 159.335 1958.48 156.835 Q1960.64 154.312 1960.64 150.145 L1960.64 149.196 L1956.4 149.196 M1964.89 147.437 L1964.89 162.229 L1960.64 162.229 L1960.64 158.293 Q1959.18 160.655 1957 161.789 Q1954.83 162.9 1951.68 162.9 Q1947.7 162.9 1945.33 160.678 Q1943 158.432 1943 154.682 Q1943 150.307 1945.91 148.085 Q1948.85 145.863 1954.66 145.863 L1960.64 145.863 L1960.64 145.446 Q1960.64 142.507 1958.69 140.909 Q1956.77 139.289 1953.27 139.289 Q1951.05 139.289 1948.95 139.821 Q1946.84 140.354 1944.89 141.419 L1944.89 137.483 Q1947.23 136.581 1949.43 136.141 Q1951.63 135.678 1953.71 135.678 Q1959.34 135.678 1962.12 138.594 Q1964.89 141.511 1964.89 147.437 Z" fill="#000000" fill-rule="nonzero" fill-opacity="1" /><path clip-path="url(#clip240)" d="M1973.67 126.21 L1977.93 126.21 L1977.93 162.229 L1973.67 162.229 L1973.67 126.21 Z" fill="#000000" fill-rule="nonzero" fill-opacity="1" /><path clip-path="url(#clip240)" d="M2016.93 140.284 Q2016.21 139.868 2015.36 139.682 Q2014.52 139.474 2013.51 139.474 Q2009.89 139.474 2007.95 141.835 Q2006.03 144.173 2006.03 148.571 L2006.03 162.229 L2001.75 162.229 L2001.75 136.303 L2006.03 136.303 L2006.03 140.331 Q2007.37 137.969 2009.52 136.835 Q2011.68 135.678 2014.76 135.678 Q2015.2 135.678 2015.73 135.747 Q2016.26 135.794 2016.91 135.909 L2016.93 140.284 Z" fill="#000000" fill-rule="nonzero" fill-opacity="1" /><path clip-path="url(#clip240)" d="M2042.53 148.201 L2042.53 150.284 L2022.95 150.284 Q2023.23 154.682 2025.59 156.997 Q2027.97 159.289 2032.21 159.289 Q2034.66 159.289 2036.95 158.687 Q2039.27 158.085 2041.54 156.881 L2041.54 160.909 Q2039.25 161.881 2036.84 162.391 Q2034.43 162.9 2031.95 162.9 Q2025.75 162.9 2022.12 159.289 Q2018.51 155.678 2018.51 149.52 Q2018.51 143.155 2021.93 139.428 Q2025.38 135.678 2031.21 135.678 Q2036.45 135.678 2039.48 139.057 Q2042.53 142.414 2042.53 148.201 M2038.27 146.951 Q2038.23 143.456 2036.31 141.372 Q2034.41 139.289 2031.26 139.289 Q2027.7 139.289 2025.54 141.303 Q2023.41 143.317 2023.09 146.974 L2038.27 146.951 Z" fill="#000000" fill-rule="nonzero" fill-opacity="1" /><path clip-path="url(#clip240)" d="M2066.05 137.067 L2066.05 141.094 Q2064.25 140.169 2062.3 139.706 Q2060.36 139.243 2058.27 139.243 Q2055.1 139.243 2053.51 140.215 Q2051.93 141.187 2051.93 143.131 Q2051.93 144.613 2053.07 145.469 Q2054.2 146.303 2057.63 147.067 L2059.08 147.391 Q2063.62 148.363 2065.52 150.145 Q2067.44 151.905 2067.44 155.076 Q2067.44 158.687 2064.57 160.793 Q2061.72 162.9 2056.72 162.9 Q2054.64 162.9 2052.37 162.483 Q2050.13 162.09 2047.63 161.28 L2047.63 156.881 Q2049.99 158.108 2052.28 158.733 Q2054.57 159.335 2056.82 159.335 Q2059.82 159.335 2061.44 158.317 Q2063.07 157.275 2063.07 155.4 Q2063.07 153.664 2061.88 152.738 Q2060.73 151.812 2056.77 150.956 L2055.29 150.608 Q2051.33 149.775 2049.57 148.062 Q2047.81 146.326 2047.81 143.317 Q2047.81 139.659 2050.4 137.669 Q2053 135.678 2057.76 135.678 Q2060.13 135.678 2062.21 136.025 Q2064.29 136.372 2066.05 137.067 Z" fill="#000000" fill-rule="nonzero" fill-opacity="1" /><path clip-path="url(#clip240)" d="M2086 149.196 Q2080.84 149.196 2078.85 150.377 Q2076.86 151.557 2076.86 154.405 Q2076.86 156.673 2078.34 158.016 Q2079.85 159.335 2082.42 159.335 Q2085.96 159.335 2088.09 156.835 Q2090.24 154.312 2090.24 150.145 L2090.24 149.196 L2086 149.196 M2094.5 147.437 L2094.5 162.229 L2090.24 162.229 L2090.24 158.293 Q2088.78 160.655 2086.61 161.789 Q2084.43 162.9 2081.28 162.9 Q2077.3 162.9 2074.94 160.678 Q2072.6 158.432 2072.6 154.682 Q2072.6 150.307 2075.52 148.085 Q2078.46 145.863 2084.27 145.863 L2090.24 145.863 L2090.24 145.446 Q2090.24 142.507 2088.3 140.909 Q2086.38 139.289 2082.88 139.289 Q2080.66 139.289 2078.55 139.821 Q2076.44 140.354 2074.5 141.419 L2074.5 137.483 Q2076.84 136.581 2079.04 136.141 Q2081.24 135.678 2083.32 135.678 Q2088.94 135.678 2091.72 138.594 Q2094.5 141.511 2094.5 147.437 Z" fill="#000000" fill-rule="nonzero" fill-opacity="1" /><path clip-path="url(#clip240)" d="M2123.46 141.28 Q2125.06 138.409 2127.28 137.044 Q2129.5 135.678 2132.51 135.678 Q2136.56 135.678 2138.76 138.525 Q2140.96 141.349 2140.96 146.581 L2140.96 162.229 L2136.68 162.229 L2136.68 146.719 Q2136.68 142.993 2135.36 141.187 Q2134.04 139.382 2131.33 139.382 Q2128.02 139.382 2126.1 141.581 Q2124.18 143.78 2124.18 147.576 L2124.18 162.229 L2119.89 162.229 L2119.89 146.719 Q2119.89 142.969 2118.57 141.187 Q2117.25 139.382 2114.5 139.382 Q2111.24 139.382 2109.32 141.604 Q2107.39 143.803 2107.39 147.576 L2107.39 162.229 L2103.11 162.229 L2103.11 136.303 L2107.39 136.303 L2107.39 140.331 Q2108.85 137.946 2110.89 136.812 Q2112.93 135.678 2115.73 135.678 Q2118.55 135.678 2120.52 137.113 Q2122.51 138.548 2123.46 141.28 Z" fill="#000000" fill-rule="nonzero" fill-opacity="1" /><path clip-path="url(#clip240)" d="M2153.57 158.34 L2153.57 172.09 L2149.29 172.09 L2149.29 136.303 L2153.57 136.303 L2153.57 140.238 Q2154.92 137.923 2156.95 136.812 Q2159.01 135.678 2161.86 135.678 Q2166.58 135.678 2169.52 139.428 Q2172.49 143.178 2172.49 149.289 Q2172.49 155.4 2169.52 159.15 Q2166.58 162.9 2161.86 162.9 Q2159.01 162.9 2156.95 161.789 Q2154.92 160.655 2153.57 158.34 M2168.06 149.289 Q2168.06 144.59 2166.12 141.928 Q2164.2 139.243 2160.82 139.243 Q2157.44 139.243 2155.5 141.928 Q2153.57 144.59 2153.57 149.289 Q2153.57 153.988 2155.5 156.673 Q2157.44 159.335 2160.82 159.335 Q2164.2 159.335 2166.12 156.673 Q2168.06 153.988 2168.06 149.289 Z" fill="#000000" fill-rule="nonzero" fill-opacity="1" /><path clip-path="url(#clip240)" d="M2179.55 126.21 L2183.81 126.21 L2183.81 162.229 L2179.55 162.229 L2179.55 126.21 Z" fill="#000000" fill-rule="nonzero" fill-opacity="1" /><path clip-path="url(#clip240)" d="M2192.72 136.303 L2196.98 136.303 L2196.98 162.229 L2192.72 162.229 L2192.72 136.303 M2192.72 126.21 L2196.98 126.21 L2196.98 131.604 L2192.72 131.604 L2192.72 126.21 Z" fill="#000000" fill-rule="nonzero" fill-opacity="1" /><path clip-path="url(#clip240)" d="M2227.44 146.581 L2227.44 162.229 L2223.18 162.229 L2223.18 146.719 Q2223.18 143.039 2221.74 141.21 Q2220.31 139.382 2217.44 139.382 Q2213.99 139.382 2212 141.581 Q2210.01 143.78 2210.01 147.576 L2210.01 162.229 L2205.73 162.229 L2205.73 136.303 L2210.01 136.303 L2210.01 140.331 Q2211.54 137.993 2213.6 136.835 Q2215.68 135.678 2218.39 135.678 Q2222.86 135.678 2225.15 138.456 Q2227.44 141.21 2227.44 146.581 Z" fill="#000000" fill-rule="nonzero" fill-opacity="1" /><path clip-path="url(#clip240)" d="M2252.99 148.965 Q2252.99 144.335 2251.07 141.789 Q2249.18 139.243 2245.73 139.243 Q2242.3 139.243 2240.38 141.789 Q2238.48 144.335 2238.48 148.965 Q2238.48 153.571 2240.38 156.118 Q2242.3 158.664 2245.73 158.664 Q2249.18 158.664 2251.07 156.118 Q2252.99 153.571 2252.99 148.965 M2257.25 159.011 Q2257.25 165.631 2254.31 168.849 Q2251.37 172.09 2245.31 172.09 Q2243.06 172.09 2241.07 171.742 Q2239.08 171.418 2237.21 170.724 L2237.21 166.58 Q2239.08 167.599 2240.91 168.085 Q2242.74 168.571 2244.64 168.571 Q2248.83 168.571 2250.91 166.372 Q2252.99 164.196 2252.99 159.775 L2252.99 157.668 Q2251.68 159.96 2249.62 161.094 Q2247.56 162.229 2244.68 162.229 Q2239.92 162.229 2237 158.594 Q2234.08 154.96 2234.08 148.965 Q2234.08 142.946 2237 139.312 Q2239.92 135.678 2244.68 135.678 Q2247.56 135.678 2249.62 136.812 Q2251.68 137.946 2252.99 140.238 L2252.99 136.303 L2257.25 136.303 L2257.25 159.011 Z" fill="#000000" fill-rule="nonzero" fill-opacity="1" /><polyline clip-path="url(#clip240)" style="stroke:#e26f46; stroke-linecap:round; stroke-linejoin:round; stroke-width:4; stroke-opacity:1; fill:none" points="1543.39,196.789 1686.65,196.789 "/>
<path clip-path="url(#clip240)" d="M1732.77 180.643 L1732.77 185.203 Q1730.1 183.93 1727.74 183.305 Q1725.38 182.68 1723.18 182.68 Q1719.36 182.68 1717.28 184.161 Q1715.22 185.643 1715.22 188.374 Q1715.22 190.666 1716.59 191.847 Q1717.97 193.004 1721.82 193.722 L1724.64 194.3 Q1729.87 195.296 1732.35 197.819 Q1734.85 200.319 1734.85 204.532 Q1734.85 209.555 1731.47 212.147 Q1728.11 214.74 1721.61 214.74 Q1719.16 214.74 1716.38 214.184 Q1713.62 213.629 1710.66 212.541 L1710.66 207.726 Q1713.51 209.323 1716.24 210.133 Q1718.97 210.944 1721.61 210.944 Q1725.61 210.944 1727.79 209.37 Q1729.97 207.796 1729.97 204.879 Q1729.97 202.333 1728.39 200.897 Q1726.84 199.462 1723.28 198.745 L1720.43 198.189 Q1715.2 197.147 1712.86 194.925 Q1710.52 192.703 1710.52 188.745 Q1710.52 184.161 1713.74 181.522 Q1716.98 178.884 1722.65 178.884 Q1725.08 178.884 1727.6 179.323 Q1730.13 179.763 1732.77 180.643 Z" fill="#000000" fill-rule="nonzero" fill-opacity="1" /><path clip-path="url(#clip240)" d="M1746.17 180.782 L1746.17 188.143 L1754.94 188.143 L1754.94 191.453 L1746.17 191.453 L1746.17 205.527 Q1746.17 208.698 1747.03 209.601 Q1747.9 210.504 1750.57 210.504 L1754.94 210.504 L1754.94 214.069 L1750.57 214.069 Q1745.64 214.069 1743.76 212.24 Q1741.89 210.388 1741.89 205.527 L1741.89 191.453 L1738.76 191.453 L1738.76 188.143 L1741.89 188.143 L1741.89 180.782 L1746.17 180.782 Z" fill="#000000" fill-rule="nonzero" fill-opacity="1" /><path clip-path="url(#clip240)" d="M1775.57 192.124 Q1774.85 191.708 1773.99 191.522 Q1773.16 191.314 1772.14 191.314 Q1768.53 191.314 1766.59 193.675 Q1764.66 196.013 1764.66 200.411 L1764.66 214.069 L1760.38 214.069 L1760.38 188.143 L1764.66 188.143 L1764.66 192.171 Q1766.01 189.809 1768.16 188.675 Q1770.31 187.518 1773.39 187.518 Q1773.83 187.518 1774.36 187.587 Q1774.9 187.634 1775.54 187.749 L1775.57 192.124 Z" fill="#000000" fill-rule="nonzero" fill-opacity="1" /><path clip-path="url(#clip240)" d="M1791.82 201.036 Q1786.65 201.036 1784.66 202.217 Q1782.67 203.397 1782.67 206.245 Q1782.67 208.513 1784.15 209.856 Q1785.66 211.175 1788.23 211.175 Q1791.77 211.175 1793.9 208.675 Q1796.05 206.152 1796.05 201.985 L1796.05 201.036 L1791.82 201.036 M1800.31 199.277 L1800.31 214.069 L1796.05 214.069 L1796.05 210.133 Q1794.59 212.495 1792.42 213.629 Q1790.24 214.74 1787.09 214.74 Q1783.11 214.74 1780.75 212.518 Q1778.41 210.272 1778.41 206.522 Q1778.41 202.147 1781.33 199.925 Q1784.27 197.703 1790.08 197.703 L1796.05 197.703 L1796.05 197.286 Q1796.05 194.347 1794.11 192.749 Q1792.19 191.129 1788.69 191.129 Q1786.47 191.129 1784.36 191.661 Q1782.26 192.194 1780.31 193.259 L1780.31 189.323 Q1782.65 188.421 1784.85 187.981 Q1787.05 187.518 1789.13 187.518 Q1794.76 187.518 1797.53 190.434 Q1800.31 193.351 1800.31 199.277 Z" fill="#000000" fill-rule="nonzero" fill-opacity="1" /><path clip-path="url(#clip240)" d="M1813.3 180.782 L1813.3 188.143 L1822.07 188.143 L1822.07 191.453 L1813.3 191.453 L1813.3 205.527 Q1813.3 208.698 1814.15 209.601 Q1815.03 210.504 1817.7 210.504 L1822.07 210.504 L1822.07 214.069 L1817.7 214.069 Q1812.77 214.069 1810.89 212.24 Q1809.02 210.388 1809.02 205.527 L1809.02 191.453 L1805.89 191.453 L1805.89 188.143 L1809.02 188.143 L1809.02 180.782 L1813.3 180.782 Z" fill="#000000" fill-rule="nonzero" fill-opacity="1" /><path clip-path="url(#clip240)" d="M1827.67 188.143 L1831.93 188.143 L1831.93 214.069 L1827.67 214.069 L1827.67 188.143 M1827.67 178.05 L1831.93 178.05 L1831.93 183.444 L1827.67 183.444 L1827.67 178.05 Z" fill="#000000" fill-rule="nonzero" fill-opacity="1" /><path clip-path="url(#clip240)" d="M1853.97 178.05 L1853.97 181.592 L1849.9 181.592 Q1847.6 181.592 1846.7 182.518 Q1845.82 183.444 1845.82 185.851 L1845.82 188.143 L1852.83 188.143 L1852.83 191.453 L1845.82 191.453 L1845.82 214.069 L1841.54 214.069 L1841.54 191.453 L1837.46 191.453 L1837.46 188.143 L1841.54 188.143 L1841.54 186.337 Q1841.54 182.009 1843.55 180.041 Q1845.57 178.05 1849.94 178.05 L1853.97 178.05 Z" fill="#000000" fill-rule="nonzero" fill-opacity="1" /><path clip-path="url(#clip240)" d="M1857.53 188.143 L1861.79 188.143 L1861.79 214.069 L1857.53 214.069 L1857.53 188.143 M1857.53 178.05 L1861.79 178.05 L1861.79 183.444 L1857.53 183.444 L1857.53 178.05 Z" fill="#000000" fill-rule="nonzero" fill-opacity="1" /><path clip-path="url(#clip240)" d="M1892.88 200.041 L1892.88 202.124 L1873.3 202.124 Q1873.58 206.522 1875.94 208.837 Q1878.32 211.129 1882.56 211.129 Q1885.01 211.129 1887.3 210.527 Q1889.62 209.925 1891.89 208.721 L1891.89 212.749 Q1889.59 213.721 1887.19 214.231 Q1884.78 214.74 1882.3 214.74 Q1876.1 214.74 1872.46 211.129 Q1868.85 207.518 1868.85 201.36 Q1868.85 194.995 1872.28 191.268 Q1875.73 187.518 1881.56 187.518 Q1886.79 187.518 1889.83 190.897 Q1892.88 194.254 1892.88 200.041 M1888.62 198.791 Q1888.58 195.296 1886.65 193.212 Q1884.76 191.129 1881.61 191.129 Q1878.04 191.129 1875.89 193.143 Q1873.76 195.157 1873.44 198.814 L1888.62 198.791 Z" fill="#000000" fill-rule="nonzero" fill-opacity="1" /><path clip-path="url(#clip240)" d="M1916.93 192.078 L1916.93 178.05 L1921.19 178.05 L1921.19 214.069 L1916.93 214.069 L1916.93 210.18 Q1915.59 212.495 1913.53 213.629 Q1911.49 214.74 1908.62 214.74 Q1903.92 214.74 1900.96 210.99 Q1898.02 207.24 1898.02 201.129 Q1898.02 195.018 1900.96 191.268 Q1903.92 187.518 1908.62 187.518 Q1911.49 187.518 1913.53 188.652 Q1915.59 189.763 1916.93 192.078 M1902.42 201.129 Q1902.42 205.828 1904.34 208.513 Q1906.28 211.175 1909.66 211.175 Q1913.04 211.175 1914.99 208.513 Q1916.93 205.828 1916.93 201.129 Q1916.93 196.43 1914.99 193.768 Q1913.04 191.083 1909.66 191.083 Q1906.28 191.083 1904.34 193.768 Q1902.42 196.43 1902.42 201.129 Z" fill="#000000" fill-rule="nonzero" fill-opacity="1" /><path clip-path="url(#clip240)" d="M1960.06 192.124 Q1959.34 191.708 1958.48 191.522 Q1957.65 191.314 1956.63 191.314 Q1953.02 191.314 1951.08 193.675 Q1949.15 196.013 1949.15 200.411 L1949.15 214.069 L1944.87 214.069 L1944.87 188.143 L1949.15 188.143 L1949.15 192.171 Q1950.5 189.809 1952.65 188.675 Q1954.8 187.518 1957.88 187.518 Q1958.32 187.518 1958.85 187.587 Q1959.39 187.634 1960.03 187.749 L1960.06 192.124 Z" fill="#000000" fill-rule="nonzero" fill-opacity="1" /><path clip-path="url(#clip240)" d="M1985.66 200.041 L1985.66 202.124 L1966.08 202.124 Q1966.35 206.522 1968.71 208.837 Q1971.1 211.129 1975.33 211.129 Q1977.79 211.129 1980.08 210.527 Q1982.39 209.925 1984.66 208.721 L1984.66 212.749 Q1982.37 213.721 1979.96 214.231 Q1977.56 214.74 1975.08 214.74 Q1968.88 214.74 1965.24 211.129 Q1961.63 207.518 1961.63 201.36 Q1961.63 194.995 1965.06 191.268 Q1968.51 187.518 1974.34 187.518 Q1979.57 187.518 1982.6 190.897 Q1985.66 194.254 1985.66 200.041 M1981.4 198.791 Q1981.35 195.296 1979.43 193.212 Q1977.53 191.129 1974.39 191.129 Q1970.82 191.129 1968.67 193.143 Q1966.54 195.157 1966.21 198.814 L1981.4 198.791 Z" fill="#000000" fill-rule="nonzero" fill-opacity="1" /><path clip-path="url(#clip240)" d="M2009.18 188.907 L2009.18 192.934 Q2007.37 192.009 2005.43 191.546 Q2003.48 191.083 2001.4 191.083 Q1998.23 191.083 1996.63 192.055 Q1995.06 193.027 1995.06 194.971 Q1995.06 196.453 1996.19 197.309 Q1997.32 198.143 2000.75 198.907 L2002.21 199.231 Q2006.75 200.203 2008.64 201.985 Q2010.57 203.745 2010.57 206.916 Q2010.57 210.527 2007.7 212.633 Q2004.85 214.74 1999.85 214.74 Q1997.76 214.74 1995.5 214.323 Q1993.25 213.93 1990.75 213.12 L1990.75 208.721 Q1993.11 209.948 1995.4 210.573 Q1997.7 211.175 1999.94 211.175 Q2002.95 211.175 2004.57 210.157 Q2006.19 209.115 2006.19 207.24 Q2006.19 205.504 2005.01 204.578 Q2003.85 203.652 1999.89 202.796 L1998.41 202.448 Q1994.45 201.615 1992.7 199.902 Q1990.94 198.166 1990.94 195.157 Q1990.94 191.499 1993.53 189.509 Q1996.12 187.518 2000.89 187.518 Q2003.25 187.518 2005.33 187.865 Q2007.42 188.212 2009.18 188.907 Z" fill="#000000" fill-rule="nonzero" fill-opacity="1" /><path clip-path="url(#clip240)" d="M2029.13 201.036 Q2023.97 201.036 2021.98 202.217 Q2019.99 203.397 2019.99 206.245 Q2019.99 208.513 2021.47 209.856 Q2022.97 211.175 2025.54 211.175 Q2029.08 211.175 2031.21 208.675 Q2033.37 206.152 2033.37 201.985 L2033.37 201.036 L2029.13 201.036 M2037.63 199.277 L2037.63 214.069 L2033.37 214.069 L2033.37 210.133 Q2031.91 212.495 2029.73 213.629 Q2027.56 214.74 2024.41 214.74 Q2020.43 214.74 2018.07 212.518 Q2015.73 210.272 2015.73 206.522 Q2015.73 202.147 2018.64 199.925 Q2021.58 197.703 2027.39 197.703 L2033.37 197.703 L2033.37 197.286 Q2033.37 194.347 2031.42 192.749 Q2029.5 191.129 2026.01 191.129 Q2023.78 191.129 2021.68 191.661 Q2019.57 192.194 2017.63 193.259 L2017.63 189.323 Q2019.96 188.421 2022.16 187.981 Q2024.36 187.518 2026.45 187.518 Q2032.07 187.518 2034.85 190.434 Q2037.63 193.351 2037.63 199.277 Z" fill="#000000" fill-rule="nonzero" fill-opacity="1" /><path clip-path="url(#clip240)" d="M2066.58 193.12 Q2068.18 190.249 2070.4 188.884 Q2072.63 187.518 2075.63 187.518 Q2079.69 187.518 2081.88 190.365 Q2084.08 193.189 2084.08 198.421 L2084.08 214.069 L2079.8 214.069 L2079.8 198.559 Q2079.8 194.833 2078.48 193.027 Q2077.16 191.222 2074.45 191.222 Q2071.14 191.222 2069.22 193.421 Q2067.3 195.62 2067.3 199.416 L2067.3 214.069 L2063.02 214.069 L2063.02 198.559 Q2063.02 194.809 2061.7 193.027 Q2060.38 191.222 2057.63 191.222 Q2054.36 191.222 2052.44 193.444 Q2050.52 195.643 2050.52 199.416 L2050.52 214.069 L2046.24 214.069 L2046.24 188.143 L2050.52 188.143 L2050.52 192.171 Q2051.98 189.786 2054.01 188.652 Q2056.05 187.518 2058.85 187.518 Q2061.68 187.518 2063.64 188.953 Q2065.63 190.388 2066.58 193.12 Z" fill="#000000" fill-rule="nonzero" fill-opacity="1" /><path clip-path="url(#clip240)" d="M2096.7 210.18 L2096.7 223.93 L2092.42 223.93 L2092.42 188.143 L2096.7 188.143 L2096.7 192.078 Q2098.04 189.763 2100.08 188.652 Q2102.14 187.518 2104.99 187.518 Q2109.71 187.518 2112.65 191.268 Q2115.61 195.018 2115.61 201.129 Q2115.61 207.24 2112.65 210.99 Q2109.71 214.74 2104.99 214.74 Q2102.14 214.74 2100.08 213.629 Q2098.04 212.495 2096.7 210.18 M2111.19 201.129 Q2111.19 196.43 2109.25 193.768 Q2107.32 191.083 2103.94 191.083 Q2100.57 191.083 2098.62 193.768 Q2096.7 196.43 2096.7 201.129 Q2096.7 205.828 2098.62 208.513 Q2100.57 211.175 2103.94 211.175 Q2107.32 211.175 2109.25 208.513 Q2111.19 205.828 2111.19 201.129 Z" fill="#000000" fill-rule="nonzero" fill-opacity="1" /><path clip-path="url(#clip240)" d="M2122.67 178.05 L2126.93 178.05 L2126.93 214.069 L2122.67 214.069 L2122.67 178.05 Z" fill="#000000" fill-rule="nonzero" fill-opacity="1" /><path clip-path="url(#clip240)" d="M2135.84 188.143 L2140.1 188.143 L2140.1 214.069 L2135.84 214.069 L2135.84 188.143 M2135.84 178.05 L2140.1 178.05 L2140.1 183.444 L2135.84 183.444 L2135.84 178.05 Z" fill="#000000" fill-rule="nonzero" fill-opacity="1" /><path clip-path="url(#clip240)" d="M2170.56 198.421 L2170.56 214.069 L2166.31 214.069 L2166.31 198.559 Q2166.31 194.879 2164.87 193.05 Q2163.44 191.222 2160.56 191.222 Q2157.12 191.222 2155.12 193.421 Q2153.13 195.62 2153.13 199.416 L2153.13 214.069 L2148.85 214.069 L2148.85 188.143 L2153.13 188.143 L2153.13 192.171 Q2154.66 189.833 2156.72 188.675 Q2158.81 187.518 2161.51 187.518 Q2165.98 187.518 2168.27 190.296 Q2170.56 193.05 2170.56 198.421 Z" fill="#000000" fill-rule="nonzero" fill-opacity="1" /><path clip-path="url(#clip240)" d="M2196.12 200.805 Q2196.12 196.175 2194.2 193.629 Q2192.3 191.083 2188.85 191.083 Q2185.43 191.083 2183.5 193.629 Q2181.61 196.175 2181.61 200.805 Q2181.61 205.411 2183.5 207.958 Q2185.43 210.504 2188.85 210.504 Q2192.3 210.504 2194.2 207.958 Q2196.12 205.411 2196.12 200.805 M2200.38 210.851 Q2200.38 217.471 2197.44 220.689 Q2194.5 223.93 2188.43 223.93 Q2186.19 223.93 2184.2 223.582 Q2182.21 223.258 2180.33 222.564 L2180.33 218.42 Q2182.21 219.439 2184.04 219.925 Q2185.87 220.411 2187.76 220.411 Q2191.95 220.411 2194.04 218.212 Q2196.12 216.036 2196.12 211.615 L2196.12 209.508 Q2194.8 211.8 2192.74 212.934 Q2190.68 214.069 2187.81 214.069 Q2183.04 214.069 2180.12 210.434 Q2177.21 206.8 2177.21 200.805 Q2177.21 194.786 2180.12 191.152 Q2183.04 187.518 2187.81 187.518 Q2190.68 187.518 2192.74 188.652 Q2194.8 189.786 2196.12 192.078 L2196.12 188.143 L2200.38 188.143 L2200.38 210.851 Z" fill="#000000" fill-rule="nonzero" fill-opacity="1" /></svg>
