<?xml version="1.0" encoding="utf-8"?>
<svg xmlns="http://www.w3.org/2000/svg" xmlns:xlink="http://www.w3.org/1999/xlink" width="600" height="400" viewBox="0 0 2400 1600">
<defs>
  <clipPath id="clip600">
    <rect x="0" y="0" width="2400" height="1600"/>
  </clipPath>
</defs>
<path clip-path="url(#clip600)" d="M0 1600 L2400 1600 L2400 0 L0 0  Z" fill="#ffffff" fill-rule="evenodd" fill-opacity="1"/>
<defs>
  <clipPath id="clip601">
    <rect x="480" y="0" width="1681" height="1600"/>
  </clipPath>
</defs>
<path clip-path="url(#clip600)" d="M250.028 1423.18 L2352.76 1423.18 L2352.76 47.2441 L250.028 47.2441  Z" fill="#ffffff" fill-rule="evenodd" fill-opacity="1"/>
<defs>
  <clipPath id="clip602">
    <rect x="250" y="47" width="2104" height="1377"/>
  </clipPath>
</defs>
<polyline clip-path="url(#clip602)" style="stroke:#000000; stroke-linecap:round; stroke-linejoin:round; stroke-width:2; stroke-opacity:0.1; fill:none" points="307.554,1423.18 307.554,47.2441 "/>
<polyline clip-path="url(#clip602)" style="stroke:#000000; stroke-linecap:round; stroke-linejoin:round; stroke-width:2; stroke-opacity:0.1; fill:none" points="803.976,1423.18 803.976,47.2441 "/>
<polyline clip-path="url(#clip602)" style="stroke:#000000; stroke-linecap:round; stroke-linejoin:round; stroke-width:2; stroke-opacity:0.1; fill:none" points="1300.4,1423.18 1300.4,47.2441 "/>
<polyline clip-path="url(#clip602)" style="stroke:#000000; stroke-linecap:round; stroke-linejoin:round; stroke-width:2; stroke-opacity:0.1; fill:none" points="1796.82,1423.18 1796.82,47.2441 "/>
<polyline clip-path="url(#clip602)" style="stroke:#000000; stroke-linecap:round; stroke-linejoin:round; stroke-width:2; stroke-opacity:0.1; fill:none" points="2293.24,1423.18 2293.24,47.2441 "/>
<polyline clip-path="url(#clip600)" style="stroke:#000000; stroke-linecap:round; stroke-linejoin:round; stroke-width:4; stroke-opacity:1; fill:none" points="250.028,1423.18 2352.76,1423.18 "/>
<polyline clip-path="url(#clip600)" style="stroke:#000000; stroke-linecap:round; stroke-linejoin:round; stroke-width:4; stroke-opacity:1; fill:none" points="307.554,1423.18 307.554,1404.28 "/>
<polyline clip-path="url(#clip600)" style="stroke:#000000; stroke-linecap:round; stroke-linejoin:round; stroke-width:4; stroke-opacity:1; fill:none" points="803.976,1423.18 803.976,1404.28 "/>
<polyline clip-path="url(#clip600)" style="stroke:#000000; stroke-linecap:round; stroke-linejoin:round; stroke-width:4; stroke-opacity:1; fill:none" points="1300.4,1423.18 1300.4,1404.28 "/>
<polyline clip-path="url(#clip600)" style="stroke:#000000; stroke-linecap:round; stroke-linejoin:round; stroke-width:4; stroke-opacity:1; fill:none" points="1796.82,1423.18 1796.82,1404.28 "/>
<polyline clip-path="url(#clip600)" style="stroke:#000000; stroke-linecap:round; stroke-linejoin:round; stroke-width:4; stroke-opacity:1; fill:none" points="2293.24,1423.18 2293.24,1404.28 "/>
<path clip-path="url(#clip600)" d="M307.554 1454.1 Q303.943 1454.1 302.114 1457.66 Q300.308 1461.2 300.308 1468.33 Q300.308 1475.44 302.114 1479.01 Q303.943 1482.55 307.554 1482.55 Q311.188 1482.55 312.993 1479.01 Q314.822 1475.44 314.822 1468.33 Q314.822 1461.2 312.993 1457.66 Q311.188 1454.1 307.554 1454.1 M307.554 1450.39 Q313.364 1450.39 316.419 1455 Q319.498 1459.58 319.498 1468.33 Q319.498 1477.06 316.419 1481.67 Q313.364 1486.25 307.554 1486.25 Q301.743 1486.25 298.665 1481.67 Q295.609 1477.06 295.609 1468.33 Q295.609 1459.58 298.665 1455 Q301.743 1450.39 307.554 1450.39 Z" fill="#000000" fill-rule="nonzero" fill-opacity="1" /><path clip-path="url(#clip600)" d="M767.669 1481.64 L783.988 1481.64 L783.988 1485.58 L762.044 1485.58 L762.044 1481.64 Q764.706 1478.89 769.289 1474.26 Q773.896 1469.61 775.076 1468.27 Q777.321 1465.74 778.201 1464.01 Q779.104 1462.25 779.104 1460.56 Q779.104 1457.8 777.159 1456.07 Q775.238 1454.33 772.136 1454.33 Q769.937 1454.33 767.484 1455.09 Q765.053 1455.86 762.275 1457.41 L762.275 1452.69 Q765.099 1451.55 767.553 1450.97 Q770.007 1450.39 772.044 1450.39 Q777.414 1450.39 780.608 1453.08 Q783.803 1455.77 783.803 1460.26 Q783.803 1462.39 782.993 1464.31 Q782.206 1466.2 780.099 1468.8 Q779.521 1469.47 776.419 1472.69 Q773.317 1475.88 767.669 1481.64 Z" fill="#000000" fill-rule="nonzero" fill-opacity="1" /><path clip-path="url(#clip600)" d="M793.849 1451.02 L812.206 1451.02 L812.206 1454.96 L798.132 1454.96 L798.132 1463.43 Q799.15 1463.08 800.169 1462.92 Q801.187 1462.73 802.206 1462.73 Q807.993 1462.73 811.372 1465.9 Q814.752 1469.08 814.752 1474.49 Q814.752 1480.07 811.28 1483.17 Q807.807 1486.25 801.488 1486.25 Q799.312 1486.25 797.044 1485.88 Q794.798 1485.51 792.391 1484.77 L792.391 1480.07 Q794.474 1481.2 796.696 1481.76 Q798.919 1482.32 801.395 1482.32 Q805.4 1482.32 807.738 1480.21 Q810.076 1478.1 810.076 1474.49 Q810.076 1470.88 807.738 1468.77 Q805.4 1466.67 801.395 1466.67 Q799.52 1466.67 797.645 1467.08 Q795.794 1467.5 793.849 1468.38 L793.849 1451.02 Z" fill="#000000" fill-rule="nonzero" fill-opacity="1" /><path clip-path="url(#clip600)" d="M833.965 1454.1 Q830.354 1454.1 828.525 1457.66 Q826.719 1461.2 826.719 1468.33 Q826.719 1475.44 828.525 1479.01 Q830.354 1482.55 833.965 1482.55 Q837.599 1482.55 839.404 1479.01 Q841.233 1475.44 841.233 1468.33 Q841.233 1461.2 839.404 1457.66 Q837.599 1454.1 833.965 1454.1 M833.965 1450.39 Q839.775 1450.39 842.83 1455 Q845.909 1459.58 845.909 1468.33 Q845.909 1477.06 842.83 1481.67 Q839.775 1486.25 833.965 1486.25 Q828.155 1486.25 825.076 1481.67 Q822.02 1477.06 822.02 1468.33 Q822.02 1459.58 825.076 1455 Q828.155 1450.39 833.965 1450.39 Z" fill="#000000" fill-rule="nonzero" fill-opacity="1" /><path clip-path="url(#clip600)" d="M1260.02 1451.02 L1278.37 1451.02 L1278.37 1454.96 L1264.3 1454.96 L1264.3 1463.43 Q1265.32 1463.08 1266.34 1462.92 Q1267.36 1462.73 1268.37 1462.73 Q1274.16 1462.73 1277.54 1465.9 Q1280.92 1469.08 1280.92 1474.49 Q1280.92 1480.07 1277.45 1483.17 Q1273.98 1486.25 1267.66 1486.25 Q1265.48 1486.25 1263.21 1485.88 Q1260.97 1485.51 1258.56 1484.77 L1258.56 1480.07 Q1260.64 1481.2 1262.86 1481.76 Q1265.09 1482.32 1267.56 1482.32 Q1271.57 1482.32 1273.91 1480.21 Q1276.24 1478.1 1276.24 1474.49 Q1276.24 1470.88 1273.91 1468.77 Q1271.57 1466.67 1267.56 1466.67 Q1265.69 1466.67 1263.81 1467.08 Q1261.96 1467.5 1260.02 1468.38 L1260.02 1451.02 Z" fill="#000000" fill-rule="nonzero" fill-opacity="1" /><path clip-path="url(#clip600)" d="M1300.13 1454.1 Q1296.52 1454.1 1294.69 1457.66 Q1292.89 1461.2 1292.89 1468.33 Q1292.89 1475.44 1294.69 1479.01 Q1296.52 1482.55 1300.13 1482.55 Q1303.77 1482.55 1305.57 1479.01 Q1307.4 1475.44 1307.4 1468.33 Q1307.4 1461.2 1305.57 1457.66 Q1303.77 1454.1 1300.13 1454.1 M1300.13 1450.39 Q1305.94 1450.39 1309 1455 Q1312.08 1459.58 1312.08 1468.33 Q1312.08 1477.06 1309 1481.67 Q1305.94 1486.25 1300.13 1486.25 Q1294.32 1486.25 1291.24 1481.67 Q1288.19 1477.06 1288.19 1468.33 Q1288.19 1459.58 1291.24 1455 Q1294.32 1450.39 1300.13 1450.39 Z" fill="#000000" fill-rule="nonzero" fill-opacity="1" /><path clip-path="url(#clip600)" d="M1330.29 1454.1 Q1326.68 1454.1 1324.86 1457.66 Q1323.05 1461.2 1323.05 1468.33 Q1323.05 1475.44 1324.86 1479.01 Q1326.68 1482.55 1330.29 1482.55 Q1333.93 1482.55 1335.73 1479.01 Q1337.56 1475.44 1337.56 1468.33 Q1337.56 1461.2 1335.73 1457.66 Q1333.93 1454.1 1330.29 1454.1 M1330.29 1450.39 Q1336.11 1450.39 1339.16 1455 Q1342.24 1459.58 1342.24 1468.33 Q1342.24 1477.06 1339.16 1481.67 Q1336.11 1486.25 1330.29 1486.25 Q1324.48 1486.25 1321.41 1481.67 Q1318.35 1477.06 1318.35 1468.33 Q1318.35 1459.58 1321.41 1455 Q1324.48 1450.39 1330.29 1450.39 Z" fill="#000000" fill-rule="nonzero" fill-opacity="1" /><path clip-path="url(#clip600)" d="M1755.1 1451.02 L1777.32 1451.02 L1777.32 1453.01 L1764.77 1485.58 L1759.89 1485.58 L1771.69 1454.96 L1755.1 1454.96 L1755.1 1451.02 Z" fill="#000000" fill-rule="nonzero" fill-opacity="1" /><path clip-path="url(#clip600)" d="M1786.49 1451.02 L1804.84 1451.02 L1804.84 1454.96 L1790.77 1454.96 L1790.77 1463.43 Q1791.79 1463.08 1792.81 1462.92 Q1793.82 1462.73 1794.84 1462.73 Q1800.63 1462.73 1804.01 1465.9 Q1807.39 1469.08 1807.39 1474.49 Q1807.39 1480.07 1803.92 1483.17 Q1800.44 1486.25 1794.13 1486.25 Q1791.95 1486.25 1789.68 1485.88 Q1787.44 1485.51 1785.03 1484.77 L1785.03 1480.07 Q1787.11 1481.2 1789.33 1481.76 Q1791.56 1482.32 1794.03 1482.32 Q1798.04 1482.32 1800.38 1480.21 Q1802.71 1478.1 1802.71 1474.49 Q1802.71 1470.88 1800.38 1468.77 Q1798.04 1466.67 1794.03 1466.67 Q1792.16 1466.67 1790.28 1467.08 Q1788.43 1467.5 1786.49 1468.38 L1786.49 1451.02 Z" fill="#000000" fill-rule="nonzero" fill-opacity="1" /><path clip-path="url(#clip600)" d="M1826.6 1454.1 Q1822.99 1454.1 1821.16 1457.66 Q1819.36 1461.2 1819.36 1468.33 Q1819.36 1475.44 1821.16 1479.01 Q1822.99 1482.55 1826.6 1482.55 Q1830.24 1482.55 1832.04 1479.01 Q1833.87 1475.44 1833.87 1468.33 Q1833.87 1461.2 1832.04 1457.66 Q1830.24 1454.1 1826.6 1454.1 M1826.6 1450.39 Q1832.41 1450.39 1835.47 1455 Q1838.55 1459.58 1838.55 1468.33 Q1838.55 1477.06 1835.47 1481.67 Q1832.41 1486.25 1826.6 1486.25 Q1820.79 1486.25 1817.71 1481.67 Q1814.66 1477.06 1814.66 1468.33 Q1814.66 1459.58 1817.71 1455 Q1820.79 1450.39 1826.6 1450.39 Z" fill="#000000" fill-rule="nonzero" fill-opacity="1" /><path clip-path="url(#clip600)" d="M2237.77 1481.64 L2245.41 1481.64 L2245.41 1455.28 L2237.1 1456.95 L2237.1 1452.69 L2245.36 1451.02 L2250.04 1451.02 L2250.04 1481.64 L2257.68 1481.64 L2257.68 1485.58 L2237.77 1485.58 L2237.77 1481.64 Z" fill="#000000" fill-rule="nonzero" fill-opacity="1" /><path clip-path="url(#clip600)" d="M2277.12 1454.1 Q2273.51 1454.1 2271.68 1457.66 Q2269.88 1461.2 2269.88 1468.33 Q2269.88 1475.44 2271.68 1479.01 Q2273.51 1482.55 2277.12 1482.55 Q2280.76 1482.55 2282.56 1479.01 Q2284.39 1475.44 2284.39 1468.33 Q2284.39 1461.2 2282.56 1457.66 Q2280.76 1454.1 2277.12 1454.1 M2277.12 1450.39 Q2282.93 1450.39 2285.99 1455 Q2289.07 1459.58 2289.07 1468.33 Q2289.07 1477.06 2285.99 1481.67 Q2282.93 1486.25 2277.12 1486.25 Q2271.31 1486.25 2268.23 1481.67 Q2265.18 1477.06 2265.18 1468.33 Q2265.18 1459.58 2268.23 1455 Q2271.31 1450.39 2277.12 1450.39 Z" fill="#000000" fill-rule="nonzero" fill-opacity="1" /><path clip-path="url(#clip600)" d="M2307.28 1454.1 Q2303.67 1454.1 2301.84 1457.66 Q2300.04 1461.2 2300.04 1468.33 Q2300.04 1475.44 2301.84 1479.01 Q2303.67 1482.55 2307.28 1482.55 Q2310.92 1482.55 2312.72 1479.01 Q2314.55 1475.44 2314.55 1468.33 Q2314.55 1461.2 2312.72 1457.66 Q2310.92 1454.1 2307.28 1454.1 M2307.28 1450.39 Q2313.09 1450.39 2316.15 1455 Q2319.23 1459.58 2319.23 1468.33 Q2319.23 1477.06 2316.15 1481.67 Q2313.09 1486.25 2307.28 1486.25 Q2301.47 1486.25 2298.4 1481.67 Q2295.34 1477.06 2295.34 1468.33 Q2295.34 1459.58 2298.4 1455 Q2301.47 1450.39 2307.28 1450.39 Z" fill="#000000" fill-rule="nonzero" fill-opacity="1" /><path clip-path="url(#clip600)" d="M2337.45 1454.1 Q2333.83 1454.1 2332.01 1457.66 Q2330.2 1461.2 2330.2 1468.33 Q2330.2 1475.44 2332.01 1479.01 Q2333.83 1482.55 2337.45 1482.55 Q2341.08 1482.55 2342.89 1479.01 Q2344.71 1475.44 2344.71 1468.33 Q2344.71 1461.2 2342.89 1457.66 Q2341.08 1454.1 2337.45 1454.1 M2337.45 1450.39 Q2343.26 1450.39 2346.31 1455 Q2349.39 1459.58 2349.39 1468.33 Q2349.39 1477.06 2346.31 1481.67 Q2343.26 1486.25 2337.45 1486.25 Q2331.64 1486.25 2328.56 1481.67 Q2325.5 1477.06 2325.5 1468.33 Q2325.5 1459.58 2328.56 1455 Q2331.64 1450.39 2337.45 1450.39 Z" fill="#000000" fill-rule="nonzero" fill-opacity="1" /><path clip-path="url(#clip600)" d="M1223.27 1520.52 L1263.47 1520.52 L1263.47 1525.93 L1246.6 1525.93 L1246.6 1568.04 L1240.14 1568.04 L1240.14 1525.93 L1223.27 1525.93 L1223.27 1520.52 Z" fill="#000000" fill-rule="nonzero" fill-opacity="1" /><path clip-path="url(#clip600)" d="M1267.42 1532.4 L1273.27 1532.4 L1273.27 1568.04 L1267.42 1568.04 L1267.42 1532.4 M1267.42 1518.52 L1273.27 1518.52 L1273.27 1525.93 L1267.42 1525.93 L1267.42 1518.52 Z" fill="#000000" fill-rule="nonzero" fill-opacity="1" /><path clip-path="url(#clip600)" d="M1313.28 1539.24 Q1315.48 1535.29 1318.53 1533.41 Q1321.59 1531.54 1325.72 1531.54 Q1331.29 1531.54 1334.32 1535.45 Q1337.34 1539.33 1337.34 1546.53 L1337.34 1568.04 L1331.45 1568.04 L1331.45 1546.72 Q1331.45 1541.59 1329.64 1539.11 Q1327.83 1536.63 1324.1 1536.63 Q1319.55 1536.63 1316.91 1539.65 Q1314.27 1542.68 1314.27 1547.9 L1314.27 1568.04 L1308.38 1568.04 L1308.38 1546.72 Q1308.38 1541.56 1306.56 1539.11 Q1304.75 1536.63 1300.96 1536.63 Q1296.47 1536.63 1293.83 1539.68 Q1291.19 1542.71 1291.19 1547.9 L1291.19 1568.04 L1285.3 1568.04 L1285.3 1532.4 L1291.19 1532.4 L1291.19 1537.93 Q1293.2 1534.66 1296 1533.1 Q1298.8 1531.54 1302.65 1531.54 Q1306.53 1531.54 1309.24 1533.51 Q1311.98 1535.48 1313.28 1539.24 Z" fill="#000000" fill-rule="nonzero" fill-opacity="1" /><path clip-path="url(#clip600)" d="M1379.52 1548.76 L1379.52 1551.62 L1352.59 1551.62 Q1352.97 1557.67 1356.22 1560.85 Q1359.5 1564 1365.32 1564 Q1368.69 1564 1371.84 1563.17 Q1375.03 1562.35 1378.15 1560.69 L1378.15 1566.23 Q1375 1567.57 1371.69 1568.27 Q1368.38 1568.97 1364.97 1568.97 Q1356.44 1568.97 1351.44 1564 Q1346.48 1559.04 1346.48 1550.57 Q1346.48 1541.82 1351.19 1536.69 Q1355.93 1531.54 1363.95 1531.54 Q1371.14 1531.54 1375.31 1536.18 Q1379.52 1540.8 1379.52 1548.76 M1373.66 1547.04 Q1373.6 1542.23 1370.95 1539.37 Q1368.34 1536.5 1364.01 1536.5 Q1359.11 1536.5 1356.15 1539.27 Q1353.22 1542.04 1352.78 1547.07 L1373.66 1547.04 Z" fill="#000000" fill-rule="nonzero" fill-opacity="1" /><polyline clip-path="url(#clip602)" style="stroke:#000000; stroke-linecap:round; stroke-linejoin:round; stroke-width:2; stroke-opacity:0.1; fill:none" points="250.028,1386.51 2352.76,1386.51 "/>
<polyline clip-path="url(#clip602)" style="stroke:#000000; stroke-linecap:round; stroke-linejoin:round; stroke-width:2; stroke-opacity:0.1; fill:none" points="250.028,1045.33 2352.76,1045.33 "/>
<polyline clip-path="url(#clip602)" style="stroke:#000000; stroke-linecap:round; stroke-linejoin:round; stroke-width:2; stroke-opacity:0.1; fill:none" points="250.028,704.16 2352.76,704.16 "/>
<polyline clip-path="url(#clip602)" style="stroke:#000000; stroke-linecap:round; stroke-linejoin:round; stroke-width:2; stroke-opacity:0.1; fill:none" points="250.028,362.987 2352.76,362.987 "/>
<polyline clip-path="url(#clip600)" style="stroke:#000000; stroke-linecap:round; stroke-linejoin:round; stroke-width:4; stroke-opacity:1; fill:none" points="250.028,1423.18 250.028,47.2441 "/>
<polyline clip-path="url(#clip600)" style="stroke:#000000; stroke-linecap:round; stroke-linejoin:round; stroke-width:4; stroke-opacity:1; fill:none" points="250.028,1386.51 268.926,1386.51 "/>
<polyline clip-path="url(#clip600)" style="stroke:#000000; stroke-linecap:round; stroke-linejoin:round; stroke-width:4; stroke-opacity:1; fill:none" points="250.028,1045.33 268.926,1045.33 "/>
<polyline clip-path="url(#clip600)" style="stroke:#000000; stroke-linecap:round; stroke-linejoin:round; stroke-width:4; stroke-opacity:1; fill:none" points="250.028,704.16 268.926,704.16 "/>
<polyline clip-path="url(#clip600)" style="stroke:#000000; stroke-linecap:round; stroke-linejoin:round; stroke-width:4; stroke-opacity:1; fill:none" points="250.028,362.987 268.926,362.987 "/>
<path clip-path="url(#clip600)" d="M126.691 1372.31 Q123.08 1372.31 121.251 1375.87 Q119.445 1379.41 119.445 1386.54 Q119.445 1393.65 121.251 1397.21 Q123.08 1400.75 126.691 1400.75 Q130.325 1400.75 132.13 1397.21 Q133.959 1393.65 133.959 1386.54 Q133.959 1379.41 132.13 1375.87 Q130.325 1372.31 126.691 1372.31 M126.691 1368.6 Q132.501 1368.6 135.556 1373.21 Q138.635 1377.79 138.635 1386.54 Q138.635 1395.27 135.556 1399.87 Q132.501 1404.46 126.691 1404.46 Q120.88 1404.46 117.802 1399.87 Q114.746 1395.27 114.746 1386.54 Q114.746 1377.79 117.802 1373.21 Q120.88 1368.6 126.691 1368.6 Z" fill="#000000" fill-rule="nonzero" fill-opacity="1" /><path clip-path="url(#clip600)" d="M146.853 1397.91 L151.737 1397.91 L151.737 1403.79 L146.853 1403.79 L146.853 1397.91 Z" fill="#000000" fill-rule="nonzero" fill-opacity="1" /><path clip-path="url(#clip600)" d="M171.922 1372.31 Q168.311 1372.31 166.482 1375.87 Q164.677 1379.41 164.677 1386.54 Q164.677 1393.65 166.482 1397.21 Q168.311 1400.75 171.922 1400.75 Q175.556 1400.75 177.362 1397.21 Q179.19 1393.65 179.19 1386.54 Q179.19 1379.41 177.362 1375.87 Q175.556 1372.31 171.922 1372.31 M171.922 1368.6 Q177.732 1368.6 180.788 1373.21 Q183.866 1377.79 183.866 1386.54 Q183.866 1395.27 180.788 1399.87 Q177.732 1404.46 171.922 1404.46 Q166.112 1404.46 163.033 1399.87 Q159.978 1395.27 159.978 1386.54 Q159.978 1377.79 163.033 1373.21 Q166.112 1368.6 171.922 1368.6 Z" fill="#000000" fill-rule="nonzero" fill-opacity="1" /><path clip-path="url(#clip600)" d="M202.084 1372.31 Q198.473 1372.31 196.644 1375.87 Q194.838 1379.41 194.838 1386.54 Q194.838 1393.65 196.644 1397.21 Q198.473 1400.75 202.084 1400.75 Q205.718 1400.75 207.524 1397.21 Q209.352 1393.65 209.352 1386.54 Q209.352 1379.41 207.524 1375.87 Q205.718 1372.31 202.084 1372.31 M202.084 1368.6 Q207.894 1368.6 210.949 1373.21 Q214.028 1377.79 214.028 1386.54 Q214.028 1395.27 210.949 1399.87 Q207.894 1404.46 202.084 1404.46 Q196.274 1404.46 193.195 1399.87 Q190.139 1395.27 190.139 1386.54 Q190.139 1377.79 193.195 1373.21 Q196.274 1368.6 202.084 1368.6 Z" fill="#000000" fill-rule="nonzero" fill-opacity="1" /><path clip-path="url(#clip600)" d="M128.288 1031.13 Q124.677 1031.13 122.848 1034.7 Q121.043 1038.24 121.043 1045.37 Q121.043 1052.47 122.848 1056.04 Q124.677 1059.58 128.288 1059.58 Q131.922 1059.58 133.728 1056.04 Q135.556 1052.47 135.556 1045.37 Q135.556 1038.24 133.728 1034.7 Q131.922 1031.13 128.288 1031.13 M128.288 1027.43 Q134.098 1027.43 137.154 1032.03 Q140.232 1036.62 140.232 1045.37 Q140.232 1054.1 137.154 1058.7 Q134.098 1063.28 128.288 1063.28 Q122.478 1063.28 119.399 1058.7 Q116.343 1054.1 116.343 1045.37 Q116.343 1036.62 119.399 1032.03 Q122.478 1027.43 128.288 1027.43 Z" fill="#000000" fill-rule="nonzero" fill-opacity="1" /><path clip-path="url(#clip600)" d="M148.45 1056.73 L153.334 1056.73 L153.334 1062.61 L148.45 1062.61 L148.45 1056.73 Z" fill="#000000" fill-rule="nonzero" fill-opacity="1" /><path clip-path="url(#clip600)" d="M173.519 1031.13 Q169.908 1031.13 168.079 1034.7 Q166.274 1038.24 166.274 1045.37 Q166.274 1052.47 168.079 1056.04 Q169.908 1059.58 173.519 1059.58 Q177.153 1059.58 178.959 1056.04 Q180.788 1052.47 180.788 1045.37 Q180.788 1038.24 178.959 1034.7 Q177.153 1031.13 173.519 1031.13 M173.519 1027.43 Q179.329 1027.43 182.385 1032.03 Q185.463 1036.62 185.463 1045.37 Q185.463 1054.1 182.385 1058.7 Q179.329 1063.28 173.519 1063.28 Q167.709 1063.28 164.63 1058.7 Q161.575 1054.1 161.575 1045.37 Q161.575 1036.62 164.63 1032.03 Q167.709 1027.43 173.519 1027.43 Z" fill="#000000" fill-rule="nonzero" fill-opacity="1" /><path clip-path="url(#clip600)" d="M197.709 1058.68 L214.028 1058.68 L214.028 1062.61 L192.084 1062.61 L192.084 1058.68 Q194.746 1055.92 199.329 1051.29 Q203.936 1046.64 205.116 1045.3 Q207.362 1042.78 208.241 1041.04 Q209.144 1039.28 209.144 1037.59 Q209.144 1034.84 207.199 1033.1 Q205.278 1031.36 202.176 1031.36 Q199.977 1031.36 197.524 1032.13 Q195.093 1032.89 192.315 1034.44 L192.315 1029.72 Q195.139 1028.59 197.593 1028.01 Q200.047 1027.43 202.084 1027.43 Q207.454 1027.43 210.649 1030.11 Q213.843 1032.8 213.843 1037.29 Q213.843 1039.42 213.033 1041.34 Q212.246 1043.24 210.139 1045.83 Q209.561 1046.5 206.459 1049.72 Q203.357 1052.91 197.709 1058.68 Z" fill="#000000" fill-rule="nonzero" fill-opacity="1" /><path clip-path="url(#clip600)" d="M126.205 689.959 Q122.593 689.959 120.765 693.524 Q118.959 697.066 118.959 704.195 Q118.959 711.302 120.765 714.866 Q122.593 718.408 126.205 718.408 Q129.839 718.408 131.644 714.866 Q133.473 711.302 133.473 704.195 Q133.473 697.066 131.644 693.524 Q129.839 689.959 126.205 689.959 M126.205 686.255 Q132.015 686.255 135.07 690.862 Q138.149 695.445 138.149 704.195 Q138.149 712.922 135.07 717.528 Q132.015 722.112 126.205 722.112 Q120.394 722.112 117.316 717.528 Q114.26 712.922 114.26 704.195 Q114.26 695.445 117.316 690.862 Q120.394 686.255 126.205 686.255 Z" fill="#000000" fill-rule="nonzero" fill-opacity="1" /><path clip-path="url(#clip600)" d="M146.366 715.561 L151.251 715.561 L151.251 721.44 L146.366 721.44 L146.366 715.561 Z" fill="#000000" fill-rule="nonzero" fill-opacity="1" /><path clip-path="url(#clip600)" d="M171.436 689.959 Q167.825 689.959 165.996 693.524 Q164.19 697.066 164.19 704.195 Q164.19 711.302 165.996 714.866 Q167.825 718.408 171.436 718.408 Q175.07 718.408 176.876 714.866 Q178.704 711.302 178.704 704.195 Q178.704 697.066 176.876 693.524 Q175.07 689.959 171.436 689.959 M171.436 686.255 Q177.246 686.255 180.301 690.862 Q183.38 695.445 183.38 704.195 Q183.38 712.922 180.301 717.528 Q177.246 722.112 171.436 722.112 Q165.626 722.112 162.547 717.528 Q159.491 712.922 159.491 704.195 Q159.491 695.445 162.547 690.862 Q165.626 686.255 171.436 686.255 Z" fill="#000000" fill-rule="nonzero" fill-opacity="1" /><path clip-path="url(#clip600)" d="M204.445 690.954 L192.639 709.403 L204.445 709.403 L204.445 690.954 M203.218 686.88 L209.098 686.88 L209.098 709.403 L214.028 709.403 L214.028 713.292 L209.098 713.292 L209.098 721.44 L204.445 721.44 L204.445 713.292 L188.843 713.292 L188.843 708.778 L203.218 686.88 Z" fill="#000000" fill-rule="nonzero" fill-opacity="1" /><path clip-path="url(#clip600)" d="M126.529 348.786 Q122.918 348.786 121.089 352.351 Q119.283 355.892 119.283 363.022 Q119.283 370.128 121.089 373.693 Q122.918 377.235 126.529 377.235 Q130.163 377.235 131.968 373.693 Q133.797 370.128 133.797 363.022 Q133.797 355.892 131.968 352.351 Q130.163 348.786 126.529 348.786 M126.529 345.082 Q132.339 345.082 135.394 349.689 Q138.473 354.272 138.473 363.022 Q138.473 371.749 135.394 376.355 Q132.339 380.939 126.529 380.939 Q120.718 380.939 117.64 376.355 Q114.584 371.749 114.584 363.022 Q114.584 354.272 117.64 349.689 Q120.718 345.082 126.529 345.082 Z" fill="#000000" fill-rule="nonzero" fill-opacity="1" /><path clip-path="url(#clip600)" d="M146.691 374.388 L151.575 374.388 L151.575 380.267 L146.691 380.267 L146.691 374.388 Z" fill="#000000" fill-rule="nonzero" fill-opacity="1" /><path clip-path="url(#clip600)" d="M171.76 348.786 Q168.149 348.786 166.32 352.351 Q164.515 355.892 164.515 363.022 Q164.515 370.128 166.32 373.693 Q168.149 377.235 171.76 377.235 Q175.394 377.235 177.2 373.693 Q179.028 370.128 179.028 363.022 Q179.028 355.892 177.2 352.351 Q175.394 348.786 171.76 348.786 M171.76 345.082 Q177.57 345.082 180.626 349.689 Q183.704 354.272 183.704 363.022 Q183.704 371.749 180.626 376.355 Q177.57 380.939 171.76 380.939 Q165.95 380.939 162.871 376.355 Q159.815 371.749 159.815 363.022 Q159.815 354.272 162.871 349.689 Q165.95 345.082 171.76 345.082 Z" fill="#000000" fill-rule="nonzero" fill-opacity="1" /><path clip-path="url(#clip600)" d="M202.5 361.124 Q199.352 361.124 197.5 363.277 Q195.672 365.429 195.672 369.179 Q195.672 372.906 197.5 375.082 Q199.352 377.235 202.5 377.235 Q205.649 377.235 207.477 375.082 Q209.329 372.906 209.329 369.179 Q209.329 365.429 207.477 363.277 Q205.649 361.124 202.5 361.124 M211.783 346.471 L211.783 350.73 Q210.024 349.897 208.218 349.457 Q206.436 349.017 204.676 349.017 Q200.047 349.017 197.593 352.142 Q195.163 355.267 194.815 361.587 Q196.181 359.573 198.241 358.508 Q200.301 357.42 202.778 357.42 Q207.987 357.42 210.996 360.591 Q214.028 363.74 214.028 369.179 Q214.028 374.503 210.88 377.721 Q207.732 380.939 202.5 380.939 Q196.505 380.939 193.334 376.355 Q190.163 371.749 190.163 363.022 Q190.163 354.828 194.051 349.967 Q197.94 345.082 204.491 345.082 Q206.25 345.082 208.033 345.43 Q209.838 345.777 211.783 346.471 Z" fill="#000000" fill-rule="nonzero" fill-opacity="1" /><path clip-path="url(#clip600)" d="M16.4842 1117.5 L16.4842 1087.46 L21.895 1087.46 L21.895 1111.08 L35.9632 1111.08 L35.9632 1088.45 L41.3741 1088.45 L41.3741 1111.08 L58.5933 1111.08 L58.5933 1086.89 L64.0042 1086.89 L64.0042 1117.5 L16.4842 1117.5 Z" fill="#000000" fill-rule="nonzero" fill-opacity="1" /><path clip-path="url(#clip600)" d="M14.5426 1062.5 Q21.8632 1066.77 29.0246 1068.84 Q36.186 1070.91 43.5384 1070.91 Q50.8908 1070.91 58.1159 1068.84 Q65.3091 1066.74 72.5979 1062.5 L72.5979 1067.6 Q65.1182 1072.37 57.8931 1074.76 Q50.668 1077.11 43.5384 1077.11 Q36.4406 1077.11 29.2474 1074.76 Q22.0542 1072.4 14.5426 1067.6 L14.5426 1062.5 Z" fill="#000000" fill-rule="nonzero" fill-opacity="1" /><path clip-path="url(#clip600)" d="M16.4842 1050.89 L16.4842 1020.84 L21.895 1020.84 L21.895 1044.46 L35.9632 1044.46 L35.9632 1021.83 L41.3741 1021.83 L41.3741 1044.46 L58.5933 1044.46 L58.5933 1020.27 L64.0042 1020.27 L64.0042 1050.89 L16.4842 1050.89 Z" fill="#000000" fill-rule="nonzero" fill-opacity="1" /><path clip-path="url(#clip600)" d="M29.4065 987.23 L34.9447 987.23 Q33.6716 989.713 33.035 992.387 Q32.3984 995.06 32.3984 997.925 Q32.3984 1002.29 33.7352 1004.48 Q35.072 1006.65 37.7456 1006.65 Q39.7826 1006.65 40.9603 1005.09 Q42.1061 1003.53 43.1565 998.816 L43.6021 996.811 Q44.9389 990.572 47.3897 987.962 Q49.8086 985.321 54.1691 985.321 Q59.1344 985.321 62.0308 989.267 Q64.9272 993.182 64.9272 1000.06 Q64.9272 1002.92 64.3543 1006.04 Q63.8132 1009.13 62.6992 1012.57 L56.6518 1012.57 Q58.3387 1009.32 59.198 1006.17 Q60.0256 1003.02 60.0256 999.93 Q60.0256 995.792 58.6251 993.564 Q57.1929 991.336 54.6147 991.336 Q52.2276 991.336 50.9545 992.959 Q49.6813 994.551 48.5037 999.994 L48.0262 1002.03 Q46.8804 1007.47 44.5251 1009.89 Q42.138 1012.31 38.0002 1012.31 Q32.9713 1012.31 30.2341 1008.75 Q27.4968 1005.18 27.4968 998.625 Q27.4968 995.378 27.9743 992.514 Q28.4517 989.649 29.4065 987.23 Z" fill="#000000" fill-rule="nonzero" fill-opacity="1" /><path clip-path="url(#clip600)" d="M18.2347 970.202 L28.3562 970.202 L28.3562 958.139 L32.9077 958.139 L32.9077 970.202 L52.2594 970.202 Q56.6199 970.202 57.8613 969.024 Q59.1026 967.815 59.1026 964.155 L59.1026 958.139 L64.0042 958.139 L64.0042 964.155 Q64.0042 970.934 61.4897 973.512 Q58.9434 976.09 52.2594 976.09 L32.9077 976.09 L32.9077 980.387 L28.3562 980.387 L28.3562 976.09 L18.2347 976.09 L18.2347 970.202 Z" fill="#000000" fill-rule="nonzero" fill-opacity="1" /><path clip-path="url(#clip600)" d="M28.3562 950.437 L28.3562 944.58 L64.0042 944.58 L64.0042 950.437 L28.3562 950.437 M14.479 950.437 L14.479 944.58 L21.895 944.58 L21.895 950.437 L14.479 950.437 Z" fill="#000000" fill-rule="nonzero" fill-opacity="1" /><path clip-path="url(#clip600)" d="M35.1993 904.572 Q31.2526 902.375 29.3747 899.32 Q27.4968 896.264 27.4968 892.127 Q27.4968 886.557 31.4117 883.533 Q35.2948 880.509 42.4881 880.509 L64.0042 880.509 L64.0042 886.398 L42.679 886.398 Q37.5546 886.398 35.072 888.212 Q32.5894 890.026 32.5894 893.75 Q32.5894 898.301 35.6131 900.943 Q38.6368 903.585 43.8567 903.585 L64.0042 903.585 L64.0042 909.473 L42.679 909.473 Q37.5228 909.473 35.072 911.287 Q32.5894 913.102 32.5894 916.889 Q32.5894 921.377 35.6449 924.019 Q38.6686 926.661 43.8567 926.661 L64.0042 926.661 L64.0042 932.549 L28.3562 932.549 L28.3562 926.661 L33.8944 926.661 Q30.616 924.655 29.0564 921.854 Q27.4968 919.054 27.4968 915.202 Q27.4968 911.319 29.4702 908.614 Q31.4436 905.877 35.1993 904.572 Z" fill="#000000" fill-rule="nonzero" fill-opacity="1" /><path clip-path="url(#clip600)" d="M46.0847 852.627 Q46.0847 859.725 47.7079 862.462 Q49.3312 865.2 53.2461 865.2 Q56.3653 865.2 58.2114 863.163 Q60.0256 861.094 60.0256 857.561 Q60.0256 852.691 56.5881 849.763 Q53.1188 846.803 47.3897 846.803 L46.0847 846.803 L46.0847 852.627 M43.6657 840.946 L64.0042 840.946 L64.0042 846.803 L58.5933 846.803 Q61.8398 848.808 63.3994 851.8 Q64.9272 854.792 64.9272 859.12 Q64.9272 864.595 61.8716 867.841 Q58.7843 871.056 53.6281 871.056 Q47.6125 871.056 44.5569 867.046 Q41.5014 863.004 41.5014 855.015 L41.5014 846.803 L40.9285 846.803 Q36.8862 846.803 34.6901 849.476 Q32.4621 852.118 32.4621 856.924 Q32.4621 859.98 33.1941 862.876 Q33.9262 865.773 35.3903 868.446 L29.9795 868.446 Q28.7381 865.232 28.1334 862.208 Q27.4968 859.184 27.4968 856.32 Q27.4968 848.585 31.5072 844.766 Q35.5176 840.946 43.6657 840.946 Z" fill="#000000" fill-rule="nonzero" fill-opacity="1" /><path clip-path="url(#clip600)" d="M18.2347 823.091 L28.3562 823.091 L28.3562 811.028 L32.9077 811.028 L32.9077 823.091 L52.2594 823.091 Q56.6199 823.091 57.8613 821.913 Q59.1026 820.703 59.1026 817.043 L59.1026 811.028 L64.0042 811.028 L64.0042 817.043 Q64.0042 823.823 61.4897 826.401 Q58.9434 828.979 52.2594 828.979 L32.9077 828.979 L32.9077 833.276 L28.3562 833.276 L28.3562 828.979 L18.2347 828.979 L18.2347 823.091 Z" fill="#000000" fill-rule="nonzero" fill-opacity="1" /><path clip-path="url(#clip600)" d="M44.7161 772.833 L47.5806 772.833 L47.5806 799.76 Q53.6281 799.378 56.8109 796.132 Q59.9619 792.853 59.9619 787.029 Q59.9619 783.655 59.1344 780.504 Q58.3069 777.321 56.6518 774.202 L62.1899 774.202 Q63.5267 777.353 64.227 780.663 Q64.9272 783.973 64.9272 787.379 Q64.9272 795.909 59.9619 800.906 Q54.9967 805.871 46.5303 805.871 Q37.7774 805.871 32.6531 801.161 Q27.4968 796.418 27.4968 788.397 Q27.4968 781.204 32.1438 777.035 Q36.7589 772.833 44.7161 772.833 M42.9973 778.69 Q38.1912 778.753 35.3266 781.395 Q32.4621 784.005 32.4621 788.334 Q32.4621 793.235 35.2312 796.195 Q38.0002 799.124 43.0292 799.569 L42.9973 778.69 Z" fill="#000000" fill-rule="nonzero" fill-opacity="1" /><path clip-path="url(#clip600)" d="M33.7671 739.763 L14.479 739.763 L14.479 733.907 L64.0042 733.907 L64.0042 739.763 L58.657 739.763 Q61.8398 741.61 63.3994 744.442 Q64.9272 747.243 64.9272 751.19 Q64.9272 757.651 59.771 761.725 Q54.6147 765.767 46.212 765.767 Q37.8093 765.767 32.6531 761.725 Q27.4968 757.651 27.4968 751.19 Q27.4968 747.243 29.0564 744.442 Q30.5842 741.61 33.7671 739.763 M46.212 759.72 Q52.6732 759.72 56.3653 757.078 Q60.0256 754.405 60.0256 749.758 Q60.0256 745.111 56.3653 742.437 Q52.6732 739.763 46.212 739.763 Q39.7508 739.763 36.0905 742.437 Q32.3984 745.111 32.3984 749.758 Q32.3984 754.405 36.0905 757.078 Q39.7508 759.72 46.212 759.72 Z" fill="#000000" fill-rule="nonzero" fill-opacity="1" /><path clip-path="url(#clip600)" d="M46.212 697.622 Q52.6732 697.622 56.3653 694.981 Q60.0256 692.307 60.0256 687.66 Q60.0256 683.013 56.3653 680.34 Q52.6732 677.666 46.212 677.666 Q39.7508 677.666 36.0905 680.34 Q32.3984 683.013 32.3984 687.66 Q32.3984 692.307 36.0905 694.981 Q39.7508 697.622 46.212 697.622 M58.657 677.666 Q61.8398 679.512 63.3994 682.345 Q64.9272 685.146 64.9272 689.092 Q64.9272 695.554 59.771 699.628 Q54.6147 703.67 46.212 703.67 Q37.8093 703.67 32.6531 699.628 Q27.4968 695.554 27.4968 689.092 Q27.4968 685.146 29.0564 682.345 Q30.5842 679.512 33.7671 677.666 L28.3562 677.666 L28.3562 671.81 L77.5631 671.81 L77.5631 677.666 L58.657 677.666 Z" fill="#000000" fill-rule="nonzero" fill-opacity="1" /><path clip-path="url(#clip600)" d="M43.5384 641.986 L43.5384 624.831 L48.7583 624.831 L48.7583 641.986 L43.5384 641.986 Z" fill="#000000" fill-rule="nonzero" fill-opacity="1" /><path clip-path="url(#clip600)" d="M16.4842 601.118 L16.4842 560.919 L21.895 560.919 L21.895 577.788 L64.0042 577.788 L64.0042 584.249 L21.895 584.249 L21.895 601.118 L16.4842 601.118 Z" fill="#000000" fill-rule="nonzero" fill-opacity="1" /><path clip-path="url(#clip600)" d="M33.8307 543.891 Q33.2578 544.877 33.0032 546.055 Q32.7167 547.201 32.7167 548.601 Q32.7167 553.567 35.9632 556.24 Q39.1779 558.882 45.2253 558.882 L64.0042 558.882 L64.0042 564.77 L28.3562 564.77 L28.3562 558.882 L33.8944 558.882 Q30.6479 557.036 29.0883 554.076 Q27.4968 551.116 27.4968 546.883 Q27.4968 546.278 27.5923 545.546 Q27.656 544.814 27.8151 543.922 L33.8307 543.891 Z" fill="#000000" fill-rule="nonzero" fill-opacity="1" /><path clip-path="url(#clip600)" d="M49.9359 538.352 L28.3562 538.352 L28.3562 532.496 L49.7131 532.496 Q54.7739 532.496 57.3202 530.523 Q59.8346 528.549 59.8346 524.603 Q59.8346 519.86 56.8109 517.123 Q53.7872 514.354 48.5673 514.354 L28.3562 514.354 L28.3562 508.497 L64.0042 508.497 L64.0042 514.354 L58.5296 514.354 Q61.7762 516.486 63.3676 519.319 Q64.9272 522.12 64.9272 525.844 Q64.9272 531.987 61.1078 535.17 Q57.2883 538.352 49.9359 538.352 M27.4968 523.616 L27.4968 523.616 Z" fill="#000000" fill-rule="nonzero" fill-opacity="1" /><path clip-path="url(#clip600)" d="M44.7161 465.943 L47.5806 465.943 L47.5806 492.87 Q53.6281 492.488 56.8109 489.241 Q59.9619 485.963 59.9619 480.138 Q59.9619 476.764 59.1344 473.613 Q58.3069 470.43 56.6518 467.311 L62.1899 467.311 Q63.5267 470.462 64.227 473.772 Q64.9272 477.083 64.9272 480.488 Q64.9272 489.018 59.9619 494.015 Q54.9967 498.981 46.5303 498.981 Q37.7774 498.981 32.6531 494.27 Q27.4968 489.528 27.4968 481.507 Q27.4968 474.313 32.1438 470.144 Q36.7589 465.943 44.7161 465.943 M42.9973 471.799 Q38.1912 471.863 35.3266 474.504 Q32.4621 477.114 32.4621 481.443 Q32.4621 486.345 35.2312 489.305 Q38.0002 492.233 43.0292 492.679 L42.9973 471.799 Z" fill="#000000" fill-rule="nonzero" fill-opacity="1" /><path clip-path="url(#clip600)" d="M46.212 432.109 Q52.6732 432.109 56.3653 429.467 Q60.0256 426.793 60.0256 422.147 Q60.0256 417.5 56.3653 414.826 Q52.6732 412.152 46.212 412.152 Q39.7508 412.152 36.0905 414.826 Q32.3984 417.5 32.3984 422.147 Q32.3984 426.793 36.0905 429.467 Q39.7508 432.109 46.212 432.109 M58.657 412.152 Q61.8398 413.998 63.3994 416.831 Q64.9272 419.632 64.9272 423.579 Q64.9272 430.04 59.771 434.114 Q54.6147 438.156 46.212 438.156 Q37.8093 438.156 32.6531 434.114 Q27.4968 430.04 27.4968 423.579 Q27.4968 419.632 29.0564 416.831 Q30.5842 413.998 33.7671 412.152 L28.3562 412.152 L28.3562 406.296 L77.5631 406.296 L77.5631 412.152 L58.657 412.152 Z" fill="#000000" fill-rule="nonzero" fill-opacity="1" /><path clip-path="url(#clip600)" d="M14.5426 395.156 L14.5426 390.063 Q22.0542 385.289 29.2474 382.934 Q36.4406 380.547 43.5384 380.547 Q50.668 380.547 57.8931 382.934 Q65.1182 385.289 72.5979 390.063 L72.5979 395.156 Q65.3091 390.923 58.1159 388.854 Q50.8908 386.753 43.5384 386.753 Q36.186 386.753 29.0246 388.854 Q21.8632 390.923 14.5426 395.156 Z" fill="#000000" fill-rule="nonzero" fill-opacity="1" /><path clip-path="url(#clip600)" d="M39.1142 366.415 L39.1142 352.919 L42.7427 352.919 L42.7427 371.953 L39.2416 371.953 Q38.2549 370.871 36.4725 368.866 Q26.7648 357.917 23.7729 357.917 Q21.6722 357.917 20.3991 359.572 Q19.0941 361.227 19.0941 363.932 Q19.0941 365.587 19.667 367.529 Q20.2081 369.47 21.3221 371.762 L17.4072 371.762 Q16.516 369.311 16.0704 367.21 Q15.6248 365.078 15.6248 363.264 Q15.6248 358.649 17.7255 355.88 Q19.8262 353.11 23.2636 353.11 Q27.6878 353.11 36.7271 363.646 Q38.2549 365.428 39.1142 366.415 Z" fill="#000000" fill-rule="nonzero" fill-opacity="1" /><polyline clip-path="url(#clip602)" style="stroke:#009af9; stroke-linecap:round; stroke-linejoin:round; stroke-width:4; stroke-opacity:1; fill:none" points="309.539,1315 311.525,181.824 313.511,172.646 315.496,110.369 317.482,86.1857 319.468,218.633 321.453,377.361 323.439,420.015 325.425,550.17 327.411,696.485 329.396,658.532 331.382,722.793 333.368,866.691 335.353,803.899 337.339,789.817 339.325,850.266 341.31,804.348 343.296,825.241 345.282,817.234 347.267,834.37 349.253,810.107 351.239,819.991 353.225,846.601 355.21,835.999 357.196,814.962 359.182,836.057 361.167,824.014 363.153,805.254 365.139,808.176 367.124,834.582 369.11,812.254 371.096,801.248 373.081,765.066 375.067,741.682 377.053,754.714 379.038,747.372 381.024,744.876 383.01,735.243 384.996,725.074 386.981,709.067 388.967,704.039 390.953,704.375 392.938,678.784 394.924,697.058 396.91,699.271 398.895,712.348 400.881,709.283 402.867,713.274 404.852,696.438 406.838,681.063 408.824,677.746 410.81,706.196 412.795,697.679 414.781,695.671 416.767,705.561 418.752,682.955 420.738,671.479 422.724,662.597 424.709,667.683 426.695,651.404 428.681,653.985 430.666,639.863 432.652,646.854 434.638,637.236 436.624,639.101 438.609,627.049 440.595,616.106 442.581,613.452 444.566,618.623 446.552,625.698 448.538,618.35 450.523,609.779 452.509,598.035 454.495,598.65 456.48,591.388 458.466,582.726 460.452,585.206 462.438,581.51 464.423,591.201 466.409,599.169 468.395,583.981 470.38,584.892 472.366,595.905 474.352,596.719 476.337,603.83 478.323,601.476 480.309,613.465 482.294,629.639 484.28,625.726 486.266,626.114 488.252,636.193 490.237,629.342 492.223,622.36 494.209,637.635 496.194,646.774 498.18,649.335 500.166,630.644 502.151,635.974 504.137,640.166 506.123,627.455 508.108,631.08 510.094,628.854 512.08,638.541 514.065,632.878 516.051,635.242 518.037,631.662 520.023,627.934 522.008,620.884 523.994,618.484 525.98,627.215 527.965,622.086 529.951,622.738 531.937,623.521 533.922,619.879 535.908,612.997 537.894,611.309 539.879,608.872 541.865,610.313 543.851,595.486 545.837,601.419 547.822,610.32 549.808,617.525 551.794,612.679 553.779,619.182 555.765,610.821 557.751,617.63 559.736,611.74 561.722,605.728 563.708,611.644 565.693,604.331 567.679,611.259 569.665,610.93 571.651,607.605 573.636,609.609 575.622,615.664 577.608,614.423 579.593,627.487 581.579,644.975 583.565,635.912 585.55,650.126 587.536,656.709 589.522,644.616 591.507,642.886 593.493,646.988 595.479,656.009 597.465,650.588 599.45,659.942 601.436,664.328 603.422,679.097 605.407,669.152 607.393,670.355 609.379,674.133 611.364,667.565 613.35,670.302 615.336,664.011 617.321,664.909 619.307,668.87 621.293,676.919 623.279,678.859 625.264,681.307 627.25,682.289 629.236,681.575 631.221,676.368 633.207,668.854 635.193,675.873 637.178,682.043 639.164,683.283 641.15,698.433 643.135,695.762 645.121,691.635 647.107,701.108 649.092,702.177 651.078,701.468 653.064,715.583 655.05,717.916 657.035,716.686 659.021,723.953 661.007,717.507 662.992,722.028 664.978,722.381 666.964,732.142 668.949,734.361 670.935,740.087 672.921,736.708 674.906,738.308 676.892,746.027 678.878,744.249 680.864,737.277 682.849,732.034 684.835,725.722 686.821,725.926 688.806,730.272 690.792,728.271 692.778,727.827 694.763,725.98 696.749,721.487 698.735,724.954 700.72,728.733 702.706,729.282 704.692,730.73 706.678,725.109 708.663,719.927 710.649,712.341 712.635,708.856 714.62,710.685 716.606,709.514 718.592,708.187 720.577,708.603 722.563,704.925 724.549,706.6 726.534,726.112 728.52,726.918 730.506,724.746 732.492,737.619 734.477,733.585 736.463,731.981 738.449,727.676 740.434,726.727 742.42,721.755 744.406,729.116 746.391,734.287 748.377,738.214 750.363,748.24 752.348,749.256 754.334,748.999 756.32,749.191 758.305,752.213 760.291,754.33 762.277,760.537 764.263,760.227 766.248,755.613 768.234,757.819 770.22,751.552 772.205,751.159 774.191,772.479 776.177,772.176 778.162,771.652 780.148,777.644 782.134,775.862 784.119,772.602 786.105,773.603 788.091,766.433 790.077,779.8 792.062,788.926 794.048,789.302 796.034,790.768 798.019,798.089 800.005,795.836 801.991,798.684 803.976,807.062 805.962,800.115 807.948,794.104 809.933,789.068 811.919,793.619 813.905,796.766 815.891,797.275 817.876,791.275 819.862,785.448 821.848,787.091 823.833,792.305 825.819,790.81 827.805,791.69 829.79,786.542 831.776,785.02 833.762,780.179 835.747,770.673 837.733,783.91 839.719,781.931 841.705,784.625 843.69,787.533 845.676,785.549 847.662,792.022 849.647,793.781 851.633,803.584 853.619,803.799 855.604,809.127 857.59,803.721 859.576,801.489 861.561,807.728 863.547,813.287 865.533,817.834 867.519,821.286 869.504,815.588 871.49,828.826 873.476,827.638 875.461,832.991 877.447,833.598 879.433,836.034 881.418,833.317 883.404,837.431 885.39,838.013 887.375,840.416 889.361,832.652 891.347,833.098 893.332,825.991 895.318,838.639 897.304,843.207 899.29,846.042 901.275,845.076 903.261,851.56 905.247,843.77 907.232,836.637 909.218,835.487 911.204,834.536 913.189,833.116 915.175,827.814 917.161,818.498 919.146,812.536 921.132,806.636 923.118,803.146 925.104,822.559 927.089,825.711 929.075,837.792 931.061,841.545 933.046,844.197 935.032,846.226 937.018,843.978 939.003,847.167 940.989,841.083 942.975,846.3 944.96,837.961 946.946,847.493 948.932,844.83 950.918,849.015 952.903,854.813 954.889,855.214 956.875,861.977 958.86,856.723 960.846,857.437 962.832,861.515 964.817,870.658 966.803,870.787 968.789,867.772 970.774,864.504 972.76,865.89 974.746,866.793 976.732,876.789 978.717,879.684 980.703,886.59 982.689,877.852 984.674,872.967 986.66,873.655 988.646,875.911 990.631,873.422 992.617,874.08 994.603,882.437 996.588,881.661 998.574,880.183 1000.56,881.174 1002.55,881.332 1004.53,890.872 1006.52,893.619 1008.5,895.346 1010.49,895.573 1012.47,894.622 1014.46,891.808 1016.45,887.517 1018.43,881.936 1020.42,883.912 1022.4,892.394 1024.39,897.355 1026.37,892.902 1028.36,892.821 1030.35,896.515 1032.33,897.01 1034.32,896.497 1036.3,903.943 1038.29,912.283 1040.27,909.857 1042.26,912.254 1044.25,912.472 1046.23,911.554 1048.22,910.918 1050.2,913.895 1052.19,919.147 1054.17,919.459 1056.16,917.514 1058.14,918.474 1060.13,915.355 1062.12,921.563 1064.1,924.188 1066.09,927.228 1068.07,929.989 1070.06,930.902 1072.04,933.689 1074.03,934.297 1076.02,941.919 1078,940.104 1079.99,948.729 1081.97,955.791 1083.96,955.201 1085.94,958.236 1087.93,955.174 1089.92,957.387 1091.9,960.475 1093.89,959.398 1095.87,953.001 1097.86,955.635 1099.84,956.104 1101.83,958.552 1103.82,954.069 1105.8,949.299 1107.79,945.971 1109.77,946.139 1111.76,946.762 1113.74,943.785 1115.73,942.37 1117.72,940.365 1119.7,947.4 1121.69,941.92 1123.67,936.596 1125.66,935.284 1127.64,937.375 1129.63,936.307 1131.62,938.766 1133.6,943.835 1135.59,937.382 1137.57,931.78 1139.56,928.795 1141.54,926.063 1143.53,934.878 1145.52,932.833 1147.5,932.664 1149.49,930.304 1151.47,936.249 1153.46,935.147 1155.44,941.463 1157.43,935.168 1159.42,938.212 1161.4,932.137 1163.39,932.735 1165.37,941.643 1167.36,941.612 1169.34,943.155 1171.33,943.449 1173.31,944.792 1175.3,950.492 1177.29,954.486 1179.27,966.316 1181.26,966.542 1183.24,978.055 1185.23,980.99 1187.21,989.067 1189.2,994.883 1191.19,992.462 1193.17,990.608 1195.16,986.63 1197.14,985.161 1199.13,986.41 1201.11,984.557 1203.1,994.941 1205.09,1003.23 1207.07,1000.76 1209.06,1005.21 1211.04,1002.66 1213.03,1006.57 1215.01,1004.65 1217,1000.8 1218.99,1008.52 1220.97,1011.16 1222.96,1005.06 1224.94,1002.53 1226.93,1005.91 1228.91,1008.38 1230.9,1002.87 1232.89,1014.79 1234.87,1015.09 1236.86,1015.45 1238.84,1017.23 1240.83,1017.3 1242.81,1016.15 1244.8,1010.65 1246.79,1010.7 1248.77,1010.09 1250.76,1005.57 1252.74,1005.61 1254.73,1007.86 1256.71,1005.62 1258.7,1003.61 1260.69,998.237 1262.67,995.056 1264.66,997.62 1266.64,997.024 1268.63,997.807 1270.61,999.347 1272.6,1000.71 1274.59,1002.2 1276.57,1003.53 1278.56,993.558 1280.54,993.137 1282.53,999.739 1284.51,1003.38 1286.5,1003.55 1288.49,1003.58 1290.47,1008.98 1292.46,1004.87 1294.44,1008.53 1296.43,1011.95 1298.41,1016.68 1300.4,1010.41 1302.38,1010.43 1304.37,1006.45 1306.36,1011.86 1308.34,1012.22 1310.33,1016.16 1312.31,1009.88 1314.3,1008.3 1316.28,1006.36 1318.27,1006.17 1320.26,1015.08 1322.24,1019.95 1324.23,1018.8 1326.21,1011.74 1328.2,1012.11 1330.18,1016.02 1332.17,1021.31 1334.16,1018.34 1336.14,1020.32 1338.13,1019.18 1340.11,1018.97 1342.1,1022.87 1344.08,1018.26 1346.07,1021.82 1348.06,1025.51 1350.04,1029.16 1352.03,1025.3 1354.01,1030.83 1356,1033.87 1357.98,1036.89 1359.97,1040.23 1361.96,1040.17 1363.94,1041.14 1365.93,1042.52 1367.91,1039.48 1369.9,1037.26 1371.88,1042.2 1373.87,1043.48 1375.86,1048.53 1377.84,1046.67 1379.83,1046.43 1381.81,1052.09 1383.8,1051.52 1385.78,1054.19 1387.77,1055.42 1389.76,1050.98 1391.74,1050.26 1393.73,1057.87 1395.71,1062.06 1397.7,1062.49 1399.68,1064.02 1401.67,1060.61 1403.66,1058.94 1405.64,1057.84 1407.63,1061.22 1409.61,1061.58 1411.6,1058.03 1413.58,1062.38 1415.57,1060.76 1417.55,1058.08 1419.54,1055.36 1421.53,1054.72 1423.51,1056.73 1425.5,1058.31 1427.48,1051.78 1429.47,1056.32 1431.45,1050.87 1433.44,1047.86 1435.43,1056.24 1437.41,1056.26 1439.4,1057.88 1441.38,1060.12 1443.37,1059.51 1445.35,1053.02 1447.34,1052.45 1449.33,1049.26 1451.31,1058.33 1453.3,1059.53 1455.28,1061.18 1457.27,1062.55 1459.25,1064.22 1461.24,1070.99 1463.23,1080.52 1465.21,1086.86 1467.2,1089.09 1469.18,1093.36 1471.17,1091.69 1473.15,1089.11 1475.14,1091.69 1477.13,1089.56 1479.11,1091.57 1481.1,1092.71 1483.08,1091.87 1485.07,1093.27 1487.05,1092.22 1489.04,1092.11 1491.03,1091.22 1493.01,1089.68 1495,1092.03 1496.98,1093.35 1498.97,1095 1500.95,1096.33 1502.94,1090.98 1504.93,1094.28 1506.91,1095.37 1508.9,1095.91 1510.88,1094.98 1512.87,1093.45 1514.85,1090.7 1516.84,1091.69 1518.83,1089.32 1520.81,1093.62 1522.8,1093.22 1524.78,1094.17 1526.77,1093.67 1528.75,1100.2 1530.74,1102.49 1532.73,1102.26 1534.71,1099.59 1536.7,1099.28 1538.68,1099.84 1540.67,1108.67 1542.65,1108.94 1544.64,1114.33 1546.62,1115.76 1548.61,1119.54 1550.6,1121.22 1552.58,1127.31 1554.57,1128.14 1556.55,1124.72 1558.54,1124.18 1560.52,1123.6 1562.51,1123.5 1564.5,1121.38 1566.48,1118.6 1568.47,1118.89 1570.45,1123.19 1572.44,1122.64 1574.42,1117.61 1576.41,1119.98 1578.4,1120.57 1580.38,1121.91 1582.37,1120.99 1584.35,1123.55 1586.34,1125.68 1588.32,1126.51 1590.31,1129.7 1592.3,1128.21 1594.28,1130.59 1596.27,1136.36 1598.25,1141.3 1600.24,1138.75 1602.22,1137.39 1604.21,1136.29 1606.2,1129.1 1608.18,1127.93 1610.17,1127.98 1612.15,1126.56 1614.14,1121.81 1616.12,1119.61 1618.11,1118.5 1620.1,1120.17 1622.08,1119.3 1624.07,1120.79 1626.05,1122.52 1628.04,1126.01 1630.02,1127.47 1632.01,1127.43 1634,1127.89 1635.98,1130.78 1637.97,1132.58 1639.95,1128.56 1641.94,1129.53 1643.92,1128.86 1645.91,1120.68 1647.9,1120.01 1649.88,1121.54 1651.87,1118.06 1653.85,1116.16 1655.84,1117.64 1657.82,1117.46 1659.81,1113.2 1661.79,1110.27 1663.78,1108.35 1665.77,1108.66 1667.75,1116.82 1669.74,1120.42 1671.72,1118.67 1673.71,1121.81 1675.69,1122.34 1677.68,1124.25 1679.67,1124.98 1681.65,1130.28 1683.64,1136.3 1685.62,1140.44 1687.61,1142.2 1689.59,1138.33 1691.58,1135.61 1693.57,1137.69 1695.55,1131.8 1697.54,1134.37 1699.52,1137.85 1701.51,1135.77 1703.49,1137.58 1705.48,1137.82 1707.47,1139.19 1709.45,1134.84 1711.44,1132.95 1713.42,1131.25 1715.41,1130.33 1717.39,1130.52 1719.38,1127.63 1721.37,1129.62 1723.35,1127.62 1725.34,1129.66 1727.32,1128.75 1729.31,1126.77 1731.29,1136.3 1733.28,1136.57 1735.27,1137.12 1737.25,1136.33 1739.24,1134.85 1741.22,1130.26 1743.21,1133.59 1745.19,1135.16 1747.18,1132.7 1749.17,1133.04 1751.15,1140.16 1753.14,1134.89 1755.12,1135.42 1757.11,1135.05 1759.09,1131.51 1761.08,1128.53 1763.07,1126.89 1765.05,1128.1 1767.04,1133.44 1769.02,1136.01 1771.01,1133.51 1772.99,1129.81 1774.98,1133.89 1776.97,1134.69 1778.95,1138.23 1780.94,1140.15 1782.92,1141.06 1784.91,1146.35 1786.89,1147.21 1788.88,1152.02 1790.86,1152.77 1792.85,1156.59 1794.84,1152.58 1796.82,1149.99 1798.81,1147.29 1800.79,1153.36 1802.78,1153.84 1804.76,1156.73 1806.75,1152.92 1808.74,1151.2 1810.72,1153.3 1812.71,1160.98 1814.69,1157.08 1816.68,1165.49 1818.66,1164.4 1820.65,1163.31 1822.64,1165.81 1824.62,1163.93 1826.61,1167.4 1828.59,1169.02 1830.58,1170.8 1832.56,1172.7 1834.55,1171.72 1836.54,1168.47 1838.52,1165.75 1840.51,1167.05 1842.49,1165.35 1844.48,1163.98 1846.46,1166.68 1848.45,1165.92 1850.44,1166.98 1852.42,1162.73 1854.41,1165.73 1856.39,1166.06 1858.38,1165.2 1860.36,1165.35 1862.35,1169.88 1864.34,1174.19 1866.32,1173.17 1868.31,1170.98 1870.29,1170.89 1872.28,1168.93 1874.26,1167.58 1876.25,1170.91 1878.24,1169.34 1880.22,1167.97 1882.21,1167.17 1884.19,1168.85 1886.18,1166.47 1888.16,1163.83 1890.15,1161.35 1892.14,1160.68 1894.12,1160.69 1896.11,1160.16 1898.09,1159.66 1900.08,1160.03 1902.06,1157.57 1904.05,1155.91 1906.03,1153.67 1908.02,1154.91 1910.01,1155.12 1911.99,1155.9 1913.98,1155.7 1915.96,1154.91 1917.95,1152.94 1919.93,1154.35 1921.92,1154.61 1923.91,1158.13 1925.89,1162.71 1927.88,1159.6 1929.86,1158.82 1931.85,1163.97 1933.83,1160.41 1935.82,1159.78 1937.81,1171.84 1939.79,1169.85 1941.78,1167.53 1943.76,1174.58 1945.75,1191.3 1947.73,1190.9 1949.72,1192.75 1951.71,1195.46 1953.69,1194.73 1955.68,1197.01 1957.66,1197.93 1959.65,1197.65 1961.63,1202.38 1963.62,1201.43 1965.61,1204.88 1967.59,1207.19 1969.58,1208.75 1971.56,1205.03 1973.55,1207.24 1975.53,1214.77 1977.52,1215.43 1979.51,1211.06 1981.49,1213.26 1983.48,1214.02 1985.46,1214.76 1987.45,1214.59 1989.43,1220.19 1991.42,1217.59 1993.41,1215.56 1995.39,1221.19 1997.38,1222.26 1999.36,1220.8 2001.35,1219.63 2003.33,1220.54 2005.32,1221.62 2007.31,1220.91 2009.29,1219.46 2011.28,1221.19 2013.26,1222.28 2015.25,1219.86 2017.23,1219.02 2019.22,1219.76 2021.21,1218.59 2023.19,1218.03 2025.18,1218.12 2027.16,1215.13 2029.15,1219.67 2031.13,1216.95 2033.12,1214.24 2035.1,1213.64 2037.09,1213.94 2039.08,1214.47 2041.06,1213.98 2043.05,1217.93 2045.03,1216.82 2047.02,1212.91 2049,1214.21 2050.99,1214.08 2052.98,1213.03 2054.96,1211.02 2056.95,1209.07 2058.93,1209.46 2060.92,1218.88 2062.9,1220.95 2064.89,1219.2 2066.88,1218.53 2068.86,1216.64 2070.85,1223.12 2072.83,1218.96 2074.82,1221.86 2076.8,1224 2078.79,1230.16 2080.78,1228.71 2082.76,1230.47 2084.75,1233.79 2086.73,1233.6 2088.72,1234.65 2090.7,1235 2092.69,1232.75 2094.68,1231.87 2096.66,1232.7 2098.65,1231.41 2100.63,1231.52 2102.62,1231.5 2104.6,1230.92 2106.59,1233.22 2108.58,1237.19 2110.56,1239.08 2112.55,1239.49 2114.53,1239.66 2116.52,1244 2118.5,1245.27 2120.49,1244.89 2122.48,1245.72 2124.46,1245.19 2126.45,1248.89 2128.43,1252.66 2130.42,1250.61 2132.4,1251.19 2134.39,1262.87 2136.38,1262.16 2138.36,1263.14 2140.35,1268.14 2142.33,1261.99 2144.32,1261.07 2146.3,1258.19 2148.29,1254.52 2150.27,1256.96 2152.26,1258.85 2154.25,1263.27 2156.23,1262.48 2158.22,1259.63 2160.2,1260.12 2162.19,1262.05 2164.17,1268.11 2166.16,1268.38 2168.15,1272.99 2170.13,1273.16 2172.12,1273.81 2174.1,1273.06 2176.09,1272.35 2178.07,1274.31 2180.06,1275.55 2182.05,1282.64 2184.03,1283.35 2186.02,1287.08 2188,1285.84 2189.99,1285.6 2191.97,1285.69 2193.96,1282.92 2195.95,1285.36 2197.93,1286.84 2199.92,1288.58 2201.9,1287.34 2203.89,1295.57 2205.87,1292.13 2207.86,1294.49 2209.85,1294.82 2211.83,1296.28 2213.82,1292.94 2215.8,1292.6 2217.79,1295.27 2219.77,1295.64 2221.76,1296.09 2223.75,1296.76 2225.73,1297.16 2227.72,1297.98 2229.7,1297.08 2231.69,1298.17 2233.67,1300.96 2235.66,1301.64 2237.65,1304.68 2239.63,1307.7 2241.62,1307.88 2243.6,1306.5 2245.59,1305.56 2247.57,1305.88 2249.56,1304.79 2251.55,1304.29 2253.53,1303.46 2255.52,1304.69 2257.5,1305.26 2259.49,1305.77 2261.47,1305.96 2263.46,1307.17 2265.45,1305.44 2267.43,1306.43 2269.42,1307.4 2271.4,1308.31 2273.39,1311.18 2275.37,1312.53 2277.36,1316.34 2279.34,1320.86 2281.33,1319.2 2283.32,1319.19 2285.3,1321.17 2287.29,1319.77 2289.27,1319.61 2291.26,1320.02 2293.24,1319.39 "/>
<polyline clip-path="url(#clip602)" style="stroke:#e26f46; stroke-linecap:round; stroke-linejoin:round; stroke-width:4; stroke-opacity:1; fill:none" points="309.539,1382.93 311.525,108.545 313.511,104.818 315.496,179.274 317.482,249.999 319.468,297.793 321.453,471.013 323.439,626.581 325.425,723.257 327.411,849.506 329.396,827.342 331.382,825.714 333.368,835.058 335.353,849.808 337.339,826.024 339.325,786.12 341.31,760.119 343.296,768.045 345.282,760.732 347.267,762.234 349.253,886.938 351.239,823.651 353.225,798.469 355.21,757.474 357.196,804.382 359.182,809.773 361.167,806.374 363.153,781.218 365.139,736.266 367.124,762.071 369.11,756.222 371.096,745.092 373.081,753.967 375.067,754.943 377.053,736.975 379.038,757.188 381.024,744.438 383.01,729.736 384.996,734.765 386.981,752.638 388.967,755.866 390.953,739.699 392.938,747.447 394.924,742.2 396.91,780.753 398.895,784.914 400.881,793.656 402.867,789.719 404.852,777.54 406.838,778.476 408.824,771.6 410.81,756.656 412.795,755.235 414.781,757.221 416.767,758.161 418.752,753.246 420.738,756.392 422.724,749.937 424.709,752.537 426.695,740.101 428.681,740.357 430.666,742.079 432.652,761.174 434.638,747.157 436.624,746.401 438.609,726.078 440.595,721.931 442.581,701.162 444.566,706.723 446.552,702.098 448.538,690.957 450.523,705.533 452.509,707.621 454.495,704.058 456.48,691.444 458.466,712.339 460.452,720.273 462.438,717.26 464.423,712.821 466.409,707.728 468.395,716.972 470.38,717.517 472.366,728.556 474.352,729.554 476.337,738.951 478.323,730.895 480.309,729.971 482.294,724.599 484.28,739.513 486.266,740.1 488.252,731.72 490.237,734.914 492.223,722.864 494.209,722.334 496.194,724.771 498.18,727.692 500.166,731.435 502.151,719.023 504.137,718.921 506.123,723.455 508.108,710.669 510.094,727.99 512.08,719.651 514.065,749.378 516.051,748.727 518.037,755.617 520.023,775.696 522.008,773.721 523.994,783.07 525.98,774.576 527.965,779.817 529.951,789.31 531.937,797.285 533.922,775.119 535.908,783.56 537.894,789.713 539.879,792.572 541.865,799.193 543.851,802.629 545.837,808.792 547.822,827.267 549.808,835.418 551.794,848.636 553.779,848.429 555.765,850.434 557.751,857.348 559.736,860.094 561.722,853.157 563.708,857.554 565.693,857.343 567.679,862.645 569.665,857.642 571.651,859.42 573.636,847.016 575.622,853.54 577.608,857.435 579.593,857.952 581.579,849.622 583.565,851.198 585.55,852.574 587.536,846.697 589.522,842.927 591.507,833.39 593.493,835.026 595.479,841.977 597.465,840.91 599.45,852.612 601.436,847.464 603.422,853.293 605.407,845.26 607.393,853.116 609.379,847.337 611.364,846.224 613.35,855.178 615.336,873.486 617.321,869.138 619.307,862.403 621.293,856.57 623.279,864.095 625.264,870.494 627.25,883.193 629.236,878.281 631.221,884.948 633.207,880.516 635.193,885.758 637.178,885.806 639.164,882.623 641.15,879.894 643.135,889.505 645.121,906.6 647.107,906.442 649.092,907.112 651.078,905.826 653.064,908.945 655.05,905.208 657.035,902.995 659.021,898.741 661.007,916.998 662.992,922.073 664.978,918.679 666.964,918.533 668.949,923.141 670.935,923.722 672.921,923.177 674.906,919.991 676.892,931.95 678.878,933.903 680.864,944.058 682.849,944.415 684.835,946.468 686.821,963.779 688.806,954.445 690.792,953.456 692.778,956.613 694.763,966.725 696.749,964.959 698.735,967.755 700.72,966.88 702.706,961.993 704.692,958.396 706.678,960.306 708.663,970.245 710.649,975.734 712.635,979.354 714.62,990.496 716.606,989.336 718.592,986.697 720.577,987.817 722.563,991.074 724.549,996.07 726.534,989.139 728.52,991.479 730.506,993.706 732.492,989.355 734.477,991.518 736.463,988.78 738.449,997.643 740.434,1009.19 742.42,1016.53 744.406,1034.75 746.391,1038.01 748.377,1043.44 750.363,1047.93 752.348,1047.97 754.334,1046.28 756.32,1048.17 758.305,1049.05 760.291,1045.96 762.277,1045.37 764.263,1047.49 766.248,1048.22 768.234,1046.04 770.22,1042.28 772.205,1043.48 774.191,1043.77 776.177,1041 778.162,1039.66 780.148,1039.67 782.134,1047.76 784.119,1042.47 786.105,1044.69 788.091,1041.47 790.077,1040.42 792.062,1042.15 794.048,1041.42 796.034,1043.48 798.019,1042.02 800.005,1042.47 801.991,1041.42 803.976,1048.03 805.962,1047.84 807.948,1048.83 809.933,1046.91 811.919,1045.72 813.905,1045.39 815.891,1049.24 817.876,1049.31 819.862,1055.37 821.848,1058.73 823.833,1068.91 825.819,1071.96 827.805,1072.97 829.79,1072.43 831.776,1072.32 833.762,1087.09 835.747,1089.75 837.733,1089.51 839.719,1087.29 841.705,1092.58 843.69,1090.58 845.676,1092.73 847.662,1092.03 849.647,1093.42 851.633,1094.41 853.619,1098.02 855.604,1094.99 857.59,1098.39 859.576,1107.42 861.561,1107.13 863.547,1110.32 865.533,1112.69 867.519,1114.32 869.504,1111.69 871.49,1111.77 873.476,1110.16 875.461,1108.7 877.447,1111.85 879.433,1112.77 881.418,1113.35 883.404,1112.95 885.39,1113.84 887.375,1114.5 889.361,1112.43 891.347,1114.02 893.332,1119.89 895.318,1123.43 897.304,1128.48 899.29,1133.57 901.275,1130.34 903.261,1127.16 905.247,1128.06 907.232,1127.3 909.218,1125.57 911.204,1136.62 913.189,1139.32 915.175,1138.57 917.161,1131.71 919.146,1135.66 921.132,1134.48 923.118,1138.78 925.104,1137.79 927.089,1140.13 929.075,1140.25 931.061,1138.51 933.046,1137.65 935.032,1140.35 937.018,1143.85 939.003,1149.02 940.989,1156.04 942.975,1158.75 944.96,1159.92 946.946,1159.13 948.932,1160.45 950.918,1159.14 952.903,1154.27 954.889,1153.15 956.875,1152.41 958.86,1150.28 960.846,1143.45 962.832,1141.6 964.817,1144.25 966.803,1150.11 968.789,1149.32 970.774,1153.34 972.76,1158.02 974.746,1162.24 976.732,1162.84 978.717,1168.14 980.703,1168.24 982.689,1172.91 984.674,1172.93 986.66,1183.01 988.646,1189.92 990.631,1196.04 992.617,1192.89 994.603,1194.92 996.588,1200.44 998.574,1202.39 1000.56,1203.67 1002.55,1210.49 1004.53,1216.09 1006.52,1219.78 1008.5,1220.38 1010.49,1221.66 1012.47,1222.88 1014.46,1225.73 1016.45,1227.27 1018.43,1227.98 1020.42,1225.9 1022.4,1227.7 1024.39,1231.87 1026.37,1231.47 1028.36,1232.33 1030.35,1234.54 1032.33,1230.62 1034.32,1233.08 1036.3,1234.09 1038.29,1235.73 1040.27,1235.38 1042.26,1236.85 1044.25,1237.84 1046.23,1239.66 1048.22,1241.24 1050.2,1240.33 1052.19,1240.22 1054.17,1238.2 1056.16,1239.33 1058.14,1235.56 1060.13,1239.88 1062.12,1238.9 1064.1,1240.75 1066.09,1245.91 1068.07,1242.76 1070.06,1242.71 1072.04,1240.51 1074.03,1245.8 1076.02,1244.09 1078,1244.95 1079.99,1248.38 1081.97,1252.01 1083.96,1252 1085.94,1250.84 1087.93,1249.15 1089.92,1250.52 1091.9,1252.56 1093.89,1252.46 1095.87,1257.59 1097.86,1260.12 1099.84,1261.75 1101.83,1260.36 1103.82,1256.18 1105.8,1259.91 1107.79,1263.43 1109.77,1260.65 1111.76,1258.76 1113.74,1257.42 1115.73,1261.22 1117.72,1268.13 1119.7,1266.04 1121.69,1269.38 1123.67,1269.28 1125.66,1268.56 1127.64,1269.35 1129.63,1272.9 1131.62,1273.84 1133.6,1275.5 1135.59,1271.94 1137.57,1273.88 1139.56,1278.41 1141.54,1279.54 1143.53,1280.76 1145.52,1281.39 1147.5,1283.36 1149.49,1283.66 1151.47,1284.52 1153.46,1280.46 1155.44,1285.21 1157.43,1287.12 1159.42,1288.41 1161.4,1290.03 1163.39,1289 1165.37,1290.32 1167.36,1289.66 1169.34,1288.14 1171.33,1289.96 1173.31,1290.31 1175.3,1289.75 1177.29,1290.03 1179.27,1289.43 1181.26,1289.57 1183.24,1292.97 1185.23,1291.71 1187.21,1292.31 1189.2,1297.37 1191.19,1294.95 1193.17,1301.7 1195.16,1302.39 1197.14,1299.11 1199.13,1301.65 1201.11,1299.75 1203.1,1300.79 1205.09,1302.15 1207.07,1305.1 1209.06,1304.52 1211.04,1302.19 1213.03,1305.34 1215.01,1304.53 1217,1304.22 1218.99,1304.7 1220.97,1310.2 1222.96,1311.1 1224.94,1311.34 1226.93,1311.39 1228.91,1312.33 1230.9,1305.79 1232.89,1309.74 1234.87,1308.54 1236.86,1310.27 1238.84,1311.55 1240.83,1311.57 1242.81,1309.77 1244.8,1311.63 1246.79,1311.4 1248.77,1314.38 1250.76,1314.8 1252.74,1314.46 1254.73,1317.57 1256.71,1320.04 1258.7,1319.31 1260.69,1317.77 1262.67,1313.11 1264.66,1311.94 1266.64,1311.43 1268.63,1316.99 1270.61,1318.15 1272.6,1317.49 1274.59,1315.9 1276.57,1318.26 1278.56,1322.31 1280.54,1323.41 1282.53,1324.28 1284.51,1323.86 1286.5,1323.09 1288.49,1324.22 1290.47,1322.85 1292.46,1325.21 1294.44,1325.88 1296.43,1325.66 1298.41,1325.19 1300.4,1322.85 1302.38,1322.57 1304.37,1321.31 1306.36,1320.49 1308.34,1317.05 1310.33,1323.33 1312.31,1322.84 1314.3,1322.41 1316.28,1321.35 1318.27,1321.12 1320.26,1324.74 1322.24,1323.3 1324.23,1324.41 1326.21,1320.95 1328.2,1321.46 1330.18,1322.24 1332.17,1321.71 1334.16,1321.46 1336.14,1322.82 1338.13,1322.06 1340.11,1324.22 1342.1,1325.06 1344.08,1326.07 1346.07,1325.75 1348.06,1326.79 1350.04,1327.33 1352.03,1328.81 1354.01,1329.83 1356,1329.84 1357.98,1328.86 1359.97,1328.23 1361.96,1330.63 1363.94,1328.02 1365.93,1328.22 1367.91,1328.09 1369.9,1328.67 1371.88,1328.15 1373.87,1329.19 1375.86,1328.49 1377.84,1329.09 1379.83,1328.55 1381.81,1329.8 1383.8,1330.7 1385.78,1329.62 1387.77,1331.24 1389.76,1332.06 1391.74,1331.02 1393.73,1330.29 1395.71,1328.24 1397.7,1328.63 1399.68,1328.67 1401.67,1328.95 1403.66,1328.81 1405.64,1328.57 1407.63,1327.33 1409.61,1326.65 1411.6,1328.66 1413.58,1327.92 1415.57,1326.93 1417.55,1329.71 1419.54,1330.62 1421.53,1330.91 1423.51,1331.8 1425.5,1331.98 1427.48,1331.44 1429.47,1335.54 1431.45,1334.56 1433.44,1333.92 1435.43,1337.4 1437.41,1336.01 1439.4,1335.38 1441.38,1334.31 1443.37,1339.07 1445.35,1338.79 1447.34,1338.29 1449.33,1338.09 1451.31,1338.81 1453.3,1337.6 1455.28,1337.47 1457.27,1337.17 1459.25,1337.14 1461.24,1336.39 1463.23,1335.67 1465.21,1334.8 1467.2,1333.31 1469.18,1334.75 1471.17,1333.6 1473.15,1334.48 1475.14,1334.07 1477.13,1332.44 1479.11,1330.06 1481.1,1327.56 1483.08,1326.38 1485.07,1325.39 1487.05,1325.06 1489.04,1325.32 1491.03,1327.51 1493.01,1327.28 1495,1326.47 1496.98,1326.19 1498.97,1325.89 1500.95,1325.55 1502.94,1325 1504.93,1326.4 1506.91,1325.56 1508.9,1324.55 1510.88,1323.44 1512.87,1322.73 1514.85,1322.01 1516.84,1321.08 1518.83,1321.38 1520.81,1320.62 1522.8,1321.63 1524.78,1321.21 1526.77,1323.56 1528.75,1323.39 1530.74,1325.41 1532.73,1325.88 1534.71,1329.73 1536.7,1328.93 1538.68,1329.45 1540.67,1329.45 1542.65,1329.2 1544.64,1327.9 1546.62,1326.25 1548.61,1325.79 1550.6,1324.59 1552.58,1325.02 1554.57,1330.06 1556.55,1328.98 1558.54,1327.04 1560.52,1326.08 1562.51,1325.17 1564.5,1324.81 1566.48,1325.38 1568.47,1325.46 1570.45,1325.95 1572.44,1325.02 1574.42,1324.29 1576.41,1323.71 1578.4,1326.57 1580.38,1328.97 1582.37,1328.25 1584.35,1327.47 1586.34,1325.88 1588.32,1327.34 1590.31,1329.29 1592.3,1327.24 1594.28,1326.24 1596.27,1326.29 1598.25,1326.79 1600.24,1326 1602.22,1327.61 1604.21,1328.32 1606.2,1327.74 1608.18,1326.09 1610.17,1324.95 1612.15,1324.32 1614.14,1322.89 1616.12,1323.28 1618.11,1322.48 1620.1,1330.12 1622.08,1329.02 1624.07,1330.65 1626.05,1329.46 1628.04,1327.55 1630.02,1329.15 1632.01,1330.4 1634,1328.82 1635.98,1330.96 1637.97,1331.37 1639.95,1330.2 1641.94,1329.38 1643.92,1331.1 1645.91,1330.5 1647.9,1333.26 1649.88,1333.23 1651.87,1334.49 1653.85,1331.94 1655.84,1332.13 1657.82,1332.15 1659.81,1335.18 1661.79,1335.29 1663.78,1332.96 1665.77,1332.12 1667.75,1331.6 1669.74,1330.7 1671.72,1328.51 1673.71,1328.03 1675.69,1325.02 1677.68,1326.23 1679.67,1325.95 1681.65,1331 1683.64,1331.15 1685.62,1335.8 1687.61,1337.08 1689.59,1338.2 1691.58,1337.76 1693.57,1337.75 1695.55,1338.77 1697.54,1338.89 1699.52,1342.4 1701.51,1343.66 1703.49,1345.83 1705.48,1347.12 1707.47,1347.38 1709.45,1348.39 1711.44,1349.54 1713.42,1349.71 1715.41,1350.5 1717.39,1355.9 1719.38,1356.81 1721.37,1357.31 1723.35,1355.23 1725.34,1356.02 1727.32,1354.1 1729.31,1355.12 1731.29,1356.27 1733.28,1359.24 1735.27,1359.88 1737.25,1358.78 1739.24,1359.64 1741.22,1360.51 1743.21,1360.07 1745.19,1358.23 1747.18,1359.33 1749.17,1358.89 1751.15,1356.86 1753.14,1356.8 1755.12,1357.12 1757.11,1356.43 1759.09,1356.46 1761.08,1356.45 1763.07,1355.33 1765.05,1355.5 1767.04,1354.93 1769.02,1355.03 1771.01,1355.79 1772.99,1357.96 1774.98,1356.62 1776.97,1355.92 1778.95,1356.19 1780.94,1357.54 1782.92,1356.96 1784.91,1357.6 1786.89,1356.82 1788.88,1360.56 1790.86,1362.7 1792.85,1362.81 1794.84,1363.05 1796.82,1364.31 1798.81,1364.28 1800.79,1363.53 1802.78,1362.8 1804.76,1361.75 1806.75,1362.19 1808.74,1361.41 1810.72,1361.52 1812.71,1360.51 1814.69,1359.41 1816.68,1359.89 1818.66,1360.29 1820.65,1362.24 1822.64,1363.66 1824.62,1365.88 1826.61,1367.77 1828.59,1370.14 1830.58,1371.67 1832.56,1370.55 1834.55,1367.27 1836.54,1368.19 1838.52,1369.26 1840.51,1370.84 1842.49,1371.14 1844.48,1377.58 1846.46,1373.2 1848.45,1371.76 1850.44,1374.16 1852.42,1374.97 1854.41,1375.79 1856.39,1370.71 1858.38,1368.44 1860.36,1368.05 1862.35,1371.83 1864.34,1376.31 1866.32,1374.51 1868.31,1377.3 1870.29,1373.06 1872.28,1375.12 1874.26,1376.99 1876.25,1378.67 1878.24,1376.87 1880.22,1378.65 1882.21,1380.07 1884.19,1378.65 1886.18,1379.98 1888.16,1377.73 1890.15,1378.86 1892.14,1378.62 1894.12,1380.67 1896.11,1381.54 1898.09,1382.45 1900.08,1382.73 1902.06,1382.86 1904.05,1382.98 1906.03,1383.42 1908.02,1383.58 1910.01,1383.12 1911.99,1383.07 1913.98,1382.23 1915.96,1381.91 1917.95,1382.8 1919.93,1383.19 1921.92,1383.12 1923.91,1382.83 1925.89,1382.69 1927.88,1383.2 1929.86,1383.31 1931.85,1383.42 1933.83,1383.63 1935.82,1383.4 1937.81,1382.94 1939.79,1383.31 1941.78,1383.53 1943.76,1383.52 1945.75,1383.53 1947.73,1382.84 1949.72,1383.27 1951.71,1383.45 1953.69,1383.29 1955.68,1383.49 1957.66,1383.68 1959.65,1383.43 1961.63,1383.26 1963.62,1383.46 1965.61,1383.31 1967.59,1383.18 1969.58,1383.26 1971.56,1383.22 1973.55,1382.93 1975.53,1383.3 1977.52,1383.32 1979.51,1383.37 1981.49,1382.63 1983.48,1381.94 1985.46,1382.26 1987.45,1382.8 1989.43,1382.94 1991.42,1382.62 1993.41,1383.02 1995.39,1383.35 1997.38,1383.54 1999.36,1383.28 2001.35,1383.08 2003.33,1382.83 2005.32,1382.66 2007.31,1382.93 2009.29,1383.03 2011.28,1382.84 2013.26,1383.15 2015.25,1383.15 2017.23,1383.17 2019.22,1383.4 2021.21,1383.28 2023.19,1383.05 2025.18,1383.19 2027.16,1383.45 2029.15,1383.46 2031.13,1383.38 2033.12,1383.27 2035.1,1383.41 2037.09,1383.65 2039.08,1384.09 2041.06,1383.89 2043.05,1383.52 2045.03,1383.51 2047.02,1383.18 2049,1383.19 2050.99,1382.91 2052.98,1383.1 2054.96,1383.19 2056.95,1382.67 2058.93,1382.53 2060.92,1382.42 2062.9,1382.69 2064.89,1382.6 2066.88,1382.38 2068.86,1382.46 2070.85,1382.93 2072.83,1382.67 2074.82,1382.35 2076.8,1382.84 2078.79,1382.74 2080.78,1382.87 2082.76,1383.13 2084.75,1382.53 2086.73,1383.05 2088.72,1382.81 2090.7,1383.07 2092.69,1383.29 2094.68,1383.02 2096.66,1383.11 2098.65,1382.36 2100.63,1382.09 2102.62,1381.93 2104.6,1382.18 2106.59,1381.82 2108.58,1381.67 2110.56,1382 2112.55,1381.89 2114.53,1382.26 2116.52,1382.2 2118.5,1381.96 2120.49,1381.94 2122.48,1381.99 2124.46,1382.72 2126.45,1382.85 2128.43,1383.26 2130.42,1383.06 2132.4,1383.35 2134.39,1382.95 2136.38,1382.48 2138.36,1382.96 2140.35,1382.79 2142.33,1382.95 2144.32,1383.26 2146.3,1383.59 2148.29,1383.79 2150.27,1383.65 2152.26,1383.82 2154.25,1383.79 2156.23,1383.74 2158.22,1383.44 2160.2,1383.65 2162.19,1383.56 2164.17,1383.34 2166.16,1383.03 2168.15,1383.32 2170.13,1383.23 2172.12,1383.2 2174.1,1383 2176.09,1382.98 2178.07,1383.19 2180.06,1383.63 2182.05,1383.09 2184.03,1383.19 2186.02,1382.98 2188,1383.17 2189.99,1383.46 2191.97,1382.98 2193.96,1382.86 2195.95,1383.13 2197.93,1383.4 2199.92,1383.04 2201.9,1382.96 2203.89,1383.02 2205.87,1382.99 2207.86,1383.6 2209.85,1383.52 2211.83,1383.59 2213.82,1383.45 2215.8,1383.11 2217.79,1383.04 2219.77,1382.83 2221.76,1383.14 2223.75,1382.7 2225.73,1382.07 2227.72,1382.76 2229.7,1383.78 2231.69,1383.68 2233.67,1383.74 2235.66,1383.55 2237.65,1384.04 2239.63,1383.89 2241.62,1384.24 2243.6,1383.89 2245.59,1383.86 2247.57,1383.4 2249.56,1382.94 2251.55,1383 2253.53,1383.11 2255.52,1383.27 2257.5,1383.79 2259.49,1383.71 2261.47,1383.57 2263.46,1383.14 2265.45,1382.73 2267.43,1382.72 2269.42,1382.96 2271.4,1383.02 2273.39,1382.94 2275.37,1383.11 2277.36,1383.46 2279.34,1383.06 2281.33,1382.85 2283.32,1383.36 2285.3,1383.35 2287.29,1383.63 2289.27,1383.54 2291.26,1383.69 2293.24,1383.81 "/>
<path clip-path="url(#clip600)" d="M1525.66 248.629 L2282.66 248.629 L2282.66 93.1086 L1525.66 93.1086  Z" fill="#ffffff" fill-rule="evenodd" fill-opacity="1"/>
<polyline clip-path="url(#clip600)" style="stroke:#000000; stroke-linecap:round; stroke-linejoin:round; stroke-width:4; stroke-opacity:1; fill:none" points="1525.66,248.629 2282.66,248.629 2282.66,93.1086 1525.66,93.1086 1525.66,248.629 "/>
<polyline clip-path="url(#clip600)" style="stroke:#009af9; stroke-linecap:round; stroke-linejoin:round; stroke-width:4; stroke-opacity:1; fill:none" points="1549.02,144.949 1689.2,144.949 "/>
<path clip-path="url(#clip600)" d="M1712.57 127.669 L1719.54 127.669 L1728.36 151.187 L1737.22 127.669 L1744.19 127.669 L1744.19 162.229 L1739.63 162.229 L1739.63 131.882 L1730.72 155.585 L1726.02 155.585 L1717.11 131.882 L1717.11 162.229 L1712.57 162.229 L1712.57 127.669 Z" fill="#000000" fill-rule="nonzero" fill-opacity="1" /><path clip-path="url(#clip600)" d="M1752.85 151.997 L1752.85 136.303 L1757.1 136.303 L1757.1 151.835 Q1757.1 155.516 1758.54 157.368 Q1759.98 159.196 1762.85 159.196 Q1766.29 159.196 1768.29 156.997 Q1770.3 154.798 1770.3 151.002 L1770.3 136.303 L1774.56 136.303 L1774.56 162.229 L1770.3 162.229 L1770.3 158.247 Q1768.75 160.608 1766.69 161.766 Q1764.65 162.9 1761.94 162.9 Q1757.48 162.9 1755.16 160.122 Q1752.85 157.344 1752.85 151.997 M1763.56 135.678 L1763.56 135.678 Z" fill="#000000" fill-rule="nonzero" fill-opacity="1" /><path clip-path="url(#clip600)" d="M1783.33 126.21 L1787.59 126.21 L1787.59 162.229 L1783.33 162.229 L1783.33 126.21 Z" fill="#000000" fill-rule="nonzero" fill-opacity="1" /><path clip-path="url(#clip600)" d="M1800.72 128.942 L1800.72 136.303 L1809.49 136.303 L1809.49 139.613 L1800.72 139.613 L1800.72 153.687 Q1800.72 156.858 1801.57 157.761 Q1802.45 158.664 1805.11 158.664 L1809.49 158.664 L1809.49 162.229 L1805.11 162.229 Q1800.18 162.229 1798.31 160.4 Q1796.43 158.548 1796.43 153.687 L1796.43 139.613 L1793.31 139.613 L1793.31 136.303 L1796.43 136.303 L1796.43 128.942 L1800.72 128.942 Z" fill="#000000" fill-rule="nonzero" fill-opacity="1" /><path clip-path="url(#clip600)" d="M1815.09 136.303 L1819.35 136.303 L1819.35 162.229 L1815.09 162.229 L1815.09 136.303 M1815.09 126.21 L1819.35 126.21 L1819.35 131.604 L1815.09 131.604 L1815.09 126.21 Z" fill="#000000" fill-rule="nonzero" fill-opacity="1" /><path clip-path="url(#clip600)" d="M1849.81 146.581 L1849.81 162.229 L1845.55 162.229 L1845.55 146.719 Q1845.55 143.039 1844.12 141.21 Q1842.68 139.382 1839.81 139.382 Q1836.36 139.382 1834.37 141.581 Q1832.38 143.78 1832.38 147.576 L1832.38 162.229 L1828.1 162.229 L1828.1 136.303 L1832.38 136.303 L1832.38 140.331 Q1833.91 137.993 1835.97 136.835 Q1838.05 135.678 1840.76 135.678 Q1845.23 135.678 1847.52 138.456 Q1849.81 141.21 1849.81 146.581 Z" fill="#000000" fill-rule="nonzero" fill-opacity="1" /><path clip-path="url(#clip600)" d="M1868.35 139.289 Q1864.93 139.289 1862.94 141.974 Q1860.95 144.636 1860.95 149.289 Q1860.95 153.942 1862.91 156.627 Q1864.91 159.289 1868.35 159.289 Q1871.76 159.289 1873.75 156.604 Q1875.74 153.918 1875.74 149.289 Q1875.74 144.682 1873.75 141.997 Q1871.76 139.289 1868.35 139.289 M1868.35 135.678 Q1873.91 135.678 1877.08 139.289 Q1880.25 142.9 1880.25 149.289 Q1880.25 155.655 1877.08 159.289 Q1873.91 162.9 1868.35 162.9 Q1862.78 162.9 1859.6 159.289 Q1856.46 155.655 1856.46 149.289 Q1856.46 142.9 1859.6 139.289 Q1862.78 135.678 1868.35 135.678 Z" fill="#000000" fill-rule="nonzero" fill-opacity="1" /><path clip-path="url(#clip600)" d="M1907.5 141.28 Q1909.09 138.409 1911.32 137.044 Q1913.54 135.678 1916.55 135.678 Q1920.6 135.678 1922.8 138.525 Q1925 141.349 1925 146.581 L1925 162.229 L1920.72 162.229 L1920.72 146.719 Q1920.72 142.993 1919.4 141.187 Q1918.08 139.382 1915.37 139.382 Q1912.06 139.382 1910.14 141.581 Q1908.22 143.78 1908.22 147.576 L1908.22 162.229 L1903.93 162.229 L1903.93 146.719 Q1903.93 142.969 1902.61 141.187 Q1901.29 139.382 1898.54 139.382 Q1895.28 139.382 1893.35 141.604 Q1891.43 143.803 1891.43 147.576 L1891.43 162.229 L1887.15 162.229 L1887.15 136.303 L1891.43 136.303 L1891.43 140.331 Q1892.89 137.946 1894.93 136.812 Q1896.97 135.678 1899.77 135.678 Q1902.59 135.678 1904.56 137.113 Q1906.55 138.548 1907.5 141.28 Z" fill="#000000" fill-rule="nonzero" fill-opacity="1" /><path clip-path="url(#clip600)" d="M1933.49 136.303 L1937.75 136.303 L1937.75 162.229 L1933.49 162.229 L1933.49 136.303 M1933.49 126.21 L1937.75 126.21 L1937.75 131.604 L1933.49 131.604 L1933.49 126.21 Z" fill="#000000" fill-rule="nonzero" fill-opacity="1" /><path clip-path="url(#clip600)" d="M1958.45 149.196 Q1953.28 149.196 1951.29 150.377 Q1949.3 151.557 1949.3 154.405 Q1949.3 156.673 1950.78 158.016 Q1952.29 159.335 1954.86 159.335 Q1958.4 159.335 1960.53 156.835 Q1962.68 154.312 1962.68 150.145 L1962.68 149.196 L1958.45 149.196 M1966.94 147.437 L1966.94 162.229 L1962.68 162.229 L1962.68 158.293 Q1961.22 160.655 1959.05 161.789 Q1956.87 162.9 1953.72 162.9 Q1949.74 162.9 1947.38 160.678 Q1945.04 158.432 1945.04 154.682 Q1945.04 150.307 1947.96 148.085 Q1950.9 145.863 1956.71 145.863 L1962.68 145.863 L1962.68 145.446 Q1962.68 142.507 1960.74 140.909 Q1958.82 139.289 1955.32 139.289 Q1953.1 139.289 1950.99 139.821 Q1948.89 140.354 1946.94 141.419 L1946.94 137.483 Q1949.28 136.581 1951.48 136.141 Q1953.68 135.678 1955.76 135.678 Q1961.39 135.678 1964.16 138.594 Q1966.94 141.511 1966.94 147.437 Z" fill="#000000" fill-rule="nonzero" fill-opacity="1" /><path clip-path="url(#clip600)" d="M1975.71 126.21 L1979.97 126.21 L1979.97 162.229 L1975.71 162.229 L1975.71 126.21 Z" fill="#000000" fill-rule="nonzero" fill-opacity="1" /><path clip-path="url(#clip600)" d="M2018.98 140.284 Q2018.26 139.868 2017.4 139.682 Q2016.57 139.474 2015.55 139.474 Q2011.94 139.474 2010 141.835 Q2008.08 144.173 2008.08 148.571 L2008.08 162.229 L2003.79 162.229 L2003.79 136.303 L2008.08 136.303 L2008.08 140.331 Q2009.42 137.969 2011.57 136.835 Q2013.72 135.678 2016.8 135.678 Q2017.24 135.678 2017.77 135.747 Q2018.31 135.794 2018.96 135.909 L2018.98 140.284 Z" fill="#000000" fill-rule="nonzero" fill-opacity="1" /><path clip-path="url(#clip600)" d="M2044.58 148.201 L2044.58 150.284 L2025 150.284 Q2025.27 154.682 2027.64 156.997 Q2030.02 159.289 2034.26 159.289 Q2036.71 159.289 2039 158.687 Q2041.32 158.085 2043.58 156.881 L2043.58 160.909 Q2041.29 161.881 2038.89 162.391 Q2036.48 162.9 2034 162.9 Q2027.8 162.9 2024.16 159.289 Q2020.55 155.678 2020.55 149.52 Q2020.55 143.155 2023.98 139.428 Q2027.43 135.678 2033.26 135.678 Q2038.49 135.678 2041.52 139.057 Q2044.58 142.414 2044.58 148.201 M2040.32 146.951 Q2040.27 143.456 2038.35 141.372 Q2036.46 139.289 2033.31 139.289 Q2029.74 139.289 2027.59 141.303 Q2025.46 143.317 2025.14 146.974 L2040.32 146.951 Z" fill="#000000" fill-rule="nonzero" fill-opacity="1" /><path clip-path="url(#clip600)" d="M2068.1 137.067 L2068.1 141.094 Q2066.29 140.169 2064.35 139.706 Q2062.4 139.243 2060.32 139.243 Q2057.15 139.243 2055.55 140.215 Q2053.98 141.187 2053.98 143.131 Q2053.98 144.613 2055.11 145.469 Q2056.25 146.303 2059.67 147.067 L2061.13 147.391 Q2065.67 148.363 2067.57 150.145 Q2069.49 151.905 2069.49 155.076 Q2069.49 158.687 2066.62 160.793 Q2063.77 162.9 2058.77 162.9 Q2056.69 162.9 2054.42 162.483 Q2052.17 162.09 2049.67 161.28 L2049.67 156.881 Q2052.03 158.108 2054.33 158.733 Q2056.62 159.335 2058.86 159.335 Q2061.87 159.335 2063.49 158.317 Q2065.11 157.275 2065.11 155.4 Q2065.11 153.664 2063.93 152.738 Q2062.77 151.812 2058.82 150.956 L2057.33 150.608 Q2053.38 149.775 2051.62 148.062 Q2049.86 146.326 2049.86 143.317 Q2049.86 139.659 2052.45 137.669 Q2055.04 135.678 2059.81 135.678 Q2062.17 135.678 2064.26 136.025 Q2066.34 136.372 2068.1 137.067 Z" fill="#000000" fill-rule="nonzero" fill-opacity="1" /><path clip-path="url(#clip600)" d="M2088.05 149.196 Q2082.89 149.196 2080.9 150.377 Q2078.91 151.557 2078.91 154.405 Q2078.91 156.673 2080.39 158.016 Q2081.89 159.335 2084.46 159.335 Q2088.01 159.335 2090.14 156.835 Q2092.29 154.312 2092.29 150.145 L2092.29 149.196 L2088.05 149.196 M2096.55 147.437 L2096.55 162.229 L2092.29 162.229 L2092.29 158.293 Q2090.83 160.655 2088.65 161.789 Q2086.48 162.9 2083.33 162.9 Q2079.35 162.9 2076.99 160.678 Q2074.65 158.432 2074.65 154.682 Q2074.65 150.307 2077.57 148.085 Q2080.51 145.863 2086.32 145.863 L2092.29 145.863 L2092.29 145.446 Q2092.29 142.507 2090.34 140.909 Q2088.42 139.289 2084.93 139.289 Q2082.71 139.289 2080.6 139.821 Q2078.49 140.354 2076.55 141.419 L2076.55 137.483 Q2078.89 136.581 2081.08 136.141 Q2083.28 135.678 2085.37 135.678 Q2090.99 135.678 2093.77 138.594 Q2096.55 141.511 2096.55 147.437 Z" fill="#000000" fill-rule="nonzero" fill-opacity="1" /><path clip-path="url(#clip600)" d="M2125.51 141.28 Q2127.1 138.409 2129.33 137.044 Q2131.55 135.678 2134.56 135.678 Q2138.61 135.678 2140.81 138.525 Q2143.01 141.349 2143.01 146.581 L2143.01 162.229 L2138.72 162.229 L2138.72 146.719 Q2138.72 142.993 2137.4 141.187 Q2136.08 139.382 2133.38 139.382 Q2130.07 139.382 2128.14 141.581 Q2126.22 143.78 2126.22 147.576 L2126.22 162.229 L2121.94 162.229 L2121.94 146.719 Q2121.94 142.969 2120.62 141.187 Q2119.3 139.382 2116.55 139.382 Q2113.28 139.382 2111.36 141.604 Q2109.44 143.803 2109.44 147.576 L2109.44 162.229 L2105.16 162.229 L2105.16 136.303 L2109.44 136.303 L2109.44 140.331 Q2110.9 137.946 2112.94 136.812 Q2114.97 135.678 2117.77 135.678 Q2120.6 135.678 2122.57 137.113 Q2124.56 138.548 2125.51 141.28 Z" fill="#000000" fill-rule="nonzero" fill-opacity="1" /><path clip-path="url(#clip600)" d="M2155.62 158.34 L2155.62 172.09 L2151.34 172.09 L2151.34 136.303 L2155.62 136.303 L2155.62 140.238 Q2156.96 137.923 2159 136.812 Q2161.06 135.678 2163.91 135.678 Q2168.63 135.678 2171.57 139.428 Q2174.53 143.178 2174.53 149.289 Q2174.53 155.4 2171.57 159.15 Q2168.63 162.9 2163.91 162.9 Q2161.06 162.9 2159 161.789 Q2156.96 160.655 2155.62 158.34 M2170.11 149.289 Q2170.11 144.59 2168.17 141.928 Q2166.25 139.243 2162.87 139.243 Q2159.49 139.243 2157.54 141.928 Q2155.62 144.59 2155.62 149.289 Q2155.62 153.988 2157.54 156.673 Q2159.49 159.335 2162.87 159.335 Q2166.25 159.335 2168.17 156.673 Q2170.11 153.988 2170.11 149.289 Z" fill="#000000" fill-rule="nonzero" fill-opacity="1" /><path clip-path="url(#clip600)" d="M2181.59 126.21 L2185.85 126.21 L2185.85 162.229 L2181.59 162.229 L2181.59 126.21 Z" fill="#000000" fill-rule="nonzero" fill-opacity="1" /><path clip-path="url(#clip600)" d="M2194.76 136.303 L2199.02 136.303 L2199.02 162.229 L2194.76 162.229 L2194.76 136.303 M2194.76 126.21 L2199.02 126.21 L2199.02 131.604 L2194.76 131.604 L2194.76 126.21 Z" fill="#000000" fill-rule="nonzero" fill-opacity="1" /><path clip-path="url(#clip600)" d="M2229.49 146.581 L2229.49 162.229 L2225.23 162.229 L2225.23 146.719 Q2225.23 143.039 2223.79 141.21 Q2222.36 139.382 2219.49 139.382 Q2216.04 139.382 2214.05 141.581 Q2212.06 143.78 2212.06 147.576 L2212.06 162.229 L2207.77 162.229 L2207.77 136.303 L2212.06 136.303 L2212.06 140.331 Q2213.58 137.993 2215.64 136.835 Q2217.73 135.678 2220.44 135.678 Q2224.9 135.678 2227.2 138.456 Q2229.49 141.21 2229.49 146.581 Z" fill="#000000" fill-rule="nonzero" fill-opacity="1" /><path clip-path="url(#clip600)" d="M2255.04 148.965 Q2255.04 144.335 2253.12 141.789 Q2251.22 139.243 2247.77 139.243 Q2244.35 139.243 2242.43 141.789 Q2240.53 144.335 2240.53 148.965 Q2240.53 153.571 2242.43 156.118 Q2244.35 158.664 2247.77 158.664 Q2251.22 158.664 2253.12 156.118 Q2255.04 153.571 2255.04 148.965 M2259.3 159.011 Q2259.3 165.631 2256.36 168.849 Q2253.42 172.09 2247.36 172.09 Q2245.11 172.09 2243.12 171.742 Q2241.13 171.418 2239.26 170.724 L2239.26 166.58 Q2241.13 167.599 2242.96 168.085 Q2244.79 168.571 2246.69 168.571 Q2250.88 168.571 2252.96 166.372 Q2255.04 164.196 2255.04 159.775 L2255.04 157.668 Q2253.72 159.96 2251.66 161.094 Q2249.6 162.229 2246.73 162.229 Q2241.96 162.229 2239.05 158.594 Q2236.13 154.96 2236.13 148.965 Q2236.13 142.946 2239.05 139.312 Q2241.96 135.678 2246.73 135.678 Q2249.6 135.678 2251.66 136.812 Q2253.72 137.946 2255.04 140.238 L2255.04 136.303 L2259.3 136.303 L2259.3 159.011 Z" fill="#000000" fill-rule="nonzero" fill-opacity="1" /><polyline clip-path="url(#clip600)" style="stroke:#e26f46; stroke-linecap:round; stroke-linejoin:round; stroke-width:4; stroke-opacity:1; fill:none" points="1549.02,196.789 1689.2,196.789 "/>
<path clip-path="url(#clip600)" d="M1734.81 180.643 L1734.81 185.203 Q1732.15 183.93 1729.79 183.305 Q1727.43 182.68 1725.23 182.68 Q1721.41 182.68 1719.33 184.161 Q1717.27 185.643 1717.27 188.374 Q1717.27 190.666 1718.63 191.847 Q1720.02 193.004 1723.86 193.722 L1726.69 194.3 Q1731.92 195.296 1734.4 197.819 Q1736.9 200.319 1736.9 204.532 Q1736.9 209.555 1733.52 212.147 Q1730.16 214.74 1723.66 214.74 Q1721.2 214.74 1718.42 214.184 Q1715.67 213.629 1712.71 212.541 L1712.71 207.726 Q1715.55 209.323 1718.29 210.133 Q1721.02 210.944 1723.66 210.944 Q1727.66 210.944 1729.84 209.37 Q1732.01 207.796 1732.01 204.879 Q1732.01 202.333 1730.44 200.897 Q1728.89 199.462 1725.32 198.745 L1722.48 198.189 Q1717.24 197.147 1714.91 194.925 Q1712.57 192.703 1712.57 188.745 Q1712.57 184.161 1715.79 181.522 Q1719.03 178.884 1724.7 178.884 Q1727.13 178.884 1729.65 179.323 Q1732.17 179.763 1734.81 180.643 Z" fill="#000000" fill-rule="nonzero" fill-opacity="1" /><path clip-path="url(#clip600)" d="M1748.22 180.782 L1748.22 188.143 L1756.99 188.143 L1756.99 191.453 L1748.22 191.453 L1748.22 205.527 Q1748.22 208.698 1749.07 209.601 Q1749.95 210.504 1752.61 210.504 L1756.99 210.504 L1756.99 214.069 L1752.61 214.069 Q1747.68 214.069 1745.81 212.24 Q1743.93 210.388 1743.93 205.527 L1743.93 191.453 L1740.81 191.453 L1740.81 188.143 L1743.93 188.143 L1743.93 180.782 L1748.22 180.782 Z" fill="#000000" fill-rule="nonzero" fill-opacity="1" /><path clip-path="url(#clip600)" d="M1777.61 192.124 Q1776.9 191.708 1776.04 191.522 Q1775.21 191.314 1774.19 191.314 Q1770.58 191.314 1768.63 193.675 Q1766.71 196.013 1766.71 200.411 L1766.71 214.069 L1762.43 214.069 L1762.43 188.143 L1766.71 188.143 L1766.71 192.171 Q1768.05 189.809 1770.21 188.675 Q1772.36 187.518 1775.44 187.518 Q1775.88 187.518 1776.41 187.587 Q1776.94 187.634 1777.59 187.749 L1777.61 192.124 Z" fill="#000000" fill-rule="nonzero" fill-opacity="1" /><path clip-path="url(#clip600)" d="M1793.86 201.036 Q1788.7 201.036 1786.71 202.217 Q1784.72 203.397 1784.72 206.245 Q1784.72 208.513 1786.2 209.856 Q1787.71 211.175 1790.28 211.175 Q1793.82 211.175 1795.95 208.675 Q1798.1 206.152 1798.1 201.985 L1798.1 201.036 L1793.86 201.036 M1802.36 199.277 L1802.36 214.069 L1798.1 214.069 L1798.1 210.133 Q1796.64 212.495 1794.47 213.629 Q1792.29 214.74 1789.14 214.74 Q1785.16 214.74 1782.8 212.518 Q1780.46 210.272 1780.46 206.522 Q1780.46 202.147 1783.38 199.925 Q1786.32 197.703 1792.13 197.703 L1798.1 197.703 L1798.1 197.286 Q1798.1 194.347 1796.16 192.749 Q1794.23 191.129 1790.74 191.129 Q1788.52 191.129 1786.41 191.661 Q1784.3 192.194 1782.36 193.259 L1782.36 189.323 Q1784.7 188.421 1786.9 187.981 Q1789.1 187.518 1791.18 187.518 Q1796.8 187.518 1799.58 190.434 Q1802.36 193.351 1802.36 199.277 Z" fill="#000000" fill-rule="nonzero" fill-opacity="1" /><path clip-path="url(#clip600)" d="M1815.35 180.782 L1815.35 188.143 L1824.12 188.143 L1824.12 191.453 L1815.35 191.453 L1815.35 205.527 Q1815.35 208.698 1816.2 209.601 Q1817.08 210.504 1819.74 210.504 L1824.12 210.504 L1824.12 214.069 L1819.74 214.069 Q1814.81 214.069 1812.94 212.24 Q1811.06 210.388 1811.06 205.527 L1811.06 191.453 L1807.94 191.453 L1807.94 188.143 L1811.06 188.143 L1811.06 180.782 L1815.35 180.782 Z" fill="#000000" fill-rule="nonzero" fill-opacity="1" /><path clip-path="url(#clip600)" d="M1829.72 188.143 L1833.98 188.143 L1833.98 214.069 L1829.72 214.069 L1829.72 188.143 M1829.72 178.05 L1833.98 178.05 L1833.98 183.444 L1829.72 183.444 L1829.72 178.05 Z" fill="#000000" fill-rule="nonzero" fill-opacity="1" /><path clip-path="url(#clip600)" d="M1856.02 178.05 L1856.02 181.592 L1851.94 181.592 Q1849.65 181.592 1848.75 182.518 Q1847.87 183.444 1847.87 185.851 L1847.87 188.143 L1854.88 188.143 L1854.88 191.453 L1847.87 191.453 L1847.87 214.069 L1843.59 214.069 L1843.59 191.453 L1839.51 191.453 L1839.51 188.143 L1843.59 188.143 L1843.59 186.337 Q1843.59 182.009 1845.6 180.041 Q1847.61 178.05 1851.99 178.05 L1856.02 178.05 Z" fill="#000000" fill-rule="nonzero" fill-opacity="1" /><path clip-path="url(#clip600)" d="M1859.58 188.143 L1863.84 188.143 L1863.84 214.069 L1859.58 214.069 L1859.58 188.143 M1859.58 178.05 L1863.84 178.05 L1863.84 183.444 L1859.58 183.444 L1859.58 178.05 Z" fill="#000000" fill-rule="nonzero" fill-opacity="1" /><path clip-path="url(#clip600)" d="M1894.93 200.041 L1894.93 202.124 L1875.35 202.124 Q1875.62 206.522 1877.98 208.837 Q1880.37 211.129 1884.6 211.129 Q1887.06 211.129 1889.35 210.527 Q1891.66 209.925 1893.93 208.721 L1893.93 212.749 Q1891.64 213.721 1889.23 214.231 Q1886.83 214.74 1884.35 214.74 Q1878.15 214.74 1874.51 211.129 Q1870.9 207.518 1870.9 201.36 Q1870.9 194.995 1874.33 191.268 Q1877.78 187.518 1883.61 187.518 Q1888.84 187.518 1891.87 190.897 Q1894.93 194.254 1894.93 200.041 M1890.67 198.791 Q1890.62 195.296 1888.7 193.212 Q1886.8 191.129 1883.66 191.129 Q1880.09 191.129 1877.94 193.143 Q1875.81 195.157 1875.48 198.814 L1890.67 198.791 Z" fill="#000000" fill-rule="nonzero" fill-opacity="1" /><path clip-path="url(#clip600)" d="M1918.98 192.078 L1918.98 178.05 L1923.24 178.05 L1923.24 214.069 L1918.98 214.069 L1918.98 210.18 Q1917.64 212.495 1915.58 213.629 Q1913.54 214.74 1910.67 214.74 Q1905.97 214.74 1903.01 210.99 Q1900.07 207.24 1900.07 201.129 Q1900.07 195.018 1903.01 191.268 Q1905.97 187.518 1910.67 187.518 Q1913.54 187.518 1915.58 188.652 Q1917.64 189.763 1918.98 192.078 M1904.47 201.129 Q1904.47 205.828 1906.39 208.513 Q1908.33 211.175 1911.71 211.175 Q1915.09 211.175 1917.03 208.513 Q1918.98 205.828 1918.98 201.129 Q1918.98 196.43 1917.03 193.768 Q1915.09 191.083 1911.71 191.083 Q1908.33 191.083 1906.39 193.768 Q1904.47 196.43 1904.47 201.129 Z" fill="#000000" fill-rule="nonzero" fill-opacity="1" /><path clip-path="url(#clip600)" d="M1962.1 192.124 Q1961.39 191.708 1960.53 191.522 Q1959.7 191.314 1958.68 191.314 Q1955.07 191.314 1953.12 193.675 Q1951.2 196.013 1951.2 200.411 L1951.2 214.069 L1946.92 214.069 L1946.92 188.143 L1951.2 188.143 L1951.2 192.171 Q1952.54 189.809 1954.7 188.675 Q1956.85 187.518 1959.93 187.518 Q1960.37 187.518 1960.9 187.587 Q1961.43 187.634 1962.08 187.749 L1962.1 192.124 Z" fill="#000000" fill-rule="nonzero" fill-opacity="1" /><path clip-path="url(#clip600)" d="M1987.71 200.041 L1987.71 202.124 L1968.12 202.124 Q1968.4 206.522 1970.76 208.837 Q1973.15 211.129 1977.38 211.129 Q1979.84 211.129 1982.13 210.527 Q1984.44 209.925 1986.71 208.721 L1986.71 212.749 Q1984.42 213.721 1982.01 214.231 Q1979.6 214.74 1977.13 214.74 Q1970.92 214.74 1967.29 211.129 Q1963.68 207.518 1963.68 201.36 Q1963.68 194.995 1967.1 191.268 Q1970.55 187.518 1976.39 187.518 Q1981.62 187.518 1984.65 190.897 Q1987.71 194.254 1987.71 200.041 M1983.45 198.791 Q1983.4 195.296 1981.48 193.212 Q1979.58 191.129 1976.43 191.129 Q1972.87 191.129 1970.71 193.143 Q1968.59 195.157 1968.26 198.814 L1983.45 198.791 Z" fill="#000000" fill-rule="nonzero" fill-opacity="1" /><path clip-path="url(#clip600)" d="M2011.22 188.907 L2011.22 192.934 Q2009.42 192.009 2007.47 191.546 Q2005.53 191.083 2003.45 191.083 Q2000.27 191.083 1998.68 192.055 Q1997.1 193.027 1997.1 194.971 Q1997.1 196.453 1998.24 197.309 Q1999.37 198.143 2002.8 198.907 L2004.26 199.231 Q2008.79 200.203 2010.69 201.985 Q2012.61 203.745 2012.61 206.916 Q2012.61 210.527 2009.74 212.633 Q2006.9 214.74 2001.9 214.74 Q1999.81 214.74 1997.54 214.323 Q1995.3 213.93 1992.8 213.12 L1992.8 208.721 Q1995.16 209.948 1997.45 210.573 Q1999.74 211.175 2001.99 211.175 Q2005 211.175 2006.62 210.157 Q2008.24 209.115 2008.24 207.24 Q2008.24 205.504 2007.06 204.578 Q2005.9 203.652 2001.94 202.796 L2000.46 202.448 Q1996.5 201.615 1994.74 199.902 Q1992.98 198.166 1992.98 195.157 Q1992.98 191.499 1995.58 189.509 Q1998.17 187.518 2002.94 187.518 Q2005.3 187.518 2007.38 187.865 Q2009.46 188.212 2011.22 188.907 Z" fill="#000000" fill-rule="nonzero" fill-opacity="1" /><path clip-path="url(#clip600)" d="M2031.18 201.036 Q2026.02 201.036 2024.02 202.217 Q2022.03 203.397 2022.03 206.245 Q2022.03 208.513 2023.52 209.856 Q2025.02 211.175 2027.59 211.175 Q2031.13 211.175 2033.26 208.675 Q2035.41 206.152 2035.41 201.985 L2035.41 201.036 L2031.18 201.036 M2039.67 199.277 L2039.67 214.069 L2035.41 214.069 L2035.41 210.133 Q2033.96 212.495 2031.78 213.629 Q2029.6 214.74 2026.46 214.74 Q2022.47 214.74 2020.11 212.518 Q2017.77 210.272 2017.77 206.522 Q2017.77 202.147 2020.69 199.925 Q2023.63 197.703 2029.44 197.703 L2035.41 197.703 L2035.41 197.286 Q2035.41 194.347 2033.47 192.749 Q2031.55 191.129 2028.05 191.129 Q2025.83 191.129 2023.72 191.661 Q2021.62 192.194 2019.67 193.259 L2019.67 189.323 Q2022.01 188.421 2024.21 187.981 Q2026.41 187.518 2028.49 187.518 Q2034.12 187.518 2036.9 190.434 Q2039.67 193.351 2039.67 199.277 Z" fill="#000000" fill-rule="nonzero" fill-opacity="1" /><path clip-path="url(#clip600)" d="M2068.63 193.12 Q2070.23 190.249 2072.45 188.884 Q2074.67 187.518 2077.68 187.518 Q2081.73 187.518 2083.93 190.365 Q2086.13 193.189 2086.13 198.421 L2086.13 214.069 L2081.85 214.069 L2081.85 198.559 Q2081.85 194.833 2080.53 193.027 Q2079.21 191.222 2076.5 191.222 Q2073.19 191.222 2071.27 193.421 Q2069.35 195.62 2069.35 199.416 L2069.35 214.069 L2065.07 214.069 L2065.07 198.559 Q2065.07 194.809 2063.75 193.027 Q2062.43 191.222 2059.67 191.222 Q2056.41 191.222 2054.49 193.444 Q2052.57 195.643 2052.57 199.416 L2052.57 214.069 L2048.28 214.069 L2048.28 188.143 L2052.57 188.143 L2052.57 192.171 Q2054.02 189.786 2056.06 188.652 Q2058.1 187.518 2060.9 187.518 Q2063.72 187.518 2065.69 188.953 Q2067.68 190.388 2068.63 193.12 Z" fill="#000000" fill-rule="nonzero" fill-opacity="1" /><path clip-path="url(#clip600)" d="M2098.75 210.18 L2098.75 223.93 L2094.46 223.93 L2094.46 188.143 L2098.75 188.143 L2098.75 192.078 Q2100.09 189.763 2102.13 188.652 Q2104.19 187.518 2107.03 187.518 Q2111.76 187.518 2114.7 191.268 Q2117.66 195.018 2117.66 201.129 Q2117.66 207.24 2114.7 210.99 Q2111.76 214.74 2107.03 214.74 Q2104.19 214.74 2102.13 213.629 Q2100.09 212.495 2098.75 210.18 M2113.24 201.129 Q2113.24 196.43 2111.29 193.768 Q2109.37 191.083 2105.99 191.083 Q2102.61 191.083 2100.67 193.768 Q2098.75 196.43 2098.75 201.129 Q2098.75 205.828 2100.67 208.513 Q2102.61 211.175 2105.99 211.175 Q2109.37 211.175 2111.29 208.513 Q2113.24 205.828 2113.24 201.129 Z" fill="#000000" fill-rule="nonzero" fill-opacity="1" /><path clip-path="url(#clip600)" d="M2124.72 178.05 L2128.98 178.05 L2128.98 214.069 L2124.72 214.069 L2124.72 178.05 Z" fill="#000000" fill-rule="nonzero" fill-opacity="1" /><path clip-path="url(#clip600)" d="M2137.89 188.143 L2142.15 188.143 L2142.15 214.069 L2137.89 214.069 L2137.89 188.143 M2137.89 178.05 L2142.15 178.05 L2142.15 183.444 L2137.89 183.444 L2137.89 178.05 Z" fill="#000000" fill-rule="nonzero" fill-opacity="1" /><path clip-path="url(#clip600)" d="M2172.61 198.421 L2172.61 214.069 L2168.35 214.069 L2168.35 198.559 Q2168.35 194.879 2166.92 193.05 Q2165.48 191.222 2162.61 191.222 Q2159.16 191.222 2157.17 193.421 Q2155.18 195.62 2155.18 199.416 L2155.18 214.069 L2150.9 214.069 L2150.9 188.143 L2155.18 188.143 L2155.18 192.171 Q2156.71 189.833 2158.77 188.675 Q2160.85 187.518 2163.56 187.518 Q2168.03 187.518 2170.32 190.296 Q2172.61 193.05 2172.61 198.421 Z" fill="#000000" fill-rule="nonzero" fill-opacity="1" /><path clip-path="url(#clip600)" d="M2198.17 200.805 Q2198.17 196.175 2196.25 193.629 Q2194.35 191.083 2190.9 191.083 Q2187.47 191.083 2185.55 193.629 Q2183.65 196.175 2183.65 200.805 Q2183.65 205.411 2185.55 207.958 Q2187.47 210.504 2190.9 210.504 Q2194.35 210.504 2196.25 207.958 Q2198.17 205.411 2198.17 200.805 M2202.43 210.851 Q2202.43 217.471 2199.49 220.689 Q2196.55 223.93 2190.48 223.93 Q2188.24 223.93 2186.25 223.582 Q2184.26 223.258 2182.38 222.564 L2182.38 218.42 Q2184.26 219.439 2186.08 219.925 Q2187.91 220.411 2189.81 220.411 Q2194 220.411 2196.08 218.212 Q2198.17 216.036 2198.17 211.615 L2198.17 209.508 Q2196.85 211.8 2194.79 212.934 Q2192.73 214.069 2189.86 214.069 Q2185.09 214.069 2182.17 210.434 Q2179.26 206.8 2179.26 200.805 Q2179.26 194.786 2182.17 191.152 Q2185.09 187.518 2189.86 187.518 Q2192.73 187.518 2194.79 188.652 Q2196.85 189.786 2198.17 192.078 L2198.17 188.143 L2202.43 188.143 L2202.43 210.851 Z" fill="#000000" fill-rule="nonzero" fill-opacity="1" /></svg>
