<?xml version="1.0" encoding="utf-8"?>
<svg xmlns="http://www.w3.org/2000/svg" xmlns:xlink="http://www.w3.org/1999/xlink" width="600" height="400" viewBox="0 0 2400 1600">
<defs>
  <clipPath id="clip630">
    <rect x="0" y="0" width="2400" height="1600"/>
  </clipPath>
</defs>
<path clip-path="url(#clip630)" d="M0 1600 L2400 1600 L2400 0 L0 0  Z" fill="#ffffff" fill-rule="evenodd" fill-opacity="1"/>
<defs>
  <clipPath id="clip631">
    <rect x="480" y="0" width="1681" height="1600"/>
  </clipPath>
</defs>
<path clip-path="url(#clip630)" d="M219.866 1423.18 L2352.76 1423.18 L2352.76 47.2441 L219.866 47.2441  Z" fill="#ffffff" fill-rule="evenodd" fill-opacity="1"/>
<defs>
  <clipPath id="clip632">
    <rect x="219" y="47" width="2134" height="1377"/>
  </clipPath>
</defs>
<polyline clip-path="url(#clip632)" style="stroke:#000000; stroke-linecap:round; stroke-linejoin:round; stroke-width:2; stroke-opacity:0.1; fill:none" points="278.217,1423.18 278.217,47.2441 "/>
<polyline clip-path="url(#clip632)" style="stroke:#000000; stroke-linecap:round; stroke-linejoin:round; stroke-width:2; stroke-opacity:0.1; fill:none" points="781.76,1423.18 781.76,47.2441 "/>
<polyline clip-path="url(#clip632)" style="stroke:#000000; stroke-linecap:round; stroke-linejoin:round; stroke-width:2; stroke-opacity:0.1; fill:none" points="1285.3,1423.18 1285.3,47.2441 "/>
<polyline clip-path="url(#clip632)" style="stroke:#000000; stroke-linecap:round; stroke-linejoin:round; stroke-width:2; stroke-opacity:0.1; fill:none" points="1788.85,1423.18 1788.85,47.2441 "/>
<polyline clip-path="url(#clip632)" style="stroke:#000000; stroke-linecap:round; stroke-linejoin:round; stroke-width:2; stroke-opacity:0.1; fill:none" points="2292.39,1423.18 2292.39,47.2441 "/>
<polyline clip-path="url(#clip630)" style="stroke:#000000; stroke-linecap:round; stroke-linejoin:round; stroke-width:4; stroke-opacity:1; fill:none" points="219.866,1423.18 2352.76,1423.18 "/>
<polyline clip-path="url(#clip630)" style="stroke:#000000; stroke-linecap:round; stroke-linejoin:round; stroke-width:4; stroke-opacity:1; fill:none" points="278.217,1423.18 278.217,1404.28 "/>
<polyline clip-path="url(#clip630)" style="stroke:#000000; stroke-linecap:round; stroke-linejoin:round; stroke-width:4; stroke-opacity:1; fill:none" points="781.76,1423.18 781.76,1404.28 "/>
<polyline clip-path="url(#clip630)" style="stroke:#000000; stroke-linecap:round; stroke-linejoin:round; stroke-width:4; stroke-opacity:1; fill:none" points="1285.3,1423.18 1285.3,1404.28 "/>
<polyline clip-path="url(#clip630)" style="stroke:#000000; stroke-linecap:round; stroke-linejoin:round; stroke-width:4; stroke-opacity:1; fill:none" points="1788.85,1423.18 1788.85,1404.28 "/>
<polyline clip-path="url(#clip630)" style="stroke:#000000; stroke-linecap:round; stroke-linejoin:round; stroke-width:4; stroke-opacity:1; fill:none" points="2292.39,1423.18 2292.39,1404.28 "/>
<path clip-path="url(#clip630)" d="M278.217 1454.1 Q274.606 1454.1 272.777 1457.66 Q270.972 1461.2 270.972 1468.33 Q270.972 1475.44 272.777 1479.01 Q274.606 1482.55 278.217 1482.55 Q281.851 1482.55 283.657 1479.01 Q285.485 1475.44 285.485 1468.33 Q285.485 1461.2 283.657 1457.66 Q281.851 1454.1 278.217 1454.1 M278.217 1450.39 Q284.027 1450.39 287.083 1455 Q290.161 1459.58 290.161 1468.33 Q290.161 1477.06 287.083 1481.67 Q284.027 1486.25 278.217 1486.25 Q272.407 1486.25 269.328 1481.67 Q266.273 1477.06 266.273 1468.33 Q266.273 1459.58 269.328 1455 Q272.407 1450.39 278.217 1450.39 Z" fill="#000000" fill-rule="nonzero" fill-opacity="1" /><path clip-path="url(#clip630)" d="M745.453 1481.64 L761.772 1481.64 L761.772 1485.58 L739.828 1485.58 L739.828 1481.64 Q742.49 1478.89 747.073 1474.26 Q751.68 1469.61 752.86 1468.27 Q755.105 1465.74 755.985 1464.01 Q756.888 1462.25 756.888 1460.56 Q756.888 1457.8 754.943 1456.07 Q753.022 1454.33 749.92 1454.33 Q747.721 1454.33 745.268 1455.09 Q742.837 1455.86 740.059 1457.41 L740.059 1452.69 Q742.883 1451.55 745.337 1450.97 Q747.791 1450.39 749.828 1450.39 Q755.198 1450.39 758.393 1453.08 Q761.587 1455.77 761.587 1460.26 Q761.587 1462.39 760.777 1464.31 Q759.99 1466.2 757.883 1468.8 Q757.305 1469.47 754.203 1472.69 Q751.101 1475.88 745.453 1481.64 Z" fill="#000000" fill-rule="nonzero" fill-opacity="1" /><path clip-path="url(#clip630)" d="M771.633 1451.02 L789.99 1451.02 L789.99 1454.96 L775.916 1454.96 L775.916 1463.43 Q776.934 1463.08 777.953 1462.92 Q778.971 1462.73 779.99 1462.73 Q785.777 1462.73 789.156 1465.9 Q792.536 1469.08 792.536 1474.49 Q792.536 1480.07 789.064 1483.17 Q785.591 1486.25 779.272 1486.25 Q777.096 1486.25 774.828 1485.88 Q772.582 1485.51 770.175 1484.77 L770.175 1480.07 Q772.258 1481.2 774.48 1481.76 Q776.703 1482.32 779.179 1482.32 Q783.184 1482.32 785.522 1480.21 Q787.86 1478.1 787.86 1474.49 Q787.86 1470.88 785.522 1468.77 Q783.184 1466.67 779.179 1466.67 Q777.304 1466.67 775.429 1467.08 Q773.578 1467.5 771.633 1468.38 L771.633 1451.02 Z" fill="#000000" fill-rule="nonzero" fill-opacity="1" /><path clip-path="url(#clip630)" d="M811.749 1454.1 Q808.138 1454.1 806.309 1457.66 Q804.503 1461.2 804.503 1468.33 Q804.503 1475.44 806.309 1479.01 Q808.138 1482.55 811.749 1482.55 Q815.383 1482.55 817.188 1479.01 Q819.017 1475.44 819.017 1468.33 Q819.017 1461.2 817.188 1457.66 Q815.383 1454.1 811.749 1454.1 M811.749 1450.39 Q817.559 1450.39 820.614 1455 Q823.693 1459.58 823.693 1468.33 Q823.693 1477.06 820.614 1481.67 Q817.559 1486.25 811.749 1486.25 Q805.939 1486.25 802.86 1481.67 Q799.804 1477.06 799.804 1468.33 Q799.804 1459.58 802.86 1455 Q805.939 1450.39 811.749 1450.39 Z" fill="#000000" fill-rule="nonzero" fill-opacity="1" /><path clip-path="url(#clip630)" d="M1244.92 1451.02 L1263.28 1451.02 L1263.28 1454.96 L1249.2 1454.96 L1249.2 1463.43 Q1250.22 1463.08 1251.24 1462.92 Q1252.26 1462.73 1253.28 1462.73 Q1259.07 1462.73 1262.45 1465.9 Q1265.82 1469.08 1265.82 1474.49 Q1265.82 1480.07 1262.35 1483.17 Q1258.88 1486.25 1252.56 1486.25 Q1250.39 1486.25 1248.12 1485.88 Q1245.87 1485.51 1243.46 1484.77 L1243.46 1480.07 Q1245.55 1481.2 1247.77 1481.76 Q1249.99 1482.32 1252.47 1482.32 Q1256.47 1482.32 1258.81 1480.21 Q1261.15 1478.1 1261.15 1474.49 Q1261.15 1470.88 1258.81 1468.77 Q1256.47 1466.67 1252.47 1466.67 Q1250.59 1466.67 1248.72 1467.08 Q1246.87 1467.5 1244.92 1468.38 L1244.92 1451.02 Z" fill="#000000" fill-rule="nonzero" fill-opacity="1" /><path clip-path="url(#clip630)" d="M1285.04 1454.1 Q1281.43 1454.1 1279.6 1457.66 Q1277.79 1461.2 1277.79 1468.33 Q1277.79 1475.44 1279.6 1479.01 Q1281.43 1482.55 1285.04 1482.55 Q1288.67 1482.55 1290.48 1479.01 Q1292.31 1475.44 1292.31 1468.33 Q1292.31 1461.2 1290.48 1457.66 Q1288.67 1454.1 1285.04 1454.1 M1285.04 1450.39 Q1290.85 1450.39 1293.9 1455 Q1296.98 1459.58 1296.98 1468.33 Q1296.98 1477.06 1293.9 1481.67 Q1290.85 1486.25 1285.04 1486.25 Q1279.23 1486.25 1276.15 1481.67 Q1273.09 1477.06 1273.09 1468.33 Q1273.09 1459.58 1276.15 1455 Q1279.23 1450.39 1285.04 1450.39 Z" fill="#000000" fill-rule="nonzero" fill-opacity="1" /><path clip-path="url(#clip630)" d="M1315.2 1454.1 Q1311.59 1454.1 1309.76 1457.66 Q1307.95 1461.2 1307.95 1468.33 Q1307.95 1475.44 1309.76 1479.01 Q1311.59 1482.55 1315.2 1482.55 Q1318.83 1482.55 1320.64 1479.01 Q1322.47 1475.44 1322.47 1468.33 Q1322.47 1461.2 1320.64 1457.66 Q1318.83 1454.1 1315.2 1454.1 M1315.2 1450.39 Q1321.01 1450.39 1324.07 1455 Q1327.14 1459.58 1327.14 1468.33 Q1327.14 1477.06 1324.07 1481.67 Q1321.01 1486.25 1315.2 1486.25 Q1309.39 1486.25 1306.31 1481.67 Q1303.26 1477.06 1303.26 1468.33 Q1303.26 1459.58 1306.31 1455 Q1309.39 1450.39 1315.2 1450.39 Z" fill="#000000" fill-rule="nonzero" fill-opacity="1" /><path clip-path="url(#clip630)" d="M1747.12 1451.02 L1769.35 1451.02 L1769.35 1453.01 L1756.8 1485.58 L1751.91 1485.58 L1763.72 1454.96 L1747.12 1454.96 L1747.12 1451.02 Z" fill="#000000" fill-rule="nonzero" fill-opacity="1" /><path clip-path="url(#clip630)" d="M1778.51 1451.02 L1796.87 1451.02 L1796.87 1454.96 L1782.79 1454.96 L1782.79 1463.43 Q1783.81 1463.08 1784.83 1462.92 Q1785.85 1462.73 1786.87 1462.73 Q1792.66 1462.73 1796.04 1465.9 Q1799.41 1469.08 1799.41 1474.49 Q1799.41 1480.07 1795.94 1483.17 Q1792.47 1486.25 1786.15 1486.25 Q1783.97 1486.25 1781.71 1485.88 Q1779.46 1485.51 1777.05 1484.77 L1777.05 1480.07 Q1779.14 1481.2 1781.36 1481.76 Q1783.58 1482.32 1786.06 1482.32 Q1790.06 1482.32 1792.4 1480.21 Q1794.74 1478.1 1794.74 1474.49 Q1794.74 1470.88 1792.4 1468.77 Q1790.06 1466.67 1786.06 1466.67 Q1784.18 1466.67 1782.31 1467.08 Q1780.46 1467.5 1778.51 1468.38 L1778.51 1451.02 Z" fill="#000000" fill-rule="nonzero" fill-opacity="1" /><path clip-path="url(#clip630)" d="M1818.63 1454.1 Q1815.02 1454.1 1813.19 1457.66 Q1811.38 1461.2 1811.38 1468.33 Q1811.38 1475.44 1813.19 1479.01 Q1815.02 1482.55 1818.63 1482.55 Q1822.26 1482.55 1824.07 1479.01 Q1825.9 1475.44 1825.9 1468.33 Q1825.9 1461.2 1824.07 1457.66 Q1822.26 1454.1 1818.63 1454.1 M1818.63 1450.39 Q1824.44 1450.39 1827.49 1455 Q1830.57 1459.58 1830.57 1468.33 Q1830.57 1477.06 1827.49 1481.67 Q1824.44 1486.25 1818.63 1486.25 Q1812.82 1486.25 1809.74 1481.67 Q1806.68 1477.06 1806.68 1468.33 Q1806.68 1459.58 1809.74 1455 Q1812.82 1450.39 1818.63 1450.39 Z" fill="#000000" fill-rule="nonzero" fill-opacity="1" /><path clip-path="url(#clip630)" d="M2236.92 1481.64 L2244.56 1481.64 L2244.56 1455.28 L2236.25 1456.95 L2236.25 1452.69 L2244.51 1451.02 L2249.19 1451.02 L2249.19 1481.64 L2256.82 1481.64 L2256.82 1485.58 L2236.92 1485.58 L2236.92 1481.64 Z" fill="#000000" fill-rule="nonzero" fill-opacity="1" /><path clip-path="url(#clip630)" d="M2276.27 1454.1 Q2272.66 1454.1 2270.83 1457.66 Q2269.02 1461.2 2269.02 1468.33 Q2269.02 1475.44 2270.83 1479.01 Q2272.66 1482.55 2276.27 1482.55 Q2279.9 1482.55 2281.71 1479.01 Q2283.54 1475.44 2283.54 1468.33 Q2283.54 1461.2 2281.71 1457.66 Q2279.9 1454.1 2276.27 1454.1 M2276.27 1450.39 Q2282.08 1450.39 2285.13 1455 Q2288.21 1459.58 2288.21 1468.33 Q2288.21 1477.06 2285.13 1481.67 Q2282.08 1486.25 2276.27 1486.25 Q2270.46 1486.25 2267.38 1481.67 Q2264.32 1477.06 2264.32 1468.33 Q2264.32 1459.58 2267.38 1455 Q2270.46 1450.39 2276.27 1450.39 Z" fill="#000000" fill-rule="nonzero" fill-opacity="1" /><path clip-path="url(#clip630)" d="M2306.43 1454.1 Q2302.82 1454.1 2300.99 1457.66 Q2299.19 1461.2 2299.19 1468.33 Q2299.19 1475.44 2300.99 1479.01 Q2302.82 1482.55 2306.43 1482.55 Q2310.06 1482.55 2311.87 1479.01 Q2313.7 1475.44 2313.7 1468.33 Q2313.7 1461.2 2311.87 1457.66 Q2310.06 1454.1 2306.43 1454.1 M2306.43 1450.39 Q2312.24 1450.39 2315.3 1455 Q2318.37 1459.58 2318.37 1468.33 Q2318.37 1477.06 2315.3 1481.67 Q2312.24 1486.25 2306.43 1486.25 Q2300.62 1486.25 2297.54 1481.67 Q2294.49 1477.06 2294.49 1468.33 Q2294.49 1459.58 2297.54 1455 Q2300.62 1450.39 2306.43 1450.39 Z" fill="#000000" fill-rule="nonzero" fill-opacity="1" /><path clip-path="url(#clip630)" d="M2336.59 1454.1 Q2332.98 1454.1 2331.15 1457.66 Q2329.35 1461.2 2329.35 1468.33 Q2329.35 1475.44 2331.15 1479.01 Q2332.98 1482.55 2336.59 1482.55 Q2340.23 1482.55 2342.03 1479.01 Q2343.86 1475.44 2343.86 1468.33 Q2343.86 1461.2 2342.03 1457.66 Q2340.23 1454.1 2336.59 1454.1 M2336.59 1450.39 Q2342.4 1450.39 2345.46 1455 Q2348.54 1459.58 2348.54 1468.33 Q2348.54 1477.06 2345.46 1481.67 Q2342.4 1486.25 2336.59 1486.25 Q2330.78 1486.25 2327.7 1481.67 Q2324.65 1477.06 2324.65 1468.33 Q2324.65 1459.58 2327.7 1455 Q2330.78 1450.39 2336.59 1450.39 Z" fill="#000000" fill-rule="nonzero" fill-opacity="1" /><path clip-path="url(#clip630)" d="M1208.19 1520.52 L1248.39 1520.52 L1248.39 1525.93 L1231.52 1525.93 L1231.52 1568.04 L1225.06 1568.04 L1225.06 1525.93 L1208.19 1525.93 L1208.19 1520.52 Z" fill="#000000" fill-rule="nonzero" fill-opacity="1" /><path clip-path="url(#clip630)" d="M1252.33 1532.4 L1258.19 1532.4 L1258.19 1568.04 L1252.33 1568.04 L1252.33 1532.4 M1252.33 1518.52 L1258.19 1518.52 L1258.19 1525.93 L1252.33 1525.93 L1252.33 1518.52 Z" fill="#000000" fill-rule="nonzero" fill-opacity="1" /><path clip-path="url(#clip630)" d="M1298.2 1539.24 Q1300.4 1535.29 1303.45 1533.41 Q1306.51 1531.54 1310.64 1531.54 Q1316.21 1531.54 1319.24 1535.45 Q1322.26 1539.33 1322.26 1546.53 L1322.26 1568.04 L1316.37 1568.04 L1316.37 1546.72 Q1316.37 1541.59 1314.56 1539.11 Q1312.74 1536.63 1309.02 1536.63 Q1304.47 1536.63 1301.83 1539.65 Q1299.19 1542.68 1299.19 1547.9 L1299.19 1568.04 L1293.3 1568.04 L1293.3 1546.72 Q1293.3 1541.56 1291.48 1539.11 Q1289.67 1536.63 1285.88 1536.63 Q1281.39 1536.63 1278.75 1539.68 Q1276.11 1542.71 1276.11 1547.9 L1276.11 1568.04 L1270.22 1568.04 L1270.22 1532.4 L1276.11 1532.4 L1276.11 1537.93 Q1278.12 1534.66 1280.92 1533.1 Q1283.72 1531.54 1287.57 1531.54 Q1291.45 1531.54 1294.16 1533.51 Q1296.89 1535.48 1298.2 1539.24 Z" fill="#000000" fill-rule="nonzero" fill-opacity="1" /><path clip-path="url(#clip630)" d="M1364.43 1548.76 L1364.43 1551.62 L1337.51 1551.62 Q1337.89 1557.67 1341.14 1560.85 Q1344.41 1564 1350.24 1564 Q1353.61 1564 1356.76 1563.17 Q1359.95 1562.35 1363.07 1560.69 L1363.07 1566.23 Q1359.91 1567.57 1356.6 1568.27 Q1353.29 1568.97 1349.89 1568.97 Q1341.36 1568.97 1336.36 1564 Q1331.4 1559.04 1331.4 1550.57 Q1331.4 1541.82 1336.11 1536.69 Q1340.85 1531.54 1348.87 1531.54 Q1356.06 1531.54 1360.23 1536.18 Q1364.43 1540.8 1364.43 1548.76 M1358.58 1547.04 Q1358.51 1542.23 1355.87 1539.37 Q1353.26 1536.5 1348.93 1536.5 Q1344.03 1536.5 1341.07 1539.27 Q1338.14 1542.04 1337.7 1547.07 L1358.58 1547.04 Z" fill="#000000" fill-rule="nonzero" fill-opacity="1" /><polyline clip-path="url(#clip632)" style="stroke:#000000; stroke-linecap:round; stroke-linejoin:round; stroke-width:2; stroke-opacity:0.1; fill:none" points="219.866,1386.61 2352.76,1386.61 "/>
<polyline clip-path="url(#clip632)" style="stroke:#000000; stroke-linecap:round; stroke-linejoin:round; stroke-width:2; stroke-opacity:0.1; fill:none" points="219.866,1004.19 2352.76,1004.19 "/>
<polyline clip-path="url(#clip632)" style="stroke:#000000; stroke-linecap:round; stroke-linejoin:round; stroke-width:2; stroke-opacity:0.1; fill:none" points="219.866,621.776 2352.76,621.776 "/>
<polyline clip-path="url(#clip632)" style="stroke:#000000; stroke-linecap:round; stroke-linejoin:round; stroke-width:2; stroke-opacity:0.1; fill:none" points="219.866,239.36 2352.76,239.36 "/>
<polyline clip-path="url(#clip630)" style="stroke:#000000; stroke-linecap:round; stroke-linejoin:round; stroke-width:4; stroke-opacity:1; fill:none" points="219.866,1423.18 219.866,47.2441 "/>
<polyline clip-path="url(#clip630)" style="stroke:#000000; stroke-linecap:round; stroke-linejoin:round; stroke-width:4; stroke-opacity:1; fill:none" points="219.866,1386.61 238.764,1386.61 "/>
<polyline clip-path="url(#clip630)" style="stroke:#000000; stroke-linecap:round; stroke-linejoin:round; stroke-width:4; stroke-opacity:1; fill:none" points="219.866,1004.19 238.764,1004.19 "/>
<polyline clip-path="url(#clip630)" style="stroke:#000000; stroke-linecap:round; stroke-linejoin:round; stroke-width:4; stroke-opacity:1; fill:none" points="219.866,621.776 238.764,621.776 "/>
<polyline clip-path="url(#clip630)" style="stroke:#000000; stroke-linecap:round; stroke-linejoin:round; stroke-width:4; stroke-opacity:1; fill:none" points="219.866,239.36 238.764,239.36 "/>
<path clip-path="url(#clip630)" d="M126.691 1372.41 Q123.08 1372.41 121.251 1375.97 Q119.445 1379.51 119.445 1386.64 Q119.445 1393.75 121.251 1397.32 Q123.08 1400.86 126.691 1400.86 Q130.325 1400.86 132.13 1397.32 Q133.959 1393.75 133.959 1386.64 Q133.959 1379.51 132.13 1375.97 Q130.325 1372.41 126.691 1372.41 M126.691 1368.7 Q132.501 1368.7 135.556 1373.31 Q138.635 1377.89 138.635 1386.64 Q138.635 1395.37 135.556 1399.98 Q132.501 1404.56 126.691 1404.56 Q120.88 1404.56 117.802 1399.98 Q114.746 1395.37 114.746 1386.64 Q114.746 1377.89 117.802 1373.31 Q120.88 1368.7 126.691 1368.7 Z" fill="#000000" fill-rule="nonzero" fill-opacity="1" /><path clip-path="url(#clip630)" d="M146.853 1398.01 L151.737 1398.01 L151.737 1403.89 L146.853 1403.89 L146.853 1398.01 Z" fill="#000000" fill-rule="nonzero" fill-opacity="1" /><path clip-path="url(#clip630)" d="M171.922 1372.41 Q168.311 1372.41 166.482 1375.97 Q164.677 1379.51 164.677 1386.64 Q164.677 1393.75 166.482 1397.32 Q168.311 1400.86 171.922 1400.86 Q175.556 1400.86 177.362 1397.32 Q179.19 1393.75 179.19 1386.64 Q179.19 1379.51 177.362 1375.97 Q175.556 1372.41 171.922 1372.41 M171.922 1368.7 Q177.732 1368.7 180.788 1373.31 Q183.866 1377.89 183.866 1386.64 Q183.866 1395.37 180.788 1399.98 Q177.732 1404.56 171.922 1404.56 Q166.112 1404.56 163.033 1399.98 Q159.978 1395.37 159.978 1386.64 Q159.978 1377.89 163.033 1373.31 Q166.112 1368.7 171.922 1368.7 Z" fill="#000000" fill-rule="nonzero" fill-opacity="1" /><path clip-path="url(#clip630)" d="M128.288 989.992 Q124.677 989.992 122.848 993.557 Q121.043 997.098 121.043 1004.23 Q121.043 1011.33 122.848 1014.9 Q124.677 1018.44 128.288 1018.44 Q131.922 1018.44 133.728 1014.9 Q135.556 1011.33 135.556 1004.23 Q135.556 997.098 133.728 993.557 Q131.922 989.992 128.288 989.992 M128.288 986.288 Q134.098 986.288 137.154 990.895 Q140.232 995.478 140.232 1004.23 Q140.232 1012.95 137.154 1017.56 Q134.098 1022.14 128.288 1022.14 Q122.478 1022.14 119.399 1017.56 Q116.343 1012.95 116.343 1004.23 Q116.343 995.478 119.399 990.895 Q122.478 986.288 128.288 986.288 Z" fill="#000000" fill-rule="nonzero" fill-opacity="1" /><path clip-path="url(#clip630)" d="M148.45 1015.59 L153.334 1015.59 L153.334 1021.47 L148.45 1021.47 L148.45 1015.59 Z" fill="#000000" fill-rule="nonzero" fill-opacity="1" /><path clip-path="url(#clip630)" d="M167.547 1017.54 L183.866 1017.54 L183.866 1021.47 L161.922 1021.47 L161.922 1017.54 Q164.584 1014.78 169.167 1010.15 Q173.774 1005.5 174.954 1004.16 Q177.2 1001.64 178.079 999.899 Q178.982 998.14 178.982 996.45 Q178.982 993.695 177.038 991.959 Q175.116 990.223 172.014 990.223 Q169.815 990.223 167.362 990.987 Q164.931 991.751 162.153 993.302 L162.153 988.58 Q164.977 987.445 167.431 986.867 Q169.885 986.288 171.922 986.288 Q177.292 986.288 180.487 988.973 Q183.681 991.658 183.681 996.149 Q183.681 998.279 182.871 1000.2 Q182.084 1002.1 179.977 1004.69 Q179.399 1005.36 176.297 1008.58 Q173.195 1011.77 167.547 1017.54 Z" fill="#000000" fill-rule="nonzero" fill-opacity="1" /><path clip-path="url(#clip630)" d="M126.205 607.575 Q122.593 607.575 120.765 611.14 Q118.959 614.681 118.959 621.811 Q118.959 628.917 120.765 632.482 Q122.593 636.024 126.205 636.024 Q129.839 636.024 131.644 632.482 Q133.473 628.917 133.473 621.811 Q133.473 614.681 131.644 611.14 Q129.839 607.575 126.205 607.575 M126.205 603.871 Q132.015 603.871 135.07 608.478 Q138.149 613.061 138.149 621.811 Q138.149 630.538 135.07 635.144 Q132.015 639.728 126.205 639.728 Q120.394 639.728 117.316 635.144 Q114.26 630.538 114.26 621.811 Q114.26 613.061 117.316 608.478 Q120.394 603.871 126.205 603.871 Z" fill="#000000" fill-rule="nonzero" fill-opacity="1" /><path clip-path="url(#clip630)" d="M146.366 633.177 L151.251 633.177 L151.251 639.056 L146.366 639.056 L146.366 633.177 Z" fill="#000000" fill-rule="nonzero" fill-opacity="1" /><path clip-path="url(#clip630)" d="M174.283 608.57 L162.477 627.019 L174.283 627.019 L174.283 608.57 M173.056 604.496 L178.936 604.496 L178.936 627.019 L183.866 627.019 L183.866 630.908 L178.936 630.908 L178.936 639.056 L174.283 639.056 L174.283 630.908 L158.681 630.908 L158.681 626.394 L173.056 604.496 Z" fill="#000000" fill-rule="nonzero" fill-opacity="1" /><path clip-path="url(#clip630)" d="M126.529 225.158 Q122.918 225.158 121.089 228.723 Q119.283 232.265 119.283 239.394 Q119.283 246.501 121.089 250.066 Q122.918 253.607 126.529 253.607 Q130.163 253.607 131.968 250.066 Q133.797 246.501 133.797 239.394 Q133.797 232.265 131.968 228.723 Q130.163 225.158 126.529 225.158 M126.529 221.455 Q132.339 221.455 135.394 226.061 Q138.473 230.644 138.473 239.394 Q138.473 248.121 135.394 252.728 Q132.339 257.311 126.529 257.311 Q120.718 257.311 117.64 252.728 Q114.584 248.121 114.584 239.394 Q114.584 230.644 117.64 226.061 Q120.718 221.455 126.529 221.455 Z" fill="#000000" fill-rule="nonzero" fill-opacity="1" /><path clip-path="url(#clip630)" d="M146.691 250.76 L151.575 250.76 L151.575 256.64 L146.691 256.64 L146.691 250.76 Z" fill="#000000" fill-rule="nonzero" fill-opacity="1" /><path clip-path="url(#clip630)" d="M172.339 237.496 Q169.19 237.496 167.339 239.649 Q165.51 241.802 165.51 245.552 Q165.51 249.278 167.339 251.454 Q169.19 253.607 172.339 253.607 Q175.487 253.607 177.315 251.454 Q179.167 249.278 179.167 245.552 Q179.167 241.802 177.315 239.649 Q175.487 237.496 172.339 237.496 M181.621 222.843 L181.621 227.103 Q179.862 226.269 178.056 225.83 Q176.274 225.39 174.514 225.39 Q169.885 225.39 167.431 228.515 Q165.001 231.64 164.653 237.959 Q166.019 235.945 168.079 234.88 Q170.139 233.792 172.616 233.792 Q177.825 233.792 180.834 236.964 Q183.866 240.112 183.866 245.552 Q183.866 250.876 180.718 254.093 Q177.57 257.311 172.339 257.311 Q166.343 257.311 163.172 252.728 Q160.001 248.121 160.001 239.394 Q160.001 231.2 163.89 226.339 Q167.778 221.455 174.329 221.455 Q176.089 221.455 177.871 221.802 Q179.676 222.149 181.621 222.843 Z" fill="#000000" fill-rule="nonzero" fill-opacity="1" /><path clip-path="url(#clip630)" d="M16.4842 1115.37 L16.4842 1085.33 L21.895 1085.33 L21.895 1108.94 L35.9632 1108.94 L35.9632 1086.31 L41.3741 1086.31 L41.3741 1108.94 L58.5933 1108.94 L58.5933 1084.75 L64.0042 1084.75 L64.0042 1115.37 L16.4842 1115.37 Z" fill="#000000" fill-rule="nonzero" fill-opacity="1" /><path clip-path="url(#clip630)" d="M14.5426 1060.37 Q21.8632 1064.64 29.0246 1066.71 Q36.186 1068.77 43.5384 1068.77 Q50.8908 1068.77 58.1159 1066.71 Q65.3091 1064.61 72.5979 1060.37 L72.5979 1065.46 Q65.1182 1070.24 57.8931 1072.63 Q50.668 1074.98 43.5384 1074.98 Q36.4406 1074.98 29.2474 1072.63 Q22.0542 1070.27 14.5426 1065.46 L14.5426 1060.37 Z" fill="#000000" fill-rule="nonzero" fill-opacity="1" /><path clip-path="url(#clip630)" d="M16.4842 1048.75 L16.4842 1018.71 L21.895 1018.71 L21.895 1042.33 L35.9632 1042.33 L35.9632 1019.7 L41.3741 1019.7 L41.3741 1042.33 L58.5933 1042.33 L58.5933 1018.14 L64.0042 1018.14 L64.0042 1048.75 L16.4842 1048.75 Z" fill="#000000" fill-rule="nonzero" fill-opacity="1" /><path clip-path="url(#clip630)" d="M29.4065 985.098 L34.9447 985.098 Q33.6716 987.58 33.035 990.254 Q32.3984 992.928 32.3984 995.792 Q32.3984 1000.15 33.7352 1002.35 Q35.072 1004.51 37.7456 1004.51 Q39.7826 1004.51 40.9603 1002.95 Q42.1061 1001.39 43.1565 996.683 L43.6021 994.678 Q44.9389 988.44 47.3897 985.83 Q49.8086 983.188 54.1691 983.188 Q59.1344 983.188 62.0308 987.135 Q64.9272 991.05 64.9272 997.925 Q64.9272 1000.79 64.3543 1003.91 Q63.8132 1007 62.6992 1010.43 L56.6518 1010.43 Q58.3387 1007.19 59.198 1004.04 Q60.0256 1000.88 60.0256 997.797 Q60.0256 993.66 58.6251 991.432 Q57.1929 989.204 54.6147 989.204 Q52.2276 989.204 50.9545 990.827 Q49.6813 992.418 48.5037 997.861 L48.0262 999.898 Q46.8804 1005.34 44.5251 1007.76 Q42.138 1010.18 38.0002 1010.18 Q32.9713 1010.18 30.2341 1006.61 Q27.4968 1003.05 27.4968 996.492 Q27.4968 993.246 27.9743 990.381 Q28.4517 987.517 29.4065 985.098 Z" fill="#000000" fill-rule="nonzero" fill-opacity="1" /><path clip-path="url(#clip630)" d="M18.2347 968.07 L28.3562 968.07 L28.3562 956.007 L32.9077 956.007 L32.9077 968.07 L52.2594 968.07 Q56.6199 968.07 57.8613 966.892 Q59.1026 965.682 59.1026 962.022 L59.1026 956.007 L64.0042 956.007 L64.0042 962.022 Q64.0042 968.802 61.4897 971.38 Q58.9434 973.958 52.2594 973.958 L32.9077 973.958 L32.9077 978.255 L28.3562 978.255 L28.3562 973.958 L18.2347 973.958 L18.2347 968.07 Z" fill="#000000" fill-rule="nonzero" fill-opacity="1" /><path clip-path="url(#clip630)" d="M28.3562 948.304 L28.3562 942.448 L64.0042 942.448 L64.0042 948.304 L28.3562 948.304 M14.479 948.304 L14.479 942.448 L21.895 942.448 L21.895 948.304 L14.479 948.304 Z" fill="#000000" fill-rule="nonzero" fill-opacity="1" /><path clip-path="url(#clip630)" d="M35.1993 902.439 Q31.2526 900.243 29.3747 897.187 Q27.4968 894.132 27.4968 889.994 Q27.4968 884.424 31.4117 881.4 Q35.2948 878.377 42.4881 878.377 L64.0042 878.377 L64.0042 884.265 L42.679 884.265 Q37.5546 884.265 35.072 886.079 Q32.5894 887.893 32.5894 891.617 Q32.5894 896.169 35.6131 898.811 Q38.6368 901.452 43.8567 901.452 L64.0042 901.452 L64.0042 907.341 L42.679 907.341 Q37.5228 907.341 35.072 909.155 Q32.5894 910.969 32.5894 914.757 Q32.5894 919.245 35.6449 921.886 Q38.6686 924.528 43.8567 924.528 L64.0042 924.528 L64.0042 930.416 L28.3562 930.416 L28.3562 924.528 L33.8944 924.528 Q30.616 922.523 29.0564 919.722 Q27.4968 916.921 27.4968 913.07 Q27.4968 909.187 29.4702 906.481 Q31.4436 903.744 35.1993 902.439 Z" fill="#000000" fill-rule="nonzero" fill-opacity="1" /><path clip-path="url(#clip630)" d="M46.0847 850.495 Q46.0847 857.593 47.7079 860.33 Q49.3312 863.067 53.2461 863.067 Q56.3653 863.067 58.2114 861.03 Q60.0256 858.961 60.0256 855.428 Q60.0256 850.559 56.5881 847.63 Q53.1188 844.67 47.3897 844.67 L46.0847 844.67 L46.0847 850.495 M43.6657 838.814 L64.0042 838.814 L64.0042 844.67 L58.5933 844.67 Q61.8398 846.675 63.3994 849.667 Q64.9272 852.659 64.9272 856.988 Q64.9272 862.462 61.8716 865.709 Q58.7843 868.924 53.6281 868.924 Q47.6125 868.924 44.5569 864.913 Q41.5014 860.871 41.5014 852.882 L41.5014 844.67 L40.9285 844.67 Q36.8862 844.67 34.6901 847.344 Q32.4621 849.986 32.4621 854.792 Q32.4621 857.847 33.1941 860.744 Q33.9262 863.64 35.3903 866.314 L29.9795 866.314 Q28.7381 863.099 28.1334 860.075 Q27.4968 857.052 27.4968 854.187 Q27.4968 846.453 31.5072 842.633 Q35.5176 838.814 43.6657 838.814 Z" fill="#000000" fill-rule="nonzero" fill-opacity="1" /><path clip-path="url(#clip630)" d="M18.2347 820.958 L28.3562 820.958 L28.3562 808.895 L32.9077 808.895 L32.9077 820.958 L52.2594 820.958 Q56.6199 820.958 57.8613 819.78 Q59.1026 818.571 59.1026 814.911 L59.1026 808.895 L64.0042 808.895 L64.0042 814.911 Q64.0042 821.69 61.4897 824.268 Q58.9434 826.846 52.2594 826.846 L32.9077 826.846 L32.9077 831.143 L28.3562 831.143 L28.3562 826.846 L18.2347 826.846 L18.2347 820.958 Z" fill="#000000" fill-rule="nonzero" fill-opacity="1" /><path clip-path="url(#clip630)" d="M44.7161 770.701 L47.5806 770.701 L47.5806 797.628 Q53.6281 797.246 56.8109 793.999 Q59.9619 790.721 59.9619 784.896 Q59.9619 781.522 59.1344 778.371 Q58.3069 775.189 56.6518 772.069 L62.1899 772.069 Q63.5267 775.22 64.227 778.531 Q64.9272 781.841 64.9272 785.246 Q64.9272 793.776 59.9619 798.774 Q54.9967 803.739 46.5303 803.739 Q37.7774 803.739 32.6531 799.028 Q27.4968 794.286 27.4968 786.265 Q27.4968 779.072 32.1438 774.902 Q36.7589 770.701 44.7161 770.701 M42.9973 776.557 Q38.1912 776.621 35.3266 779.263 Q32.4621 781.873 32.4621 786.201 Q32.4621 791.103 35.2312 794.063 Q38.0002 796.991 43.0292 797.437 L42.9973 776.557 Z" fill="#000000" fill-rule="nonzero" fill-opacity="1" /><path clip-path="url(#clip630)" d="M33.7671 737.631 L14.479 737.631 L14.479 731.774 L64.0042 731.774 L64.0042 737.631 L58.657 737.631 Q61.8398 739.477 63.3994 742.31 Q64.9272 745.111 64.9272 749.057 Q64.9272 755.519 59.771 759.593 Q54.6147 763.635 46.212 763.635 Q37.8093 763.635 32.6531 759.593 Q27.4968 755.519 27.4968 749.057 Q27.4968 745.111 29.0564 742.31 Q30.5842 739.477 33.7671 737.631 M46.212 757.587 Q52.6732 757.587 56.3653 754.946 Q60.0256 752.272 60.0256 747.625 Q60.0256 742.978 56.3653 740.305 Q52.6732 737.631 46.212 737.631 Q39.7508 737.631 36.0905 740.305 Q32.3984 742.978 32.3984 747.625 Q32.3984 752.272 36.0905 754.946 Q39.7508 757.587 46.212 757.587 Z" fill="#000000" fill-rule="nonzero" fill-opacity="1" /><path clip-path="url(#clip630)" d="M57.5111 681.517 Q59.0389 680.371 59.0389 676.934 L59.0389 674.101 L64.0042 674.101 L64.0042 677.634 Q64.0042 683.363 60.9486 685.973 Q57.8294 688.583 51.0818 688.583 L34.2127 688.583 L34.2127 701.951 L28.3562 701.951 L28.3562 669.072 L34.2127 669.072 L34.2127 682.599 L51.4319 682.599 Q56.047 682.599 57.5111 681.517 Z" fill="#000000" fill-rule="nonzero" fill-opacity="1" /><path clip-path="url(#clip630)" d="M43.5384 641.986 L43.5384 624.831 L48.7583 624.831 L48.7583 641.986 L43.5384 641.986 Z" fill="#000000" fill-rule="nonzero" fill-opacity="1" /><path clip-path="url(#clip630)" d="M16.4842 601.118 L16.4842 560.919 L21.895 560.919 L21.895 577.788 L64.0042 577.788 L64.0042 584.249 L21.895 584.249 L21.895 601.118 L16.4842 601.118 Z" fill="#000000" fill-rule="nonzero" fill-opacity="1" /><path clip-path="url(#clip630)" d="M33.8307 543.891 Q33.2578 544.877 33.0032 546.055 Q32.7167 547.201 32.7167 548.601 Q32.7167 553.567 35.9632 556.24 Q39.1779 558.882 45.2253 558.882 L64.0042 558.882 L64.0042 564.77 L28.3562 564.77 L28.3562 558.882 L33.8944 558.882 Q30.6479 557.036 29.0883 554.076 Q27.4968 551.116 27.4968 546.883 Q27.4968 546.278 27.5923 545.546 Q27.656 544.814 27.8151 543.922 L33.8307 543.891 Z" fill="#000000" fill-rule="nonzero" fill-opacity="1" /><path clip-path="url(#clip630)" d="M49.9359 538.352 L28.3562 538.352 L28.3562 532.496 L49.7131 532.496 Q54.7739 532.496 57.3202 530.523 Q59.8346 528.549 59.8346 524.603 Q59.8346 519.86 56.8109 517.123 Q53.7872 514.354 48.5673 514.354 L28.3562 514.354 L28.3562 508.497 L64.0042 508.497 L64.0042 514.354 L58.5296 514.354 Q61.7762 516.486 63.3676 519.319 Q64.9272 522.12 64.9272 525.844 Q64.9272 531.987 61.1078 535.17 Q57.2883 538.352 49.9359 538.352 M27.4968 523.616 L27.4968 523.616 Z" fill="#000000" fill-rule="nonzero" fill-opacity="1" /><path clip-path="url(#clip630)" d="M44.7161 465.943 L47.5806 465.943 L47.5806 492.87 Q53.6281 492.488 56.8109 489.241 Q59.9619 485.963 59.9619 480.138 Q59.9619 476.764 59.1344 473.613 Q58.3069 470.43 56.6518 467.311 L62.1899 467.311 Q63.5267 470.462 64.227 473.772 Q64.9272 477.083 64.9272 480.488 Q64.9272 489.018 59.9619 494.015 Q54.9967 498.981 46.5303 498.981 Q37.7774 498.981 32.6531 494.27 Q27.4968 489.528 27.4968 481.507 Q27.4968 474.313 32.1438 470.144 Q36.7589 465.943 44.7161 465.943 M42.9973 471.799 Q38.1912 471.863 35.3266 474.504 Q32.4621 477.114 32.4621 481.443 Q32.4621 486.345 35.2312 489.305 Q38.0002 492.233 43.0292 492.679 L42.9973 471.799 Z" fill="#000000" fill-rule="nonzero" fill-opacity="1" /><path clip-path="url(#clip630)" d="M57.5111 418.136 Q59.0389 416.99 59.0389 413.553 L59.0389 410.72 L64.0042 410.72 L64.0042 414.253 Q64.0042 419.982 60.9486 422.592 Q57.8294 425.202 51.0818 425.202 L34.2127 425.202 L34.2127 438.57 L28.3562 438.57 L28.3562 405.691 L34.2127 405.691 L34.2127 419.218 L51.4319 419.218 Q56.047 419.218 57.5111 418.136 Z" fill="#000000" fill-rule="nonzero" fill-opacity="1" /><path clip-path="url(#clip630)" d="M14.5426 397.288 L14.5426 392.196 Q22.0542 387.422 29.2474 385.066 Q36.4406 382.679 43.5384 382.679 Q50.668 382.679 57.8931 385.066 Q65.1182 387.422 72.5979 392.196 L72.5979 397.288 Q65.3091 393.055 58.1159 390.986 Q50.8908 388.886 43.5384 388.886 Q36.186 388.886 29.0246 390.986 Q21.8632 393.055 14.5426 397.288 Z" fill="#000000" fill-rule="nonzero" fill-opacity="1" /><path clip-path="url(#clip630)" d="M39.1142 368.547 L39.1142 355.052 L42.7427 355.052 L42.7427 374.085 L39.2416 374.085 Q38.2549 373.003 36.4725 370.998 Q26.7648 360.049 23.7729 360.049 Q21.6722 360.049 20.3991 361.704 Q19.0941 363.359 19.0941 366.065 Q19.0941 367.72 19.667 369.661 Q20.2081 371.603 21.3221 373.894 L17.4072 373.894 Q16.516 371.444 16.0704 369.343 Q15.6248 367.21 15.6248 365.396 Q15.6248 360.781 17.7255 358.012 Q19.8262 355.243 23.2636 355.243 Q27.6878 355.243 36.7271 365.778 Q38.2549 367.561 39.1142 368.547 Z" fill="#000000" fill-rule="nonzero" fill-opacity="1" /><polyline clip-path="url(#clip632)" style="stroke:#009af9; stroke-linecap:round; stroke-linejoin:round; stroke-width:4; stroke-opacity:1; fill:none" points="280.231,1370.94 282.245,91.2124 284.259,182.799 286.274,340.449 288.288,626.912 290.302,909.843 292.316,1039.91 294.33,1115.77 296.344,1180.18 298.359,1223.56 300.373,1245.4 302.387,1302.22 304.401,1338.65 306.415,1347.87 308.43,1353.11 310.444,1354.51 312.458,1358.75 314.472,1370.86 316.486,1372.41 318.5,1372.97 320.515,1374.53 322.529,1375.29 324.543,1374.92 326.557,1375.57 328.571,1375.86 330.585,1375.45 332.6,1374.33 334.614,1374.81 336.628,1373.71 338.642,1373.36 340.656,1373.32 342.67,1373.79 344.685,1373.48 346.699,1372.74 348.713,1372.62 350.727,1373.99 352.741,1373 354.756,1373.76 356.77,1374.26 358.784,1374.48 360.798,1375.21 362.812,1375.45 364.826,1375.36 366.841,1375.61 368.855,1375.02 370.869,1374.18 372.883,1374.68 374.897,1373.52 376.911,1372.64 378.926,1373.6 380.94,1374.9 382.954,1374.89 384.968,1375.14 386.982,1375.25 388.996,1375.31 391.011,1375.06 393.025,1375.84 395.039,1375.29 397.053,1374.42 399.067,1374.42 401.082,1375.17 403.096,1374.62 405.11,1374.83 407.124,1374.12 409.138,1373.95 411.152,1373.97 413.167,1374.05 415.181,1373.37 417.195,1373.32 419.209,1374.13 421.223,1374.33 423.237,1374.29 425.252,1374.67 427.266,1374.9 429.28,1374.95 431.294,1375.01 433.308,1374.88 435.322,1374.85 437.337,1374.89 439.351,1374.94 441.365,1375.06 443.379,1374.76 445.393,1374.46 447.408,1374.11 449.422,1373.9 451.436,1373.89 453.45,1373.68 455.464,1374.29 457.478,1374.11 459.493,1373.92 461.507,1373.37 463.521,1373.27 465.535,1373.47 467.549,1373.34 469.563,1373.26 471.578,1372.89 473.592,1373.12 475.606,1373.29 477.62,1373.39 479.634,1373.33 481.648,1373.62 483.663,1373.59 485.677,1373.86 487.691,1373.81 489.705,1374.04 491.719,1374.05 493.734,1374.1 495.748,1374.23 497.762,1374.4 499.776,1373.99 501.79,1373.92 503.804,1373.75 505.819,1374.07 507.833,1374.32 509.847,1374.48 511.861,1374.58 513.875,1374.63 515.889,1374.37 517.904,1374.63 519.918,1374.86 521.932,1374.5 523.946,1374.64 525.96,1374.85 527.974,1375.22 529.989,1375.6 532.003,1375.16 534.017,1375.1 536.031,1375.12 538.045,1374.96 540.06,1375.43 542.074,1375.61 544.088,1376.09 546.102,1376.28 548.116,1376.13 550.13,1376.27 552.145,1376.37 554.159,1376.37 556.173,1376.47 558.187,1376.38 560.201,1376.35 562.215,1376.54 564.23,1376.64 566.244,1376.65 568.258,1376.28 570.272,1376.38 572.286,1376.49 574.301,1376.43 576.315,1376.34 578.329,1376.1 580.343,1375.84 582.357,1375.58 584.371,1375.72 586.386,1375.83 588.4,1375.56 590.414,1375.8 592.428,1375.97 594.442,1376.16 596.456,1375.86 598.471,1375.6 600.485,1375.59 602.499,1375.38 604.513,1375.11 606.527,1375.62 608.541,1375.54 610.556,1375.66 612.57,1376.03 614.584,1376.13 616.598,1376.02 618.612,1376.05 620.627,1376.2 622.641,1376.03 624.655,1375.83 626.669,1376.12 628.683,1376.13 630.697,1376.35 632.712,1376.12 634.726,1376.08 636.74,1376.22 638.754,1376.27 640.768,1376 642.782,1376.04 644.797,1376.32 646.811,1376.02 648.825,1376.18 650.839,1376.16 652.853,1376.32 654.867,1376.49 656.882,1376.58 658.896,1376.77 660.91,1377.12 662.924,1377.12 664.938,1377.25 666.953,1377.03 668.967,1377.04 670.981,1376.82 672.995,1376.62 675.009,1377.14 677.023,1376.86 679.038,1377.02 681.052,1376.7 683.066,1376.6 685.08,1376.95 687.094,1377.24 689.108,1377.7 691.123,1377.46 693.137,1377.77 695.151,1377.72 697.165,1377.76 699.179,1377.94 701.193,1377.75 703.208,1377.61 705.222,1377.48 707.236,1377.5 709.25,1377.48 711.264,1377.73 713.279,1377.72 715.293,1377.71 717.307,1377.06 719.321,1377.07 721.335,1377.13 723.349,1377.18 725.364,1377.03 727.378,1376.84 729.392,1376.84 731.406,1377.07 733.42,1377.14 735.434,1377.17 737.449,1377.22 739.463,1377.47 741.477,1377.32 743.491,1377.39 745.505,1377.43 747.519,1377.26 749.534,1377.19 751.548,1377.1 753.562,1377.14 755.576,1377.41 757.59,1377.27 759.605,1377.12 761.619,1377.31 763.633,1377 765.647,1377.37 767.661,1377.47 769.675,1377.44 771.69,1377.46 773.704,1377.42 775.718,1377.12 777.732,1376.95 779.746,1377.01 781.76,1377.23 783.775,1377.17 785.789,1377.28 787.803,1376.92 789.817,1377.07 791.831,1376.96 793.845,1377.25 795.86,1377.25 797.874,1377.33 799.888,1377.22 801.902,1377.17 803.916,1377.14 805.931,1376.86 807.945,1376.83 809.959,1376.8 811.973,1377.23 813.987,1377.5 816.001,1377.52 818.016,1377.58 820.03,1377.35 822.044,1377.27 824.058,1377.38 826.072,1377.54 828.086,1377.37 830.101,1377.83 832.115,1377.7 834.129,1377.79 836.143,1377.61 838.157,1377.68 840.171,1378.29 842.186,1378.09 844.2,1378.25 846.214,1378.36 848.228,1378.36 850.242,1378.4 852.257,1378.48 854.271,1378.8 856.285,1379.03 858.299,1379.05 860.313,1379.06 862.327,1379.36 864.342,1379.38 866.356,1379.44 868.37,1379.07 870.384,1379 872.398,1378.78 874.412,1379.11 876.427,1379.14 878.441,1379.04 880.455,1379.08 882.469,1378.93 884.483,1379.03 886.498,1378.98 888.512,1378.81 890.526,1379.04 892.54,1379.06 894.554,1379.19 896.568,1379.21 898.583,1379.3 900.597,1379.29 902.611,1379.37 904.625,1379.39 906.639,1379.36 908.653,1379.41 910.668,1379.4 912.682,1379.4 914.696,1379.41 916.71,1379.42 918.724,1379.18 920.738,1379.39 922.753,1379.54 924.767,1379.99 926.781,1379.95 928.795,1379.93 930.809,1379.7 932.824,1379.72 934.838,1379.64 936.852,1379.49 938.866,1379.34 940.88,1379.34 942.894,1379.15 944.909,1379.2 946.923,1379.43 948.937,1379.57 950.951,1379.42 952.965,1379.48 954.979,1379.21 956.994,1379.2 959.008,1379.19 961.022,1379.34 963.036,1379.41 965.05,1379.17 967.064,1379.17 969.079,1379.26 971.093,1379.58 973.107,1379.25 975.121,1379.26 977.135,1379.3 979.15,1379.67 981.164,1379.51 983.178,1379.6 985.192,1379.51 987.206,1379.3 989.22,1379.39 991.235,1379.22 993.249,1379.23 995.263,1379.23 997.277,1379.13 999.291,1379.07 1001.31,1378.94 1003.32,1379.09 1005.33,1379.34 1007.35,1379.37 1009.36,1379.55 1011.38,1379.79 1013.39,1379.56 1015.4,1379.52 1017.42,1379.78 1019.43,1379.72 1021.45,1379.86 1023.46,1380.02 1025.48,1379.99 1027.49,1380.08 1029.5,1380.1 1031.52,1379.98 1033.53,1380.41 1035.55,1380.57 1037.56,1380.54 1039.57,1380.34 1041.59,1380.1 1043.6,1380.11 1045.62,1380.04 1047.63,1379.93 1049.65,1379.62 1051.66,1379.51 1053.67,1379.7 1055.69,1379.69 1057.7,1379.73 1059.72,1379.92 1061.73,1379.85 1063.74,1379.97 1065.76,1379.8 1067.77,1379.93 1069.79,1379.52 1071.8,1379.87 1073.82,1380.14 1075.83,1380.22 1077.84,1380.29 1079.86,1380.45 1081.87,1380.57 1083.89,1380.63 1085.9,1380.52 1087.91,1380.27 1089.93,1380.31 1091.94,1380.46 1093.96,1380.47 1095.97,1380.69 1097.99,1380.61 1100,1380.86 1102.01,1380.89 1104.03,1381.09 1106.04,1381.07 1108.06,1381.07 1110.07,1380.92 1112.09,1380.93 1114.1,1380.71 1116.11,1380.68 1118.13,1380.83 1120.14,1380.73 1122.16,1380.86 1124.17,1380.95 1126.18,1381 1128.2,1380.91 1130.21,1380.94 1132.23,1381.04 1134.24,1380.92 1136.26,1381 1138.27,1380.84 1140.28,1380.82 1142.3,1380.65 1144.31,1380.62 1146.33,1380.23 1148.34,1380.34 1150.35,1380.45 1152.37,1380.47 1154.38,1380.39 1156.4,1380.35 1158.41,1380.56 1160.43,1380.45 1162.44,1380.34 1164.45,1380.33 1166.47,1380.12 1168.48,1380.01 1170.5,1380.22 1172.51,1380.03 1174.52,1379.96 1176.54,1380.01 1178.55,1379.89 1180.57,1379.84 1182.58,1379.81 1184.6,1379.61 1186.61,1379.61 1188.62,1379.74 1190.64,1379.81 1192.65,1379.87 1194.67,1380.19 1196.68,1380.11 1198.69,1380.24 1200.71,1380.39 1202.72,1380.3 1204.74,1380.28 1206.75,1380.34 1208.77,1380.22 1210.78,1380.27 1212.79,1380.12 1214.81,1380.07 1216.82,1380.09 1218.84,1380.13 1220.85,1380.53 1222.86,1380.5 1224.88,1380.27 1226.89,1380.43 1228.91,1380.62 1230.92,1380.81 1232.94,1380.49 1234.95,1380.61 1236.96,1380.85 1238.98,1380.57 1240.99,1380.48 1243.01,1380.37 1245.02,1380.35 1247.03,1380.6 1249.05,1380.65 1251.06,1380.65 1253.08,1380.74 1255.09,1380.55 1257.11,1380.69 1259.12,1380.77 1261.13,1380.84 1263.15,1380.88 1265.16,1380.64 1267.18,1380.42 1269.19,1380.47 1271.2,1380.38 1273.22,1380.34 1275.23,1380.3 1277.25,1380.25 1279.26,1380.3 1281.28,1380.54 1283.29,1380.56 1285.3,1380.75 1287.32,1380.65 1289.33,1380.7 1291.35,1380.68 1293.36,1380.63 1295.37,1380.75 1297.39,1380.76 1299.4,1380.97 1301.42,1380.74 1303.43,1380.63 1305.45,1380.57 1307.46,1380.49 1309.47,1380.44 1311.49,1380.65 1313.5,1381.04 1315.52,1381.39 1317.53,1381.34 1319.54,1381.44 1321.56,1381.42 1323.57,1381.39 1325.59,1381.67 1327.6,1381.94 1329.62,1381.87 1331.63,1381.79 1333.64,1381.89 1335.66,1381.98 1337.67,1381.97 1339.69,1381.96 1341.7,1381.83 1343.72,1381.61 1345.73,1381.61 1347.74,1381.77 1349.76,1381.67 1351.77,1381.56 1353.79,1381.47 1355.8,1381.52 1357.81,1381.53 1359.83,1381.62 1361.84,1381.77 1363.86,1381.7 1365.87,1381.66 1367.89,1381.64 1369.9,1381.78 1371.91,1381.83 1373.93,1381.79 1375.94,1381.95 1377.96,1381.84 1379.97,1381.56 1381.98,1381.52 1384,1381.54 1386.01,1381.59 1388.03,1381.8 1390.04,1381.76 1392.06,1381.74 1394.07,1381.69 1396.08,1381.38 1398.1,1381.66 1400.11,1381.68 1402.13,1381.87 1404.14,1381.79 1406.15,1381.99 1408.17,1381.78 1410.18,1381.64 1412.2,1381.76 1414.21,1381.75 1416.23,1381.94 1418.24,1381.99 1420.25,1382 1422.27,1382.2 1424.28,1382.37 1426.3,1382.35 1428.31,1382.28 1430.32,1382.21 1432.34,1382.08 1434.35,1382.17 1436.37,1381.87 1438.38,1381.93 1440.4,1382.08 1442.41,1382.37 1444.42,1382.45 1446.44,1382.41 1448.45,1382.37 1450.47,1382.57 1452.48,1382.63 1454.49,1382.55 1456.51,1382.38 1458.52,1382.11 1460.54,1381.94 1462.55,1381.9 1464.57,1382 1466.58,1382.04 1468.59,1382.19 1470.61,1382.1 1472.62,1381.98 1474.64,1381.87 1476.65,1381.99 1478.66,1382.04 1480.68,1382.21 1482.69,1382.44 1484.71,1382.39 1486.72,1382.45 1488.74,1382.5 1490.75,1382.41 1492.76,1382.56 1494.78,1382.66 1496.79,1382.79 1498.81,1382.63 1500.82,1382.73 1502.83,1382.79 1504.85,1383 1506.86,1383.04 1508.88,1383.05 1510.89,1383.09 1512.91,1383.12 1514.92,1383.13 1516.93,1383.16 1518.95,1383.17 1520.96,1383.16 1522.98,1383.1 1524.99,1383.12 1527,1383.05 1529.02,1382.88 1531.03,1382.81 1533.05,1382.85 1535.06,1383.02 1537.08,1382.86 1539.09,1382.9 1541.1,1382.85 1543.12,1382.85 1545.13,1382.7 1547.15,1382.67 1549.16,1382.77 1551.17,1382.73 1553.19,1382.69 1555.2,1382.75 1557.22,1382.89 1559.23,1382.91 1561.25,1382.95 1563.26,1382.97 1565.27,1383.01 1567.29,1382.81 1569.3,1382.85 1571.32,1382.81 1573.33,1382.52 1575.35,1382.71 1577.36,1382.76 1579.37,1382.77 1581.39,1382.86 1583.4,1382.88 1585.42,1382.83 1587.43,1382.91 1589.44,1382.77 1591.46,1382.88 1593.47,1383 1595.49,1382.94 1597.5,1382.89 1599.52,1382.77 1601.53,1382.9 1603.54,1383.02 1605.56,1382.93 1607.57,1382.77 1609.59,1382.95 1611.6,1382.7 1613.61,1382.69 1615.63,1382.52 1617.64,1382.54 1619.66,1382.69 1621.67,1382.5 1623.69,1382.77 1625.7,1382.86 1627.71,1382.88 1629.73,1382.79 1631.74,1382.96 1633.76,1382.86 1635.77,1382.8 1637.78,1382.78 1639.8,1382.54 1641.81,1382.55 1643.83,1382.6 1645.84,1382.63 1647.86,1382.57 1649.87,1382.58 1651.88,1382.68 1653.9,1382.84 1655.91,1382.77 1657.93,1382.68 1659.94,1382.56 1661.95,1382.69 1663.97,1382.58 1665.98,1382.48 1668,1382.18 1670.01,1382.39 1672.03,1382.12 1674.04,1382.21 1676.05,1382.06 1678.07,1382.13 1680.08,1382.04 1682.1,1382.26 1684.11,1382.43 1686.12,1382.43 1688.14,1382.7 1690.15,1382.57 1692.17,1382.5 1694.18,1382.61 1696.2,1382.58 1698.21,1382.64 1700.22,1382.51 1702.24,1382.47 1704.25,1382.34 1706.27,1382.22 1708.28,1382.49 1710.29,1382.64 1712.31,1382.63 1714.32,1382.8 1716.34,1382.8 1718.35,1382.83 1720.37,1383.04 1722.38,1383.01 1724.39,1383.02 1726.41,1382.9 1728.42,1383.05 1730.44,1383.02 1732.45,1382.94 1734.46,1383.12 1736.48,1383.06 1738.49,1383.04 1740.51,1383.06 1742.52,1383.08 1744.54,1382.96 1746.55,1382.85 1748.56,1382.75 1750.58,1382.48 1752.59,1382.58 1754.61,1382.6 1756.62,1382.64 1758.63,1382.69 1760.65,1382.69 1762.66,1382.8 1764.68,1382.77 1766.69,1382.76 1768.71,1382.65 1770.72,1382.69 1772.73,1382.67 1774.75,1382.64 1776.76,1382.56 1778.78,1382.45 1780.79,1382.54 1782.81,1382.47 1784.82,1382.38 1786.83,1382.43 1788.85,1382.48 1790.86,1382.59 1792.88,1382.51 1794.89,1382.45 1796.9,1382.55 1798.92,1382.31 1800.93,1382.73 1802.95,1382.72 1804.96,1382.57 1806.98,1382.42 1808.99,1382.4 1811,1382.38 1813.02,1382.47 1815.03,1382.42 1817.05,1382.39 1819.06,1382.26 1821.07,1382.31 1823.09,1382.13 1825.1,1382.1 1827.12,1382.19 1829.13,1382.19 1831.15,1382.11 1833.16,1382.22 1835.17,1382.32 1837.19,1382.26 1839.2,1382.15 1841.22,1382.15 1843.23,1382.15 1845.24,1382.14 1847.26,1382.16 1849.27,1382.38 1851.29,1382.36 1853.3,1382.57 1855.32,1382.67 1857.33,1382.74 1859.34,1382.72 1861.36,1382.54 1863.37,1382.59 1865.39,1382.61 1867.4,1382.65 1869.41,1382.67 1871.43,1382.53 1873.44,1382.68 1875.46,1382.42 1877.47,1382.52 1879.49,1382.55 1881.5,1382.43 1883.51,1382.34 1885.53,1382.26 1887.54,1382.22 1889.56,1382.15 1891.57,1382.23 1893.58,1381.99 1895.6,1381.88 1897.61,1382.03 1899.63,1382.25 1901.64,1382.12 1903.66,1382.28 1905.67,1382.14 1907.68,1382.04 1909.7,1381.86 1911.71,1382.07 1913.73,1382.1 1915.74,1382.28 1917.75,1382.32 1919.77,1382.42 1921.78,1382.45 1923.8,1382.48 1925.81,1382.51 1927.83,1382.78 1929.84,1382.63 1931.85,1382.76 1933.87,1382.65 1935.88,1382.64 1937.9,1382.57 1939.91,1382.14 1941.92,1382.15 1943.94,1382.19 1945.95,1382.21 1947.97,1382.3 1949.98,1382.17 1952,1382.14 1954.01,1382.11 1956.02,1382.29 1958.04,1382.39 1960.05,1382.4 1962.07,1382.37 1964.08,1382.46 1966.09,1382.57 1968.11,1382.65 1970.12,1382.62 1972.14,1382.32 1974.15,1382.37 1976.17,1382.31 1978.18,1382.4 1980.19,1382.39 1982.21,1382.3 1984.22,1382.49 1986.24,1382.55 1988.25,1382.57 1990.26,1382.5 1992.28,1382.52 1994.29,1382.45 1996.31,1382.34 1998.32,1382.51 2000.34,1382.59 2002.35,1382.55 2004.36,1382.75 2006.38,1382.87 2008.39,1382.91 2010.41,1382.89 2012.42,1382.97 2014.44,1382.81 2016.45,1383.01 2018.46,1383.1 2020.48,1382.91 2022.49,1382.9 2024.51,1382.85 2026.52,1382.97 2028.53,1383.03 2030.55,1383.16 2032.56,1383.14 2034.58,1383.02 2036.59,1383.13 2038.61,1383.19 2040.62,1383.2 2042.63,1383.26 2044.65,1383.43 2046.66,1383.46 2048.68,1383.51 2050.69,1383.28 2052.7,1383.41 2054.72,1383.3 2056.73,1383.03 2058.75,1383.03 2060.76,1383.06 2062.78,1382.97 2064.79,1383.08 2066.8,1382.97 2068.82,1383.2 2070.83,1383.24 2072.85,1383.46 2074.86,1383.46 2076.87,1383.38 2078.89,1383.41 2080.9,1383.45 2082.92,1383.48 2084.93,1383.27 2086.95,1383.39 2088.96,1383.29 2090.97,1383.4 2092.99,1383.41 2095,1383.37 2097.02,1383.28 2099.03,1383.15 2101.04,1383.17 2103.06,1383.22 2105.07,1383.25 2107.09,1383.39 2109.1,1383.46 2111.12,1383.38 2113.13,1383.36 2115.14,1383.44 2117.16,1383.61 2119.17,1383.5 2121.19,1383.41 2123.2,1383.34 2125.21,1383.38 2127.23,1383.44 2129.24,1383.33 2131.26,1383.46 2133.27,1383.43 2135.29,1383.16 2137.3,1383.16 2139.31,1383.17 2141.33,1383.26 2143.34,1383.22 2145.36,1382.92 2147.37,1383.14 2149.38,1383.12 2151.4,1383.29 2153.41,1383.12 2155.43,1383.18 2157.44,1383.27 2159.46,1383.05 2161.47,1383 2163.48,1382.96 2165.5,1383.1 2167.51,1383.11 2169.53,1383.14 2171.54,1383.07 2173.55,1383.18 2175.57,1383.16 2177.58,1383 2179.6,1383.22 2181.61,1383.22 2183.63,1383.08 2185.64,1383.17 2187.65,1383.25 2189.67,1383.37 2191.68,1383.26 2193.7,1383.18 2195.71,1383.28 2197.72,1383.27 2199.74,1383.16 2201.75,1383.05 2203.77,1383.03 2205.78,1383.02 2207.8,1383.12 2209.81,1383.19 2211.82,1383.27 2213.84,1383.07 2215.85,1383.08 2217.87,1383.12 2219.88,1382.91 2221.9,1383 2223.91,1383.22 2225.92,1383.38 2227.94,1383.42 2229.95,1383.43 2231.97,1383.57 2233.98,1383.41 2235.99,1383.45 2238.01,1383.45 2240.02,1383.5 2242.04,1383.44 2244.05,1383.42 2246.07,1383.4 2248.08,1383.29 2250.09,1383.31 2252.11,1383.28 2254.12,1383.38 2256.14,1383.53 2258.15,1383.56 2260.16,1383.52 2262.18,1383.52 2264.19,1383.49 2266.21,1383.49 2268.22,1383.61 2270.24,1383.69 2272.25,1383.62 2274.26,1383.41 2276.28,1383.45 2278.29,1383.54 2280.31,1383.63 2282.32,1383.58 2284.33,1383.62 2286.35,1383.71 2288.36,1383.69 2290.38,1383.66 2292.39,1383.54 "/>
<polyline clip-path="url(#clip632)" style="stroke:#e26f46; stroke-linecap:round; stroke-linejoin:round; stroke-width:4; stroke-opacity:1; fill:none" points="280.231,1369 282.245,86.1857 284.259,205.977 286.274,404.113 288.288,633.859 290.302,812.438 292.316,969.344 294.33,1092.63 296.344,1206.24 298.359,1262.8 300.373,1297.35 302.387,1315.96 304.401,1330.97 306.415,1340.32 308.43,1352.45 310.444,1357.13 312.458,1362.38 314.472,1364.26 316.486,1366.88 318.5,1367.2 320.515,1368.75 322.529,1369.41 324.543,1369.96 326.557,1370.07 328.571,1370.73 330.585,1372.34 332.6,1373.35 334.614,1373.78 336.628,1373.31 338.642,1373.35 340.656,1373.48 342.67,1372.99 344.685,1372.16 346.699,1371.3 348.713,1370.83 350.727,1371.36 352.741,1371.95 354.756,1372.82 356.77,1372.56 358.784,1372.69 360.798,1372.53 362.812,1372.2 364.826,1372.15 366.841,1372.56 368.855,1372.49 370.869,1372.21 372.883,1371.89 374.897,1371.58 376.911,1371.43 378.926,1371.28 380.94,1370.72 382.954,1371.22 384.968,1371.23 386.982,1370.84 388.996,1370.72 391.011,1371.05 393.025,1370.04 395.039,1370.18 397.053,1370.11 399.067,1369.95 401.082,1369.24 403.096,1368.71 405.11,1368.55 407.124,1368.29 409.138,1367.67 411.152,1367.05 413.167,1366.71 415.181,1366.69 417.195,1367.01 419.209,1366.77 421.223,1367.1 423.237,1367.08 425.252,1366.59 427.266,1367.19 429.28,1367.48 431.294,1367.5 433.308,1367.62 435.322,1368.2 437.337,1368.59 439.351,1368.79 441.365,1368.69 443.379,1369.27 445.393,1369.26 447.408,1369.78 449.422,1369.99 451.436,1369.86 453.45,1370.16 455.464,1370.18 457.478,1369.55 459.493,1369.64 461.507,1370.09 463.521,1369.82 465.535,1369.95 467.549,1370.23 469.563,1369.9 471.578,1369.34 473.592,1369.43 475.606,1369.97 477.62,1370.59 479.634,1370.48 481.648,1370.99 483.663,1370.76 485.677,1371.07 487.691,1370.99 489.705,1370.69 491.719,1371.07 493.734,1370.86 495.748,1370.84 497.762,1371.14 499.776,1370.89 501.79,1371.1 503.804,1370.47 505.819,1370.54 507.833,1370.84 509.847,1370.38 511.861,1369.39 513.875,1369.14 515.889,1369.56 517.904,1369.82 519.918,1369.89 521.932,1369.55 523.946,1369.03 525.96,1368.76 527.974,1368.64 529.989,1367.78 532.003,1367.49 534.017,1367.45 536.031,1368.13 538.045,1367.83 540.06,1367.69 542.074,1368.12 544.088,1368.17 546.102,1368.81 548.116,1368.9 550.13,1368.65 552.145,1368.93 554.159,1368.44 556.173,1368.44 558.187,1368.72 560.201,1369.03 562.215,1369.43 564.23,1369.27 566.244,1369.54 568.258,1369.56 570.272,1369.55 572.286,1369.33 574.301,1369.7 576.315,1369.55 578.329,1369.46 580.343,1369.51 582.357,1369.44 584.371,1369.41 586.386,1369.22 588.4,1369.16 590.414,1369.2 592.428,1369.32 594.442,1369.83 596.456,1369.52 598.471,1369.58 600.485,1369.67 602.499,1369.94 604.513,1369.27 606.527,1369.21 608.541,1369.26 610.556,1369.08 612.57,1369.27 614.584,1369.66 616.598,1370.04 618.612,1369.79 620.627,1369.76 622.641,1369.65 624.655,1369.81 626.669,1369.84 628.683,1369.54 630.697,1369.74 632.712,1369.63 634.726,1369.7 636.74,1369.89 638.754,1370.07 640.768,1370.04 642.782,1370.41 644.797,1370.51 646.811,1370.43 648.825,1370.26 650.839,1369.88 652.853,1370.08 654.867,1370.37 656.882,1370.59 658.896,1370.4 660.91,1370.74 662.924,1370.85 664.938,1371.18 666.953,1370.79 668.967,1370.88 670.981,1370.8 672.995,1370.89 675.009,1371.24 677.023,1371.18 679.038,1371.23 681.052,1371.67 683.066,1372.03 685.08,1372.29 687.094,1372.36 689.108,1372.12 691.123,1371.99 693.137,1372.13 695.151,1372.19 697.165,1371.91 699.179,1372.02 701.193,1372.45 703.208,1372.68 705.222,1372.64 707.236,1372.71 709.25,1372.74 711.264,1372.43 713.279,1372.32 715.293,1372.35 717.307,1372.15 719.321,1372.1 721.335,1372.14 723.349,1372.45 725.364,1372.32 727.378,1372.41 729.392,1372.83 731.406,1372.54 733.42,1372.87 735.434,1373.3 737.449,1373.19 739.463,1373.55 741.477,1373.86 743.491,1373.89 745.505,1374.04 747.519,1374.03 749.534,1374.31 751.548,1374.32 753.562,1374.39 755.576,1374.27 757.59,1374.46 759.605,1374.23 761.619,1373.82 763.633,1373.88 765.647,1373.93 767.661,1374.13 769.675,1374.18 771.69,1374.42 773.704,1374.5 775.718,1374.18 777.732,1374.34 779.746,1374.46 781.76,1374.56 783.775,1374.36 785.789,1373.91 787.803,1374.07 789.817,1374.12 791.831,1374.23 793.845,1374.3 795.86,1374.44 797.874,1374.5 799.888,1374.56 801.902,1374.65 803.916,1374.72 805.931,1374.4 807.945,1374.66 809.959,1374.62 811.973,1374.7 813.987,1374.87 816.001,1375.06 818.016,1375.28 820.03,1375.34 822.044,1375.32 824.058,1375.26 826.072,1375.37 828.086,1375.58 830.101,1375.78 832.115,1375.72 834.129,1375.98 836.143,1376.05 838.157,1376.22 840.171,1376.33 842.186,1376.28 844.2,1376.42 846.214,1376.13 848.228,1376.38 850.242,1376.48 852.257,1376.22 854.271,1376.36 856.285,1376.26 858.299,1376.34 860.313,1376.11 862.327,1376.04 864.342,1376.25 866.356,1376.46 868.37,1376.47 870.384,1376.69 872.398,1376.48 874.412,1376.37 876.427,1376.66 878.441,1376.76 880.455,1376.66 882.469,1376.7 884.483,1376.56 886.498,1376.75 888.512,1376.55 890.526,1376.58 892.54,1376.64 894.554,1376.82 896.568,1376.78 898.583,1376.67 900.597,1376.66 902.611,1376.71 904.625,1376.91 906.639,1376.93 908.653,1376.98 910.668,1376.91 912.682,1377.07 914.696,1377.37 916.71,1377.54 918.724,1377.42 920.738,1377.2 922.753,1377.2 924.767,1377.28 926.781,1377.23 928.795,1377.55 930.809,1377.69 932.824,1377.53 934.838,1377.64 936.852,1377.75 938.866,1378.28 940.88,1378.37 942.894,1378.29 944.909,1378.03 946.923,1378.1 948.937,1378.15 950.951,1378.52 952.965,1378.73 954.979,1378.34 956.994,1378.19 959.008,1378.35 961.022,1378.28 963.036,1378.67 965.05,1378.92 967.064,1378.98 969.079,1378.89 971.093,1379.01 973.107,1378.88 975.121,1378.92 977.135,1378.86 979.15,1378.82 981.164,1378.57 983.178,1378.82 985.192,1378.72 987.206,1378.69 989.22,1378.75 991.235,1378.56 993.249,1378.48 995.263,1378.61 997.277,1378.59 999.291,1378.6 1001.31,1378.73 1003.32,1378.91 1005.33,1378.98 1007.35,1378.65 1009.36,1378.87 1011.38,1378.95 1013.39,1379.16 1015.4,1379.38 1017.42,1379.05 1019.43,1379.11 1021.45,1379.23 1023.46,1379.23 1025.48,1379.17 1027.49,1379.3 1029.5,1379.65 1031.52,1379.45 1033.53,1379.4 1035.55,1379.49 1037.56,1379.33 1039.57,1379.46 1041.59,1379.74 1043.6,1379.75 1045.62,1379.8 1047.63,1379.87 1049.65,1380.06 1051.66,1380.07 1053.67,1379.95 1055.69,1380.1 1057.7,1380.24 1059.72,1380.1 1061.73,1380.01 1063.74,1380.3 1065.76,1380.36 1067.77,1380.36 1069.79,1380.67 1071.8,1380.61 1073.82,1380.67 1075.83,1380.52 1077.84,1380.43 1079.86,1380.52 1081.87,1380.51 1083.89,1380.52 1085.9,1380.77 1087.91,1380.83 1089.93,1380.83 1091.94,1380.84 1093.96,1380.81 1095.97,1380.96 1097.99,1380.83 1100,1380.63 1102.01,1380.89 1104.03,1380.92 1106.04,1380.81 1108.06,1380.94 1110.07,1380.72 1112.09,1380.91 1114.1,1380.76 1116.11,1380.38 1118.13,1380.05 1120.14,1379.92 1122.16,1380.28 1124.17,1380.28 1126.18,1380.25 1128.2,1380.61 1130.21,1380.78 1132.23,1380.68 1134.24,1380.66 1136.26,1380.81 1138.27,1381.05 1140.28,1380.83 1142.3,1381.15 1144.31,1381.26 1146.33,1381.26 1148.34,1381.44 1150.35,1381.66 1152.37,1381.39 1154.38,1381.49 1156.4,1381.37 1158.41,1381.38 1160.43,1381.38 1162.44,1381.22 1164.45,1381.09 1166.47,1381.23 1168.48,1381.17 1170.5,1381.25 1172.51,1381.47 1174.52,1381.55 1176.54,1381.61 1178.55,1381.53 1180.57,1381.66 1182.58,1381.67 1184.6,1381.79 1186.61,1381.63 1188.62,1381.65 1190.64,1381.54 1192.65,1381.58 1194.67,1381.48 1196.68,1381.54 1198.69,1381.57 1200.71,1381.47 1202.72,1381.43 1204.74,1381.4 1206.75,1381.38 1208.77,1381.38 1210.78,1381.43 1212.79,1381.3 1214.81,1381.34 1216.82,1381.44 1218.84,1381.33 1220.85,1381.43 1222.86,1381.38 1224.88,1381.33 1226.89,1381.51 1228.91,1381.78 1230.92,1381.85 1232.94,1381.74 1234.95,1381.73 1236.96,1381.67 1238.98,1381.64 1240.99,1381.38 1243.01,1381.36 1245.02,1381.26 1247.03,1381.51 1249.05,1381.52 1251.06,1381.57 1253.08,1381.65 1255.09,1381.32 1257.11,1381.29 1259.12,1381.34 1261.13,1381.62 1263.15,1381.36 1265.16,1381.34 1267.18,1381.31 1269.19,1381.34 1271.2,1381.55 1273.22,1381.61 1275.23,1381.79 1277.25,1381.81 1279.26,1381.79 1281.28,1381.87 1283.29,1381.94 1285.3,1382.07 1287.32,1382.22 1289.33,1382.26 1291.35,1382.32 1293.36,1382.32 1295.37,1382.14 1297.39,1382.29 1299.4,1382.3 1301.42,1382.17 1303.43,1382.16 1305.45,1382.21 1307.46,1382.27 1309.47,1382.36 1311.49,1382.7 1313.5,1382.8 1315.52,1382.6 1317.53,1382.69 1319.54,1382.69 1321.56,1382.72 1323.57,1382.81 1325.59,1382.78 1327.6,1382.75 1329.62,1382.78 1331.63,1382.87 1333.64,1382.83 1335.66,1382.99 1337.67,1382.85 1339.69,1382.81 1341.7,1382.91 1343.72,1382.87 1345.73,1382.77 1347.74,1382.68 1349.76,1382.69 1351.77,1382.83 1353.79,1382.8 1355.8,1382.87 1357.81,1382.97 1359.83,1383.22 1361.84,1383.1 1363.86,1383.2 1365.87,1383.41 1367.89,1383.3 1369.9,1383.18 1371.91,1383.23 1373.93,1383.07 1375.94,1383.09 1377.96,1383.14 1379.97,1383.03 1381.98,1383 1384,1383.12 1386.01,1382.99 1388.03,1383.05 1390.04,1383.01 1392.06,1383.23 1394.07,1383.13 1396.08,1383.1 1398.1,1382.99 1400.11,1382.91 1402.13,1382.91 1404.14,1382.75 1406.15,1382.84 1408.17,1382.77 1410.18,1383.09 1412.2,1383.15 1414.21,1383.27 1416.23,1383.14 1418.24,1383.04 1420.25,1383.02 1422.27,1382.96 1424.28,1383 1426.3,1382.82 1428.31,1382.79 1430.32,1382.76 1432.34,1382.65 1434.35,1382.53 1436.37,1382.6 1438.38,1382.56 1440.4,1382.74 1442.41,1382.68 1444.42,1382.66 1446.44,1382.63 1448.45,1382.75 1450.47,1382.61 1452.48,1382.6 1454.49,1382.57 1456.51,1382.51 1458.52,1382.32 1460.54,1382.13 1462.55,1382.31 1464.57,1382.5 1466.58,1382.45 1468.59,1382.57 1470.61,1382.46 1472.62,1382.64 1474.64,1382.56 1476.65,1382.76 1478.66,1382.85 1480.68,1382.55 1482.69,1382.54 1484.71,1382.49 1486.72,1382.63 1488.74,1382.7 1490.75,1382.76 1492.76,1382.88 1494.78,1382.9 1496.79,1383 1498.81,1382.9 1500.82,1383.12 1502.83,1382.9 1504.85,1382.79 1506.86,1382.65 1508.88,1382.8 1510.89,1382.87 1512.91,1382.98 1514.92,1382.97 1516.93,1382.96 1518.95,1382.94 1520.96,1382.87 1522.98,1382.8 1524.99,1382.76 1527,1382.5 1529.02,1382.74 1531.03,1383.07 1533.05,1383.22 1535.06,1383.18 1537.08,1383.06 1539.09,1383.06 1541.1,1383.21 1543.12,1383.2 1545.13,1383.15 1547.15,1383.19 1549.16,1383.28 1551.17,1383.29 1553.19,1383.29 1555.2,1383.33 1557.22,1383.19 1559.23,1383.07 1561.25,1383.35 1563.26,1383.19 1565.27,1383.36 1567.29,1383.42 1569.3,1383.47 1571.32,1383.48 1573.33,1383.46 1575.35,1383.48 1577.36,1383.48 1579.37,1383.53 1581.39,1383.72 1583.4,1383.79 1585.42,1383.73 1587.43,1383.69 1589.44,1383.74 1591.46,1383.66 1593.47,1383.68 1595.49,1383.74 1597.5,1383.78 1599.52,1383.94 1601.53,1384.11 1603.54,1384.24 1605.56,1384.08 1607.57,1384.08 1609.59,1384.09 1611.6,1383.99 1613.61,1384.01 1615.63,1383.93 1617.64,1383.83 1619.66,1383.82 1621.67,1383.8 1623.69,1383.96 1625.7,1383.97 1627.71,1384 1629.73,1384.06 1631.74,1384.06 1633.76,1384.11 1635.77,1384.18 1637.78,1384.09 1639.8,1383.97 1641.81,1383.94 1643.83,1383.85 1645.84,1383.68 1647.86,1383.66 1649.87,1383.52 1651.88,1383.44 1653.9,1383.38 1655.91,1383.37 1657.93,1383.16 1659.94,1383.33 1661.95,1383.46 1663.97,1383.45 1665.98,1383.47 1668,1383.4 1670.01,1383.26 1672.03,1383 1674.04,1382.87 1676.05,1383.11 1678.07,1383.01 1680.08,1383.09 1682.1,1383.27 1684.11,1383.28 1686.12,1383.38 1688.14,1383.22 1690.15,1383.34 1692.17,1383.19 1694.18,1383.32 1696.2,1383.18 1698.21,1383.36 1700.22,1383.33 1702.24,1383.29 1704.25,1383.42 1706.27,1383.18 1708.28,1383.25 1710.29,1383.5 1712.31,1383.58 1714.32,1383.47 1716.34,1383.37 1718.35,1383.34 1720.37,1383.27 1722.38,1383.19 1724.39,1383.14 1726.41,1382.99 1728.42,1383.2 1730.44,1383.17 1732.45,1383.18 1734.46,1382.93 1736.48,1383.18 1738.49,1383.12 1740.51,1383.15 1742.52,1383.13 1744.54,1383.12 1746.55,1383.24 1748.56,1383.24 1750.58,1383.44 1752.59,1383.45 1754.61,1383.45 1756.62,1383.36 1758.63,1383.38 1760.65,1383.29 1762.66,1383.45 1764.68,1383.44 1766.69,1383.37 1768.71,1383.24 1770.72,1383.33 1772.73,1383.24 1774.75,1383.36 1776.76,1383.3 1778.78,1383.28 1780.79,1382.96 1782.81,1383.18 1784.82,1383.13 1786.83,1383.1 1788.85,1383.39 1790.86,1383.5 1792.88,1383.53 1794.89,1383.39 1796.9,1383.42 1798.92,1383.34 1800.93,1383.44 1802.95,1383.48 1804.96,1383.54 1806.98,1383.69 1808.99,1383.43 1811,1383.6 1813.02,1383.44 1815.03,1383.54 1817.05,1383.44 1819.06,1383.47 1821.07,1383.29 1823.09,1383.26 1825.1,1383.34 1827.12,1383.19 1829.13,1383.24 1831.15,1383.39 1833.16,1383.47 1835.17,1383.26 1837.19,1383.36 1839.2,1383.29 1841.22,1383.24 1843.23,1383.37 1845.24,1383.4 1847.26,1383.48 1849.27,1383.56 1851.29,1383.69 1853.3,1383.56 1855.32,1383.62 1857.33,1383.63 1859.34,1383.62 1861.36,1383.42 1863.37,1383.52 1865.39,1383.48 1867.4,1383.42 1869.41,1383.33 1871.43,1383.38 1873.44,1383.35 1875.46,1383.13 1877.47,1383.31 1879.49,1383.38 1881.5,1383.24 1883.51,1383.3 1885.53,1383.26 1887.54,1383.26 1889.56,1383.41 1891.57,1383.46 1893.58,1383.42 1895.6,1383.4 1897.61,1383.26 1899.63,1383.34 1901.64,1383.34 1903.66,1383.27 1905.67,1383.03 1907.68,1382.99 1909.7,1383.1 1911.71,1382.99 1913.73,1382.97 1915.74,1382.99 1917.75,1383.17 1919.77,1383.28 1921.78,1383.33 1923.8,1383.31 1925.81,1383.16 1927.83,1383.14 1929.84,1383.07 1931.85,1383.08 1933.87,1383.1 1935.88,1383.02 1937.9,1383 1939.91,1383.01 1941.92,1383.06 1943.94,1382.93 1945.95,1382.97 1947.97,1382.91 1949.98,1382.99 1952,1383.14 1954.01,1382.98 1956.02,1383.03 1958.04,1383.17 1960.05,1383.11 1962.07,1383.07 1964.08,1383.18 1966.09,1383.12 1968.11,1383.19 1970.12,1383.26 1972.14,1383.13 1974.15,1383.2 1976.17,1383.08 1978.18,1383.03 1980.19,1383.19 1982.21,1383.22 1984.22,1383.24 1986.24,1383.29 1988.25,1383.3 1990.26,1383.22 1992.28,1383.35 1994.29,1383.39 1996.31,1383.56 1998.32,1383.58 2000.34,1383.65 2002.35,1383.68 2004.36,1383.61 2006.38,1383.54 2008.39,1383.44 2010.41,1383.24 2012.42,1383.11 2014.44,1383 2016.45,1383.19 2018.46,1383.25 2020.48,1383.31 2022.49,1383.18 2024.51,1383.21 2026.52,1383.13 2028.53,1383.2 2030.55,1383.26 2032.56,1383.25 2034.58,1383.14 2036.59,1383.16 2038.61,1383.28 2040.62,1383.38 2042.63,1383.56 2044.65,1383.31 2046.66,1383.27 2048.68,1383.27 2050.69,1383.39 2052.7,1383.38 2054.72,1383.46 2056.73,1383.27 2058.75,1383.25 2060.76,1383.2 2062.78,1383.19 2064.79,1383.4 2066.8,1383.43 2068.82,1383.39 2070.83,1383.53 2072.85,1383.67 2074.86,1383.73 2076.87,1383.67 2078.89,1383.56 2080.9,1383.42 2082.92,1383.49 2084.93,1383.5 2086.95,1383.45 2088.96,1383.38 2090.97,1383.24 2092.99,1383.2 2095,1383.19 2097.02,1383.15 2099.03,1383.04 2101.04,1382.91 2103.06,1383.02 2105.07,1383.26 2107.09,1383.26 2109.1,1383.44 2111.12,1383.42 2113.13,1383.37 2115.14,1383.32 2117.16,1383.22 2119.17,1383.22 2121.19,1382.93 2123.2,1382.86 2125.21,1382.9 2127.23,1383.06 2129.24,1383.2 2131.26,1383.21 2133.27,1383.14 2135.29,1383.08 2137.3,1383.1 2139.31,1383.2 2141.33,1383.2 2143.34,1383.24 2145.36,1383.15 2147.37,1383.1 2149.38,1382.94 2151.4,1382.82 2153.41,1382.82 2155.43,1382.9 2157.44,1382.92 2159.46,1382.95 2161.47,1382.99 2163.48,1382.94 2165.5,1382.93 2167.51,1382.94 2169.53,1382.76 2171.54,1382.85 2173.55,1382.73 2175.57,1382.7 2177.58,1382.56 2179.6,1382.5 2181.61,1382.68 2183.63,1382.96 2185.64,1382.86 2187.65,1382.87 2189.67,1382.98 2191.68,1383.13 2193.7,1382.86 2195.71,1382.93 2197.72,1382.93 2199.74,1382.8 2201.75,1382.42 2203.77,1382.48 2205.78,1382.2 2207.8,1382.14 2209.81,1382.22 2211.82,1382.24 2213.84,1382 2215.85,1381.96 2217.87,1382.11 2219.88,1382.08 2221.9,1382.14 2223.91,1382.28 2225.92,1382.41 2227.94,1382.4 2229.95,1382.47 2231.97,1382.51 2233.98,1382.34 2235.99,1382.58 2238.01,1382.48 2240.02,1382.69 2242.04,1382.63 2244.05,1382.72 2246.07,1382.62 2248.08,1382.63 2250.09,1382.6 2252.11,1382.7 2254.12,1382.73 2256.14,1382.72 2258.15,1382.86 2260.16,1382.82 2262.18,1382.65 2264.19,1382.67 2266.21,1382.65 2268.22,1382.7 2270.24,1382.77 2272.25,1382.73 2274.26,1382.56 2276.28,1382.59 2278.29,1382.56 2280.31,1382.69 2282.32,1382.57 2284.33,1382.56 2286.35,1382.3 2288.36,1382.26 2290.38,1382.12 2292.39,1382.23 "/>
<path clip-path="url(#clip630)" d="M1521.64 248.629 L2281.66 248.629 L2281.66 93.1086 L1521.64 93.1086  Z" fill="#ffffff" fill-rule="evenodd" fill-opacity="1"/>
<polyline clip-path="url(#clip630)" style="stroke:#000000; stroke-linecap:round; stroke-linejoin:round; stroke-width:4; stroke-opacity:1; fill:none" points="1521.64,248.629 2281.66,248.629 2281.66,93.1086 1521.64,93.1086 1521.64,248.629 "/>
<polyline clip-path="url(#clip630)" style="stroke:#009af9; stroke-linecap:round; stroke-linejoin:round; stroke-width:4; stroke-opacity:1; fill:none" points="1545.34,144.949 1687.53,144.949 "/>
<path clip-path="url(#clip630)" d="M1711.23 127.669 L1718.2 127.669 L1727.01 151.187 L1735.88 127.669 L1742.85 127.669 L1742.85 162.229 L1738.29 162.229 L1738.29 131.882 L1729.38 155.585 L1724.68 155.585 L1715.76 131.882 L1715.76 162.229 L1711.23 162.229 L1711.23 127.669 Z" fill="#000000" fill-rule="nonzero" fill-opacity="1" /><path clip-path="url(#clip630)" d="M1751.51 151.997 L1751.51 136.303 L1755.76 136.303 L1755.76 151.835 Q1755.76 155.516 1757.2 157.368 Q1758.63 159.196 1761.51 159.196 Q1764.95 159.196 1766.94 156.997 Q1768.96 154.798 1768.96 151.002 L1768.96 136.303 L1773.22 136.303 L1773.22 162.229 L1768.96 162.229 L1768.96 158.247 Q1767.41 160.608 1765.35 161.766 Q1763.31 162.9 1760.6 162.9 Q1756.13 162.9 1753.82 160.122 Q1751.51 157.344 1751.51 151.997 M1762.22 135.678 L1762.22 135.678 Z" fill="#000000" fill-rule="nonzero" fill-opacity="1" /><path clip-path="url(#clip630)" d="M1781.99 126.21 L1786.25 126.21 L1786.25 162.229 L1781.99 162.229 L1781.99 126.21 Z" fill="#000000" fill-rule="nonzero" fill-opacity="1" /><path clip-path="url(#clip630)" d="M1799.38 128.942 L1799.38 136.303 L1808.15 136.303 L1808.15 139.613 L1799.38 139.613 L1799.38 153.687 Q1799.38 156.858 1800.23 157.761 Q1801.11 158.664 1803.77 158.664 L1808.15 158.664 L1808.15 162.229 L1803.77 162.229 Q1798.84 162.229 1796.97 160.4 Q1795.09 158.548 1795.09 153.687 L1795.09 139.613 L1791.97 139.613 L1791.97 136.303 L1795.09 136.303 L1795.09 128.942 L1799.38 128.942 Z" fill="#000000" fill-rule="nonzero" fill-opacity="1" /><path clip-path="url(#clip630)" d="M1813.75 136.303 L1818.01 136.303 L1818.01 162.229 L1813.75 162.229 L1813.75 136.303 M1813.75 126.21 L1818.01 126.21 L1818.01 131.604 L1813.75 131.604 L1813.75 126.21 Z" fill="#000000" fill-rule="nonzero" fill-opacity="1" /><path clip-path="url(#clip630)" d="M1848.47 146.581 L1848.47 162.229 L1844.21 162.229 L1844.21 146.719 Q1844.21 143.039 1842.78 141.21 Q1841.34 139.382 1838.47 139.382 Q1835.02 139.382 1833.03 141.581 Q1831.04 143.78 1831.04 147.576 L1831.04 162.229 L1826.76 162.229 L1826.76 136.303 L1831.04 136.303 L1831.04 140.331 Q1832.57 137.993 1834.63 136.835 Q1836.71 135.678 1839.42 135.678 Q1843.89 135.678 1846.18 138.456 Q1848.47 141.21 1848.47 146.581 Z" fill="#000000" fill-rule="nonzero" fill-opacity="1" /><path clip-path="url(#clip630)" d="M1867.01 139.289 Q1863.59 139.289 1861.6 141.974 Q1859.61 144.636 1859.61 149.289 Q1859.61 153.942 1861.57 156.627 Q1863.56 159.289 1867.01 159.289 Q1870.42 159.289 1872.41 156.604 Q1874.4 153.918 1874.4 149.289 Q1874.4 144.682 1872.41 141.997 Q1870.42 139.289 1867.01 139.289 M1867.01 135.678 Q1872.57 135.678 1875.74 139.289 Q1878.91 142.9 1878.91 149.289 Q1878.91 155.655 1875.74 159.289 Q1872.57 162.9 1867.01 162.9 Q1861.44 162.9 1858.26 159.289 Q1855.12 155.655 1855.12 149.289 Q1855.12 142.9 1858.26 139.289 Q1861.44 135.678 1867.01 135.678 Z" fill="#000000" fill-rule="nonzero" fill-opacity="1" /><path clip-path="url(#clip630)" d="M1906.16 141.28 Q1907.75 138.409 1909.98 137.044 Q1912.2 135.678 1915.21 135.678 Q1919.26 135.678 1921.46 138.525 Q1923.66 141.349 1923.66 146.581 L1923.66 162.229 L1919.37 162.229 L1919.37 146.719 Q1919.37 142.993 1918.06 141.187 Q1916.74 139.382 1914.03 139.382 Q1910.72 139.382 1908.8 141.581 Q1906.87 143.78 1906.87 147.576 L1906.87 162.229 L1902.59 162.229 L1902.59 146.719 Q1902.59 142.969 1901.27 141.187 Q1899.95 139.382 1897.2 139.382 Q1893.93 139.382 1892.01 141.604 Q1890.09 143.803 1890.09 147.576 L1890.09 162.229 L1885.81 162.229 L1885.81 136.303 L1890.09 136.303 L1890.09 140.331 Q1891.55 137.946 1893.59 136.812 Q1895.62 135.678 1898.43 135.678 Q1901.25 135.678 1903.22 137.113 Q1905.21 138.548 1906.16 141.28 Z" fill="#000000" fill-rule="nonzero" fill-opacity="1" /><path clip-path="url(#clip630)" d="M1932.15 136.303 L1936.41 136.303 L1936.41 162.229 L1932.15 162.229 L1932.15 136.303 M1932.15 126.21 L1936.41 126.21 L1936.41 131.604 L1932.15 131.604 L1932.15 126.21 Z" fill="#000000" fill-rule="nonzero" fill-opacity="1" /><path clip-path="url(#clip630)" d="M1957.11 149.196 Q1951.94 149.196 1949.95 150.377 Q1947.96 151.557 1947.96 154.405 Q1947.96 156.673 1949.44 158.016 Q1950.95 159.335 1953.52 159.335 Q1957.06 159.335 1959.19 156.835 Q1961.34 154.312 1961.34 150.145 L1961.34 149.196 L1957.11 149.196 M1965.6 147.437 L1965.6 162.229 L1961.34 162.229 L1961.34 158.293 Q1959.88 160.655 1957.71 161.789 Q1955.53 162.9 1952.38 162.9 Q1948.4 162.9 1946.04 160.678 Q1943.7 158.432 1943.7 154.682 Q1943.7 150.307 1946.62 148.085 Q1949.56 145.863 1955.37 145.863 L1961.34 145.863 L1961.34 145.446 Q1961.34 142.507 1959.4 140.909 Q1957.48 139.289 1953.98 139.289 Q1951.76 139.289 1949.65 139.821 Q1947.55 140.354 1945.6 141.419 L1945.6 137.483 Q1947.94 136.581 1950.14 136.141 Q1952.34 135.678 1954.42 135.678 Q1960.05 135.678 1962.82 138.594 Q1965.6 141.511 1965.6 147.437 Z" fill="#000000" fill-rule="nonzero" fill-opacity="1" /><path clip-path="url(#clip630)" d="M1974.37 126.21 L1978.63 126.21 L1978.63 162.229 L1974.37 162.229 L1974.37 126.21 Z" fill="#000000" fill-rule="nonzero" fill-opacity="1" /><path clip-path="url(#clip630)" d="M2017.64 140.284 Q2016.92 139.868 2016.06 139.682 Q2015.23 139.474 2014.21 139.474 Q2010.6 139.474 2008.66 141.835 Q2006.74 144.173 2006.74 148.571 L2006.74 162.229 L2002.45 162.229 L2002.45 136.303 L2006.74 136.303 L2006.74 140.331 Q2008.08 137.969 2010.23 136.835 Q2012.38 135.678 2015.46 135.678 Q2015.9 135.678 2016.43 135.747 Q2016.97 135.794 2017.61 135.909 L2017.64 140.284 Z" fill="#000000" fill-rule="nonzero" fill-opacity="1" /><path clip-path="url(#clip630)" d="M2043.24 148.201 L2043.24 150.284 L2023.66 150.284 Q2023.93 154.682 2026.3 156.997 Q2028.68 159.289 2032.92 159.289 Q2035.37 159.289 2037.66 158.687 Q2039.98 158.085 2042.24 156.881 L2042.24 160.909 Q2039.95 161.881 2037.55 162.391 Q2035.14 162.9 2032.66 162.9 Q2026.46 162.9 2022.82 159.289 Q2019.21 155.678 2019.21 149.52 Q2019.21 143.155 2022.64 139.428 Q2026.09 135.678 2031.92 135.678 Q2037.15 135.678 2040.18 139.057 Q2043.24 142.414 2043.24 148.201 M2038.98 146.951 Q2038.93 143.456 2037.01 141.372 Q2035.11 139.289 2031.97 139.289 Q2028.4 139.289 2026.25 141.303 Q2024.12 143.317 2023.8 146.974 L2038.98 146.951 Z" fill="#000000" fill-rule="nonzero" fill-opacity="1" /><path clip-path="url(#clip630)" d="M2066.76 137.067 L2066.76 141.094 Q2064.95 140.169 2063.01 139.706 Q2061.06 139.243 2058.98 139.243 Q2055.81 139.243 2054.21 140.215 Q2052.64 141.187 2052.64 143.131 Q2052.64 144.613 2053.77 145.469 Q2054.91 146.303 2058.33 147.067 L2059.79 147.391 Q2064.33 148.363 2066.23 150.145 Q2068.15 151.905 2068.15 155.076 Q2068.15 158.687 2065.28 160.793 Q2062.43 162.9 2057.43 162.9 Q2055.35 162.9 2053.08 162.483 Q2050.83 162.09 2048.33 161.28 L2048.33 156.881 Q2050.69 158.108 2052.99 158.733 Q2055.28 159.335 2057.52 159.335 Q2060.53 159.335 2062.15 158.317 Q2063.77 157.275 2063.77 155.4 Q2063.77 153.664 2062.59 152.738 Q2061.43 151.812 2057.48 150.956 L2055.99 150.608 Q2052.04 149.775 2050.28 148.062 Q2048.52 146.326 2048.52 143.317 Q2048.52 139.659 2051.11 137.669 Q2053.7 135.678 2058.47 135.678 Q2060.83 135.678 2062.92 136.025 Q2065 136.372 2066.76 137.067 Z" fill="#000000" fill-rule="nonzero" fill-opacity="1" /><path clip-path="url(#clip630)" d="M2086.71 149.196 Q2081.55 149.196 2079.56 150.377 Q2077.57 151.557 2077.57 154.405 Q2077.57 156.673 2079.05 158.016 Q2080.55 159.335 2083.12 159.335 Q2086.67 159.335 2088.8 156.835 Q2090.95 154.312 2090.95 150.145 L2090.95 149.196 L2086.71 149.196 M2095.21 147.437 L2095.21 162.229 L2090.95 162.229 L2090.95 158.293 Q2089.49 160.655 2087.31 161.789 Q2085.14 162.9 2081.99 162.9 Q2078.01 162.9 2075.65 160.678 Q2073.31 158.432 2073.31 154.682 Q2073.31 150.307 2076.23 148.085 Q2079.17 145.863 2084.98 145.863 L2090.95 145.863 L2090.95 145.446 Q2090.95 142.507 2089 140.909 Q2087.08 139.289 2083.59 139.289 Q2081.36 139.289 2079.26 139.821 Q2077.15 140.354 2075.21 141.419 L2075.21 137.483 Q2077.55 136.581 2079.74 136.141 Q2081.94 135.678 2084.03 135.678 Q2089.65 135.678 2092.43 138.594 Q2095.21 141.511 2095.21 147.437 Z" fill="#000000" fill-rule="nonzero" fill-opacity="1" /><path clip-path="url(#clip630)" d="M2124.17 141.28 Q2125.76 138.409 2127.98 137.044 Q2130.21 135.678 2133.22 135.678 Q2137.27 135.678 2139.47 138.525 Q2141.67 141.349 2141.67 146.581 L2141.67 162.229 L2137.38 162.229 L2137.38 146.719 Q2137.38 142.993 2136.06 141.187 Q2134.74 139.382 2132.04 139.382 Q2128.73 139.382 2126.8 141.581 Q2124.88 143.78 2124.88 147.576 L2124.88 162.229 L2120.6 162.229 L2120.6 146.719 Q2120.6 142.969 2119.28 141.187 Q2117.96 139.382 2115.21 139.382 Q2111.94 139.382 2110.02 141.604 Q2108.1 143.803 2108.1 147.576 L2108.1 162.229 L2103.82 162.229 L2103.82 136.303 L2108.1 136.303 L2108.1 140.331 Q2109.56 137.946 2111.6 136.812 Q2113.63 135.678 2116.43 135.678 Q2119.26 135.678 2121.23 137.113 Q2123.22 138.548 2124.17 141.28 Z" fill="#000000" fill-rule="nonzero" fill-opacity="1" /><path clip-path="url(#clip630)" d="M2154.28 158.34 L2154.28 172.09 L2150 172.09 L2150 136.303 L2154.28 136.303 L2154.28 140.238 Q2155.62 137.923 2157.66 136.812 Q2159.72 135.678 2162.57 135.678 Q2167.29 135.678 2170.23 139.428 Q2173.19 143.178 2173.19 149.289 Q2173.19 155.4 2170.23 159.15 Q2167.29 162.9 2162.57 162.9 Q2159.72 162.9 2157.66 161.789 Q2155.62 160.655 2154.28 158.34 M2168.77 149.289 Q2168.77 144.59 2166.83 141.928 Q2164.91 139.243 2161.53 139.243 Q2158.15 139.243 2156.2 141.928 Q2154.28 144.59 2154.28 149.289 Q2154.28 153.988 2156.2 156.673 Q2158.15 159.335 2161.53 159.335 Q2164.91 159.335 2166.83 156.673 Q2168.77 153.988 2168.77 149.289 Z" fill="#000000" fill-rule="nonzero" fill-opacity="1" /><path clip-path="url(#clip630)" d="M2180.25 126.21 L2184.51 126.21 L2184.51 162.229 L2180.25 162.229 L2180.25 126.21 Z" fill="#000000" fill-rule="nonzero" fill-opacity="1" /><path clip-path="url(#clip630)" d="M2193.42 136.303 L2197.68 136.303 L2197.68 162.229 L2193.42 162.229 L2193.42 136.303 M2193.42 126.21 L2197.68 126.21 L2197.68 131.604 L2193.42 131.604 L2193.42 126.21 Z" fill="#000000" fill-rule="nonzero" fill-opacity="1" /><path clip-path="url(#clip630)" d="M2228.15 146.581 L2228.15 162.229 L2223.89 162.229 L2223.89 146.719 Q2223.89 143.039 2222.45 141.21 Q2221.02 139.382 2218.15 139.382 Q2214.7 139.382 2212.71 141.581 Q2210.72 143.78 2210.72 147.576 L2210.72 162.229 L2206.43 162.229 L2206.43 136.303 L2210.72 136.303 L2210.72 140.331 Q2212.24 137.993 2214.3 136.835 Q2216.39 135.678 2219.1 135.678 Q2223.56 135.678 2225.85 138.456 Q2228.15 141.21 2228.15 146.581 Z" fill="#000000" fill-rule="nonzero" fill-opacity="1" /><path clip-path="url(#clip630)" d="M2253.7 148.965 Q2253.7 144.335 2251.78 141.789 Q2249.88 139.243 2246.43 139.243 Q2243.01 139.243 2241.09 141.789 Q2239.19 144.335 2239.19 148.965 Q2239.19 153.571 2241.09 156.118 Q2243.01 158.664 2246.43 158.664 Q2249.88 158.664 2251.78 156.118 Q2253.7 153.571 2253.7 148.965 M2257.96 159.011 Q2257.96 165.631 2255.02 168.849 Q2252.08 172.09 2246.02 172.09 Q2243.77 172.09 2241.78 171.742 Q2239.79 171.418 2237.91 170.724 L2237.91 166.58 Q2239.79 167.599 2241.62 168.085 Q2243.45 168.571 2245.35 168.571 Q2249.53 168.571 2251.62 166.372 Q2253.7 164.196 2253.7 159.775 L2253.7 157.668 Q2252.38 159.96 2250.32 161.094 Q2248.26 162.229 2245.39 162.229 Q2240.62 162.229 2237.71 158.594 Q2234.79 154.96 2234.79 148.965 Q2234.79 142.946 2237.71 139.312 Q2240.62 135.678 2245.39 135.678 Q2248.26 135.678 2250.32 136.812 Q2252.38 137.946 2253.7 140.238 L2253.7 136.303 L2257.96 136.303 L2257.96 159.011 Z" fill="#000000" fill-rule="nonzero" fill-opacity="1" /><polyline clip-path="url(#clip630)" style="stroke:#e26f46; stroke-linecap:round; stroke-linejoin:round; stroke-width:4; stroke-opacity:1; fill:none" points="1545.34,196.789 1687.53,196.789 "/>
<path clip-path="url(#clip630)" d="M1733.47 180.643 L1733.47 185.203 Q1730.81 183.93 1728.45 183.305 Q1726.09 182.68 1723.89 182.68 Q1720.07 182.68 1717.99 184.161 Q1715.93 185.643 1715.93 188.374 Q1715.93 190.666 1717.29 191.847 Q1718.68 193.004 1722.52 193.722 L1725.35 194.3 Q1730.58 195.296 1733.06 197.819 Q1735.56 200.319 1735.56 204.532 Q1735.56 209.555 1732.18 212.147 Q1728.82 214.74 1722.32 214.74 Q1719.86 214.74 1717.08 214.184 Q1714.33 213.629 1711.37 212.541 L1711.37 207.726 Q1714.21 209.323 1716.95 210.133 Q1719.68 210.944 1722.32 210.944 Q1726.32 210.944 1728.5 209.37 Q1730.67 207.796 1730.67 204.879 Q1730.67 202.333 1729.1 200.897 Q1727.55 199.462 1723.98 198.745 L1721.13 198.189 Q1715.9 197.147 1713.57 194.925 Q1711.23 192.703 1711.23 188.745 Q1711.23 184.161 1714.45 181.522 Q1717.69 178.884 1723.36 178.884 Q1725.79 178.884 1728.31 179.323 Q1730.83 179.763 1733.47 180.643 Z" fill="#000000" fill-rule="nonzero" fill-opacity="1" /><path clip-path="url(#clip630)" d="M1746.88 180.782 L1746.88 188.143 L1755.65 188.143 L1755.65 191.453 L1746.88 191.453 L1746.88 205.527 Q1746.88 208.698 1747.73 209.601 Q1748.61 210.504 1751.27 210.504 L1755.65 210.504 L1755.65 214.069 L1751.27 214.069 Q1746.34 214.069 1744.47 212.24 Q1742.59 210.388 1742.59 205.527 L1742.59 191.453 L1739.47 191.453 L1739.47 188.143 L1742.59 188.143 L1742.59 180.782 L1746.88 180.782 Z" fill="#000000" fill-rule="nonzero" fill-opacity="1" /><path clip-path="url(#clip630)" d="M1776.27 192.124 Q1775.56 191.708 1774.7 191.522 Q1773.87 191.314 1772.85 191.314 Q1769.24 191.314 1767.29 193.675 Q1765.37 196.013 1765.37 200.411 L1765.37 214.069 L1761.09 214.069 L1761.09 188.143 L1765.37 188.143 L1765.37 192.171 Q1766.71 189.809 1768.87 188.675 Q1771.02 187.518 1774.1 187.518 Q1774.54 187.518 1775.07 187.587 Q1775.6 187.634 1776.25 187.749 L1776.27 192.124 Z" fill="#000000" fill-rule="nonzero" fill-opacity="1" /><path clip-path="url(#clip630)" d="M1792.52 201.036 Q1787.36 201.036 1785.37 202.217 Q1783.38 203.397 1783.38 206.245 Q1783.38 208.513 1784.86 209.856 Q1786.37 211.175 1788.94 211.175 Q1792.48 211.175 1794.61 208.675 Q1796.76 206.152 1796.76 201.985 L1796.76 201.036 L1792.52 201.036 M1801.02 199.277 L1801.02 214.069 L1796.76 214.069 L1796.76 210.133 Q1795.3 212.495 1793.13 213.629 Q1790.95 214.74 1787.8 214.74 Q1783.82 214.74 1781.46 212.518 Q1779.12 210.272 1779.12 206.522 Q1779.12 202.147 1782.04 199.925 Q1784.98 197.703 1790.79 197.703 L1796.76 197.703 L1796.76 197.286 Q1796.76 194.347 1794.82 192.749 Q1792.89 191.129 1789.4 191.129 Q1787.18 191.129 1785.07 191.661 Q1782.96 192.194 1781.02 193.259 L1781.02 189.323 Q1783.36 188.421 1785.56 187.981 Q1787.75 187.518 1789.84 187.518 Q1795.46 187.518 1798.24 190.434 Q1801.02 193.351 1801.02 199.277 Z" fill="#000000" fill-rule="nonzero" fill-opacity="1" /><path clip-path="url(#clip630)" d="M1814 180.782 L1814 188.143 L1822.78 188.143 L1822.78 191.453 L1814 191.453 L1814 205.527 Q1814 208.698 1814.86 209.601 Q1815.74 210.504 1818.4 210.504 L1822.78 210.504 L1822.78 214.069 L1818.4 214.069 Q1813.47 214.069 1811.6 212.24 Q1809.72 210.388 1809.72 205.527 L1809.72 191.453 L1806.6 191.453 L1806.6 188.143 L1809.72 188.143 L1809.72 180.782 L1814 180.782 Z" fill="#000000" fill-rule="nonzero" fill-opacity="1" /><path clip-path="url(#clip630)" d="M1828.38 188.143 L1832.64 188.143 L1832.64 214.069 L1828.38 214.069 L1828.38 188.143 M1828.38 178.05 L1832.64 178.05 L1832.64 183.444 L1828.38 183.444 L1828.38 178.05 Z" fill="#000000" fill-rule="nonzero" fill-opacity="1" /><path clip-path="url(#clip630)" d="M1854.68 178.05 L1854.68 181.592 L1850.6 181.592 Q1848.31 181.592 1847.41 182.518 Q1846.53 183.444 1846.53 185.851 L1846.53 188.143 L1853.54 188.143 L1853.54 191.453 L1846.53 191.453 L1846.53 214.069 L1842.25 214.069 L1842.25 191.453 L1838.17 191.453 L1838.17 188.143 L1842.25 188.143 L1842.25 186.337 Q1842.25 182.009 1844.26 180.041 Q1846.27 178.05 1850.65 178.05 L1854.68 178.05 Z" fill="#000000" fill-rule="nonzero" fill-opacity="1" /><path clip-path="url(#clip630)" d="M1858.24 188.143 L1862.5 188.143 L1862.5 214.069 L1858.24 214.069 L1858.24 188.143 M1858.24 178.05 L1862.5 178.05 L1862.5 183.444 L1858.24 183.444 L1858.24 178.05 Z" fill="#000000" fill-rule="nonzero" fill-opacity="1" /><path clip-path="url(#clip630)" d="M1893.59 200.041 L1893.59 202.124 L1874 202.124 Q1874.28 206.522 1876.64 208.837 Q1879.03 211.129 1883.26 211.129 Q1885.72 211.129 1888.01 210.527 Q1890.32 209.925 1892.59 208.721 L1892.59 212.749 Q1890.3 213.721 1887.89 214.231 Q1885.49 214.74 1883.01 214.74 Q1876.81 214.74 1873.17 211.129 Q1869.56 207.518 1869.56 201.36 Q1869.56 194.995 1872.99 191.268 Q1876.44 187.518 1882.27 187.518 Q1887.5 187.518 1890.53 190.897 Q1893.59 194.254 1893.59 200.041 M1889.33 198.791 Q1889.28 195.296 1887.36 193.212 Q1885.46 191.129 1882.31 191.129 Q1878.75 191.129 1876.6 193.143 Q1874.47 195.157 1874.14 198.814 L1889.33 198.791 Z" fill="#000000" fill-rule="nonzero" fill-opacity="1" /><path clip-path="url(#clip630)" d="M1917.64 192.078 L1917.64 178.05 L1921.9 178.05 L1921.9 214.069 L1917.64 214.069 L1917.64 210.18 Q1916.3 212.495 1914.24 213.629 Q1912.2 214.74 1909.33 214.74 Q1904.63 214.74 1901.67 210.99 Q1898.73 207.24 1898.73 201.129 Q1898.73 195.018 1901.67 191.268 Q1904.63 187.518 1909.33 187.518 Q1912.2 187.518 1914.24 188.652 Q1916.3 189.763 1917.64 192.078 M1903.12 201.129 Q1903.12 205.828 1905.05 208.513 Q1906.99 211.175 1910.37 211.175 Q1913.75 211.175 1915.69 208.513 Q1917.64 205.828 1917.64 201.129 Q1917.64 196.43 1915.69 193.768 Q1913.75 191.083 1910.37 191.083 Q1906.99 191.083 1905.05 193.768 Q1903.12 196.43 1903.12 201.129 Z" fill="#000000" fill-rule="nonzero" fill-opacity="1" /><path clip-path="url(#clip630)" d="M1960.76 192.124 Q1960.05 191.708 1959.19 191.522 Q1958.36 191.314 1957.34 191.314 Q1953.73 191.314 1951.78 193.675 Q1949.86 196.013 1949.86 200.411 L1949.86 214.069 L1945.58 214.069 L1945.58 188.143 L1949.86 188.143 L1949.86 192.171 Q1951.2 189.809 1953.36 188.675 Q1955.51 187.518 1958.59 187.518 Q1959.03 187.518 1959.56 187.587 Q1960.09 187.634 1960.74 187.749 L1960.76 192.124 Z" fill="#000000" fill-rule="nonzero" fill-opacity="1" /><path clip-path="url(#clip630)" d="M1986.37 200.041 L1986.37 202.124 L1966.78 202.124 Q1967.06 206.522 1969.42 208.837 Q1971.8 211.129 1976.04 211.129 Q1978.49 211.129 1980.79 210.527 Q1983.1 209.925 1985.37 208.721 L1985.37 212.749 Q1983.08 213.721 1980.67 214.231 Q1978.26 214.74 1975.79 214.74 Q1969.58 214.74 1965.95 211.129 Q1962.34 207.518 1962.34 201.36 Q1962.34 194.995 1965.76 191.268 Q1969.21 187.518 1975.05 187.518 Q1980.28 187.518 1983.31 190.897 Q1986.37 194.254 1986.37 200.041 M1982.11 198.791 Q1982.06 195.296 1980.14 193.212 Q1978.24 191.129 1975.09 191.129 Q1971.53 191.129 1969.37 193.143 Q1967.24 195.157 1966.92 198.814 L1982.11 198.791 Z" fill="#000000" fill-rule="nonzero" fill-opacity="1" /><path clip-path="url(#clip630)" d="M2009.88 188.907 L2009.88 192.934 Q2008.08 192.009 2006.13 191.546 Q2004.19 191.083 2002.11 191.083 Q1998.93 191.083 1997.34 192.055 Q1995.76 193.027 1995.76 194.971 Q1995.76 196.453 1996.9 197.309 Q1998.03 198.143 2001.46 198.907 L2002.92 199.231 Q2007.45 200.203 2009.35 201.985 Q2011.27 203.745 2011.27 206.916 Q2011.27 210.527 2008.4 212.633 Q2005.55 214.74 2000.55 214.74 Q1998.47 214.74 1996.2 214.323 Q1993.96 213.93 1991.46 213.12 L1991.46 208.721 Q1993.82 209.948 1996.11 210.573 Q1998.4 211.175 2000.65 211.175 Q2003.66 211.175 2005.28 210.157 Q2006.9 209.115 2006.9 207.24 Q2006.9 205.504 2005.72 204.578 Q2004.56 203.652 2000.6 202.796 L1999.12 202.448 Q1995.16 201.615 1993.4 199.902 Q1991.64 198.166 1991.64 195.157 Q1991.64 191.499 1994.24 189.509 Q1996.83 187.518 2001.6 187.518 Q2003.96 187.518 2006.04 187.865 Q2008.12 188.212 2009.88 188.907 Z" fill="#000000" fill-rule="nonzero" fill-opacity="1" /><path clip-path="url(#clip630)" d="M2029.84 201.036 Q2024.68 201.036 2022.68 202.217 Q2020.69 203.397 2020.69 206.245 Q2020.69 208.513 2022.18 209.856 Q2023.68 211.175 2026.25 211.175 Q2029.79 211.175 2031.92 208.675 Q2034.07 206.152 2034.07 201.985 L2034.07 201.036 L2029.84 201.036 M2038.33 199.277 L2038.33 214.069 L2034.07 214.069 L2034.07 210.133 Q2032.61 212.495 2030.44 213.629 Q2028.26 214.74 2025.11 214.74 Q2021.13 214.74 2018.77 212.518 Q2016.43 210.272 2016.43 206.522 Q2016.43 202.147 2019.35 199.925 Q2022.29 197.703 2028.1 197.703 L2034.07 197.703 L2034.07 197.286 Q2034.07 194.347 2032.13 192.749 Q2030.21 191.129 2026.71 191.129 Q2024.49 191.129 2022.38 191.661 Q2020.28 192.194 2018.33 193.259 L2018.33 189.323 Q2020.67 188.421 2022.87 187.981 Q2025.07 187.518 2027.15 187.518 Q2032.78 187.518 2035.55 190.434 Q2038.33 193.351 2038.33 199.277 Z" fill="#000000" fill-rule="nonzero" fill-opacity="1" /><path clip-path="url(#clip630)" d="M2067.29 193.12 Q2068.89 190.249 2071.11 188.884 Q2073.33 187.518 2076.34 187.518 Q2080.39 187.518 2082.59 190.365 Q2084.79 193.189 2084.79 198.421 L2084.79 214.069 L2080.51 214.069 L2080.51 198.559 Q2080.51 194.833 2079.19 193.027 Q2077.87 191.222 2075.16 191.222 Q2071.85 191.222 2069.93 193.421 Q2068.01 195.62 2068.01 199.416 L2068.01 214.069 L2063.73 214.069 L2063.73 198.559 Q2063.73 194.809 2062.41 193.027 Q2061.09 191.222 2058.33 191.222 Q2055.07 191.222 2053.15 193.444 Q2051.23 195.643 2051.23 199.416 L2051.23 214.069 L2046.94 214.069 L2046.94 188.143 L2051.23 188.143 L2051.23 192.171 Q2052.68 189.786 2054.72 188.652 Q2056.76 187.518 2059.56 187.518 Q2062.38 187.518 2064.35 188.953 Q2066.34 190.388 2067.29 193.12 Z" fill="#000000" fill-rule="nonzero" fill-opacity="1" /><path clip-path="url(#clip630)" d="M2097.41 210.18 L2097.41 223.93 L2093.12 223.93 L2093.12 188.143 L2097.41 188.143 L2097.41 192.078 Q2098.75 189.763 2100.79 188.652 Q2102.85 187.518 2105.69 187.518 Q2110.42 187.518 2113.36 191.268 Q2116.32 195.018 2116.32 201.129 Q2116.32 207.24 2113.36 210.99 Q2110.42 214.74 2105.69 214.74 Q2102.85 214.74 2100.79 213.629 Q2098.75 212.495 2097.41 210.18 M2111.9 201.129 Q2111.9 196.43 2109.95 193.768 Q2108.03 191.083 2104.65 191.083 Q2101.27 191.083 2099.33 193.768 Q2097.41 196.43 2097.41 201.129 Q2097.41 205.828 2099.33 208.513 Q2101.27 211.175 2104.65 211.175 Q2108.03 211.175 2109.95 208.513 Q2111.9 205.828 2111.9 201.129 Z" fill="#000000" fill-rule="nonzero" fill-opacity="1" /><path clip-path="url(#clip630)" d="M2123.38 178.05 L2127.64 178.05 L2127.64 214.069 L2123.38 214.069 L2123.38 178.05 Z" fill="#000000" fill-rule="nonzero" fill-opacity="1" /><path clip-path="url(#clip630)" d="M2136.55 188.143 L2140.81 188.143 L2140.81 214.069 L2136.55 214.069 L2136.55 188.143 M2136.55 178.05 L2140.81 178.05 L2140.81 183.444 L2136.55 183.444 L2136.55 178.05 Z" fill="#000000" fill-rule="nonzero" fill-opacity="1" /><path clip-path="url(#clip630)" d="M2171.27 198.421 L2171.27 214.069 L2167.01 214.069 L2167.01 198.559 Q2167.01 194.879 2165.58 193.05 Q2164.14 191.222 2161.27 191.222 Q2157.82 191.222 2155.83 193.421 Q2153.84 195.62 2153.84 199.416 L2153.84 214.069 L2149.56 214.069 L2149.56 188.143 L2153.84 188.143 L2153.84 192.171 Q2155.37 189.833 2157.43 188.675 Q2159.51 187.518 2162.22 187.518 Q2166.69 187.518 2168.98 190.296 Q2171.27 193.05 2171.27 198.421 Z" fill="#000000" fill-rule="nonzero" fill-opacity="1" /><path clip-path="url(#clip630)" d="M2196.83 200.805 Q2196.83 196.175 2194.91 193.629 Q2193.01 191.083 2189.56 191.083 Q2186.13 191.083 2184.21 193.629 Q2182.31 196.175 2182.31 200.805 Q2182.31 205.411 2184.21 207.958 Q2186.13 210.504 2189.56 210.504 Q2193.01 210.504 2194.91 207.958 Q2196.83 205.411 2196.83 200.805 M2201.09 210.851 Q2201.09 217.471 2198.15 220.689 Q2195.21 223.93 2189.14 223.93 Q2186.9 223.93 2184.91 223.582 Q2182.91 223.258 2181.04 222.564 L2181.04 218.42 Q2182.91 219.439 2184.74 219.925 Q2186.57 220.411 2188.47 220.411 Q2192.66 220.411 2194.74 218.212 Q2196.83 216.036 2196.83 211.615 L2196.83 209.508 Q2195.51 211.8 2193.45 212.934 Q2191.39 214.069 2188.52 214.069 Q2183.75 214.069 2180.83 210.434 Q2177.91 206.8 2177.91 200.805 Q2177.91 194.786 2180.83 191.152 Q2183.75 187.518 2188.52 187.518 Q2191.39 187.518 2193.45 188.652 Q2195.51 189.786 2196.83 192.078 L2196.83 188.143 L2201.09 188.143 L2201.09 210.851 Z" fill="#000000" fill-rule="nonzero" fill-opacity="1" /></svg>
