<?xml version="1.0" encoding="utf-8"?>
<svg xmlns="http://www.w3.org/2000/svg" xmlns:xlink="http://www.w3.org/1999/xlink" width="600" height="400" viewBox="0 0 2400 1600">
<defs>
  <clipPath id="clip540">
    <rect x="0" y="0" width="2400" height="1600"/>
  </clipPath>
</defs>
<path clip-path="url(#clip540)" d="M0 1600 L2400 1600 L2400 0 L0 0  Z" fill="#ffffff" fill-rule="evenodd" fill-opacity="1"/>
<defs>
  <clipPath id="clip541">
    <rect x="480" y="0" width="1681" height="1600"/>
  </clipPath>
</defs>
<path clip-path="url(#clip540)" d="M203.964 1423.18 L2352.76 1423.18 L2352.76 47.2441 L203.964 47.2441  Z" fill="#ffffff" fill-rule="evenodd" fill-opacity="1"/>
<defs>
  <clipPath id="clip542">
    <rect x="203" y="47" width="2150" height="1377"/>
  </clipPath>
</defs>
<polyline clip-path="url(#clip542)" style="stroke:#000000; stroke-linecap:round; stroke-linejoin:round; stroke-width:2; stroke-opacity:0.1; fill:none" points="262.749,1423.18 262.749,47.2441 "/>
<polyline clip-path="url(#clip542)" style="stroke:#000000; stroke-linecap:round; stroke-linejoin:round; stroke-width:2; stroke-opacity:0.1; fill:none" points="770.047,1423.18 770.047,47.2441 "/>
<polyline clip-path="url(#clip542)" style="stroke:#000000; stroke-linecap:round; stroke-linejoin:round; stroke-width:2; stroke-opacity:0.1; fill:none" points="1277.35,1423.18 1277.35,47.2441 "/>
<polyline clip-path="url(#clip542)" style="stroke:#000000; stroke-linecap:round; stroke-linejoin:round; stroke-width:2; stroke-opacity:0.1; fill:none" points="1784.64,1423.18 1784.64,47.2441 "/>
<polyline clip-path="url(#clip542)" style="stroke:#000000; stroke-linecap:round; stroke-linejoin:round; stroke-width:2; stroke-opacity:0.1; fill:none" points="2291.94,1423.18 2291.94,47.2441 "/>
<polyline clip-path="url(#clip540)" style="stroke:#000000; stroke-linecap:round; stroke-linejoin:round; stroke-width:4; stroke-opacity:1; fill:none" points="203.964,1423.18 2352.76,1423.18 "/>
<polyline clip-path="url(#clip540)" style="stroke:#000000; stroke-linecap:round; stroke-linejoin:round; stroke-width:4; stroke-opacity:1; fill:none" points="262.749,1423.18 262.749,1404.28 "/>
<polyline clip-path="url(#clip540)" style="stroke:#000000; stroke-linecap:round; stroke-linejoin:round; stroke-width:4; stroke-opacity:1; fill:none" points="770.047,1423.18 770.047,1404.28 "/>
<polyline clip-path="url(#clip540)" style="stroke:#000000; stroke-linecap:round; stroke-linejoin:round; stroke-width:4; stroke-opacity:1; fill:none" points="1277.35,1423.18 1277.35,1404.28 "/>
<polyline clip-path="url(#clip540)" style="stroke:#000000; stroke-linecap:round; stroke-linejoin:round; stroke-width:4; stroke-opacity:1; fill:none" points="1784.64,1423.18 1784.64,1404.28 "/>
<polyline clip-path="url(#clip540)" style="stroke:#000000; stroke-linecap:round; stroke-linejoin:round; stroke-width:4; stroke-opacity:1; fill:none" points="2291.94,1423.18 2291.94,1404.28 "/>
<path clip-path="url(#clip540)" d="M262.749 1454.1 Q259.138 1454.1 257.309 1457.66 Q255.504 1461.2 255.504 1468.33 Q255.504 1475.44 257.309 1479.01 Q259.138 1482.55 262.749 1482.55 Q266.383 1482.55 268.189 1479.01 Q270.018 1475.44 270.018 1468.33 Q270.018 1461.2 268.189 1457.66 Q266.383 1454.1 262.749 1454.1 M262.749 1450.39 Q268.559 1450.39 271.615 1455 Q274.694 1459.58 274.694 1468.33 Q274.694 1477.06 271.615 1481.67 Q268.559 1486.25 262.749 1486.25 Q256.939 1486.25 253.86 1481.67 Q250.805 1477.06 250.805 1468.33 Q250.805 1459.58 253.86 1455 Q256.939 1450.39 262.749 1450.39 Z" fill="#000000" fill-rule="nonzero" fill-opacity="1" /><path clip-path="url(#clip540)" d="M733.74 1481.64 L750.059 1481.64 L750.059 1485.58 L728.115 1485.58 L728.115 1481.64 Q730.777 1478.89 735.36 1474.26 Q739.966 1469.61 741.147 1468.27 Q743.392 1465.74 744.272 1464.01 Q745.175 1462.25 745.175 1460.56 Q745.175 1457.8 743.23 1456.07 Q741.309 1454.33 738.207 1454.33 Q736.008 1454.33 733.554 1455.09 Q731.124 1455.86 728.346 1457.41 L728.346 1452.69 Q731.17 1451.55 733.624 1450.97 Q736.077 1450.39 738.115 1450.39 Q743.485 1450.39 746.679 1453.08 Q749.874 1455.77 749.874 1460.26 Q749.874 1462.39 749.064 1464.31 Q748.276 1466.2 746.17 1468.8 Q745.591 1469.47 742.489 1472.69 Q739.388 1475.88 733.74 1481.64 Z" fill="#000000" fill-rule="nonzero" fill-opacity="1" /><path clip-path="url(#clip540)" d="M759.92 1451.02 L778.276 1451.02 L778.276 1454.96 L764.202 1454.96 L764.202 1463.43 Q765.221 1463.08 766.239 1462.92 Q767.258 1462.73 768.276 1462.73 Q774.063 1462.73 777.443 1465.9 Q780.823 1469.08 780.823 1474.49 Q780.823 1480.07 777.35 1483.17 Q773.878 1486.25 767.559 1486.25 Q765.383 1486.25 763.114 1485.88 Q760.869 1485.51 758.462 1484.77 L758.462 1480.07 Q760.545 1481.2 762.767 1481.76 Q764.989 1482.32 767.466 1482.32 Q771.471 1482.32 773.809 1480.21 Q776.147 1478.1 776.147 1474.49 Q776.147 1470.88 773.809 1468.77 Q771.471 1466.67 767.466 1466.67 Q765.591 1466.67 763.716 1467.08 Q761.864 1467.5 759.92 1468.38 L759.92 1451.02 Z" fill="#000000" fill-rule="nonzero" fill-opacity="1" /><path clip-path="url(#clip540)" d="M800.035 1454.1 Q796.424 1454.1 794.596 1457.66 Q792.79 1461.2 792.79 1468.33 Q792.79 1475.44 794.596 1479.01 Q796.424 1482.55 800.035 1482.55 Q803.67 1482.55 805.475 1479.01 Q807.304 1475.44 807.304 1468.33 Q807.304 1461.2 805.475 1457.66 Q803.67 1454.1 800.035 1454.1 M800.035 1450.39 Q805.846 1450.39 808.901 1455 Q811.98 1459.58 811.98 1468.33 Q811.98 1477.06 808.901 1481.67 Q805.846 1486.25 800.035 1486.25 Q794.225 1486.25 791.147 1481.67 Q788.091 1477.06 788.091 1468.33 Q788.091 1459.58 791.147 1455 Q794.225 1450.39 800.035 1450.39 Z" fill="#000000" fill-rule="nonzero" fill-opacity="1" /><path clip-path="url(#clip540)" d="M1236.96 1451.02 L1255.32 1451.02 L1255.32 1454.96 L1241.25 1454.96 L1241.25 1463.43 Q1242.26 1463.08 1243.28 1462.92 Q1244.3 1462.73 1245.32 1462.73 Q1251.11 1462.73 1254.49 1465.9 Q1257.87 1469.08 1257.87 1474.49 Q1257.87 1480.07 1254.39 1483.17 Q1250.92 1486.25 1244.6 1486.25 Q1242.43 1486.25 1240.16 1485.88 Q1237.91 1485.51 1235.51 1484.77 L1235.51 1480.07 Q1237.59 1481.2 1239.81 1481.76 Q1242.03 1482.32 1244.51 1482.32 Q1248.51 1482.32 1250.85 1480.21 Q1253.19 1478.1 1253.19 1474.49 Q1253.19 1470.88 1250.85 1468.77 Q1248.51 1466.67 1244.51 1466.67 Q1242.63 1466.67 1240.76 1467.08 Q1238.91 1467.5 1236.96 1468.38 L1236.96 1451.02 Z" fill="#000000" fill-rule="nonzero" fill-opacity="1" /><path clip-path="url(#clip540)" d="M1277.08 1454.1 Q1273.47 1454.1 1271.64 1457.66 Q1269.83 1461.2 1269.83 1468.33 Q1269.83 1475.44 1271.64 1479.01 Q1273.47 1482.55 1277.08 1482.55 Q1280.71 1482.55 1282.52 1479.01 Q1284.35 1475.44 1284.35 1468.33 Q1284.35 1461.2 1282.52 1457.66 Q1280.71 1454.1 1277.08 1454.1 M1277.08 1450.39 Q1282.89 1450.39 1285.94 1455 Q1289.02 1459.58 1289.02 1468.33 Q1289.02 1477.06 1285.94 1481.67 Q1282.89 1486.25 1277.08 1486.25 Q1271.27 1486.25 1268.19 1481.67 Q1265.13 1477.06 1265.13 1468.33 Q1265.13 1459.58 1268.19 1455 Q1271.27 1450.39 1277.08 1450.39 Z" fill="#000000" fill-rule="nonzero" fill-opacity="1" /><path clip-path="url(#clip540)" d="M1307.24 1454.1 Q1303.63 1454.1 1301.8 1457.66 Q1300 1461.2 1300 1468.33 Q1300 1475.44 1301.8 1479.01 Q1303.63 1482.55 1307.24 1482.55 Q1310.88 1482.55 1312.68 1479.01 Q1314.51 1475.44 1314.51 1468.33 Q1314.51 1461.2 1312.68 1457.66 Q1310.88 1454.1 1307.24 1454.1 M1307.24 1450.39 Q1313.05 1450.39 1316.11 1455 Q1319.19 1459.58 1319.19 1468.33 Q1319.19 1477.06 1316.11 1481.67 Q1313.05 1486.25 1307.24 1486.25 Q1301.43 1486.25 1298.35 1481.67 Q1295.3 1477.06 1295.3 1468.33 Q1295.3 1459.58 1298.35 1455 Q1301.43 1450.39 1307.24 1450.39 Z" fill="#000000" fill-rule="nonzero" fill-opacity="1" /><path clip-path="url(#clip540)" d="M1742.92 1451.02 L1765.14 1451.02 L1765.14 1453.01 L1752.59 1485.58 L1747.71 1485.58 L1759.52 1454.96 L1742.92 1454.96 L1742.92 1451.02 Z" fill="#000000" fill-rule="nonzero" fill-opacity="1" /><path clip-path="url(#clip540)" d="M1774.31 1451.02 L1792.66 1451.02 L1792.66 1454.96 L1778.59 1454.96 L1778.59 1463.43 Q1779.61 1463.08 1780.63 1462.92 Q1781.65 1462.73 1782.66 1462.73 Q1788.45 1462.73 1791.83 1465.9 Q1795.21 1469.08 1795.21 1474.49 Q1795.21 1480.07 1791.74 1483.17 Q1788.27 1486.25 1781.95 1486.25 Q1779.77 1486.25 1777.5 1485.88 Q1775.26 1485.51 1772.85 1484.77 L1772.85 1480.07 Q1774.93 1481.2 1777.15 1481.76 Q1779.38 1482.32 1781.85 1482.32 Q1785.86 1482.32 1788.2 1480.21 Q1790.53 1478.1 1790.53 1474.49 Q1790.53 1470.88 1788.2 1468.77 Q1785.86 1466.67 1781.85 1466.67 Q1779.98 1466.67 1778.1 1467.08 Q1776.25 1467.5 1774.31 1468.38 L1774.31 1451.02 Z" fill="#000000" fill-rule="nonzero" fill-opacity="1" /><path clip-path="url(#clip540)" d="M1814.42 1454.1 Q1810.81 1454.1 1808.98 1457.66 Q1807.18 1461.2 1807.18 1468.33 Q1807.18 1475.44 1808.98 1479.01 Q1810.81 1482.55 1814.42 1482.55 Q1818.06 1482.55 1819.86 1479.01 Q1821.69 1475.44 1821.69 1468.33 Q1821.69 1461.2 1819.86 1457.66 Q1818.06 1454.1 1814.42 1454.1 M1814.42 1450.39 Q1820.23 1450.39 1823.29 1455 Q1826.37 1459.58 1826.37 1468.33 Q1826.37 1477.06 1823.29 1481.67 Q1820.23 1486.25 1814.42 1486.25 Q1808.61 1486.25 1805.53 1481.67 Q1802.48 1477.06 1802.48 1468.33 Q1802.48 1459.58 1805.53 1455 Q1808.61 1450.39 1814.42 1450.39 Z" fill="#000000" fill-rule="nonzero" fill-opacity="1" /><path clip-path="url(#clip540)" d="M2236.47 1481.64 L2244.11 1481.64 L2244.11 1455.28 L2235.8 1456.95 L2235.8 1452.69 L2244.06 1451.02 L2248.74 1451.02 L2248.74 1481.64 L2256.37 1481.64 L2256.37 1485.58 L2236.47 1485.58 L2236.47 1481.64 Z" fill="#000000" fill-rule="nonzero" fill-opacity="1" /><path clip-path="url(#clip540)" d="M2275.82 1454.1 Q2272.21 1454.1 2270.38 1457.66 Q2268.57 1461.2 2268.57 1468.33 Q2268.57 1475.44 2270.38 1479.01 Q2272.21 1482.55 2275.82 1482.55 Q2279.45 1482.55 2281.26 1479.01 Q2283.09 1475.44 2283.09 1468.33 Q2283.09 1461.2 2281.26 1457.66 Q2279.45 1454.1 2275.82 1454.1 M2275.82 1450.39 Q2281.63 1450.39 2284.68 1455 Q2287.76 1459.58 2287.76 1468.33 Q2287.76 1477.06 2284.68 1481.67 Q2281.63 1486.25 2275.82 1486.25 Q2270.01 1486.25 2266.93 1481.67 Q2263.87 1477.06 2263.87 1468.33 Q2263.87 1459.58 2266.93 1455 Q2270.01 1450.39 2275.82 1450.39 Z" fill="#000000" fill-rule="nonzero" fill-opacity="1" /><path clip-path="url(#clip540)" d="M2305.98 1454.1 Q2302.37 1454.1 2300.54 1457.66 Q2298.73 1461.2 2298.73 1468.33 Q2298.73 1475.44 2300.54 1479.01 Q2302.37 1482.55 2305.98 1482.55 Q2309.61 1482.55 2311.42 1479.01 Q2313.25 1475.44 2313.25 1468.33 Q2313.25 1461.2 2311.42 1457.66 Q2309.61 1454.1 2305.98 1454.1 M2305.98 1450.39 Q2311.79 1450.39 2314.85 1455 Q2317.92 1459.58 2317.92 1468.33 Q2317.92 1477.06 2314.85 1481.67 Q2311.79 1486.25 2305.98 1486.25 Q2300.17 1486.25 2297.09 1481.67 Q2294.04 1477.06 2294.04 1468.33 Q2294.04 1459.58 2297.09 1455 Q2300.17 1450.39 2305.98 1450.39 Z" fill="#000000" fill-rule="nonzero" fill-opacity="1" /><path clip-path="url(#clip540)" d="M2336.14 1454.1 Q2332.53 1454.1 2330.7 1457.66 Q2328.9 1461.2 2328.9 1468.33 Q2328.9 1475.44 2330.7 1479.01 Q2332.53 1482.55 2336.14 1482.55 Q2339.78 1482.55 2341.58 1479.01 Q2343.41 1475.44 2343.41 1468.33 Q2343.41 1461.2 2341.58 1457.66 Q2339.78 1454.1 2336.14 1454.1 M2336.14 1450.39 Q2341.95 1450.39 2345.01 1455 Q2348.09 1459.58 2348.09 1468.33 Q2348.09 1477.06 2345.01 1481.67 Q2341.95 1486.25 2336.14 1486.25 Q2330.33 1486.25 2327.25 1481.67 Q2324.2 1477.06 2324.2 1468.33 Q2324.2 1459.58 2327.25 1455 Q2330.33 1450.39 2336.14 1450.39 Z" fill="#000000" fill-rule="nonzero" fill-opacity="1" /><path clip-path="url(#clip540)" d="M1200.24 1520.52 L1240.44 1520.52 L1240.44 1525.93 L1223.57 1525.93 L1223.57 1568.04 L1217.11 1568.04 L1217.11 1525.93 L1200.24 1525.93 L1200.24 1520.52 Z" fill="#000000" fill-rule="nonzero" fill-opacity="1" /><path clip-path="url(#clip540)" d="M1244.38 1532.4 L1250.24 1532.4 L1250.24 1568.04 L1244.38 1568.04 L1244.38 1532.4 M1244.38 1518.52 L1250.24 1518.52 L1250.24 1525.93 L1244.38 1525.93 L1244.38 1518.52 Z" fill="#000000" fill-rule="nonzero" fill-opacity="1" /><path clip-path="url(#clip540)" d="M1290.25 1539.24 Q1292.44 1535.29 1295.5 1533.41 Q1298.55 1531.54 1302.69 1531.54 Q1308.26 1531.54 1311.29 1535.45 Q1314.31 1539.33 1314.31 1546.53 L1314.31 1568.04 L1308.42 1568.04 L1308.42 1546.72 Q1308.42 1541.59 1306.61 1539.11 Q1304.79 1536.63 1301.07 1536.63 Q1296.52 1536.63 1293.88 1539.65 Q1291.23 1542.68 1291.23 1547.9 L1291.23 1568.04 L1285.35 1568.04 L1285.35 1546.72 Q1285.35 1541.56 1283.53 1539.11 Q1281.72 1536.63 1277.93 1536.63 Q1273.44 1536.63 1270.8 1539.68 Q1268.16 1542.71 1268.16 1547.9 L1268.16 1568.04 L1262.27 1568.04 L1262.27 1532.4 L1268.16 1532.4 L1268.16 1537.93 Q1270.16 1534.66 1272.96 1533.1 Q1275.77 1531.54 1279.62 1531.54 Q1283.5 1531.54 1286.21 1533.51 Q1288.94 1535.48 1290.25 1539.24 Z" fill="#000000" fill-rule="nonzero" fill-opacity="1" /><path clip-path="url(#clip540)" d="M1356.48 1548.76 L1356.48 1551.62 L1329.56 1551.62 Q1329.94 1557.67 1333.18 1560.85 Q1336.46 1564 1342.29 1564 Q1345.66 1564 1348.81 1563.17 Q1352 1562.35 1355.11 1560.69 L1355.11 1566.23 Q1351.96 1567.57 1348.65 1568.27 Q1345.34 1568.97 1341.94 1568.97 Q1333.41 1568.97 1328.41 1564 Q1323.44 1559.04 1323.44 1550.57 Q1323.44 1541.82 1328.16 1536.69 Q1332.9 1531.54 1340.92 1531.54 Q1348.11 1531.54 1352.28 1536.18 Q1356.48 1540.8 1356.48 1548.76 M1350.63 1547.04 Q1350.56 1542.23 1347.92 1539.37 Q1345.31 1536.5 1340.98 1536.5 Q1336.08 1536.5 1333.12 1539.27 Q1330.19 1542.04 1329.75 1547.07 L1350.63 1547.04 Z" fill="#000000" fill-rule="nonzero" fill-opacity="1" /><polyline clip-path="url(#clip542)" style="stroke:#000000; stroke-linecap:round; stroke-linejoin:round; stroke-width:2; stroke-opacity:0.1; fill:none" points="203.964,1193.83 2352.76,1193.83 "/>
<polyline clip-path="url(#clip542)" style="stroke:#000000; stroke-linecap:round; stroke-linejoin:round; stroke-width:2; stroke-opacity:0.1; fill:none" points="203.964,937.658 2352.76,937.658 "/>
<polyline clip-path="url(#clip542)" style="stroke:#000000; stroke-linecap:round; stroke-linejoin:round; stroke-width:2; stroke-opacity:0.1; fill:none" points="203.964,681.49 2352.76,681.49 "/>
<polyline clip-path="url(#clip542)" style="stroke:#000000; stroke-linecap:round; stroke-linejoin:round; stroke-width:2; stroke-opacity:0.1; fill:none" points="203.964,425.321 2352.76,425.321 "/>
<polyline clip-path="url(#clip542)" style="stroke:#000000; stroke-linecap:round; stroke-linejoin:round; stroke-width:2; stroke-opacity:0.1; fill:none" points="203.964,169.153 2352.76,169.153 "/>
<polyline clip-path="url(#clip540)" style="stroke:#000000; stroke-linecap:round; stroke-linejoin:round; stroke-width:4; stroke-opacity:1; fill:none" points="203.964,1423.18 203.964,47.2441 "/>
<polyline clip-path="url(#clip540)" style="stroke:#000000; stroke-linecap:round; stroke-linejoin:round; stroke-width:4; stroke-opacity:1; fill:none" points="203.964,1193.83 222.861,1193.83 "/>
<polyline clip-path="url(#clip540)" style="stroke:#000000; stroke-linecap:round; stroke-linejoin:round; stroke-width:4; stroke-opacity:1; fill:none" points="203.964,937.658 222.861,937.658 "/>
<polyline clip-path="url(#clip540)" style="stroke:#000000; stroke-linecap:round; stroke-linejoin:round; stroke-width:4; stroke-opacity:1; fill:none" points="203.964,681.49 222.861,681.49 "/>
<polyline clip-path="url(#clip540)" style="stroke:#000000; stroke-linecap:round; stroke-linejoin:round; stroke-width:4; stroke-opacity:1; fill:none" points="203.964,425.321 222.861,425.321 "/>
<polyline clip-path="url(#clip540)" style="stroke:#000000; stroke-linecap:round; stroke-linejoin:round; stroke-width:4; stroke-opacity:1; fill:none" points="203.964,169.153 222.861,169.153 "/>
<path clip-path="url(#clip540)" d="M147.061 1176.55 L165.417 1176.55 L165.417 1180.48 L151.343 1180.48 L151.343 1188.95 Q152.362 1188.61 153.38 1188.44 Q154.399 1188.26 155.417 1188.26 Q161.204 1188.26 164.584 1191.43 Q167.964 1194.6 167.964 1200.02 Q167.964 1205.6 164.491 1208.7 Q161.019 1211.78 154.7 1211.78 Q152.524 1211.78 150.255 1211.41 Q148.01 1211.04 145.603 1210.3 L145.603 1205.6 Q147.686 1206.73 149.908 1207.29 Q152.13 1207.84 154.607 1207.84 Q158.612 1207.84 160.95 1205.74 Q163.288 1203.63 163.288 1200.02 Q163.288 1196.41 160.95 1194.3 Q158.612 1192.19 154.607 1192.19 Q152.732 1192.19 150.857 1192.61 Q149.005 1193.03 147.061 1193.91 L147.061 1176.55 Z" fill="#000000" fill-rule="nonzero" fill-opacity="1" /><path clip-path="url(#clip540)" d="M116.668 951.003 L124.306 951.003 L124.306 924.637 L115.996 926.304 L115.996 922.045 L124.26 920.378 L128.936 920.378 L128.936 951.003 L136.575 951.003 L136.575 954.938 L116.668 954.938 L116.668 951.003 Z" fill="#000000" fill-rule="nonzero" fill-opacity="1" /><path clip-path="url(#clip540)" d="M156.019 923.457 Q152.408 923.457 150.579 927.021 Q148.774 930.563 148.774 937.693 Q148.774 944.799 150.579 948.364 Q152.408 951.905 156.019 951.905 Q159.653 951.905 161.459 948.364 Q163.288 944.799 163.288 937.693 Q163.288 930.563 161.459 927.021 Q159.653 923.457 156.019 923.457 M156.019 919.753 Q161.829 919.753 164.885 924.359 Q167.964 928.943 167.964 937.693 Q167.964 946.419 164.885 951.026 Q161.829 955.609 156.019 955.609 Q150.209 955.609 147.13 951.026 Q144.075 946.419 144.075 937.693 Q144.075 928.943 147.13 924.359 Q150.209 919.753 156.019 919.753 Z" fill="#000000" fill-rule="nonzero" fill-opacity="1" /><path clip-path="url(#clip540)" d="M117.663 694.834 L125.302 694.834 L125.302 668.469 L116.992 670.136 L116.992 665.876 L125.255 664.21 L129.931 664.21 L129.931 694.834 L137.57 694.834 L137.57 698.77 L117.663 698.77 L117.663 694.834 Z" fill="#000000" fill-rule="nonzero" fill-opacity="1" /><path clip-path="url(#clip540)" d="M147.061 664.21 L165.417 664.21 L165.417 668.145 L151.343 668.145 L151.343 676.617 Q152.362 676.27 153.38 676.108 Q154.399 675.923 155.417 675.923 Q161.204 675.923 164.584 679.094 Q167.964 682.265 167.964 687.682 Q167.964 693.26 164.491 696.362 Q161.019 699.441 154.7 699.441 Q152.524 699.441 150.255 699.071 Q148.01 698.7 145.603 697.959 L145.603 693.26 Q147.686 694.395 149.908 694.95 Q152.13 695.506 154.607 695.506 Q158.612 695.506 160.95 693.399 Q163.288 691.293 163.288 687.682 Q163.288 684.071 160.95 681.964 Q158.612 679.858 154.607 679.858 Q152.732 679.858 150.857 680.274 Q149.005 680.691 147.061 681.571 L147.061 664.21 Z" fill="#000000" fill-rule="nonzero" fill-opacity="1" /><path clip-path="url(#clip540)" d="M119.885 438.666 L136.204 438.666 L136.204 442.601 L114.26 442.601 L114.26 438.666 Q116.922 435.912 121.505 431.282 Q126.112 426.629 127.292 425.287 Q129.538 422.764 130.417 421.027 Q131.32 419.268 131.32 417.578 Q131.32 414.824 129.376 413.088 Q127.455 411.352 124.353 411.352 Q122.154 411.352 119.7 412.115 Q117.269 412.879 114.492 414.43 L114.492 409.708 Q117.316 408.574 119.769 407.995 Q122.223 407.416 124.26 407.416 Q129.63 407.416 132.825 410.102 Q136.019 412.787 136.019 417.277 Q136.019 419.407 135.209 421.328 Q134.422 423.227 132.316 425.819 Q131.737 426.49 128.635 429.708 Q125.533 432.902 119.885 438.666 Z" fill="#000000" fill-rule="nonzero" fill-opacity="1" /><path clip-path="url(#clip540)" d="M156.019 411.12 Q152.408 411.12 150.579 414.685 Q148.774 418.227 148.774 425.356 Q148.774 432.463 150.579 436.027 Q152.408 439.569 156.019 439.569 Q159.653 439.569 161.459 436.027 Q163.288 432.463 163.288 425.356 Q163.288 418.227 161.459 414.685 Q159.653 411.12 156.019 411.12 M156.019 407.416 Q161.829 407.416 164.885 412.023 Q167.964 416.606 167.964 425.356 Q167.964 434.083 164.885 438.689 Q161.829 443.273 156.019 443.273 Q150.209 443.273 147.13 438.689 Q144.075 434.083 144.075 425.356 Q144.075 416.606 147.13 412.023 Q150.209 407.416 156.019 407.416 Z" fill="#000000" fill-rule="nonzero" fill-opacity="1" /><path clip-path="url(#clip540)" d="M120.88 182.498 L137.2 182.498 L137.2 186.433 L115.256 186.433 L115.256 182.498 Q117.918 179.743 122.501 175.114 Q127.107 170.461 128.288 169.118 Q130.533 166.595 131.413 164.859 Q132.316 163.1 132.316 161.41 Q132.316 158.656 130.371 156.919 Q128.45 155.183 125.348 155.183 Q123.149 155.183 120.695 155.947 Q118.265 156.711 115.487 158.262 L115.487 153.54 Q118.311 152.406 120.765 151.827 Q123.218 151.248 125.255 151.248 Q130.626 151.248 133.82 153.933 Q137.015 156.619 137.015 161.109 Q137.015 163.239 136.204 165.16 Q135.417 167.058 133.311 169.651 Q132.732 170.322 129.63 173.54 Q126.529 176.734 120.88 182.498 Z" fill="#000000" fill-rule="nonzero" fill-opacity="1" /><path clip-path="url(#clip540)" d="M147.061 151.873 L165.417 151.873 L165.417 155.808 L151.343 155.808 L151.343 164.281 Q152.362 163.933 153.38 163.771 Q154.399 163.586 155.417 163.586 Q161.204 163.586 164.584 166.757 Q167.964 169.929 167.964 175.345 Q167.964 180.924 164.491 184.026 Q161.019 187.104 154.7 187.104 Q152.524 187.104 150.255 186.734 Q148.01 186.364 145.603 185.623 L145.603 180.924 Q147.686 182.058 149.908 182.614 Q152.13 183.169 154.607 183.169 Q158.612 183.169 160.95 181.063 Q163.288 178.956 163.288 175.345 Q163.288 171.734 160.95 169.628 Q158.612 167.521 154.607 167.521 Q152.732 167.521 150.857 167.938 Q149.005 168.355 147.061 169.234 L147.061 151.873 Z" fill="#000000" fill-rule="nonzero" fill-opacity="1" /><path clip-path="url(#clip540)" d="M16.4842 1124.89 L16.4842 1094.84 L21.895 1094.84 L21.895 1118.46 L35.9632 1118.46 L35.9632 1095.83 L41.3741 1095.83 L41.3741 1118.46 L58.5933 1118.46 L58.5933 1094.27 L64.0042 1094.27 L64.0042 1124.89 L16.4842 1124.89 Z" fill="#000000" fill-rule="nonzero" fill-opacity="1" /><path clip-path="url(#clip540)" d="M14.5426 1069.89 Q21.8632 1074.15 29.0246 1076.22 Q36.186 1078.29 43.5384 1078.29 Q50.8908 1078.29 58.1159 1076.22 Q65.3091 1074.12 72.5979 1069.89 L72.5979 1074.98 Q65.1182 1079.76 57.8931 1082.14 Q50.668 1084.5 43.5384 1084.5 Q36.4406 1084.5 29.2474 1082.14 Q22.0542 1079.79 14.5426 1074.98 L14.5426 1069.89 Z" fill="#000000" fill-rule="nonzero" fill-opacity="1" /><path clip-path="url(#clip540)" d="M16.4842 1058.27 L16.4842 1028.23 L21.895 1028.23 L21.895 1051.84 L35.9632 1051.84 L35.9632 1029.21 L41.3741 1029.21 L41.3741 1051.84 L58.5933 1051.84 L58.5933 1027.65 L64.0042 1027.65 L64.0042 1058.27 L16.4842 1058.27 Z" fill="#000000" fill-rule="nonzero" fill-opacity="1" /><path clip-path="url(#clip540)" d="M29.4065 994.615 L34.9447 994.615 Q33.6716 997.097 33.035 999.771 Q32.3984 1002.44 32.3984 1005.31 Q32.3984 1009.67 33.7352 1011.87 Q35.072 1014.03 37.7456 1014.03 Q39.7826 1014.03 40.9603 1012.47 Q42.1061 1010.91 43.1565 1006.2 L43.6021 1004.19 Q44.9389 997.957 47.3897 995.347 Q49.8086 992.705 54.1691 992.705 Q59.1344 992.705 62.0308 996.652 Q64.9272 1000.57 64.9272 1007.44 Q64.9272 1010.31 64.3543 1013.43 Q63.8132 1016.51 62.6992 1019.95 L56.6518 1019.95 Q58.3387 1016.7 59.198 1013.55 Q60.0256 1010.4 60.0256 1007.31 Q60.0256 1003.18 58.6251 1000.95 Q57.1929 998.72 54.6147 998.72 Q52.2276 998.72 50.9545 1000.34 Q49.6813 1001.94 48.5037 1007.38 L48.0262 1009.41 Q46.8804 1014.86 44.5251 1017.28 Q42.138 1019.7 38.0002 1019.7 Q32.9713 1019.7 30.2341 1016.13 Q27.4968 1012.57 27.4968 1006.01 Q27.4968 1002.76 27.9743 999.898 Q28.4517 997.033 29.4065 994.615 Z" fill="#000000" fill-rule="nonzero" fill-opacity="1" /><path clip-path="url(#clip540)" d="M18.2347 977.586 L28.3562 977.586 L28.3562 965.523 L32.9077 965.523 L32.9077 977.586 L52.2594 977.586 Q56.6199 977.586 57.8613 976.409 Q59.1026 975.199 59.1026 971.539 L59.1026 965.523 L64.0042 965.523 L64.0042 971.539 Q64.0042 978.318 61.4897 980.896 Q58.9434 983.475 52.2594 983.475 L32.9077 983.475 L32.9077 987.771 L28.3562 987.771 L28.3562 983.475 L18.2347 983.475 L18.2347 977.586 Z" fill="#000000" fill-rule="nonzero" fill-opacity="1" /><path clip-path="url(#clip540)" d="M28.3562 957.821 L28.3562 951.964 L64.0042 951.964 L64.0042 957.821 L28.3562 957.821 M14.479 957.821 L14.479 951.964 L21.895 951.964 L21.895 957.821 L14.479 957.821 Z" fill="#000000" fill-rule="nonzero" fill-opacity="1" /><path clip-path="url(#clip540)" d="M35.1993 911.956 Q31.2526 909.76 29.3747 906.704 Q27.4968 903.649 27.4968 899.511 Q27.4968 893.941 31.4117 890.917 Q35.2948 887.893 42.4881 887.893 L64.0042 887.893 L64.0042 893.782 L42.679 893.782 Q37.5546 893.782 35.072 895.596 Q32.5894 897.41 32.5894 901.134 Q32.5894 905.686 35.6131 908.327 Q38.6368 910.969 43.8567 910.969 L64.0042 910.969 L64.0042 916.857 L42.679 916.857 Q37.5228 916.857 35.072 918.672 Q32.5894 920.486 32.5894 924.273 Q32.5894 928.761 35.6449 931.403 Q38.6686 934.045 43.8567 934.045 L64.0042 934.045 L64.0042 939.933 L28.3562 939.933 L28.3562 934.045 L33.8944 934.045 Q30.616 932.04 29.0564 929.239 Q27.4968 926.438 27.4968 922.587 Q27.4968 918.703 29.4702 915.998 Q31.4436 913.261 35.1993 911.956 Z" fill="#000000" fill-rule="nonzero" fill-opacity="1" /><path clip-path="url(#clip540)" d="M46.0847 860.012 Q46.0847 867.109 47.7079 869.847 Q49.3312 872.584 53.2461 872.584 Q56.3653 872.584 58.2114 870.547 Q60.0256 868.478 60.0256 864.945 Q60.0256 860.075 56.5881 857.147 Q53.1188 854.187 47.3897 854.187 L46.0847 854.187 L46.0847 860.012 M43.6657 848.331 L64.0042 848.331 L64.0042 854.187 L58.5933 854.187 Q61.8398 856.192 63.3994 859.184 Q64.9272 862.176 64.9272 866.505 Q64.9272 871.979 61.8716 875.226 Q58.7843 878.44 53.6281 878.44 Q47.6125 878.44 44.5569 874.43 Q41.5014 870.388 41.5014 862.399 L41.5014 854.187 L40.9285 854.187 Q36.8862 854.187 34.6901 856.861 Q32.4621 859.502 32.4621 864.308 Q32.4621 867.364 33.1941 870.26 Q33.9262 873.157 35.3903 875.83 L29.9795 875.83 Q28.7381 872.616 28.1334 869.592 Q27.4968 866.568 27.4968 863.704 Q27.4968 855.969 31.5072 852.15 Q35.5176 848.331 43.6657 848.331 Z" fill="#000000" fill-rule="nonzero" fill-opacity="1" /><path clip-path="url(#clip540)" d="M18.2347 830.475 L28.3562 830.475 L28.3562 818.412 L32.9077 818.412 L32.9077 830.475 L52.2594 830.475 Q56.6199 830.475 57.8613 829.297 Q59.1026 828.088 59.1026 824.427 L59.1026 818.412 L64.0042 818.412 L64.0042 824.427 Q64.0042 831.207 61.4897 833.785 Q58.9434 836.363 52.2594 836.363 L32.9077 836.363 L32.9077 840.66 L28.3562 840.66 L28.3562 836.363 L18.2347 836.363 L18.2347 830.475 Z" fill="#000000" fill-rule="nonzero" fill-opacity="1" /><path clip-path="url(#clip540)" d="M44.7161 780.218 L47.5806 780.218 L47.5806 807.144 Q53.6281 806.763 56.8109 803.516 Q59.9619 800.238 59.9619 794.413 Q59.9619 791.039 59.1344 787.888 Q58.3069 784.705 56.6518 781.586 L62.1899 781.586 Q63.5267 784.737 64.227 788.047 Q64.9272 791.358 64.9272 794.763 Q64.9272 803.293 59.9619 808.29 Q54.9967 813.256 46.5303 813.256 Q37.7774 813.256 32.6531 808.545 Q27.4968 803.802 27.4968 795.782 Q27.4968 788.588 32.1438 784.419 Q36.7589 780.218 44.7161 780.218 M42.9973 786.074 Q38.1912 786.138 35.3266 788.779 Q32.4621 791.389 32.4621 795.718 Q32.4621 800.62 35.2312 803.58 Q38.0002 806.508 43.0292 806.953 L42.9973 786.074 Z" fill="#000000" fill-rule="nonzero" fill-opacity="1" /><path clip-path="url(#clip540)" d="M33.7671 747.148 L14.479 747.148 L14.479 741.291 L64.0042 741.291 L64.0042 747.148 L58.657 747.148 Q61.8398 748.994 63.3994 751.826 Q64.9272 754.627 64.9272 758.574 Q64.9272 765.035 59.771 769.109 Q54.6147 773.152 46.212 773.152 Q37.8093 773.152 32.6531 769.109 Q27.4968 765.035 27.4968 758.574 Q27.4968 754.627 29.0564 751.826 Q30.5842 748.994 33.7671 747.148 M46.212 767.104 Q52.6732 767.104 56.3653 764.462 Q60.0256 761.789 60.0256 757.142 Q60.0256 752.495 56.3653 749.821 Q52.6732 747.148 46.212 747.148 Q39.7508 747.148 36.0905 749.821 Q32.3984 752.495 32.3984 757.142 Q32.3984 761.789 36.0905 764.462 Q39.7508 767.104 46.212 767.104 Z" fill="#000000" fill-rule="nonzero" fill-opacity="1" /><path clip-path="url(#clip540)" d="M16.4842 708.253 L16.4842 699.596 L56.238 678.525 L16.4842 678.525 L16.4842 672.287 L64.0042 672.287 L64.0042 680.944 L24.2503 702.015 L64.0042 702.015 L64.0042 708.253 L16.4842 708.253 Z" fill="#000000" fill-rule="nonzero" fill-opacity="1" /><path clip-path="url(#clip540)" d="M43.5384 641.986 L43.5384 624.831 L48.7583 624.831 L48.7583 641.986 L43.5384 641.986 Z" fill="#000000" fill-rule="nonzero" fill-opacity="1" /><path clip-path="url(#clip540)" d="M16.4842 601.118 L16.4842 560.919 L21.895 560.919 L21.895 577.788 L64.0042 577.788 L64.0042 584.249 L21.895 584.249 L21.895 601.118 L16.4842 601.118 Z" fill="#000000" fill-rule="nonzero" fill-opacity="1" /><path clip-path="url(#clip540)" d="M33.8307 543.891 Q33.2578 544.877 33.0032 546.055 Q32.7167 547.201 32.7167 548.601 Q32.7167 553.567 35.9632 556.24 Q39.1779 558.882 45.2253 558.882 L64.0042 558.882 L64.0042 564.77 L28.3562 564.77 L28.3562 558.882 L33.8944 558.882 Q30.6479 557.036 29.0883 554.076 Q27.4968 551.116 27.4968 546.883 Q27.4968 546.278 27.5923 545.546 Q27.656 544.814 27.8151 543.922 L33.8307 543.891 Z" fill="#000000" fill-rule="nonzero" fill-opacity="1" /><path clip-path="url(#clip540)" d="M49.9359 538.352 L28.3562 538.352 L28.3562 532.496 L49.7131 532.496 Q54.7739 532.496 57.3202 530.523 Q59.8346 528.549 59.8346 524.603 Q59.8346 519.86 56.8109 517.123 Q53.7872 514.354 48.5673 514.354 L28.3562 514.354 L28.3562 508.497 L64.0042 508.497 L64.0042 514.354 L58.5296 514.354 Q61.7762 516.486 63.3676 519.319 Q64.9272 522.12 64.9272 525.844 Q64.9272 531.987 61.1078 535.17 Q57.2883 538.352 49.9359 538.352 M27.4968 523.616 L27.4968 523.616 Z" fill="#000000" fill-rule="nonzero" fill-opacity="1" /><path clip-path="url(#clip540)" d="M44.7161 465.943 L47.5806 465.943 L47.5806 492.87 Q53.6281 492.488 56.8109 489.241 Q59.9619 485.963 59.9619 480.138 Q59.9619 476.764 59.1344 473.613 Q58.3069 470.43 56.6518 467.311 L62.1899 467.311 Q63.5267 470.462 64.227 473.772 Q64.9272 477.083 64.9272 480.488 Q64.9272 489.018 59.9619 494.015 Q54.9967 498.981 46.5303 498.981 Q37.7774 498.981 32.6531 494.27 Q27.4968 489.528 27.4968 481.507 Q27.4968 474.313 32.1438 470.144 Q36.7589 465.943 44.7161 465.943 M42.9973 471.799 Q38.1912 471.863 35.3266 474.504 Q32.4621 477.114 32.4621 481.443 Q32.4621 486.345 35.2312 489.305 Q38.0002 492.233 43.0292 492.679 L42.9973 471.799 Z" fill="#000000" fill-rule="nonzero" fill-opacity="1" /><path clip-path="url(#clip540)" d="M16.4842 435.355 L16.4842 426.698 L56.238 405.628 L16.4842 405.628 L16.4842 399.389 L64.0042 399.389 L64.0042 408.046 L24.2503 429.117 L64.0042 429.117 L64.0042 435.355 L16.4842 435.355 Z" fill="#000000" fill-rule="nonzero" fill-opacity="1" /><path clip-path="url(#clip540)" d="M14.5426 387.772 L14.5426 382.679 Q22.0542 377.905 29.2474 375.55 Q36.4406 373.162 43.5384 373.162 Q50.668 373.162 57.8931 375.55 Q65.1182 377.905 72.5979 382.679 L72.5979 387.772 Q65.3091 383.539 58.1159 381.47 Q50.8908 379.369 43.5384 379.369 Q36.186 379.369 29.0246 381.47 Q21.8632 383.539 14.5426 387.772 Z" fill="#000000" fill-rule="nonzero" fill-opacity="1" /><path clip-path="url(#clip540)" d="M39.1142 359.031 L39.1142 345.535 L42.7427 345.535 L42.7427 364.569 L39.2416 364.569 Q38.2549 363.487 36.4725 361.481 Q26.7648 350.532 23.7729 350.532 Q21.6722 350.532 20.3991 352.187 Q19.0941 353.842 19.0941 356.548 Q19.0941 358.203 19.667 360.145 Q20.2081 362.086 21.3221 364.378 L17.4072 364.378 Q16.516 361.927 16.0704 359.826 Q15.6248 357.694 15.6248 355.88 Q15.6248 351.264 17.7255 348.495 Q19.8262 345.726 23.2636 345.726 Q27.6878 345.726 36.7271 356.261 Q38.2549 358.044 39.1142 359.031 Z" fill="#000000" fill-rule="nonzero" fill-opacity="1" /><polyline clip-path="url(#clip542)" style="stroke:#009af9; stroke-linecap:round; stroke-linejoin:round; stroke-width:4; stroke-opacity:1; fill:none" points="264.778,1304.99 266.808,1052.52 268.837,974.089 270.866,933.752 272.895,848.303 274.924,798.376 276.954,762.481 278.983,743.499 281.012,767.041 283.041,731.646 285.07,740.245 287.1,751.885 289.129,757.711 291.158,690.414 293.187,685.166 295.216,632.918 297.246,618.35 299.275,605.842 301.304,554.811 303.333,551.057 305.362,525.558 307.391,541.951 309.421,533.407 311.45,507.077 313.479,521.932 315.508,536.596 317.537,492.79 319.567,491.929 321.596,468.642 323.625,431.489 325.654,379.464 327.683,378.142 329.713,386.404 331.742,363.536 333.771,346.251 335.8,366.821 337.829,342.754 339.859,348.173 341.888,337.647 343.917,347.306 345.946,322.439 347.975,315.969 350.005,305.486 352.034,315.385 354.063,273.401 356.092,261.285 358.121,240.922 360.15,229.996 362.18,240.865 364.209,240.575 366.238,243.772 368.267,252.011 370.296,249.701 372.326,234.068 374.355,233.139 376.384,213.613 378.413,179.851 380.442,183.798 382.472,190.411 384.501,183.592 386.53,201.975 388.559,173.065 390.588,184.629 392.618,166.455 394.647,167.069 396.676,156.681 398.705,127.412 400.734,101.794 402.763,99.3692 404.793,115.759 406.822,122.636 408.851,135.115 410.88,124.333 412.909,117.513 414.939,135.157 416.968,142.675 418.997,147.512 421.026,146.511 423.055,138.336 425.085,151.305 427.114,152.036 429.143,146.131 431.172,141.698 433.201,169.309 435.231,155.919 437.26,145.98 439.289,168.983 441.318,155.073 443.347,148.348 445.377,134.4 447.406,139.271 449.435,145.633 451.464,162.751 453.493,161.766 455.522,182.919 457.552,186.227 459.581,189.768 461.61,169.663 463.639,166.606 465.668,167.637 467.698,191.827 469.727,179.494 471.756,180.956 473.785,183.551 475.814,181.253 477.844,182.803 479.873,187.604 481.902,186.711 483.931,171.089 485.96,172.699 487.99,159.436 490.019,168.908 492.048,155.524 494.077,122.236 496.106,123.097 498.136,117.938 500.165,121.346 502.194,143.82 504.223,134.282 506.252,124.494 508.281,138.729 510.311,138.34 512.34,146.283 514.369,134.408 516.398,126.359 518.427,135.152 520.457,157.892 522.486,136.423 524.515,156.911 526.544,161.622 528.573,155.196 530.603,192.95 532.632,190.948 534.661,204.441 536.69,214.073 538.719,196.965 540.749,198.914 542.778,199.628 544.807,206.587 546.836,219.027 548.865,210.75 550.894,209.493 552.924,209.952 554.953,245.102 556.982,226.916 559.011,211.756 561.04,207.274 563.07,217.94 565.099,260.478 567.128,264.396 569.157,269.224 571.186,285.674 573.216,287.686 575.245,319.494 577.274,304.133 579.303,305.821 581.332,287.145 583.362,307.976 585.391,324.575 587.42,314.437 589.449,326.637 591.478,321.673 593.508,323.917 595.537,323.736 597.566,341.924 599.595,346.964 601.624,354.31 603.653,367.533 605.683,392.804 607.712,392.184 609.741,390.641 611.77,395.295 613.799,370.578 615.829,376.655 617.858,376.194 619.887,373.064 621.916,374.133 623.945,382.695 625.975,361.022 628.004,370.142 630.033,361.719 632.062,360.37 634.091,380.099 636.121,373.991 638.15,354.963 640.179,347.449 642.208,357.319 644.237,354.879 646.267,365.092 648.296,372.199 650.325,386.705 652.354,365.107 654.383,362.582 656.412,375.985 658.442,370.883 660.471,366.818 662.5,358.519 664.529,363.06 666.558,386.356 668.588,388.545 670.617,393.301 672.646,395.608 674.675,386.686 676.704,380.83 678.734,400.82 680.763,409.591 682.792,411.866 684.821,415.953 686.85,425.846 688.88,419.723 690.909,410.362 692.938,400.612 694.967,409.305 696.996,400.359 699.025,395.75 701.055,385.602 703.084,403.116 705.113,390.03 707.142,409.471 709.171,418.665 711.201,417.613 713.23,425.88 715.259,428.144 717.288,431.413 719.317,434.218 721.347,436.483 723.376,432.411 725.405,441.237 727.434,429.881 729.463,440.036 731.493,431.687 733.522,455.372 735.551,430.976 737.58,423.511 739.609,419.991 741.639,411.551 743.668,427.088 745.697,449.973 747.726,441.056 749.755,434.177 751.784,463.71 753.814,471.354 755.843,479.456 757.872,485.289 759.901,495.264 761.93,487.467 763.96,492.99 765.989,490.167 768.018,504.644 770.047,488.424 772.076,487.346 774.106,504.859 776.135,520.865 778.164,530.129 780.193,542.261 782.222,527.114 784.252,522.019 786.281,523.347 788.31,512.51 790.339,514.922 792.368,525.304 794.398,531.093 796.427,535.473 798.456,529.958 800.485,530.495 802.514,539.35 804.543,528.988 806.573,538.179 808.602,544.825 810.631,556.216 812.66,555.731 814.689,545.128 816.719,561.037 818.748,545.594 820.777,537.468 822.806,545.665 824.835,542.105 826.865,549.286 828.894,532.036 830.923,528.298 832.952,537.559 834.981,560.875 837.011,567.611 839.04,558.377 841.069,581.575 843.098,581.841 845.127,570.093 847.156,546.627 849.186,563.208 851.215,563.063 853.244,571.74 855.273,558.699 857.302,567.465 859.332,580.284 861.361,597.923 863.39,613.169 865.419,632.976 867.448,645.768 869.478,659.356 871.507,649.538 873.536,656.546 875.565,653.853 877.594,626.255 879.624,619.71 881.653,625.438 883.682,649.389 885.711,675.462 887.74,683.587 889.77,692.633 891.799,696.719 893.828,702.45 895.857,690.313 897.886,673.369 899.915,677.122 901.945,683.433 903.974,688.361 906.003,673.852 908.032,658.386 910.061,671.155 912.091,665.849 914.12,664.61 916.149,653.891 918.178,662.958 920.207,677.135 922.237,678.645 924.266,669.804 926.295,681.527 928.324,684.534 930.353,710.006 932.383,712.003 934.412,695.136 936.441,672.723 938.47,669.084 940.499,672.698 942.529,666.744 944.558,674.023 946.587,692.66 948.616,698.326 950.645,687.531 952.674,677.4 954.704,677.222 956.733,691.653 958.762,688.841 960.791,681.796 962.82,662.092 964.85,667.214 966.879,663.053 968.908,660.513 970.937,670.254 972.966,676.781 974.996,666.736 977.025,672.384 979.054,684.919 981.083,700.02 983.112,713.051 985.142,706.829 987.171,702.965 989.2,733.173 991.229,757.162 993.258,739.437 995.287,724.751 997.317,726.19 999.346,735.812 1001.38,728.196 1003.4,738.642 1005.43,717.246 1007.46,714.19 1009.49,735.504 1011.52,749.09 1013.55,753.79 1015.58,767.77 1017.61,762.891 1019.64,763.077 1021.67,742.945 1023.7,742.31 1025.73,729.519 1027.75,723.526 1029.78,736.153 1031.81,758.459 1033.84,729.075 1035.87,743.021 1037.9,742.975 1039.93,753.683 1041.96,754.933 1043.99,758.179 1046.02,754.388 1048.05,765.851 1050.08,770.518 1052.1,738.438 1054.13,719.67 1056.16,720.834 1058.19,725.775 1060.22,727.066 1062.25,720.877 1064.28,724.525 1066.31,714.076 1068.34,709.898 1070.37,735.469 1072.4,736.63 1074.43,723.893 1076.46,727.058 1078.48,734.982 1080.51,713.123 1082.54,714.934 1084.57,724.38 1086.6,714.086 1088.63,719.646 1090.66,731.707 1092.69,725.211 1094.72,745.861 1096.75,745.51 1098.78,766.633 1100.81,768.806 1102.83,773.301 1104.86,766.626 1106.89,768.669 1108.92,782.803 1110.95,771.364 1112.98,771.189 1115.01,798.311 1117.04,809.339 1119.07,824.072 1121.1,828.543 1123.13,821.96 1125.16,815.094 1127.18,814.013 1129.21,809.515 1131.24,813.15 1133.27,809.804 1135.3,815.325 1137.33,824.274 1139.36,822.494 1141.39,838.638 1143.42,838.136 1145.45,832.703 1147.48,848.951 1149.51,855.401 1151.54,848.022 1153.56,844.601 1155.59,846.212 1157.62,827.409 1159.65,831.791 1161.68,843.782 1163.71,844.972 1165.74,843.753 1167.77,836.144 1169.8,829.906 1171.83,812.957 1173.86,813.542 1175.89,825.812 1177.91,826.734 1179.94,823.879 1181.97,820.91 1184,824.73 1186.03,836.534 1188.06,832.397 1190.09,841.391 1192.12,860.16 1194.15,857.225 1196.18,849.831 1198.21,848.228 1200.24,851.753 1202.27,848.146 1204.29,837.075 1206.32,840.884 1208.35,855.966 1210.38,859.029 1212.41,853.074 1214.44,852.861 1216.47,858.149 1218.5,866.967 1220.53,870.232 1222.56,852.651 1224.59,872.082 1226.62,878.14 1228.64,879.171 1230.67,859.603 1232.7,875.199 1234.73,872.819 1236.76,874.31 1238.79,872.736 1240.82,879.48 1242.85,887.842 1244.88,888.645 1246.91,890.359 1248.94,897.52 1250.97,898.165 1252.99,893.878 1255.02,904.481 1257.05,910.262 1259.08,898.35 1261.11,892.294 1263.14,896.842 1265.17,890.646 1267.2,894.069 1269.23,902.147 1271.26,915.502 1273.29,910.472 1275.32,905.714 1277.35,914.433 1279.37,917.398 1281.4,907.644 1283.43,909.027 1285.46,911.936 1287.49,911.641 1289.52,937.083 1291.55,930.776 1293.58,928.098 1295.61,927.556 1297.64,915.293 1299.67,912.962 1301.7,926.358 1303.72,937.915 1305.75,931.02 1307.78,934.736 1309.81,924.049 1311.84,922.751 1313.87,923.293 1315.9,923.515 1317.93,927.066 1319.96,923.904 1321.99,936.288 1324.02,938.016 1326.05,948.941 1328.07,955.671 1330.1,963.327 1332.13,976.4 1334.16,983.967 1336.19,987.136 1338.22,983.8 1340.25,971.123 1342.28,985.393 1344.31,990.013 1346.34,994.486 1348.37,1005.38 1350.4,1006.95 1352.43,1015.43 1354.45,1010.83 1356.48,1022.88 1358.51,1020.46 1360.54,1014.05 1362.57,1009.53 1364.6,1003.36 1366.63,1005.37 1368.66,1006.89 1370.69,998.943 1372.72,991.263 1374.75,981.038 1376.78,979.793 1378.8,1000.92 1380.83,994.999 1382.86,1003.13 1384.89,999.164 1386.92,997.765 1388.95,1004.86 1390.98,1006.1 1393.01,1005.86 1395.04,1008.56 1397.07,1006.24 1399.1,1008.29 1401.13,1018.46 1403.16,1019.18 1405.18,1028.08 1407.21,1031.63 1409.24,1029.63 1411.27,1020.45 1413.3,1013.57 1415.33,997.152 1417.36,1001.7 1419.39,1008.55 1421.42,1005.42 1423.45,1012.28 1425.48,1008.14 1427.51,1011.65 1429.53,1007.99 1431.56,1002.56 1433.59,1008.68 1435.62,1013.67 1437.65,1005.86 1439.68,1003.8 1441.71,1016.47 1443.74,1023.03 1445.77,1023.4 1447.8,1029.57 1449.83,1017.48 1451.86,1020.08 1453.88,1026.78 1455.91,1036.74 1457.94,1045.41 1459.97,1036.02 1462,1037.39 1464.03,1040.74 1466.06,1033.3 1468.09,1041.45 1470.12,1045.76 1472.15,1054.87 1474.18,1043.3 1476.21,1026.82 1478.24,1026.01 1480.26,1026.47 1482.29,1029.81 1484.32,1039.32 1486.35,1038.38 1488.38,1050.73 1490.41,1032.87 1492.44,1032.92 1494.47,1033.05 1496.5,1042.11 1498.53,1049.13 1500.56,1042.25 1502.59,1029.47 1504.61,1035.07 1506.64,1041.66 1508.67,1049.76 1510.7,1069.8 1512.73,1068.49 1514.76,1070.52 1516.79,1086.69 1518.82,1093.78 1520.85,1090.61 1522.88,1100.89 1524.91,1104.29 1526.94,1100.12 1528.96,1093.85 1530.99,1090.31 1533.02,1090.79 1535.05,1094.19 1537.08,1084.13 1539.11,1090.65 1541.14,1094.12 1543.17,1100.69 1545.2,1105.71 1547.23,1106.21 1549.26,1101.89 1551.29,1101.24 1553.32,1089.93 1555.34,1096.59 1557.37,1100.07 1559.4,1098.16 1561.43,1098.32 1563.46,1095.5 1565.49,1098.89 1567.52,1104.33 1569.55,1107.93 1571.58,1109.78 1573.61,1095.98 1575.64,1108.89 1577.67,1108.71 1579.69,1107.89 1581.72,1092.66 1583.75,1098.98 1585.78,1097.65 1587.81,1102.45 1589.84,1113.66 1591.87,1110.24 1593.9,1117.02 1595.93,1106.53 1597.96,1104.54 1599.99,1096.37 1602.02,1098.98 1604.05,1100.9 1606.07,1103.46 1608.1,1104.15 1610.13,1105.27 1612.16,1102.53 1614.19,1110.31 1616.22,1112.12 1618.25,1107.69 1620.28,1110.83 1622.31,1101.32 1624.34,1106.94 1626.37,1115.94 1628.4,1123.08 1630.42,1139.23 1632.45,1132.63 1634.48,1127.17 1636.51,1123.94 1638.54,1125.17 1640.57,1123.7 1642.6,1115.47 1644.63,1124.31 1646.66,1123.87 1648.69,1122.46 1650.72,1127.99 1652.75,1121.9 1654.77,1122.08 1656.8,1121.74 1658.83,1130.76 1660.86,1136.1 1662.89,1134.4 1664.92,1122.76 1666.95,1116.25 1668.98,1126.1 1671.01,1114.29 1673.04,1131.55 1675.07,1133.82 1677.1,1124.74 1679.13,1122.61 1681.15,1113.58 1683.18,1104.69 1685.21,1101.19 1687.24,1109.35 1689.27,1113.69 1691.3,1108.37 1693.33,1110.86 1695.36,1101.82 1697.39,1104.56 1699.42,1105.97 1701.45,1107.93 1703.48,1116.2 1705.5,1118.13 1707.53,1119.94 1709.56,1117.31 1711.59,1117.77 1713.62,1103.93 1715.65,1105.91 1717.68,1105.3 1719.71,1109.07 1721.74,1113.58 1723.77,1120.65 1725.8,1115.45 1727.83,1129.02 1729.85,1124.82 1731.88,1140.67 1733.91,1135.63 1735.94,1138.13 1737.97,1129.1 1740,1135.61 1742.03,1128.49 1744.06,1136.01 1746.09,1148.28 1748.12,1150.44 1750.15,1152.46 1752.18,1158.96 1754.21,1151.54 1756.23,1146.39 1758.26,1137.71 1760.29,1153.2 1762.32,1136.82 1764.35,1142.63 1766.38,1148.41 1768.41,1149.41 1770.44,1160.94 1772.47,1159.08 1774.5,1146.78 1776.53,1148.4 1778.56,1144.73 1780.58,1137.29 1782.61,1147.09 1784.64,1147.07 1786.67,1145.92 1788.7,1138.54 1790.73,1136.24 1792.76,1135.95 1794.79,1138.77 1796.82,1140.85 1798.85,1165.19 1800.88,1156.56 1802.91,1149.46 1804.94,1153.78 1806.96,1153.77 1808.99,1158.97 1811.02,1168.5 1813.05,1172.14 1815.08,1159.2 1817.11,1148.76 1819.14,1149.49 1821.17,1159.64 1823.2,1158.81 1825.23,1156.92 1827.26,1159.87 1829.29,1144.6 1831.31,1141.74 1833.34,1148.83 1835.37,1151.18 1837.4,1150.76 1839.43,1144.34 1841.46,1136.87 1843.49,1133.05 1845.52,1131.82 1847.55,1131.44 1849.58,1137.07 1851.61,1143.08 1853.64,1135.18 1855.66,1125.36 1857.69,1129.73 1859.72,1131.41 1861.75,1123.75 1863.78,1129.86 1865.81,1147.54 1867.84,1156.3 1869.87,1151.58 1871.9,1148.03 1873.93,1145.94 1875.96,1145.95 1877.99,1141.91 1880.02,1140.96 1882.04,1138.07 1884.07,1130.99 1886.1,1122.19 1888.13,1130.02 1890.16,1134.62 1892.19,1134.63 1894.22,1134.87 1896.25,1126.7 1898.28,1120.33 1900.31,1122.93 1902.34,1128.65 1904.37,1117.7 1906.39,1114.68 1908.42,1127.62 1910.45,1139.68 1912.48,1133.71 1914.51,1150.59 1916.54,1158.12 1918.57,1168.62 1920.6,1166.15 1922.63,1175.95 1924.66,1176.99 1926.69,1181.34 1928.72,1179.08 1930.74,1181.13 1932.77,1171.11 1934.8,1176.53 1936.83,1159.12 1938.86,1155.05 1940.89,1158.72 1942.92,1148.08 1944.95,1153.4 1946.98,1154.7 1949.01,1166.46 1951.04,1174.9 1953.07,1169.86 1955.1,1168.59 1957.12,1166.77 1959.15,1167.26 1961.18,1174.43 1963.21,1189.89 1965.24,1173.61 1967.27,1176.51 1969.3,1178.43 1971.33,1184.99 1973.36,1183.26 1975.39,1186.77 1977.42,1185.61 1979.45,1190.86 1981.47,1181.11 1983.5,1178.83 1985.53,1191.87 1987.56,1184.53 1989.59,1192.68 1991.62,1201.02 1993.65,1208.08 1995.68,1197.63 1997.71,1190.11 1999.74,1188.06 2001.77,1190.19 2003.8,1204.36 2005.82,1194.24 2007.85,1202.32 2009.88,1200.99 2011.91,1200.51 2013.94,1202.4 2015.97,1206.36 2018,1202.16 2020.03,1201.73 2022.06,1210.63 2024.09,1208.11 2026.12,1208.54 2028.15,1216.7 2030.18,1214.25 2032.2,1212.66 2034.23,1215.98 2036.26,1217.05 2038.29,1214.62 2040.32,1225.4 2042.35,1212.91 2044.38,1205.37 2046.41,1190.79 2048.44,1199.12 2050.47,1193.1 2052.5,1187.38 2054.53,1196.33 2056.55,1187.61 2058.58,1196.48 2060.61,1193.83 2062.64,1182.1 2064.67,1202.52 2066.7,1198.64 2068.73,1205.75 2070.76,1197.57 2072.79,1209.82 2074.82,1211 2076.85,1214.76 2078.88,1202.91 2080.91,1213.59 2082.93,1226.18 2084.96,1228.27 2086.99,1225.81 2089.02,1219.74 2091.05,1224.34 2093.08,1231.21 2095.11,1233.08 2097.14,1231.26 2099.17,1224.78 2101.2,1217.55 2103.23,1221.65 2105.26,1205.89 2107.28,1210.8 2109.31,1218.51 2111.34,1219.25 2113.37,1227.53 2115.4,1238.27 2117.43,1238.83 2119.46,1241.94 2121.49,1237.62 2123.52,1234.83 2125.55,1233.99 2127.58,1231.07 2129.61,1252.48 2131.63,1245.79 2133.66,1244.78 2135.69,1243.99 2137.72,1243.2 2139.75,1243.39 2141.78,1240.19 2143.81,1240.01 2145.84,1244.34 2147.87,1247.18 2149.9,1254.43 2151.93,1254.6 2153.96,1251.46 2155.99,1253.4 2158.01,1255.2 2160.04,1256.2 2162.07,1255.88 2164.1,1254.03 2166.13,1264.52 2168.16,1260.19 2170.19,1260.36 2172.22,1265.84 2174.25,1270.65 2176.28,1274.59 2178.31,1278.54 2180.34,1284.66 2182.36,1277.47 2184.39,1274.89 2186.42,1273.13 2188.45,1275.24 2190.48,1273.29 2192.51,1274.44 2194.54,1281.14 2196.57,1273.32 2198.6,1272.04 2200.63,1278.13 2202.66,1291.64 2204.69,1291.35 2206.71,1292.92 2208.74,1298.19 2210.77,1306.03 2212.8,1300.67 2214.83,1286.15 2216.86,1300.9 2218.89,1308.91 2220.92,1318.34 2222.95,1310.77 2224.98,1311.76 2227.01,1311.89 2229.04,1315.21 2231.07,1317.04 2233.09,1316.02 2235.12,1304.5 2237.15,1298.68 2239.18,1302.73 2241.21,1306.87 2243.24,1301.48 2245.27,1309.66 2247.3,1305.07 2249.33,1300.6 2251.36,1292.7 2253.39,1295.15 2255.42,1297.39 2257.44,1301.99 2259.47,1297.65 2261.5,1298.62 2263.53,1298.96 2265.56,1287.91 2267.59,1286.42 2269.62,1292.43 2271.65,1294.37 2273.68,1299.77 2275.71,1315.31 2277.74,1329.76 2279.77,1322.28 2281.8,1319.76 2283.82,1330 2285.85,1325.51 2287.88,1322.86 2289.91,1326.55 2291.94,1316.17 "/>
<polyline clip-path="url(#clip542)" style="stroke:#e26f46; stroke-linecap:round; stroke-linejoin:round; stroke-width:4; stroke-opacity:1; fill:none" points="264.778,1360.88 266.808,1025.19 268.837,944.674 270.866,892.526 272.895,852.69 274.924,845.565 276.954,827.636 278.983,827.806 281.012,822.016 283.041,841.464 285.07,823.808 287.1,815.61 289.129,798.616 291.158,761.084 293.187,732.219 295.216,690.786 297.246,694.012 299.275,665.394 301.304,640.059 303.333,617.465 305.362,604.784 307.391,580.402 309.421,538.06 311.45,501.608 313.479,474.139 315.508,427.214 317.537,451.713 319.567,437.516 321.596,420.957 323.625,394.227 325.654,379.641 327.683,361.543 329.713,330.677 331.742,357.473 333.771,340.394 335.8,336.58 337.829,370.799 339.859,393.939 341.888,395.753 343.917,408.043 345.946,369.612 347.975,360.878 350.005,366.366 352.034,343.844 354.063,378.732 356.092,368.703 358.121,364.288 360.15,350.34 362.18,319.295 364.209,327.711 366.238,298.672 368.267,294.753 370.296,268.754 372.326,274.501 374.355,276.48 376.384,257.424 378.413,237.778 380.442,233.346 382.472,224.949 384.501,219.718 386.53,214.976 388.559,236.272 390.588,232.104 392.618,246.093 394.647,200.09 396.676,188.58 398.705,167.805 400.734,149.917 402.763,150.826 404.793,125.327 406.822,104.03 408.851,92.6297 410.88,86.1857 412.909,101.217 414.939,115.52 416.968,120.107 418.997,113.974 421.026,94.1243 423.055,117.337 425.085,113.001 427.114,117.472 429.143,145.939 431.172,141.717 433.201,167.083 435.231,168.065 437.26,182.163 439.289,170.236 441.318,178.824 443.347,208.037 445.377,191.651 447.406,214.694 449.435,205.497 451.464,195.645 453.493,206.959 455.522,201.378 457.552,194.392 459.581,207.146 461.61,196.253 463.639,189.237 465.668,172.079 467.698,202.84 469.727,221.385 471.756,224.42 473.785,255.228 475.814,215.031 477.844,202.902 479.873,215.517 481.902,188.233 483.931,191.041 485.96,205.678 487.99,208.232 490.019,197.131 492.048,199.102 494.077,211.861 496.106,214.921 498.136,217.869 500.165,217.149 502.194,237.608 504.223,256.833 506.252,265.431 508.281,248.527 510.311,227.959 512.34,204.035 514.369,213.254 516.398,221.311 518.427,231.8 520.457,224.232 522.486,224.816 524.515,222.552 526.544,235.084 528.573,261.325 530.603,267.128 532.632,256.09 534.661,260.656 536.69,303.984 538.719,313.105 540.749,327.434 542.778,305.703 544.807,312.963 546.836,306.53 548.865,294.643 550.894,292.897 552.924,305.723 554.953,326.343 556.982,335.457 559.011,349.618 561.04,360.477 563.07,359.07 565.099,350.409 567.128,367.097 569.157,359.748 571.186,364.802 573.216,364.458 575.245,389.555 577.274,388.404 579.303,385.131 581.332,368.866 583.362,386.635 585.391,413.349 587.42,398.827 589.449,409.385 591.478,445.408 593.508,453.904 595.537,466.257 597.566,471.314 599.595,478.044 601.624,469.884 603.653,450.48 605.683,440.583 607.712,466.351 609.741,478.588 611.77,462.38 613.799,474.773 615.829,480.873 617.858,484.477 619.887,496.605 621.916,493.915 623.945,473.458 625.975,469.925 628.004,475.579 630.033,471.65 632.062,480.08 634.091,487.867 636.121,500.463 638.15,500.472 640.179,493.19 642.208,489.591 644.237,491.275 646.267,514.76 648.296,484.856 650.325,466.677 652.354,461.204 654.383,461.482 656.412,480.916 658.442,464.039 660.471,470.656 662.5,466.24 664.529,483.494 666.558,494.834 668.588,493.729 670.617,504.755 672.646,520.545 674.675,539.795 676.704,548.07 678.734,574.904 680.763,565.469 682.792,567.717 684.821,562.512 686.85,558.345 688.88,558.211 690.909,556.345 692.938,554.067 694.967,544.848 696.996,548.55 699.025,551.096 701.055,577.799 703.084,590.203 705.113,583.366 707.142,601.988 709.171,595.312 711.201,599.519 713.23,584.477 715.259,583.498 717.288,589.49 719.317,602.127 721.347,593.312 723.376,586.751 725.405,583.673 727.434,594.312 729.463,599.508 731.493,604.07 733.522,602.886 735.551,614.826 737.58,628.499 739.609,634.859 741.639,630 743.668,646.519 745.697,642.653 747.726,633.812 749.755,642.698 751.784,660.887 753.814,691.522 755.843,698.795 757.872,708.708 759.901,709.977 761.93,699.912 763.96,729.902 765.989,721.937 768.018,723.948 770.047,699.408 772.076,714.432 774.106,734.13 776.135,742.038 778.164,738.879 780.193,736.381 782.222,739.217 784.252,741.3 786.281,727.71 788.31,722.855 790.339,708.57 792.368,726.013 794.398,732.334 796.427,722.062 798.456,736.983 800.485,739.05 802.514,737.931 804.543,741.661 806.573,738.591 808.602,732.932 810.631,735.5 812.66,736.191 814.689,740.882 816.719,750.335 818.748,753.015 820.777,745.15 822.806,748.482 824.835,747.049 826.865,760.118 828.894,765.563 830.923,759.565 832.952,771.08 834.981,775.024 837.011,777.216 839.04,771.493 841.069,775.587 843.098,784.005 845.127,792.545 847.156,793.938 849.186,785.883 851.215,800.545 853.244,815.393 855.273,821.477 857.302,815.932 859.332,821.293 861.361,828.04 863.39,832.73 865.419,845.944 867.448,855.128 869.478,854.232 871.507,840.322 873.536,834.588 875.565,836.696 877.594,818.574 879.624,827.983 881.653,823.781 883.682,836.896 885.711,846.314 887.74,855.074 889.77,862.897 891.799,856.647 893.828,858.09 895.857,866.43 897.886,866.582 899.915,871.005 901.945,883.74 903.974,881.045 906.003,877.97 908.032,913.208 910.061,913.767 912.091,911.824 914.12,912.859 916.149,925.864 918.178,919.426 920.207,930.506 922.237,941.045 924.266,939.317 926.295,922.553 928.324,935.937 930.353,943.021 932.383,949.908 934.412,964.289 936.441,966.254 938.47,977.421 940.499,987.05 942.529,981.785 944.558,978.035 946.587,975.952 948.616,968.689 950.645,970.933 952.674,967.707 954.704,967.496 956.733,978.561 958.762,977.212 960.791,977.847 962.82,990.639 964.85,992.004 966.879,997.969 968.908,991.655 970.937,999.447 972.966,1004.18 974.996,994.277 977.025,1000.57 979.054,996.974 981.083,1005.88 983.112,1009.07 985.142,1016.28 987.171,1019.28 989.2,1018.9 991.229,1014.95 993.258,1027.8 995.287,1023.91 997.317,1044.2 999.346,1056.3 1001.38,1052.78 1003.4,1053.7 1005.43,1059.62 1007.46,1051.28 1009.49,1052.6 1011.52,1046.47 1013.55,1045.01 1015.58,1052.76 1017.61,1061.11 1019.64,1065.94 1021.67,1065.73 1023.7,1074.82 1025.73,1072.34 1027.75,1076.79 1029.78,1087.34 1031.81,1084.1 1033.84,1077.3 1035.87,1081.48 1037.9,1090.06 1039.93,1090.56 1041.96,1092.29 1043.99,1091.47 1046.02,1091.38 1048.05,1098.52 1050.08,1101.99 1052.1,1106.38 1054.13,1112.46 1056.16,1116.95 1058.19,1122.08 1060.22,1115.42 1062.25,1123.1 1064.28,1109 1066.31,1112.42 1068.34,1124.98 1070.37,1121.96 1072.4,1115.7 1074.43,1117.05 1076.46,1122.94 1078.48,1123.19 1080.51,1111.68 1082.54,1117.7 1084.57,1125.88 1086.6,1125.23 1088.63,1126.38 1090.66,1140.25 1092.69,1145.25 1094.72,1147.25 1096.75,1157.15 1098.78,1151.03 1100.81,1158.29 1102.83,1149.96 1104.86,1161.04 1106.89,1164.19 1108.92,1171.85 1110.95,1168.96 1112.98,1162.78 1115.01,1160.27 1117.04,1152.17 1119.07,1149.02 1121.1,1144.45 1123.13,1148.18 1125.16,1157.8 1127.18,1171.48 1129.21,1160.81 1131.24,1168.55 1133.27,1169.19 1135.3,1165.82 1137.33,1177.82 1139.36,1182.93 1141.39,1181.33 1143.42,1176.91 1145.45,1173.91 1147.48,1176.77 1149.51,1174.26 1151.54,1176.16 1153.56,1180.7 1155.59,1179.16 1157.62,1178.29 1159.65,1178.61 1161.68,1193.09 1163.71,1180 1165.74,1181.76 1167.77,1178.88 1169.8,1175.42 1171.83,1185.87 1173.86,1182.99 1175.89,1178.25 1177.91,1179.03 1179.94,1179.24 1181.97,1186.28 1184,1193.73 1186.03,1211.09 1188.06,1213.12 1190.09,1231.14 1192.12,1222.2 1194.15,1227.68 1196.18,1225.38 1198.21,1218.89 1200.24,1224.29 1202.27,1218.56 1204.29,1222.9 1206.32,1215.29 1208.35,1224.21 1210.38,1232.93 1212.41,1239.49 1214.44,1251.71 1216.47,1249.3 1218.5,1248.22 1220.53,1260.83 1222.56,1259.26 1224.59,1260.19 1226.62,1249.51 1228.64,1253.11 1230.67,1254.38 1232.7,1257.64 1234.73,1265.94 1236.76,1251.96 1238.79,1248.79 1240.82,1243.63 1242.85,1249.85 1244.88,1256.6 1246.91,1264.14 1248.94,1264.27 1250.97,1266.7 1252.99,1254.53 1255.02,1256.76 1257.05,1259.44 1259.08,1251.66 1261.11,1243.71 1263.14,1251.62 1265.17,1249.02 1267.2,1253.76 1269.23,1247.86 1271.26,1247.05 1273.29,1248 1275.32,1254.71 1277.35,1257.16 1279.37,1270.22 1281.4,1276.22 1283.43,1272.53 1285.46,1287.19 1287.49,1278 1289.52,1271.75 1291.55,1272.9 1293.58,1271.38 1295.61,1271.85 1297.64,1282.12 1299.67,1282.44 1301.7,1286.17 1303.72,1293.77 1305.75,1292.23 1307.78,1287.64 1309.81,1290.25 1311.84,1289.7 1313.87,1289.38 1315.9,1293.93 1317.93,1290.56 1319.96,1293.37 1321.99,1292.11 1324.02,1291.64 1326.05,1294.73 1328.07,1300.57 1330.1,1310.81 1332.13,1302.29 1334.16,1305.08 1336.19,1304.1 1338.22,1303.77 1340.25,1303.41 1342.28,1301.58 1344.31,1301.97 1346.34,1306.34 1348.37,1300.22 1350.4,1302.31 1352.43,1302.73 1354.45,1305.69 1356.48,1298.61 1358.51,1292.95 1360.54,1285.86 1362.57,1288.46 1364.6,1290.01 1366.63,1285.82 1368.66,1297.45 1370.69,1294.44 1372.72,1286.12 1374.75,1289.72 1376.78,1286.18 1378.8,1294.07 1380.83,1295.63 1382.86,1296.9 1384.89,1297.61 1386.92,1300.6 1388.95,1302.18 1390.98,1305.94 1393.01,1300.8 1395.04,1297.4 1397.07,1298.1 1399.1,1293.34 1401.13,1296.81 1403.16,1296.32 1405.18,1299.8 1407.21,1296.2 1409.24,1291.67 1411.27,1295.49 1413.3,1302.46 1415.33,1284.19 1417.36,1288.76 1419.39,1291.37 1421.42,1291.65 1423.45,1277.8 1425.48,1286.92 1427.51,1286.45 1429.53,1284.97 1431.56,1283.37 1433.59,1282.11 1435.62,1280.27 1437.65,1283.13 1439.68,1293.06 1441.71,1285.15 1443.74,1291.91 1445.77,1290.07 1447.8,1289.39 1449.83,1282.9 1451.86,1279.28 1453.88,1274.75 1455.91,1271.7 1457.94,1274.71 1459.97,1280.14 1462,1293.41 1464.03,1287.03 1466.06,1282.68 1468.09,1286.17 1470.12,1282.28 1472.15,1272.74 1474.18,1276.22 1476.21,1280.32 1478.24,1283.56 1480.26,1281.59 1482.29,1290 1484.32,1290.59 1486.35,1287.79 1488.38,1287.12 1490.41,1287.29 1492.44,1295.82 1494.47,1287.32 1496.5,1277.45 1498.53,1273.31 1500.56,1264.46 1502.59,1272.45 1504.61,1281.53 1506.64,1284.01 1508.67,1287.24 1510.7,1287.36 1512.73,1286.37 1514.76,1289.36 1516.79,1275.87 1518.82,1273.69 1520.85,1279.42 1522.88,1269.98 1524.91,1271.34 1526.94,1276.98 1528.96,1279.61 1530.99,1283.36 1533.02,1292.64 1535.05,1290.65 1537.08,1281 1539.11,1280.66 1541.14,1289.88 1543.17,1289.83 1545.2,1291.98 1547.23,1280.01 1549.26,1282.94 1551.29,1283.71 1553.32,1288.64 1555.34,1282.9 1557.37,1295.84 1559.4,1300.46 1561.43,1293.95 1563.46,1294.93 1565.49,1290.97 1567.52,1299.45 1569.55,1298.69 1571.58,1293.63 1573.61,1288.71 1575.64,1294.66 1577.67,1290.41 1579.69,1291.47 1581.72,1287.87 1583.75,1293.23 1585.78,1301.45 1587.81,1299.11 1589.84,1297.61 1591.87,1303.1 1593.9,1305.44 1595.93,1313.73 1597.96,1308.09 1599.99,1310.13 1602.02,1315.3 1604.05,1327.15 1606.07,1326 1608.1,1315.99 1610.13,1313.22 1612.16,1316.74 1614.19,1318.98 1616.22,1310.71 1618.25,1308.72 1620.28,1314.44 1622.31,1308.81 1624.34,1306.69 1626.37,1305.06 1628.4,1311.05 1630.42,1311.49 1632.45,1318.14 1634.48,1308.37 1636.51,1310.5 1638.54,1312.75 1640.57,1318.84 1642.6,1315.59 1644.63,1316.18 1646.66,1314.47 1648.69,1312.74 1650.72,1321.13 1652.75,1325.15 1654.77,1322.27 1656.8,1313.39 1658.83,1317.67 1660.86,1305.46 1662.89,1303.41 1664.92,1312.35 1666.95,1312.51 1668.98,1314.27 1671.01,1304.74 1673.04,1302.14 1675.07,1308.41 1677.1,1309.1 1679.13,1308.49 1681.15,1313.87 1683.18,1308.56 1685.21,1315.1 1687.24,1316.58 1689.27,1329.11 1691.3,1320.53 1693.33,1320.36 1695.36,1331.65 1697.39,1331.6 1699.42,1331.07 1701.45,1337.41 1703.48,1339.95 1705.5,1337.72 1707.53,1338.48 1709.56,1340.16 1711.59,1344.68 1713.62,1346.07 1715.65,1349.16 1717.68,1343.42 1719.71,1341.05 1721.74,1340.41 1723.77,1337.97 1725.8,1329.13 1727.83,1332.25 1729.85,1330.31 1731.88,1328.62 1733.91,1325.05 1735.94,1329.58 1737.97,1327.17 1740,1330.24 1742.03,1330.62 1744.06,1335.29 1746.09,1332.99 1748.12,1328.92 1750.15,1332.4 1752.18,1333.39 1754.21,1339.17 1756.23,1337.1 1758.26,1340.78 1760.29,1331.06 1762.32,1336.12 1764.35,1335.42 1766.38,1331.06 1768.41,1335.57 1770.44,1342.5 1772.47,1334.7 1774.5,1334.49 1776.53,1329.48 1778.56,1334.55 1780.58,1332.06 1782.61,1330.34 1784.64,1332.44 1786.67,1330.64 1788.7,1331.56 1790.73,1329.49 1792.76,1334.75 1794.79,1337.36 1796.82,1336.72 1798.85,1330.41 1800.88,1334.24 1802.91,1338.13 1804.94,1341.59 1806.96,1339.3 1808.99,1353.37 1811.02,1342.53 1813.05,1346.17 1815.08,1338.6 1817.11,1337.41 1819.14,1345.95 1821.17,1343.95 1823.2,1347.4 1825.23,1343.81 1827.26,1344.42 1829.29,1338.65 1831.31,1345.14 1833.34,1356.89 1835.37,1350.06 1837.4,1350.96 1839.43,1348.98 1841.46,1346.82 1843.49,1352.93 1845.52,1355.14 1847.55,1361.86 1849.58,1363.15 1851.61,1367.74 1853.64,1362.47 1855.66,1355.8 1857.69,1359.54 1859.72,1351.45 1861.75,1354.95 1863.78,1363.55 1865.81,1368.9 1867.84,1362.13 1869.87,1361.4 1871.9,1363.13 1873.93,1355.17 1875.96,1359.08 1877.99,1358.36 1880.02,1357.55 1882.04,1358.97 1884.07,1355.29 1886.1,1355.61 1888.13,1360.5 1890.16,1363.78 1892.19,1360.73 1894.22,1366.74 1896.25,1364.37 1898.28,1370.46 1900.31,1373.55 1902.34,1380.12 1904.37,1381.45 1906.39,1377.41 1908.42,1381.71 1910.45,1380.44 1912.48,1376.86 1914.51,1376.72 1916.54,1377.66 1918.57,1380.18 1920.6,1370.21 1922.63,1373.92 1924.66,1384.24 1926.69,1377.41 1928.72,1379.08 1930.74,1374.53 1932.77,1375.11 1934.8,1370.21 1936.83,1374.62 1938.86,1377.24 1940.89,1370.81 1942.92,1368.21 1944.95,1368.72 1946.98,1363.89 1949.01,1367.12 1951.04,1372.56 1953.07,1374.62 1955.1,1368.64 1957.12,1369.17 1959.15,1376.18 1961.18,1377.72 1963.21,1378.53 1965.24,1383.74 1967.27,1379.12 1969.3,1376.59 1971.33,1378.13 1973.36,1379.27 1975.39,1376.32 1977.42,1379.38 1979.45,1368.95 1981.47,1369.55 1983.5,1365.34 1985.53,1356.7 1987.56,1354.3 1989.59,1356.91 1991.62,1357.09 1993.65,1362.04 1995.68,1366 1997.71,1362.41 1999.74,1364.28 2001.77,1363.12 2003.8,1363.26 2005.82,1369.35 2007.85,1370.86 2009.88,1367.75 2011.91,1368.63 2013.94,1366.81 2015.97,1357.92 2018,1354.28 2020.03,1357.08 2022.06,1362.91 2024.09,1358.23 2026.12,1356.71 2028.15,1358.74 2030.18,1360.01 2032.2,1361.39 2034.23,1357.62 2036.26,1352.66 2038.29,1356.88 2040.32,1346.03 2042.35,1349.55 2044.38,1353.94 2046.41,1350.13 2048.44,1345.93 2050.47,1336.74 2052.5,1342.68 2054.53,1345.28 2056.55,1345.67 2058.58,1343.23 2060.61,1344.83 2062.64,1346.61 2064.67,1358.34 2066.7,1359.16 2068.73,1360.06 2070.76,1366.7 2072.79,1364.91 2074.82,1370.65 2076.85,1374.36 2078.88,1371.95 2080.91,1371.18 2082.93,1371.67 2084.96,1373.86 2086.99,1372.26 2089.02,1375.84 2091.05,1373.2 2093.08,1370.6 2095.11,1373.64 2097.14,1369.13 2099.17,1370.88 2101.2,1369.39 2103.23,1364.78 2105.26,1367.15 2107.28,1367.03 2109.31,1369.73 2111.34,1372.17 2113.37,1372 2115.4,1367.13 2117.43,1361.76 2119.46,1357.13 2121.49,1357.9 2123.52,1355.52 2125.55,1354.3 2127.58,1352.27 2129.61,1349.68 2131.63,1344.23 2133.66,1347.69 2135.69,1346.32 2137.72,1342.82 2139.75,1354.13 2141.78,1358.64 2143.81,1351.31 2145.84,1353.66 2147.87,1349.52 2149.9,1343.97 2151.93,1338.81 2153.96,1334.01 2155.99,1340 2158.01,1343.74 2160.04,1338.92 2162.07,1337.53 2164.1,1338.4 2166.13,1341.45 2168.16,1349.91 2170.19,1349.75 2172.22,1351.27 2174.25,1348.13 2176.28,1351.5 2178.31,1355.89 2180.34,1354.43 2182.36,1351.64 2184.39,1354.96 2186.42,1350.85 2188.45,1347.92 2190.48,1346.09 2192.51,1345.39 2194.54,1342.1 2196.57,1345.93 2198.6,1337.88 2200.63,1338.56 2202.66,1339.11 2204.69,1335.38 2206.71,1339.5 2208.74,1340.55 2210.77,1347.61 2212.8,1354.47 2214.83,1352.23 2216.86,1343.2 2218.89,1346.57 2220.92,1345.3 2222.95,1340.45 2224.98,1347.05 2227.01,1349.04 2229.04,1348.76 2231.07,1339.44 2233.09,1341.25 2235.12,1345.09 2237.15,1347.29 2239.18,1341.23 2241.21,1334.21 2243.24,1337.66 2245.27,1343.99 2247.3,1345 2249.33,1352.88 2251.36,1353.52 2253.39,1355.5 2255.42,1354.39 2257.44,1355.61 2259.47,1356.76 2261.5,1368.19 2263.53,1372.68 2265.56,1369.05 2267.59,1365.17 2269.62,1365.19 2271.65,1366.53 2273.68,1371.04 2275.71,1364.2 2277.74,1364.43 2279.77,1361.4 2281.8,1366.13 2283.82,1368.06 2285.85,1366.18 2287.88,1365.64 2289.91,1366.58 2291.94,1359.49 "/>
<path clip-path="url(#clip540)" d="M1519.52 248.629 L2281.13 248.629 L2281.13 93.1086 L1519.52 93.1086  Z" fill="#ffffff" fill-rule="evenodd" fill-opacity="1"/>
<polyline clip-path="url(#clip540)" style="stroke:#000000; stroke-linecap:round; stroke-linejoin:round; stroke-width:4; stroke-opacity:1; fill:none" points="1519.52,248.629 2281.13,248.629 2281.13,93.1086 1519.52,93.1086 1519.52,248.629 "/>
<polyline clip-path="url(#clip540)" style="stroke:#009af9; stroke-linecap:round; stroke-linejoin:round; stroke-width:4; stroke-opacity:1; fill:none" points="1543.39,144.949 1686.65,144.949 "/>
<path clip-path="url(#clip540)" d="M1710.52 127.669 L1717.49 127.669 L1726.31 151.187 L1735.17 127.669 L1742.14 127.669 L1742.14 162.229 L1737.58 162.229 L1737.58 131.882 L1728.67 155.585 L1723.97 155.585 L1715.06 131.882 L1715.06 162.229 L1710.52 162.229 L1710.52 127.669 Z" fill="#000000" fill-rule="nonzero" fill-opacity="1" /><path clip-path="url(#clip540)" d="M1750.8 151.997 L1750.8 136.303 L1755.06 136.303 L1755.06 151.835 Q1755.06 155.516 1756.49 157.368 Q1757.93 159.196 1760.8 159.196 Q1764.25 159.196 1766.24 156.997 Q1768.25 154.798 1768.25 151.002 L1768.25 136.303 L1772.51 136.303 L1772.51 162.229 L1768.25 162.229 L1768.25 158.247 Q1766.7 160.608 1764.64 161.766 Q1762.6 162.9 1759.9 162.9 Q1755.43 162.9 1753.11 160.122 Q1750.8 157.344 1750.8 151.997 M1761.52 135.678 L1761.52 135.678 Z" fill="#000000" fill-rule="nonzero" fill-opacity="1" /><path clip-path="url(#clip540)" d="M1781.28 126.21 L1785.54 126.21 L1785.54 162.229 L1781.28 162.229 L1781.28 126.21 Z" fill="#000000" fill-rule="nonzero" fill-opacity="1" /><path clip-path="url(#clip540)" d="M1798.67 128.942 L1798.67 136.303 L1807.44 136.303 L1807.44 139.613 L1798.67 139.613 L1798.67 153.687 Q1798.67 156.858 1799.52 157.761 Q1800.4 158.664 1803.07 158.664 L1807.44 158.664 L1807.44 162.229 L1803.07 162.229 Q1798.14 162.229 1796.26 160.4 Q1794.39 158.548 1794.39 153.687 L1794.39 139.613 L1791.26 139.613 L1791.26 136.303 L1794.39 136.303 L1794.39 128.942 L1798.67 128.942 Z" fill="#000000" fill-rule="nonzero" fill-opacity="1" /><path clip-path="url(#clip540)" d="M1813.04 136.303 L1817.3 136.303 L1817.3 162.229 L1813.04 162.229 L1813.04 136.303 M1813.04 126.21 L1817.3 126.21 L1817.3 131.604 L1813.04 131.604 L1813.04 126.21 Z" fill="#000000" fill-rule="nonzero" fill-opacity="1" /><path clip-path="url(#clip540)" d="M1847.77 146.581 L1847.77 162.229 L1843.51 162.229 L1843.51 146.719 Q1843.51 143.039 1842.07 141.21 Q1840.64 139.382 1837.77 139.382 Q1834.32 139.382 1832.33 141.581 Q1830.34 143.78 1830.34 147.576 L1830.34 162.229 L1826.05 162.229 L1826.05 136.303 L1830.34 136.303 L1830.34 140.331 Q1831.86 137.993 1833.92 136.835 Q1836.01 135.678 1838.71 135.678 Q1843.18 135.678 1845.47 138.456 Q1847.77 141.21 1847.77 146.581 Z" fill="#000000" fill-rule="nonzero" fill-opacity="1" /><path clip-path="url(#clip540)" d="M1866.31 139.289 Q1862.88 139.289 1860.89 141.974 Q1858.9 144.636 1858.9 149.289 Q1858.9 153.942 1860.87 156.627 Q1862.86 159.289 1866.31 159.289 Q1869.71 159.289 1871.7 156.604 Q1873.69 153.918 1873.69 149.289 Q1873.69 144.682 1871.7 141.997 Q1869.71 139.289 1866.31 139.289 M1866.31 135.678 Q1871.86 135.678 1875.03 139.289 Q1878.21 142.9 1878.21 149.289 Q1878.21 155.655 1875.03 159.289 Q1871.86 162.9 1866.31 162.9 Q1860.73 162.9 1857.56 159.289 Q1854.41 155.655 1854.41 149.289 Q1854.41 142.9 1857.56 139.289 Q1860.73 135.678 1866.31 135.678 Z" fill="#000000" fill-rule="nonzero" fill-opacity="1" /><path clip-path="url(#clip540)" d="M1905.45 141.28 Q1907.05 138.409 1909.27 137.044 Q1911.49 135.678 1914.5 135.678 Q1918.55 135.678 1920.75 138.525 Q1922.95 141.349 1922.95 146.581 L1922.95 162.229 L1918.67 162.229 L1918.67 146.719 Q1918.67 142.993 1917.35 141.187 Q1916.03 139.382 1913.32 139.382 Q1910.01 139.382 1908.09 141.581 Q1906.17 143.78 1906.17 147.576 L1906.17 162.229 L1901.89 162.229 L1901.89 146.719 Q1901.89 142.969 1900.57 141.187 Q1899.25 139.382 1896.49 139.382 Q1893.23 139.382 1891.31 141.604 Q1889.39 143.803 1889.39 147.576 L1889.39 162.229 L1885.1 162.229 L1885.1 136.303 L1889.39 136.303 L1889.39 140.331 Q1890.84 137.946 1892.88 136.812 Q1894.92 135.678 1897.72 135.678 Q1900.54 135.678 1902.51 137.113 Q1904.5 138.548 1905.45 141.28 Z" fill="#000000" fill-rule="nonzero" fill-opacity="1" /><path clip-path="url(#clip540)" d="M1931.45 136.303 L1935.7 136.303 L1935.7 162.229 L1931.45 162.229 L1931.45 136.303 M1931.45 126.21 L1935.7 126.21 L1935.7 131.604 L1931.45 131.604 L1931.45 126.21 Z" fill="#000000" fill-rule="nonzero" fill-opacity="1" /><path clip-path="url(#clip540)" d="M1956.4 149.196 Q1951.24 149.196 1949.25 150.377 Q1947.26 151.557 1947.26 154.405 Q1947.26 156.673 1948.74 158.016 Q1950.24 159.335 1952.81 159.335 Q1956.35 159.335 1958.48 156.835 Q1960.64 154.312 1960.64 150.145 L1960.64 149.196 L1956.4 149.196 M1964.89 147.437 L1964.89 162.229 L1960.64 162.229 L1960.64 158.293 Q1959.18 160.655 1957 161.789 Q1954.83 162.9 1951.68 162.9 Q1947.7 162.9 1945.33 160.678 Q1943 158.432 1943 154.682 Q1943 150.307 1945.91 148.085 Q1948.85 145.863 1954.66 145.863 L1960.64 145.863 L1960.64 145.446 Q1960.64 142.507 1958.69 140.909 Q1956.77 139.289 1953.27 139.289 Q1951.05 139.289 1948.95 139.821 Q1946.84 140.354 1944.89 141.419 L1944.89 137.483 Q1947.23 136.581 1949.43 136.141 Q1951.63 135.678 1953.71 135.678 Q1959.34 135.678 1962.12 138.594 Q1964.89 141.511 1964.89 147.437 Z" fill="#000000" fill-rule="nonzero" fill-opacity="1" /><path clip-path="url(#clip540)" d="M1973.67 126.21 L1977.93 126.21 L1977.93 162.229 L1973.67 162.229 L1973.67 126.21 Z" fill="#000000" fill-rule="nonzero" fill-opacity="1" /><path clip-path="url(#clip540)" d="M2016.93 140.284 Q2016.21 139.868 2015.36 139.682 Q2014.52 139.474 2013.51 139.474 Q2009.89 139.474 2007.95 141.835 Q2006.03 144.173 2006.03 148.571 L2006.03 162.229 L2001.75 162.229 L2001.75 136.303 L2006.03 136.303 L2006.03 140.331 Q2007.37 137.969 2009.52 136.835 Q2011.68 135.678 2014.76 135.678 Q2015.2 135.678 2015.73 135.747 Q2016.26 135.794 2016.91 135.909 L2016.93 140.284 Z" fill="#000000" fill-rule="nonzero" fill-opacity="1" /><path clip-path="url(#clip540)" d="M2042.53 148.201 L2042.53 150.284 L2022.95 150.284 Q2023.23 154.682 2025.59 156.997 Q2027.97 159.289 2032.21 159.289 Q2034.66 159.289 2036.95 158.687 Q2039.27 158.085 2041.54 156.881 L2041.54 160.909 Q2039.25 161.881 2036.84 162.391 Q2034.43 162.9 2031.95 162.9 Q2025.75 162.9 2022.12 159.289 Q2018.51 155.678 2018.51 149.52 Q2018.51 143.155 2021.93 139.428 Q2025.38 135.678 2031.21 135.678 Q2036.45 135.678 2039.48 139.057 Q2042.53 142.414 2042.53 148.201 M2038.27 146.951 Q2038.23 143.456 2036.31 141.372 Q2034.41 139.289 2031.26 139.289 Q2027.7 139.289 2025.54 141.303 Q2023.41 143.317 2023.09 146.974 L2038.27 146.951 Z" fill="#000000" fill-rule="nonzero" fill-opacity="1" /><path clip-path="url(#clip540)" d="M2066.05 137.067 L2066.05 141.094 Q2064.25 140.169 2062.3 139.706 Q2060.36 139.243 2058.27 139.243 Q2055.1 139.243 2053.51 140.215 Q2051.93 141.187 2051.93 143.131 Q2051.93 144.613 2053.07 145.469 Q2054.2 146.303 2057.63 147.067 L2059.08 147.391 Q2063.62 148.363 2065.52 150.145 Q2067.44 151.905 2067.44 155.076 Q2067.44 158.687 2064.57 160.793 Q2061.72 162.9 2056.72 162.9 Q2054.64 162.9 2052.37 162.483 Q2050.13 162.09 2047.63 161.28 L2047.63 156.881 Q2049.99 158.108 2052.28 158.733 Q2054.57 159.335 2056.82 159.335 Q2059.82 159.335 2061.44 158.317 Q2063.07 157.275 2063.07 155.4 Q2063.07 153.664 2061.88 152.738 Q2060.73 151.812 2056.77 150.956 L2055.29 150.608 Q2051.33 149.775 2049.57 148.062 Q2047.81 146.326 2047.81 143.317 Q2047.81 139.659 2050.4 137.669 Q2053 135.678 2057.76 135.678 Q2060.13 135.678 2062.21 136.025 Q2064.29 136.372 2066.05 137.067 Z" fill="#000000" fill-rule="nonzero" fill-opacity="1" /><path clip-path="url(#clip540)" d="M2086 149.196 Q2080.84 149.196 2078.85 150.377 Q2076.86 151.557 2076.86 154.405 Q2076.86 156.673 2078.34 158.016 Q2079.85 159.335 2082.42 159.335 Q2085.96 159.335 2088.09 156.835 Q2090.24 154.312 2090.24 150.145 L2090.24 149.196 L2086 149.196 M2094.5 147.437 L2094.5 162.229 L2090.24 162.229 L2090.24 158.293 Q2088.78 160.655 2086.61 161.789 Q2084.43 162.9 2081.28 162.9 Q2077.3 162.9 2074.94 160.678 Q2072.6 158.432 2072.6 154.682 Q2072.6 150.307 2075.52 148.085 Q2078.46 145.863 2084.27 145.863 L2090.24 145.863 L2090.24 145.446 Q2090.24 142.507 2088.3 140.909 Q2086.38 139.289 2082.88 139.289 Q2080.66 139.289 2078.55 139.821 Q2076.44 140.354 2074.5 141.419 L2074.5 137.483 Q2076.84 136.581 2079.04 136.141 Q2081.24 135.678 2083.32 135.678 Q2088.94 135.678 2091.72 138.594 Q2094.5 141.511 2094.5 147.437 Z" fill="#000000" fill-rule="nonzero" fill-opacity="1" /><path clip-path="url(#clip540)" d="M2123.46 141.28 Q2125.06 138.409 2127.28 137.044 Q2129.5 135.678 2132.51 135.678 Q2136.56 135.678 2138.76 138.525 Q2140.96 141.349 2140.96 146.581 L2140.96 162.229 L2136.68 162.229 L2136.68 146.719 Q2136.68 142.993 2135.36 141.187 Q2134.04 139.382 2131.33 139.382 Q2128.02 139.382 2126.1 141.581 Q2124.18 143.78 2124.18 147.576 L2124.18 162.229 L2119.89 162.229 L2119.89 146.719 Q2119.89 142.969 2118.57 141.187 Q2117.25 139.382 2114.5 139.382 Q2111.24 139.382 2109.32 141.604 Q2107.39 143.803 2107.39 147.576 L2107.39 162.229 L2103.11 162.229 L2103.11 136.303 L2107.39 136.303 L2107.39 140.331 Q2108.85 137.946 2110.89 136.812 Q2112.93 135.678 2115.73 135.678 Q2118.55 135.678 2120.52 137.113 Q2122.51 138.548 2123.46 141.28 Z" fill="#000000" fill-rule="nonzero" fill-opacity="1" /><path clip-path="url(#clip540)" d="M2153.57 158.34 L2153.57 172.09 L2149.29 172.09 L2149.29 136.303 L2153.57 136.303 L2153.57 140.238 Q2154.92 137.923 2156.95 136.812 Q2159.01 135.678 2161.86 135.678 Q2166.58 135.678 2169.52 139.428 Q2172.49 143.178 2172.49 149.289 Q2172.49 155.4 2169.52 159.15 Q2166.58 162.9 2161.86 162.9 Q2159.01 162.9 2156.95 161.789 Q2154.92 160.655 2153.57 158.34 M2168.06 149.289 Q2168.06 144.59 2166.12 141.928 Q2164.2 139.243 2160.82 139.243 Q2157.44 139.243 2155.5 141.928 Q2153.57 144.59 2153.57 149.289 Q2153.57 153.988 2155.5 156.673 Q2157.44 159.335 2160.82 159.335 Q2164.2 159.335 2166.12 156.673 Q2168.06 153.988 2168.06 149.289 Z" fill="#000000" fill-rule="nonzero" fill-opacity="1" /><path clip-path="url(#clip540)" d="M2179.55 126.21 L2183.81 126.21 L2183.81 162.229 L2179.55 162.229 L2179.55 126.21 Z" fill="#000000" fill-rule="nonzero" fill-opacity="1" /><path clip-path="url(#clip540)" d="M2192.72 136.303 L2196.98 136.303 L2196.98 162.229 L2192.72 162.229 L2192.72 136.303 M2192.72 126.21 L2196.98 126.21 L2196.98 131.604 L2192.72 131.604 L2192.72 126.21 Z" fill="#000000" fill-rule="nonzero" fill-opacity="1" /><path clip-path="url(#clip540)" d="M2227.44 146.581 L2227.44 162.229 L2223.18 162.229 L2223.18 146.719 Q2223.18 143.039 2221.74 141.21 Q2220.31 139.382 2217.44 139.382 Q2213.99 139.382 2212 141.581 Q2210.01 143.78 2210.01 147.576 L2210.01 162.229 L2205.73 162.229 L2205.73 136.303 L2210.01 136.303 L2210.01 140.331 Q2211.54 137.993 2213.6 136.835 Q2215.68 135.678 2218.39 135.678 Q2222.86 135.678 2225.15 138.456 Q2227.44 141.21 2227.44 146.581 Z" fill="#000000" fill-rule="nonzero" fill-opacity="1" /><path clip-path="url(#clip540)" d="M2252.99 148.965 Q2252.99 144.335 2251.07 141.789 Q2249.18 139.243 2245.73 139.243 Q2242.3 139.243 2240.38 141.789 Q2238.48 144.335 2238.48 148.965 Q2238.48 153.571 2240.38 156.118 Q2242.3 158.664 2245.73 158.664 Q2249.18 158.664 2251.07 156.118 Q2252.99 153.571 2252.99 148.965 M2257.25 159.011 Q2257.25 165.631 2254.31 168.849 Q2251.37 172.09 2245.31 172.09 Q2243.06 172.09 2241.07 171.742 Q2239.08 171.418 2237.21 170.724 L2237.21 166.58 Q2239.08 167.599 2240.91 168.085 Q2242.74 168.571 2244.64 168.571 Q2248.83 168.571 2250.91 166.372 Q2252.99 164.196 2252.99 159.775 L2252.99 157.668 Q2251.68 159.96 2249.62 161.094 Q2247.56 162.229 2244.68 162.229 Q2239.92 162.229 2237 158.594 Q2234.08 154.96 2234.08 148.965 Q2234.08 142.946 2237 139.312 Q2239.92 135.678 2244.68 135.678 Q2247.56 135.678 2249.62 136.812 Q2251.68 137.946 2252.99 140.238 L2252.99 136.303 L2257.25 136.303 L2257.25 159.011 Z" fill="#000000" fill-rule="nonzero" fill-opacity="1" /><polyline clip-path="url(#clip540)" style="stroke:#e26f46; stroke-linecap:round; stroke-linejoin:round; stroke-width:4; stroke-opacity:1; fill:none" points="1543.39,196.789 1686.65,196.789 "/>
<path clip-path="url(#clip540)" d="M1732.77 180.643 L1732.77 185.203 Q1730.1 183.93 1727.74 183.305 Q1725.38 182.68 1723.18 182.68 Q1719.36 182.68 1717.28 184.161 Q1715.22 185.643 1715.22 188.374 Q1715.22 190.666 1716.59 191.847 Q1717.97 193.004 1721.82 193.722 L1724.64 194.3 Q1729.87 195.296 1732.35 197.819 Q1734.85 200.319 1734.85 204.532 Q1734.85 209.555 1731.47 212.147 Q1728.11 214.74 1721.61 214.74 Q1719.16 214.74 1716.38 214.184 Q1713.62 213.629 1710.66 212.541 L1710.66 207.726 Q1713.51 209.323 1716.24 210.133 Q1718.97 210.944 1721.61 210.944 Q1725.61 210.944 1727.79 209.37 Q1729.97 207.796 1729.97 204.879 Q1729.97 202.333 1728.39 200.897 Q1726.84 199.462 1723.28 198.745 L1720.43 198.189 Q1715.2 197.147 1712.86 194.925 Q1710.52 192.703 1710.52 188.745 Q1710.52 184.161 1713.74 181.522 Q1716.98 178.884 1722.65 178.884 Q1725.08 178.884 1727.6 179.323 Q1730.13 179.763 1732.77 180.643 Z" fill="#000000" fill-rule="nonzero" fill-opacity="1" /><path clip-path="url(#clip540)" d="M1746.17 180.782 L1746.17 188.143 L1754.94 188.143 L1754.94 191.453 L1746.17 191.453 L1746.17 205.527 Q1746.17 208.698 1747.03 209.601 Q1747.9 210.504 1750.57 210.504 L1754.94 210.504 L1754.94 214.069 L1750.57 214.069 Q1745.64 214.069 1743.76 212.24 Q1741.89 210.388 1741.89 205.527 L1741.89 191.453 L1738.76 191.453 L1738.76 188.143 L1741.89 188.143 L1741.89 180.782 L1746.17 180.782 Z" fill="#000000" fill-rule="nonzero" fill-opacity="1" /><path clip-path="url(#clip540)" d="M1775.57 192.124 Q1774.85 191.708 1773.99 191.522 Q1773.16 191.314 1772.14 191.314 Q1768.53 191.314 1766.59 193.675 Q1764.66 196.013 1764.66 200.411 L1764.66 214.069 L1760.38 214.069 L1760.38 188.143 L1764.66 188.143 L1764.66 192.171 Q1766.01 189.809 1768.16 188.675 Q1770.31 187.518 1773.39 187.518 Q1773.83 187.518 1774.36 187.587 Q1774.9 187.634 1775.54 187.749 L1775.57 192.124 Z" fill="#000000" fill-rule="nonzero" fill-opacity="1" /><path clip-path="url(#clip540)" d="M1791.82 201.036 Q1786.65 201.036 1784.66 202.217 Q1782.67 203.397 1782.67 206.245 Q1782.67 208.513 1784.15 209.856 Q1785.66 211.175 1788.23 211.175 Q1791.77 211.175 1793.9 208.675 Q1796.05 206.152 1796.05 201.985 L1796.05 201.036 L1791.82 201.036 M1800.31 199.277 L1800.31 214.069 L1796.05 214.069 L1796.05 210.133 Q1794.59 212.495 1792.42 213.629 Q1790.24 214.74 1787.09 214.74 Q1783.11 214.74 1780.75 212.518 Q1778.41 210.272 1778.41 206.522 Q1778.41 202.147 1781.33 199.925 Q1784.27 197.703 1790.08 197.703 L1796.05 197.703 L1796.05 197.286 Q1796.05 194.347 1794.11 192.749 Q1792.19 191.129 1788.69 191.129 Q1786.47 191.129 1784.36 191.661 Q1782.26 192.194 1780.31 193.259 L1780.31 189.323 Q1782.65 188.421 1784.85 187.981 Q1787.05 187.518 1789.13 187.518 Q1794.76 187.518 1797.53 190.434 Q1800.31 193.351 1800.31 199.277 Z" fill="#000000" fill-rule="nonzero" fill-opacity="1" /><path clip-path="url(#clip540)" d="M1813.3 180.782 L1813.3 188.143 L1822.07 188.143 L1822.07 191.453 L1813.3 191.453 L1813.3 205.527 Q1813.3 208.698 1814.15 209.601 Q1815.03 210.504 1817.7 210.504 L1822.07 210.504 L1822.07 214.069 L1817.7 214.069 Q1812.77 214.069 1810.89 212.24 Q1809.02 210.388 1809.02 205.527 L1809.02 191.453 L1805.89 191.453 L1805.89 188.143 L1809.02 188.143 L1809.02 180.782 L1813.3 180.782 Z" fill="#000000" fill-rule="nonzero" fill-opacity="1" /><path clip-path="url(#clip540)" d="M1827.67 188.143 L1831.93 188.143 L1831.93 214.069 L1827.67 214.069 L1827.67 188.143 M1827.67 178.05 L1831.93 178.05 L1831.93 183.444 L1827.67 183.444 L1827.67 178.05 Z" fill="#000000" fill-rule="nonzero" fill-opacity="1" /><path clip-path="url(#clip540)" d="M1853.97 178.05 L1853.97 181.592 L1849.9 181.592 Q1847.6 181.592 1846.7 182.518 Q1845.82 183.444 1845.82 185.851 L1845.82 188.143 L1852.83 188.143 L1852.83 191.453 L1845.82 191.453 L1845.82 214.069 L1841.54 214.069 L1841.54 191.453 L1837.46 191.453 L1837.46 188.143 L1841.54 188.143 L1841.54 186.337 Q1841.54 182.009 1843.55 180.041 Q1845.57 178.05 1849.94 178.05 L1853.97 178.05 Z" fill="#000000" fill-rule="nonzero" fill-opacity="1" /><path clip-path="url(#clip540)" d="M1857.53 188.143 L1861.79 188.143 L1861.79 214.069 L1857.53 214.069 L1857.53 188.143 M1857.53 178.05 L1861.79 178.05 L1861.79 183.444 L1857.53 183.444 L1857.53 178.05 Z" fill="#000000" fill-rule="nonzero" fill-opacity="1" /><path clip-path="url(#clip540)" d="M1892.88 200.041 L1892.88 202.124 L1873.3 202.124 Q1873.58 206.522 1875.94 208.837 Q1878.32 211.129 1882.56 211.129 Q1885.01 211.129 1887.3 210.527 Q1889.62 209.925 1891.89 208.721 L1891.89 212.749 Q1889.59 213.721 1887.19 214.231 Q1884.78 214.74 1882.3 214.74 Q1876.1 214.74 1872.46 211.129 Q1868.85 207.518 1868.85 201.36 Q1868.85 194.995 1872.28 191.268 Q1875.73 187.518 1881.56 187.518 Q1886.79 187.518 1889.83 190.897 Q1892.88 194.254 1892.88 200.041 M1888.62 198.791 Q1888.58 195.296 1886.65 193.212 Q1884.76 191.129 1881.61 191.129 Q1878.04 191.129 1875.89 193.143 Q1873.76 195.157 1873.44 198.814 L1888.62 198.791 Z" fill="#000000" fill-rule="nonzero" fill-opacity="1" /><path clip-path="url(#clip540)" d="M1916.93 192.078 L1916.93 178.05 L1921.19 178.05 L1921.19 214.069 L1916.93 214.069 L1916.93 210.18 Q1915.59 212.495 1913.53 213.629 Q1911.49 214.74 1908.62 214.74 Q1903.92 214.74 1900.96 210.99 Q1898.02 207.24 1898.02 201.129 Q1898.02 195.018 1900.96 191.268 Q1903.92 187.518 1908.62 187.518 Q1911.49 187.518 1913.53 188.652 Q1915.59 189.763 1916.93 192.078 M1902.42 201.129 Q1902.42 205.828 1904.34 208.513 Q1906.28 211.175 1909.66 211.175 Q1913.04 211.175 1914.99 208.513 Q1916.93 205.828 1916.93 201.129 Q1916.93 196.43 1914.99 193.768 Q1913.04 191.083 1909.66 191.083 Q1906.28 191.083 1904.34 193.768 Q1902.42 196.43 1902.42 201.129 Z" fill="#000000" fill-rule="nonzero" fill-opacity="1" /><path clip-path="url(#clip540)" d="M1960.06 192.124 Q1959.34 191.708 1958.48 191.522 Q1957.65 191.314 1956.63 191.314 Q1953.02 191.314 1951.08 193.675 Q1949.15 196.013 1949.15 200.411 L1949.15 214.069 L1944.87 214.069 L1944.87 188.143 L1949.15 188.143 L1949.15 192.171 Q1950.5 189.809 1952.65 188.675 Q1954.8 187.518 1957.88 187.518 Q1958.32 187.518 1958.85 187.587 Q1959.39 187.634 1960.03 187.749 L1960.06 192.124 Z" fill="#000000" fill-rule="nonzero" fill-opacity="1" /><path clip-path="url(#clip540)" d="M1985.66 200.041 L1985.66 202.124 L1966.08 202.124 Q1966.35 206.522 1968.71 208.837 Q1971.1 211.129 1975.33 211.129 Q1977.79 211.129 1980.08 210.527 Q1982.39 209.925 1984.66 208.721 L1984.66 212.749 Q1982.37 213.721 1979.96 214.231 Q1977.56 214.74 1975.08 214.74 Q1968.88 214.74 1965.24 211.129 Q1961.63 207.518 1961.63 201.36 Q1961.63 194.995 1965.06 191.268 Q1968.51 187.518 1974.34 187.518 Q1979.57 187.518 1982.6 190.897 Q1985.66 194.254 1985.66 200.041 M1981.4 198.791 Q1981.35 195.296 1979.43 193.212 Q1977.53 191.129 1974.39 191.129 Q1970.82 191.129 1968.67 193.143 Q1966.54 195.157 1966.21 198.814 L1981.4 198.791 Z" fill="#000000" fill-rule="nonzero" fill-opacity="1" /><path clip-path="url(#clip540)" d="M2009.18 188.907 L2009.18 192.934 Q2007.37 192.009 2005.43 191.546 Q2003.48 191.083 2001.4 191.083 Q1998.23 191.083 1996.63 192.055 Q1995.06 193.027 1995.06 194.971 Q1995.06 196.453 1996.19 197.309 Q1997.32 198.143 2000.75 198.907 L2002.21 199.231 Q2006.75 200.203 2008.64 201.985 Q2010.57 203.745 2010.57 206.916 Q2010.57 210.527 2007.7 212.633 Q2004.85 214.74 1999.85 214.74 Q1997.76 214.74 1995.5 214.323 Q1993.25 213.93 1990.75 213.12 L1990.75 208.721 Q1993.11 209.948 1995.4 210.573 Q1997.7 211.175 1999.94 211.175 Q2002.95 211.175 2004.57 210.157 Q2006.19 209.115 2006.19 207.24 Q2006.19 205.504 2005.01 204.578 Q2003.85 203.652 1999.89 202.796 L1998.41 202.448 Q1994.45 201.615 1992.7 199.902 Q1990.94 198.166 1990.94 195.157 Q1990.94 191.499 1993.53 189.509 Q1996.12 187.518 2000.89 187.518 Q2003.25 187.518 2005.33 187.865 Q2007.42 188.212 2009.18 188.907 Z" fill="#000000" fill-rule="nonzero" fill-opacity="1" /><path clip-path="url(#clip540)" d="M2029.13 201.036 Q2023.97 201.036 2021.98 202.217 Q2019.99 203.397 2019.99 206.245 Q2019.99 208.513 2021.47 209.856 Q2022.97 211.175 2025.54 211.175 Q2029.08 211.175 2031.21 208.675 Q2033.37 206.152 2033.37 201.985 L2033.37 201.036 L2029.13 201.036 M2037.63 199.277 L2037.63 214.069 L2033.37 214.069 L2033.37 210.133 Q2031.91 212.495 2029.73 213.629 Q2027.56 214.74 2024.41 214.74 Q2020.43 214.74 2018.07 212.518 Q2015.73 210.272 2015.73 206.522 Q2015.73 202.147 2018.64 199.925 Q2021.58 197.703 2027.39 197.703 L2033.37 197.703 L2033.37 197.286 Q2033.37 194.347 2031.42 192.749 Q2029.5 191.129 2026.01 191.129 Q2023.78 191.129 2021.68 191.661 Q2019.57 192.194 2017.63 193.259 L2017.63 189.323 Q2019.96 188.421 2022.16 187.981 Q2024.36 187.518 2026.45 187.518 Q2032.07 187.518 2034.85 190.434 Q2037.63 193.351 2037.63 199.277 Z" fill="#000000" fill-rule="nonzero" fill-opacity="1" /><path clip-path="url(#clip540)" d="M2066.58 193.12 Q2068.18 190.249 2070.4 188.884 Q2072.63 187.518 2075.63 187.518 Q2079.69 187.518 2081.88 190.365 Q2084.08 193.189 2084.08 198.421 L2084.08 214.069 L2079.8 214.069 L2079.8 198.559 Q2079.8 194.833 2078.48 193.027 Q2077.16 191.222 2074.45 191.222 Q2071.14 191.222 2069.22 193.421 Q2067.3 195.62 2067.3 199.416 L2067.3 214.069 L2063.02 214.069 L2063.02 198.559 Q2063.02 194.809 2061.7 193.027 Q2060.38 191.222 2057.63 191.222 Q2054.36 191.222 2052.44 193.444 Q2050.52 195.643 2050.52 199.416 L2050.52 214.069 L2046.24 214.069 L2046.24 188.143 L2050.52 188.143 L2050.52 192.171 Q2051.98 189.786 2054.01 188.652 Q2056.05 187.518 2058.85 187.518 Q2061.68 187.518 2063.64 188.953 Q2065.63 190.388 2066.58 193.12 Z" fill="#000000" fill-rule="nonzero" fill-opacity="1" /><path clip-path="url(#clip540)" d="M2096.7 210.18 L2096.7 223.93 L2092.42 223.93 L2092.42 188.143 L2096.7 188.143 L2096.7 192.078 Q2098.04 189.763 2100.08 188.652 Q2102.14 187.518 2104.99 187.518 Q2109.71 187.518 2112.65 191.268 Q2115.61 195.018 2115.61 201.129 Q2115.61 207.24 2112.65 210.99 Q2109.71 214.74 2104.99 214.74 Q2102.14 214.74 2100.08 213.629 Q2098.04 212.495 2096.7 210.18 M2111.19 201.129 Q2111.19 196.43 2109.25 193.768 Q2107.32 191.083 2103.94 191.083 Q2100.57 191.083 2098.62 193.768 Q2096.7 196.43 2096.7 201.129 Q2096.7 205.828 2098.62 208.513 Q2100.57 211.175 2103.94 211.175 Q2107.32 211.175 2109.25 208.513 Q2111.19 205.828 2111.19 201.129 Z" fill="#000000" fill-rule="nonzero" fill-opacity="1" /><path clip-path="url(#clip540)" d="M2122.67 178.05 L2126.93 178.05 L2126.93 214.069 L2122.67 214.069 L2122.67 178.05 Z" fill="#000000" fill-rule="nonzero" fill-opacity="1" /><path clip-path="url(#clip540)" d="M2135.84 188.143 L2140.1 188.143 L2140.1 214.069 L2135.84 214.069 L2135.84 188.143 M2135.84 178.05 L2140.1 178.05 L2140.1 183.444 L2135.84 183.444 L2135.84 178.05 Z" fill="#000000" fill-rule="nonzero" fill-opacity="1" /><path clip-path="url(#clip540)" d="M2170.56 198.421 L2170.56 214.069 L2166.31 214.069 L2166.31 198.559 Q2166.31 194.879 2164.87 193.05 Q2163.44 191.222 2160.56 191.222 Q2157.12 191.222 2155.12 193.421 Q2153.13 195.62 2153.13 199.416 L2153.13 214.069 L2148.85 214.069 L2148.85 188.143 L2153.13 188.143 L2153.13 192.171 Q2154.66 189.833 2156.72 188.675 Q2158.81 187.518 2161.51 187.518 Q2165.98 187.518 2168.27 190.296 Q2170.56 193.05 2170.56 198.421 Z" fill="#000000" fill-rule="nonzero" fill-opacity="1" /><path clip-path="url(#clip540)" d="M2196.12 200.805 Q2196.12 196.175 2194.2 193.629 Q2192.3 191.083 2188.85 191.083 Q2185.43 191.083 2183.5 193.629 Q2181.61 196.175 2181.61 200.805 Q2181.61 205.411 2183.5 207.958 Q2185.43 210.504 2188.85 210.504 Q2192.3 210.504 2194.2 207.958 Q2196.12 205.411 2196.12 200.805 M2200.38 210.851 Q2200.38 217.471 2197.44 220.689 Q2194.5 223.93 2188.43 223.93 Q2186.19 223.93 2184.2 223.582 Q2182.21 223.258 2180.33 222.564 L2180.33 218.42 Q2182.21 219.439 2184.04 219.925 Q2185.87 220.411 2187.76 220.411 Q2191.95 220.411 2194.04 218.212 Q2196.12 216.036 2196.12 211.615 L2196.12 209.508 Q2194.8 211.8 2192.74 212.934 Q2190.68 214.069 2187.81 214.069 Q2183.04 214.069 2180.12 210.434 Q2177.21 206.8 2177.21 200.805 Q2177.21 194.786 2180.12 191.152 Q2183.04 187.518 2187.81 187.518 Q2190.68 187.518 2192.74 188.652 Q2194.8 189.786 2196.12 192.078 L2196.12 188.143 L2200.38 188.143 L2200.38 210.851 Z" fill="#000000" fill-rule="nonzero" fill-opacity="1" /></svg>
