<?xml version="1.0" encoding="utf-8"?>
<svg xmlns="http://www.w3.org/2000/svg" xmlns:xlink="http://www.w3.org/1999/xlink" width="600" height="400" viewBox="0 0 2400 1600">
<defs>
  <clipPath id="clip360">
    <rect x="0" y="0" width="2400" height="1600"/>
  </clipPath>
</defs>
<path clip-path="url(#clip360)" d="M0 1600 L2400 1600 L2400 0 L0 0  Z" fill="#ffffff" fill-rule="evenodd" fill-opacity="1"/>
<defs>
  <clipPath id="clip361">
    <rect x="480" y="0" width="1681" height="1600"/>
  </clipPath>
</defs>
<path clip-path="url(#clip360)" d="M219.866 1423.18 L2352.76 1423.18 L2352.76 47.2441 L219.866 47.2441  Z" fill="#ffffff" fill-rule="evenodd" fill-opacity="1"/>
<defs>
  <clipPath id="clip362">
    <rect x="219" y="47" width="2134" height="1377"/>
  </clipPath>
</defs>
<polyline clip-path="url(#clip362)" style="stroke:#000000; stroke-linecap:round; stroke-linejoin:round; stroke-width:2; stroke-opacity:0.1; fill:none" points="278.217,1423.18 278.217,47.2441 "/>
<polyline clip-path="url(#clip362)" style="stroke:#000000; stroke-linecap:round; stroke-linejoin:round; stroke-width:2; stroke-opacity:0.1; fill:none" points="781.76,1423.18 781.76,47.2441 "/>
<polyline clip-path="url(#clip362)" style="stroke:#000000; stroke-linecap:round; stroke-linejoin:round; stroke-width:2; stroke-opacity:0.1; fill:none" points="1285.3,1423.18 1285.3,47.2441 "/>
<polyline clip-path="url(#clip362)" style="stroke:#000000; stroke-linecap:round; stroke-linejoin:round; stroke-width:2; stroke-opacity:0.1; fill:none" points="1788.85,1423.18 1788.85,47.2441 "/>
<polyline clip-path="url(#clip362)" style="stroke:#000000; stroke-linecap:round; stroke-linejoin:round; stroke-width:2; stroke-opacity:0.1; fill:none" points="2292.39,1423.18 2292.39,47.2441 "/>
<polyline clip-path="url(#clip360)" style="stroke:#000000; stroke-linecap:round; stroke-linejoin:round; stroke-width:4; stroke-opacity:1; fill:none" points="219.866,1423.18 2352.76,1423.18 "/>
<polyline clip-path="url(#clip360)" style="stroke:#000000; stroke-linecap:round; stroke-linejoin:round; stroke-width:4; stroke-opacity:1; fill:none" points="278.217,1423.18 278.217,1404.28 "/>
<polyline clip-path="url(#clip360)" style="stroke:#000000; stroke-linecap:round; stroke-linejoin:round; stroke-width:4; stroke-opacity:1; fill:none" points="781.76,1423.18 781.76,1404.28 "/>
<polyline clip-path="url(#clip360)" style="stroke:#000000; stroke-linecap:round; stroke-linejoin:round; stroke-width:4; stroke-opacity:1; fill:none" points="1285.3,1423.18 1285.3,1404.28 "/>
<polyline clip-path="url(#clip360)" style="stroke:#000000; stroke-linecap:round; stroke-linejoin:round; stroke-width:4; stroke-opacity:1; fill:none" points="1788.85,1423.18 1788.85,1404.28 "/>
<polyline clip-path="url(#clip360)" style="stroke:#000000; stroke-linecap:round; stroke-linejoin:round; stroke-width:4; stroke-opacity:1; fill:none" points="2292.39,1423.18 2292.39,1404.28 "/>
<path clip-path="url(#clip360)" d="M278.217 1454.1 Q274.606 1454.1 272.777 1457.66 Q270.972 1461.2 270.972 1468.33 Q270.972 1475.44 272.777 1479.01 Q274.606 1482.55 278.217 1482.55 Q281.851 1482.55 283.657 1479.01 Q285.485 1475.44 285.485 1468.33 Q285.485 1461.2 283.657 1457.66 Q281.851 1454.1 278.217 1454.1 M278.217 1450.39 Q284.027 1450.39 287.083 1455 Q290.161 1459.58 290.161 1468.33 Q290.161 1477.06 287.083 1481.67 Q284.027 1486.25 278.217 1486.25 Q272.407 1486.25 269.328 1481.67 Q266.273 1477.06 266.273 1468.33 Q266.273 1459.58 269.328 1455 Q272.407 1450.39 278.217 1450.39 Z" fill="#000000" fill-rule="nonzero" fill-opacity="1" /><path clip-path="url(#clip360)" d="M745.453 1481.64 L761.772 1481.64 L761.772 1485.58 L739.828 1485.58 L739.828 1481.64 Q742.49 1478.89 747.073 1474.26 Q751.68 1469.61 752.86 1468.27 Q755.105 1465.74 755.985 1464.01 Q756.888 1462.25 756.888 1460.56 Q756.888 1457.8 754.943 1456.07 Q753.022 1454.33 749.92 1454.33 Q747.721 1454.33 745.268 1455.09 Q742.837 1455.86 740.059 1457.41 L740.059 1452.69 Q742.883 1451.55 745.337 1450.97 Q747.791 1450.39 749.828 1450.39 Q755.198 1450.39 758.393 1453.08 Q761.587 1455.77 761.587 1460.26 Q761.587 1462.39 760.777 1464.31 Q759.99 1466.2 757.883 1468.8 Q757.305 1469.47 754.203 1472.69 Q751.101 1475.88 745.453 1481.64 Z" fill="#000000" fill-rule="nonzero" fill-opacity="1" /><path clip-path="url(#clip360)" d="M771.633 1451.02 L789.99 1451.02 L789.99 1454.96 L775.916 1454.96 L775.916 1463.43 Q776.934 1463.08 777.953 1462.92 Q778.971 1462.73 779.99 1462.73 Q785.777 1462.73 789.156 1465.9 Q792.536 1469.08 792.536 1474.49 Q792.536 1480.07 789.064 1483.17 Q785.591 1486.25 779.272 1486.25 Q777.096 1486.25 774.828 1485.88 Q772.582 1485.51 770.175 1484.77 L770.175 1480.07 Q772.258 1481.2 774.48 1481.76 Q776.703 1482.32 779.179 1482.32 Q783.184 1482.32 785.522 1480.21 Q787.86 1478.1 787.86 1474.49 Q787.86 1470.88 785.522 1468.77 Q783.184 1466.67 779.179 1466.67 Q777.304 1466.67 775.429 1467.08 Q773.578 1467.5 771.633 1468.38 L771.633 1451.02 Z" fill="#000000" fill-rule="nonzero" fill-opacity="1" /><path clip-path="url(#clip360)" d="M811.749 1454.1 Q808.138 1454.1 806.309 1457.66 Q804.503 1461.2 804.503 1468.33 Q804.503 1475.44 806.309 1479.01 Q808.138 1482.55 811.749 1482.55 Q815.383 1482.55 817.188 1479.01 Q819.017 1475.44 819.017 1468.33 Q819.017 1461.2 817.188 1457.66 Q815.383 1454.1 811.749 1454.1 M811.749 1450.39 Q817.559 1450.39 820.614 1455 Q823.693 1459.58 823.693 1468.33 Q823.693 1477.06 820.614 1481.67 Q817.559 1486.25 811.749 1486.25 Q805.939 1486.25 802.86 1481.67 Q799.804 1477.06 799.804 1468.33 Q799.804 1459.58 802.86 1455 Q805.939 1450.39 811.749 1450.39 Z" fill="#000000" fill-rule="nonzero" fill-opacity="1" /><path clip-path="url(#clip360)" d="M1244.92 1451.02 L1263.28 1451.02 L1263.28 1454.96 L1249.2 1454.96 L1249.2 1463.43 Q1250.22 1463.08 1251.24 1462.92 Q1252.26 1462.73 1253.28 1462.73 Q1259.07 1462.73 1262.45 1465.9 Q1265.82 1469.08 1265.82 1474.49 Q1265.82 1480.07 1262.35 1483.17 Q1258.88 1486.25 1252.56 1486.25 Q1250.39 1486.25 1248.12 1485.88 Q1245.87 1485.51 1243.46 1484.77 L1243.46 1480.07 Q1245.55 1481.2 1247.77 1481.76 Q1249.99 1482.32 1252.47 1482.32 Q1256.47 1482.32 1258.81 1480.21 Q1261.15 1478.1 1261.15 1474.49 Q1261.15 1470.88 1258.81 1468.77 Q1256.47 1466.67 1252.47 1466.67 Q1250.59 1466.67 1248.72 1467.08 Q1246.87 1467.5 1244.92 1468.38 L1244.92 1451.02 Z" fill="#000000" fill-rule="nonzero" fill-opacity="1" /><path clip-path="url(#clip360)" d="M1285.04 1454.1 Q1281.43 1454.1 1279.6 1457.66 Q1277.79 1461.2 1277.79 1468.33 Q1277.79 1475.44 1279.6 1479.01 Q1281.43 1482.55 1285.04 1482.55 Q1288.67 1482.55 1290.48 1479.01 Q1292.31 1475.44 1292.31 1468.33 Q1292.31 1461.2 1290.48 1457.66 Q1288.67 1454.1 1285.04 1454.1 M1285.04 1450.39 Q1290.85 1450.39 1293.9 1455 Q1296.98 1459.58 1296.98 1468.33 Q1296.98 1477.06 1293.9 1481.67 Q1290.85 1486.25 1285.04 1486.25 Q1279.23 1486.25 1276.15 1481.67 Q1273.09 1477.06 1273.09 1468.33 Q1273.09 1459.58 1276.15 1455 Q1279.23 1450.39 1285.04 1450.39 Z" fill="#000000" fill-rule="nonzero" fill-opacity="1" /><path clip-path="url(#clip360)" d="M1315.2 1454.1 Q1311.59 1454.1 1309.76 1457.66 Q1307.95 1461.2 1307.95 1468.33 Q1307.95 1475.44 1309.76 1479.01 Q1311.59 1482.55 1315.2 1482.55 Q1318.83 1482.55 1320.64 1479.01 Q1322.47 1475.44 1322.47 1468.33 Q1322.47 1461.2 1320.64 1457.66 Q1318.83 1454.1 1315.2 1454.1 M1315.2 1450.39 Q1321.01 1450.39 1324.07 1455 Q1327.14 1459.58 1327.14 1468.33 Q1327.14 1477.06 1324.07 1481.67 Q1321.01 1486.25 1315.2 1486.25 Q1309.39 1486.25 1306.31 1481.67 Q1303.26 1477.06 1303.26 1468.33 Q1303.26 1459.58 1306.31 1455 Q1309.39 1450.39 1315.2 1450.39 Z" fill="#000000" fill-rule="nonzero" fill-opacity="1" /><path clip-path="url(#clip360)" d="M1747.12 1451.02 L1769.35 1451.02 L1769.35 1453.01 L1756.8 1485.58 L1751.91 1485.58 L1763.72 1454.96 L1747.12 1454.96 L1747.12 1451.02 Z" fill="#000000" fill-rule="nonzero" fill-opacity="1" /><path clip-path="url(#clip360)" d="M1778.51 1451.02 L1796.87 1451.02 L1796.87 1454.96 L1782.79 1454.96 L1782.79 1463.43 Q1783.81 1463.08 1784.83 1462.92 Q1785.85 1462.73 1786.87 1462.73 Q1792.66 1462.73 1796.04 1465.9 Q1799.41 1469.08 1799.41 1474.49 Q1799.41 1480.07 1795.94 1483.17 Q1792.47 1486.25 1786.15 1486.25 Q1783.97 1486.25 1781.71 1485.88 Q1779.46 1485.51 1777.05 1484.77 L1777.05 1480.07 Q1779.14 1481.2 1781.36 1481.76 Q1783.58 1482.32 1786.06 1482.32 Q1790.06 1482.32 1792.4 1480.21 Q1794.74 1478.1 1794.74 1474.49 Q1794.74 1470.88 1792.4 1468.77 Q1790.06 1466.67 1786.06 1466.67 Q1784.18 1466.67 1782.31 1467.08 Q1780.46 1467.5 1778.51 1468.38 L1778.51 1451.02 Z" fill="#000000" fill-rule="nonzero" fill-opacity="1" /><path clip-path="url(#clip360)" d="M1818.63 1454.1 Q1815.02 1454.1 1813.19 1457.66 Q1811.38 1461.2 1811.38 1468.33 Q1811.38 1475.44 1813.19 1479.01 Q1815.02 1482.55 1818.63 1482.55 Q1822.26 1482.55 1824.07 1479.01 Q1825.9 1475.44 1825.9 1468.33 Q1825.9 1461.2 1824.07 1457.66 Q1822.26 1454.1 1818.63 1454.1 M1818.63 1450.39 Q1824.44 1450.39 1827.49 1455 Q1830.57 1459.58 1830.57 1468.33 Q1830.57 1477.06 1827.49 1481.67 Q1824.44 1486.25 1818.63 1486.25 Q1812.82 1486.25 1809.74 1481.67 Q1806.68 1477.06 1806.68 1468.33 Q1806.68 1459.58 1809.74 1455 Q1812.82 1450.39 1818.63 1450.39 Z" fill="#000000" fill-rule="nonzero" fill-opacity="1" /><path clip-path="url(#clip360)" d="M2236.92 1481.64 L2244.56 1481.64 L2244.56 1455.28 L2236.25 1456.95 L2236.25 1452.69 L2244.51 1451.02 L2249.19 1451.02 L2249.19 1481.64 L2256.82 1481.64 L2256.82 1485.58 L2236.92 1485.58 L2236.92 1481.64 Z" fill="#000000" fill-rule="nonzero" fill-opacity="1" /><path clip-path="url(#clip360)" d="M2276.27 1454.1 Q2272.66 1454.1 2270.83 1457.66 Q2269.02 1461.2 2269.02 1468.33 Q2269.02 1475.44 2270.83 1479.01 Q2272.66 1482.55 2276.27 1482.55 Q2279.9 1482.55 2281.71 1479.01 Q2283.54 1475.44 2283.54 1468.33 Q2283.54 1461.2 2281.71 1457.66 Q2279.9 1454.1 2276.27 1454.1 M2276.27 1450.39 Q2282.08 1450.39 2285.13 1455 Q2288.21 1459.58 2288.21 1468.33 Q2288.21 1477.06 2285.13 1481.67 Q2282.08 1486.25 2276.27 1486.25 Q2270.46 1486.25 2267.38 1481.67 Q2264.32 1477.06 2264.32 1468.33 Q2264.32 1459.58 2267.38 1455 Q2270.46 1450.39 2276.27 1450.39 Z" fill="#000000" fill-rule="nonzero" fill-opacity="1" /><path clip-path="url(#clip360)" d="M2306.43 1454.1 Q2302.82 1454.1 2300.99 1457.66 Q2299.19 1461.2 2299.19 1468.33 Q2299.19 1475.44 2300.99 1479.01 Q2302.82 1482.55 2306.43 1482.55 Q2310.06 1482.55 2311.87 1479.01 Q2313.7 1475.44 2313.7 1468.33 Q2313.7 1461.2 2311.87 1457.66 Q2310.06 1454.1 2306.43 1454.1 M2306.43 1450.39 Q2312.24 1450.39 2315.3 1455 Q2318.37 1459.58 2318.37 1468.33 Q2318.37 1477.06 2315.3 1481.67 Q2312.24 1486.25 2306.43 1486.25 Q2300.62 1486.25 2297.54 1481.67 Q2294.49 1477.06 2294.49 1468.33 Q2294.49 1459.58 2297.54 1455 Q2300.62 1450.39 2306.43 1450.39 Z" fill="#000000" fill-rule="nonzero" fill-opacity="1" /><path clip-path="url(#clip360)" d="M2336.59 1454.1 Q2332.98 1454.1 2331.15 1457.66 Q2329.35 1461.2 2329.35 1468.33 Q2329.35 1475.44 2331.15 1479.01 Q2332.98 1482.55 2336.59 1482.55 Q2340.23 1482.55 2342.03 1479.01 Q2343.86 1475.44 2343.86 1468.33 Q2343.86 1461.2 2342.03 1457.66 Q2340.23 1454.1 2336.59 1454.1 M2336.59 1450.39 Q2342.4 1450.39 2345.46 1455 Q2348.54 1459.58 2348.54 1468.33 Q2348.54 1477.06 2345.46 1481.67 Q2342.4 1486.25 2336.59 1486.25 Q2330.78 1486.25 2327.7 1481.67 Q2324.65 1477.06 2324.65 1468.33 Q2324.65 1459.58 2327.7 1455 Q2330.78 1450.39 2336.59 1450.39 Z" fill="#000000" fill-rule="nonzero" fill-opacity="1" /><path clip-path="url(#clip360)" d="M1208.19 1520.52 L1248.39 1520.52 L1248.39 1525.93 L1231.52 1525.93 L1231.52 1568.04 L1225.06 1568.04 L1225.06 1525.93 L1208.19 1525.93 L1208.19 1520.52 Z" fill="#000000" fill-rule="nonzero" fill-opacity="1" /><path clip-path="url(#clip360)" d="M1252.33 1532.4 L1258.19 1532.4 L1258.19 1568.04 L1252.33 1568.04 L1252.33 1532.4 M1252.33 1518.52 L1258.19 1518.52 L1258.19 1525.93 L1252.33 1525.93 L1252.33 1518.52 Z" fill="#000000" fill-rule="nonzero" fill-opacity="1" /><path clip-path="url(#clip360)" d="M1298.2 1539.24 Q1300.4 1535.29 1303.45 1533.41 Q1306.51 1531.54 1310.64 1531.54 Q1316.21 1531.54 1319.24 1535.45 Q1322.26 1539.33 1322.26 1546.53 L1322.26 1568.04 L1316.37 1568.04 L1316.37 1546.72 Q1316.37 1541.59 1314.56 1539.11 Q1312.74 1536.63 1309.02 1536.63 Q1304.47 1536.63 1301.83 1539.65 Q1299.19 1542.68 1299.19 1547.9 L1299.19 1568.04 L1293.3 1568.04 L1293.3 1546.72 Q1293.3 1541.56 1291.48 1539.11 Q1289.67 1536.63 1285.88 1536.63 Q1281.39 1536.63 1278.75 1539.68 Q1276.11 1542.71 1276.11 1547.9 L1276.11 1568.04 L1270.22 1568.04 L1270.22 1532.4 L1276.11 1532.4 L1276.11 1537.93 Q1278.12 1534.66 1280.92 1533.1 Q1283.72 1531.54 1287.57 1531.54 Q1291.45 1531.54 1294.16 1533.51 Q1296.89 1535.48 1298.2 1539.24 Z" fill="#000000" fill-rule="nonzero" fill-opacity="1" /><path clip-path="url(#clip360)" d="M1364.43 1548.76 L1364.43 1551.62 L1337.51 1551.62 Q1337.89 1557.67 1341.14 1560.85 Q1344.41 1564 1350.24 1564 Q1353.61 1564 1356.76 1563.17 Q1359.95 1562.35 1363.07 1560.69 L1363.07 1566.23 Q1359.91 1567.57 1356.6 1568.27 Q1353.29 1568.97 1349.89 1568.97 Q1341.36 1568.97 1336.36 1564 Q1331.4 1559.04 1331.4 1550.57 Q1331.4 1541.82 1336.11 1536.69 Q1340.85 1531.54 1348.87 1531.54 Q1356.06 1531.54 1360.23 1536.18 Q1364.43 1540.8 1364.43 1548.76 M1358.58 1547.04 Q1358.51 1542.23 1355.87 1539.37 Q1353.26 1536.5 1348.93 1536.5 Q1344.03 1536.5 1341.07 1539.27 Q1338.14 1542.04 1337.7 1547.07 L1358.58 1547.04 Z" fill="#000000" fill-rule="nonzero" fill-opacity="1" /><polyline clip-path="url(#clip362)" style="stroke:#000000; stroke-linecap:round; stroke-linejoin:round; stroke-width:2; stroke-opacity:0.1; fill:none" points="219.866,1423.18 2352.76,1423.18 "/>
<polyline clip-path="url(#clip362)" style="stroke:#000000; stroke-linecap:round; stroke-linejoin:round; stroke-width:2; stroke-opacity:0.1; fill:none" points="219.866,1224.52 2352.76,1224.52 "/>
<polyline clip-path="url(#clip362)" style="stroke:#000000; stroke-linecap:round; stroke-linejoin:round; stroke-width:2; stroke-opacity:0.1; fill:none" points="219.866,1025.86 2352.76,1025.86 "/>
<polyline clip-path="url(#clip362)" style="stroke:#000000; stroke-linecap:round; stroke-linejoin:round; stroke-width:2; stroke-opacity:0.1; fill:none" points="219.866,827.196 2352.76,827.196 "/>
<polyline clip-path="url(#clip362)" style="stroke:#000000; stroke-linecap:round; stroke-linejoin:round; stroke-width:2; stroke-opacity:0.1; fill:none" points="219.866,628.534 2352.76,628.534 "/>
<polyline clip-path="url(#clip362)" style="stroke:#000000; stroke-linecap:round; stroke-linejoin:round; stroke-width:2; stroke-opacity:0.1; fill:none" points="219.866,429.873 2352.76,429.873 "/>
<polyline clip-path="url(#clip362)" style="stroke:#000000; stroke-linecap:round; stroke-linejoin:round; stroke-width:2; stroke-opacity:0.1; fill:none" points="219.866,231.211 2352.76,231.211 "/>
<polyline clip-path="url(#clip360)" style="stroke:#000000; stroke-linecap:round; stroke-linejoin:round; stroke-width:4; stroke-opacity:1; fill:none" points="219.866,1423.18 219.866,47.2441 "/>
<polyline clip-path="url(#clip360)" style="stroke:#000000; stroke-linecap:round; stroke-linejoin:round; stroke-width:4; stroke-opacity:1; fill:none" points="219.866,1423.18 238.764,1423.18 "/>
<polyline clip-path="url(#clip360)" style="stroke:#000000; stroke-linecap:round; stroke-linejoin:round; stroke-width:4; stroke-opacity:1; fill:none" points="219.866,1224.52 238.764,1224.52 "/>
<polyline clip-path="url(#clip360)" style="stroke:#000000; stroke-linecap:round; stroke-linejoin:round; stroke-width:4; stroke-opacity:1; fill:none" points="219.866,1025.86 238.764,1025.86 "/>
<polyline clip-path="url(#clip360)" style="stroke:#000000; stroke-linecap:round; stroke-linejoin:round; stroke-width:4; stroke-opacity:1; fill:none" points="219.866,827.196 238.764,827.196 "/>
<polyline clip-path="url(#clip360)" style="stroke:#000000; stroke-linecap:round; stroke-linejoin:round; stroke-width:4; stroke-opacity:1; fill:none" points="219.866,628.534 238.764,628.534 "/>
<polyline clip-path="url(#clip360)" style="stroke:#000000; stroke-linecap:round; stroke-linejoin:round; stroke-width:4; stroke-opacity:1; fill:none" points="219.866,429.873 238.764,429.873 "/>
<polyline clip-path="url(#clip360)" style="stroke:#000000; stroke-linecap:round; stroke-linejoin:round; stroke-width:4; stroke-opacity:1; fill:none" points="219.866,231.211 238.764,231.211 "/>
<path clip-path="url(#clip360)" d="M126.691 1408.98 Q123.08 1408.98 121.251 1412.54 Q119.445 1416.08 119.445 1423.21 Q119.445 1430.32 121.251 1433.89 Q123.08 1437.43 126.691 1437.43 Q130.325 1437.43 132.13 1433.89 Q133.959 1430.32 133.959 1423.21 Q133.959 1416.08 132.13 1412.54 Q130.325 1408.98 126.691 1408.98 M126.691 1405.27 Q132.501 1405.27 135.556 1409.88 Q138.635 1414.46 138.635 1423.21 Q138.635 1431.94 135.556 1436.55 Q132.501 1441.13 126.691 1441.13 Q120.88 1441.13 117.802 1436.55 Q114.746 1431.94 114.746 1423.21 Q114.746 1414.46 117.802 1409.88 Q120.88 1405.27 126.691 1405.27 Z" fill="#000000" fill-rule="nonzero" fill-opacity="1" /><path clip-path="url(#clip360)" d="M146.853 1434.58 L151.737 1434.58 L151.737 1440.46 L146.853 1440.46 L146.853 1434.58 Z" fill="#000000" fill-rule="nonzero" fill-opacity="1" /><path clip-path="url(#clip360)" d="M171.922 1408.98 Q168.311 1408.98 166.482 1412.54 Q164.677 1416.08 164.677 1423.21 Q164.677 1430.32 166.482 1433.89 Q168.311 1437.43 171.922 1437.43 Q175.556 1437.43 177.362 1433.89 Q179.19 1430.32 179.19 1423.21 Q179.19 1416.08 177.362 1412.54 Q175.556 1408.98 171.922 1408.98 M171.922 1405.27 Q177.732 1405.27 180.788 1409.88 Q183.866 1414.46 183.866 1423.21 Q183.866 1431.94 180.788 1436.55 Q177.732 1441.13 171.922 1441.13 Q166.112 1441.13 163.033 1436.55 Q159.978 1431.94 159.978 1423.21 Q159.978 1414.46 163.033 1409.88 Q166.112 1405.27 171.922 1405.27 Z" fill="#000000" fill-rule="nonzero" fill-opacity="1" /><path clip-path="url(#clip360)" d="M127.917 1210.32 Q124.306 1210.32 122.478 1213.88 Q120.672 1217.42 120.672 1224.55 Q120.672 1231.66 122.478 1235.22 Q124.306 1238.77 127.917 1238.77 Q131.552 1238.77 133.357 1235.22 Q135.186 1231.66 135.186 1224.55 Q135.186 1217.42 133.357 1213.88 Q131.552 1210.32 127.917 1210.32 M127.917 1206.61 Q133.728 1206.61 136.783 1211.22 Q139.862 1215.8 139.862 1224.55 Q139.862 1233.28 136.783 1237.89 Q133.728 1242.47 127.917 1242.47 Q122.107 1242.47 119.029 1237.89 Q115.973 1233.28 115.973 1224.55 Q115.973 1215.8 119.029 1211.22 Q122.107 1206.61 127.917 1206.61 Z" fill="#000000" fill-rule="nonzero" fill-opacity="1" /><path clip-path="url(#clip360)" d="M148.079 1235.92 L152.964 1235.92 L152.964 1241.8 L148.079 1241.8 L148.079 1235.92 Z" fill="#000000" fill-rule="nonzero" fill-opacity="1" /><path clip-path="url(#clip360)" d="M163.959 1237.86 L171.598 1237.86 L171.598 1211.5 L163.288 1213.16 L163.288 1208.91 L171.552 1207.24 L176.227 1207.24 L176.227 1237.86 L183.866 1237.86 L183.866 1241.8 L163.959 1241.8 L163.959 1237.86 Z" fill="#000000" fill-rule="nonzero" fill-opacity="1" /><path clip-path="url(#clip360)" d="M128.288 1011.66 Q124.677 1011.66 122.848 1015.22 Q121.043 1018.76 121.043 1025.89 Q121.043 1033 122.848 1036.56 Q124.677 1040.1 128.288 1040.1 Q131.922 1040.1 133.728 1036.56 Q135.556 1033 135.556 1025.89 Q135.556 1018.76 133.728 1015.22 Q131.922 1011.66 128.288 1011.66 M128.288 1007.95 Q134.098 1007.95 137.154 1012.56 Q140.232 1017.14 140.232 1025.89 Q140.232 1034.62 137.154 1039.22 Q134.098 1043.81 128.288 1043.81 Q122.478 1043.81 119.399 1039.22 Q116.343 1034.62 116.343 1025.89 Q116.343 1017.14 119.399 1012.56 Q122.478 1007.95 128.288 1007.95 Z" fill="#000000" fill-rule="nonzero" fill-opacity="1" /><path clip-path="url(#clip360)" d="M148.45 1037.26 L153.334 1037.26 L153.334 1043.14 L148.45 1043.14 L148.45 1037.26 Z" fill="#000000" fill-rule="nonzero" fill-opacity="1" /><path clip-path="url(#clip360)" d="M167.547 1039.2 L183.866 1039.2 L183.866 1043.14 L161.922 1043.14 L161.922 1039.2 Q164.584 1036.45 169.167 1031.82 Q173.774 1027.16 174.954 1025.82 Q177.2 1023.3 178.079 1021.56 Q178.982 1019.8 178.982 1018.11 Q178.982 1015.36 177.038 1013.62 Q175.116 1011.89 172.014 1011.89 Q169.815 1011.89 167.362 1012.65 Q164.931 1013.41 162.153 1014.97 L162.153 1010.24 Q164.977 1009.11 167.431 1008.53 Q169.885 1007.95 171.922 1007.95 Q177.292 1007.95 180.487 1010.64 Q183.681 1013.32 183.681 1017.81 Q183.681 1019.94 182.871 1021.86 Q182.084 1023.76 179.977 1026.35 Q179.399 1027.03 176.297 1030.24 Q173.195 1033.44 167.547 1039.2 Z" fill="#000000" fill-rule="nonzero" fill-opacity="1" /><path clip-path="url(#clip360)" d="M127.339 812.994 Q123.728 812.994 121.899 816.559 Q120.093 820.101 120.093 827.23 Q120.093 834.337 121.899 837.902 Q123.728 841.443 127.339 841.443 Q130.973 841.443 132.779 837.902 Q134.607 834.337 134.607 827.23 Q134.607 820.101 132.779 816.559 Q130.973 812.994 127.339 812.994 M127.339 809.291 Q133.149 809.291 136.204 813.897 Q139.283 818.48 139.283 827.23 Q139.283 835.957 136.204 840.564 Q133.149 845.147 127.339 845.147 Q121.529 845.147 118.45 840.564 Q115.394 835.957 115.394 827.23 Q115.394 818.48 118.45 813.897 Q121.529 809.291 127.339 809.291 Z" fill="#000000" fill-rule="nonzero" fill-opacity="1" /><path clip-path="url(#clip360)" d="M147.501 838.596 L152.385 838.596 L152.385 844.476 L147.501 844.476 L147.501 838.596 Z" fill="#000000" fill-rule="nonzero" fill-opacity="1" /><path clip-path="url(#clip360)" d="M176.737 825.841 Q180.093 826.559 181.968 828.827 Q183.866 831.096 183.866 834.429 Q183.866 839.545 180.348 842.346 Q176.829 845.147 170.348 845.147 Q168.172 845.147 165.857 844.707 Q163.565 844.29 161.112 843.434 L161.112 838.92 Q163.056 840.054 165.371 840.633 Q167.686 841.212 170.209 841.212 Q174.607 841.212 176.899 839.476 Q179.214 837.739 179.214 834.429 Q179.214 831.374 177.061 829.661 Q174.931 827.925 171.112 827.925 L167.084 827.925 L167.084 824.082 L171.297 824.082 Q174.746 824.082 176.575 822.716 Q178.403 821.328 178.403 818.735 Q178.403 816.073 176.505 814.661 Q174.63 813.226 171.112 813.226 Q169.19 813.226 166.991 813.642 Q164.792 814.059 162.153 814.939 L162.153 810.772 Q164.815 810.031 167.13 809.661 Q169.468 809.291 171.528 809.291 Q176.852 809.291 179.954 811.721 Q183.056 814.129 183.056 818.249 Q183.056 821.119 181.413 823.11 Q179.769 825.078 176.737 825.841 Z" fill="#000000" fill-rule="nonzero" fill-opacity="1" /><path clip-path="url(#clip360)" d="M126.205 614.333 Q122.593 614.333 120.765 617.898 Q118.959 621.439 118.959 628.569 Q118.959 635.675 120.765 639.24 Q122.593 642.782 126.205 642.782 Q129.839 642.782 131.644 639.24 Q133.473 635.675 133.473 628.569 Q133.473 621.439 131.644 617.898 Q129.839 614.333 126.205 614.333 M126.205 610.629 Q132.015 610.629 135.07 615.236 Q138.149 619.819 138.149 628.569 Q138.149 637.296 135.07 641.902 Q132.015 646.485 126.205 646.485 Q120.394 646.485 117.316 641.902 Q114.26 637.296 114.26 628.569 Q114.26 619.819 117.316 615.236 Q120.394 610.629 126.205 610.629 Z" fill="#000000" fill-rule="nonzero" fill-opacity="1" /><path clip-path="url(#clip360)" d="M146.366 639.935 L151.251 639.935 L151.251 645.814 L146.366 645.814 L146.366 639.935 Z" fill="#000000" fill-rule="nonzero" fill-opacity="1" /><path clip-path="url(#clip360)" d="M174.283 615.328 L162.477 633.777 L174.283 633.777 L174.283 615.328 M173.056 611.254 L178.936 611.254 L178.936 633.777 L183.866 633.777 L183.866 637.666 L178.936 637.666 L178.936 645.814 L174.283 645.814 L174.283 637.666 L158.681 637.666 L158.681 633.152 L173.056 611.254 Z" fill="#000000" fill-rule="nonzero" fill-opacity="1" /><path clip-path="url(#clip360)" d="M127.686 415.671 Q124.075 415.671 122.246 419.236 Q120.441 422.778 120.441 429.907 Q120.441 437.014 122.246 440.579 Q124.075 444.12 127.686 444.12 Q131.32 444.12 133.126 440.579 Q134.954 437.014 134.954 429.907 Q134.954 422.778 133.126 419.236 Q131.32 415.671 127.686 415.671 M127.686 411.968 Q133.496 411.968 136.552 416.574 Q139.63 421.157 139.63 429.907 Q139.63 438.634 136.552 443.241 Q133.496 447.824 127.686 447.824 Q121.876 447.824 118.797 443.241 Q115.742 438.634 115.742 429.907 Q115.742 421.157 118.797 416.574 Q121.876 411.968 127.686 411.968 Z" fill="#000000" fill-rule="nonzero" fill-opacity="1" /><path clip-path="url(#clip360)" d="M147.848 441.273 L152.732 441.273 L152.732 447.153 L147.848 447.153 L147.848 441.273 Z" fill="#000000" fill-rule="nonzero" fill-opacity="1" /><path clip-path="url(#clip360)" d="M162.964 412.593 L181.32 412.593 L181.32 416.528 L167.246 416.528 L167.246 425 Q168.264 424.653 169.283 424.491 Q170.302 424.306 171.32 424.306 Q177.107 424.306 180.487 427.477 Q183.866 430.648 183.866 436.065 Q183.866 441.643 180.394 444.745 Q176.922 447.824 170.602 447.824 Q168.427 447.824 166.158 447.454 Q163.913 447.083 161.505 446.343 L161.505 441.643 Q163.589 442.778 165.811 443.333 Q168.033 443.889 170.51 443.889 Q174.514 443.889 176.852 441.782 Q179.19 439.676 179.19 436.065 Q179.19 432.454 176.852 430.347 Q174.514 428.241 170.51 428.241 Q168.635 428.241 166.76 428.657 Q164.908 429.074 162.964 429.954 L162.964 412.593 Z" fill="#000000" fill-rule="nonzero" fill-opacity="1" /><path clip-path="url(#clip360)" d="M126.529 217.01 Q122.918 217.01 121.089 220.575 Q119.283 224.116 119.283 231.246 Q119.283 238.352 121.089 241.917 Q122.918 245.459 126.529 245.459 Q130.163 245.459 131.968 241.917 Q133.797 238.352 133.797 231.246 Q133.797 224.116 131.968 220.575 Q130.163 217.01 126.529 217.01 M126.529 213.306 Q132.339 213.306 135.394 217.913 Q138.473 222.496 138.473 231.246 Q138.473 239.973 135.394 244.579 Q132.339 249.163 126.529 249.163 Q120.718 249.163 117.64 244.579 Q114.584 239.973 114.584 231.246 Q114.584 222.496 117.64 217.913 Q120.718 213.306 126.529 213.306 Z" fill="#000000" fill-rule="nonzero" fill-opacity="1" /><path clip-path="url(#clip360)" d="M146.691 242.612 L151.575 242.612 L151.575 248.491 L146.691 248.491 L146.691 242.612 Z" fill="#000000" fill-rule="nonzero" fill-opacity="1" /><path clip-path="url(#clip360)" d="M172.339 229.348 Q169.19 229.348 167.339 231.501 Q165.51 233.653 165.51 237.403 Q165.51 241.13 167.339 243.306 Q169.19 245.459 172.339 245.459 Q175.487 245.459 177.315 243.306 Q179.167 241.13 179.167 237.403 Q179.167 233.653 177.315 231.501 Q175.487 229.348 172.339 229.348 M181.621 214.695 L181.621 218.954 Q179.862 218.121 178.056 217.681 Q176.274 217.241 174.514 217.241 Q169.885 217.241 167.431 220.366 Q165.001 223.491 164.653 229.811 Q166.019 227.797 168.079 226.732 Q170.139 225.644 172.616 225.644 Q177.825 225.644 180.834 228.815 Q183.866 231.964 183.866 237.403 Q183.866 242.727 180.718 245.945 Q177.57 249.163 172.339 249.163 Q166.343 249.163 163.172 244.579 Q160.001 239.973 160.001 231.246 Q160.001 223.052 163.89 218.191 Q167.778 213.306 174.329 213.306 Q176.089 213.306 177.871 213.654 Q179.676 214.001 181.621 214.695 Z" fill="#000000" fill-rule="nonzero" fill-opacity="1" /><path clip-path="url(#clip360)" d="M16.4842 1117.44 L16.4842 1087.39 L21.895 1087.39 L21.895 1111.01 L35.9632 1111.01 L35.9632 1088.38 L41.3741 1088.38 L41.3741 1111.01 L58.5933 1111.01 L58.5933 1086.82 L64.0042 1086.82 L64.0042 1117.44 L16.4842 1117.44 Z" fill="#000000" fill-rule="nonzero" fill-opacity="1" /><path clip-path="url(#clip360)" d="M14.5426 1062.44 Q21.8632 1066.71 29.0246 1068.77 Q36.186 1070.84 43.5384 1070.84 Q50.8908 1070.84 58.1159 1068.77 Q65.3091 1066.67 72.5979 1062.44 L72.5979 1067.53 Q65.1182 1072.31 57.8931 1074.7 Q50.668 1077.05 43.5384 1077.05 Q36.4406 1077.05 29.2474 1074.7 Q22.0542 1072.34 14.5426 1067.53 L14.5426 1062.44 Z" fill="#000000" fill-rule="nonzero" fill-opacity="1" /><path clip-path="url(#clip360)" d="M16.4842 1050.82 L16.4842 1020.78 L21.895 1020.78 L21.895 1044.39 L35.9632 1044.39 L35.9632 1021.76 L41.3741 1021.76 L41.3741 1044.39 L58.5933 1044.39 L58.5933 1020.2 L64.0042 1020.2 L64.0042 1050.82 L16.4842 1050.82 Z" fill="#000000" fill-rule="nonzero" fill-opacity="1" /><path clip-path="url(#clip360)" d="M29.4065 987.167 L34.9447 987.167 Q33.6716 989.649 33.035 992.323 Q32.3984 994.996 32.3984 997.861 Q32.3984 1002.22 33.7352 1004.42 Q35.072 1006.58 37.7456 1006.58 Q39.7826 1006.58 40.9603 1005.02 Q42.1061 1003.46 43.1565 998.752 L43.6021 996.747 Q44.9389 990.509 47.3897 987.899 Q49.8086 985.257 54.1691 985.257 Q59.1344 985.257 62.0308 989.204 Q64.9272 993.119 64.9272 999.994 Q64.9272 1002.86 64.3543 1005.98 Q63.8132 1009.06 62.6992 1012.5 L56.6518 1012.5 Q58.3387 1009.26 59.198 1006.1 Q60.0256 1002.95 60.0256 999.866 Q60.0256 995.729 58.6251 993.501 Q57.1929 991.273 54.6147 991.273 Q52.2276 991.273 50.9545 992.896 Q49.6813 994.487 48.5037 999.93 L48.0262 1001.97 Q46.8804 1007.41 44.5251 1009.83 Q42.138 1012.25 38.0002 1012.25 Q32.9713 1012.25 30.2341 1008.68 Q27.4968 1005.12 27.4968 998.561 Q27.4968 995.315 27.9743 992.45 Q28.4517 989.586 29.4065 987.167 Z" fill="#000000" fill-rule="nonzero" fill-opacity="1" /><path clip-path="url(#clip360)" d="M18.2347 970.138 L28.3562 970.138 L28.3562 958.075 L32.9077 958.075 L32.9077 970.138 L52.2594 970.138 Q56.6199 970.138 57.8613 968.961 Q59.1026 967.751 59.1026 964.091 L59.1026 958.075 L64.0042 958.075 L64.0042 964.091 Q64.0042 970.87 61.4897 973.449 Q58.9434 976.027 52.2594 976.027 L32.9077 976.027 L32.9077 980.324 L28.3562 980.324 L28.3562 976.027 L18.2347 976.027 L18.2347 970.138 Z" fill="#000000" fill-rule="nonzero" fill-opacity="1" /><path clip-path="url(#clip360)" d="M28.3562 950.373 L28.3562 944.516 L64.0042 944.516 L64.0042 950.373 L28.3562 950.373 M14.479 950.373 L14.479 944.516 L21.895 944.516 L21.895 950.373 L14.479 950.373 Z" fill="#000000" fill-rule="nonzero" fill-opacity="1" /><path clip-path="url(#clip360)" d="M35.1993 904.508 Q31.2526 902.312 29.3747 899.256 Q27.4968 896.201 27.4968 892.063 Q27.4968 886.493 31.4117 883.469 Q35.2948 880.446 42.4881 880.446 L64.0042 880.446 L64.0042 886.334 L42.679 886.334 Q37.5546 886.334 35.072 888.148 Q32.5894 889.962 32.5894 893.686 Q32.5894 898.238 35.6131 900.879 Q38.6368 903.521 43.8567 903.521 L64.0042 903.521 L64.0042 909.41 L42.679 909.41 Q37.5228 909.41 35.072 911.224 Q32.5894 913.038 32.5894 916.826 Q32.5894 921.313 35.6449 923.955 Q38.6686 926.597 43.8567 926.597 L64.0042 926.597 L64.0042 932.485 L28.3562 932.485 L28.3562 926.597 L33.8944 926.597 Q30.616 924.592 29.0564 921.791 Q27.4968 918.99 27.4968 915.139 Q27.4968 911.256 29.4702 908.55 Q31.4436 905.813 35.1993 904.508 Z" fill="#000000" fill-rule="nonzero" fill-opacity="1" /><path clip-path="url(#clip360)" d="M46.0847 852.564 Q46.0847 859.662 47.7079 862.399 Q49.3312 865.136 53.2461 865.136 Q56.3653 865.136 58.2114 863.099 Q60.0256 861.03 60.0256 857.497 Q60.0256 852.627 56.5881 849.699 Q53.1188 846.739 47.3897 846.739 L46.0847 846.739 L46.0847 852.564 M43.6657 840.883 L64.0042 840.883 L64.0042 846.739 L58.5933 846.739 Q61.8398 848.744 63.3994 851.736 Q64.9272 854.728 64.9272 859.057 Q64.9272 864.531 61.8716 867.778 Q58.7843 870.992 53.6281 870.992 Q47.6125 870.992 44.5569 866.982 Q41.5014 862.94 41.5014 854.951 L41.5014 846.739 L40.9285 846.739 Q36.8862 846.739 34.6901 849.413 Q32.4621 852.055 32.4621 856.861 Q32.4621 859.916 33.1941 862.813 Q33.9262 865.709 35.3903 868.383 L29.9795 868.383 Q28.7381 865.168 28.1334 862.144 Q27.4968 859.12 27.4968 856.256 Q27.4968 848.522 31.5072 844.702 Q35.5176 840.883 43.6657 840.883 Z" fill="#000000" fill-rule="nonzero" fill-opacity="1" /><path clip-path="url(#clip360)" d="M18.2347 823.027 L28.3562 823.027 L28.3562 810.964 L32.9077 810.964 L32.9077 823.027 L52.2594 823.027 Q56.6199 823.027 57.8613 821.849 Q59.1026 820.64 59.1026 816.979 L59.1026 810.964 L64.0042 810.964 L64.0042 816.979 Q64.0042 823.759 61.4897 826.337 Q58.9434 828.915 52.2594 828.915 L32.9077 828.915 L32.9077 833.212 L28.3562 833.212 L28.3562 828.915 L18.2347 828.915 L18.2347 823.027 Z" fill="#000000" fill-rule="nonzero" fill-opacity="1" /><path clip-path="url(#clip360)" d="M44.7161 772.77 L47.5806 772.77 L47.5806 799.697 Q53.6281 799.315 56.8109 796.068 Q59.9619 792.79 59.9619 786.965 Q59.9619 783.591 59.1344 780.44 Q58.3069 777.257 56.6518 774.138 L62.1899 774.138 Q63.5267 777.289 64.227 780.599 Q64.9272 783.91 64.9272 787.315 Q64.9272 795.845 59.9619 800.842 Q54.9967 805.808 46.5303 805.808 Q37.7774 805.808 32.6531 801.097 Q27.4968 796.355 27.4968 788.334 Q27.4968 781.141 32.1438 776.971 Q36.7589 772.77 44.7161 772.77 M42.9973 778.626 Q38.1912 778.69 35.3266 781.332 Q32.4621 783.941 32.4621 788.27 Q32.4621 793.172 35.2312 796.132 Q38.0002 799.06 43.0292 799.506 L42.9973 778.626 Z" fill="#000000" fill-rule="nonzero" fill-opacity="1" /><path clip-path="url(#clip360)" d="M33.7671 739.7 L14.479 739.7 L14.479 733.843 L64.0042 733.843 L64.0042 739.7 L58.657 739.7 Q61.8398 741.546 63.3994 744.379 Q64.9272 747.179 64.9272 751.126 Q64.9272 757.587 59.771 761.661 Q54.6147 765.704 46.212 765.704 Q37.8093 765.704 32.6531 761.661 Q27.4968 757.587 27.4968 751.126 Q27.4968 747.179 29.0564 744.379 Q30.5842 741.546 33.7671 739.7 M46.212 759.656 Q52.6732 759.656 56.3653 757.015 Q60.0256 754.341 60.0256 749.694 Q60.0256 745.047 56.3653 742.373 Q52.6732 739.7 46.212 739.7 Q39.7508 739.7 36.0905 742.373 Q32.3984 745.047 32.3984 749.694 Q32.3984 754.341 36.0905 757.015 Q39.7508 759.656 46.212 759.656 Z" fill="#000000" fill-rule="nonzero" fill-opacity="1" /><path clip-path="url(#clip360)" d="M33.0032 687.246 Q33.0032 692.084 36.5043 694.694 Q40.1646 697.431 46.212 697.431 Q52.6095 697.431 56.3017 694.726 Q59.9619 691.989 59.9619 687.246 Q59.9619 682.568 56.2698 679.83 Q52.5777 677.093 46.212 677.093 Q40.3874 677.093 36.5043 679.83 Q33.0032 682.345 33.0032 687.246 M28.3562 687.246 L28.3562 667.799 L34.2127 667.799 L34.2127 674.356 Q39.1779 670.887 46.212 670.887 Q54.9649 670.887 59.9301 675.247 Q64.9272 679.608 64.9272 687.246 Q64.9272 694.917 59.9301 699.246 Q54.9649 703.606 46.212 703.606 Q37.3955 703.606 32.4621 699.246 Q28.3562 695.649 28.3562 687.246 Z" fill="#000000" fill-rule="nonzero" fill-opacity="1" /><path clip-path="url(#clip360)" d="M43.5384 641.986 L43.5384 624.831 L48.7583 624.831 L48.7583 641.986 L43.5384 641.986 Z" fill="#000000" fill-rule="nonzero" fill-opacity="1" /><path clip-path="url(#clip360)" d="M16.4842 601.118 L16.4842 560.919 L21.895 560.919 L21.895 577.788 L64.0042 577.788 L64.0042 584.249 L21.895 584.249 L21.895 601.118 L16.4842 601.118 Z" fill="#000000" fill-rule="nonzero" fill-opacity="1" /><path clip-path="url(#clip360)" d="M33.8307 543.891 Q33.2578 544.877 33.0032 546.055 Q32.7167 547.201 32.7167 548.601 Q32.7167 553.567 35.9632 556.24 Q39.1779 558.882 45.2253 558.882 L64.0042 558.882 L64.0042 564.77 L28.3562 564.77 L28.3562 558.882 L33.8944 558.882 Q30.6479 557.036 29.0883 554.076 Q27.4968 551.116 27.4968 546.883 Q27.4968 546.278 27.5923 545.546 Q27.656 544.814 27.8151 543.922 L33.8307 543.891 Z" fill="#000000" fill-rule="nonzero" fill-opacity="1" /><path clip-path="url(#clip360)" d="M49.9359 538.352 L28.3562 538.352 L28.3562 532.496 L49.7131 532.496 Q54.7739 532.496 57.3202 530.523 Q59.8346 528.549 59.8346 524.603 Q59.8346 519.86 56.8109 517.123 Q53.7872 514.354 48.5673 514.354 L28.3562 514.354 L28.3562 508.497 L64.0042 508.497 L64.0042 514.354 L58.5296 514.354 Q61.7762 516.486 63.3676 519.319 Q64.9272 522.12 64.9272 525.844 Q64.9272 531.987 61.1078 535.17 Q57.2883 538.352 49.9359 538.352 M27.4968 523.616 L27.4968 523.616 Z" fill="#000000" fill-rule="nonzero" fill-opacity="1" /><path clip-path="url(#clip360)" d="M44.7161 465.943 L47.5806 465.943 L47.5806 492.87 Q53.6281 492.488 56.8109 489.241 Q59.9619 485.963 59.9619 480.138 Q59.9619 476.764 59.1344 473.613 Q58.3069 470.43 56.6518 467.311 L62.1899 467.311 Q63.5267 470.462 64.227 473.772 Q64.9272 477.083 64.9272 480.488 Q64.9272 489.018 59.9619 494.015 Q54.9967 498.981 46.5303 498.981 Q37.7774 498.981 32.6531 494.27 Q27.4968 489.528 27.4968 481.507 Q27.4968 474.313 32.1438 470.144 Q36.7589 465.943 44.7161 465.943 M42.9973 471.799 Q38.1912 471.863 35.3266 474.504 Q32.4621 477.114 32.4621 481.443 Q32.4621 486.345 35.2312 489.305 Q38.0002 492.233 43.0292 492.679 L42.9973 471.799 Z" fill="#000000" fill-rule="nonzero" fill-opacity="1" /><path clip-path="url(#clip360)" d="M33.0032 421.796 Q33.0032 426.634 36.5043 429.244 Q40.1646 431.982 46.212 431.982 Q52.6095 431.982 56.3017 429.276 Q59.9619 426.539 59.9619 421.796 Q59.9619 417.118 56.2698 414.38 Q52.5777 411.643 46.212 411.643 Q40.3874 411.643 36.5043 414.38 Q33.0032 416.895 33.0032 421.796 M28.3562 421.796 L28.3562 402.349 L34.2127 402.349 L34.2127 408.906 Q39.1779 405.437 46.212 405.437 Q54.9649 405.437 59.9301 409.797 Q64.9272 414.158 64.9272 421.796 Q64.9272 429.467 59.9301 433.796 Q54.9649 438.156 46.212 438.156 Q37.3955 438.156 32.4621 433.796 Q28.3562 430.199 28.3562 421.796 Z" fill="#000000" fill-rule="nonzero" fill-opacity="1" /><path clip-path="url(#clip360)" d="M14.5426 395.22 L14.5426 390.127 Q22.0542 385.353 29.2474 382.997 Q36.4406 380.61 43.5384 380.61 Q50.668 380.61 57.8931 382.997 Q65.1182 385.353 72.5979 390.127 L72.5979 395.22 Q65.3091 390.986 58.1159 388.918 Q50.8908 386.817 43.5384 386.817 Q36.186 386.817 29.0246 388.918 Q21.8632 390.986 14.5426 395.22 Z" fill="#000000" fill-rule="nonzero" fill-opacity="1" /><path clip-path="url(#clip360)" d="M39.1142 366.478 L39.1142 352.983 L42.7427 352.983 L42.7427 372.017 L39.2416 372.017 Q38.2549 370.934 36.4725 368.929 Q26.7648 357.98 23.7729 357.98 Q21.6722 357.98 20.3991 359.635 Q19.0941 361.29 19.0941 363.996 Q19.0941 365.651 19.667 367.592 Q20.2081 369.534 21.3221 371.826 L17.4072 371.826 Q16.516 369.375 16.0704 367.274 Q15.6248 365.142 15.6248 363.327 Q15.6248 358.712 17.7255 355.943 Q19.8262 353.174 23.2636 353.174 Q27.6878 353.174 36.7271 363.709 Q38.2549 365.492 39.1142 366.478 Z" fill="#000000" fill-rule="nonzero" fill-opacity="1" /><polyline clip-path="url(#clip362)" style="stroke:#009af9; stroke-linecap:round; stroke-linejoin:round; stroke-width:4; stroke-opacity:1; fill:none" points="280.231,1390.33 282.245,47.2441 284.259,123.033 286.274,188.851 288.288,196.019 290.302,196.091 292.316,254.044 294.33,334.832 296.344,396.765 298.359,474.872 300.373,486.909 302.387,523.082 304.401,527.972 306.415,550.358 308.43,569.218 310.444,605.122 312.458,633.688 314.472,650.749 316.486,682.89 318.5,692.448 320.515,723.814 322.529,735.93 324.543,741.951 326.557,753.227 328.571,779.276 330.585,789.246 332.6,798.524 334.614,814.26 336.628,830.181 338.642,842.039 340.656,857.136 342.67,877.926 344.685,880.053 346.699,887.72 348.713,887.965 350.727,902.142 352.741,905.686 354.756,906.295 356.77,900.671 358.784,907.507 360.798,917.706 362.812,923.56 364.826,924.946 366.841,917.515 368.855,922.015 370.869,932.141 372.883,942.489 374.897,952.877 376.911,967.528 378.926,957.738 380.94,952.735 382.954,957.283 384.968,956.925 386.982,959.617 388.996,969.704 391.011,979.635 393.025,979.595 395.039,986.437 397.053,994.113 399.067,987.391 401.082,992.316 403.096,995.518 405.11,1002.01 407.124,1007.04 409.138,1011.5 411.152,1016.93 413.167,1022.3 415.181,1019.62 417.195,1018.83 419.209,1024.92 421.223,1023.53 423.237,1024.16 425.252,1025.62 427.266,1029.66 429.28,1036.33 431.294,1034.4 433.308,1035.83 435.322,1040.01 437.337,1044.4 439.351,1046.87 441.365,1046.89 443.379,1050.9 445.393,1052.82 447.408,1056.78 449.422,1061.58 451.436,1054.23 453.45,1054.62 455.464,1056.55 457.478,1059.38 459.493,1057.71 461.507,1054.9 463.521,1053.16 465.535,1056.24 467.549,1058.74 469.563,1055.74 471.578,1054.42 473.592,1054.2 475.606,1054.04 477.62,1057.16 479.634,1057.34 481.648,1059.68 483.663,1071.74 485.677,1078.2 487.691,1077.54 489.705,1081.46 491.719,1075.39 493.734,1078.05 495.748,1076.9 497.762,1078.67 499.776,1079.59 501.79,1079.26 503.804,1077.55 505.819,1079.69 507.833,1083.07 509.847,1083.41 511.861,1081.11 513.875,1083.27 515.889,1089.62 517.904,1088.22 519.918,1087.82 521.932,1092.46 523.946,1097.91 525.96,1095.1 527.974,1097.99 529.989,1098.59 532.003,1102.03 534.017,1104.05 536.031,1103.4 538.045,1106.06 540.06,1103.83 542.074,1104.83 544.088,1104.25 546.102,1106.12 548.116,1109.02 550.13,1110.48 552.145,1111.41 554.159,1115.58 556.173,1120.66 558.187,1122.12 560.201,1126.52 562.215,1127.69 564.23,1126.61 566.244,1128.52 568.258,1129.57 570.272,1129.69 572.286,1130.79 574.301,1131.98 576.315,1133.65 578.329,1135.8 580.343,1134.75 582.357,1135.35 584.371,1135.47 586.386,1139.98 588.4,1142.13 590.414,1141.95 592.428,1143.56 594.442,1140.53 596.456,1143.84 598.471,1147.12 600.485,1149.23 602.499,1146.88 604.513,1147.59 606.527,1147.08 608.541,1147.76 610.556,1148.38 612.57,1149.4 614.584,1149.13 616.598,1150.71 618.612,1154.43 620.627,1159.19 622.641,1160.64 624.655,1163.28 626.669,1163.14 628.683,1165.27 630.697,1167.08 632.712,1168.37 634.726,1170.64 636.74,1171.68 638.754,1170.32 640.768,1170.95 642.782,1173.65 644.797,1175.57 646.811,1175.41 648.825,1172.81 650.839,1172.93 652.853,1173.45 654.867,1173.58 656.882,1173.84 658.896,1174.74 660.91,1176.28 662.924,1178.88 664.938,1179.69 666.953,1181.69 668.967,1181.99 670.981,1183.49 672.995,1185.51 675.009,1185.8 677.023,1185.79 679.038,1186.26 681.052,1188.44 683.066,1191.51 685.08,1192.52 687.094,1191.88 689.108,1191.17 691.123,1192.32 693.137,1191.26 695.151,1192.19 697.165,1193.87 699.179,1195.72 701.193,1196.97 703.208,1199.41 705.222,1201.86 707.236,1203.02 709.25,1201.06 711.264,1201.21 713.279,1201.69 715.293,1203.55 717.307,1205.9 719.321,1205.62 721.335,1203.74 723.349,1202.53 725.364,1203.27 727.378,1204.65 729.392,1206.76 731.406,1207.61 733.42,1208.46 735.434,1210.47 737.449,1211.64 739.463,1213.15 741.477,1210.57 743.491,1209.62 745.505,1208.24 747.519,1205.75 749.534,1207.36 751.548,1208.5 753.562,1209.33 755.576,1210.18 757.59,1210.33 759.605,1211.28 761.619,1212.99 763.633,1213.74 765.647,1214.49 767.661,1215.77 769.675,1215.6 771.69,1217.58 773.704,1218.29 775.718,1219.24 777.732,1220.61 779.746,1220.78 781.76,1221.16 783.775,1221.06 785.789,1222.66 787.803,1224.16 789.817,1226.92 791.831,1230.3 793.845,1230.55 795.86,1230.98 797.874,1231.25 799.888,1232.01 801.902,1233.09 803.916,1233.05 805.931,1235.63 807.945,1235.83 809.959,1234.89 811.973,1235.66 813.987,1236.37 816.001,1236.74 818.016,1238.81 820.03,1240.69 822.044,1240.66 824.058,1241.16 826.072,1241.03 828.086,1241.62 830.101,1241.66 832.115,1238.07 834.129,1238.68 836.143,1238.74 838.157,1239.63 840.171,1240.67 842.186,1242.26 844.2,1242.33 846.214,1243.92 848.228,1245.36 850.242,1243.19 852.257,1244.23 854.271,1245.62 856.285,1246.71 858.299,1247.15 860.313,1248.56 862.327,1249.64 864.342,1250.71 866.356,1249.71 868.37,1249.25 870.384,1249.97 872.398,1251.14 874.412,1251.46 876.427,1251.66 878.441,1251.81 880.455,1253.96 882.469,1255.77 884.483,1257.13 886.498,1258.29 888.512,1258.43 890.526,1257.56 892.54,1258.37 894.554,1257.99 896.568,1258.95 898.583,1257.91 900.597,1258.42 902.611,1259.78 904.625,1260.63 906.639,1258.84 908.653,1259.67 910.668,1256.68 912.682,1256.11 914.696,1257.26 916.71,1258.22 918.724,1258.13 920.738,1258.68 922.753,1258.87 924.767,1259.63 926.781,1260.14 928.795,1261.19 930.809,1261.23 932.824,1262.1 934.838,1260.6 936.852,1261.42 938.866,1262.08 940.88,1259.6 942.894,1259.39 944.909,1259.02 946.923,1257.5 948.937,1257.3 950.951,1257.12 952.965,1257.75 954.979,1258.86 956.994,1258.72 959.008,1261.01 961.022,1262.21 963.036,1262.49 965.05,1263.19 967.064,1263.73 969.079,1264.63 971.093,1263.92 973.107,1264.2 975.121,1265 977.135,1266.62 979.15,1267.89 981.164,1269.19 983.178,1269.41 985.192,1269.97 987.206,1270.84 989.22,1271.29 991.235,1271.69 993.249,1272.52 995.263,1272.69 997.277,1273.85 999.291,1274.34 1001.31,1273.8 1003.32,1272.76 1005.33,1274.49 1007.35,1275.03 1009.36,1274.4 1011.38,1274.72 1013.39,1274.78 1015.4,1276.32 1017.42,1276.9 1019.43,1278.88 1021.45,1279.1 1023.46,1279.63 1025.48,1280.77 1027.49,1280.92 1029.5,1281.31 1031.52,1281.75 1033.53,1282.27 1035.55,1282.61 1037.56,1281.1 1039.57,1281.41 1041.59,1282.44 1043.6,1282.62 1045.62,1282.29 1047.63,1283.57 1049.65,1284.5 1051.66,1283.19 1053.67,1283.72 1055.69,1284.82 1057.7,1284.23 1059.72,1284.86 1061.73,1282.98 1063.74,1282.7 1065.76,1282.36 1067.77,1283.5 1069.79,1283.61 1071.8,1284.37 1073.82,1284.37 1075.83,1286.05 1077.84,1285.58 1079.86,1285.91 1081.87,1287.72 1083.89,1287.75 1085.9,1288.09 1087.91,1289.17 1089.93,1289.22 1091.94,1290.09 1093.96,1290.4 1095.97,1292.4 1097.99,1292.57 1100,1292.68 1102.01,1292.63 1104.03,1292.5 1106.04,1291.33 1108.06,1291.15 1110.07,1292.76 1112.09,1293.36 1114.1,1292.97 1116.11,1295.64 1118.13,1295.77 1120.14,1295.96 1122.16,1296.6 1124.17,1296.88 1126.18,1298.71 1128.2,1299.79 1130.21,1301.2 1132.23,1300.47 1134.24,1300.75 1136.26,1300.41 1138.27,1300.09 1140.28,1300.31 1142.3,1300.38 1144.31,1300.2 1146.33,1300.71 1148.34,1302.16 1150.35,1302.19 1152.37,1303.19 1154.38,1302.65 1156.4,1303.25 1158.41,1304.51 1160.43,1304.29 1162.44,1305.59 1164.45,1305.91 1166.47,1306.14 1168.48,1306.59 1170.5,1307.12 1172.51,1308.32 1174.52,1308.14 1176.54,1308.82 1178.55,1309.67 1180.57,1310.23 1182.58,1311.05 1184.6,1310.71 1186.61,1310.85 1188.62,1312.56 1190.64,1312.93 1192.65,1314 1194.67,1314.45 1196.68,1315.64 1198.69,1316.13 1200.71,1315.74 1202.72,1316.41 1204.74,1316.28 1206.75,1315.52 1208.77,1316.83 1210.78,1319.06 1212.79,1320.71 1214.81,1321.04 1216.82,1322.72 1218.84,1323.97 1220.85,1323.5 1222.86,1323.92 1224.88,1324.24 1226.89,1324.68 1228.91,1324.16 1230.92,1324.65 1232.94,1325.03 1234.95,1326.45 1236.96,1326.24 1238.98,1326.41 1240.99,1326.72 1243.01,1327.93 1245.02,1328.23 1247.03,1329.03 1249.05,1328.66 1251.06,1329.25 1253.08,1329.89 1255.09,1329.77 1257.11,1330.65 1259.12,1330.98 1261.13,1330.54 1263.15,1329.75 1265.16,1329.73 1267.18,1330.23 1269.19,1332.73 1271.2,1333.58 1273.22,1334.78 1275.23,1335.18 1277.25,1334.8 1279.26,1335.05 1281.28,1335.91 1283.29,1336.85 1285.3,1337.05 1287.32,1336.92 1289.33,1337.31 1291.35,1337.51 1293.36,1337.87 1295.37,1338.69 1297.39,1338.76 1299.4,1339.17 1301.42,1339.18 1303.43,1339.69 1305.45,1339.69 1307.46,1339.26 1309.47,1338.35 1311.49,1338.33 1313.5,1338 1315.52,1339.16 1317.53,1340.25 1319.54,1340.91 1321.56,1340.81 1323.57,1340.5 1325.59,1341.6 1327.6,1340.86 1329.62,1340.63 1331.63,1340.3 1333.64,1340.8 1335.66,1340.86 1337.67,1341.44 1339.69,1341.8 1341.7,1342.23 1343.72,1342.83 1345.73,1342.88 1347.74,1342.26 1349.76,1341.92 1351.77,1342.36 1353.79,1342.62 1355.8,1343.06 1357.81,1343.56 1359.83,1343.93 1361.84,1344.53 1363.86,1343.91 1365.87,1344.18 1367.89,1344.31 1369.9,1344.88 1371.91,1343.69 1373.93,1343.68 1375.94,1343.76 1377.96,1344.57 1379.97,1343.73 1381.98,1343.36 1384,1343.83 1386.01,1344.24 1388.03,1343.76 1390.04,1343.85 1392.06,1344.02 1394.07,1343.05 1396.08,1343.37 1398.1,1343.58 1400.11,1343.46 1402.13,1343.67 1404.14,1343.9 1406.15,1344.54 1408.17,1344.18 1410.18,1344.35 1412.2,1345.21 1414.21,1345.33 1416.23,1345.78 1418.24,1345.6 1420.25,1345.37 1422.27,1345.06 1424.28,1345.19 1426.3,1345.73 1428.31,1346.03 1430.32,1346.72 1432.34,1346.64 1434.35,1346.73 1436.37,1347.21 1438.38,1347.41 1440.4,1347.28 1442.41,1348.1 1444.42,1347.97 1446.44,1349.66 1448.45,1350.15 1450.47,1350.51 1452.48,1350.73 1454.49,1351.12 1456.51,1350.9 1458.52,1351.08 1460.54,1351.85 1462.55,1352.17 1464.57,1352.12 1466.58,1352.16 1468.59,1352.3 1470.61,1352.74 1472.62,1352.98 1474.64,1352.89 1476.65,1352.64 1478.66,1352.49 1480.68,1352.67 1482.69,1352.78 1484.71,1352.98 1486.72,1352.65 1488.74,1353.12 1490.75,1353.09 1492.76,1354.05 1494.78,1354.41 1496.79,1355.12 1498.81,1354.81 1500.82,1355.2 1502.83,1355.9 1504.85,1357.3 1506.86,1357.36 1508.88,1357.61 1510.89,1357.53 1512.91,1357.69 1514.92,1357.95 1516.93,1357.89 1518.95,1358.21 1520.96,1358.42 1522.98,1358.13 1524.99,1358.46 1527,1359.71 1529.02,1360.37 1531.03,1361.04 1533.05,1360.52 1535.06,1360.65 1537.08,1359.21 1539.09,1359.48 1541.1,1358.87 1543.12,1359.83 1545.13,1360.02 1547.15,1359.95 1549.16,1358.99 1551.17,1359.75 1553.19,1360.06 1555.2,1360.72 1557.22,1360.85 1559.23,1360.12 1561.25,1359.53 1563.26,1359.72 1565.27,1359.72 1567.29,1360.57 1569.3,1361.35 1571.32,1361.1 1573.33,1360.02 1575.35,1359.48 1577.36,1359.27 1579.37,1358.04 1581.39,1358.22 1583.4,1357.74 1585.42,1356.94 1587.43,1355.96 1589.44,1355.21 1591.46,1355.03 1593.47,1355.65 1595.49,1356.24 1597.5,1356.6 1599.52,1357.09 1601.53,1356.8 1603.54,1357.2 1605.56,1357.23 1607.57,1356.86 1609.59,1357.64 1611.6,1358.11 1613.61,1357.77 1615.63,1358.57 1617.64,1359.01 1619.66,1359.43 1621.67,1359.46 1623.69,1359.6 1625.7,1360.65 1627.71,1360.51 1629.73,1360.71 1631.74,1360.68 1633.76,1360.57 1635.77,1360.63 1637.78,1360.5 1639.8,1360.34 1641.81,1360.45 1643.83,1360.98 1645.84,1361.7 1647.86,1361.71 1649.87,1362.6 1651.88,1363 1653.9,1363.23 1655.91,1363.42 1657.93,1363.52 1659.94,1363.23 1661.95,1362.48 1663.97,1362.25 1665.98,1362.51 1668,1362.8 1670.01,1362.23 1672.03,1362.15 1674.04,1361.91 1676.05,1362.2 1678.07,1361.48 1680.08,1360.41 1682.1,1360.53 1684.11,1360.24 1686.12,1360.73 1688.14,1360.75 1690.15,1361.27 1692.17,1360.14 1694.18,1361.57 1696.2,1361.58 1698.21,1362.39 1700.22,1362.19 1702.24,1362.39 1704.25,1362.24 1706.27,1362.52 1708.28,1362.05 1710.29,1362.63 1712.31,1362.64 1714.32,1363.16 1716.34,1363.46 1718.35,1363.7 1720.37,1363.47 1722.38,1363.63 1724.39,1363.54 1726.41,1364.15 1728.42,1365.06 1730.44,1364.92 1732.45,1364.76 1734.46,1364.9 1736.48,1365.56 1738.49,1366.32 1740.51,1367.18 1742.52,1365.33 1744.54,1365.2 1746.55,1366.08 1748.56,1366.92 1750.58,1367.91 1752.59,1368.48 1754.61,1368.14 1756.62,1368.97 1758.63,1369.75 1760.65,1370.43 1762.66,1371.09 1764.68,1370.86 1766.69,1370.07 1768.71,1370.91 1770.72,1370.52 1772.73,1371.41 1774.75,1371.35 1776.76,1371.67 1778.78,1371.66 1780.79,1371.53 1782.81,1371.44 1784.82,1371.56 1786.83,1371.32 1788.85,1371.67 1790.86,1371.84 1792.88,1372.21 1794.89,1371.7 1796.9,1370.78 1798.92,1370.89 1800.93,1371.17 1802.95,1371.44 1804.96,1371.7 1806.98,1371.32 1808.99,1371.13 1811,1370.02 1813.02,1370.72 1815.03,1371.11 1817.05,1371.27 1819.06,1371.74 1821.07,1372.1 1823.09,1372.3 1825.1,1372.82 1827.12,1372.58 1829.13,1373.22 1831.15,1373.79 1833.16,1373.99 1835.17,1374.82 1837.19,1374.87 1839.2,1375.11 1841.22,1374.74 1843.23,1375.34 1845.24,1375.29 1847.26,1375.49 1849.27,1375.59 1851.29,1375.67 1853.3,1376.32 1855.32,1375.2 1857.33,1374.89 1859.34,1375.25 1861.36,1376.07 1863.37,1376.4 1865.39,1376.53 1867.4,1376.57 1869.41,1376.72 1871.43,1375.17 1873.44,1376.05 1875.46,1377.05 1877.47,1376.96 1879.49,1377.13 1881.5,1377.74 1883.51,1377.57 1885.53,1378.17 1887.54,1378.22 1889.56,1378.22 1891.57,1378.36 1893.58,1377.83 1895.6,1377.39 1897.61,1377.7 1899.63,1378.18 1901.64,1378.28 1903.66,1378.36 1905.67,1378.35 1907.68,1378.15 1909.7,1378.53 1911.71,1378.45 1913.73,1377.68 1915.74,1378.32 1917.75,1377.97 1919.77,1378.65 1921.78,1379.15 1923.8,1379.54 1925.81,1378.63 1927.83,1378.52 1929.84,1379.28 1931.85,1378.1 1933.87,1378.91 1935.88,1378.18 1937.9,1377.93 1939.91,1377.51 1941.92,1377.85 1943.94,1378.33 1945.95,1379.21 1947.97,1379.59 1949.98,1379.55 1952,1380.24 1954.01,1380.28 1956.02,1379.86 1958.04,1378.93 1960.05,1380.1 1962.07,1381.22 1964.08,1381.84 1966.09,1381.72 1968.11,1381.66 1970.12,1382.35 1972.14,1383.54 1974.15,1383.23 1976.17,1382.99 1978.18,1383.02 1980.19,1383.73 1982.21,1383.45 1984.22,1384.03 1986.24,1384.45 1988.25,1385.05 1990.26,1386.3 1992.28,1386.07 1994.29,1385.84 1996.31,1386.83 1998.32,1386.49 2000.34,1387.31 2002.35,1388.02 2004.36,1388.1 2006.38,1387.82 2008.39,1387.69 2010.41,1387.68 2012.42,1387.66 2014.44,1388.02 2016.45,1387.34 2018.46,1387.31 2020.48,1387.24 2022.49,1386.68 2024.51,1387.69 2026.52,1387.06 2028.53,1386.54 2030.55,1386.6 2032.56,1386.16 2034.58,1386.16 2036.59,1386.44 2038.61,1386.16 2040.62,1386.64 2042.63,1387.27 2044.65,1386.98 2046.66,1386.81 2048.68,1387.07 2050.69,1386.45 2052.7,1386.25 2054.72,1386.23 2056.73,1386.74 2058.75,1387.29 2060.76,1388.22 2062.78,1387.92 2064.79,1388.26 2066.8,1388.04 2068.82,1388.14 2070.83,1387.94 2072.85,1388.14 2074.86,1389.47 2076.87,1389.62 2078.89,1389.59 2080.9,1390.2 2082.92,1389.09 2084.93,1388.07 2086.95,1387.27 2088.96,1387.16 2090.97,1387.17 2092.99,1387.24 2095,1386.78 2097.02,1387.18 2099.03,1388.04 2101.04,1388.22 2103.06,1388.71 2105.07,1389.15 2107.09,1389.75 2109.1,1389.78 2111.12,1390.29 2113.13,1390.25 2115.14,1390.17 2117.16,1389.82 2119.17,1390.76 2121.19,1390.85 2123.2,1391.08 2125.21,1391.58 2127.23,1391.7 2129.24,1392.35 2131.26,1390.36 2133.27,1390.62 2135.29,1390.87 2137.3,1392.18 2139.31,1391.68 2141.33,1391.66 2143.34,1391.22 2145.36,1390.9 2147.37,1391.83 2149.38,1392.83 2151.4,1392.83 2153.41,1392.47 2155.43,1392.25 2157.44,1392.7 2159.46,1393.64 2161.47,1393.31 2163.48,1393.64 2165.5,1394.63 2167.51,1395.05 2169.53,1394.94 2171.54,1395.13 2173.55,1396.23 2175.57,1396.24 2177.58,1396.38 2179.6,1396.43 2181.61,1396.76 2183.63,1397.2 2185.64,1397.51 2187.65,1397.79 2189.67,1398.21 2191.68,1398.53 2193.7,1397.96 2195.71,1397.64 2197.72,1397.85 2199.74,1397.71 2201.75,1397.61 2203.77,1398.2 2205.78,1398.17 2207.8,1398.37 2209.81,1398.82 2211.82,1398.81 2213.84,1398.75 2215.85,1398.6 2217.87,1398.9 2219.88,1399.44 2221.9,1399.53 2223.91,1400.05 2225.92,1400.64 2227.94,1400.86 2229.95,1401.29 2231.97,1401.68 2233.98,1401.93 2235.99,1401.07 2238.01,1401.57 2240.02,1401.57 2242.04,1401.8 2244.05,1401.7 2246.07,1401.48 2248.08,1401.64 2250.09,1401.4 2252.11,1401.23 2254.12,1401.51 2256.14,1401.57 2258.15,1401.64 2260.16,1401.72 2262.18,1401.73 2264.19,1402.07 2266.21,1402.2 2268.22,1402.1 2270.24,1402.08 2272.25,1402.74 2274.26,1403.04 2276.28,1402.11 2278.29,1402.45 2280.31,1402.61 2282.32,1402.83 2284.33,1403.27 2286.35,1403.54 2288.36,1404.04 2290.38,1404.39 2292.39,1404.37 "/>
<polyline clip-path="url(#clip362)" style="stroke:#e26f46; stroke-linecap:round; stroke-linejoin:round; stroke-width:4; stroke-opacity:1; fill:none" points="280.231,1407.65 282.245,26.7806 284.259,42.1311 286.274,79.5365 288.288,128.931 290.302,168.506 292.316,236.435 294.33,327.65 296.344,372.129 298.359,428.334 300.373,474.843 302.387,542.818 304.401,587.658 306.415,646.968 308.43,700.641 310.444,735.936 312.458,763.848 314.472,791.412 316.486,822.506 318.5,865.105 320.515,874.751 322.529,900.123 324.543,909.142 326.557,933.138 328.571,954.689 330.585,969.843 332.6,979.18 334.614,972.132 336.628,989.372 338.642,1002.37 340.656,1015.92 342.67,1028.55 344.685,1026.54 346.699,1050.51 348.713,1050.92 350.727,1055.01 352.741,1051.88 354.756,1054.31 356.77,1062.39 358.784,1067.3 360.798,1066.78 362.812,1069.75 364.826,1077.12 366.841,1083.95 368.855,1081.56 370.869,1082.13 372.883,1084.48 374.897,1096.28 376.911,1092.23 378.926,1097.81 380.94,1102.98 382.954,1109.91 384.968,1108.62 386.982,1122.86 388.996,1121.1 391.011,1122.68 393.025,1128.43 395.039,1133.07 397.053,1139.07 399.067,1147.46 401.082,1152.9 403.096,1153.8 405.11,1156.37 407.124,1152.38 409.138,1155.97 411.152,1160.23 413.167,1158.45 415.181,1159.47 417.195,1159.63 419.209,1160.74 421.223,1162.63 423.237,1164.93 425.252,1166.92 427.266,1168.68 429.28,1166.41 431.294,1162.11 433.308,1165.94 435.322,1164.47 437.337,1168.49 439.351,1173.54 441.365,1179.19 443.379,1174.74 445.393,1179.87 447.408,1182.91 449.422,1187.09 451.436,1187.15 453.45,1190.47 455.464,1194.32 457.478,1202.72 459.493,1203.79 461.507,1204.78 463.521,1203.46 465.535,1206.88 467.549,1202.97 469.563,1205.99 471.578,1207.92 473.592,1208.79 475.606,1211.09 477.62,1214.38 479.634,1216.82 481.648,1217.42 483.663,1221.12 485.677,1222.14 487.691,1224.51 489.705,1228.23 491.719,1227.75 493.734,1232.89 495.748,1232.41 497.762,1232.08 499.776,1235.1 501.79,1235.15 503.804,1240.23 505.819,1243.08 507.833,1240.63 509.847,1239.09 511.861,1241.7 513.875,1242.74 515.889,1245.28 517.904,1245.77 519.918,1247.79 521.932,1250.68 523.946,1253.09 525.96,1258.63 527.974,1261.89 529.989,1263.2 532.003,1263.75 534.017,1264.67 536.031,1266.57 538.045,1267.98 540.06,1268.99 542.074,1273.18 544.088,1276.1 546.102,1278.76 548.116,1278.8 550.13,1282.48 552.145,1283.97 554.159,1283.99 556.173,1283.57 558.187,1286.76 560.201,1286.46 562.215,1286.67 564.23,1285.26 566.244,1283.84 568.258,1283.72 570.272,1287.48 572.286,1289.3 574.301,1290.36 576.315,1290.85 578.329,1290.01 580.343,1290.42 582.357,1291.82 584.371,1289.61 586.386,1288.46 588.4,1292.61 590.414,1296.23 592.428,1295.66 594.442,1292.35 596.456,1293.86 598.471,1296.4 600.485,1295.44 602.499,1298.01 604.513,1300.68 606.527,1300.53 608.541,1300.37 610.556,1302.59 612.57,1304.75 614.584,1305.03 616.598,1304.62 618.612,1304.49 620.627,1307.23 622.641,1308.14 624.655,1307.54 626.669,1308.57 628.683,1308 630.697,1307.84 632.712,1307.77 634.726,1309.11 636.74,1310.73 638.754,1311.6 640.768,1312.18 642.782,1314.34 644.797,1312.45 646.811,1313.81 648.825,1313.2 650.839,1313.22 652.853,1314.79 654.867,1313.2 656.882,1314.07 658.896,1314.84 660.91,1312.92 662.924,1312.56 664.938,1311.08 666.953,1311.52 668.967,1312.91 670.981,1313.91 672.995,1313.59 675.009,1313.01 677.023,1313.43 679.038,1314.54 681.052,1313.61 683.066,1314.54 685.08,1317.52 687.094,1322.07 689.108,1323.76 691.123,1325.19 693.137,1323.18 695.151,1323.77 697.165,1323.78 699.179,1323.89 701.193,1325.6 703.208,1324.22 705.222,1324.97 707.236,1325.16 709.25,1324.27 711.264,1324.7 713.279,1325.96 715.293,1327.24 717.307,1328.57 719.321,1329.63 721.335,1331.45 723.349,1333.73 725.364,1334.96 727.378,1336.85 729.392,1338.71 731.406,1338.95 733.42,1338.58 735.434,1338.78 737.449,1339.14 739.463,1339.25 741.477,1338.73 743.491,1339.3 745.505,1340.45 747.519,1340.22 749.534,1340.67 751.548,1341.37 753.562,1342.06 755.576,1343.08 757.59,1342.49 759.605,1341.77 761.619,1341.57 763.633,1341.57 765.647,1341.58 767.661,1341.79 769.675,1342.27 771.69,1343.05 773.704,1343.05 775.718,1342.17 777.732,1342.96 779.746,1342.54 781.76,1342.77 783.775,1345.14 785.789,1346.28 787.803,1346.93 789.817,1348.62 791.831,1348.87 793.845,1349.28 795.86,1349.74 797.874,1349.11 799.888,1349.73 801.902,1350.93 803.916,1351.42 805.931,1353.05 807.945,1353.48 809.959,1353.91 811.973,1356.76 813.987,1356.71 816.001,1357.89 818.016,1358.57 820.03,1357.96 822.044,1358.8 824.058,1358.75 826.072,1359.4 828.086,1359.07 830.101,1359.29 832.115,1360.12 834.129,1360.2 836.143,1361.53 838.157,1361.43 840.171,1361.62 842.186,1360.01 844.2,1359.68 846.214,1360.65 848.228,1361.13 850.242,1361.2 852.257,1361.54 854.271,1361.58 856.285,1361.7 858.299,1362.07 860.313,1361.99 862.327,1362.53 864.342,1363.11 866.356,1363.8 868.37,1363.43 870.384,1363.56 872.398,1363.91 874.412,1363.12 876.427,1363.93 878.441,1365.35 880.455,1365.52 882.469,1366.02 884.483,1366.09 886.498,1366.26 888.512,1366.24 890.526,1365.65 892.54,1365.77 894.554,1365.94 896.568,1365.06 898.583,1365.89 900.597,1366.3 902.611,1366.27 904.625,1367.2 906.639,1368.35 908.653,1368.84 910.668,1368.28 912.682,1368.25 914.696,1368.91 916.71,1369.23 918.724,1369.36 920.738,1369.5 922.753,1369.12 924.767,1370.04 926.781,1369.78 928.795,1370.01 930.809,1370.13 932.824,1370.51 934.838,1370.68 936.852,1370.98 938.866,1371.12 940.88,1370.52 942.894,1371.37 944.909,1371.96 946.923,1372.05 948.937,1372.61 950.951,1372.87 952.965,1373.04 954.979,1373.8 956.994,1374.21 959.008,1374.18 961.022,1375.1 963.036,1375.29 965.05,1375.36 967.064,1375.19 969.079,1376.39 971.093,1377.63 973.107,1377.81 975.121,1377.73 977.135,1379.3 979.15,1378.74 981.164,1379.32 983.178,1380.21 985.192,1380.46 987.206,1381.33 989.22,1381.25 991.235,1381.66 993.249,1381.91 995.263,1381.08 997.277,1381.57 999.291,1381.47 1001.31,1382.03 1003.32,1381.98 1005.33,1382.2 1007.35,1381.79 1009.36,1382.02 1011.38,1382.19 1013.39,1381.9 1015.4,1382.02 1017.42,1381.92 1019.43,1382.45 1021.45,1382.76 1023.46,1382.96 1025.48,1383.63 1027.49,1384.07 1029.5,1384.44 1031.52,1384.48 1033.53,1384.66 1035.55,1384.65 1037.56,1385.14 1039.57,1385.37 1041.59,1385.99 1043.6,1386.43 1045.62,1387.02 1047.63,1387.47 1049.65,1386.45 1051.66,1386.45 1053.67,1386.98 1055.69,1387.55 1057.7,1387.58 1059.72,1388.02 1061.73,1388.56 1063.74,1389.15 1065.76,1389.38 1067.77,1389.66 1069.79,1390.13 1071.8,1390.39 1073.82,1390.4 1075.83,1390.47 1077.84,1391.42 1079.86,1391.73 1081.87,1391.88 1083.89,1392.36 1085.9,1391.96 1087.91,1392.8 1089.93,1392.97 1091.94,1393.67 1093.96,1393.55 1095.97,1393.38 1097.99,1393.63 1100,1394.43 1102.01,1395.09 1104.03,1395.57 1106.04,1396.1 1108.06,1396.28 1110.07,1395 1112.09,1395.43 1114.1,1395.08 1116.11,1395.49 1118.13,1395.53 1120.14,1395.62 1122.16,1395.58 1124.17,1395.92 1126.18,1396.83 1128.2,1396.66 1130.21,1397.73 1132.23,1398.15 1134.24,1398.25 1136.26,1398.18 1138.27,1398.52 1140.28,1398.75 1142.3,1398.68 1144.31,1398.8 1146.33,1399.22 1148.34,1399.24 1150.35,1399.61 1152.37,1399.76 1154.38,1399.63 1156.4,1400.01 1158.41,1400.63 1160.43,1400.91 1162.44,1401.34 1164.45,1401.43 1166.47,1401.78 1168.48,1401.85 1170.5,1402.31 1172.51,1402.43 1174.52,1402.26 1176.54,1402.26 1178.55,1402.38 1180.57,1402.04 1182.58,1402.47 1184.6,1402.04 1186.61,1402.51 1188.62,1402.89 1190.64,1403.46 1192.65,1403.48 1194.67,1403.62 1196.68,1403.3 1198.69,1403.5 1200.71,1403.47 1202.72,1403.51 1204.74,1404.03 1206.75,1404.42 1208.77,1404.35 1210.78,1404.3 1212.79,1404.4 1214.81,1404.14 1216.82,1404.51 1218.84,1404.68 1220.85,1404.98 1222.86,1405.03 1224.88,1405.39 1226.89,1405.13 1228.91,1404.72 1230.92,1404.84 1232.94,1404.78 1234.95,1404.73 1236.96,1404.77 1238.98,1404.75 1240.99,1404.75 1243.01,1404.92 1245.02,1405.13 1247.03,1405.03 1249.05,1404.65 1251.06,1404.46 1253.08,1403.9 1255.09,1403.96 1257.11,1403.97 1259.12,1404.02 1261.13,1403.7 1263.15,1404.32 1265.16,1404.67 1267.18,1404.92 1269.19,1404.87 1271.2,1405.21 1273.22,1405.72 1275.23,1405.97 1277.25,1405.93 1279.26,1406.26 1281.28,1406.2 1283.29,1406.07 1285.3,1406.08 1287.32,1406.14 1289.33,1406.2 1291.35,1406.38 1293.36,1406.51 1295.37,1406.59 1297.39,1406.79 1299.4,1407.05 1301.42,1406.53 1303.43,1406.48 1305.45,1406.31 1307.46,1406.43 1309.47,1406.57 1311.49,1406.54 1313.5,1406.44 1315.52,1406.53 1317.53,1406.7 1319.54,1406.34 1321.56,1405.61 1323.57,1405.71 1325.59,1405.94 1327.6,1405.64 1329.62,1405.53 1331.63,1405.85 1333.64,1405.95 1335.66,1406.09 1337.67,1406.04 1339.69,1406.18 1341.7,1406.28 1343.72,1406.35 1345.73,1406.6 1347.74,1407.06 1349.76,1407.08 1351.77,1407.18 1353.79,1407.24 1355.8,1407.04 1357.81,1406.96 1359.83,1406.82 1361.84,1407.09 1363.86,1407.21 1365.87,1407.26 1367.89,1407.26 1369.9,1407.31 1371.91,1407.36 1373.93,1407.57 1375.94,1407.23 1377.96,1407.11 1379.97,1407.14 1381.98,1406.97 1384,1407.36 1386.01,1407.72 1388.03,1407.81 1390.04,1407.81 1392.06,1407.57 1394.07,1407.7 1396.08,1407.99 1398.1,1407.87 1400.11,1407.62 1402.13,1407.46 1404.14,1407.63 1406.15,1407.85 1408.17,1407.59 1410.18,1407.36 1412.2,1407.35 1414.21,1407.19 1416.23,1407.57 1418.24,1407.77 1420.25,1407.59 1422.27,1407.79 1424.28,1407.96 1426.3,1407.81 1428.31,1408.05 1430.32,1408.36 1432.34,1408.33 1434.35,1408.22 1436.37,1408.45 1438.38,1408.72 1440.4,1408.81 1442.41,1408.59 1444.42,1408.62 1446.44,1408.77 1448.45,1409.02 1450.47,1409.34 1452.48,1409.34 1454.49,1409.44 1456.51,1409.71 1458.52,1409.91 1460.54,1409.92 1462.55,1409.84 1464.57,1409.92 1466.58,1409.79 1468.59,1409.23 1470.61,1409.44 1472.62,1409.6 1474.64,1409.65 1476.65,1409.89 1478.66,1410.05 1480.68,1410.2 1482.69,1410.13 1484.71,1410.32 1486.72,1410.24 1488.74,1410.39 1490.75,1410.52 1492.76,1410.55 1494.78,1410.59 1496.79,1410.67 1498.81,1410.27 1500.82,1410.5 1502.83,1409.89 1504.85,1409.9 1506.86,1409.64 1508.88,1409.5 1510.89,1409.47 1512.91,1409.43 1514.92,1409 1516.93,1408.97 1518.95,1408.98 1520.96,1409.09 1522.98,1409.04 1524.99,1408.97 1527,1409.36 1529.02,1409.23 1531.03,1409.43 1533.05,1409.44 1535.06,1408.69 1537.08,1408.57 1539.09,1408.8 1541.1,1408.73 1543.12,1409.03 1545.13,1409.11 1547.15,1408.8 1549.16,1408.9 1551.17,1409.03 1553.19,1409.21 1555.2,1408.89 1557.22,1408.91 1559.23,1409.31 1561.25,1409.16 1563.26,1409.33 1565.27,1409.54 1567.29,1409.38 1569.3,1409.27 1571.32,1409.24 1573.33,1409.13 1575.35,1409.41 1577.36,1409.68 1579.37,1409.8 1581.39,1410.01 1583.4,1409.92 1585.42,1409.86 1587.43,1409.95 1589.44,1410.08 1591.46,1409.83 1593.47,1410.16 1595.49,1410.24 1597.5,1410.21 1599.52,1409.88 1601.53,1410.34 1603.54,1410.4 1605.56,1410.61 1607.57,1410.59 1609.59,1410.64 1611.6,1410.65 1613.61,1410.72 1615.63,1410.5 1617.64,1410.5 1619.66,1410.72 1621.67,1410.86 1623.69,1410.73 1625.7,1411.46 1627.71,1411.3 1629.73,1411.54 1631.74,1411.56 1633.76,1411.75 1635.77,1411.95 1637.78,1412.13 1639.8,1412.03 1641.81,1411.84 1643.83,1411.84 1645.84,1411.71 1647.86,1411.96 1649.87,1411.89 1651.88,1412.04 1653.9,1411.95 1655.91,1412.05 1657.93,1412 1659.94,1412.21 1661.95,1412.09 1663.97,1412.19 1665.98,1412.29 1668,1412.35 1670.01,1412.45 1672.03,1412.61 1674.04,1412.56 1676.05,1412.8 1678.07,1412.68 1680.08,1412.46 1682.1,1412.9 1684.11,1413.35 1686.12,1413.59 1688.14,1413.61 1690.15,1413.59 1692.17,1413.48 1694.18,1413.83 1696.2,1413.97 1698.21,1413.97 1700.22,1414.27 1702.24,1414.46 1704.25,1414.67 1706.27,1415.1 1708.28,1415.38 1710.29,1415.51 1712.31,1415.64 1714.32,1415.38 1716.34,1415.42 1718.35,1414.91 1720.37,1415.2 1722.38,1415.54 1724.39,1415.88 1726.41,1416.02 1728.42,1415.88 1730.44,1416.16 1732.45,1416.52 1734.46,1416.53 1736.48,1416.34 1738.49,1416.45 1740.51,1416.69 1742.52,1416.63 1744.54,1416.75 1746.55,1416.79 1748.56,1416.69 1750.58,1416.56 1752.59,1416.71 1754.61,1416.51 1756.62,1416.71 1758.63,1416.76 1760.65,1416.88 1762.66,1417.01 1764.68,1417.33 1766.69,1417.17 1768.71,1417.14 1770.72,1417.2 1772.73,1417.45 1774.75,1417.38 1776.76,1417.39 1778.78,1417.52 1780.79,1417.35 1782.81,1417.46 1784.82,1417.22 1786.83,1417.53 1788.85,1417.6 1790.86,1417.76 1792.88,1417.82 1794.89,1417.88 1796.9,1417.77 1798.92,1417.75 1800.93,1417.73 1802.95,1417.63 1804.96,1417.55 1806.98,1417.51 1808.99,1417.66 1811,1417.55 1813.02,1417.75 1815.03,1417.72 1817.05,1418.14 1819.06,1418.3 1821.07,1418.83 1823.09,1419.2 1825.1,1418.92 1827.12,1418.32 1829.13,1418.45 1831.15,1418.6 1833.16,1418.67 1835.17,1418.91 1837.19,1419.84 1839.2,1419.2 1841.22,1419.17 1843.23,1419.73 1845.24,1420.01 1847.26,1420.17 1849.27,1419.51 1851.29,1419.14 1853.3,1418.98 1855.32,1419.56 1857.33,1420.05 1859.34,1419.68 1861.36,1419.96 1863.37,1419.23 1865.39,1419.53 1867.4,1419.69 1869.41,1419.99 1871.43,1419.89 1873.44,1420.36 1875.46,1420.55 1877.47,1420.53 1879.49,1420.82 1881.5,1420.72 1883.51,1421.09 1885.53,1420.74 1887.54,1421.12 1889.56,1421.35 1891.57,1421.64 1893.58,1421.69 1895.6,1421.7 1897.61,1421.7 1899.63,1421.7 1901.64,1421.8 1903.66,1421.84 1905.67,1421.64 1907.68,1421.69 1909.7,1421.8 1911.71,1421.86 1913.73,1421.91 1915.74,1421.87 1917.75,1421.82 1919.77,1421.9 1921.78,1421.87 1923.8,1421.82 1925.81,1421.9 1927.83,1421.92 1929.84,1422.07 1931.85,1422 1933.87,1421.92 1935.88,1421.74 1937.9,1421.9 1939.91,1421.87 1941.92,1421.92 1943.94,1421.88 1945.95,1421.91 1947.97,1421.93 1949.98,1421.85 1952,1421.8 1954.01,1421.85 1956.02,1421.9 1958.04,1421.87 1960.05,1421.87 1962.07,1421.81 1964.08,1421.87 1966.09,1421.77 1968.11,1421.74 1970.12,1421.73 1972.14,1421.77 1974.15,1421.84 1976.17,1421.92 1978.18,1421.91 1980.19,1421.93 1982.21,1421.95 1984.22,1421.81 1986.24,1421.9 1988.25,1421.81 1990.26,1421.95 1992.28,1421.82 1994.29,1421.95 1996.31,1421.86 1998.32,1421.81 2000.34,1421.86 2002.35,1421.76 2004.36,1421.82 2006.38,1421.82 2008.39,1421.79 2010.41,1421.63 2012.42,1421.75 2014.44,1421.61 2016.45,1421.56 2018.46,1421.56 2020.48,1421.5 2022.49,1421.47 2024.51,1421.37 2026.52,1421.5 2028.53,1421.57 2030.55,1421.47 2032.56,1421.39 2034.58,1421.31 2036.59,1421.22 2038.61,1421.39 2040.62,1421.41 2042.63,1421.38 2044.65,1421.44 2046.66,1421.45 2048.68,1421.4 2050.69,1421.38 2052.7,1421.39 2054.72,1421.48 2056.73,1421.6 2058.75,1421.58 2060.76,1421.64 2062.78,1421.57 2064.79,1421.56 2066.8,1421.57 2068.82,1421.44 2070.83,1421.38 2072.85,1421.56 2074.86,1421.67 2076.87,1421.67 2078.89,1421.62 2080.9,1421.57 2082.92,1421.55 2084.93,1421.48 2086.95,1421.54 2088.96,1421.5 2090.97,1421.52 2092.99,1421.4 2095,1421.46 2097.02,1421.49 2099.03,1421.64 2101.04,1421.65 2103.06,1421.65 2105.07,1421.43 2107.09,1421.35 2109.1,1421.34 2111.12,1421.51 2113.13,1421.62 2115.14,1421.49 2117.16,1421.49 2119.17,1421.44 2121.19,1421.46 2123.2,1421.52 2125.21,1421.5 2127.23,1421.55 2129.24,1421.5 2131.26,1421.6 2133.27,1421.53 2135.29,1421.74 2137.3,1421.73 2139.31,1421.71 2141.33,1421.61 2143.34,1421.56 2145.36,1421.53 2147.37,1421.53 2149.38,1421.55 2151.4,1421.51 2153.41,1421.6 2155.43,1421.61 2157.44,1421.54 2159.46,1421.56 2161.47,1421.48 2163.48,1421.67 2165.5,1421.72 2167.51,1421.78 2169.53,1421.81 2171.54,1421.84 2173.55,1421.74 2175.57,1421.66 2177.58,1421.84 2179.6,1421.92 2181.61,1421.91 2183.63,1422.05 2185.64,1422.05 2187.65,1422.03 2189.67,1422 2191.68,1421.97 2193.7,1422.02 2195.71,1422.02 2197.72,1422.04 2199.74,1421.96 2201.75,1422 2203.77,1422.07 2205.78,1422.15 2207.8,1422.07 2209.81,1422.01 2211.82,1421.95 2213.84,1421.95 2215.85,1422.12 2217.87,1422.07 2219.88,1422.01 2221.9,1421.92 2223.91,1422.01 2225.92,1421.91 2227.94,1421.89 2229.95,1421.8 2231.97,1421.73 2233.98,1421.71 2235.99,1421.71 2238.01,1421.65 2240.02,1421.64 2242.04,1421.58 2244.05,1421.53 2246.07,1421.43 2248.08,1421.45 2250.09,1421.53 2252.11,1421.41 2254.12,1421.37 2256.14,1421.37 2258.15,1421.4 2260.16,1421.55 2262.18,1421.44 2264.19,1421.46 2266.21,1421.45 2268.22,1421.5 2270.24,1421.45 2272.25,1421.42 2274.26,1421.4 2276.28,1421.34 2278.29,1421.4 2280.31,1421.35 2282.32,1421.5 2284.33,1421.44 2286.35,1421.46 2288.36,1421.45 2290.38,1421.42 2292.39,1421.44 "/>
<path clip-path="url(#clip360)" d="M1521.64 248.629 L2281.66 248.629 L2281.66 93.1086 L1521.64 93.1086  Z" fill="#ffffff" fill-rule="evenodd" fill-opacity="1"/>
<polyline clip-path="url(#clip360)" style="stroke:#000000; stroke-linecap:round; stroke-linejoin:round; stroke-width:4; stroke-opacity:1; fill:none" points="1521.64,248.629 2281.66,248.629 2281.66,93.1086 1521.64,93.1086 1521.64,248.629 "/>
<polyline clip-path="url(#clip360)" style="stroke:#009af9; stroke-linecap:round; stroke-linejoin:round; stroke-width:4; stroke-opacity:1; fill:none" points="1545.34,144.949 1687.53,144.949 "/>
<path clip-path="url(#clip360)" d="M1711.23 127.669 L1718.2 127.669 L1727.01 151.187 L1735.88 127.669 L1742.85 127.669 L1742.85 162.229 L1738.29 162.229 L1738.29 131.882 L1729.38 155.585 L1724.68 155.585 L1715.76 131.882 L1715.76 162.229 L1711.23 162.229 L1711.23 127.669 Z" fill="#000000" fill-rule="nonzero" fill-opacity="1" /><path clip-path="url(#clip360)" d="M1751.51 151.997 L1751.51 136.303 L1755.76 136.303 L1755.76 151.835 Q1755.76 155.516 1757.2 157.368 Q1758.63 159.196 1761.51 159.196 Q1764.95 159.196 1766.94 156.997 Q1768.96 154.798 1768.96 151.002 L1768.96 136.303 L1773.22 136.303 L1773.22 162.229 L1768.96 162.229 L1768.96 158.247 Q1767.41 160.608 1765.35 161.766 Q1763.31 162.9 1760.6 162.9 Q1756.13 162.9 1753.82 160.122 Q1751.51 157.344 1751.51 151.997 M1762.22 135.678 L1762.22 135.678 Z" fill="#000000" fill-rule="nonzero" fill-opacity="1" /><path clip-path="url(#clip360)" d="M1781.99 126.21 L1786.25 126.21 L1786.25 162.229 L1781.99 162.229 L1781.99 126.21 Z" fill="#000000" fill-rule="nonzero" fill-opacity="1" /><path clip-path="url(#clip360)" d="M1799.38 128.942 L1799.38 136.303 L1808.15 136.303 L1808.15 139.613 L1799.38 139.613 L1799.38 153.687 Q1799.38 156.858 1800.23 157.761 Q1801.11 158.664 1803.77 158.664 L1808.15 158.664 L1808.15 162.229 L1803.77 162.229 Q1798.84 162.229 1796.97 160.4 Q1795.09 158.548 1795.09 153.687 L1795.09 139.613 L1791.97 139.613 L1791.97 136.303 L1795.09 136.303 L1795.09 128.942 L1799.38 128.942 Z" fill="#000000" fill-rule="nonzero" fill-opacity="1" /><path clip-path="url(#clip360)" d="M1813.75 136.303 L1818.01 136.303 L1818.01 162.229 L1813.75 162.229 L1813.75 136.303 M1813.75 126.21 L1818.01 126.21 L1818.01 131.604 L1813.75 131.604 L1813.75 126.21 Z" fill="#000000" fill-rule="nonzero" fill-opacity="1" /><path clip-path="url(#clip360)" d="M1848.47 146.581 L1848.47 162.229 L1844.21 162.229 L1844.21 146.719 Q1844.21 143.039 1842.78 141.21 Q1841.34 139.382 1838.47 139.382 Q1835.02 139.382 1833.03 141.581 Q1831.04 143.78 1831.04 147.576 L1831.04 162.229 L1826.76 162.229 L1826.76 136.303 L1831.04 136.303 L1831.04 140.331 Q1832.57 137.993 1834.63 136.835 Q1836.71 135.678 1839.42 135.678 Q1843.89 135.678 1846.18 138.456 Q1848.47 141.21 1848.47 146.581 Z" fill="#000000" fill-rule="nonzero" fill-opacity="1" /><path clip-path="url(#clip360)" d="M1867.01 139.289 Q1863.59 139.289 1861.6 141.974 Q1859.61 144.636 1859.61 149.289 Q1859.61 153.942 1861.57 156.627 Q1863.56 159.289 1867.01 159.289 Q1870.42 159.289 1872.41 156.604 Q1874.4 153.918 1874.4 149.289 Q1874.4 144.682 1872.41 141.997 Q1870.42 139.289 1867.01 139.289 M1867.01 135.678 Q1872.57 135.678 1875.74 139.289 Q1878.91 142.9 1878.91 149.289 Q1878.91 155.655 1875.74 159.289 Q1872.57 162.9 1867.01 162.9 Q1861.44 162.9 1858.26 159.289 Q1855.12 155.655 1855.12 149.289 Q1855.12 142.9 1858.26 139.289 Q1861.44 135.678 1867.01 135.678 Z" fill="#000000" fill-rule="nonzero" fill-opacity="1" /><path clip-path="url(#clip360)" d="M1906.16 141.28 Q1907.75 138.409 1909.98 137.044 Q1912.2 135.678 1915.21 135.678 Q1919.26 135.678 1921.46 138.525 Q1923.66 141.349 1923.66 146.581 L1923.66 162.229 L1919.37 162.229 L1919.37 146.719 Q1919.37 142.993 1918.06 141.187 Q1916.74 139.382 1914.03 139.382 Q1910.72 139.382 1908.8 141.581 Q1906.87 143.78 1906.87 147.576 L1906.87 162.229 L1902.59 162.229 L1902.59 146.719 Q1902.59 142.969 1901.27 141.187 Q1899.95 139.382 1897.2 139.382 Q1893.93 139.382 1892.01 141.604 Q1890.09 143.803 1890.09 147.576 L1890.09 162.229 L1885.81 162.229 L1885.81 136.303 L1890.09 136.303 L1890.09 140.331 Q1891.55 137.946 1893.59 136.812 Q1895.62 135.678 1898.43 135.678 Q1901.25 135.678 1903.22 137.113 Q1905.21 138.548 1906.16 141.28 Z" fill="#000000" fill-rule="nonzero" fill-opacity="1" /><path clip-path="url(#clip360)" d="M1932.15 136.303 L1936.41 136.303 L1936.41 162.229 L1932.15 162.229 L1932.15 136.303 M1932.15 126.21 L1936.41 126.21 L1936.41 131.604 L1932.15 131.604 L1932.15 126.21 Z" fill="#000000" fill-rule="nonzero" fill-opacity="1" /><path clip-path="url(#clip360)" d="M1957.11 149.196 Q1951.94 149.196 1949.95 150.377 Q1947.96 151.557 1947.96 154.405 Q1947.96 156.673 1949.44 158.016 Q1950.95 159.335 1953.52 159.335 Q1957.06 159.335 1959.19 156.835 Q1961.34 154.312 1961.34 150.145 L1961.34 149.196 L1957.11 149.196 M1965.6 147.437 L1965.6 162.229 L1961.34 162.229 L1961.34 158.293 Q1959.88 160.655 1957.71 161.789 Q1955.53 162.9 1952.38 162.9 Q1948.4 162.9 1946.04 160.678 Q1943.7 158.432 1943.7 154.682 Q1943.7 150.307 1946.62 148.085 Q1949.56 145.863 1955.37 145.863 L1961.34 145.863 L1961.34 145.446 Q1961.34 142.507 1959.4 140.909 Q1957.48 139.289 1953.98 139.289 Q1951.76 139.289 1949.65 139.821 Q1947.55 140.354 1945.6 141.419 L1945.6 137.483 Q1947.94 136.581 1950.14 136.141 Q1952.34 135.678 1954.42 135.678 Q1960.05 135.678 1962.82 138.594 Q1965.6 141.511 1965.6 147.437 Z" fill="#000000" fill-rule="nonzero" fill-opacity="1" /><path clip-path="url(#clip360)" d="M1974.37 126.21 L1978.63 126.21 L1978.63 162.229 L1974.37 162.229 L1974.37 126.21 Z" fill="#000000" fill-rule="nonzero" fill-opacity="1" /><path clip-path="url(#clip360)" d="M2017.64 140.284 Q2016.92 139.868 2016.06 139.682 Q2015.23 139.474 2014.21 139.474 Q2010.6 139.474 2008.66 141.835 Q2006.74 144.173 2006.74 148.571 L2006.74 162.229 L2002.45 162.229 L2002.45 136.303 L2006.74 136.303 L2006.74 140.331 Q2008.08 137.969 2010.23 136.835 Q2012.38 135.678 2015.46 135.678 Q2015.9 135.678 2016.43 135.747 Q2016.97 135.794 2017.61 135.909 L2017.64 140.284 Z" fill="#000000" fill-rule="nonzero" fill-opacity="1" /><path clip-path="url(#clip360)" d="M2043.24 148.201 L2043.24 150.284 L2023.66 150.284 Q2023.93 154.682 2026.3 156.997 Q2028.68 159.289 2032.92 159.289 Q2035.37 159.289 2037.66 158.687 Q2039.98 158.085 2042.24 156.881 L2042.24 160.909 Q2039.95 161.881 2037.55 162.391 Q2035.14 162.9 2032.66 162.9 Q2026.46 162.9 2022.82 159.289 Q2019.21 155.678 2019.21 149.52 Q2019.21 143.155 2022.64 139.428 Q2026.09 135.678 2031.92 135.678 Q2037.15 135.678 2040.18 139.057 Q2043.24 142.414 2043.24 148.201 M2038.98 146.951 Q2038.93 143.456 2037.01 141.372 Q2035.11 139.289 2031.97 139.289 Q2028.4 139.289 2026.25 141.303 Q2024.12 143.317 2023.8 146.974 L2038.98 146.951 Z" fill="#000000" fill-rule="nonzero" fill-opacity="1" /><path clip-path="url(#clip360)" d="M2066.76 137.067 L2066.76 141.094 Q2064.95 140.169 2063.01 139.706 Q2061.06 139.243 2058.98 139.243 Q2055.81 139.243 2054.21 140.215 Q2052.64 141.187 2052.64 143.131 Q2052.64 144.613 2053.77 145.469 Q2054.91 146.303 2058.33 147.067 L2059.79 147.391 Q2064.33 148.363 2066.23 150.145 Q2068.15 151.905 2068.15 155.076 Q2068.15 158.687 2065.28 160.793 Q2062.43 162.9 2057.43 162.9 Q2055.35 162.9 2053.08 162.483 Q2050.83 162.09 2048.33 161.28 L2048.33 156.881 Q2050.69 158.108 2052.99 158.733 Q2055.28 159.335 2057.52 159.335 Q2060.53 159.335 2062.15 158.317 Q2063.77 157.275 2063.77 155.4 Q2063.77 153.664 2062.59 152.738 Q2061.43 151.812 2057.48 150.956 L2055.99 150.608 Q2052.04 149.775 2050.28 148.062 Q2048.52 146.326 2048.52 143.317 Q2048.52 139.659 2051.11 137.669 Q2053.7 135.678 2058.47 135.678 Q2060.83 135.678 2062.92 136.025 Q2065 136.372 2066.76 137.067 Z" fill="#000000" fill-rule="nonzero" fill-opacity="1" /><path clip-path="url(#clip360)" d="M2086.71 149.196 Q2081.55 149.196 2079.56 150.377 Q2077.57 151.557 2077.57 154.405 Q2077.57 156.673 2079.05 158.016 Q2080.55 159.335 2083.12 159.335 Q2086.67 159.335 2088.8 156.835 Q2090.95 154.312 2090.95 150.145 L2090.95 149.196 L2086.71 149.196 M2095.21 147.437 L2095.21 162.229 L2090.95 162.229 L2090.95 158.293 Q2089.49 160.655 2087.31 161.789 Q2085.14 162.9 2081.99 162.9 Q2078.01 162.9 2075.65 160.678 Q2073.31 158.432 2073.31 154.682 Q2073.31 150.307 2076.23 148.085 Q2079.17 145.863 2084.98 145.863 L2090.95 145.863 L2090.95 145.446 Q2090.95 142.507 2089 140.909 Q2087.08 139.289 2083.59 139.289 Q2081.36 139.289 2079.26 139.821 Q2077.15 140.354 2075.21 141.419 L2075.21 137.483 Q2077.55 136.581 2079.74 136.141 Q2081.94 135.678 2084.03 135.678 Q2089.65 135.678 2092.43 138.594 Q2095.21 141.511 2095.21 147.437 Z" fill="#000000" fill-rule="nonzero" fill-opacity="1" /><path clip-path="url(#clip360)" d="M2124.17 141.28 Q2125.76 138.409 2127.98 137.044 Q2130.21 135.678 2133.22 135.678 Q2137.27 135.678 2139.47 138.525 Q2141.67 141.349 2141.67 146.581 L2141.67 162.229 L2137.38 162.229 L2137.38 146.719 Q2137.38 142.993 2136.06 141.187 Q2134.74 139.382 2132.04 139.382 Q2128.73 139.382 2126.8 141.581 Q2124.88 143.78 2124.88 147.576 L2124.88 162.229 L2120.6 162.229 L2120.6 146.719 Q2120.6 142.969 2119.28 141.187 Q2117.96 139.382 2115.21 139.382 Q2111.94 139.382 2110.02 141.604 Q2108.1 143.803 2108.1 147.576 L2108.1 162.229 L2103.82 162.229 L2103.82 136.303 L2108.1 136.303 L2108.1 140.331 Q2109.56 137.946 2111.6 136.812 Q2113.63 135.678 2116.43 135.678 Q2119.26 135.678 2121.23 137.113 Q2123.22 138.548 2124.17 141.28 Z" fill="#000000" fill-rule="nonzero" fill-opacity="1" /><path clip-path="url(#clip360)" d="M2154.28 158.34 L2154.28 172.09 L2150 172.09 L2150 136.303 L2154.28 136.303 L2154.28 140.238 Q2155.62 137.923 2157.66 136.812 Q2159.72 135.678 2162.57 135.678 Q2167.29 135.678 2170.23 139.428 Q2173.19 143.178 2173.19 149.289 Q2173.19 155.4 2170.23 159.15 Q2167.29 162.9 2162.57 162.9 Q2159.72 162.9 2157.66 161.789 Q2155.62 160.655 2154.28 158.34 M2168.77 149.289 Q2168.77 144.59 2166.83 141.928 Q2164.91 139.243 2161.53 139.243 Q2158.15 139.243 2156.2 141.928 Q2154.28 144.59 2154.28 149.289 Q2154.28 153.988 2156.2 156.673 Q2158.15 159.335 2161.53 159.335 Q2164.91 159.335 2166.83 156.673 Q2168.77 153.988 2168.77 149.289 Z" fill="#000000" fill-rule="nonzero" fill-opacity="1" /><path clip-path="url(#clip360)" d="M2180.25 126.21 L2184.51 126.21 L2184.51 162.229 L2180.25 162.229 L2180.25 126.21 Z" fill="#000000" fill-rule="nonzero" fill-opacity="1" /><path clip-path="url(#clip360)" d="M2193.42 136.303 L2197.68 136.303 L2197.68 162.229 L2193.42 162.229 L2193.42 136.303 M2193.42 126.21 L2197.68 126.21 L2197.68 131.604 L2193.42 131.604 L2193.42 126.21 Z" fill="#000000" fill-rule="nonzero" fill-opacity="1" /><path clip-path="url(#clip360)" d="M2228.15 146.581 L2228.15 162.229 L2223.89 162.229 L2223.89 146.719 Q2223.89 143.039 2222.45 141.21 Q2221.02 139.382 2218.15 139.382 Q2214.7 139.382 2212.71 141.581 Q2210.72 143.78 2210.72 147.576 L2210.72 162.229 L2206.43 162.229 L2206.43 136.303 L2210.72 136.303 L2210.72 140.331 Q2212.24 137.993 2214.3 136.835 Q2216.39 135.678 2219.1 135.678 Q2223.56 135.678 2225.85 138.456 Q2228.15 141.21 2228.15 146.581 Z" fill="#000000" fill-rule="nonzero" fill-opacity="1" /><path clip-path="url(#clip360)" d="M2253.7 148.965 Q2253.7 144.335 2251.78 141.789 Q2249.88 139.243 2246.43 139.243 Q2243.01 139.243 2241.09 141.789 Q2239.19 144.335 2239.19 148.965 Q2239.19 153.571 2241.09 156.118 Q2243.01 158.664 2246.43 158.664 Q2249.88 158.664 2251.78 156.118 Q2253.7 153.571 2253.7 148.965 M2257.96 159.011 Q2257.96 165.631 2255.02 168.849 Q2252.08 172.09 2246.02 172.09 Q2243.77 172.09 2241.78 171.742 Q2239.79 171.418 2237.91 170.724 L2237.91 166.58 Q2239.79 167.599 2241.62 168.085 Q2243.45 168.571 2245.35 168.571 Q2249.53 168.571 2251.62 166.372 Q2253.7 164.196 2253.7 159.775 L2253.7 157.668 Q2252.38 159.96 2250.32 161.094 Q2248.26 162.229 2245.39 162.229 Q2240.62 162.229 2237.71 158.594 Q2234.79 154.96 2234.79 148.965 Q2234.79 142.946 2237.71 139.312 Q2240.62 135.678 2245.39 135.678 Q2248.26 135.678 2250.32 136.812 Q2252.38 137.946 2253.7 140.238 L2253.7 136.303 L2257.96 136.303 L2257.96 159.011 Z" fill="#000000" fill-rule="nonzero" fill-opacity="1" /><polyline clip-path="url(#clip360)" style="stroke:#e26f46; stroke-linecap:round; stroke-linejoin:round; stroke-width:4; stroke-opacity:1; fill:none" points="1545.34,196.789 1687.53,196.789 "/>
<path clip-path="url(#clip360)" d="M1733.47 180.643 L1733.47 185.203 Q1730.81 183.93 1728.45 183.305 Q1726.09 182.68 1723.89 182.68 Q1720.07 182.68 1717.99 184.161 Q1715.93 185.643 1715.93 188.374 Q1715.93 190.666 1717.29 191.847 Q1718.68 193.004 1722.52 193.722 L1725.35 194.3 Q1730.58 195.296 1733.06 197.819 Q1735.56 200.319 1735.56 204.532 Q1735.56 209.555 1732.18 212.147 Q1728.82 214.74 1722.32 214.74 Q1719.86 214.74 1717.08 214.184 Q1714.33 213.629 1711.37 212.541 L1711.37 207.726 Q1714.21 209.323 1716.95 210.133 Q1719.68 210.944 1722.32 210.944 Q1726.32 210.944 1728.5 209.37 Q1730.67 207.796 1730.67 204.879 Q1730.67 202.333 1729.1 200.897 Q1727.55 199.462 1723.98 198.745 L1721.13 198.189 Q1715.9 197.147 1713.57 194.925 Q1711.23 192.703 1711.23 188.745 Q1711.23 184.161 1714.45 181.522 Q1717.69 178.884 1723.36 178.884 Q1725.79 178.884 1728.31 179.323 Q1730.83 179.763 1733.47 180.643 Z" fill="#000000" fill-rule="nonzero" fill-opacity="1" /><path clip-path="url(#clip360)" d="M1746.88 180.782 L1746.88 188.143 L1755.65 188.143 L1755.65 191.453 L1746.88 191.453 L1746.88 205.527 Q1746.88 208.698 1747.73 209.601 Q1748.61 210.504 1751.27 210.504 L1755.65 210.504 L1755.65 214.069 L1751.27 214.069 Q1746.34 214.069 1744.47 212.24 Q1742.59 210.388 1742.59 205.527 L1742.59 191.453 L1739.47 191.453 L1739.47 188.143 L1742.59 188.143 L1742.59 180.782 L1746.88 180.782 Z" fill="#000000" fill-rule="nonzero" fill-opacity="1" /><path clip-path="url(#clip360)" d="M1776.27 192.124 Q1775.56 191.708 1774.7 191.522 Q1773.87 191.314 1772.85 191.314 Q1769.24 191.314 1767.29 193.675 Q1765.37 196.013 1765.37 200.411 L1765.37 214.069 L1761.09 214.069 L1761.09 188.143 L1765.37 188.143 L1765.37 192.171 Q1766.71 189.809 1768.87 188.675 Q1771.02 187.518 1774.1 187.518 Q1774.54 187.518 1775.07 187.587 Q1775.6 187.634 1776.25 187.749 L1776.27 192.124 Z" fill="#000000" fill-rule="nonzero" fill-opacity="1" /><path clip-path="url(#clip360)" d="M1792.52 201.036 Q1787.36 201.036 1785.37 202.217 Q1783.38 203.397 1783.38 206.245 Q1783.38 208.513 1784.86 209.856 Q1786.37 211.175 1788.94 211.175 Q1792.48 211.175 1794.61 208.675 Q1796.76 206.152 1796.76 201.985 L1796.76 201.036 L1792.52 201.036 M1801.02 199.277 L1801.02 214.069 L1796.76 214.069 L1796.76 210.133 Q1795.3 212.495 1793.13 213.629 Q1790.95 214.74 1787.8 214.74 Q1783.82 214.74 1781.46 212.518 Q1779.12 210.272 1779.12 206.522 Q1779.12 202.147 1782.04 199.925 Q1784.98 197.703 1790.79 197.703 L1796.76 197.703 L1796.76 197.286 Q1796.76 194.347 1794.82 192.749 Q1792.89 191.129 1789.4 191.129 Q1787.18 191.129 1785.07 191.661 Q1782.96 192.194 1781.02 193.259 L1781.02 189.323 Q1783.36 188.421 1785.56 187.981 Q1787.75 187.518 1789.84 187.518 Q1795.46 187.518 1798.24 190.434 Q1801.02 193.351 1801.02 199.277 Z" fill="#000000" fill-rule="nonzero" fill-opacity="1" /><path clip-path="url(#clip360)" d="M1814 180.782 L1814 188.143 L1822.78 188.143 L1822.78 191.453 L1814 191.453 L1814 205.527 Q1814 208.698 1814.86 209.601 Q1815.74 210.504 1818.4 210.504 L1822.78 210.504 L1822.78 214.069 L1818.4 214.069 Q1813.47 214.069 1811.6 212.24 Q1809.72 210.388 1809.72 205.527 L1809.72 191.453 L1806.6 191.453 L1806.6 188.143 L1809.72 188.143 L1809.72 180.782 L1814 180.782 Z" fill="#000000" fill-rule="nonzero" fill-opacity="1" /><path clip-path="url(#clip360)" d="M1828.38 188.143 L1832.64 188.143 L1832.64 214.069 L1828.38 214.069 L1828.38 188.143 M1828.38 178.05 L1832.64 178.05 L1832.64 183.444 L1828.38 183.444 L1828.38 178.05 Z" fill="#000000" fill-rule="nonzero" fill-opacity="1" /><path clip-path="url(#clip360)" d="M1854.68 178.05 L1854.68 181.592 L1850.6 181.592 Q1848.31 181.592 1847.41 182.518 Q1846.53 183.444 1846.53 185.851 L1846.53 188.143 L1853.54 188.143 L1853.54 191.453 L1846.53 191.453 L1846.53 214.069 L1842.25 214.069 L1842.25 191.453 L1838.17 191.453 L1838.17 188.143 L1842.25 188.143 L1842.25 186.337 Q1842.25 182.009 1844.26 180.041 Q1846.27 178.05 1850.65 178.05 L1854.68 178.05 Z" fill="#000000" fill-rule="nonzero" fill-opacity="1" /><path clip-path="url(#clip360)" d="M1858.24 188.143 L1862.5 188.143 L1862.5 214.069 L1858.24 214.069 L1858.24 188.143 M1858.24 178.05 L1862.5 178.05 L1862.5 183.444 L1858.24 183.444 L1858.24 178.05 Z" fill="#000000" fill-rule="nonzero" fill-opacity="1" /><path clip-path="url(#clip360)" d="M1893.59 200.041 L1893.59 202.124 L1874 202.124 Q1874.28 206.522 1876.64 208.837 Q1879.03 211.129 1883.26 211.129 Q1885.72 211.129 1888.01 210.527 Q1890.32 209.925 1892.59 208.721 L1892.59 212.749 Q1890.3 213.721 1887.89 214.231 Q1885.49 214.74 1883.01 214.74 Q1876.81 214.74 1873.17 211.129 Q1869.56 207.518 1869.56 201.36 Q1869.56 194.995 1872.99 191.268 Q1876.44 187.518 1882.27 187.518 Q1887.5 187.518 1890.53 190.897 Q1893.59 194.254 1893.59 200.041 M1889.33 198.791 Q1889.28 195.296 1887.36 193.212 Q1885.46 191.129 1882.31 191.129 Q1878.75 191.129 1876.6 193.143 Q1874.47 195.157 1874.14 198.814 L1889.33 198.791 Z" fill="#000000" fill-rule="nonzero" fill-opacity="1" /><path clip-path="url(#clip360)" d="M1917.64 192.078 L1917.64 178.05 L1921.9 178.05 L1921.9 214.069 L1917.64 214.069 L1917.64 210.18 Q1916.3 212.495 1914.24 213.629 Q1912.2 214.74 1909.33 214.74 Q1904.63 214.74 1901.67 210.99 Q1898.73 207.24 1898.73 201.129 Q1898.73 195.018 1901.67 191.268 Q1904.63 187.518 1909.33 187.518 Q1912.2 187.518 1914.24 188.652 Q1916.3 189.763 1917.64 192.078 M1903.12 201.129 Q1903.12 205.828 1905.05 208.513 Q1906.99 211.175 1910.37 211.175 Q1913.75 211.175 1915.69 208.513 Q1917.64 205.828 1917.64 201.129 Q1917.64 196.43 1915.69 193.768 Q1913.75 191.083 1910.37 191.083 Q1906.99 191.083 1905.05 193.768 Q1903.12 196.43 1903.12 201.129 Z" fill="#000000" fill-rule="nonzero" fill-opacity="1" /><path clip-path="url(#clip360)" d="M1960.76 192.124 Q1960.05 191.708 1959.19 191.522 Q1958.36 191.314 1957.34 191.314 Q1953.73 191.314 1951.78 193.675 Q1949.86 196.013 1949.86 200.411 L1949.86 214.069 L1945.58 214.069 L1945.58 188.143 L1949.86 188.143 L1949.86 192.171 Q1951.2 189.809 1953.36 188.675 Q1955.51 187.518 1958.59 187.518 Q1959.03 187.518 1959.56 187.587 Q1960.09 187.634 1960.74 187.749 L1960.76 192.124 Z" fill="#000000" fill-rule="nonzero" fill-opacity="1" /><path clip-path="url(#clip360)" d="M1986.37 200.041 L1986.37 202.124 L1966.78 202.124 Q1967.06 206.522 1969.42 208.837 Q1971.8 211.129 1976.04 211.129 Q1978.49 211.129 1980.79 210.527 Q1983.1 209.925 1985.37 208.721 L1985.37 212.749 Q1983.08 213.721 1980.67 214.231 Q1978.26 214.74 1975.79 214.74 Q1969.58 214.74 1965.95 211.129 Q1962.34 207.518 1962.34 201.36 Q1962.34 194.995 1965.76 191.268 Q1969.21 187.518 1975.05 187.518 Q1980.28 187.518 1983.31 190.897 Q1986.37 194.254 1986.37 200.041 M1982.11 198.791 Q1982.06 195.296 1980.14 193.212 Q1978.24 191.129 1975.09 191.129 Q1971.53 191.129 1969.37 193.143 Q1967.24 195.157 1966.92 198.814 L1982.11 198.791 Z" fill="#000000" fill-rule="nonzero" fill-opacity="1" /><path clip-path="url(#clip360)" d="M2009.88 188.907 L2009.88 192.934 Q2008.08 192.009 2006.13 191.546 Q2004.19 191.083 2002.11 191.083 Q1998.93 191.083 1997.34 192.055 Q1995.76 193.027 1995.76 194.971 Q1995.76 196.453 1996.9 197.309 Q1998.03 198.143 2001.46 198.907 L2002.92 199.231 Q2007.45 200.203 2009.35 201.985 Q2011.27 203.745 2011.27 206.916 Q2011.27 210.527 2008.4 212.633 Q2005.55 214.74 2000.55 214.74 Q1998.47 214.74 1996.2 214.323 Q1993.96 213.93 1991.46 213.12 L1991.46 208.721 Q1993.82 209.948 1996.11 210.573 Q1998.4 211.175 2000.65 211.175 Q2003.66 211.175 2005.28 210.157 Q2006.9 209.115 2006.9 207.24 Q2006.9 205.504 2005.72 204.578 Q2004.56 203.652 2000.6 202.796 L1999.12 202.448 Q1995.16 201.615 1993.4 199.902 Q1991.64 198.166 1991.64 195.157 Q1991.64 191.499 1994.24 189.509 Q1996.83 187.518 2001.6 187.518 Q2003.96 187.518 2006.04 187.865 Q2008.12 188.212 2009.88 188.907 Z" fill="#000000" fill-rule="nonzero" fill-opacity="1" /><path clip-path="url(#clip360)" d="M2029.84 201.036 Q2024.68 201.036 2022.68 202.217 Q2020.69 203.397 2020.69 206.245 Q2020.69 208.513 2022.18 209.856 Q2023.68 211.175 2026.25 211.175 Q2029.79 211.175 2031.92 208.675 Q2034.07 206.152 2034.07 201.985 L2034.07 201.036 L2029.84 201.036 M2038.33 199.277 L2038.33 214.069 L2034.07 214.069 L2034.07 210.133 Q2032.61 212.495 2030.44 213.629 Q2028.26 214.74 2025.11 214.74 Q2021.13 214.74 2018.77 212.518 Q2016.43 210.272 2016.43 206.522 Q2016.43 202.147 2019.35 199.925 Q2022.29 197.703 2028.1 197.703 L2034.07 197.703 L2034.07 197.286 Q2034.07 194.347 2032.13 192.749 Q2030.21 191.129 2026.71 191.129 Q2024.49 191.129 2022.38 191.661 Q2020.28 192.194 2018.33 193.259 L2018.33 189.323 Q2020.67 188.421 2022.87 187.981 Q2025.07 187.518 2027.15 187.518 Q2032.78 187.518 2035.55 190.434 Q2038.33 193.351 2038.33 199.277 Z" fill="#000000" fill-rule="nonzero" fill-opacity="1" /><path clip-path="url(#clip360)" d="M2067.29 193.12 Q2068.89 190.249 2071.11 188.884 Q2073.33 187.518 2076.34 187.518 Q2080.39 187.518 2082.59 190.365 Q2084.79 193.189 2084.79 198.421 L2084.79 214.069 L2080.51 214.069 L2080.51 198.559 Q2080.51 194.833 2079.19 193.027 Q2077.87 191.222 2075.16 191.222 Q2071.85 191.222 2069.93 193.421 Q2068.01 195.62 2068.01 199.416 L2068.01 214.069 L2063.73 214.069 L2063.73 198.559 Q2063.73 194.809 2062.41 193.027 Q2061.09 191.222 2058.33 191.222 Q2055.07 191.222 2053.15 193.444 Q2051.23 195.643 2051.23 199.416 L2051.23 214.069 L2046.94 214.069 L2046.94 188.143 L2051.23 188.143 L2051.23 192.171 Q2052.68 189.786 2054.72 188.652 Q2056.76 187.518 2059.56 187.518 Q2062.38 187.518 2064.35 188.953 Q2066.34 190.388 2067.29 193.12 Z" fill="#000000" fill-rule="nonzero" fill-opacity="1" /><path clip-path="url(#clip360)" d="M2097.41 210.18 L2097.41 223.93 L2093.12 223.93 L2093.12 188.143 L2097.41 188.143 L2097.41 192.078 Q2098.75 189.763 2100.79 188.652 Q2102.85 187.518 2105.69 187.518 Q2110.42 187.518 2113.36 191.268 Q2116.32 195.018 2116.32 201.129 Q2116.32 207.24 2113.36 210.99 Q2110.42 214.74 2105.69 214.74 Q2102.85 214.74 2100.79 213.629 Q2098.75 212.495 2097.41 210.18 M2111.9 201.129 Q2111.9 196.43 2109.95 193.768 Q2108.03 191.083 2104.65 191.083 Q2101.27 191.083 2099.33 193.768 Q2097.41 196.43 2097.41 201.129 Q2097.41 205.828 2099.33 208.513 Q2101.27 211.175 2104.65 211.175 Q2108.03 211.175 2109.95 208.513 Q2111.9 205.828 2111.9 201.129 Z" fill="#000000" fill-rule="nonzero" fill-opacity="1" /><path clip-path="url(#clip360)" d="M2123.38 178.05 L2127.64 178.05 L2127.64 214.069 L2123.38 214.069 L2123.38 178.05 Z" fill="#000000" fill-rule="nonzero" fill-opacity="1" /><path clip-path="url(#clip360)" d="M2136.55 188.143 L2140.81 188.143 L2140.81 214.069 L2136.55 214.069 L2136.55 188.143 M2136.55 178.05 L2140.81 178.05 L2140.81 183.444 L2136.55 183.444 L2136.55 178.05 Z" fill="#000000" fill-rule="nonzero" fill-opacity="1" /><path clip-path="url(#clip360)" d="M2171.27 198.421 L2171.27 214.069 L2167.01 214.069 L2167.01 198.559 Q2167.01 194.879 2165.58 193.05 Q2164.14 191.222 2161.27 191.222 Q2157.82 191.222 2155.83 193.421 Q2153.84 195.62 2153.84 199.416 L2153.84 214.069 L2149.56 214.069 L2149.56 188.143 L2153.84 188.143 L2153.84 192.171 Q2155.37 189.833 2157.43 188.675 Q2159.51 187.518 2162.22 187.518 Q2166.69 187.518 2168.98 190.296 Q2171.27 193.05 2171.27 198.421 Z" fill="#000000" fill-rule="nonzero" fill-opacity="1" /><path clip-path="url(#clip360)" d="M2196.83 200.805 Q2196.83 196.175 2194.91 193.629 Q2193.01 191.083 2189.56 191.083 Q2186.13 191.083 2184.21 193.629 Q2182.31 196.175 2182.31 200.805 Q2182.31 205.411 2184.21 207.958 Q2186.13 210.504 2189.56 210.504 Q2193.01 210.504 2194.91 207.958 Q2196.83 205.411 2196.83 200.805 M2201.09 210.851 Q2201.09 217.471 2198.15 220.689 Q2195.21 223.93 2189.14 223.93 Q2186.9 223.93 2184.91 223.582 Q2182.91 223.258 2181.04 222.564 L2181.04 218.42 Q2182.91 219.439 2184.74 219.925 Q2186.57 220.411 2188.47 220.411 Q2192.66 220.411 2194.74 218.212 Q2196.83 216.036 2196.83 211.615 L2196.83 209.508 Q2195.51 211.8 2193.45 212.934 Q2191.39 214.069 2188.52 214.069 Q2183.75 214.069 2180.83 210.434 Q2177.91 206.8 2177.91 200.805 Q2177.91 194.786 2180.83 191.152 Q2183.75 187.518 2188.52 187.518 Q2191.39 187.518 2193.45 188.652 Q2195.51 189.786 2196.83 192.078 L2196.83 188.143 L2201.09 188.143 L2201.09 210.851 Z" fill="#000000" fill-rule="nonzero" fill-opacity="1" /></svg>
