<?xml version="1.0" encoding="utf-8"?>
<svg xmlns="http://www.w3.org/2000/svg" xmlns:xlink="http://www.w3.org/1999/xlink" width="600" height="400" viewBox="0 0 2400 1600">
<defs>
  <clipPath id="clip660">
    <rect x="0" y="0" width="2400" height="1600"/>
  </clipPath>
</defs>
<path clip-path="url(#clip660)" d="M0 1600 L2400 1600 L2400 0 L0 0  Z" fill="#ffffff" fill-rule="evenodd" fill-opacity="1"/>
<defs>
  <clipPath id="clip661">
    <rect x="480" y="0" width="1681" height="1600"/>
  </clipPath>
</defs>
<path clip-path="url(#clip660)" d="M219.866 1423.18 L2352.76 1423.18 L2352.76 47.2441 L219.866 47.2441  Z" fill="#ffffff" fill-rule="evenodd" fill-opacity="1"/>
<defs>
  <clipPath id="clip662">
    <rect x="219" y="47" width="2134" height="1377"/>
  </clipPath>
</defs>
<polyline clip-path="url(#clip662)" style="stroke:#000000; stroke-linecap:round; stroke-linejoin:round; stroke-width:2; stroke-opacity:0.1; fill:none" points="278.217,1423.18 278.217,47.2441 "/>
<polyline clip-path="url(#clip662)" style="stroke:#000000; stroke-linecap:round; stroke-linejoin:round; stroke-width:2; stroke-opacity:0.1; fill:none" points="781.76,1423.18 781.76,47.2441 "/>
<polyline clip-path="url(#clip662)" style="stroke:#000000; stroke-linecap:round; stroke-linejoin:round; stroke-width:2; stroke-opacity:0.1; fill:none" points="1285.3,1423.18 1285.3,47.2441 "/>
<polyline clip-path="url(#clip662)" style="stroke:#000000; stroke-linecap:round; stroke-linejoin:round; stroke-width:2; stroke-opacity:0.1; fill:none" points="1788.85,1423.18 1788.85,47.2441 "/>
<polyline clip-path="url(#clip662)" style="stroke:#000000; stroke-linecap:round; stroke-linejoin:round; stroke-width:2; stroke-opacity:0.1; fill:none" points="2292.39,1423.18 2292.39,47.2441 "/>
<polyline clip-path="url(#clip660)" style="stroke:#000000; stroke-linecap:round; stroke-linejoin:round; stroke-width:4; stroke-opacity:1; fill:none" points="219.866,1423.18 2352.76,1423.18 "/>
<polyline clip-path="url(#clip660)" style="stroke:#000000; stroke-linecap:round; stroke-linejoin:round; stroke-width:4; stroke-opacity:1; fill:none" points="278.217,1423.18 278.217,1404.28 "/>
<polyline clip-path="url(#clip660)" style="stroke:#000000; stroke-linecap:round; stroke-linejoin:round; stroke-width:4; stroke-opacity:1; fill:none" points="781.76,1423.18 781.76,1404.28 "/>
<polyline clip-path="url(#clip660)" style="stroke:#000000; stroke-linecap:round; stroke-linejoin:round; stroke-width:4; stroke-opacity:1; fill:none" points="1285.3,1423.18 1285.3,1404.28 "/>
<polyline clip-path="url(#clip660)" style="stroke:#000000; stroke-linecap:round; stroke-linejoin:round; stroke-width:4; stroke-opacity:1; fill:none" points="1788.85,1423.18 1788.85,1404.28 "/>
<polyline clip-path="url(#clip660)" style="stroke:#000000; stroke-linecap:round; stroke-linejoin:round; stroke-width:4; stroke-opacity:1; fill:none" points="2292.39,1423.18 2292.39,1404.28 "/>
<path clip-path="url(#clip660)" d="M278.217 1454.1 Q274.606 1454.1 272.777 1457.66 Q270.972 1461.2 270.972 1468.33 Q270.972 1475.44 272.777 1479.01 Q274.606 1482.55 278.217 1482.55 Q281.851 1482.55 283.657 1479.01 Q285.485 1475.44 285.485 1468.33 Q285.485 1461.2 283.657 1457.66 Q281.851 1454.1 278.217 1454.1 M278.217 1450.39 Q284.027 1450.39 287.083 1455 Q290.161 1459.58 290.161 1468.33 Q290.161 1477.06 287.083 1481.67 Q284.027 1486.25 278.217 1486.25 Q272.407 1486.25 269.328 1481.67 Q266.273 1477.06 266.273 1468.33 Q266.273 1459.58 269.328 1455 Q272.407 1450.39 278.217 1450.39 Z" fill="#000000" fill-rule="nonzero" fill-opacity="1" /><path clip-path="url(#clip660)" d="M745.453 1481.64 L761.772 1481.64 L761.772 1485.58 L739.828 1485.58 L739.828 1481.64 Q742.49 1478.89 747.073 1474.26 Q751.68 1469.61 752.86 1468.27 Q755.105 1465.74 755.985 1464.01 Q756.888 1462.25 756.888 1460.56 Q756.888 1457.8 754.943 1456.07 Q753.022 1454.33 749.92 1454.33 Q747.721 1454.33 745.268 1455.09 Q742.837 1455.86 740.059 1457.41 L740.059 1452.69 Q742.883 1451.55 745.337 1450.97 Q747.791 1450.39 749.828 1450.39 Q755.198 1450.39 758.393 1453.08 Q761.587 1455.77 761.587 1460.26 Q761.587 1462.39 760.777 1464.31 Q759.99 1466.2 757.883 1468.8 Q757.305 1469.47 754.203 1472.69 Q751.101 1475.88 745.453 1481.64 Z" fill="#000000" fill-rule="nonzero" fill-opacity="1" /><path clip-path="url(#clip660)" d="M771.633 1451.02 L789.99 1451.02 L789.99 1454.96 L775.916 1454.96 L775.916 1463.43 Q776.934 1463.08 777.953 1462.92 Q778.971 1462.73 779.99 1462.73 Q785.777 1462.73 789.156 1465.9 Q792.536 1469.08 792.536 1474.49 Q792.536 1480.07 789.064 1483.17 Q785.591 1486.25 779.272 1486.25 Q777.096 1486.25 774.828 1485.88 Q772.582 1485.51 770.175 1484.77 L770.175 1480.07 Q772.258 1481.2 774.48 1481.76 Q776.703 1482.32 779.179 1482.32 Q783.184 1482.32 785.522 1480.21 Q787.86 1478.1 787.86 1474.49 Q787.86 1470.88 785.522 1468.77 Q783.184 1466.67 779.179 1466.67 Q777.304 1466.67 775.429 1467.08 Q773.578 1467.5 771.633 1468.38 L771.633 1451.02 Z" fill="#000000" fill-rule="nonzero" fill-opacity="1" /><path clip-path="url(#clip660)" d="M811.749 1454.1 Q808.138 1454.1 806.309 1457.66 Q804.503 1461.2 804.503 1468.33 Q804.503 1475.44 806.309 1479.01 Q808.138 1482.55 811.749 1482.55 Q815.383 1482.55 817.188 1479.01 Q819.017 1475.44 819.017 1468.33 Q819.017 1461.2 817.188 1457.66 Q815.383 1454.1 811.749 1454.1 M811.749 1450.39 Q817.559 1450.39 820.614 1455 Q823.693 1459.58 823.693 1468.33 Q823.693 1477.06 820.614 1481.67 Q817.559 1486.25 811.749 1486.25 Q805.939 1486.25 802.86 1481.67 Q799.804 1477.06 799.804 1468.33 Q799.804 1459.58 802.86 1455 Q805.939 1450.39 811.749 1450.39 Z" fill="#000000" fill-rule="nonzero" fill-opacity="1" /><path clip-path="url(#clip660)" d="M1244.92 1451.02 L1263.28 1451.02 L1263.28 1454.96 L1249.2 1454.96 L1249.2 1463.43 Q1250.22 1463.08 1251.24 1462.92 Q1252.26 1462.73 1253.28 1462.73 Q1259.07 1462.73 1262.45 1465.9 Q1265.82 1469.08 1265.82 1474.49 Q1265.82 1480.07 1262.35 1483.17 Q1258.88 1486.25 1252.56 1486.25 Q1250.39 1486.25 1248.12 1485.88 Q1245.87 1485.51 1243.46 1484.77 L1243.46 1480.07 Q1245.55 1481.2 1247.77 1481.76 Q1249.99 1482.32 1252.47 1482.32 Q1256.47 1482.32 1258.81 1480.21 Q1261.15 1478.1 1261.15 1474.49 Q1261.15 1470.88 1258.81 1468.77 Q1256.47 1466.67 1252.47 1466.67 Q1250.59 1466.67 1248.72 1467.08 Q1246.87 1467.5 1244.92 1468.38 L1244.92 1451.02 Z" fill="#000000" fill-rule="nonzero" fill-opacity="1" /><path clip-path="url(#clip660)" d="M1285.04 1454.1 Q1281.43 1454.1 1279.6 1457.66 Q1277.79 1461.2 1277.79 1468.33 Q1277.79 1475.44 1279.6 1479.01 Q1281.43 1482.55 1285.04 1482.55 Q1288.67 1482.55 1290.48 1479.01 Q1292.31 1475.44 1292.31 1468.33 Q1292.31 1461.2 1290.48 1457.66 Q1288.67 1454.1 1285.04 1454.1 M1285.04 1450.39 Q1290.85 1450.39 1293.9 1455 Q1296.98 1459.58 1296.98 1468.33 Q1296.98 1477.06 1293.9 1481.67 Q1290.85 1486.25 1285.04 1486.25 Q1279.23 1486.25 1276.15 1481.67 Q1273.09 1477.06 1273.09 1468.33 Q1273.09 1459.58 1276.15 1455 Q1279.23 1450.39 1285.04 1450.39 Z" fill="#000000" fill-rule="nonzero" fill-opacity="1" /><path clip-path="url(#clip660)" d="M1315.2 1454.1 Q1311.59 1454.1 1309.76 1457.66 Q1307.95 1461.2 1307.95 1468.33 Q1307.95 1475.44 1309.76 1479.01 Q1311.59 1482.55 1315.2 1482.55 Q1318.83 1482.55 1320.64 1479.01 Q1322.47 1475.44 1322.47 1468.33 Q1322.47 1461.2 1320.64 1457.66 Q1318.83 1454.1 1315.2 1454.1 M1315.2 1450.39 Q1321.01 1450.39 1324.07 1455 Q1327.14 1459.58 1327.14 1468.33 Q1327.14 1477.06 1324.07 1481.67 Q1321.01 1486.25 1315.2 1486.25 Q1309.39 1486.25 1306.31 1481.67 Q1303.26 1477.06 1303.26 1468.33 Q1303.26 1459.58 1306.31 1455 Q1309.39 1450.39 1315.2 1450.39 Z" fill="#000000" fill-rule="nonzero" fill-opacity="1" /><path clip-path="url(#clip660)" d="M1747.12 1451.02 L1769.35 1451.02 L1769.35 1453.01 L1756.8 1485.58 L1751.91 1485.58 L1763.72 1454.96 L1747.12 1454.96 L1747.12 1451.02 Z" fill="#000000" fill-rule="nonzero" fill-opacity="1" /><path clip-path="url(#clip660)" d="M1778.51 1451.02 L1796.87 1451.02 L1796.87 1454.96 L1782.79 1454.96 L1782.79 1463.43 Q1783.81 1463.08 1784.83 1462.92 Q1785.85 1462.73 1786.87 1462.73 Q1792.66 1462.73 1796.04 1465.9 Q1799.41 1469.08 1799.41 1474.49 Q1799.41 1480.07 1795.94 1483.17 Q1792.47 1486.25 1786.15 1486.25 Q1783.97 1486.25 1781.71 1485.88 Q1779.46 1485.51 1777.05 1484.77 L1777.05 1480.07 Q1779.14 1481.2 1781.36 1481.76 Q1783.58 1482.32 1786.06 1482.32 Q1790.06 1482.32 1792.4 1480.21 Q1794.74 1478.1 1794.74 1474.49 Q1794.74 1470.88 1792.4 1468.77 Q1790.06 1466.67 1786.06 1466.67 Q1784.18 1466.67 1782.31 1467.08 Q1780.46 1467.5 1778.51 1468.38 L1778.51 1451.02 Z" fill="#000000" fill-rule="nonzero" fill-opacity="1" /><path clip-path="url(#clip660)" d="M1818.63 1454.1 Q1815.02 1454.1 1813.19 1457.66 Q1811.38 1461.2 1811.38 1468.33 Q1811.38 1475.44 1813.19 1479.01 Q1815.02 1482.55 1818.63 1482.55 Q1822.26 1482.55 1824.07 1479.01 Q1825.9 1475.44 1825.9 1468.33 Q1825.9 1461.2 1824.07 1457.66 Q1822.26 1454.1 1818.63 1454.1 M1818.63 1450.39 Q1824.44 1450.39 1827.49 1455 Q1830.57 1459.58 1830.57 1468.33 Q1830.57 1477.06 1827.49 1481.67 Q1824.44 1486.25 1818.63 1486.25 Q1812.82 1486.25 1809.74 1481.67 Q1806.68 1477.06 1806.68 1468.33 Q1806.68 1459.58 1809.74 1455 Q1812.82 1450.39 1818.63 1450.39 Z" fill="#000000" fill-rule="nonzero" fill-opacity="1" /><path clip-path="url(#clip660)" d="M2236.92 1481.64 L2244.56 1481.64 L2244.56 1455.28 L2236.25 1456.95 L2236.25 1452.69 L2244.51 1451.02 L2249.19 1451.02 L2249.19 1481.64 L2256.82 1481.64 L2256.82 1485.58 L2236.92 1485.58 L2236.92 1481.64 Z" fill="#000000" fill-rule="nonzero" fill-opacity="1" /><path clip-path="url(#clip660)" d="M2276.27 1454.1 Q2272.66 1454.1 2270.83 1457.66 Q2269.02 1461.2 2269.02 1468.33 Q2269.02 1475.44 2270.83 1479.01 Q2272.66 1482.55 2276.27 1482.55 Q2279.9 1482.55 2281.71 1479.01 Q2283.54 1475.44 2283.54 1468.33 Q2283.54 1461.2 2281.71 1457.66 Q2279.9 1454.1 2276.27 1454.1 M2276.27 1450.39 Q2282.08 1450.39 2285.13 1455 Q2288.21 1459.58 2288.21 1468.33 Q2288.21 1477.06 2285.13 1481.67 Q2282.08 1486.25 2276.27 1486.25 Q2270.46 1486.25 2267.38 1481.67 Q2264.32 1477.06 2264.32 1468.33 Q2264.32 1459.58 2267.38 1455 Q2270.46 1450.39 2276.27 1450.39 Z" fill="#000000" fill-rule="nonzero" fill-opacity="1" /><path clip-path="url(#clip660)" d="M2306.43 1454.1 Q2302.82 1454.1 2300.99 1457.66 Q2299.19 1461.2 2299.19 1468.33 Q2299.19 1475.44 2300.99 1479.01 Q2302.82 1482.55 2306.43 1482.55 Q2310.06 1482.55 2311.87 1479.01 Q2313.7 1475.44 2313.7 1468.33 Q2313.7 1461.2 2311.87 1457.66 Q2310.06 1454.1 2306.43 1454.1 M2306.43 1450.39 Q2312.24 1450.39 2315.3 1455 Q2318.37 1459.58 2318.37 1468.33 Q2318.37 1477.06 2315.3 1481.67 Q2312.24 1486.25 2306.43 1486.25 Q2300.62 1486.25 2297.54 1481.67 Q2294.49 1477.06 2294.49 1468.33 Q2294.49 1459.58 2297.54 1455 Q2300.62 1450.39 2306.43 1450.39 Z" fill="#000000" fill-rule="nonzero" fill-opacity="1" /><path clip-path="url(#clip660)" d="M2336.59 1454.1 Q2332.98 1454.1 2331.15 1457.66 Q2329.35 1461.2 2329.35 1468.33 Q2329.35 1475.44 2331.15 1479.01 Q2332.98 1482.55 2336.59 1482.55 Q2340.23 1482.55 2342.03 1479.01 Q2343.86 1475.44 2343.86 1468.33 Q2343.86 1461.2 2342.03 1457.66 Q2340.23 1454.1 2336.59 1454.1 M2336.59 1450.39 Q2342.4 1450.39 2345.46 1455 Q2348.54 1459.58 2348.54 1468.33 Q2348.54 1477.06 2345.46 1481.67 Q2342.4 1486.25 2336.59 1486.25 Q2330.78 1486.25 2327.7 1481.67 Q2324.65 1477.06 2324.65 1468.33 Q2324.65 1459.58 2327.7 1455 Q2330.78 1450.39 2336.59 1450.39 Z" fill="#000000" fill-rule="nonzero" fill-opacity="1" /><path clip-path="url(#clip660)" d="M1208.19 1520.52 L1248.39 1520.52 L1248.39 1525.93 L1231.52 1525.93 L1231.52 1568.04 L1225.06 1568.04 L1225.06 1525.93 L1208.19 1525.93 L1208.19 1520.52 Z" fill="#000000" fill-rule="nonzero" fill-opacity="1" /><path clip-path="url(#clip660)" d="M1252.33 1532.4 L1258.19 1532.4 L1258.19 1568.04 L1252.33 1568.04 L1252.33 1532.4 M1252.33 1518.52 L1258.19 1518.52 L1258.19 1525.93 L1252.33 1525.93 L1252.33 1518.52 Z" fill="#000000" fill-rule="nonzero" fill-opacity="1" /><path clip-path="url(#clip660)" d="M1298.2 1539.24 Q1300.4 1535.29 1303.45 1533.41 Q1306.51 1531.54 1310.64 1531.54 Q1316.21 1531.54 1319.24 1535.45 Q1322.26 1539.33 1322.26 1546.53 L1322.26 1568.04 L1316.37 1568.04 L1316.37 1546.72 Q1316.37 1541.59 1314.56 1539.11 Q1312.74 1536.63 1309.02 1536.63 Q1304.47 1536.63 1301.83 1539.65 Q1299.19 1542.68 1299.19 1547.9 L1299.19 1568.04 L1293.3 1568.04 L1293.3 1546.72 Q1293.3 1541.56 1291.48 1539.11 Q1289.67 1536.63 1285.88 1536.63 Q1281.39 1536.63 1278.75 1539.68 Q1276.11 1542.71 1276.11 1547.9 L1276.11 1568.04 L1270.22 1568.04 L1270.22 1532.4 L1276.11 1532.4 L1276.11 1537.93 Q1278.12 1534.66 1280.92 1533.1 Q1283.72 1531.54 1287.57 1531.54 Q1291.45 1531.54 1294.16 1533.51 Q1296.89 1535.48 1298.2 1539.24 Z" fill="#000000" fill-rule="nonzero" fill-opacity="1" /><path clip-path="url(#clip660)" d="M1364.43 1548.76 L1364.43 1551.62 L1337.51 1551.62 Q1337.89 1557.67 1341.14 1560.85 Q1344.41 1564 1350.24 1564 Q1353.61 1564 1356.76 1563.17 Q1359.95 1562.35 1363.07 1560.69 L1363.07 1566.23 Q1359.91 1567.57 1356.6 1568.27 Q1353.29 1568.97 1349.89 1568.97 Q1341.36 1568.97 1336.36 1564 Q1331.4 1559.04 1331.4 1550.57 Q1331.4 1541.82 1336.11 1536.69 Q1340.85 1531.54 1348.87 1531.54 Q1356.06 1531.54 1360.23 1536.18 Q1364.43 1540.8 1364.43 1548.76 M1358.58 1547.04 Q1358.51 1542.23 1355.87 1539.37 Q1353.26 1536.5 1348.93 1536.5 Q1344.03 1536.5 1341.07 1539.27 Q1338.14 1542.04 1337.7 1547.07 L1358.58 1547.04 Z" fill="#000000" fill-rule="nonzero" fill-opacity="1" /><polyline clip-path="url(#clip662)" style="stroke:#000000; stroke-linecap:round; stroke-linejoin:round; stroke-width:2; stroke-opacity:0.1; fill:none" points="219.866,1385.19 2352.76,1385.19 "/>
<polyline clip-path="url(#clip662)" style="stroke:#000000; stroke-linecap:round; stroke-linejoin:round; stroke-width:2; stroke-opacity:0.1; fill:none" points="219.866,1015.58 2352.76,1015.58 "/>
<polyline clip-path="url(#clip662)" style="stroke:#000000; stroke-linecap:round; stroke-linejoin:round; stroke-width:2; stroke-opacity:0.1; fill:none" points="219.866,645.97 2352.76,645.97 "/>
<polyline clip-path="url(#clip662)" style="stroke:#000000; stroke-linecap:round; stroke-linejoin:round; stroke-width:2; stroke-opacity:0.1; fill:none" points="219.866,276.359 2352.76,276.359 "/>
<polyline clip-path="url(#clip660)" style="stroke:#000000; stroke-linecap:round; stroke-linejoin:round; stroke-width:4; stroke-opacity:1; fill:none" points="219.866,1423.18 219.866,47.2441 "/>
<polyline clip-path="url(#clip660)" style="stroke:#000000; stroke-linecap:round; stroke-linejoin:round; stroke-width:4; stroke-opacity:1; fill:none" points="219.866,1385.19 238.764,1385.19 "/>
<polyline clip-path="url(#clip660)" style="stroke:#000000; stroke-linecap:round; stroke-linejoin:round; stroke-width:4; stroke-opacity:1; fill:none" points="219.866,1015.58 238.764,1015.58 "/>
<polyline clip-path="url(#clip660)" style="stroke:#000000; stroke-linecap:round; stroke-linejoin:round; stroke-width:4; stroke-opacity:1; fill:none" points="219.866,645.97 238.764,645.97 "/>
<polyline clip-path="url(#clip660)" style="stroke:#000000; stroke-linecap:round; stroke-linejoin:round; stroke-width:4; stroke-opacity:1; fill:none" points="219.866,276.359 238.764,276.359 "/>
<path clip-path="url(#clip660)" d="M126.691 1370.99 Q123.08 1370.99 121.251 1374.56 Q119.445 1378.1 119.445 1385.23 Q119.445 1392.34 121.251 1395.9 Q123.08 1399.44 126.691 1399.44 Q130.325 1399.44 132.13 1395.9 Q133.959 1392.34 133.959 1385.23 Q133.959 1378.1 132.13 1374.56 Q130.325 1370.99 126.691 1370.99 M126.691 1367.29 Q132.501 1367.29 135.556 1371.9 Q138.635 1376.48 138.635 1385.23 Q138.635 1393.96 135.556 1398.56 Q132.501 1403.15 126.691 1403.15 Q120.88 1403.15 117.802 1398.56 Q114.746 1393.96 114.746 1385.23 Q114.746 1376.48 117.802 1371.9 Q120.88 1367.29 126.691 1367.29 Z" fill="#000000" fill-rule="nonzero" fill-opacity="1" /><path clip-path="url(#clip660)" d="M146.853 1396.59 L151.737 1396.59 L151.737 1402.47 L146.853 1402.47 L146.853 1396.59 Z" fill="#000000" fill-rule="nonzero" fill-opacity="1" /><path clip-path="url(#clip660)" d="M171.922 1370.99 Q168.311 1370.99 166.482 1374.56 Q164.677 1378.1 164.677 1385.23 Q164.677 1392.34 166.482 1395.9 Q168.311 1399.44 171.922 1399.44 Q175.556 1399.44 177.362 1395.9 Q179.19 1392.34 179.19 1385.23 Q179.19 1378.1 177.362 1374.56 Q175.556 1370.99 171.922 1370.99 M171.922 1367.29 Q177.732 1367.29 180.788 1371.9 Q183.866 1376.48 183.866 1385.23 Q183.866 1393.96 180.788 1398.56 Q177.732 1403.15 171.922 1403.15 Q166.112 1403.15 163.033 1398.56 Q159.978 1393.96 159.978 1385.23 Q159.978 1376.48 163.033 1371.9 Q166.112 1367.29 171.922 1367.29 Z" fill="#000000" fill-rule="nonzero" fill-opacity="1" /><path clip-path="url(#clip660)" d="M128.288 1001.38 Q124.677 1001.38 122.848 1004.95 Q121.043 1008.49 121.043 1015.62 Q121.043 1022.72 122.848 1026.29 Q124.677 1029.83 128.288 1029.83 Q131.922 1029.83 133.728 1026.29 Q135.556 1022.72 135.556 1015.62 Q135.556 1008.49 133.728 1004.95 Q131.922 1001.38 128.288 1001.38 M128.288 997.677 Q134.098 997.677 137.154 1002.28 Q140.232 1006.87 140.232 1015.62 Q140.232 1024.34 137.154 1028.95 Q134.098 1033.53 128.288 1033.53 Q122.478 1033.53 119.399 1028.95 Q116.343 1024.34 116.343 1015.62 Q116.343 1006.87 119.399 1002.28 Q122.478 997.677 128.288 997.677 Z" fill="#000000" fill-rule="nonzero" fill-opacity="1" /><path clip-path="url(#clip660)" d="M148.45 1026.98 L153.334 1026.98 L153.334 1032.86 L148.45 1032.86 L148.45 1026.98 Z" fill="#000000" fill-rule="nonzero" fill-opacity="1" /><path clip-path="url(#clip660)" d="M167.547 1028.93 L183.866 1028.93 L183.866 1032.86 L161.922 1032.86 L161.922 1028.93 Q164.584 1026.17 169.167 1021.54 Q173.774 1016.89 174.954 1015.55 Q177.2 1013.02 178.079 1011.29 Q178.982 1009.53 178.982 1007.84 Q178.982 1005.08 177.038 1003.35 Q175.116 1001.61 172.014 1001.61 Q169.815 1001.61 167.362 1002.38 Q164.931 1003.14 162.153 1004.69 L162.153 999.969 Q164.977 998.835 167.431 998.256 Q169.885 997.677 171.922 997.677 Q177.292 997.677 180.487 1000.36 Q183.681 1003.05 183.681 1007.54 Q183.681 1009.67 182.871 1011.59 Q182.084 1013.49 179.977 1016.08 Q179.399 1016.75 176.297 1019.97 Q173.195 1023.16 167.547 1028.93 Z" fill="#000000" fill-rule="nonzero" fill-opacity="1" /><path clip-path="url(#clip660)" d="M126.205 631.769 Q122.593 631.769 120.765 635.334 Q118.959 638.876 118.959 646.005 Q118.959 653.112 120.765 656.676 Q122.593 660.218 126.205 660.218 Q129.839 660.218 131.644 656.676 Q133.473 653.112 133.473 646.005 Q133.473 638.876 131.644 635.334 Q129.839 631.769 126.205 631.769 M126.205 628.065 Q132.015 628.065 135.07 632.672 Q138.149 637.255 138.149 646.005 Q138.149 654.732 135.07 659.338 Q132.015 663.922 126.205 663.922 Q120.394 663.922 117.316 659.338 Q114.26 654.732 114.26 646.005 Q114.26 637.255 117.316 632.672 Q120.394 628.065 126.205 628.065 Z" fill="#000000" fill-rule="nonzero" fill-opacity="1" /><path clip-path="url(#clip660)" d="M146.366 657.371 L151.251 657.371 L151.251 663.25 L146.366 663.25 L146.366 657.371 Z" fill="#000000" fill-rule="nonzero" fill-opacity="1" /><path clip-path="url(#clip660)" d="M174.283 632.765 L162.477 651.213 L174.283 651.213 L174.283 632.765 M173.056 628.69 L178.936 628.69 L178.936 651.213 L183.866 651.213 L183.866 655.102 L178.936 655.102 L178.936 663.25 L174.283 663.25 L174.283 655.102 L158.681 655.102 L158.681 650.588 L173.056 628.69 Z" fill="#000000" fill-rule="nonzero" fill-opacity="1" /><path clip-path="url(#clip660)" d="M126.529 262.157 Q122.918 262.157 121.089 265.722 Q119.283 269.264 119.283 276.393 Q119.283 283.5 121.089 287.064 Q122.918 290.606 126.529 290.606 Q130.163 290.606 131.968 287.064 Q133.797 283.5 133.797 276.393 Q133.797 269.264 131.968 265.722 Q130.163 262.157 126.529 262.157 M126.529 258.454 Q132.339 258.454 135.394 263.06 Q138.473 267.643 138.473 276.393 Q138.473 285.12 135.394 289.726 Q132.339 294.31 126.529 294.31 Q120.718 294.31 117.64 289.726 Q114.584 285.12 114.584 276.393 Q114.584 267.643 117.64 263.06 Q120.718 258.454 126.529 258.454 Z" fill="#000000" fill-rule="nonzero" fill-opacity="1" /><path clip-path="url(#clip660)" d="M146.691 287.759 L151.575 287.759 L151.575 293.639 L146.691 293.639 L146.691 287.759 Z" fill="#000000" fill-rule="nonzero" fill-opacity="1" /><path clip-path="url(#clip660)" d="M172.339 274.495 Q169.19 274.495 167.339 276.648 Q165.51 278.801 165.51 282.551 Q165.51 286.277 167.339 288.453 Q169.19 290.606 172.339 290.606 Q175.487 290.606 177.315 288.453 Q179.167 286.277 179.167 282.551 Q179.167 278.801 177.315 276.648 Q175.487 274.495 172.339 274.495 M181.621 259.842 L181.621 264.102 Q179.862 263.268 178.056 262.828 Q176.274 262.389 174.514 262.389 Q169.885 262.389 167.431 265.514 Q165.001 268.639 164.653 274.958 Q166.019 272.944 168.079 271.879 Q170.139 270.791 172.616 270.791 Q177.825 270.791 180.834 273.963 Q183.866 277.111 183.866 282.551 Q183.866 287.875 180.718 291.092 Q177.57 294.31 172.339 294.31 Q166.343 294.31 163.172 289.726 Q160.001 285.12 160.001 276.393 Q160.001 268.199 163.89 263.338 Q167.778 258.454 174.329 258.454 Q176.089 258.454 177.871 258.801 Q179.676 259.148 181.621 259.842 Z" fill="#000000" fill-rule="nonzero" fill-opacity="1" /><path clip-path="url(#clip660)" d="M16.4842 1117.44 L16.4842 1087.39 L21.895 1087.39 L21.895 1111.01 L35.9632 1111.01 L35.9632 1088.38 L41.3741 1088.38 L41.3741 1111.01 L58.5933 1111.01 L58.5933 1086.82 L64.0042 1086.82 L64.0042 1117.44 L16.4842 1117.44 Z" fill="#000000" fill-rule="nonzero" fill-opacity="1" /><path clip-path="url(#clip660)" d="M14.5426 1062.44 Q21.8632 1066.71 29.0246 1068.77 Q36.186 1070.84 43.5384 1070.84 Q50.8908 1070.84 58.1159 1068.77 Q65.3091 1066.67 72.5979 1062.44 L72.5979 1067.53 Q65.1182 1072.31 57.8931 1074.7 Q50.668 1077.05 43.5384 1077.05 Q36.4406 1077.05 29.2474 1074.7 Q22.0542 1072.34 14.5426 1067.53 L14.5426 1062.44 Z" fill="#000000" fill-rule="nonzero" fill-opacity="1" /><path clip-path="url(#clip660)" d="M16.4842 1050.82 L16.4842 1020.78 L21.895 1020.78 L21.895 1044.39 L35.9632 1044.39 L35.9632 1021.76 L41.3741 1021.76 L41.3741 1044.39 L58.5933 1044.39 L58.5933 1020.2 L64.0042 1020.2 L64.0042 1050.82 L16.4842 1050.82 Z" fill="#000000" fill-rule="nonzero" fill-opacity="1" /><path clip-path="url(#clip660)" d="M29.4065 987.167 L34.9447 987.167 Q33.6716 989.649 33.035 992.323 Q32.3984 994.996 32.3984 997.861 Q32.3984 1002.22 33.7352 1004.42 Q35.072 1006.58 37.7456 1006.58 Q39.7826 1006.58 40.9603 1005.02 Q42.1061 1003.46 43.1565 998.752 L43.6021 996.747 Q44.9389 990.509 47.3897 987.899 Q49.8086 985.257 54.1691 985.257 Q59.1344 985.257 62.0308 989.204 Q64.9272 993.119 64.9272 999.994 Q64.9272 1002.86 64.3543 1005.98 Q63.8132 1009.06 62.6992 1012.5 L56.6518 1012.5 Q58.3387 1009.26 59.198 1006.1 Q60.0256 1002.95 60.0256 999.866 Q60.0256 995.729 58.6251 993.501 Q57.1929 991.273 54.6147 991.273 Q52.2276 991.273 50.9545 992.896 Q49.6813 994.487 48.5037 999.93 L48.0262 1001.97 Q46.8804 1007.41 44.5251 1009.83 Q42.138 1012.25 38.0002 1012.25 Q32.9713 1012.25 30.2341 1008.68 Q27.4968 1005.12 27.4968 998.561 Q27.4968 995.315 27.9743 992.45 Q28.4517 989.586 29.4065 987.167 Z" fill="#000000" fill-rule="nonzero" fill-opacity="1" /><path clip-path="url(#clip660)" d="M18.2347 970.138 L28.3562 970.138 L28.3562 958.075 L32.9077 958.075 L32.9077 970.138 L52.2594 970.138 Q56.6199 970.138 57.8613 968.961 Q59.1026 967.751 59.1026 964.091 L59.1026 958.075 L64.0042 958.075 L64.0042 964.091 Q64.0042 970.87 61.4897 973.449 Q58.9434 976.027 52.2594 976.027 L32.9077 976.027 L32.9077 980.324 L28.3562 980.324 L28.3562 976.027 L18.2347 976.027 L18.2347 970.138 Z" fill="#000000" fill-rule="nonzero" fill-opacity="1" /><path clip-path="url(#clip660)" d="M28.3562 950.373 L28.3562 944.516 L64.0042 944.516 L64.0042 950.373 L28.3562 950.373 M14.479 950.373 L14.479 944.516 L21.895 944.516 L21.895 950.373 L14.479 950.373 Z" fill="#000000" fill-rule="nonzero" fill-opacity="1" /><path clip-path="url(#clip660)" d="M35.1993 904.508 Q31.2526 902.312 29.3747 899.256 Q27.4968 896.201 27.4968 892.063 Q27.4968 886.493 31.4117 883.469 Q35.2948 880.446 42.4881 880.446 L64.0042 880.446 L64.0042 886.334 L42.679 886.334 Q37.5546 886.334 35.072 888.148 Q32.5894 889.962 32.5894 893.686 Q32.5894 898.238 35.6131 900.879 Q38.6368 903.521 43.8567 903.521 L64.0042 903.521 L64.0042 909.41 L42.679 909.41 Q37.5228 909.41 35.072 911.224 Q32.5894 913.038 32.5894 916.826 Q32.5894 921.313 35.6449 923.955 Q38.6686 926.597 43.8567 926.597 L64.0042 926.597 L64.0042 932.485 L28.3562 932.485 L28.3562 926.597 L33.8944 926.597 Q30.616 924.592 29.0564 921.791 Q27.4968 918.99 27.4968 915.139 Q27.4968 911.256 29.4702 908.55 Q31.4436 905.813 35.1993 904.508 Z" fill="#000000" fill-rule="nonzero" fill-opacity="1" /><path clip-path="url(#clip660)" d="M46.0847 852.564 Q46.0847 859.662 47.7079 862.399 Q49.3312 865.136 53.2461 865.136 Q56.3653 865.136 58.2114 863.099 Q60.0256 861.03 60.0256 857.497 Q60.0256 852.627 56.5881 849.699 Q53.1188 846.739 47.3897 846.739 L46.0847 846.739 L46.0847 852.564 M43.6657 840.883 L64.0042 840.883 L64.0042 846.739 L58.5933 846.739 Q61.8398 848.744 63.3994 851.736 Q64.9272 854.728 64.9272 859.057 Q64.9272 864.531 61.8716 867.778 Q58.7843 870.992 53.6281 870.992 Q47.6125 870.992 44.5569 866.982 Q41.5014 862.94 41.5014 854.951 L41.5014 846.739 L40.9285 846.739 Q36.8862 846.739 34.6901 849.413 Q32.4621 852.055 32.4621 856.861 Q32.4621 859.916 33.1941 862.813 Q33.9262 865.709 35.3903 868.383 L29.9795 868.383 Q28.7381 865.168 28.1334 862.144 Q27.4968 859.12 27.4968 856.256 Q27.4968 848.522 31.5072 844.702 Q35.5176 840.883 43.6657 840.883 Z" fill="#000000" fill-rule="nonzero" fill-opacity="1" /><path clip-path="url(#clip660)" d="M18.2347 823.027 L28.3562 823.027 L28.3562 810.964 L32.9077 810.964 L32.9077 823.027 L52.2594 823.027 Q56.6199 823.027 57.8613 821.849 Q59.1026 820.64 59.1026 816.979 L59.1026 810.964 L64.0042 810.964 L64.0042 816.979 Q64.0042 823.759 61.4897 826.337 Q58.9434 828.915 52.2594 828.915 L32.9077 828.915 L32.9077 833.212 L28.3562 833.212 L28.3562 828.915 L18.2347 828.915 L18.2347 823.027 Z" fill="#000000" fill-rule="nonzero" fill-opacity="1" /><path clip-path="url(#clip660)" d="M44.7161 772.77 L47.5806 772.77 L47.5806 799.697 Q53.6281 799.315 56.8109 796.068 Q59.9619 792.79 59.9619 786.965 Q59.9619 783.591 59.1344 780.44 Q58.3069 777.257 56.6518 774.138 L62.1899 774.138 Q63.5267 777.289 64.227 780.599 Q64.9272 783.91 64.9272 787.315 Q64.9272 795.845 59.9619 800.842 Q54.9967 805.808 46.5303 805.808 Q37.7774 805.808 32.6531 801.097 Q27.4968 796.355 27.4968 788.334 Q27.4968 781.141 32.1438 776.971 Q36.7589 772.77 44.7161 772.77 M42.9973 778.626 Q38.1912 778.69 35.3266 781.332 Q32.4621 783.941 32.4621 788.27 Q32.4621 793.172 35.2312 796.132 Q38.0002 799.06 43.0292 799.506 L42.9973 778.626 Z" fill="#000000" fill-rule="nonzero" fill-opacity="1" /><path clip-path="url(#clip660)" d="M33.7671 739.7 L14.479 739.7 L14.479 733.843 L64.0042 733.843 L64.0042 739.7 L58.657 739.7 Q61.8398 741.546 63.3994 744.379 Q64.9272 747.179 64.9272 751.126 Q64.9272 757.587 59.771 761.661 Q54.6147 765.704 46.212 765.704 Q37.8093 765.704 32.6531 761.661 Q27.4968 757.587 27.4968 751.126 Q27.4968 747.179 29.0564 744.379 Q30.5842 741.546 33.7671 739.7 M46.212 759.656 Q52.6732 759.656 56.3653 757.015 Q60.0256 754.341 60.0256 749.694 Q60.0256 745.047 56.3653 742.373 Q52.6732 739.7 46.212 739.7 Q39.7508 739.7 36.0905 742.373 Q32.3984 745.047 32.3984 749.694 Q32.3984 754.341 36.0905 757.015 Q39.7508 759.656 46.212 759.656 Z" fill="#000000" fill-rule="nonzero" fill-opacity="1" /><path clip-path="url(#clip660)" d="M33.0032 687.246 Q33.0032 692.084 36.5043 694.694 Q40.1646 697.431 46.212 697.431 Q52.6095 697.431 56.3017 694.726 Q59.9619 691.989 59.9619 687.246 Q59.9619 682.568 56.2698 679.83 Q52.5777 677.093 46.212 677.093 Q40.3874 677.093 36.5043 679.83 Q33.0032 682.345 33.0032 687.246 M28.3562 687.246 L28.3562 667.799 L34.2127 667.799 L34.2127 674.356 Q39.1779 670.887 46.212 670.887 Q54.9649 670.887 59.9301 675.247 Q64.9272 679.608 64.9272 687.246 Q64.9272 694.917 59.9301 699.246 Q54.9649 703.606 46.212 703.606 Q37.3955 703.606 32.4621 699.246 Q28.3562 695.649 28.3562 687.246 Z" fill="#000000" fill-rule="nonzero" fill-opacity="1" /><path clip-path="url(#clip660)" d="M43.5384 641.986 L43.5384 624.831 L48.7583 624.831 L48.7583 641.986 L43.5384 641.986 Z" fill="#000000" fill-rule="nonzero" fill-opacity="1" /><path clip-path="url(#clip660)" d="M16.4842 601.118 L16.4842 560.919 L21.895 560.919 L21.895 577.788 L64.0042 577.788 L64.0042 584.249 L21.895 584.249 L21.895 601.118 L16.4842 601.118 Z" fill="#000000" fill-rule="nonzero" fill-opacity="1" /><path clip-path="url(#clip660)" d="M33.8307 543.891 Q33.2578 544.877 33.0032 546.055 Q32.7167 547.201 32.7167 548.601 Q32.7167 553.567 35.9632 556.24 Q39.1779 558.882 45.2253 558.882 L64.0042 558.882 L64.0042 564.77 L28.3562 564.77 L28.3562 558.882 L33.8944 558.882 Q30.6479 557.036 29.0883 554.076 Q27.4968 551.116 27.4968 546.883 Q27.4968 546.278 27.5923 545.546 Q27.656 544.814 27.8151 543.922 L33.8307 543.891 Z" fill="#000000" fill-rule="nonzero" fill-opacity="1" /><path clip-path="url(#clip660)" d="M49.9359 538.352 L28.3562 538.352 L28.3562 532.496 L49.7131 532.496 Q54.7739 532.496 57.3202 530.523 Q59.8346 528.549 59.8346 524.603 Q59.8346 519.86 56.8109 517.123 Q53.7872 514.354 48.5673 514.354 L28.3562 514.354 L28.3562 508.497 L64.0042 508.497 L64.0042 514.354 L58.5296 514.354 Q61.7762 516.486 63.3676 519.319 Q64.9272 522.12 64.9272 525.844 Q64.9272 531.987 61.1078 535.17 Q57.2883 538.352 49.9359 538.352 M27.4968 523.616 L27.4968 523.616 Z" fill="#000000" fill-rule="nonzero" fill-opacity="1" /><path clip-path="url(#clip660)" d="M44.7161 465.943 L47.5806 465.943 L47.5806 492.87 Q53.6281 492.488 56.8109 489.241 Q59.9619 485.963 59.9619 480.138 Q59.9619 476.764 59.1344 473.613 Q58.3069 470.43 56.6518 467.311 L62.1899 467.311 Q63.5267 470.462 64.227 473.772 Q64.9272 477.083 64.9272 480.488 Q64.9272 489.018 59.9619 494.015 Q54.9967 498.981 46.5303 498.981 Q37.7774 498.981 32.6531 494.27 Q27.4968 489.528 27.4968 481.507 Q27.4968 474.313 32.1438 470.144 Q36.7589 465.943 44.7161 465.943 M42.9973 471.799 Q38.1912 471.863 35.3266 474.504 Q32.4621 477.114 32.4621 481.443 Q32.4621 486.345 35.2312 489.305 Q38.0002 492.233 43.0292 492.679 L42.9973 471.799 Z" fill="#000000" fill-rule="nonzero" fill-opacity="1" /><path clip-path="url(#clip660)" d="M33.0032 421.796 Q33.0032 426.634 36.5043 429.244 Q40.1646 431.982 46.212 431.982 Q52.6095 431.982 56.3017 429.276 Q59.9619 426.539 59.9619 421.796 Q59.9619 417.118 56.2698 414.38 Q52.5777 411.643 46.212 411.643 Q40.3874 411.643 36.5043 414.38 Q33.0032 416.895 33.0032 421.796 M28.3562 421.796 L28.3562 402.349 L34.2127 402.349 L34.2127 408.906 Q39.1779 405.437 46.212 405.437 Q54.9649 405.437 59.9301 409.797 Q64.9272 414.158 64.9272 421.796 Q64.9272 429.467 59.9301 433.796 Q54.9649 438.156 46.212 438.156 Q37.3955 438.156 32.4621 433.796 Q28.3562 430.199 28.3562 421.796 Z" fill="#000000" fill-rule="nonzero" fill-opacity="1" /><path clip-path="url(#clip660)" d="M14.5426 395.22 L14.5426 390.127 Q22.0542 385.353 29.2474 382.997 Q36.4406 380.61 43.5384 380.61 Q50.668 380.61 57.8931 382.997 Q65.1182 385.353 72.5979 390.127 L72.5979 395.22 Q65.3091 390.986 58.1159 388.918 Q50.8908 386.817 43.5384 386.817 Q36.186 386.817 29.0246 388.918 Q21.8632 390.986 14.5426 395.22 Z" fill="#000000" fill-rule="nonzero" fill-opacity="1" /><path clip-path="url(#clip660)" d="M39.1142 366.478 L39.1142 352.983 L42.7427 352.983 L42.7427 372.017 L39.2416 372.017 Q38.2549 370.934 36.4725 368.929 Q26.7648 357.98 23.7729 357.98 Q21.6722 357.98 20.3991 359.635 Q19.0941 361.29 19.0941 363.996 Q19.0941 365.651 19.667 367.592 Q20.2081 369.534 21.3221 371.826 L17.4072 371.826 Q16.516 369.375 16.0704 367.274 Q15.6248 365.142 15.6248 363.327 Q15.6248 358.712 17.7255 355.943 Q19.8262 353.174 23.2636 353.174 Q27.6878 353.174 36.7271 363.709 Q38.2549 365.492 39.1142 366.478 Z" fill="#000000" fill-rule="nonzero" fill-opacity="1" /><polyline clip-path="url(#clip662)" style="stroke:#009af9; stroke-linecap:round; stroke-linejoin:round; stroke-width:4; stroke-opacity:1; fill:none" points="280.231,1354.64 282.245,105.222 284.259,175.725 286.274,236.953 288.288,243.621 290.302,243.687 292.316,297.599 294.33,372.752 296.344,430.366 298.359,503.025 300.373,514.223 302.387,547.873 304.401,552.422 306.415,573.247 308.43,590.792 310.444,624.191 312.458,650.765 314.472,666.636 316.486,696.536 318.5,705.427 320.515,734.605 322.529,745.876 324.543,751.477 326.557,761.966 328.571,786.199 330.585,795.474 332.6,804.105 334.614,818.743 336.628,833.554 338.642,844.584 340.656,858.628 342.67,877.969 344.685,879.948 346.699,887.079 348.713,887.308 350.727,900.495 352.741,903.793 354.756,904.359 356.77,899.127 358.784,905.487 360.798,914.975 362.812,920.42 364.826,921.71 366.841,914.797 368.855,918.983 370.869,928.403 372.883,938.029 374.897,947.692 376.911,961.322 378.926,952.214 380.94,947.56 382.954,951.791 384.968,951.458 386.982,953.962 388.996,963.346 391.011,972.584 393.025,972.547 395.039,978.912 397.053,986.052 399.067,979.8 401.082,984.381 403.096,987.36 405.11,993.398 407.124,998.079 409.138,1002.23 411.152,1007.28 413.167,1012.27 415.181,1009.78 417.195,1009.04 419.209,1014.71 421.223,1013.42 423.237,1014 425.252,1015.36 427.266,1019.12 429.28,1025.33 431.294,1023.53 433.308,1024.86 435.322,1028.75 437.337,1032.83 439.351,1035.13 441.365,1035.15 443.379,1038.88 445.393,1040.67 447.408,1044.35 449.422,1048.81 451.436,1041.97 453.45,1042.34 455.464,1044.13 457.478,1046.77 459.493,1045.22 461.507,1042.6 463.521,1040.98 465.535,1043.84 467.549,1046.17 469.563,1043.38 471.578,1042.15 473.592,1041.95 475.606,1041.8 477.62,1044.71 479.634,1044.87 481.648,1047.04 483.663,1058.26 485.677,1064.27 487.691,1063.66 489.705,1067.31 491.719,1061.66 493.734,1064.13 495.748,1063.06 497.762,1064.72 499.776,1065.57 501.79,1065.26 503.804,1063.67 505.819,1065.66 507.833,1068.81 509.847,1069.12 511.861,1066.98 513.875,1068.99 515.889,1074.9 517.904,1073.59 519.918,1073.23 521.932,1077.54 523.946,1082.61 525.96,1080 527.974,1082.68 529.989,1083.24 532.003,1086.45 534.017,1088.32 536.031,1087.72 538.045,1090.2 540.06,1088.12 542.074,1089.04 544.088,1088.51 546.102,1090.25 548.116,1092.95 550.13,1094.3 552.145,1095.17 554.159,1099.05 556.173,1103.78 558.187,1105.13 560.201,1109.23 562.215,1110.31 564.23,1109.31 566.244,1111.09 568.258,1112.06 570.272,1112.17 572.286,1113.2 574.301,1114.31 576.315,1115.86 578.329,1117.86 580.343,1116.88 582.357,1117.44 584.371,1117.56 586.386,1121.75 588.4,1123.74 590.414,1123.58 592.428,1125.08 594.442,1122.26 596.456,1125.34 598.471,1128.39 600.485,1130.35 602.499,1128.17 604.513,1128.83 606.527,1128.35 608.541,1128.98 610.556,1129.56 612.57,1130.5 614.584,1130.26 616.598,1131.73 618.612,1135.19 620.627,1139.61 622.641,1140.97 624.655,1143.42 626.669,1143.29 628.683,1145.27 630.697,1146.96 632.712,1148.15 634.726,1150.27 636.74,1151.24 638.754,1149.97 640.768,1150.55 642.782,1153.07 644.797,1154.85 646.811,1154.71 648.825,1152.29 650.839,1152.4 652.853,1152.89 654.867,1153 656.882,1153.25 658.896,1154.08 660.91,1155.51 662.924,1157.94 664.938,1158.69 666.953,1160.55 668.967,1160.82 670.981,1162.22 672.995,1164.1 675.009,1164.37 677.023,1164.36 679.038,1164.79 681.052,1166.83 683.066,1169.68 685.08,1170.62 687.094,1170.02 689.108,1169.36 691.123,1170.44 693.137,1169.45 695.151,1170.32 697.165,1171.88 699.179,1173.6 701.193,1174.76 703.208,1177.03 705.222,1179.31 707.236,1180.39 709.25,1178.57 711.264,1178.7 713.279,1179.15 715.293,1180.88 717.307,1183.07 719.321,1182.81 721.335,1181.06 723.349,1179.94 725.364,1180.62 727.378,1181.91 729.392,1183.86 731.406,1184.66 733.42,1185.45 735.434,1187.32 737.449,1188.41 739.463,1189.81 741.477,1187.41 743.491,1186.53 745.505,1185.24 747.519,1182.93 749.534,1184.43 751.548,1185.49 753.562,1186.26 755.576,1187.05 757.59,1187.19 759.605,1188.08 761.619,1189.66 763.633,1190.36 765.647,1191.06 767.661,1192.25 769.675,1192.09 771.69,1193.93 773.704,1194.59 775.718,1195.48 777.732,1196.76 779.746,1196.91 781.76,1197.26 783.775,1197.17 785.789,1198.66 787.803,1200.06 789.817,1202.62 791.831,1205.77 793.845,1206 795.86,1206.4 797.874,1206.65 799.888,1207.36 801.902,1208.37 803.916,1208.32 805.931,1210.72 807.945,1210.91 809.959,1210.04 811.973,1210.75 813.987,1211.41 816.001,1211.76 818.016,1213.69 820.03,1215.44 822.044,1215.4 824.058,1215.86 826.072,1215.75 828.086,1216.3 830.101,1216.33 832.115,1212.99 834.129,1213.56 836.143,1213.62 838.157,1214.44 840.171,1215.41 842.186,1216.89 844.2,1216.96 846.214,1218.44 848.228,1219.78 850.242,1217.76 852.257,1218.73 854.271,1220.02 856.285,1221.04 858.299,1221.44 860.313,1222.75 862.327,1223.75 864.342,1224.75 866.356,1223.82 868.37,1223.39 870.384,1224.07 872.398,1225.15 874.412,1225.45 876.427,1225.63 878.441,1225.78 880.455,1227.77 882.469,1229.46 884.483,1230.73 886.498,1231.8 888.512,1231.93 890.526,1231.12 892.54,1231.88 894.554,1231.53 896.568,1232.42 898.583,1231.45 900.597,1231.93 902.611,1233.19 904.625,1233.98 906.639,1232.32 908.653,1233.09 910.668,1230.31 912.682,1229.77 914.696,1230.85 916.71,1231.74 918.724,1231.66 920.738,1232.17 922.753,1232.34 924.767,1233.05 926.781,1233.52 928.795,1234.5 930.809,1234.54 932.824,1235.35 934.838,1233.95 936.852,1234.72 938.866,1235.33 940.88,1233.02 942.894,1232.83 944.909,1232.48 946.923,1231.07 948.937,1230.88 950.951,1230.72 952.965,1231.3 954.979,1232.33 956.994,1232.21 959.008,1234.34 961.022,1235.45 963.036,1235.71 965.05,1236.36 967.064,1236.86 969.079,1237.7 971.093,1237.04 973.107,1237.31 975.121,1238.05 977.135,1239.56 979.15,1240.74 981.164,1241.94 983.178,1242.15 985.192,1242.67 987.206,1243.47 989.22,1243.9 991.235,1244.27 993.249,1245.04 995.263,1245.2 997.277,1246.28 999.291,1246.74 1001.31,1246.23 1003.32,1245.27 1005.33,1246.88 1007.35,1247.38 1009.36,1246.79 1011.38,1247.09 1013.39,1247.14 1015.4,1248.58 1017.42,1249.11 1019.43,1250.96 1021.45,1251.17 1023.46,1251.65 1025.48,1252.72 1027.49,1252.86 1029.5,1253.22 1031.52,1253.63 1033.53,1254.11 1035.55,1254.43 1037.56,1253.02 1039.57,1253.31 1041.59,1254.27 1043.6,1254.43 1045.62,1254.13 1047.63,1255.32 1049.65,1256.19 1051.66,1254.97 1053.67,1255.46 1055.69,1256.49 1057.7,1255.93 1059.72,1256.52 1061.73,1254.77 1063.74,1254.51 1065.76,1254.19 1067.77,1255.25 1069.79,1255.36 1071.8,1256.07 1073.82,1256.06 1075.83,1257.63 1077.84,1257.19 1079.86,1257.5 1081.87,1259.18 1083.89,1259.21 1085.9,1259.52 1087.91,1260.53 1089.93,1260.58 1091.94,1261.39 1093.96,1261.67 1095.97,1263.54 1097.99,1263.7 1100,1263.8 1102.01,1263.75 1104.03,1263.63 1106.04,1262.54 1108.06,1262.37 1110.07,1263.87 1112.09,1264.43 1114.1,1264.07 1116.11,1266.55 1118.13,1266.67 1120.14,1266.85 1122.16,1267.44 1124.17,1267.7 1126.18,1269.4 1128.2,1270.41 1130.21,1271.73 1132.23,1271.05 1134.24,1271.31 1136.26,1270.98 1138.27,1270.69 1140.28,1270.9 1142.3,1270.96 1144.31,1270.79 1146.33,1271.27 1148.34,1272.61 1150.35,1272.65 1152.37,1273.57 1154.38,1273.07 1156.4,1273.63 1158.41,1274.8 1160.43,1274.6 1162.44,1275.81 1164.45,1276.11 1166.47,1276.32 1168.48,1276.74 1170.5,1277.23 1172.51,1278.34 1174.52,1278.18 1176.54,1278.81 1178.55,1279.61 1180.57,1280.12 1182.58,1280.88 1184.6,1280.57 1186.61,1280.7 1188.62,1282.29 1190.64,1282.63 1192.65,1283.63 1194.67,1284.05 1196.68,1285.15 1198.69,1285.61 1200.71,1285.25 1202.72,1285.87 1204.74,1285.75 1206.75,1285.04 1208.77,1286.27 1210.78,1288.34 1212.79,1289.87 1214.81,1290.17 1216.82,1291.74 1218.84,1292.9 1220.85,1292.47 1222.86,1292.86 1224.88,1293.15 1226.89,1293.56 1228.91,1293.08 1230.92,1293.54 1232.94,1293.89 1234.95,1295.21 1236.96,1295.02 1238.98,1295.17 1240.99,1295.46 1243.01,1296.59 1245.02,1296.86 1247.03,1297.61 1249.05,1297.26 1251.06,1297.81 1253.08,1298.41 1255.09,1298.3 1257.11,1299.11 1259.12,1299.43 1261.13,1299.01 1263.15,1298.28 1265.16,1298.26 1267.18,1298.73 1269.19,1301.05 1271.2,1301.85 1273.22,1302.96 1275.23,1303.34 1277.25,1302.98 1279.26,1303.21 1281.28,1304.01 1283.29,1304.89 1285.3,1305.07 1287.32,1304.95 1289.33,1305.31 1291.35,1305.49 1293.36,1305.83 1295.37,1306.6 1297.39,1306.66 1299.4,1307.04 1301.42,1307.05 1303.43,1307.53 1305.45,1307.53 1307.46,1307.13 1309.47,1306.28 1311.49,1306.26 1313.5,1305.96 1315.52,1307.04 1317.53,1308.05 1319.54,1308.66 1321.56,1308.57 1323.57,1308.28 1325.59,1309.3 1327.6,1308.61 1329.62,1308.41 1331.63,1308.1 1333.64,1308.56 1335.66,1308.61 1337.67,1309.15 1339.69,1309.49 1341.7,1309.89 1343.72,1310.45 1345.73,1310.5 1347.74,1309.92 1349.76,1309.61 1351.77,1310.01 1353.79,1310.25 1355.8,1310.66 1357.81,1311.13 1359.83,1311.47 1361.84,1312.03 1363.86,1311.46 1365.87,1311.71 1367.89,1311.83 1369.9,1312.35 1371.91,1311.25 1373.93,1311.24 1375.94,1311.31 1377.96,1312.07 1379.97,1311.28 1381.98,1310.94 1384,1311.38 1386.01,1311.76 1388.03,1311.31 1390.04,1311.39 1392.06,1311.56 1394.07,1310.65 1396.08,1310.95 1398.1,1311.15 1400.11,1311.04 1402.13,1311.23 1404.14,1311.45 1406.15,1312.04 1408.17,1311.71 1410.18,1311.86 1412.2,1312.66 1414.21,1312.77 1416.23,1313.19 1418.24,1313.02 1420.25,1312.81 1422.27,1312.53 1424.28,1312.64 1426.3,1313.15 1428.31,1313.43 1430.32,1314.06 1432.34,1313.99 1434.35,1314.07 1436.37,1314.52 1438.38,1314.71 1440.4,1314.59 1442.41,1315.35 1444.42,1315.23 1446.44,1316.8 1448.45,1317.25 1450.47,1317.59 1452.48,1317.79 1454.49,1318.16 1456.51,1317.96 1458.52,1318.12 1460.54,1318.84 1462.55,1319.14 1464.57,1319.09 1466.58,1319.12 1468.59,1319.26 1470.61,1319.67 1472.62,1319.89 1474.64,1319.81 1476.65,1319.57 1478.66,1319.44 1480.68,1319.61 1482.69,1319.7 1484.71,1319.89 1486.72,1319.59 1488.74,1320.02 1490.75,1319.99 1492.76,1320.89 1494.78,1321.22 1496.79,1321.88 1498.81,1321.59 1500.82,1321.96 1502.83,1322.6 1504.85,1323.91 1506.86,1323.96 1508.88,1324.2 1510.89,1324.12 1512.91,1324.27 1514.92,1324.52 1516.93,1324.46 1518.95,1324.76 1520.96,1324.95 1522.98,1324.69 1524.99,1324.99 1527,1326.15 1529.02,1326.77 1531.03,1327.39 1533.05,1326.9 1535.06,1327.02 1537.08,1325.68 1539.09,1325.93 1541.1,1325.37 1543.12,1326.26 1545.13,1326.44 1547.15,1326.38 1549.16,1325.48 1551.17,1326.19 1553.19,1326.48 1555.2,1327.09 1557.22,1327.21 1559.23,1326.53 1561.25,1325.99 1563.26,1326.16 1565.27,1326.16 1567.29,1326.95 1569.3,1327.68 1571.32,1327.44 1573.33,1326.44 1575.35,1325.94 1577.36,1325.74 1579.37,1324.6 1581.39,1324.77 1583.4,1324.32 1585.42,1323.57 1587.43,1322.66 1589.44,1321.97 1591.46,1321.79 1593.47,1322.38 1595.49,1322.92 1597.5,1323.25 1599.52,1323.71 1601.53,1323.44 1603.54,1323.82 1605.56,1323.85 1607.57,1323.5 1609.59,1324.23 1611.6,1324.67 1613.61,1324.35 1615.63,1325.09 1617.64,1325.5 1619.66,1325.89 1621.67,1325.92 1623.69,1326.05 1625.7,1327.03 1627.71,1326.9 1629.73,1327.08 1631.74,1327.05 1633.76,1326.95 1635.77,1327.01 1637.78,1326.89 1639.8,1326.74 1641.81,1326.84 1643.83,1327.33 1645.84,1328 1647.86,1328.01 1649.87,1328.84 1651.88,1329.21 1653.9,1329.43 1655.91,1329.61 1657.93,1329.69 1659.94,1329.43 1661.95,1328.73 1663.97,1328.51 1665.98,1328.75 1668,1329.02 1670.01,1328.5 1672.03,1328.42 1674.04,1328.2 1676.05,1328.47 1678.07,1327.8 1680.08,1326.81 1682.1,1326.91 1684.11,1326.64 1686.12,1327.1 1688.14,1327.12 1690.15,1327.6 1692.17,1326.55 1694.18,1327.88 1696.2,1327.89 1698.21,1328.64 1700.22,1328.46 1702.24,1328.64 1704.25,1328.5 1706.27,1328.77 1708.28,1328.33 1710.29,1328.87 1712.31,1328.88 1714.32,1329.36 1716.34,1329.64 1718.35,1329.86 1720.37,1329.65 1722.38,1329.8 1724.39,1329.72 1726.41,1330.28 1728.42,1331.13 1730.44,1331 1732.45,1330.85 1734.46,1330.98 1736.48,1331.59 1738.49,1332.3 1740.51,1333.1 1742.52,1331.38 1744.54,1331.26 1746.55,1332.08 1748.56,1332.86 1750.58,1333.78 1752.59,1334.31 1754.61,1333.99 1756.62,1334.76 1758.63,1335.49 1760.65,1336.12 1762.66,1336.74 1764.68,1336.53 1766.69,1335.79 1768.71,1336.57 1770.72,1336.21 1772.73,1337.03 1774.75,1336.98 1776.76,1337.28 1778.78,1337.26 1780.79,1337.14 1782.81,1337.06 1784.82,1337.18 1786.83,1336.95 1788.85,1337.28 1790.86,1337.43 1792.88,1337.78 1794.89,1337.3 1796.9,1336.45 1798.92,1336.56 1800.93,1336.82 1802.95,1337.06 1804.96,1337.3 1806.98,1336.95 1808.99,1336.77 1811,1335.74 1813.02,1336.39 1815.03,1336.76 1817.05,1336.91 1819.06,1337.34 1821.07,1337.68 1823.09,1337.86 1825.1,1338.34 1827.12,1338.13 1829.13,1338.72 1831.15,1339.25 1833.16,1339.43 1835.17,1340.21 1837.19,1340.25 1839.2,1340.47 1841.22,1340.13 1843.23,1340.69 1845.24,1340.64 1847.26,1340.83 1849.27,1340.92 1851.29,1340.99 1853.3,1341.6 1855.32,1340.56 1857.33,1340.28 1859.34,1340.6 1861.36,1341.37 1863.37,1341.68 1865.39,1341.8 1867.4,1341.83 1869.41,1341.97 1871.43,1340.53 1873.44,1341.35 1875.46,1342.28 1877.47,1342.2 1879.49,1342.36 1881.5,1342.92 1883.51,1342.77 1885.53,1343.33 1887.54,1343.37 1889.56,1343.37 1891.57,1343.5 1893.58,1343.01 1895.6,1342.6 1897.61,1342.88 1899.63,1343.33 1901.64,1343.43 1903.66,1343.5 1905.67,1343.49 1907.68,1343.3 1909.7,1343.65 1911.71,1343.58 1913.73,1342.87 1915.74,1343.46 1917.75,1343.14 1919.77,1343.77 1921.78,1344.24 1923.8,1344.6 1925.81,1343.75 1927.83,1343.65 1929.84,1344.36 1931.85,1343.26 1933.87,1344.01 1935.88,1343.33 1937.9,1343.1 1939.91,1342.71 1941.92,1343.02 1943.94,1343.48 1945.95,1344.29 1947.97,1344.64 1949.98,1344.61 1952,1345.25 1954.01,1345.29 1956.02,1344.9 1958.04,1344.03 1960.05,1345.12 1962.07,1346.16 1964.08,1346.73 1966.09,1346.63 1968.11,1346.57 1970.12,1347.21 1972.14,1348.32 1974.15,1348.03 1976.17,1347.81 1978.18,1347.84 1980.19,1348.5 1982.21,1348.24 1984.22,1348.77 1986.24,1349.17 1988.25,1349.72 1990.26,1350.88 1992.28,1350.67 1994.29,1350.46 1996.31,1351.38 1998.32,1351.06 2000.34,1351.83 2002.35,1352.49 2004.36,1352.56 2006.38,1352.3 2008.39,1352.18 2010.41,1352.17 2012.42,1352.15 2014.44,1352.49 2016.45,1351.86 2018.46,1351.83 2020.48,1351.76 2022.49,1351.24 2024.51,1352.18 2026.52,1351.6 2028.53,1351.11 2030.55,1351.17 2032.56,1350.75 2034.58,1350.76 2036.59,1351.02 2038.61,1350.76 2040.62,1351.21 2042.63,1351.79 2044.65,1351.51 2046.66,1351.36 2048.68,1351.6 2050.69,1351.02 2052.7,1350.84 2054.72,1350.82 2056.73,1351.3 2058.75,1351.81 2060.76,1352.67 2062.78,1352.39 2064.79,1352.71 2066.8,1352.51 2068.82,1352.6 2070.83,1352.41 2072.85,1352.6 2074.86,1353.84 2076.87,1353.97 2078.89,1353.95 2080.9,1354.52 2082.92,1353.49 2084.93,1352.54 2086.95,1351.79 2088.96,1351.68 2090.97,1351.7 2092.99,1351.76 2095,1351.33 2097.02,1351.71 2099.03,1352.5 2101.04,1352.67 2103.06,1353.13 2105.07,1353.53 2107.09,1354.1 2109.1,1354.13 2111.12,1354.59 2113.13,1354.56 2115.14,1354.49 2117.16,1354.17 2119.17,1355.04 2121.19,1355.12 2123.2,1355.33 2125.21,1355.8 2127.23,1355.91 2129.24,1356.51 2131.26,1354.67 2133.27,1354.9 2135.29,1355.14 2137.3,1356.35 2139.31,1355.89 2141.33,1355.87 2143.34,1355.46 2145.36,1355.16 2147.37,1356.03 2149.38,1356.96 2151.4,1356.96 2153.41,1356.63 2155.43,1356.42 2157.44,1356.84 2159.46,1357.72 2161.47,1357.41 2163.48,1357.71 2165.5,1358.64 2167.51,1359.03 2169.53,1358.92 2171.54,1359.1 2173.55,1360.13 2175.57,1360.13 2177.58,1360.27 2179.6,1360.31 2181.61,1360.61 2183.63,1361.03 2185.64,1361.31 2187.65,1361.57 2189.67,1361.97 2191.68,1362.26 2193.7,1361.73 2195.71,1361.44 2197.72,1361.63 2199.74,1361.5 2201.75,1361.41 2203.77,1361.95 2205.78,1361.93 2207.8,1362.11 2209.81,1362.53 2211.82,1362.52 2213.84,1362.47 2215.85,1362.33 2217.87,1362.61 2219.88,1363.11 2221.9,1363.19 2223.91,1363.68 2225.92,1364.23 2227.94,1364.43 2229.95,1364.83 2231.97,1365.19 2233.98,1365.43 2235.99,1364.62 2238.01,1365.09 2240.02,1365.09 2242.04,1365.3 2244.05,1365.22 2246.07,1365.01 2248.08,1365.16 2250.09,1364.94 2252.11,1364.78 2254.12,1365.04 2256.14,1365.09 2258.15,1365.15 2260.16,1365.23 2262.18,1365.24 2264.19,1365.56 2266.21,1365.68 2268.22,1365.58 2270.24,1365.57 2272.25,1366.18 2274.26,1366.46 2276.28,1365.59 2278.29,1365.91 2280.31,1366.06 2282.32,1366.26 2284.33,1366.68 2286.35,1366.93 2288.36,1367.39 2290.38,1367.71 2292.39,1367.7 "/>
<polyline clip-path="url(#clip662)" style="stroke:#e26f46; stroke-linecap:round; stroke-linejoin:round; stroke-width:4; stroke-opacity:1; fill:none" points="280.231,1370.75 282.245,86.1857 284.259,100.466 286.274,135.262 288.288,181.211 290.302,218.027 292.316,281.218 294.33,366.071 296.344,407.448 298.359,459.733 300.373,502.999 302.387,566.233 304.401,607.945 306.415,663.119 308.43,713.049 310.444,745.882 312.458,771.847 314.472,797.488 316.486,826.414 318.5,866.042 320.515,875.015 322.529,898.618 324.543,907.007 326.557,929.33 328.571,949.378 330.585,963.475 332.6,972.16 334.614,965.604 336.628,981.642 338.642,993.73 340.656,1006.33 342.67,1018.09 344.685,1016.22 346.699,1038.52 348.713,1038.9 350.727,1042.71 352.741,1039.79 354.756,1042.05 356.77,1049.56 358.784,1054.14 360.798,1053.65 362.812,1056.41 364.826,1063.27 366.841,1069.62 368.855,1067.4 370.869,1067.93 372.883,1070.12 374.897,1081.1 376.911,1077.33 378.926,1082.51 380.94,1087.33 382.954,1093.77 384.968,1092.57 386.982,1105.82 388.996,1104.18 391.011,1105.65 393.025,1111.01 395.039,1115.32 397.053,1120.9 399.067,1128.7 401.082,1133.77 403.096,1134.6 405.11,1136.99 407.124,1133.28 409.138,1136.62 411.152,1140.58 413.167,1138.93 415.181,1139.88 417.195,1140.03 419.209,1141.06 421.223,1142.82 423.237,1144.96 425.252,1146.81 427.266,1148.45 429.28,1146.33 431.294,1142.33 433.308,1145.89 435.322,1144.53 437.337,1148.27 439.351,1152.97 441.365,1158.22 443.379,1154.08 445.393,1158.85 447.408,1161.68 449.422,1165.57 451.436,1165.62 453.45,1168.72 455.464,1172.3 457.478,1180.11 459.493,1181.1 461.507,1182.02 463.521,1180.8 465.535,1183.98 467.549,1180.34 469.563,1183.15 471.578,1184.95 473.592,1185.75 475.606,1187.9 477.62,1190.96 479.634,1193.23 481.648,1193.79 483.663,1197.23 485.677,1198.17 487.691,1200.38 489.705,1203.84 491.719,1203.39 493.734,1208.18 495.748,1207.73 497.762,1207.42 499.776,1210.23 501.79,1210.28 503.804,1215 505.819,1217.65 507.833,1215.37 509.847,1213.94 511.861,1216.38 513.875,1217.34 515.889,1219.7 517.904,1220.15 519.918,1222.04 521.932,1224.72 523.946,1226.97 525.96,1232.12 527.974,1235.15 529.989,1236.37 532.003,1236.88 534.017,1237.74 536.031,1239.5 538.045,1240.82 540.06,1241.75 542.074,1245.65 544.088,1248.37 546.102,1250.85 548.116,1250.88 550.13,1254.3 552.145,1255.69 554.159,1255.71 556.173,1255.32 558.187,1258.29 560.201,1258.01 562.215,1258.2 564.23,1256.9 566.244,1255.57 568.258,1255.46 570.272,1258.96 572.286,1260.65 574.301,1261.64 576.315,1262.09 578.329,1261.32 580.343,1261.69 582.357,1262.99 584.371,1260.94 586.386,1259.87 588.4,1263.74 590.414,1267.1 592.428,1266.56 594.442,1263.49 596.456,1264.89 598.471,1267.26 600.485,1266.36 602.499,1268.75 604.513,1271.24 606.527,1271.1 608.541,1270.95 610.556,1273.02 612.57,1275.02 614.584,1275.28 616.598,1274.91 618.612,1274.78 620.627,1277.33 622.641,1278.18 624.655,1277.62 626.669,1278.58 628.683,1278.04 630.697,1277.89 632.712,1277.83 634.726,1279.08 636.74,1280.59 638.754,1281.4 640.768,1281.94 642.782,1283.95 644.797,1282.18 646.811,1283.45 648.825,1282.89 650.839,1282.91 652.853,1284.36 654.867,1282.89 656.882,1283.7 658.896,1284.41 660.91,1282.62 662.924,1282.29 664.938,1280.91 666.953,1281.32 668.967,1282.61 670.981,1283.55 672.995,1283.25 675.009,1282.71 677.023,1283.1 679.038,1284.13 681.052,1283.27 683.066,1284.13 685.08,1286.91 687.094,1291.14 689.108,1292.71 691.123,1294.04 693.137,1292.17 695.151,1292.72 697.165,1292.73 699.179,1292.83 701.193,1294.42 703.208,1293.13 705.222,1293.84 707.236,1294.01 709.25,1293.19 711.264,1293.59 713.279,1294.76 715.293,1295.94 717.307,1297.18 719.321,1298.17 721.335,1299.86 723.349,1301.98 725.364,1303.13 727.378,1304.88 729.392,1306.61 731.406,1306.84 733.42,1306.5 735.434,1306.68 737.449,1307.01 739.463,1307.12 741.477,1306.63 743.491,1307.16 745.505,1308.24 747.519,1308.02 749.534,1308.44 751.548,1309.09 753.562,1309.73 755.576,1310.68 757.59,1310.13 759.605,1309.47 761.619,1309.28 763.633,1309.28 765.647,1309.29 767.661,1309.48 769.675,1309.93 771.69,1310.65 773.704,1310.66 775.718,1309.83 777.732,1310.57 779.746,1310.18 781.76,1310.4 783.775,1312.6 785.789,1313.66 787.803,1314.27 789.817,1315.84 791.831,1316.07 793.845,1316.45 795.86,1316.87 797.874,1316.29 799.888,1316.87 801.902,1317.99 803.916,1318.44 805.931,1319.95 807.945,1320.35 809.959,1320.76 811.973,1323.41 813.987,1323.36 816.001,1324.45 818.016,1325.09 820.03,1324.53 822.044,1325.3 824.058,1325.26 826.072,1325.86 828.086,1325.55 830.101,1325.76 832.115,1326.53 834.129,1326.61 836.143,1327.84 838.157,1327.75 840.171,1327.93 842.186,1326.43 844.2,1326.13 846.214,1327.03 848.228,1327.47 850.242,1327.54 852.257,1327.85 854.271,1327.89 856.285,1328.01 858.299,1328.34 860.313,1328.28 862.327,1328.78 864.342,1329.32 866.356,1329.96 868.37,1329.62 870.384,1329.73 872.398,1330.06 874.412,1329.32 876.427,1330.08 878.441,1331.39 880.455,1331.56 882.469,1332.02 884.483,1332.08 886.498,1332.24 888.512,1332.23 890.526,1331.68 892.54,1331.79 894.554,1331.94 896.568,1331.13 898.583,1331.9 900.597,1332.28 902.611,1332.26 904.625,1333.12 906.639,1334.19 908.653,1334.64 910.668,1334.13 912.682,1334.09 914.696,1334.71 916.71,1335.01 918.724,1335.12 920.738,1335.26 922.753,1334.91 924.767,1335.76 926.781,1335.52 928.795,1335.73 930.809,1335.84 932.824,1336.2 934.838,1336.36 936.852,1336.64 938.866,1336.77 940.88,1336.21 942.894,1337 944.909,1337.55 946.923,1337.63 948.937,1338.15 950.951,1338.4 952.965,1338.55 954.979,1339.26 956.994,1339.64 959.008,1339.61 961.022,1340.46 963.036,1340.65 965.05,1340.71 967.064,1340.56 969.079,1341.67 971.093,1342.82 973.107,1342.99 975.121,1342.92 977.135,1344.38 979.15,1343.86 981.164,1344.39 983.178,1345.22 985.192,1345.46 987.206,1346.26 989.22,1346.19 991.235,1346.57 993.249,1346.81 995.263,1346.03 997.277,1346.49 999.291,1346.4 1001.31,1346.91 1003.32,1346.87 1005.33,1347.08 1007.35,1346.69 1009.36,1346.91 1011.38,1347.06 1013.39,1346.79 1015.4,1346.9 1017.42,1346.81 1019.43,1347.3 1021.45,1347.59 1023.46,1347.78 1025.48,1348.4 1027.49,1348.81 1029.5,1349.16 1031.52,1349.19 1033.53,1349.36 1035.55,1349.35 1037.56,1349.81 1039.57,1350.02 1041.59,1350.6 1043.6,1351.01 1045.62,1351.56 1047.63,1351.98 1049.65,1351.02 1051.66,1351.02 1053.67,1351.52 1055.69,1352.05 1057.7,1352.08 1059.72,1352.49 1061.73,1352.99 1063.74,1353.54 1065.76,1353.75 1067.77,1354.01 1069.79,1354.45 1071.8,1354.69 1073.82,1354.7 1075.83,1354.77 1077.84,1355.65 1079.86,1355.94 1081.87,1356.08 1083.89,1356.52 1085.9,1356.15 1087.91,1356.93 1089.93,1357.09 1091.94,1357.75 1093.96,1357.63 1095.97,1357.47 1097.99,1357.71 1100,1358.45 1102.01,1359.07 1104.03,1359.51 1106.04,1360.01 1108.06,1360.17 1110.07,1358.98 1112.09,1359.38 1114.1,1359.05 1116.11,1359.43 1118.13,1359.47 1120.14,1359.56 1122.16,1359.52 1124.17,1359.83 1126.18,1360.68 1128.2,1360.52 1130.21,1361.52 1132.23,1361.91 1134.24,1362 1136.26,1361.94 1138.27,1362.25 1140.28,1362.47 1142.3,1362.4 1144.31,1362.52 1146.33,1362.91 1148.34,1362.93 1150.35,1363.27 1152.37,1363.4 1154.38,1363.29 1156.4,1363.64 1158.41,1364.22 1160.43,1364.48 1162.44,1364.87 1164.45,1364.96 1166.47,1365.29 1168.48,1365.35 1170.5,1365.78 1172.51,1365.9 1174.52,1365.74 1176.54,1365.73 1178.55,1365.84 1180.57,1365.53 1182.58,1365.92 1184.6,1365.53 1186.61,1365.97 1188.62,1366.32 1190.64,1366.85 1192.65,1366.87 1194.67,1367 1196.68,1366.7 1198.69,1366.89 1200.71,1366.86 1202.72,1366.9 1204.74,1367.38 1206.75,1367.75 1208.77,1367.68 1210.78,1367.64 1212.79,1367.72 1214.81,1367.49 1216.82,1367.82 1218.84,1367.98 1220.85,1368.27 1222.86,1368.31 1224.88,1368.65 1226.89,1368.4 1228.91,1368.02 1230.92,1368.13 1232.94,1368.08 1234.95,1368.03 1236.96,1368.07 1238.98,1368.05 1240.99,1368.05 1243.01,1368.21 1245.02,1368.4 1247.03,1368.31 1249.05,1367.96 1251.06,1367.78 1253.08,1367.26 1255.09,1367.31 1257.11,1367.33 1259.12,1367.37 1261.13,1367.08 1263.15,1367.65 1265.16,1367.97 1267.18,1368.21 1269.19,1368.16 1271.2,1368.48 1273.22,1368.95 1275.23,1369.19 1277.25,1369.15 1279.26,1369.45 1281.28,1369.4 1283.29,1369.28 1285.3,1369.29 1287.32,1369.35 1289.33,1369.4 1291.35,1369.56 1293.36,1369.68 1295.37,1369.76 1297.39,1369.95 1299.4,1370.19 1301.42,1369.71 1303.43,1369.66 1305.45,1369.5 1307.46,1369.61 1309.47,1369.74 1311.49,1369.71 1313.5,1369.62 1315.52,1369.71 1317.53,1369.86 1319.54,1369.53 1321.56,1368.85 1323.57,1368.94 1325.59,1369.15 1327.6,1368.88 1329.62,1368.77 1331.63,1369.07 1333.64,1369.16 1335.66,1369.29 1337.67,1369.25 1339.69,1369.38 1341.7,1369.47 1343.72,1369.54 1345.73,1369.77 1347.74,1370.2 1349.76,1370.21 1351.77,1370.31 1353.79,1370.37 1355.8,1370.18 1357.81,1370.11 1359.83,1369.97 1361.84,1370.23 1363.86,1370.34 1365.87,1370.38 1367.89,1370.38 1369.9,1370.43 1371.91,1370.48 1373.93,1370.67 1375.94,1370.36 1377.96,1370.25 1379.97,1370.27 1381.98,1370.12 1384,1370.47 1386.01,1370.81 1388.03,1370.89 1390.04,1370.9 1392.06,1370.67 1394.07,1370.79 1396.08,1371.06 1398.1,1370.95 1400.11,1370.72 1402.13,1370.57 1404.14,1370.73 1406.15,1370.93 1408.17,1370.69 1410.18,1370.48 1412.2,1370.47 1414.21,1370.32 1416.23,1370.67 1418.24,1370.86 1420.25,1370.69 1422.27,1370.88 1424.28,1371.03 1426.3,1370.89 1428.31,1371.12 1430.32,1371.41 1432.34,1371.38 1434.35,1371.28 1436.37,1371.49 1438.38,1371.74 1440.4,1371.83 1442.41,1371.62 1444.42,1371.65 1446.44,1371.79 1448.45,1372.02 1450.47,1372.32 1452.48,1372.32 1454.49,1372.41 1456.51,1372.67 1458.52,1372.85 1460.54,1372.86 1462.55,1372.79 1464.57,1372.86 1466.58,1372.74 1468.59,1372.21 1470.61,1372.41 1472.62,1372.56 1474.64,1372.61 1476.65,1372.83 1478.66,1372.98 1480.68,1373.12 1482.69,1373.05 1484.71,1373.23 1486.72,1373.16 1488.74,1373.3 1490.75,1373.42 1492.76,1373.44 1494.78,1373.49 1496.79,1373.56 1498.81,1373.18 1500.82,1373.4 1502.83,1372.84 1504.85,1372.84 1506.86,1372.6 1508.88,1372.47 1510.89,1372.45 1512.91,1372.4 1514.92,1372 1516.93,1371.98 1518.95,1371.98 1520.96,1372.08 1522.98,1372.04 1524.99,1371.97 1527,1372.33 1529.02,1372.22 1531.03,1372.41 1533.05,1372.41 1535.06,1371.71 1537.08,1371.6 1539.09,1371.82 1541.1,1371.75 1543.12,1372.03 1545.13,1372.11 1547.15,1371.81 1549.16,1371.91 1551.17,1372.03 1553.19,1372.2 1555.2,1371.9 1557.22,1371.92 1559.23,1372.29 1561.25,1372.16 1563.26,1372.31 1565.27,1372.51 1567.29,1372.36 1569.3,1372.26 1571.32,1372.23 1573.33,1372.12 1575.35,1372.38 1577.36,1372.63 1579.37,1372.75 1581.39,1372.94 1583.4,1372.86 1585.42,1372.8 1587.43,1372.89 1589.44,1373.01 1591.46,1372.78 1593.47,1373.08 1595.49,1373.16 1597.5,1373.13 1599.52,1372.82 1601.53,1373.25 1603.54,1373.3 1605.56,1373.51 1607.57,1373.48 1609.59,1373.53 1611.6,1373.54 1613.61,1373.6 1615.63,1373.4 1617.64,1373.4 1619.66,1373.6 1621.67,1373.73 1623.69,1373.62 1625.7,1374.29 1627.71,1374.15 1629.73,1374.37 1631.74,1374.39 1633.76,1374.56 1635.77,1374.75 1637.78,1374.92 1639.8,1374.83 1641.81,1374.64 1643.83,1374.64 1645.84,1374.53 1647.86,1374.75 1649.87,1374.69 1651.88,1374.83 1653.9,1374.75 1655.91,1374.84 1657.93,1374.79 1659.94,1374.99 1661.95,1374.88 1663.97,1374.97 1665.98,1375.06 1668,1375.12 1670.01,1375.21 1672.03,1375.36 1674.04,1375.32 1676.05,1375.54 1678.07,1375.43 1680.08,1375.22 1682.1,1375.63 1684.11,1376.05 1686.12,1376.27 1688.14,1376.29 1690.15,1376.28 1692.17,1376.18 1694.18,1376.49 1696.2,1376.63 1698.21,1376.63 1700.22,1376.91 1702.24,1377.09 1704.25,1377.28 1706.27,1377.68 1708.28,1377.94 1710.29,1378.06 1712.31,1378.18 1714.32,1377.93 1716.34,1377.97 1718.35,1377.5 1720.37,1377.77 1722.38,1378.09 1724.39,1378.4 1726.41,1378.54 1728.42,1378.41 1730.44,1378.66 1732.45,1378.99 1734.46,1379 1736.48,1378.83 1738.49,1378.94 1740.51,1379.16 1742.52,1379.1 1744.54,1379.22 1746.55,1379.25 1748.56,1379.16 1750.58,1379.04 1752.59,1379.18 1754.61,1378.99 1756.62,1379.18 1758.63,1379.22 1760.65,1379.33 1762.66,1379.46 1764.68,1379.76 1766.69,1379.61 1768.71,1379.58 1770.72,1379.63 1772.73,1379.86 1774.75,1379.8 1776.76,1379.81 1778.78,1379.93 1780.79,1379.77 1782.81,1379.87 1784.82,1379.65 1786.83,1379.94 1788.85,1380 1790.86,1380.15 1792.88,1380.2 1794.89,1380.26 1796.9,1380.16 1798.92,1380.14 1800.93,1380.13 1802.95,1380.03 1804.96,1379.96 1806.98,1379.92 1808.99,1380.06 1811,1379.96 1813.02,1380.14 1815.03,1380.11 1817.05,1380.51 1819.06,1380.65 1821.07,1381.14 1823.09,1381.49 1825.1,1381.23 1827.12,1380.68 1829.13,1380.79 1831.15,1380.93 1833.16,1381 1835.17,1381.22 1837.19,1382.09 1839.2,1381.49 1841.22,1381.46 1843.23,1381.99 1845.24,1382.24 1847.26,1382.39 1849.27,1381.78 1851.29,1381.44 1853.3,1381.28 1855.32,1381.83 1857.33,1382.28 1859.34,1381.93 1861.36,1382.2 1863.37,1381.52 1865.39,1381.8 1867.4,1381.95 1869.41,1382.22 1871.43,1382.14 1873.44,1382.57 1875.46,1382.75 1877.47,1382.73 1879.49,1383 1881.5,1382.91 1883.51,1383.25 1885.53,1382.92 1887.54,1383.28 1889.56,1383.49 1891.57,1383.76 1893.58,1383.8 1895.6,1383.82 1897.61,1383.82 1899.63,1383.82 1901.64,1383.91 1903.66,1383.95 1905.67,1383.76 1907.68,1383.81 1909.7,1383.91 1911.71,1383.97 1913.73,1384.01 1915.74,1383.98 1917.75,1383.93 1919.77,1384 1921.78,1383.98 1923.8,1383.93 1925.81,1384 1927.83,1384.02 1929.84,1384.16 1931.85,1384.09 1933.87,1384.02 1935.88,1383.85 1937.9,1384 1939.91,1383.97 1941.92,1384.02 1943.94,1383.99 1945.95,1384.01 1947.97,1384.03 1949.98,1383.96 1952,1383.91 1954.01,1383.95 1956.02,1384.01 1958.04,1383.98 1960.05,1383.97 1962.07,1383.92 1964.08,1383.98 1966.09,1383.88 1968.11,1383.86 1970.12,1383.85 1972.14,1383.88 1974.15,1383.95 1976.17,1384.02 1978.18,1384.01 1980.19,1384.03 1982.21,1384.05 1984.22,1383.92 1986.24,1384 1988.25,1383.92 1990.26,1384.05 1992.28,1383.93 1994.29,1384.05 1996.31,1383.97 1998.32,1383.92 2000.34,1383.96 2002.35,1383.87 2004.36,1383.93 2006.38,1383.93 2008.39,1383.9 2010.41,1383.76 2012.42,1383.86 2014.44,1383.73 2016.45,1383.69 2018.46,1383.69 2020.48,1383.63 2022.49,1383.6 2024.51,1383.51 2026.52,1383.63 2028.53,1383.7 2030.55,1383.6 2032.56,1383.53 2034.58,1383.45 2036.59,1383.37 2038.61,1383.53 2040.62,1383.55 2042.63,1383.52 2044.65,1383.57 2046.66,1383.58 2048.68,1383.54 2050.69,1383.52 2052.7,1383.53 2054.72,1383.61 2056.73,1383.73 2058.75,1383.7 2060.76,1383.76 2062.78,1383.7 2064.79,1383.69 2066.8,1383.69 2068.82,1383.57 2070.83,1383.52 2072.85,1383.68 2074.86,1383.79 2076.87,1383.79 2078.89,1383.74 2080.9,1383.7 2082.92,1383.67 2084.93,1383.61 2086.95,1383.67 2088.96,1383.63 2090.97,1383.65 2092.99,1383.54 2095,1383.6 2097.02,1383.63 2099.03,1383.76 2101.04,1383.77 2103.06,1383.77 2105.07,1383.56 2107.09,1383.5 2109.1,1383.48 2111.12,1383.64 2113.13,1383.74 2115.14,1383.63 2117.16,1383.63 2119.17,1383.58 2121.19,1383.6 2123.2,1383.65 2125.21,1383.63 2127.23,1383.68 2129.24,1383.63 2131.26,1383.73 2133.27,1383.66 2135.29,1383.85 2137.3,1383.84 2139.31,1383.82 2141.33,1383.73 2143.34,1383.69 2145.36,1383.66 2147.37,1383.66 2149.38,1383.68 2151.4,1383.64 2153.41,1383.73 2155.43,1383.73 2157.44,1383.67 2159.46,1383.69 2161.47,1383.61 2163.48,1383.79 2165.5,1383.84 2167.51,1383.89 2169.53,1383.92 2171.54,1383.95 2173.55,1383.85 2175.57,1383.78 2177.58,1383.94 2179.6,1384.03 2181.61,1384.01 2183.63,1384.14 2185.64,1384.15 2187.65,1384.13 2189.67,1384.1 2191.68,1384.07 2193.7,1384.12 2195.71,1384.11 2197.72,1384.14 2199.74,1384.06 2201.75,1384.1 2203.77,1384.16 2205.78,1384.24 2207.8,1384.16 2209.81,1384.11 2211.82,1384.05 2213.84,1384.05 2215.85,1384.21 2217.87,1384.16 2219.88,1384.11 2221.9,1384.02 2223.91,1384.11 2225.92,1384.01 2227.94,1384 2229.95,1383.91 2231.97,1383.85 2233.98,1383.83 2235.99,1383.82 2238.01,1383.77 2240.02,1383.77 2242.04,1383.71 2244.05,1383.66 2246.07,1383.57 2248.08,1383.58 2250.09,1383.66 2252.11,1383.55 2254.12,1383.51 2256.14,1383.51 2258.15,1383.54 2260.16,1383.68 2262.18,1383.57 2264.19,1383.59 2266.21,1383.58 2268.22,1383.63 2270.24,1383.59 2272.25,1383.56 2274.26,1383.54 2276.28,1383.48 2278.29,1383.54 2280.31,1383.49 2282.32,1383.64 2284.33,1383.58 2286.35,1383.6 2288.36,1383.59 2290.38,1383.56 2292.39,1383.58 "/>
<path clip-path="url(#clip660)" d="M1521.64 248.629 L2281.66 248.629 L2281.66 93.1086 L1521.64 93.1086  Z" fill="#ffffff" fill-rule="evenodd" fill-opacity="1"/>
<polyline clip-path="url(#clip660)" style="stroke:#000000; stroke-linecap:round; stroke-linejoin:round; stroke-width:4; stroke-opacity:1; fill:none" points="1521.64,248.629 2281.66,248.629 2281.66,93.1086 1521.64,93.1086 1521.64,248.629 "/>
<polyline clip-path="url(#clip660)" style="stroke:#009af9; stroke-linecap:round; stroke-linejoin:round; stroke-width:4; stroke-opacity:1; fill:none" points="1545.34,144.949 1687.53,144.949 "/>
<path clip-path="url(#clip660)" d="M1711.23 127.669 L1718.2 127.669 L1727.01 151.187 L1735.88 127.669 L1742.85 127.669 L1742.85 162.229 L1738.29 162.229 L1738.29 131.882 L1729.38 155.585 L1724.68 155.585 L1715.76 131.882 L1715.76 162.229 L1711.23 162.229 L1711.23 127.669 Z" fill="#000000" fill-rule="nonzero" fill-opacity="1" /><path clip-path="url(#clip660)" d="M1751.51 151.997 L1751.51 136.303 L1755.76 136.303 L1755.76 151.835 Q1755.76 155.516 1757.2 157.368 Q1758.63 159.196 1761.51 159.196 Q1764.95 159.196 1766.94 156.997 Q1768.96 154.798 1768.96 151.002 L1768.96 136.303 L1773.22 136.303 L1773.22 162.229 L1768.96 162.229 L1768.96 158.247 Q1767.41 160.608 1765.35 161.766 Q1763.31 162.9 1760.6 162.9 Q1756.13 162.9 1753.82 160.122 Q1751.51 157.344 1751.51 151.997 M1762.22 135.678 L1762.22 135.678 Z" fill="#000000" fill-rule="nonzero" fill-opacity="1" /><path clip-path="url(#clip660)" d="M1781.99 126.21 L1786.25 126.21 L1786.25 162.229 L1781.99 162.229 L1781.99 126.21 Z" fill="#000000" fill-rule="nonzero" fill-opacity="1" /><path clip-path="url(#clip660)" d="M1799.38 128.942 L1799.38 136.303 L1808.15 136.303 L1808.15 139.613 L1799.38 139.613 L1799.38 153.687 Q1799.38 156.858 1800.23 157.761 Q1801.11 158.664 1803.77 158.664 L1808.15 158.664 L1808.15 162.229 L1803.77 162.229 Q1798.84 162.229 1796.97 160.4 Q1795.09 158.548 1795.09 153.687 L1795.09 139.613 L1791.97 139.613 L1791.97 136.303 L1795.09 136.303 L1795.09 128.942 L1799.38 128.942 Z" fill="#000000" fill-rule="nonzero" fill-opacity="1" /><path clip-path="url(#clip660)" d="M1813.75 136.303 L1818.01 136.303 L1818.01 162.229 L1813.75 162.229 L1813.75 136.303 M1813.75 126.21 L1818.01 126.21 L1818.01 131.604 L1813.75 131.604 L1813.75 126.21 Z" fill="#000000" fill-rule="nonzero" fill-opacity="1" /><path clip-path="url(#clip660)" d="M1848.47 146.581 L1848.47 162.229 L1844.21 162.229 L1844.21 146.719 Q1844.21 143.039 1842.78 141.21 Q1841.34 139.382 1838.47 139.382 Q1835.02 139.382 1833.03 141.581 Q1831.04 143.78 1831.04 147.576 L1831.04 162.229 L1826.76 162.229 L1826.76 136.303 L1831.04 136.303 L1831.04 140.331 Q1832.57 137.993 1834.63 136.835 Q1836.71 135.678 1839.42 135.678 Q1843.89 135.678 1846.18 138.456 Q1848.47 141.21 1848.47 146.581 Z" fill="#000000" fill-rule="nonzero" fill-opacity="1" /><path clip-path="url(#clip660)" d="M1867.01 139.289 Q1863.59 139.289 1861.6 141.974 Q1859.61 144.636 1859.61 149.289 Q1859.61 153.942 1861.57 156.627 Q1863.56 159.289 1867.01 159.289 Q1870.42 159.289 1872.41 156.604 Q1874.4 153.918 1874.4 149.289 Q1874.4 144.682 1872.41 141.997 Q1870.42 139.289 1867.01 139.289 M1867.01 135.678 Q1872.57 135.678 1875.74 139.289 Q1878.91 142.9 1878.91 149.289 Q1878.91 155.655 1875.74 159.289 Q1872.57 162.9 1867.01 162.9 Q1861.44 162.9 1858.26 159.289 Q1855.12 155.655 1855.12 149.289 Q1855.12 142.9 1858.26 139.289 Q1861.44 135.678 1867.01 135.678 Z" fill="#000000" fill-rule="nonzero" fill-opacity="1" /><path clip-path="url(#clip660)" d="M1906.16 141.28 Q1907.75 138.409 1909.98 137.044 Q1912.2 135.678 1915.21 135.678 Q1919.26 135.678 1921.46 138.525 Q1923.66 141.349 1923.66 146.581 L1923.66 162.229 L1919.37 162.229 L1919.37 146.719 Q1919.37 142.993 1918.06 141.187 Q1916.74 139.382 1914.03 139.382 Q1910.72 139.382 1908.8 141.581 Q1906.87 143.78 1906.87 147.576 L1906.87 162.229 L1902.59 162.229 L1902.59 146.719 Q1902.59 142.969 1901.27 141.187 Q1899.95 139.382 1897.2 139.382 Q1893.93 139.382 1892.01 141.604 Q1890.09 143.803 1890.09 147.576 L1890.09 162.229 L1885.81 162.229 L1885.81 136.303 L1890.09 136.303 L1890.09 140.331 Q1891.55 137.946 1893.59 136.812 Q1895.62 135.678 1898.43 135.678 Q1901.25 135.678 1903.22 137.113 Q1905.21 138.548 1906.16 141.28 Z" fill="#000000" fill-rule="nonzero" fill-opacity="1" /><path clip-path="url(#clip660)" d="M1932.15 136.303 L1936.41 136.303 L1936.41 162.229 L1932.15 162.229 L1932.15 136.303 M1932.15 126.21 L1936.41 126.21 L1936.41 131.604 L1932.15 131.604 L1932.15 126.21 Z" fill="#000000" fill-rule="nonzero" fill-opacity="1" /><path clip-path="url(#clip660)" d="M1957.11 149.196 Q1951.94 149.196 1949.95 150.377 Q1947.96 151.557 1947.96 154.405 Q1947.96 156.673 1949.44 158.016 Q1950.95 159.335 1953.52 159.335 Q1957.06 159.335 1959.19 156.835 Q1961.34 154.312 1961.34 150.145 L1961.34 149.196 L1957.11 149.196 M1965.6 147.437 L1965.6 162.229 L1961.34 162.229 L1961.34 158.293 Q1959.88 160.655 1957.71 161.789 Q1955.53 162.9 1952.38 162.9 Q1948.4 162.9 1946.04 160.678 Q1943.7 158.432 1943.7 154.682 Q1943.7 150.307 1946.62 148.085 Q1949.56 145.863 1955.37 145.863 L1961.34 145.863 L1961.34 145.446 Q1961.34 142.507 1959.4 140.909 Q1957.48 139.289 1953.98 139.289 Q1951.76 139.289 1949.65 139.821 Q1947.55 140.354 1945.6 141.419 L1945.6 137.483 Q1947.94 136.581 1950.14 136.141 Q1952.34 135.678 1954.42 135.678 Q1960.05 135.678 1962.82 138.594 Q1965.6 141.511 1965.6 147.437 Z" fill="#000000" fill-rule="nonzero" fill-opacity="1" /><path clip-path="url(#clip660)" d="M1974.37 126.21 L1978.63 126.21 L1978.63 162.229 L1974.37 162.229 L1974.37 126.21 Z" fill="#000000" fill-rule="nonzero" fill-opacity="1" /><path clip-path="url(#clip660)" d="M2017.64 140.284 Q2016.92 139.868 2016.06 139.682 Q2015.23 139.474 2014.21 139.474 Q2010.6 139.474 2008.66 141.835 Q2006.74 144.173 2006.74 148.571 L2006.74 162.229 L2002.45 162.229 L2002.45 136.303 L2006.74 136.303 L2006.74 140.331 Q2008.08 137.969 2010.23 136.835 Q2012.38 135.678 2015.46 135.678 Q2015.9 135.678 2016.43 135.747 Q2016.97 135.794 2017.61 135.909 L2017.64 140.284 Z" fill="#000000" fill-rule="nonzero" fill-opacity="1" /><path clip-path="url(#clip660)" d="M2043.24 148.201 L2043.24 150.284 L2023.66 150.284 Q2023.93 154.682 2026.3 156.997 Q2028.68 159.289 2032.92 159.289 Q2035.37 159.289 2037.66 158.687 Q2039.98 158.085 2042.24 156.881 L2042.24 160.909 Q2039.95 161.881 2037.55 162.391 Q2035.14 162.9 2032.66 162.9 Q2026.46 162.9 2022.82 159.289 Q2019.21 155.678 2019.21 149.52 Q2019.21 143.155 2022.64 139.428 Q2026.09 135.678 2031.92 135.678 Q2037.15 135.678 2040.18 139.057 Q2043.24 142.414 2043.24 148.201 M2038.98 146.951 Q2038.93 143.456 2037.01 141.372 Q2035.11 139.289 2031.97 139.289 Q2028.4 139.289 2026.25 141.303 Q2024.12 143.317 2023.8 146.974 L2038.98 146.951 Z" fill="#000000" fill-rule="nonzero" fill-opacity="1" /><path clip-path="url(#clip660)" d="M2066.76 137.067 L2066.76 141.094 Q2064.95 140.169 2063.01 139.706 Q2061.06 139.243 2058.98 139.243 Q2055.81 139.243 2054.21 140.215 Q2052.64 141.187 2052.64 143.131 Q2052.64 144.613 2053.77 145.469 Q2054.91 146.303 2058.33 147.067 L2059.79 147.391 Q2064.33 148.363 2066.23 150.145 Q2068.15 151.905 2068.15 155.076 Q2068.15 158.687 2065.28 160.793 Q2062.43 162.9 2057.43 162.9 Q2055.35 162.9 2053.08 162.483 Q2050.83 162.09 2048.33 161.28 L2048.33 156.881 Q2050.69 158.108 2052.99 158.733 Q2055.28 159.335 2057.52 159.335 Q2060.53 159.335 2062.15 158.317 Q2063.77 157.275 2063.77 155.4 Q2063.77 153.664 2062.59 152.738 Q2061.43 151.812 2057.48 150.956 L2055.99 150.608 Q2052.04 149.775 2050.28 148.062 Q2048.52 146.326 2048.52 143.317 Q2048.52 139.659 2051.11 137.669 Q2053.7 135.678 2058.47 135.678 Q2060.83 135.678 2062.92 136.025 Q2065 136.372 2066.76 137.067 Z" fill="#000000" fill-rule="nonzero" fill-opacity="1" /><path clip-path="url(#clip660)" d="M2086.71 149.196 Q2081.55 149.196 2079.56 150.377 Q2077.57 151.557 2077.57 154.405 Q2077.57 156.673 2079.05 158.016 Q2080.55 159.335 2083.12 159.335 Q2086.67 159.335 2088.8 156.835 Q2090.95 154.312 2090.95 150.145 L2090.95 149.196 L2086.71 149.196 M2095.21 147.437 L2095.21 162.229 L2090.95 162.229 L2090.95 158.293 Q2089.49 160.655 2087.31 161.789 Q2085.14 162.9 2081.99 162.9 Q2078.01 162.9 2075.65 160.678 Q2073.31 158.432 2073.31 154.682 Q2073.31 150.307 2076.23 148.085 Q2079.17 145.863 2084.98 145.863 L2090.95 145.863 L2090.95 145.446 Q2090.95 142.507 2089 140.909 Q2087.08 139.289 2083.59 139.289 Q2081.36 139.289 2079.26 139.821 Q2077.15 140.354 2075.21 141.419 L2075.21 137.483 Q2077.55 136.581 2079.74 136.141 Q2081.94 135.678 2084.03 135.678 Q2089.65 135.678 2092.43 138.594 Q2095.21 141.511 2095.21 147.437 Z" fill="#000000" fill-rule="nonzero" fill-opacity="1" /><path clip-path="url(#clip660)" d="M2124.17 141.28 Q2125.76 138.409 2127.98 137.044 Q2130.21 135.678 2133.22 135.678 Q2137.27 135.678 2139.47 138.525 Q2141.67 141.349 2141.67 146.581 L2141.67 162.229 L2137.38 162.229 L2137.38 146.719 Q2137.38 142.993 2136.06 141.187 Q2134.74 139.382 2132.04 139.382 Q2128.73 139.382 2126.8 141.581 Q2124.88 143.78 2124.88 147.576 L2124.88 162.229 L2120.6 162.229 L2120.6 146.719 Q2120.6 142.969 2119.28 141.187 Q2117.96 139.382 2115.21 139.382 Q2111.94 139.382 2110.02 141.604 Q2108.1 143.803 2108.1 147.576 L2108.1 162.229 L2103.82 162.229 L2103.82 136.303 L2108.1 136.303 L2108.1 140.331 Q2109.56 137.946 2111.6 136.812 Q2113.63 135.678 2116.43 135.678 Q2119.26 135.678 2121.23 137.113 Q2123.22 138.548 2124.17 141.28 Z" fill="#000000" fill-rule="nonzero" fill-opacity="1" /><path clip-path="url(#clip660)" d="M2154.28 158.34 L2154.28 172.09 L2150 172.09 L2150 136.303 L2154.28 136.303 L2154.28 140.238 Q2155.62 137.923 2157.66 136.812 Q2159.72 135.678 2162.57 135.678 Q2167.29 135.678 2170.23 139.428 Q2173.19 143.178 2173.19 149.289 Q2173.19 155.4 2170.23 159.15 Q2167.29 162.9 2162.57 162.9 Q2159.72 162.9 2157.66 161.789 Q2155.62 160.655 2154.28 158.34 M2168.77 149.289 Q2168.77 144.59 2166.83 141.928 Q2164.91 139.243 2161.53 139.243 Q2158.15 139.243 2156.2 141.928 Q2154.28 144.59 2154.28 149.289 Q2154.28 153.988 2156.2 156.673 Q2158.15 159.335 2161.53 159.335 Q2164.91 159.335 2166.83 156.673 Q2168.77 153.988 2168.77 149.289 Z" fill="#000000" fill-rule="nonzero" fill-opacity="1" /><path clip-path="url(#clip660)" d="M2180.25 126.21 L2184.51 126.21 L2184.51 162.229 L2180.25 162.229 L2180.25 126.21 Z" fill="#000000" fill-rule="nonzero" fill-opacity="1" /><path clip-path="url(#clip660)" d="M2193.42 136.303 L2197.68 136.303 L2197.68 162.229 L2193.42 162.229 L2193.42 136.303 M2193.42 126.21 L2197.68 126.21 L2197.68 131.604 L2193.42 131.604 L2193.42 126.21 Z" fill="#000000" fill-rule="nonzero" fill-opacity="1" /><path clip-path="url(#clip660)" d="M2228.15 146.581 L2228.15 162.229 L2223.89 162.229 L2223.89 146.719 Q2223.89 143.039 2222.45 141.21 Q2221.02 139.382 2218.15 139.382 Q2214.7 139.382 2212.71 141.581 Q2210.72 143.78 2210.72 147.576 L2210.72 162.229 L2206.43 162.229 L2206.43 136.303 L2210.72 136.303 L2210.72 140.331 Q2212.24 137.993 2214.3 136.835 Q2216.39 135.678 2219.1 135.678 Q2223.56 135.678 2225.85 138.456 Q2228.15 141.21 2228.15 146.581 Z" fill="#000000" fill-rule="nonzero" fill-opacity="1" /><path clip-path="url(#clip660)" d="M2253.7 148.965 Q2253.7 144.335 2251.78 141.789 Q2249.88 139.243 2246.43 139.243 Q2243.01 139.243 2241.09 141.789 Q2239.19 144.335 2239.19 148.965 Q2239.19 153.571 2241.09 156.118 Q2243.01 158.664 2246.43 158.664 Q2249.88 158.664 2251.78 156.118 Q2253.7 153.571 2253.7 148.965 M2257.96 159.011 Q2257.96 165.631 2255.02 168.849 Q2252.08 172.09 2246.02 172.09 Q2243.77 172.09 2241.78 171.742 Q2239.79 171.418 2237.91 170.724 L2237.91 166.58 Q2239.79 167.599 2241.62 168.085 Q2243.45 168.571 2245.35 168.571 Q2249.53 168.571 2251.62 166.372 Q2253.7 164.196 2253.7 159.775 L2253.7 157.668 Q2252.38 159.96 2250.32 161.094 Q2248.26 162.229 2245.39 162.229 Q2240.62 162.229 2237.71 158.594 Q2234.79 154.96 2234.79 148.965 Q2234.79 142.946 2237.71 139.312 Q2240.62 135.678 2245.39 135.678 Q2248.26 135.678 2250.32 136.812 Q2252.38 137.946 2253.7 140.238 L2253.7 136.303 L2257.96 136.303 L2257.96 159.011 Z" fill="#000000" fill-rule="nonzero" fill-opacity="1" /><polyline clip-path="url(#clip660)" style="stroke:#e26f46; stroke-linecap:round; stroke-linejoin:round; stroke-width:4; stroke-opacity:1; fill:none" points="1545.34,196.789 1687.53,196.789 "/>
<path clip-path="url(#clip660)" d="M1733.47 180.643 L1733.47 185.203 Q1730.81 183.93 1728.45 183.305 Q1726.09 182.68 1723.89 182.68 Q1720.07 182.68 1717.99 184.161 Q1715.93 185.643 1715.93 188.374 Q1715.93 190.666 1717.29 191.847 Q1718.68 193.004 1722.52 193.722 L1725.35 194.3 Q1730.58 195.296 1733.06 197.819 Q1735.56 200.319 1735.56 204.532 Q1735.56 209.555 1732.18 212.147 Q1728.82 214.74 1722.32 214.74 Q1719.86 214.74 1717.08 214.184 Q1714.33 213.629 1711.37 212.541 L1711.37 207.726 Q1714.21 209.323 1716.95 210.133 Q1719.68 210.944 1722.32 210.944 Q1726.32 210.944 1728.5 209.37 Q1730.67 207.796 1730.67 204.879 Q1730.67 202.333 1729.1 200.897 Q1727.55 199.462 1723.98 198.745 L1721.13 198.189 Q1715.9 197.147 1713.57 194.925 Q1711.23 192.703 1711.23 188.745 Q1711.23 184.161 1714.45 181.522 Q1717.69 178.884 1723.36 178.884 Q1725.79 178.884 1728.31 179.323 Q1730.83 179.763 1733.47 180.643 Z" fill="#000000" fill-rule="nonzero" fill-opacity="1" /><path clip-path="url(#clip660)" d="M1746.88 180.782 L1746.88 188.143 L1755.65 188.143 L1755.65 191.453 L1746.88 191.453 L1746.88 205.527 Q1746.88 208.698 1747.73 209.601 Q1748.61 210.504 1751.27 210.504 L1755.65 210.504 L1755.65 214.069 L1751.27 214.069 Q1746.34 214.069 1744.47 212.24 Q1742.59 210.388 1742.59 205.527 L1742.59 191.453 L1739.47 191.453 L1739.47 188.143 L1742.59 188.143 L1742.59 180.782 L1746.88 180.782 Z" fill="#000000" fill-rule="nonzero" fill-opacity="1" /><path clip-path="url(#clip660)" d="M1776.27 192.124 Q1775.56 191.708 1774.7 191.522 Q1773.87 191.314 1772.85 191.314 Q1769.24 191.314 1767.29 193.675 Q1765.37 196.013 1765.37 200.411 L1765.37 214.069 L1761.09 214.069 L1761.09 188.143 L1765.37 188.143 L1765.37 192.171 Q1766.71 189.809 1768.87 188.675 Q1771.02 187.518 1774.1 187.518 Q1774.54 187.518 1775.07 187.587 Q1775.6 187.634 1776.25 187.749 L1776.27 192.124 Z" fill="#000000" fill-rule="nonzero" fill-opacity="1" /><path clip-path="url(#clip660)" d="M1792.52 201.036 Q1787.36 201.036 1785.37 202.217 Q1783.38 203.397 1783.38 206.245 Q1783.38 208.513 1784.86 209.856 Q1786.37 211.175 1788.94 211.175 Q1792.48 211.175 1794.61 208.675 Q1796.76 206.152 1796.76 201.985 L1796.76 201.036 L1792.52 201.036 M1801.02 199.277 L1801.02 214.069 L1796.76 214.069 L1796.76 210.133 Q1795.3 212.495 1793.13 213.629 Q1790.95 214.74 1787.8 214.74 Q1783.82 214.74 1781.46 212.518 Q1779.12 210.272 1779.12 206.522 Q1779.12 202.147 1782.04 199.925 Q1784.98 197.703 1790.79 197.703 L1796.76 197.703 L1796.76 197.286 Q1796.76 194.347 1794.82 192.749 Q1792.89 191.129 1789.4 191.129 Q1787.18 191.129 1785.07 191.661 Q1782.96 192.194 1781.02 193.259 L1781.02 189.323 Q1783.36 188.421 1785.56 187.981 Q1787.75 187.518 1789.84 187.518 Q1795.46 187.518 1798.24 190.434 Q1801.02 193.351 1801.02 199.277 Z" fill="#000000" fill-rule="nonzero" fill-opacity="1" /><path clip-path="url(#clip660)" d="M1814 180.782 L1814 188.143 L1822.78 188.143 L1822.78 191.453 L1814 191.453 L1814 205.527 Q1814 208.698 1814.86 209.601 Q1815.74 210.504 1818.4 210.504 L1822.78 210.504 L1822.78 214.069 L1818.4 214.069 Q1813.47 214.069 1811.6 212.24 Q1809.72 210.388 1809.72 205.527 L1809.72 191.453 L1806.6 191.453 L1806.6 188.143 L1809.72 188.143 L1809.72 180.782 L1814 180.782 Z" fill="#000000" fill-rule="nonzero" fill-opacity="1" /><path clip-path="url(#clip660)" d="M1828.38 188.143 L1832.64 188.143 L1832.64 214.069 L1828.38 214.069 L1828.38 188.143 M1828.38 178.05 L1832.64 178.05 L1832.64 183.444 L1828.38 183.444 L1828.38 178.05 Z" fill="#000000" fill-rule="nonzero" fill-opacity="1" /><path clip-path="url(#clip660)" d="M1854.68 178.05 L1854.68 181.592 L1850.6 181.592 Q1848.31 181.592 1847.41 182.518 Q1846.53 183.444 1846.53 185.851 L1846.53 188.143 L1853.54 188.143 L1853.54 191.453 L1846.53 191.453 L1846.53 214.069 L1842.25 214.069 L1842.25 191.453 L1838.17 191.453 L1838.17 188.143 L1842.25 188.143 L1842.25 186.337 Q1842.25 182.009 1844.26 180.041 Q1846.27 178.05 1850.65 178.05 L1854.68 178.05 Z" fill="#000000" fill-rule="nonzero" fill-opacity="1" /><path clip-path="url(#clip660)" d="M1858.24 188.143 L1862.5 188.143 L1862.5 214.069 L1858.24 214.069 L1858.24 188.143 M1858.24 178.05 L1862.5 178.05 L1862.5 183.444 L1858.24 183.444 L1858.24 178.05 Z" fill="#000000" fill-rule="nonzero" fill-opacity="1" /><path clip-path="url(#clip660)" d="M1893.59 200.041 L1893.59 202.124 L1874 202.124 Q1874.28 206.522 1876.64 208.837 Q1879.03 211.129 1883.26 211.129 Q1885.72 211.129 1888.01 210.527 Q1890.32 209.925 1892.59 208.721 L1892.59 212.749 Q1890.3 213.721 1887.89 214.231 Q1885.49 214.74 1883.01 214.74 Q1876.81 214.74 1873.17 211.129 Q1869.56 207.518 1869.56 201.36 Q1869.56 194.995 1872.99 191.268 Q1876.44 187.518 1882.27 187.518 Q1887.5 187.518 1890.53 190.897 Q1893.59 194.254 1893.59 200.041 M1889.33 198.791 Q1889.28 195.296 1887.36 193.212 Q1885.46 191.129 1882.31 191.129 Q1878.75 191.129 1876.6 193.143 Q1874.47 195.157 1874.14 198.814 L1889.33 198.791 Z" fill="#000000" fill-rule="nonzero" fill-opacity="1" /><path clip-path="url(#clip660)" d="M1917.64 192.078 L1917.64 178.05 L1921.9 178.05 L1921.9 214.069 L1917.64 214.069 L1917.64 210.18 Q1916.3 212.495 1914.24 213.629 Q1912.2 214.74 1909.33 214.74 Q1904.63 214.74 1901.67 210.99 Q1898.73 207.24 1898.73 201.129 Q1898.73 195.018 1901.67 191.268 Q1904.63 187.518 1909.33 187.518 Q1912.2 187.518 1914.24 188.652 Q1916.3 189.763 1917.64 192.078 M1903.12 201.129 Q1903.12 205.828 1905.05 208.513 Q1906.99 211.175 1910.37 211.175 Q1913.75 211.175 1915.69 208.513 Q1917.64 205.828 1917.64 201.129 Q1917.64 196.43 1915.69 193.768 Q1913.75 191.083 1910.37 191.083 Q1906.99 191.083 1905.05 193.768 Q1903.12 196.43 1903.12 201.129 Z" fill="#000000" fill-rule="nonzero" fill-opacity="1" /><path clip-path="url(#clip660)" d="M1960.76 192.124 Q1960.05 191.708 1959.19 191.522 Q1958.36 191.314 1957.34 191.314 Q1953.73 191.314 1951.78 193.675 Q1949.86 196.013 1949.86 200.411 L1949.86 214.069 L1945.58 214.069 L1945.58 188.143 L1949.86 188.143 L1949.86 192.171 Q1951.2 189.809 1953.36 188.675 Q1955.51 187.518 1958.59 187.518 Q1959.03 187.518 1959.56 187.587 Q1960.09 187.634 1960.74 187.749 L1960.76 192.124 Z" fill="#000000" fill-rule="nonzero" fill-opacity="1" /><path clip-path="url(#clip660)" d="M1986.37 200.041 L1986.37 202.124 L1966.78 202.124 Q1967.06 206.522 1969.42 208.837 Q1971.8 211.129 1976.04 211.129 Q1978.49 211.129 1980.79 210.527 Q1983.1 209.925 1985.37 208.721 L1985.37 212.749 Q1983.08 213.721 1980.67 214.231 Q1978.26 214.74 1975.79 214.74 Q1969.58 214.74 1965.95 211.129 Q1962.34 207.518 1962.34 201.36 Q1962.34 194.995 1965.76 191.268 Q1969.21 187.518 1975.05 187.518 Q1980.28 187.518 1983.31 190.897 Q1986.37 194.254 1986.37 200.041 M1982.11 198.791 Q1982.06 195.296 1980.14 193.212 Q1978.24 191.129 1975.09 191.129 Q1971.53 191.129 1969.37 193.143 Q1967.24 195.157 1966.92 198.814 L1982.11 198.791 Z" fill="#000000" fill-rule="nonzero" fill-opacity="1" /><path clip-path="url(#clip660)" d="M2009.88 188.907 L2009.88 192.934 Q2008.08 192.009 2006.13 191.546 Q2004.19 191.083 2002.11 191.083 Q1998.93 191.083 1997.34 192.055 Q1995.76 193.027 1995.76 194.971 Q1995.76 196.453 1996.9 197.309 Q1998.03 198.143 2001.46 198.907 L2002.92 199.231 Q2007.45 200.203 2009.35 201.985 Q2011.27 203.745 2011.27 206.916 Q2011.27 210.527 2008.4 212.633 Q2005.55 214.74 2000.55 214.74 Q1998.47 214.74 1996.2 214.323 Q1993.96 213.93 1991.46 213.12 L1991.46 208.721 Q1993.82 209.948 1996.11 210.573 Q1998.4 211.175 2000.65 211.175 Q2003.66 211.175 2005.28 210.157 Q2006.9 209.115 2006.9 207.24 Q2006.9 205.504 2005.72 204.578 Q2004.56 203.652 2000.6 202.796 L1999.12 202.448 Q1995.16 201.615 1993.4 199.902 Q1991.64 198.166 1991.64 195.157 Q1991.64 191.499 1994.24 189.509 Q1996.83 187.518 2001.6 187.518 Q2003.96 187.518 2006.04 187.865 Q2008.12 188.212 2009.88 188.907 Z" fill="#000000" fill-rule="nonzero" fill-opacity="1" /><path clip-path="url(#clip660)" d="M2029.84 201.036 Q2024.68 201.036 2022.68 202.217 Q2020.69 203.397 2020.69 206.245 Q2020.69 208.513 2022.18 209.856 Q2023.68 211.175 2026.25 211.175 Q2029.79 211.175 2031.92 208.675 Q2034.07 206.152 2034.07 201.985 L2034.07 201.036 L2029.84 201.036 M2038.33 199.277 L2038.33 214.069 L2034.07 214.069 L2034.07 210.133 Q2032.61 212.495 2030.44 213.629 Q2028.26 214.74 2025.11 214.74 Q2021.13 214.74 2018.77 212.518 Q2016.43 210.272 2016.43 206.522 Q2016.43 202.147 2019.35 199.925 Q2022.29 197.703 2028.1 197.703 L2034.07 197.703 L2034.07 197.286 Q2034.07 194.347 2032.13 192.749 Q2030.21 191.129 2026.71 191.129 Q2024.49 191.129 2022.38 191.661 Q2020.28 192.194 2018.33 193.259 L2018.33 189.323 Q2020.67 188.421 2022.87 187.981 Q2025.07 187.518 2027.15 187.518 Q2032.78 187.518 2035.55 190.434 Q2038.33 193.351 2038.33 199.277 Z" fill="#000000" fill-rule="nonzero" fill-opacity="1" /><path clip-path="url(#clip660)" d="M2067.29 193.12 Q2068.89 190.249 2071.11 188.884 Q2073.33 187.518 2076.34 187.518 Q2080.39 187.518 2082.59 190.365 Q2084.79 193.189 2084.79 198.421 L2084.79 214.069 L2080.51 214.069 L2080.51 198.559 Q2080.51 194.833 2079.19 193.027 Q2077.87 191.222 2075.16 191.222 Q2071.85 191.222 2069.93 193.421 Q2068.01 195.62 2068.01 199.416 L2068.01 214.069 L2063.73 214.069 L2063.73 198.559 Q2063.73 194.809 2062.41 193.027 Q2061.09 191.222 2058.33 191.222 Q2055.07 191.222 2053.15 193.444 Q2051.23 195.643 2051.23 199.416 L2051.23 214.069 L2046.94 214.069 L2046.94 188.143 L2051.23 188.143 L2051.23 192.171 Q2052.68 189.786 2054.72 188.652 Q2056.76 187.518 2059.56 187.518 Q2062.38 187.518 2064.35 188.953 Q2066.34 190.388 2067.29 193.12 Z" fill="#000000" fill-rule="nonzero" fill-opacity="1" /><path clip-path="url(#clip660)" d="M2097.41 210.18 L2097.41 223.93 L2093.12 223.93 L2093.12 188.143 L2097.41 188.143 L2097.41 192.078 Q2098.75 189.763 2100.79 188.652 Q2102.85 187.518 2105.69 187.518 Q2110.42 187.518 2113.36 191.268 Q2116.32 195.018 2116.32 201.129 Q2116.32 207.24 2113.36 210.99 Q2110.42 214.74 2105.69 214.74 Q2102.85 214.74 2100.79 213.629 Q2098.75 212.495 2097.41 210.18 M2111.9 201.129 Q2111.9 196.43 2109.95 193.768 Q2108.03 191.083 2104.65 191.083 Q2101.27 191.083 2099.33 193.768 Q2097.41 196.43 2097.41 201.129 Q2097.41 205.828 2099.33 208.513 Q2101.27 211.175 2104.65 211.175 Q2108.03 211.175 2109.95 208.513 Q2111.9 205.828 2111.9 201.129 Z" fill="#000000" fill-rule="nonzero" fill-opacity="1" /><path clip-path="url(#clip660)" d="M2123.38 178.05 L2127.64 178.05 L2127.64 214.069 L2123.38 214.069 L2123.38 178.05 Z" fill="#000000" fill-rule="nonzero" fill-opacity="1" /><path clip-path="url(#clip660)" d="M2136.55 188.143 L2140.81 188.143 L2140.81 214.069 L2136.55 214.069 L2136.55 188.143 M2136.55 178.05 L2140.81 178.05 L2140.81 183.444 L2136.55 183.444 L2136.55 178.05 Z" fill="#000000" fill-rule="nonzero" fill-opacity="1" /><path clip-path="url(#clip660)" d="M2171.27 198.421 L2171.27 214.069 L2167.01 214.069 L2167.01 198.559 Q2167.01 194.879 2165.58 193.05 Q2164.14 191.222 2161.27 191.222 Q2157.82 191.222 2155.83 193.421 Q2153.84 195.62 2153.84 199.416 L2153.84 214.069 L2149.56 214.069 L2149.56 188.143 L2153.84 188.143 L2153.84 192.171 Q2155.37 189.833 2157.43 188.675 Q2159.51 187.518 2162.22 187.518 Q2166.69 187.518 2168.98 190.296 Q2171.27 193.05 2171.27 198.421 Z" fill="#000000" fill-rule="nonzero" fill-opacity="1" /><path clip-path="url(#clip660)" d="M2196.83 200.805 Q2196.83 196.175 2194.91 193.629 Q2193.01 191.083 2189.56 191.083 Q2186.13 191.083 2184.21 193.629 Q2182.31 196.175 2182.31 200.805 Q2182.31 205.411 2184.21 207.958 Q2186.13 210.504 2189.56 210.504 Q2193.01 210.504 2194.91 207.958 Q2196.83 205.411 2196.83 200.805 M2201.09 210.851 Q2201.09 217.471 2198.15 220.689 Q2195.21 223.93 2189.14 223.93 Q2186.9 223.93 2184.91 223.582 Q2182.91 223.258 2181.04 222.564 L2181.04 218.42 Q2182.91 219.439 2184.74 219.925 Q2186.57 220.411 2188.47 220.411 Q2192.66 220.411 2194.74 218.212 Q2196.83 216.036 2196.83 211.615 L2196.83 209.508 Q2195.51 211.8 2193.45 212.934 Q2191.39 214.069 2188.52 214.069 Q2183.75 214.069 2180.83 210.434 Q2177.91 206.8 2177.91 200.805 Q2177.91 194.786 2180.83 191.152 Q2183.75 187.518 2188.52 187.518 Q2191.39 187.518 2193.45 188.652 Q2195.51 189.786 2196.83 192.078 L2196.83 188.143 L2201.09 188.143 L2201.09 210.851 Z" fill="#000000" fill-rule="nonzero" fill-opacity="1" /></svg>
