<?xml version="1.0" encoding="utf-8"?>
<svg xmlns="http://www.w3.org/2000/svg" xmlns:xlink="http://www.w3.org/1999/xlink" width="600" height="400" viewBox="0 0 2400 1600">
<defs>
  <clipPath id="clip570">
    <rect x="0" y="0" width="2400" height="1600"/>
  </clipPath>
</defs>
<path clip-path="url(#clip570)" d="M0 1600 L2400 1600 L2400 0 L0 0  Z" fill="#ffffff" fill-rule="evenodd" fill-opacity="1"/>
<defs>
  <clipPath id="clip571">
    <rect x="480" y="0" width="1681" height="1600"/>
  </clipPath>
</defs>
<path clip-path="url(#clip570)" d="M250.028 1423.18 L2352.76 1423.18 L2352.76 47.2441 L250.028 47.2441  Z" fill="#ffffff" fill-rule="evenodd" fill-opacity="1"/>
<defs>
  <clipPath id="clip572">
    <rect x="250" y="47" width="2104" height="1377"/>
  </clipPath>
</defs>
<polyline clip-path="url(#clip572)" style="stroke:#000000; stroke-linecap:round; stroke-linejoin:round; stroke-width:2; stroke-opacity:0.1; fill:none" points="307.554,1423.18 307.554,47.2441 "/>
<polyline clip-path="url(#clip572)" style="stroke:#000000; stroke-linecap:round; stroke-linejoin:round; stroke-width:2; stroke-opacity:0.1; fill:none" points="803.976,1423.18 803.976,47.2441 "/>
<polyline clip-path="url(#clip572)" style="stroke:#000000; stroke-linecap:round; stroke-linejoin:round; stroke-width:2; stroke-opacity:0.1; fill:none" points="1300.4,1423.18 1300.4,47.2441 "/>
<polyline clip-path="url(#clip572)" style="stroke:#000000; stroke-linecap:round; stroke-linejoin:round; stroke-width:2; stroke-opacity:0.1; fill:none" points="1796.82,1423.18 1796.82,47.2441 "/>
<polyline clip-path="url(#clip572)" style="stroke:#000000; stroke-linecap:round; stroke-linejoin:round; stroke-width:2; stroke-opacity:0.1; fill:none" points="2293.24,1423.18 2293.24,47.2441 "/>
<polyline clip-path="url(#clip570)" style="stroke:#000000; stroke-linecap:round; stroke-linejoin:round; stroke-width:4; stroke-opacity:1; fill:none" points="250.028,1423.18 2352.76,1423.18 "/>
<polyline clip-path="url(#clip570)" style="stroke:#000000; stroke-linecap:round; stroke-linejoin:round; stroke-width:4; stroke-opacity:1; fill:none" points="307.554,1423.18 307.554,1404.28 "/>
<polyline clip-path="url(#clip570)" style="stroke:#000000; stroke-linecap:round; stroke-linejoin:round; stroke-width:4; stroke-opacity:1; fill:none" points="803.976,1423.18 803.976,1404.28 "/>
<polyline clip-path="url(#clip570)" style="stroke:#000000; stroke-linecap:round; stroke-linejoin:round; stroke-width:4; stroke-opacity:1; fill:none" points="1300.4,1423.18 1300.4,1404.28 "/>
<polyline clip-path="url(#clip570)" style="stroke:#000000; stroke-linecap:round; stroke-linejoin:round; stroke-width:4; stroke-opacity:1; fill:none" points="1796.82,1423.18 1796.82,1404.28 "/>
<polyline clip-path="url(#clip570)" style="stroke:#000000; stroke-linecap:round; stroke-linejoin:round; stroke-width:4; stroke-opacity:1; fill:none" points="2293.24,1423.18 2293.24,1404.28 "/>
<path clip-path="url(#clip570)" d="M307.554 1454.1 Q303.943 1454.1 302.114 1457.66 Q300.308 1461.2 300.308 1468.33 Q300.308 1475.44 302.114 1479.01 Q303.943 1482.55 307.554 1482.55 Q311.188 1482.55 312.993 1479.01 Q314.822 1475.44 314.822 1468.33 Q314.822 1461.2 312.993 1457.66 Q311.188 1454.1 307.554 1454.1 M307.554 1450.39 Q313.364 1450.39 316.419 1455 Q319.498 1459.58 319.498 1468.33 Q319.498 1477.06 316.419 1481.67 Q313.364 1486.25 307.554 1486.25 Q301.743 1486.25 298.665 1481.67 Q295.609 1477.06 295.609 1468.33 Q295.609 1459.58 298.665 1455 Q301.743 1450.39 307.554 1450.39 Z" fill="#000000" fill-rule="nonzero" fill-opacity="1" /><path clip-path="url(#clip570)" d="M767.669 1481.64 L783.988 1481.64 L783.988 1485.58 L762.044 1485.58 L762.044 1481.64 Q764.706 1478.89 769.289 1474.26 Q773.896 1469.61 775.076 1468.27 Q777.321 1465.74 778.201 1464.01 Q779.104 1462.25 779.104 1460.56 Q779.104 1457.8 777.159 1456.07 Q775.238 1454.33 772.136 1454.33 Q769.937 1454.33 767.484 1455.09 Q765.053 1455.86 762.275 1457.41 L762.275 1452.69 Q765.099 1451.55 767.553 1450.97 Q770.007 1450.39 772.044 1450.39 Q777.414 1450.39 780.608 1453.08 Q783.803 1455.77 783.803 1460.26 Q783.803 1462.39 782.993 1464.31 Q782.206 1466.2 780.099 1468.8 Q779.521 1469.47 776.419 1472.69 Q773.317 1475.88 767.669 1481.64 Z" fill="#000000" fill-rule="nonzero" fill-opacity="1" /><path clip-path="url(#clip570)" d="M793.849 1451.02 L812.206 1451.02 L812.206 1454.96 L798.132 1454.96 L798.132 1463.43 Q799.15 1463.08 800.169 1462.92 Q801.187 1462.73 802.206 1462.73 Q807.993 1462.73 811.372 1465.9 Q814.752 1469.08 814.752 1474.49 Q814.752 1480.07 811.28 1483.17 Q807.807 1486.25 801.488 1486.25 Q799.312 1486.25 797.044 1485.88 Q794.798 1485.51 792.391 1484.77 L792.391 1480.07 Q794.474 1481.2 796.696 1481.76 Q798.919 1482.32 801.395 1482.32 Q805.4 1482.32 807.738 1480.21 Q810.076 1478.1 810.076 1474.49 Q810.076 1470.88 807.738 1468.77 Q805.4 1466.67 801.395 1466.67 Q799.52 1466.67 797.645 1467.08 Q795.794 1467.5 793.849 1468.38 L793.849 1451.02 Z" fill="#000000" fill-rule="nonzero" fill-opacity="1" /><path clip-path="url(#clip570)" d="M833.965 1454.1 Q830.354 1454.1 828.525 1457.66 Q826.719 1461.2 826.719 1468.33 Q826.719 1475.44 828.525 1479.01 Q830.354 1482.55 833.965 1482.55 Q837.599 1482.55 839.404 1479.01 Q841.233 1475.44 841.233 1468.33 Q841.233 1461.2 839.404 1457.66 Q837.599 1454.1 833.965 1454.1 M833.965 1450.39 Q839.775 1450.39 842.83 1455 Q845.909 1459.58 845.909 1468.33 Q845.909 1477.06 842.83 1481.67 Q839.775 1486.25 833.965 1486.25 Q828.155 1486.25 825.076 1481.67 Q822.02 1477.06 822.02 1468.33 Q822.02 1459.58 825.076 1455 Q828.155 1450.39 833.965 1450.39 Z" fill="#000000" fill-rule="nonzero" fill-opacity="1" /><path clip-path="url(#clip570)" d="M1260.02 1451.02 L1278.37 1451.02 L1278.37 1454.96 L1264.3 1454.96 L1264.3 1463.43 Q1265.32 1463.08 1266.34 1462.92 Q1267.36 1462.73 1268.37 1462.73 Q1274.16 1462.73 1277.54 1465.9 Q1280.92 1469.08 1280.92 1474.49 Q1280.92 1480.07 1277.45 1483.17 Q1273.98 1486.25 1267.66 1486.25 Q1265.48 1486.25 1263.21 1485.88 Q1260.97 1485.51 1258.56 1484.77 L1258.56 1480.07 Q1260.64 1481.2 1262.86 1481.76 Q1265.09 1482.32 1267.56 1482.32 Q1271.57 1482.32 1273.91 1480.21 Q1276.24 1478.1 1276.24 1474.49 Q1276.24 1470.88 1273.91 1468.77 Q1271.57 1466.67 1267.56 1466.67 Q1265.69 1466.67 1263.81 1467.08 Q1261.96 1467.5 1260.02 1468.38 L1260.02 1451.02 Z" fill="#000000" fill-rule="nonzero" fill-opacity="1" /><path clip-path="url(#clip570)" d="M1300.13 1454.1 Q1296.52 1454.1 1294.69 1457.66 Q1292.89 1461.2 1292.89 1468.33 Q1292.89 1475.44 1294.69 1479.01 Q1296.52 1482.55 1300.13 1482.55 Q1303.77 1482.55 1305.57 1479.01 Q1307.4 1475.44 1307.4 1468.33 Q1307.4 1461.2 1305.57 1457.66 Q1303.77 1454.1 1300.13 1454.1 M1300.13 1450.39 Q1305.94 1450.39 1309 1455 Q1312.08 1459.58 1312.08 1468.33 Q1312.08 1477.06 1309 1481.67 Q1305.94 1486.25 1300.13 1486.25 Q1294.32 1486.25 1291.24 1481.67 Q1288.19 1477.06 1288.19 1468.33 Q1288.19 1459.58 1291.24 1455 Q1294.32 1450.39 1300.13 1450.39 Z" fill="#000000" fill-rule="nonzero" fill-opacity="1" /><path clip-path="url(#clip570)" d="M1330.29 1454.1 Q1326.68 1454.1 1324.86 1457.66 Q1323.05 1461.2 1323.05 1468.33 Q1323.05 1475.44 1324.86 1479.01 Q1326.68 1482.55 1330.29 1482.55 Q1333.93 1482.55 1335.73 1479.01 Q1337.56 1475.44 1337.56 1468.33 Q1337.56 1461.2 1335.73 1457.66 Q1333.93 1454.1 1330.29 1454.1 M1330.29 1450.39 Q1336.11 1450.39 1339.16 1455 Q1342.24 1459.58 1342.24 1468.33 Q1342.24 1477.06 1339.16 1481.67 Q1336.11 1486.25 1330.29 1486.25 Q1324.48 1486.25 1321.41 1481.67 Q1318.35 1477.06 1318.35 1468.33 Q1318.35 1459.58 1321.41 1455 Q1324.48 1450.39 1330.29 1450.39 Z" fill="#000000" fill-rule="nonzero" fill-opacity="1" /><path clip-path="url(#clip570)" d="M1755.1 1451.02 L1777.32 1451.02 L1777.32 1453.01 L1764.77 1485.58 L1759.89 1485.58 L1771.69 1454.96 L1755.1 1454.96 L1755.1 1451.02 Z" fill="#000000" fill-rule="nonzero" fill-opacity="1" /><path clip-path="url(#clip570)" d="M1786.49 1451.02 L1804.84 1451.02 L1804.84 1454.96 L1790.77 1454.96 L1790.77 1463.43 Q1791.79 1463.08 1792.81 1462.92 Q1793.82 1462.73 1794.84 1462.73 Q1800.63 1462.73 1804.01 1465.9 Q1807.39 1469.08 1807.39 1474.49 Q1807.39 1480.07 1803.92 1483.17 Q1800.44 1486.25 1794.13 1486.25 Q1791.95 1486.25 1789.68 1485.88 Q1787.44 1485.51 1785.03 1484.77 L1785.03 1480.07 Q1787.11 1481.2 1789.33 1481.76 Q1791.56 1482.32 1794.03 1482.32 Q1798.04 1482.32 1800.38 1480.21 Q1802.71 1478.1 1802.71 1474.49 Q1802.71 1470.88 1800.38 1468.77 Q1798.04 1466.67 1794.03 1466.67 Q1792.16 1466.67 1790.28 1467.08 Q1788.43 1467.5 1786.49 1468.38 L1786.49 1451.02 Z" fill="#000000" fill-rule="nonzero" fill-opacity="1" /><path clip-path="url(#clip570)" d="M1826.6 1454.1 Q1822.99 1454.1 1821.16 1457.66 Q1819.36 1461.2 1819.36 1468.33 Q1819.36 1475.44 1821.16 1479.01 Q1822.99 1482.55 1826.6 1482.55 Q1830.24 1482.55 1832.04 1479.01 Q1833.87 1475.44 1833.87 1468.33 Q1833.87 1461.2 1832.04 1457.66 Q1830.24 1454.1 1826.6 1454.1 M1826.6 1450.39 Q1832.41 1450.39 1835.47 1455 Q1838.55 1459.58 1838.55 1468.33 Q1838.55 1477.06 1835.47 1481.67 Q1832.41 1486.25 1826.6 1486.25 Q1820.79 1486.25 1817.71 1481.67 Q1814.66 1477.06 1814.66 1468.33 Q1814.66 1459.58 1817.71 1455 Q1820.79 1450.39 1826.6 1450.39 Z" fill="#000000" fill-rule="nonzero" fill-opacity="1" /><path clip-path="url(#clip570)" d="M2237.77 1481.64 L2245.41 1481.64 L2245.41 1455.28 L2237.1 1456.95 L2237.1 1452.69 L2245.36 1451.02 L2250.04 1451.02 L2250.04 1481.64 L2257.68 1481.64 L2257.68 1485.58 L2237.77 1485.58 L2237.77 1481.64 Z" fill="#000000" fill-rule="nonzero" fill-opacity="1" /><path clip-path="url(#clip570)" d="M2277.12 1454.1 Q2273.51 1454.1 2271.68 1457.66 Q2269.88 1461.2 2269.88 1468.33 Q2269.88 1475.44 2271.68 1479.01 Q2273.51 1482.55 2277.12 1482.55 Q2280.76 1482.55 2282.56 1479.01 Q2284.39 1475.44 2284.39 1468.33 Q2284.39 1461.2 2282.56 1457.66 Q2280.76 1454.1 2277.12 1454.1 M2277.12 1450.39 Q2282.93 1450.39 2285.99 1455 Q2289.07 1459.58 2289.07 1468.33 Q2289.07 1477.06 2285.99 1481.67 Q2282.93 1486.25 2277.12 1486.25 Q2271.31 1486.25 2268.23 1481.67 Q2265.18 1477.06 2265.18 1468.33 Q2265.18 1459.58 2268.23 1455 Q2271.31 1450.39 2277.12 1450.39 Z" fill="#000000" fill-rule="nonzero" fill-opacity="1" /><path clip-path="url(#clip570)" d="M2307.28 1454.1 Q2303.67 1454.1 2301.84 1457.66 Q2300.04 1461.2 2300.04 1468.33 Q2300.04 1475.44 2301.84 1479.01 Q2303.67 1482.55 2307.28 1482.55 Q2310.92 1482.55 2312.72 1479.01 Q2314.55 1475.44 2314.55 1468.33 Q2314.55 1461.2 2312.72 1457.66 Q2310.92 1454.1 2307.28 1454.1 M2307.28 1450.39 Q2313.09 1450.39 2316.15 1455 Q2319.23 1459.58 2319.23 1468.33 Q2319.23 1477.06 2316.15 1481.67 Q2313.09 1486.25 2307.28 1486.25 Q2301.47 1486.25 2298.4 1481.67 Q2295.34 1477.06 2295.34 1468.33 Q2295.34 1459.58 2298.4 1455 Q2301.47 1450.39 2307.28 1450.39 Z" fill="#000000" fill-rule="nonzero" fill-opacity="1" /><path clip-path="url(#clip570)" d="M2337.45 1454.1 Q2333.83 1454.1 2332.01 1457.66 Q2330.2 1461.2 2330.2 1468.33 Q2330.2 1475.44 2332.01 1479.01 Q2333.83 1482.55 2337.45 1482.55 Q2341.08 1482.55 2342.89 1479.01 Q2344.71 1475.44 2344.71 1468.33 Q2344.71 1461.2 2342.89 1457.66 Q2341.08 1454.1 2337.45 1454.1 M2337.45 1450.39 Q2343.26 1450.39 2346.31 1455 Q2349.39 1459.58 2349.39 1468.33 Q2349.39 1477.06 2346.31 1481.67 Q2343.26 1486.25 2337.45 1486.25 Q2331.64 1486.25 2328.56 1481.67 Q2325.5 1477.06 2325.5 1468.33 Q2325.5 1459.58 2328.56 1455 Q2331.64 1450.39 2337.45 1450.39 Z" fill="#000000" fill-rule="nonzero" fill-opacity="1" /><path clip-path="url(#clip570)" d="M1223.27 1520.52 L1263.47 1520.52 L1263.47 1525.93 L1246.6 1525.93 L1246.6 1568.04 L1240.14 1568.04 L1240.14 1525.93 L1223.27 1525.93 L1223.27 1520.52 Z" fill="#000000" fill-rule="nonzero" fill-opacity="1" /><path clip-path="url(#clip570)" d="M1267.42 1532.4 L1273.27 1532.4 L1273.27 1568.04 L1267.42 1568.04 L1267.42 1532.4 M1267.42 1518.52 L1273.27 1518.52 L1273.27 1525.93 L1267.42 1525.93 L1267.42 1518.52 Z" fill="#000000" fill-rule="nonzero" fill-opacity="1" /><path clip-path="url(#clip570)" d="M1313.28 1539.24 Q1315.48 1535.29 1318.53 1533.41 Q1321.59 1531.54 1325.72 1531.54 Q1331.29 1531.54 1334.32 1535.45 Q1337.34 1539.33 1337.34 1546.53 L1337.34 1568.04 L1331.45 1568.04 L1331.45 1546.72 Q1331.45 1541.59 1329.64 1539.11 Q1327.83 1536.63 1324.1 1536.63 Q1319.55 1536.63 1316.91 1539.65 Q1314.27 1542.68 1314.27 1547.9 L1314.27 1568.04 L1308.38 1568.04 L1308.38 1546.72 Q1308.38 1541.56 1306.56 1539.11 Q1304.75 1536.63 1300.96 1536.63 Q1296.47 1536.63 1293.83 1539.68 Q1291.19 1542.71 1291.19 1547.9 L1291.19 1568.04 L1285.3 1568.04 L1285.3 1532.4 L1291.19 1532.4 L1291.19 1537.93 Q1293.2 1534.66 1296 1533.1 Q1298.8 1531.54 1302.65 1531.54 Q1306.53 1531.54 1309.24 1533.51 Q1311.98 1535.48 1313.28 1539.24 Z" fill="#000000" fill-rule="nonzero" fill-opacity="1" /><path clip-path="url(#clip570)" d="M1379.52 1548.76 L1379.52 1551.62 L1352.59 1551.62 Q1352.97 1557.67 1356.22 1560.85 Q1359.5 1564 1365.32 1564 Q1368.69 1564 1371.84 1563.17 Q1375.03 1562.35 1378.15 1560.69 L1378.15 1566.23 Q1375 1567.57 1371.69 1568.27 Q1368.38 1568.97 1364.97 1568.97 Q1356.44 1568.97 1351.44 1564 Q1346.48 1559.04 1346.48 1550.57 Q1346.48 1541.82 1351.19 1536.69 Q1355.93 1531.54 1363.95 1531.54 Q1371.14 1531.54 1375.31 1536.18 Q1379.52 1540.8 1379.52 1548.76 M1373.66 1547.04 Q1373.6 1542.23 1370.95 1539.37 Q1368.34 1536.5 1364.01 1536.5 Q1359.11 1536.5 1356.15 1539.27 Q1353.22 1542.04 1352.78 1547.07 L1373.66 1547.04 Z" fill="#000000" fill-rule="nonzero" fill-opacity="1" /><polyline clip-path="url(#clip572)" style="stroke:#000000; stroke-linecap:round; stroke-linejoin:round; stroke-width:2; stroke-opacity:0.1; fill:none" points="250.028,1398.67 2352.76,1398.67 "/>
<polyline clip-path="url(#clip572)" style="stroke:#000000; stroke-linecap:round; stroke-linejoin:round; stroke-width:2; stroke-opacity:0.1; fill:none" points="250.028,1058.68 2352.76,1058.68 "/>
<polyline clip-path="url(#clip572)" style="stroke:#000000; stroke-linecap:round; stroke-linejoin:round; stroke-width:2; stroke-opacity:0.1; fill:none" points="250.028,718.68 2352.76,718.68 "/>
<polyline clip-path="url(#clip572)" style="stroke:#000000; stroke-linecap:round; stroke-linejoin:round; stroke-width:2; stroke-opacity:0.1; fill:none" points="250.028,378.683 2352.76,378.683 "/>
<polyline clip-path="url(#clip570)" style="stroke:#000000; stroke-linecap:round; stroke-linejoin:round; stroke-width:4; stroke-opacity:1; fill:none" points="250.028,1423.18 250.028,47.2441 "/>
<polyline clip-path="url(#clip570)" style="stroke:#000000; stroke-linecap:round; stroke-linejoin:round; stroke-width:4; stroke-opacity:1; fill:none" points="250.028,1398.67 268.926,1398.67 "/>
<polyline clip-path="url(#clip570)" style="stroke:#000000; stroke-linecap:round; stroke-linejoin:round; stroke-width:4; stroke-opacity:1; fill:none" points="250.028,1058.68 268.926,1058.68 "/>
<polyline clip-path="url(#clip570)" style="stroke:#000000; stroke-linecap:round; stroke-linejoin:round; stroke-width:4; stroke-opacity:1; fill:none" points="250.028,718.68 268.926,718.68 "/>
<polyline clip-path="url(#clip570)" style="stroke:#000000; stroke-linecap:round; stroke-linejoin:round; stroke-width:4; stroke-opacity:1; fill:none" points="250.028,378.683 268.926,378.683 "/>
<path clip-path="url(#clip570)" d="M126.691 1384.47 Q123.08 1384.47 121.251 1388.04 Q119.445 1391.58 119.445 1398.71 Q119.445 1405.82 121.251 1409.38 Q123.08 1412.92 126.691 1412.92 Q130.325 1412.92 132.13 1409.38 Q133.959 1405.82 133.959 1398.71 Q133.959 1391.58 132.13 1388.04 Q130.325 1384.47 126.691 1384.47 M126.691 1380.77 Q132.501 1380.77 135.556 1385.38 Q138.635 1389.96 138.635 1398.71 Q138.635 1407.44 135.556 1412.04 Q132.501 1416.63 126.691 1416.63 Q120.88 1416.63 117.802 1412.04 Q114.746 1407.44 114.746 1398.71 Q114.746 1389.96 117.802 1385.38 Q120.88 1380.77 126.691 1380.77 Z" fill="#000000" fill-rule="nonzero" fill-opacity="1" /><path clip-path="url(#clip570)" d="M146.853 1410.08 L151.737 1410.08 L151.737 1415.95 L146.853 1415.95 L146.853 1410.08 Z" fill="#000000" fill-rule="nonzero" fill-opacity="1" /><path clip-path="url(#clip570)" d="M171.922 1384.47 Q168.311 1384.47 166.482 1388.04 Q164.677 1391.58 164.677 1398.71 Q164.677 1405.82 166.482 1409.38 Q168.311 1412.92 171.922 1412.92 Q175.556 1412.92 177.362 1409.38 Q179.19 1405.82 179.19 1398.71 Q179.19 1391.58 177.362 1388.04 Q175.556 1384.47 171.922 1384.47 M171.922 1380.77 Q177.732 1380.77 180.788 1385.38 Q183.866 1389.96 183.866 1398.71 Q183.866 1407.44 180.788 1412.04 Q177.732 1416.63 171.922 1416.63 Q166.112 1416.63 163.033 1412.04 Q159.978 1407.44 159.978 1398.71 Q159.978 1389.96 163.033 1385.38 Q166.112 1380.77 171.922 1380.77 Z" fill="#000000" fill-rule="nonzero" fill-opacity="1" /><path clip-path="url(#clip570)" d="M202.084 1384.47 Q198.473 1384.47 196.644 1388.04 Q194.838 1391.58 194.838 1398.71 Q194.838 1405.82 196.644 1409.38 Q198.473 1412.92 202.084 1412.92 Q205.718 1412.92 207.524 1409.38 Q209.352 1405.82 209.352 1398.71 Q209.352 1391.58 207.524 1388.04 Q205.718 1384.47 202.084 1384.47 M202.084 1380.77 Q207.894 1380.77 210.949 1385.38 Q214.028 1389.96 214.028 1398.71 Q214.028 1407.44 210.949 1412.04 Q207.894 1416.63 202.084 1416.63 Q196.274 1416.63 193.195 1412.04 Q190.139 1407.44 190.139 1398.71 Q190.139 1389.96 193.195 1385.38 Q196.274 1380.77 202.084 1380.77 Z" fill="#000000" fill-rule="nonzero" fill-opacity="1" /><path clip-path="url(#clip570)" d="M128.288 1044.48 Q124.677 1044.48 122.848 1048.04 Q121.043 1051.58 121.043 1058.71 Q121.043 1065.82 122.848 1069.38 Q124.677 1072.92 128.288 1072.92 Q131.922 1072.92 133.728 1069.38 Q135.556 1065.82 135.556 1058.71 Q135.556 1051.58 133.728 1048.04 Q131.922 1044.48 128.288 1044.48 M128.288 1040.77 Q134.098 1040.77 137.154 1045.38 Q140.232 1049.96 140.232 1058.71 Q140.232 1067.44 137.154 1072.05 Q134.098 1076.63 128.288 1076.63 Q122.478 1076.63 119.399 1072.05 Q116.343 1067.44 116.343 1058.71 Q116.343 1049.96 119.399 1045.38 Q122.478 1040.77 128.288 1040.77 Z" fill="#000000" fill-rule="nonzero" fill-opacity="1" /><path clip-path="url(#clip570)" d="M148.45 1070.08 L153.334 1070.08 L153.334 1075.96 L148.45 1075.96 L148.45 1070.08 Z" fill="#000000" fill-rule="nonzero" fill-opacity="1" /><path clip-path="url(#clip570)" d="M173.519 1044.48 Q169.908 1044.48 168.079 1048.04 Q166.274 1051.58 166.274 1058.71 Q166.274 1065.82 168.079 1069.38 Q169.908 1072.92 173.519 1072.92 Q177.153 1072.92 178.959 1069.38 Q180.788 1065.82 180.788 1058.71 Q180.788 1051.58 178.959 1048.04 Q177.153 1044.48 173.519 1044.48 M173.519 1040.77 Q179.329 1040.77 182.385 1045.38 Q185.463 1049.96 185.463 1058.71 Q185.463 1067.44 182.385 1072.05 Q179.329 1076.63 173.519 1076.63 Q167.709 1076.63 164.63 1072.05 Q161.575 1067.44 161.575 1058.71 Q161.575 1049.96 164.63 1045.38 Q167.709 1040.77 173.519 1040.77 Z" fill="#000000" fill-rule="nonzero" fill-opacity="1" /><path clip-path="url(#clip570)" d="M197.709 1072.02 L214.028 1072.02 L214.028 1075.96 L192.084 1075.96 L192.084 1072.02 Q194.746 1069.27 199.329 1064.64 Q203.936 1059.99 205.116 1058.64 Q207.362 1056.12 208.241 1054.38 Q209.144 1052.62 209.144 1050.93 Q209.144 1048.18 207.199 1046.44 Q205.278 1044.71 202.176 1044.71 Q199.977 1044.71 197.524 1045.47 Q195.093 1046.24 192.315 1047.79 L192.315 1043.06 Q195.139 1041.93 197.593 1041.35 Q200.047 1040.77 202.084 1040.77 Q207.454 1040.77 210.649 1043.46 Q213.843 1046.14 213.843 1050.63 Q213.843 1052.76 213.033 1054.68 Q212.246 1056.58 210.139 1059.18 Q209.561 1059.85 206.459 1063.06 Q203.357 1066.26 197.709 1072.02 Z" fill="#000000" fill-rule="nonzero" fill-opacity="1" /><path clip-path="url(#clip570)" d="M126.205 704.479 Q122.593 704.479 120.765 708.043 Q118.959 711.585 118.959 718.715 Q118.959 725.821 120.765 729.386 Q122.593 732.928 126.205 732.928 Q129.839 732.928 131.644 729.386 Q133.473 725.821 133.473 718.715 Q133.473 711.585 131.644 708.043 Q129.839 704.479 126.205 704.479 M126.205 700.775 Q132.015 700.775 135.07 705.381 Q138.149 709.965 138.149 718.715 Q138.149 727.441 135.07 732.048 Q132.015 736.631 126.205 736.631 Q120.394 736.631 117.316 732.048 Q114.26 727.441 114.26 718.715 Q114.26 709.965 117.316 705.381 Q120.394 700.775 126.205 700.775 Z" fill="#000000" fill-rule="nonzero" fill-opacity="1" /><path clip-path="url(#clip570)" d="M146.366 730.08 L151.251 730.08 L151.251 735.96 L146.366 735.96 L146.366 730.08 Z" fill="#000000" fill-rule="nonzero" fill-opacity="1" /><path clip-path="url(#clip570)" d="M171.436 704.479 Q167.825 704.479 165.996 708.043 Q164.19 711.585 164.19 718.715 Q164.19 725.821 165.996 729.386 Q167.825 732.928 171.436 732.928 Q175.07 732.928 176.876 729.386 Q178.704 725.821 178.704 718.715 Q178.704 711.585 176.876 708.043 Q175.07 704.479 171.436 704.479 M171.436 700.775 Q177.246 700.775 180.301 705.381 Q183.38 709.965 183.38 718.715 Q183.38 727.441 180.301 732.048 Q177.246 736.631 171.436 736.631 Q165.626 736.631 162.547 732.048 Q159.491 727.441 159.491 718.715 Q159.491 709.965 162.547 705.381 Q165.626 700.775 171.436 700.775 Z" fill="#000000" fill-rule="nonzero" fill-opacity="1" /><path clip-path="url(#clip570)" d="M204.445 705.474 L192.639 723.923 L204.445 723.923 L204.445 705.474 M203.218 701.4 L209.098 701.4 L209.098 723.923 L214.028 723.923 L214.028 727.812 L209.098 727.812 L209.098 735.96 L204.445 735.96 L204.445 727.812 L188.843 727.812 L188.843 723.298 L203.218 701.4 Z" fill="#000000" fill-rule="nonzero" fill-opacity="1" /><path clip-path="url(#clip570)" d="M126.529 364.481 Q122.918 364.481 121.089 368.046 Q119.283 371.588 119.283 378.717 Q119.283 385.824 121.089 389.389 Q122.918 392.93 126.529 392.93 Q130.163 392.93 131.968 389.389 Q133.797 385.824 133.797 378.717 Q133.797 371.588 131.968 368.046 Q130.163 364.481 126.529 364.481 M126.529 360.778 Q132.339 360.778 135.394 365.384 Q138.473 369.967 138.473 378.717 Q138.473 387.444 135.394 392.051 Q132.339 396.634 126.529 396.634 Q120.718 396.634 117.64 392.051 Q114.584 387.444 114.584 378.717 Q114.584 369.967 117.64 365.384 Q120.718 360.778 126.529 360.778 Z" fill="#000000" fill-rule="nonzero" fill-opacity="1" /><path clip-path="url(#clip570)" d="M146.691 390.083 L151.575 390.083 L151.575 395.963 L146.691 395.963 L146.691 390.083 Z" fill="#000000" fill-rule="nonzero" fill-opacity="1" /><path clip-path="url(#clip570)" d="M171.76 364.481 Q168.149 364.481 166.32 368.046 Q164.515 371.588 164.515 378.717 Q164.515 385.824 166.32 389.389 Q168.149 392.93 171.76 392.93 Q175.394 392.93 177.2 389.389 Q179.028 385.824 179.028 378.717 Q179.028 371.588 177.2 368.046 Q175.394 364.481 171.76 364.481 M171.76 360.778 Q177.57 360.778 180.626 365.384 Q183.704 369.967 183.704 378.717 Q183.704 387.444 180.626 392.051 Q177.57 396.634 171.76 396.634 Q165.95 396.634 162.871 392.051 Q159.815 387.444 159.815 378.717 Q159.815 369.967 162.871 365.384 Q165.95 360.778 171.76 360.778 Z" fill="#000000" fill-rule="nonzero" fill-opacity="1" /><path clip-path="url(#clip570)" d="M202.5 376.819 Q199.352 376.819 197.5 378.972 Q195.672 381.125 195.672 384.875 Q195.672 388.602 197.5 390.777 Q199.352 392.93 202.5 392.93 Q205.649 392.93 207.477 390.777 Q209.329 388.602 209.329 384.875 Q209.329 381.125 207.477 378.972 Q205.649 376.819 202.5 376.819 M211.783 362.166 L211.783 366.426 Q210.024 365.592 208.218 365.153 Q206.436 364.713 204.676 364.713 Q200.047 364.713 197.593 367.838 Q195.163 370.963 194.815 377.282 Q196.181 375.268 198.241 374.203 Q200.301 373.115 202.778 373.115 Q207.987 373.115 210.996 376.287 Q214.028 379.435 214.028 384.875 Q214.028 390.199 210.88 393.416 Q207.732 396.634 202.5 396.634 Q196.505 396.634 193.334 392.051 Q190.163 387.444 190.163 378.717 Q190.163 370.523 194.051 365.662 Q197.94 360.778 204.491 360.778 Q206.25 360.778 208.033 361.125 Q209.838 361.472 211.783 362.166 Z" fill="#000000" fill-rule="nonzero" fill-opacity="1" /><path clip-path="url(#clip570)" d="M16.4842 1117.5 L16.4842 1087.46 L21.895 1087.46 L21.895 1111.08 L35.9632 1111.08 L35.9632 1088.45 L41.3741 1088.45 L41.3741 1111.08 L58.5933 1111.08 L58.5933 1086.89 L64.0042 1086.89 L64.0042 1117.5 L16.4842 1117.5 Z" fill="#000000" fill-rule="nonzero" fill-opacity="1" /><path clip-path="url(#clip570)" d="M14.5426 1062.5 Q21.8632 1066.77 29.0246 1068.84 Q36.186 1070.91 43.5384 1070.91 Q50.8908 1070.91 58.1159 1068.84 Q65.3091 1066.74 72.5979 1062.5 L72.5979 1067.6 Q65.1182 1072.37 57.8931 1074.76 Q50.668 1077.11 43.5384 1077.11 Q36.4406 1077.11 29.2474 1074.76 Q22.0542 1072.4 14.5426 1067.6 L14.5426 1062.5 Z" fill="#000000" fill-rule="nonzero" fill-opacity="1" /><path clip-path="url(#clip570)" d="M16.4842 1050.89 L16.4842 1020.84 L21.895 1020.84 L21.895 1044.46 L35.9632 1044.46 L35.9632 1021.83 L41.3741 1021.83 L41.3741 1044.46 L58.5933 1044.46 L58.5933 1020.27 L64.0042 1020.27 L64.0042 1050.89 L16.4842 1050.89 Z" fill="#000000" fill-rule="nonzero" fill-opacity="1" /><path clip-path="url(#clip570)" d="M29.4065 987.23 L34.9447 987.23 Q33.6716 989.713 33.035 992.387 Q32.3984 995.06 32.3984 997.925 Q32.3984 1002.29 33.7352 1004.48 Q35.072 1006.65 37.7456 1006.65 Q39.7826 1006.65 40.9603 1005.09 Q42.1061 1003.53 43.1565 998.816 L43.6021 996.811 Q44.9389 990.572 47.3897 987.962 Q49.8086 985.321 54.1691 985.321 Q59.1344 985.321 62.0308 989.267 Q64.9272 993.182 64.9272 1000.06 Q64.9272 1002.92 64.3543 1006.04 Q63.8132 1009.13 62.6992 1012.57 L56.6518 1012.57 Q58.3387 1009.32 59.198 1006.17 Q60.0256 1003.02 60.0256 999.93 Q60.0256 995.792 58.6251 993.564 Q57.1929 991.336 54.6147 991.336 Q52.2276 991.336 50.9545 992.959 Q49.6813 994.551 48.5037 999.994 L48.0262 1002.03 Q46.8804 1007.47 44.5251 1009.89 Q42.138 1012.31 38.0002 1012.31 Q32.9713 1012.31 30.2341 1008.75 Q27.4968 1005.18 27.4968 998.625 Q27.4968 995.378 27.9743 992.514 Q28.4517 989.649 29.4065 987.23 Z" fill="#000000" fill-rule="nonzero" fill-opacity="1" /><path clip-path="url(#clip570)" d="M18.2347 970.202 L28.3562 970.202 L28.3562 958.139 L32.9077 958.139 L32.9077 970.202 L52.2594 970.202 Q56.6199 970.202 57.8613 969.024 Q59.1026 967.815 59.1026 964.155 L59.1026 958.139 L64.0042 958.139 L64.0042 964.155 Q64.0042 970.934 61.4897 973.512 Q58.9434 976.09 52.2594 976.09 L32.9077 976.09 L32.9077 980.387 L28.3562 980.387 L28.3562 976.09 L18.2347 976.09 L18.2347 970.202 Z" fill="#000000" fill-rule="nonzero" fill-opacity="1" /><path clip-path="url(#clip570)" d="M28.3562 950.437 L28.3562 944.58 L64.0042 944.58 L64.0042 950.437 L28.3562 950.437 M14.479 950.437 L14.479 944.58 L21.895 944.58 L21.895 950.437 L14.479 950.437 Z" fill="#000000" fill-rule="nonzero" fill-opacity="1" /><path clip-path="url(#clip570)" d="M35.1993 904.572 Q31.2526 902.375 29.3747 899.32 Q27.4968 896.264 27.4968 892.127 Q27.4968 886.557 31.4117 883.533 Q35.2948 880.509 42.4881 880.509 L64.0042 880.509 L64.0042 886.398 L42.679 886.398 Q37.5546 886.398 35.072 888.212 Q32.5894 890.026 32.5894 893.75 Q32.5894 898.301 35.6131 900.943 Q38.6368 903.585 43.8567 903.585 L64.0042 903.585 L64.0042 909.473 L42.679 909.473 Q37.5228 909.473 35.072 911.287 Q32.5894 913.102 32.5894 916.889 Q32.5894 921.377 35.6449 924.019 Q38.6686 926.661 43.8567 926.661 L64.0042 926.661 L64.0042 932.549 L28.3562 932.549 L28.3562 926.661 L33.8944 926.661 Q30.616 924.655 29.0564 921.854 Q27.4968 919.054 27.4968 915.202 Q27.4968 911.319 29.4702 908.614 Q31.4436 905.877 35.1993 904.572 Z" fill="#000000" fill-rule="nonzero" fill-opacity="1" /><path clip-path="url(#clip570)" d="M46.0847 852.627 Q46.0847 859.725 47.7079 862.462 Q49.3312 865.2 53.2461 865.2 Q56.3653 865.2 58.2114 863.163 Q60.0256 861.094 60.0256 857.561 Q60.0256 852.691 56.5881 849.763 Q53.1188 846.803 47.3897 846.803 L46.0847 846.803 L46.0847 852.627 M43.6657 840.946 L64.0042 840.946 L64.0042 846.803 L58.5933 846.803 Q61.8398 848.808 63.3994 851.8 Q64.9272 854.792 64.9272 859.12 Q64.9272 864.595 61.8716 867.841 Q58.7843 871.056 53.6281 871.056 Q47.6125 871.056 44.5569 867.046 Q41.5014 863.004 41.5014 855.015 L41.5014 846.803 L40.9285 846.803 Q36.8862 846.803 34.6901 849.476 Q32.4621 852.118 32.4621 856.924 Q32.4621 859.98 33.1941 862.876 Q33.9262 865.773 35.3903 868.446 L29.9795 868.446 Q28.7381 865.232 28.1334 862.208 Q27.4968 859.184 27.4968 856.32 Q27.4968 848.585 31.5072 844.766 Q35.5176 840.946 43.6657 840.946 Z" fill="#000000" fill-rule="nonzero" fill-opacity="1" /><path clip-path="url(#clip570)" d="M18.2347 823.091 L28.3562 823.091 L28.3562 811.028 L32.9077 811.028 L32.9077 823.091 L52.2594 823.091 Q56.6199 823.091 57.8613 821.913 Q59.1026 820.703 59.1026 817.043 L59.1026 811.028 L64.0042 811.028 L64.0042 817.043 Q64.0042 823.823 61.4897 826.401 Q58.9434 828.979 52.2594 828.979 L32.9077 828.979 L32.9077 833.276 L28.3562 833.276 L28.3562 828.979 L18.2347 828.979 L18.2347 823.091 Z" fill="#000000" fill-rule="nonzero" fill-opacity="1" /><path clip-path="url(#clip570)" d="M44.7161 772.833 L47.5806 772.833 L47.5806 799.76 Q53.6281 799.378 56.8109 796.132 Q59.9619 792.853 59.9619 787.029 Q59.9619 783.655 59.1344 780.504 Q58.3069 777.321 56.6518 774.202 L62.1899 774.202 Q63.5267 777.353 64.227 780.663 Q64.9272 783.973 64.9272 787.379 Q64.9272 795.909 59.9619 800.906 Q54.9967 805.871 46.5303 805.871 Q37.7774 805.871 32.6531 801.161 Q27.4968 796.418 27.4968 788.397 Q27.4968 781.204 32.1438 777.035 Q36.7589 772.833 44.7161 772.833 M42.9973 778.69 Q38.1912 778.753 35.3266 781.395 Q32.4621 784.005 32.4621 788.334 Q32.4621 793.235 35.2312 796.195 Q38.0002 799.124 43.0292 799.569 L42.9973 778.69 Z" fill="#000000" fill-rule="nonzero" fill-opacity="1" /><path clip-path="url(#clip570)" d="M33.7671 739.763 L14.479 739.763 L14.479 733.907 L64.0042 733.907 L64.0042 739.763 L58.657 739.763 Q61.8398 741.61 63.3994 744.442 Q64.9272 747.243 64.9272 751.19 Q64.9272 757.651 59.771 761.725 Q54.6147 765.767 46.212 765.767 Q37.8093 765.767 32.6531 761.725 Q27.4968 757.651 27.4968 751.19 Q27.4968 747.243 29.0564 744.442 Q30.5842 741.61 33.7671 739.763 M46.212 759.72 Q52.6732 759.72 56.3653 757.078 Q60.0256 754.405 60.0256 749.758 Q60.0256 745.111 56.3653 742.437 Q52.6732 739.763 46.212 739.763 Q39.7508 739.763 36.0905 742.437 Q32.3984 745.111 32.3984 749.758 Q32.3984 754.405 36.0905 757.078 Q39.7508 759.72 46.212 759.72 Z" fill="#000000" fill-rule="nonzero" fill-opacity="1" /><path clip-path="url(#clip570)" d="M58.657 695.458 L77.5631 695.458 L77.5631 701.346 L28.3562 701.346 L28.3562 695.458 L33.7671 695.458 Q30.5842 693.612 29.0564 690.811 Q27.4968 687.978 27.4968 684.064 Q27.4968 677.57 32.6531 673.528 Q37.8093 669.454 46.212 669.454 Q54.6147 669.454 59.771 673.528 Q64.9272 677.57 64.9272 684.064 Q64.9272 687.978 63.3994 690.811 Q61.8398 693.612 58.657 695.458 M46.212 675.533 Q39.7508 675.533 36.0905 678.207 Q32.3984 680.849 32.3984 685.496 Q32.3984 690.143 36.0905 692.816 Q39.7508 695.458 46.212 695.458 Q52.6732 695.458 56.3653 692.816 Q60.0256 690.143 60.0256 685.496 Q60.0256 680.849 56.3653 678.207 Q52.6732 675.533 46.212 675.533 Z" fill="#000000" fill-rule="nonzero" fill-opacity="1" /><path clip-path="url(#clip570)" d="M43.5384 641.986 L43.5384 624.831 L48.7583 624.831 L48.7583 641.986 L43.5384 641.986 Z" fill="#000000" fill-rule="nonzero" fill-opacity="1" /><path clip-path="url(#clip570)" d="M16.4842 601.118 L16.4842 560.919 L21.895 560.919 L21.895 577.788 L64.0042 577.788 L64.0042 584.249 L21.895 584.249 L21.895 601.118 L16.4842 601.118 Z" fill="#000000" fill-rule="nonzero" fill-opacity="1" /><path clip-path="url(#clip570)" d="M33.8307 543.891 Q33.2578 544.877 33.0032 546.055 Q32.7167 547.201 32.7167 548.601 Q32.7167 553.567 35.9632 556.24 Q39.1779 558.882 45.2253 558.882 L64.0042 558.882 L64.0042 564.77 L28.3562 564.77 L28.3562 558.882 L33.8944 558.882 Q30.6479 557.036 29.0883 554.076 Q27.4968 551.116 27.4968 546.883 Q27.4968 546.278 27.5923 545.546 Q27.656 544.814 27.8151 543.922 L33.8307 543.891 Z" fill="#000000" fill-rule="nonzero" fill-opacity="1" /><path clip-path="url(#clip570)" d="M49.9359 538.352 L28.3562 538.352 L28.3562 532.496 L49.7131 532.496 Q54.7739 532.496 57.3202 530.523 Q59.8346 528.549 59.8346 524.603 Q59.8346 519.86 56.8109 517.123 Q53.7872 514.354 48.5673 514.354 L28.3562 514.354 L28.3562 508.497 L64.0042 508.497 L64.0042 514.354 L58.5296 514.354 Q61.7762 516.486 63.3676 519.319 Q64.9272 522.12 64.9272 525.844 Q64.9272 531.987 61.1078 535.17 Q57.2883 538.352 49.9359 538.352 M27.4968 523.616 L27.4968 523.616 Z" fill="#000000" fill-rule="nonzero" fill-opacity="1" /><path clip-path="url(#clip570)" d="M44.7161 465.943 L47.5806 465.943 L47.5806 492.87 Q53.6281 492.488 56.8109 489.241 Q59.9619 485.963 59.9619 480.138 Q59.9619 476.764 59.1344 473.613 Q58.3069 470.43 56.6518 467.311 L62.1899 467.311 Q63.5267 470.462 64.227 473.772 Q64.9272 477.083 64.9272 480.488 Q64.9272 489.018 59.9619 494.015 Q54.9967 498.981 46.5303 498.981 Q37.7774 498.981 32.6531 494.27 Q27.4968 489.528 27.4968 481.507 Q27.4968 474.313 32.1438 470.144 Q36.7589 465.943 44.7161 465.943 M42.9973 471.799 Q38.1912 471.863 35.3266 474.504 Q32.4621 477.114 32.4621 481.443 Q32.4621 486.345 35.2312 489.305 Q38.0002 492.233 43.0292 492.679 L42.9973 471.799 Z" fill="#000000" fill-rule="nonzero" fill-opacity="1" /><path clip-path="url(#clip570)" d="M58.657 429.945 L77.5631 429.945 L77.5631 435.833 L28.3562 435.833 L28.3562 429.945 L33.7671 429.945 Q30.5842 428.098 29.0564 425.298 Q27.4968 422.465 27.4968 418.55 Q27.4968 412.057 32.6531 408.015 Q37.8093 403.941 46.212 403.941 Q54.6147 403.941 59.771 408.015 Q64.9272 412.057 64.9272 418.55 Q64.9272 422.465 63.3994 425.298 Q61.8398 428.098 58.657 429.945 M46.212 410.02 Q39.7508 410.02 36.0905 412.693 Q32.3984 415.335 32.3984 419.982 Q32.3984 424.629 36.0905 427.303 Q39.7508 429.945 46.212 429.945 Q52.6732 429.945 56.3653 427.303 Q60.0256 424.629 60.0256 419.982 Q60.0256 415.335 56.3653 412.693 Q52.6732 410.02 46.212 410.02 Z" fill="#000000" fill-rule="nonzero" fill-opacity="1" /><path clip-path="url(#clip570)" d="M14.5426 395.156 L14.5426 390.063 Q22.0542 385.289 29.2474 382.934 Q36.4406 380.547 43.5384 380.547 Q50.668 380.547 57.8931 382.934 Q65.1182 385.289 72.5979 390.063 L72.5979 395.156 Q65.3091 390.923 58.1159 388.854 Q50.8908 386.753 43.5384 386.753 Q36.186 386.753 29.0246 388.854 Q21.8632 390.923 14.5426 395.156 Z" fill="#000000" fill-rule="nonzero" fill-opacity="1" /><path clip-path="url(#clip570)" d="M39.1142 366.415 L39.1142 352.919 L42.7427 352.919 L42.7427 371.953 L39.2416 371.953 Q38.2549 370.871 36.4725 368.866 Q26.7648 357.917 23.7729 357.917 Q21.6722 357.917 20.3991 359.572 Q19.0941 361.227 19.0941 363.932 Q19.0941 365.587 19.667 367.529 Q20.2081 369.47 21.3221 371.762 L17.4072 371.762 Q16.516 369.311 16.0704 367.21 Q15.6248 365.078 15.6248 363.264 Q15.6248 358.649 17.7255 355.88 Q19.8262 353.11 23.2636 353.11 Q27.6878 353.11 36.7271 363.646 Q38.2549 365.428 39.1142 366.415 Z" fill="#000000" fill-rule="nonzero" fill-opacity="1" /><polyline clip-path="url(#clip572)" style="stroke:#009af9; stroke-linecap:round; stroke-linejoin:round; stroke-width:4; stroke-opacity:1; fill:none" points="309.539,1358.66 311.525,297.478 313.511,205.93 315.496,168.929 317.482,86.1857 319.468,217.815 321.453,349.791 323.439,502.364 325.425,614.272 327.411,722.683 329.396,772.604 331.382,850.943 333.368,962.371 335.353,986.117 337.339,1000.82 339.325,1024.97 341.31,1027.05 343.296,1016.57 345.282,1040.18 347.267,1050.76 349.253,1057.32 351.239,1068.18 353.225,1086.8 355.21,1091.01 357.196,1098.45 359.182,1112.61 361.167,1106.91 363.153,1098.5 365.139,1097.46 367.124,1104.12 369.11,1108.15 371.096,1100.93 373.081,1112.03 375.067,1127.91 377.053,1132.16 379.038,1132.52 381.024,1125.75 383.01,1138.7 384.996,1145.03 386.981,1143.89 388.967,1151.26 390.953,1152.61 392.938,1156.45 394.924,1165.14 396.91,1161.15 398.895,1156.06 400.881,1161.56 402.867,1164.01 404.852,1158.98 406.838,1173.56 408.824,1178.86 410.81,1174.96 412.795,1183.06 414.781,1184.39 416.767,1178.33 418.752,1174.59 420.738,1177.06 422.724,1171.97 424.709,1154.9 426.695,1159.75 428.681,1155.45 430.666,1138.29 432.652,1147.83 434.638,1173.98 436.624,1178.21 438.609,1158.67 440.595,1156.23 442.581,1162.64 444.566,1155.64 446.552,1149.19 448.538,1144.97 450.523,1148.87 452.509,1156.14 454.495,1155.19 456.48,1151.37 458.466,1145.84 460.452,1142.49 462.438,1144.89 464.423,1145.2 466.409,1144.79 468.395,1146.28 470.38,1146.24 472.366,1145.7 474.352,1141.16 476.337,1139.15 478.323,1122.93 480.309,1126.71 482.294,1125.99 484.28,1127.99 486.266,1123.27 488.252,1120.69 490.237,1119.83 492.223,1118.07 494.209,1117.75 496.194,1116.37 498.18,1118.94 500.166,1122.34 502.151,1116.64 504.137,1117.39 506.123,1121.6 508.108,1126.93 510.094,1126.67 512.08,1129.11 514.065,1129.46 516.051,1139.84 518.037,1142.49 520.023,1139.99 522.008,1143.52 523.994,1143.73 525.98,1130.37 527.965,1133.03 529.951,1134.76 531.937,1134.21 533.922,1135.57 535.908,1140.4 537.894,1141.26 539.879,1145.98 541.865,1139.09 543.851,1142.39 545.837,1140.43 547.822,1135.01 549.808,1139.39 551.794,1141.46 553.779,1143.46 555.765,1143.34 557.751,1141.05 559.736,1146.04 561.722,1148.86 563.708,1151.64 565.693,1156.92 567.679,1160.72 569.665,1162.17 571.651,1162.09 573.636,1161.59 575.622,1163.4 577.608,1163.35 579.593,1166.39 581.579,1165.34 583.565,1164.02 585.55,1165.14 587.536,1164.59 589.522,1164.81 591.507,1166.3 593.493,1165.87 595.479,1172.21 597.465,1173.64 599.45,1174.92 601.436,1173.96 603.422,1174.41 605.407,1175.38 607.393,1176.89 609.379,1182.95 611.364,1181.47 613.35,1182.43 615.336,1183.74 617.321,1186.28 619.307,1187.37 621.293,1188.91 623.279,1189.84 625.264,1189.81 627.25,1191.24 629.236,1192.73 631.221,1194.33 633.207,1193.87 635.193,1196.07 637.178,1196.85 639.164,1199.06 641.15,1200.86 643.135,1200.94 645.121,1202.4 647.107,1204.76 649.092,1204.36 651.078,1204.38 653.064,1206.05 655.05,1206.4 657.035,1205.89 659.021,1208.29 661.007,1209.24 662.992,1209.59 664.978,1210.89 666.964,1210.37 668.949,1211.57 670.935,1212.28 672.921,1212.25 674.906,1211.67 676.892,1212.34 678.878,1213.22 680.864,1213.44 682.849,1213.87 684.835,1215.01 686.821,1214.64 688.806,1216.49 690.792,1217.5 692.778,1217.99 694.763,1219.14 696.749,1220.07 698.735,1220.32 700.72,1222.73 702.706,1223.12 704.692,1223.57 706.678,1223.16 708.663,1225.84 710.649,1225.35 712.635,1226.27 714.62,1228.34 716.606,1226.1 718.592,1227.88 720.577,1227.42 722.563,1228.03 724.549,1228.68 726.534,1229.25 728.52,1227.67 730.506,1227.91 732.492,1226.58 734.477,1226.72 736.463,1225.73 738.449,1226.6 740.434,1229.21 742.42,1230.31 744.406,1231.23 746.391,1232.15 748.377,1235.22 750.363,1236.3 752.348,1236.6 754.334,1237.17 756.32,1237.95 758.305,1238.95 760.291,1240.56 762.277,1243.09 764.263,1243.15 766.248,1244.29 768.234,1247.33 770.22,1248.59 772.205,1250.61 774.191,1251.26 776.177,1252.56 778.162,1253.99 780.148,1252.63 782.134,1252.47 784.119,1252.77 786.105,1253.66 788.091,1255.51 790.077,1256.97 792.062,1259.51 794.048,1262.41 796.034,1262.73 798.019,1263.29 800.005,1264.54 801.991,1265.22 803.976,1267.91 805.962,1268.96 807.948,1268.61 809.933,1268.96 811.919,1268.72 813.905,1268.95 815.891,1268.68 817.876,1269.63 819.862,1270.23 821.848,1272.12 823.833,1273.16 825.819,1272.89 827.805,1274.27 829.79,1274.12 831.776,1272.2 833.762,1273.69 835.747,1274.59 837.733,1273.46 839.719,1275.28 841.705,1274.94 843.69,1275.9 845.676,1276.1 847.662,1277.05 849.647,1278.34 851.633,1280.36 853.619,1280.66 855.604,1281.82 857.59,1283.3 859.576,1285.22 861.561,1285.11 863.547,1285.57 865.533,1285.62 867.519,1285.91 869.504,1286.43 871.49,1286.35 873.476,1286.42 875.461,1287.7 877.447,1287.83 879.433,1288.12 881.418,1290.53 883.404,1289.86 885.39,1291.06 887.375,1292.08 889.361,1290.09 891.347,1287.74 893.332,1288.4 895.318,1287.1 897.304,1287.79 899.29,1287.34 901.275,1286.63 903.261,1286.83 905.247,1287.53 907.232,1288.12 909.218,1289.01 911.204,1288.82 913.189,1289.81 915.175,1288.17 917.161,1290.77 919.146,1292.29 921.132,1293.5 923.118,1294.7 925.104,1293.69 927.089,1294.51 929.075,1296.86 931.061,1297.57 933.046,1299.07 935.032,1299.74 937.018,1301.04 939.003,1301.73 940.989,1302 942.975,1302.91 944.96,1302.87 946.946,1303.25 948.932,1304.47 950.918,1304.82 952.903,1305.89 954.889,1304.45 956.875,1304.69 958.86,1305.35 960.846,1304.94 962.832,1305.55 964.817,1307.22 966.803,1308.15 968.789,1309.07 970.774,1309.29 972.76,1310.57 974.746,1310.47 976.732,1311.97 978.717,1312.84 980.703,1311.18 982.689,1311.82 984.674,1312.51 986.66,1313.88 988.646,1314.73 990.631,1315.92 992.617,1317 994.603,1317.53 996.588,1318.75 998.574,1318.72 1000.56,1318.46 1002.55,1317.75 1004.53,1318.16 1006.52,1318.69 1008.5,1318.28 1010.49,1318.73 1012.47,1319.56 1014.46,1319.25 1016.45,1321.06 1018.43,1321.18 1020.42,1320.74 1022.4,1320.85 1024.39,1321 1026.37,1321.54 1028.36,1320.59 1030.35,1321.52 1032.33,1323.2 1034.32,1324.29 1036.3,1324.06 1038.29,1324.34 1040.27,1323.59 1042.26,1323.76 1044.25,1324.64 1046.23,1326.07 1048.22,1327.39 1050.2,1326.27 1052.19,1327.02 1054.17,1328.5 1056.16,1329.8 1058.14,1329.82 1060.13,1330.36 1062.12,1331.07 1064.1,1332.05 1066.09,1331.91 1068.07,1332.36 1070.06,1333.06 1072.04,1334.05 1074.03,1333.81 1076.02,1334.11 1078,1334.01 1079.99,1333.92 1081.97,1334.78 1083.96,1334.81 1085.94,1334.67 1087.93,1335.18 1089.92,1335.45 1091.9,1335.5 1093.89,1335.5 1095.87,1334.78 1097.86,1335.13 1099.84,1335.99 1101.83,1336.17 1103.82,1336.83 1105.8,1336.33 1107.79,1336.45 1109.77,1337.57 1111.76,1337.48 1113.74,1338.73 1115.73,1339.83 1117.72,1340.3 1119.7,1340.3 1121.69,1340.26 1123.67,1341.26 1125.66,1342.04 1127.64,1342.33 1129.63,1343.14 1131.62,1342.91 1133.6,1343.05 1135.59,1343.29 1137.57,1343.79 1139.56,1343.72 1141.54,1342.62 1143.53,1342.44 1145.52,1342.76 1147.5,1342.19 1149.49,1341.66 1151.47,1342.37 1153.46,1342.95 1155.44,1343.54 1157.43,1343.89 1159.42,1343.15 1161.4,1343.27 1163.39,1343.85 1165.37,1344.51 1167.36,1345.57 1169.34,1346.68 1171.33,1346.52 1173.31,1347.64 1175.3,1346.83 1177.29,1347.24 1179.27,1347.39 1181.26,1347.61 1183.24,1347.29 1185.23,1346.86 1187.21,1347.8 1189.2,1348.79 1191.19,1349.34 1193.17,1350.1 1195.16,1349.9 1197.14,1349.87 1199.13,1349.72 1201.11,1351.05 1203.1,1351.08 1205.09,1351.09 1207.07,1351.2 1209.06,1350.09 1211.04,1348.74 1213.03,1349.24 1215.01,1350.31 1217,1350.25 1218.99,1349.04 1220.97,1349.6 1222.96,1350.59 1224.94,1349.76 1226.93,1349.81 1228.91,1350.48 1230.9,1351.35 1232.89,1350.8 1234.87,1351.21 1236.86,1351.04 1238.84,1351.6 1240.83,1352.83 1242.81,1353.94 1244.8,1354.74 1246.79,1355.95 1248.77,1356.21 1250.76,1356.02 1252.74,1356.16 1254.73,1355.76 1256.71,1355.74 1258.7,1354.92 1260.69,1355.07 1262.67,1354.68 1264.66,1355.14 1266.64,1354.34 1268.63,1355.7 1270.61,1355.75 1272.6,1356.23 1274.59,1355.54 1276.57,1355.9 1278.56,1354.1 1280.54,1354.2 1282.53,1354.9 1284.51,1355.54 1286.5,1355.04 1288.49,1355.49 1290.47,1357.29 1292.46,1356.47 1294.44,1356.6 1296.43,1356.11 1298.41,1355.7 1300.4,1355.77 1302.38,1356.41 1304.37,1356.33 1306.36,1356.76 1308.34,1356.87 1310.33,1357.49 1312.31,1356.82 1314.3,1356.85 1316.28,1356.89 1318.27,1356.69 1320.26,1357.54 1322.24,1358.47 1324.23,1358.92 1326.21,1358.48 1328.2,1358.32 1330.18,1358.57 1332.17,1358.92 1334.16,1358.8 1336.14,1358.8 1338.13,1359.22 1340.11,1359.55 1342.1,1358.84 1344.08,1357.87 1346.07,1357.87 1348.06,1358.53 1350.04,1358.82 1352.03,1360.02 1354.01,1360.39 1356,1361.12 1357.98,1362.02 1359.97,1362.1 1361.96,1361.89 1363.94,1363.18 1365.93,1363.22 1367.91,1363.57 1369.9,1364.05 1371.88,1364.04 1373.87,1364.33 1375.86,1364.38 1377.84,1364.74 1379.83,1364.92 1381.81,1364.68 1383.8,1364.26 1385.78,1364.18 1387.77,1364.46 1389.76,1364.2 1391.74,1364.2 1393.73,1365.22 1395.71,1365.29 1397.7,1365.58 1399.68,1366.07 1401.67,1365.09 1403.66,1365.7 1405.64,1367.54 1407.63,1367.8 1409.61,1368.56 1411.6,1367.54 1413.58,1366.85 1415.57,1367.05 1417.55,1367.15 1419.54,1367.32 1421.53,1368.26 1423.51,1368.05 1425.5,1368.84 1427.48,1369.66 1429.47,1368.75 1431.45,1368.04 1433.44,1367.85 1435.43,1367.72 1437.41,1368.41 1439.4,1369.27 1441.38,1369.75 1443.37,1369.32 1445.35,1368.76 1447.34,1369.21 1449.33,1369.22 1451.31,1369.04 1453.3,1369.85 1455.28,1368.55 1457.27,1368.56 1459.25,1368.44 1461.24,1368.91 1463.23,1367.27 1465.21,1367.57 1467.2,1368.51 1469.18,1369.53 1471.17,1369.42 1473.15,1369.94 1475.14,1368.96 1477.13,1368.56 1479.11,1368.66 1481.1,1368.89 1483.08,1368.93 1485.07,1369.42 1487.05,1369.67 1489.04,1369.13 1491.03,1369.7 1493.01,1369.47 1495,1369.21 1496.98,1369.53 1498.97,1370.06 1500.95,1370.29 1502.94,1369.7 1504.93,1369.79 1506.91,1369.7 1508.9,1370.12 1510.88,1369.87 1512.87,1370.06 1514.85,1369.29 1516.84,1369.65 1518.83,1370.34 1520.81,1370.71 1522.8,1370.07 1524.78,1370.29 1526.77,1370.72 1528.75,1371.15 1530.74,1371.35 1532.73,1371.55 1534.71,1371.56 1536.7,1371.72 1538.68,1371.79 1540.67,1370.36 1542.65,1370.89 1544.64,1371.26 1546.62,1370.68 1548.61,1370.64 1550.6,1369.88 1552.58,1369.31 1554.57,1368.97 1556.55,1369.13 1558.54,1369.01 1560.52,1369.13 1562.51,1369.59 1564.5,1369.88 1566.48,1370.49 1568.47,1370.71 1570.45,1370.06 1572.44,1369.92 1574.42,1370.15 1576.41,1370.2 1578.4,1370.29 1580.38,1369.89 1582.37,1368.71 1584.35,1369.19 1586.34,1369.57 1588.32,1369.34 1590.31,1370.22 1592.3,1370.5 1594.28,1369.89 1596.27,1369.35 1598.25,1369.17 1600.24,1369.06 1602.22,1370.1 1604.21,1370.6 1606.2,1370.59 1608.18,1370.28 1610.17,1370.6 1612.15,1370.86 1614.14,1371.08 1616.12,1371.39 1618.11,1371.31 1620.1,1371.92 1622.08,1371.52 1624.07,1371.66 1626.05,1371.6 1628.04,1371.58 1630.02,1371.52 1632.01,1371.99 1634,1372.6 1635.98,1373.57 1637.97,1373.71 1639.95,1373.78 1641.94,1372.8 1643.92,1373.18 1645.91,1373.27 1647.9,1372.64 1649.88,1372.44 1651.87,1372.82 1653.85,1372.74 1655.84,1373.34 1657.82,1373.59 1659.81,1373.85 1661.79,1374.19 1663.78,1374.1 1665.77,1374.2 1667.75,1374.46 1669.74,1374.7 1671.72,1375.14 1673.71,1375.33 1675.69,1375.91 1677.68,1376.26 1679.67,1376.72 1681.65,1376.54 1683.64,1376.56 1685.62,1375.99 1687.61,1376.29 1689.59,1375.93 1691.58,1375.8 1693.57,1375.91 1695.55,1375.58 1697.54,1375.18 1699.52,1375.56 1701.51,1375.51 1703.49,1375.53 1705.48,1375.87 1707.47,1376.08 1709.45,1376.36 1711.44,1376.74 1713.42,1376.39 1715.41,1376.36 1717.39,1376.61 1719.38,1376.35 1721.37,1376.87 1723.35,1376.97 1725.34,1376.8 1727.32,1376.33 1729.31,1376.05 1731.29,1376.42 1733.28,1376.85 1735.27,1376.56 1737.25,1377.08 1739.24,1376.42 1741.22,1376.55 1743.21,1376.09 1745.19,1376.08 1747.18,1375.61 1749.17,1375.34 1751.15,1375.48 1753.14,1375.59 1755.12,1375.66 1757.11,1376.09 1759.09,1376.21 1761.08,1376.73 1763.07,1376.76 1765.05,1376.68 1767.04,1376.84 1769.02,1377.22 1771.01,1377.08 1772.99,1376.92 1774.98,1377.83 1776.97,1378.15 1778.95,1377.92 1780.94,1377.68 1782.92,1377.76 1784.91,1378.25 1786.89,1377.6 1788.88,1378.18 1790.86,1377.01 1792.85,1376.99 1794.84,1377.27 1796.82,1376.9 1798.81,1377.81 1800.79,1377.93 1802.78,1378.2 1804.76,1378.73 1806.75,1378.96 1808.74,1378.73 1810.72,1378.55 1812.71,1378.55 1814.69,1378.96 1816.68,1378.95 1818.66,1378.9 1820.65,1378.42 1822.64,1378.59 1824.62,1378.78 1826.61,1378.59 1828.59,1378.83 1830.58,1379.01 1832.56,1378.85 1834.55,1378.62 1836.54,1378.78 1838.52,1378.44 1840.51,1378.21 1842.49,1378.77 1844.48,1378.71 1846.46,1378.8 1848.45,1378.95 1850.44,1379.29 1852.42,1379.93 1854.41,1380.15 1856.39,1380.32 1858.38,1379.59 1860.36,1378.94 1862.35,1378.96 1864.34,1378.71 1866.32,1378.8 1868.31,1378.8 1870.29,1378.79 1872.28,1379.02 1874.26,1378.39 1876.25,1378.22 1878.24,1378.03 1880.22,1378.84 1882.21,1379.21 1884.19,1379.68 1886.18,1379.97 1888.16,1380.03 1890.15,1379.79 1892.14,1379.61 1894.12,1379.38 1896.11,1379.16 1898.09,1379.89 1900.08,1379.98 1902.06,1379.65 1904.05,1379.03 1906.03,1378.93 1908.02,1378.79 1910.01,1379.03 1911.99,1379.77 1913.98,1379.84 1915.96,1379.68 1917.95,1379.62 1919.93,1379.84 1921.92,1379.92 1923.91,1380.13 1925.89,1380.05 1927.88,1380.4 1929.86,1380.49 1931.85,1380.33 1933.83,1380.14 1935.82,1380.16 1937.81,1380.09 1939.79,1380.57 1941.78,1380.05 1943.76,1380.32 1945.75,1379.94 1947.73,1379.82 1949.72,1379.23 1951.71,1379.64 1953.69,1379.28 1955.68,1379.37 1957.66,1379.37 1959.65,1379.52 1961.63,1379.97 1963.62,1380.01 1965.61,1379.13 1967.59,1379.11 1969.58,1378.91 1971.56,1378.51 1973.55,1379.12 1975.53,1378.51 1977.52,1377.67 1979.51,1377.97 1981.49,1377.54 1983.48,1377.17 1985.46,1377 1987.45,1377.2 1989.43,1376.18 1991.42,1377.09 1993.41,1376.99 1995.39,1377.35 1997.38,1378.21 1999.36,1377.1 2001.35,1376.77 2003.33,1376.71 2005.32,1376.55 2007.31,1376.8 2009.29,1377.21 2011.28,1377.35 2013.26,1376.78 2015.25,1376.35 2017.23,1376.11 2019.22,1376.16 2021.21,1374.83 2023.19,1374.48 2025.18,1374.85 2027.16,1374.92 2029.15,1375.51 2031.13,1376.13 2033.12,1376.33 2035.1,1375.97 2037.09,1376.27 2039.08,1376.54 2041.06,1376.26 2043.05,1376.23 2045.03,1376.69 2047.02,1376.78 2049,1376.28 2050.99,1376.62 2052.98,1377.01 2054.96,1377.61 2056.95,1377.11 2058.93,1377.87 2060.92,1378.82 2062.9,1378.02 2064.89,1377.68 2066.88,1378.05 2068.86,1378.06 2070.85,1378.19 2072.83,1377.61 2074.82,1378.12 2076.8,1378.27 2078.79,1377.95 2080.78,1377.96 2082.76,1377.6 2084.75,1377.56 2086.73,1377.82 2088.72,1377.32 2090.7,1377.69 2092.69,1378.07 2094.68,1378.02 2096.66,1377.56 2098.65,1378.08 2100.63,1377.47 2102.62,1377.81 2104.6,1377.87 2106.59,1377.76 2108.58,1377.68 2110.56,1377.38 2112.55,1378.08 2114.53,1378.33 2116.52,1378.09 2118.5,1378.4 2120.49,1378.61 2122.48,1378.81 2124.46,1378.61 2126.45,1377.3 2128.43,1377.82 2130.42,1377.94 2132.4,1376.95 2134.39,1377.56 2136.38,1377.97 2138.36,1378.16 2140.35,1377.86 2142.33,1376.88 2144.32,1376.78 2146.3,1376.99 2148.29,1377.46 2150.27,1377.09 2152.26,1376.71 2154.25,1376.92 2156.23,1376.74 2158.22,1376.83 2160.2,1377.05 2162.19,1377.5 2164.17,1377.98 2166.16,1376.58 2168.15,1376.15 2170.13,1376.74 2172.12,1376.58 2174.1,1376.81 2176.09,1376.51 2178.07,1377.37 2180.06,1377.8 2182.05,1377.63 2184.03,1377.63 2186.02,1378.03 2188,1377.63 2189.99,1377.98 2191.97,1378.7 2193.96,1378.56 2195.95,1379.11 2197.93,1378.37 2199.92,1378.57 2201.9,1378.26 2203.89,1378.29 2205.87,1378.33 2207.86,1378.45 2209.85,1378.3 2211.83,1378.48 2213.82,1378.53 2215.8,1379.04 2217.79,1379.07 2219.77,1379.58 2221.76,1379.06 2223.75,1378.85 2225.73,1378.69 2227.72,1378.06 2229.7,1378.14 2231.69,1377.37 2233.67,1376.92 2235.66,1377.9 2237.65,1377.89 2239.63,1378.77 2241.62,1378.64 2243.6,1378.85 2245.59,1378.98 2247.57,1378.7 2249.56,1378.31 2251.55,1378.37 2253.53,1378.06 2255.52,1377.55 2257.5,1378.28 2259.49,1379.15 2261.47,1379.24 2263.46,1379.59 2265.45,1379.02 2267.43,1379.45 2269.42,1379.21 2271.4,1379.48 2273.39,1379.68 2275.37,1379.52 2277.36,1379.36 2279.34,1379.4 2281.33,1379.43 2283.32,1379.66 2285.3,1379.66 2287.29,1379.82 2289.27,1380.21 2291.26,1379.8 2293.24,1379.58 "/>
<polyline clip-path="url(#clip572)" style="stroke:#e26f46; stroke-linecap:round; stroke-linejoin:round; stroke-width:4; stroke-opacity:1; fill:none" points="309.539,1358.59 311.525,307.577 313.511,241.59 315.496,226.222 317.482,273.152 319.468,359.501 321.453,444.819 323.439,573.046 325.425,701.198 327.411,813.284 329.396,860.31 331.382,899.985 333.368,952.58 335.353,986.432 337.339,1022.73 339.325,1029.97 341.31,1042.11 343.296,1055.5 345.282,1072.04 347.267,1082.13 349.253,1085.6 351.239,1089.52 353.225,1098.52 355.21,1098.36 357.196,1093.37 359.182,1111.25 361.167,1131.02 363.153,1146.45 365.139,1134.06 367.124,1127.31 369.11,1119.49 371.096,1117.51 373.081,1119.9 375.067,1103.84 377.053,1103.28 379.038,1097.91 381.024,1101.66 383.01,1114.34 384.996,1111.37 386.981,1101.62 388.967,1088.86 390.953,1075.26 392.938,1076.52 394.924,1080.36 396.91,1087.75 398.895,1097.84 400.881,1090.65 402.867,1087.22 404.852,1092.31 406.838,1085.62 408.824,1089.36 410.81,1089.28 412.795,1080.57 414.781,1071.92 416.767,1080.24 418.752,1074 420.738,1080.89 422.724,1081.19 424.709,1100.98 426.695,1104.37 428.681,1101.72 430.666,1098.66 432.652,1099.46 434.638,1105.92 436.624,1098.19 438.609,1095.04 440.595,1093.5 442.581,1099.72 444.566,1099.62 446.552,1098.86 448.538,1101.41 450.523,1092.65 452.509,1081.53 454.495,1082.23 456.48,1087.01 458.466,1084.2 460.452,1080.67 462.438,1079.52 464.423,1079.66 466.409,1087.12 468.395,1089.68 470.38,1104.24 472.366,1103.5 474.352,1114.15 476.337,1117.47 478.323,1114.95 480.309,1112.43 482.294,1112.43 484.28,1112.53 486.266,1104.67 488.252,1113.29 490.237,1112.22 492.223,1116.32 494.209,1120.62 496.194,1119.3 498.18,1121.49 500.166,1122.11 502.151,1122.27 504.137,1125.8 506.123,1124.56 508.108,1131.65 510.094,1126.54 512.08,1131.36 514.065,1128.2 516.051,1122.41 518.037,1132.77 520.023,1127.96 522.008,1133.5 523.994,1134.78 525.98,1131.54 527.965,1133.74 529.951,1128.54 531.937,1120.44 533.922,1121.81 535.908,1124.86 537.894,1125.82 539.879,1125.36 541.865,1120.94 543.851,1124.51 545.837,1131.99 547.822,1130.06 549.808,1128.14 551.794,1125.83 553.779,1125.96 555.765,1132.52 557.751,1134.8 559.736,1135.44 561.722,1135.88 563.708,1139.18 565.693,1141.15 567.679,1139.37 569.665,1143.39 571.651,1145.01 573.636,1143.97 575.622,1147.74 577.608,1153.17 579.593,1149.81 581.579,1150.71 583.565,1149.24 585.55,1152.9 587.536,1153.6 589.522,1157.24 591.507,1161.15 593.493,1163.62 595.479,1161.37 597.465,1162.07 599.45,1169.55 601.436,1170.9 603.422,1171.53 605.407,1168.8 607.393,1171.24 609.379,1176.69 611.364,1175.85 613.35,1174.21 615.336,1170.97 617.321,1173.9 619.307,1177.04 621.293,1178.72 623.279,1178.82 625.264,1176.01 627.25,1175.09 629.236,1173.87 631.221,1175.2 633.207,1177.2 635.193,1173.12 637.178,1172.42 639.164,1170.72 641.15,1173.02 643.135,1177.72 645.121,1179.56 647.107,1178.46 649.092,1179.99 651.078,1180.8 653.064,1178.75 655.05,1179.27 657.035,1179.94 659.021,1179.85 661.007,1180.8 662.992,1179.55 664.978,1179.34 666.964,1183.43 668.949,1183.44 670.935,1184.99 672.921,1186.18 674.906,1187.11 676.892,1189.44 678.878,1191.05 680.864,1191.56 682.849,1191.73 684.835,1193.73 686.821,1195.51 688.806,1195.88 690.792,1198.2 692.778,1198.13 694.763,1200.94 696.749,1202.12 698.735,1202.92 700.72,1203.66 702.706,1205.48 704.692,1207.08 706.678,1207.92 708.663,1207.53 710.649,1209 712.635,1208.79 714.62,1209.25 716.606,1208.42 718.592,1208.3 720.577,1208.7 722.563,1209.81 724.549,1210.76 726.534,1212.68 728.52,1216.14 730.506,1216.17 732.492,1218.49 734.477,1217.58 736.463,1218.79 738.449,1220.35 740.434,1219.69 742.42,1218.82 744.406,1220.6 746.391,1219.53 748.377,1223.17 750.363,1222.71 752.348,1223.27 754.334,1224.75 756.32,1224.98 758.305,1224.54 760.291,1227.11 762.277,1227.4 764.263,1227.35 766.248,1228.65 768.234,1230.61 770.22,1230.17 772.205,1232.22 774.191,1233.78 776.177,1235.08 778.162,1235.15 780.148,1236.37 782.134,1239.13 784.119,1240.28 786.105,1240.68 788.091,1243.2 790.077,1244.72 792.062,1246.23 794.048,1248.16 796.034,1249.25 798.019,1251.03 800.005,1252.07 801.991,1252.69 803.976,1254.72 805.962,1256.68 807.948,1257.07 809.933,1256.22 811.919,1256.54 813.905,1257.17 815.891,1259.66 817.876,1258.56 819.862,1260.41 821.848,1261.43 823.833,1263.08 825.819,1264.39 827.805,1265.74 829.79,1265.22 831.776,1266.86 833.762,1267.42 835.747,1269.09 837.733,1269.39 839.719,1269.29 841.705,1269.42 843.69,1270.84 845.676,1271.99 847.662,1273.5 849.647,1272.83 851.633,1273.72 853.619,1275.36 855.604,1273.52 857.59,1273.61 859.576,1273.47 861.561,1274.73 863.547,1275.28 865.533,1276.5 867.519,1279.05 869.504,1278.85 871.49,1279.92 873.476,1280.9 875.461,1280.51 877.447,1280.34 879.433,1280.95 881.418,1281.7 883.404,1282.57 885.39,1281.79 887.375,1283.78 889.361,1284.66 891.347,1285.05 893.332,1287.67 895.318,1288.9 897.304,1288.64 899.29,1288.26 901.275,1286.68 903.261,1288.32 905.247,1288.72 907.232,1288.09 909.218,1289.82 911.204,1290.01 913.189,1291.77 915.175,1292.42 917.161,1293.38 919.146,1293.69 921.132,1294.12 923.118,1295.32 925.104,1295.83 927.089,1295.98 929.075,1296.38 931.061,1298.17 933.046,1299.12 935.032,1299.42 937.018,1299.8 939.003,1300.34 940.989,1300 942.975,1301.86 944.96,1303.15 946.946,1303.78 948.932,1304.08 950.918,1304.44 952.903,1305.42 954.889,1306.95 956.875,1307.97 958.86,1307.41 960.846,1307.02 962.832,1307.78 964.817,1309.14 966.803,1309.73 968.789,1310.65 970.774,1312 972.76,1312.55 974.746,1314.18 976.732,1314.06 978.717,1314.66 980.703,1314.75 982.689,1315.5 984.674,1316.2 986.66,1318.07 988.646,1318.2 990.631,1318.46 992.617,1320.89 994.603,1320.87 996.588,1321.32 998.574,1322.42 1000.56,1322.53 1002.55,1322.27 1004.53,1323.18 1006.52,1323.53 1008.5,1324.21 1010.49,1325.65 1012.47,1325.56 1014.46,1325.3 1016.45,1324.4 1018.43,1326.01 1020.42,1327.01 1022.4,1325.63 1024.39,1326.04 1026.37,1326.69 1028.36,1327.69 1030.35,1325.88 1032.33,1326.05 1034.32,1327.28 1036.3,1327.39 1038.29,1326.65 1040.27,1326.58 1042.26,1327.45 1044.25,1327.8 1046.23,1328.52 1048.22,1328.59 1050.2,1329.48 1052.19,1331.69 1054.17,1332.82 1056.16,1333.63 1058.14,1332.22 1060.13,1332.37 1062.12,1333.38 1064.1,1333.43 1066.09,1333.33 1068.07,1334.03 1070.06,1335.53 1072.04,1335.95 1074.03,1336.89 1076.02,1337.45 1078,1338.1 1079.99,1339 1081.97,1339.61 1083.96,1340.57 1085.94,1341.42 1087.93,1341.4 1089.92,1341.59 1091.9,1340.57 1093.89,1340.46 1095.87,1340.66 1097.86,1341.18 1099.84,1340.62 1101.83,1341.31 1103.82,1341.17 1105.8,1341.55 1107.79,1341.35 1109.77,1342.01 1111.76,1342.42 1113.74,1344.28 1115.73,1345.28 1117.72,1345.71 1119.7,1345.84 1121.69,1346.62 1123.67,1346.24 1125.66,1346.81 1127.64,1347.55 1129.63,1348.44 1131.62,1349.11 1133.6,1350.31 1135.59,1350.45 1137.57,1350.15 1139.56,1350.51 1141.54,1351.03 1143.53,1351.46 1145.52,1352.47 1147.5,1352.66 1149.49,1352.49 1151.47,1350.75 1153.46,1351.82 1155.44,1352.38 1157.43,1352.45 1159.42,1352.7 1161.4,1352.7 1163.39,1353.87 1165.37,1355.05 1167.36,1355.27 1169.34,1355.37 1171.33,1354.38 1173.31,1354.33 1175.3,1354.18 1177.29,1353.89 1179.27,1353.53 1181.26,1353.59 1183.24,1353.8 1185.23,1353.87 1187.21,1353.88 1189.2,1353.49 1191.19,1353.93 1193.17,1353.05 1195.16,1353.94 1197.14,1353.72 1199.13,1353.88 1201.11,1354.95 1203.1,1354.45 1205.09,1355.07 1207.07,1354.65 1209.06,1356.05 1211.04,1355.62 1213.03,1356.54 1215.01,1357.23 1217,1357.46 1218.99,1357.73 1220.97,1359.27 1222.96,1360.91 1224.94,1360.77 1226.93,1360.38 1228.91,1360.31 1230.9,1360.31 1232.89,1360.15 1234.87,1359.87 1236.86,1359.87 1238.84,1359.74 1240.83,1360.14 1242.81,1360.72 1244.8,1360.12 1246.79,1359.43 1248.77,1359.12 1250.76,1358.49 1252.74,1358.9 1254.73,1358.67 1256.71,1359.4 1258.7,1359.9 1260.69,1359.85 1262.67,1360.18 1264.66,1361.08 1266.64,1361.11 1268.63,1360.75 1270.61,1360.5 1272.6,1360.9 1274.59,1361.05 1276.57,1360.81 1278.56,1360.64 1280.54,1360.73 1282.53,1360.12 1284.51,1361.33 1286.5,1361.9 1288.49,1362.3 1290.47,1362.73 1292.46,1363.33 1294.44,1363.24 1296.43,1363.76 1298.41,1364.69 1300.4,1364.91 1302.38,1364.77 1304.37,1365.68 1306.36,1365.27 1308.34,1365.77 1310.33,1365.71 1312.31,1366.76 1314.3,1367.91 1316.28,1367.38 1318.27,1367.56 1320.26,1367.55 1322.24,1367.29 1324.23,1367.51 1326.21,1367.98 1328.2,1367.86 1330.18,1369.05 1332.17,1368.75 1334.16,1369.03 1336.14,1369.29 1338.13,1369.25 1340.11,1369.49 1342.1,1369.82 1344.08,1370.39 1346.07,1370.23 1348.06,1370.99 1350.04,1370.5 1352.03,1370.72 1354.01,1370.75 1356,1370.91 1357.98,1371.47 1359.97,1371.95 1361.96,1371.84 1363.94,1372.9 1365.93,1373.66 1367.91,1374.02 1369.9,1374.24 1371.88,1374.71 1373.87,1374.45 1375.86,1374.91 1377.84,1374.91 1379.83,1374.39 1381.81,1374.21 1383.8,1374.39 1385.78,1374.25 1387.77,1374.22 1389.76,1374.97 1391.74,1374.96 1393.73,1375.5 1395.71,1376.01 1397.7,1375.71 1399.68,1375.28 1401.67,1375.67 1403.66,1376.43 1405.64,1376.43 1407.63,1376.69 1409.61,1377.63 1411.6,1377.42 1413.58,1377.12 1415.57,1377.9 1417.55,1377.42 1419.54,1378.16 1421.53,1378.32 1423.51,1378.23 1425.5,1378.09 1427.48,1377.8 1429.47,1377.76 1431.45,1378.04 1433.44,1377.5 1435.43,1377.21 1437.41,1377.04 1439.4,1377.26 1441.38,1377.02 1443.37,1377.16 1445.35,1377.38 1447.34,1376.9 1449.33,1377.13 1451.31,1376.69 1453.3,1375.98 1455.28,1376.33 1457.27,1376.54 1459.25,1375.78 1461.24,1376.1 1463.23,1374.54 1465.21,1375.08 1467.2,1374.71 1469.18,1374.83 1471.17,1374.41 1473.15,1374.79 1475.14,1374.44 1477.13,1374.5 1479.11,1374.83 1481.1,1375.06 1483.08,1375.18 1485.07,1375.08 1487.05,1375.03 1489.04,1374.11 1491.03,1374.53 1493.01,1374.81 1495,1374.93 1496.98,1375.13 1498.97,1375.07 1500.95,1375.18 1502.94,1375.82 1504.93,1376.54 1506.91,1377.03 1508.9,1377.11 1510.88,1377.01 1512.87,1376.39 1514.85,1376.82 1516.84,1376.69 1518.83,1376.65 1520.81,1377.12 1522.8,1377.07 1524.78,1376.79 1526.77,1376.06 1528.75,1375.8 1530.74,1375.59 1532.73,1375.51 1534.71,1375.19 1536.7,1375.39 1538.68,1375.68 1540.67,1375.79 1542.65,1376.06 1544.64,1376.07 1546.62,1376.01 1548.61,1376.39 1550.6,1376.57 1552.58,1376.62 1554.57,1377.13 1556.55,1378.16 1558.54,1377.86 1560.52,1378.05 1562.51,1378.13 1564.5,1378.46 1566.48,1378.43 1568.47,1377.19 1570.45,1377.55 1572.44,1377.13 1574.42,1377.49 1576.41,1377.7 1578.4,1377.99 1580.38,1377.58 1582.37,1378.12 1584.35,1378.37 1586.34,1378.48 1588.32,1378.41 1590.31,1378.95 1592.3,1379.54 1594.28,1379.52 1596.27,1380.04 1598.25,1380.49 1600.24,1379.54 1602.22,1379.54 1604.21,1379.88 1606.2,1380.32 1608.18,1380.53 1610.17,1380.97 1612.15,1381.42 1614.14,1381.78 1616.12,1381.86 1618.11,1380.89 1620.1,1381.75 1622.08,1381.59 1624.07,1381.11 1626.05,1380.5 1628.04,1380.81 1630.02,1380.4 1632.01,1380.8 1634,1380.57 1635.98,1380.53 1637.97,1380.74 1639.95,1380.45 1641.94,1379.02 1643.92,1379.6 1645.91,1379.62 1647.9,1379.64 1649.88,1379.03 1651.87,1379.67 1653.85,1379.81 1655.84,1380.44 1657.82,1380.09 1659.81,1380.7 1661.79,1380.85 1663.78,1380.6 1665.77,1380.95 1667.75,1380.65 1669.74,1380.72 1671.72,1380.66 1673.71,1380.52 1675.69,1381.01 1677.68,1380.62 1679.67,1379.26 1681.65,1379.03 1683.64,1378.68 1685.62,1379.14 1687.61,1379.24 1689.59,1379.16 1691.58,1378.92 1693.57,1379.33 1695.55,1379.88 1697.54,1380.29 1699.52,1380.81 1701.51,1380.79 1703.49,1380.78 1705.48,1381.28 1707.47,1381.59 1709.45,1382.8 1711.44,1383.02 1713.42,1382.89 1715.41,1382.88 1717.39,1382.79 1719.38,1382.35 1721.37,1381.73 1723.35,1381.8 1725.34,1381.96 1727.32,1382.11 1729.31,1382.37 1731.29,1382.2 1733.28,1381.71 1735.27,1381.56 1737.25,1381.12 1739.24,1381.4 1741.22,1381.63 1743.21,1381.9 1745.19,1382.3 1747.18,1382.75 1749.17,1383.17 1751.15,1383.59 1753.14,1383.49 1755.12,1384.21 1757.11,1383.78 1759.09,1384.1 1761.08,1383.89 1763.07,1384.24 1765.05,1383.33 1767.04,1383.62 1769.02,1383.6 1771.01,1383.88 1772.99,1382.78 1774.98,1381.95 1776.97,1382.45 1778.95,1381.84 1780.94,1381.79 1782.92,1381.03 1784.91,1380.58 1786.89,1380.46 1788.88,1380.51 1790.86,1380.67 1792.85,1380.66 1794.84,1380.2 1796.82,1380.05 1798.81,1379.69 1800.79,1378.96 1802.78,1378.71 1804.76,1378.64 1806.75,1378.14 1808.74,1378.41 1810.72,1377.26 1812.71,1376.5 1814.69,1375.46 1816.68,1375.77 1818.66,1376.03 1820.65,1375.55 1822.64,1375.32 1824.62,1375.28 1826.61,1374.9 1828.59,1375.05 1830.58,1375.03 1832.56,1375.06 1834.55,1374.04 1836.54,1373.82 1838.52,1373.68 1840.51,1374.36 1842.49,1374.54 1844.48,1374.69 1846.46,1375.56 1848.45,1376.3 1850.44,1375.89 1852.42,1376.36 1854.41,1377.22 1856.39,1377.14 1858.38,1377.68 1860.36,1378.05 1862.35,1377.83 1864.34,1377.98 1866.32,1378.38 1868.31,1378.74 1870.29,1378.47 1872.28,1378.7 1874.26,1379 1876.25,1378.87 1878.24,1378.79 1880.22,1378.96 1882.21,1378.14 1884.19,1377.35 1886.18,1377.22 1888.16,1376.59 1890.15,1376.32 1892.14,1376.74 1894.12,1376.29 1896.11,1376.96 1898.09,1377.62 1900.08,1377.92 1902.06,1377.39 1904.05,1377.35 1906.03,1377.52 1908.02,1375.37 1910.01,1375.78 1911.99,1375.91 1913.98,1376.4 1915.96,1376.11 1917.95,1375.88 1919.93,1375.29 1921.92,1375.81 1923.91,1376.61 1925.89,1377.78 1927.88,1377.46 1929.86,1377.38 1931.85,1377.32 1933.83,1376.6 1935.82,1376.04 1937.81,1375.87 1939.79,1375.55 1941.78,1376.01 1943.76,1376.45 1945.75,1376.88 1947.73,1377.14 1949.72,1378.01 1951.71,1378.43 1953.69,1378.18 1955.68,1377.96 1957.66,1378.28 1959.65,1378.28 1961.63,1378.14 1963.62,1378.28 1965.61,1377.69 1967.59,1377.88 1969.58,1377.35 1971.56,1377.38 1973.55,1377.74 1975.53,1377.98 1977.52,1378.59 1979.51,1379.26 1981.49,1379.56 1983.48,1379.56 1985.46,1379.4 1987.45,1379.14 1989.43,1379.08 1991.42,1378.86 1993.41,1379.14 1995.39,1379.27 1997.38,1379.47 1999.36,1379.8 2001.35,1380.34 2003.33,1380.59 2005.32,1380.71 2007.31,1380.79 2009.29,1380.8 2011.28,1381.08 2013.26,1380.86 2015.25,1380.39 2017.23,1380.33 2019.22,1380.32 2021.21,1380.21 2023.19,1380.21 2025.18,1380.66 2027.16,1380.49 2029.15,1380.08 2031.13,1379.31 2033.12,1379.41 2035.1,1379.55 2037.09,1379.1 2039.08,1379.41 2041.06,1379.33 2043.05,1379.14 2045.03,1379.84 2047.02,1379.24 2049,1379.28 2050.99,1379.13 2052.98,1378.84 2054.96,1378.97 2056.95,1378.82 2058.93,1378.18 2060.92,1378.11 2062.9,1378.19 2064.89,1378.21 2066.88,1378.45 2068.86,1378.3 2070.85,1378.99 2072.83,1378.93 2074.82,1378.91 2076.8,1379.05 2078.79,1379.16 2080.78,1379.9 2082.76,1380.16 2084.75,1380.11 2086.73,1380.54 2088.72,1381.05 2090.7,1380.58 2092.69,1380.24 2094.68,1380.41 2096.66,1380.18 2098.65,1380.08 2100.63,1380.25 2102.62,1380.46 2104.6,1380.32 2106.59,1380.69 2108.58,1380.51 2110.56,1380.59 2112.55,1380.71 2114.53,1380.21 2116.52,1380.82 2118.5,1380.7 2120.49,1380.93 2122.48,1381.14 2124.46,1380.58 2126.45,1380.72 2128.43,1381.05 2130.42,1381.15 2132.4,1380.75 2134.39,1380.67 2136.38,1380.73 2138.36,1380.8 2140.35,1381.18 2142.33,1381.34 2144.32,1381.21 2146.3,1381.59 2148.29,1382.17 2150.27,1381.81 2152.26,1381.6 2154.25,1381.55 2156.23,1381.89 2158.22,1381.79 2160.2,1382.1 2162.19,1382.46 2164.17,1382.97 2166.16,1382.63 2168.15,1382.65 2170.13,1382.21 2172.12,1382.24 2174.1,1381.91 2176.09,1382.66 2178.07,1382.41 2180.06,1382.4 2182.05,1382.97 2184.03,1382.97 2186.02,1383.32 2188,1383.29 2189.99,1383.27 2191.97,1383.18 2193.96,1383.21 2195.95,1383.52 2197.93,1382.73 2199.92,1382.68 2201.9,1383 2203.89,1382.83 2205.87,1382.48 2207.86,1382.63 2209.85,1382.66 2211.83,1382.18 2213.82,1382.08 2215.8,1381.87 2217.79,1381.83 2219.77,1382.05 2221.76,1381.55 2223.75,1381.68 2225.73,1382.04 2227.72,1381.59 2229.7,1381.77 2231.69,1381.36 2233.67,1380.99 2235.66,1380.8 2237.65,1381.79 2239.63,1381.3 2241.62,1381.13 2243.6,1380.74 2245.59,1380.91 2247.57,1380.32 2249.56,1380.6 2251.55,1380.31 2253.53,1380.44 2255.52,1379.96 2257.5,1379.62 2259.49,1378.99 2261.47,1378.34 2263.46,1378.96 2265.45,1378.73 2267.43,1378.52 2269.42,1378.67 2271.4,1378.66 2273.39,1378.03 2275.37,1378.4 2277.36,1378.32 2279.34,1378.98 2281.33,1379.27 2283.32,1379.3 2285.3,1379.49 2287.29,1380.04 2289.27,1379.85 2291.26,1379.74 2293.24,1379.87 "/>
<path clip-path="url(#clip570)" d="M1525.66 248.629 L2282.66 248.629 L2282.66 93.1086 L1525.66 93.1086  Z" fill="#ffffff" fill-rule="evenodd" fill-opacity="1"/>
<polyline clip-path="url(#clip570)" style="stroke:#000000; stroke-linecap:round; stroke-linejoin:round; stroke-width:4; stroke-opacity:1; fill:none" points="1525.66,248.629 2282.66,248.629 2282.66,93.1086 1525.66,93.1086 1525.66,248.629 "/>
<polyline clip-path="url(#clip570)" style="stroke:#009af9; stroke-linecap:round; stroke-linejoin:round; stroke-width:4; stroke-opacity:1; fill:none" points="1549.02,144.949 1689.2,144.949 "/>
<path clip-path="url(#clip570)" d="M1712.57 127.669 L1719.54 127.669 L1728.36 151.187 L1737.22 127.669 L1744.19 127.669 L1744.19 162.229 L1739.63 162.229 L1739.63 131.882 L1730.72 155.585 L1726.02 155.585 L1717.11 131.882 L1717.11 162.229 L1712.57 162.229 L1712.57 127.669 Z" fill="#000000" fill-rule="nonzero" fill-opacity="1" /><path clip-path="url(#clip570)" d="M1752.85 151.997 L1752.85 136.303 L1757.1 136.303 L1757.1 151.835 Q1757.1 155.516 1758.54 157.368 Q1759.98 159.196 1762.85 159.196 Q1766.29 159.196 1768.29 156.997 Q1770.3 154.798 1770.3 151.002 L1770.3 136.303 L1774.56 136.303 L1774.56 162.229 L1770.3 162.229 L1770.3 158.247 Q1768.75 160.608 1766.69 161.766 Q1764.65 162.9 1761.94 162.9 Q1757.48 162.9 1755.16 160.122 Q1752.85 157.344 1752.85 151.997 M1763.56 135.678 L1763.56 135.678 Z" fill="#000000" fill-rule="nonzero" fill-opacity="1" /><path clip-path="url(#clip570)" d="M1783.33 126.21 L1787.59 126.21 L1787.59 162.229 L1783.33 162.229 L1783.33 126.21 Z" fill="#000000" fill-rule="nonzero" fill-opacity="1" /><path clip-path="url(#clip570)" d="M1800.72 128.942 L1800.72 136.303 L1809.49 136.303 L1809.49 139.613 L1800.72 139.613 L1800.72 153.687 Q1800.72 156.858 1801.57 157.761 Q1802.45 158.664 1805.11 158.664 L1809.49 158.664 L1809.49 162.229 L1805.11 162.229 Q1800.18 162.229 1798.31 160.4 Q1796.43 158.548 1796.43 153.687 L1796.43 139.613 L1793.31 139.613 L1793.31 136.303 L1796.43 136.303 L1796.43 128.942 L1800.72 128.942 Z" fill="#000000" fill-rule="nonzero" fill-opacity="1" /><path clip-path="url(#clip570)" d="M1815.09 136.303 L1819.35 136.303 L1819.35 162.229 L1815.09 162.229 L1815.09 136.303 M1815.09 126.21 L1819.35 126.21 L1819.35 131.604 L1815.09 131.604 L1815.09 126.21 Z" fill="#000000" fill-rule="nonzero" fill-opacity="1" /><path clip-path="url(#clip570)" d="M1849.81 146.581 L1849.81 162.229 L1845.55 162.229 L1845.55 146.719 Q1845.55 143.039 1844.12 141.21 Q1842.68 139.382 1839.81 139.382 Q1836.36 139.382 1834.37 141.581 Q1832.38 143.78 1832.38 147.576 L1832.38 162.229 L1828.1 162.229 L1828.1 136.303 L1832.38 136.303 L1832.38 140.331 Q1833.91 137.993 1835.97 136.835 Q1838.05 135.678 1840.76 135.678 Q1845.23 135.678 1847.52 138.456 Q1849.81 141.21 1849.81 146.581 Z" fill="#000000" fill-rule="nonzero" fill-opacity="1" /><path clip-path="url(#clip570)" d="M1868.35 139.289 Q1864.93 139.289 1862.94 141.974 Q1860.95 144.636 1860.95 149.289 Q1860.95 153.942 1862.91 156.627 Q1864.91 159.289 1868.35 159.289 Q1871.76 159.289 1873.75 156.604 Q1875.74 153.918 1875.74 149.289 Q1875.74 144.682 1873.75 141.997 Q1871.76 139.289 1868.35 139.289 M1868.35 135.678 Q1873.91 135.678 1877.08 139.289 Q1880.25 142.9 1880.25 149.289 Q1880.25 155.655 1877.08 159.289 Q1873.91 162.9 1868.35 162.9 Q1862.78 162.9 1859.6 159.289 Q1856.46 155.655 1856.46 149.289 Q1856.46 142.9 1859.6 139.289 Q1862.78 135.678 1868.35 135.678 Z" fill="#000000" fill-rule="nonzero" fill-opacity="1" /><path clip-path="url(#clip570)" d="M1907.5 141.28 Q1909.09 138.409 1911.32 137.044 Q1913.54 135.678 1916.55 135.678 Q1920.6 135.678 1922.8 138.525 Q1925 141.349 1925 146.581 L1925 162.229 L1920.72 162.229 L1920.72 146.719 Q1920.72 142.993 1919.4 141.187 Q1918.08 139.382 1915.37 139.382 Q1912.06 139.382 1910.14 141.581 Q1908.22 143.78 1908.22 147.576 L1908.22 162.229 L1903.93 162.229 L1903.93 146.719 Q1903.93 142.969 1902.61 141.187 Q1901.29 139.382 1898.54 139.382 Q1895.28 139.382 1893.35 141.604 Q1891.43 143.803 1891.43 147.576 L1891.43 162.229 L1887.15 162.229 L1887.15 136.303 L1891.43 136.303 L1891.43 140.331 Q1892.89 137.946 1894.93 136.812 Q1896.97 135.678 1899.77 135.678 Q1902.59 135.678 1904.56 137.113 Q1906.55 138.548 1907.5 141.28 Z" fill="#000000" fill-rule="nonzero" fill-opacity="1" /><path clip-path="url(#clip570)" d="M1933.49 136.303 L1937.75 136.303 L1937.75 162.229 L1933.49 162.229 L1933.49 136.303 M1933.49 126.21 L1937.75 126.21 L1937.75 131.604 L1933.49 131.604 L1933.49 126.21 Z" fill="#000000" fill-rule="nonzero" fill-opacity="1" /><path clip-path="url(#clip570)" d="M1958.45 149.196 Q1953.28 149.196 1951.29 150.377 Q1949.3 151.557 1949.3 154.405 Q1949.3 156.673 1950.78 158.016 Q1952.29 159.335 1954.86 159.335 Q1958.4 159.335 1960.53 156.835 Q1962.68 154.312 1962.68 150.145 L1962.68 149.196 L1958.45 149.196 M1966.94 147.437 L1966.94 162.229 L1962.68 162.229 L1962.68 158.293 Q1961.22 160.655 1959.05 161.789 Q1956.87 162.9 1953.72 162.9 Q1949.74 162.9 1947.38 160.678 Q1945.04 158.432 1945.04 154.682 Q1945.04 150.307 1947.96 148.085 Q1950.9 145.863 1956.71 145.863 L1962.68 145.863 L1962.68 145.446 Q1962.68 142.507 1960.74 140.909 Q1958.82 139.289 1955.32 139.289 Q1953.1 139.289 1950.99 139.821 Q1948.89 140.354 1946.94 141.419 L1946.94 137.483 Q1949.28 136.581 1951.48 136.141 Q1953.68 135.678 1955.76 135.678 Q1961.39 135.678 1964.16 138.594 Q1966.94 141.511 1966.94 147.437 Z" fill="#000000" fill-rule="nonzero" fill-opacity="1" /><path clip-path="url(#clip570)" d="M1975.71 126.21 L1979.97 126.21 L1979.97 162.229 L1975.71 162.229 L1975.71 126.21 Z" fill="#000000" fill-rule="nonzero" fill-opacity="1" /><path clip-path="url(#clip570)" d="M2018.98 140.284 Q2018.26 139.868 2017.4 139.682 Q2016.57 139.474 2015.55 139.474 Q2011.94 139.474 2010 141.835 Q2008.08 144.173 2008.08 148.571 L2008.08 162.229 L2003.79 162.229 L2003.79 136.303 L2008.08 136.303 L2008.08 140.331 Q2009.42 137.969 2011.57 136.835 Q2013.72 135.678 2016.8 135.678 Q2017.24 135.678 2017.77 135.747 Q2018.31 135.794 2018.96 135.909 L2018.98 140.284 Z" fill="#000000" fill-rule="nonzero" fill-opacity="1" /><path clip-path="url(#clip570)" d="M2044.58 148.201 L2044.58 150.284 L2025 150.284 Q2025.27 154.682 2027.64 156.997 Q2030.02 159.289 2034.26 159.289 Q2036.71 159.289 2039 158.687 Q2041.32 158.085 2043.58 156.881 L2043.58 160.909 Q2041.29 161.881 2038.89 162.391 Q2036.48 162.9 2034 162.9 Q2027.8 162.9 2024.16 159.289 Q2020.55 155.678 2020.55 149.52 Q2020.55 143.155 2023.98 139.428 Q2027.43 135.678 2033.26 135.678 Q2038.49 135.678 2041.52 139.057 Q2044.58 142.414 2044.58 148.201 M2040.32 146.951 Q2040.27 143.456 2038.35 141.372 Q2036.46 139.289 2033.31 139.289 Q2029.74 139.289 2027.59 141.303 Q2025.46 143.317 2025.14 146.974 L2040.32 146.951 Z" fill="#000000" fill-rule="nonzero" fill-opacity="1" /><path clip-path="url(#clip570)" d="M2068.1 137.067 L2068.1 141.094 Q2066.29 140.169 2064.35 139.706 Q2062.4 139.243 2060.32 139.243 Q2057.15 139.243 2055.55 140.215 Q2053.98 141.187 2053.98 143.131 Q2053.98 144.613 2055.11 145.469 Q2056.25 146.303 2059.67 147.067 L2061.13 147.391 Q2065.67 148.363 2067.57 150.145 Q2069.49 151.905 2069.49 155.076 Q2069.49 158.687 2066.62 160.793 Q2063.77 162.9 2058.77 162.9 Q2056.69 162.9 2054.42 162.483 Q2052.17 162.09 2049.67 161.28 L2049.67 156.881 Q2052.03 158.108 2054.33 158.733 Q2056.62 159.335 2058.86 159.335 Q2061.87 159.335 2063.49 158.317 Q2065.11 157.275 2065.11 155.4 Q2065.11 153.664 2063.93 152.738 Q2062.77 151.812 2058.82 150.956 L2057.33 150.608 Q2053.38 149.775 2051.62 148.062 Q2049.86 146.326 2049.86 143.317 Q2049.86 139.659 2052.45 137.669 Q2055.04 135.678 2059.81 135.678 Q2062.17 135.678 2064.26 136.025 Q2066.34 136.372 2068.1 137.067 Z" fill="#000000" fill-rule="nonzero" fill-opacity="1" /><path clip-path="url(#clip570)" d="M2088.05 149.196 Q2082.89 149.196 2080.9 150.377 Q2078.91 151.557 2078.91 154.405 Q2078.91 156.673 2080.39 158.016 Q2081.89 159.335 2084.46 159.335 Q2088.01 159.335 2090.14 156.835 Q2092.29 154.312 2092.29 150.145 L2092.29 149.196 L2088.05 149.196 M2096.55 147.437 L2096.55 162.229 L2092.29 162.229 L2092.29 158.293 Q2090.83 160.655 2088.65 161.789 Q2086.48 162.9 2083.33 162.9 Q2079.35 162.9 2076.99 160.678 Q2074.65 158.432 2074.65 154.682 Q2074.65 150.307 2077.57 148.085 Q2080.51 145.863 2086.32 145.863 L2092.29 145.863 L2092.29 145.446 Q2092.29 142.507 2090.34 140.909 Q2088.42 139.289 2084.93 139.289 Q2082.71 139.289 2080.6 139.821 Q2078.49 140.354 2076.55 141.419 L2076.55 137.483 Q2078.89 136.581 2081.08 136.141 Q2083.28 135.678 2085.37 135.678 Q2090.99 135.678 2093.77 138.594 Q2096.55 141.511 2096.55 147.437 Z" fill="#000000" fill-rule="nonzero" fill-opacity="1" /><path clip-path="url(#clip570)" d="M2125.51 141.28 Q2127.1 138.409 2129.33 137.044 Q2131.55 135.678 2134.56 135.678 Q2138.61 135.678 2140.81 138.525 Q2143.01 141.349 2143.01 146.581 L2143.01 162.229 L2138.72 162.229 L2138.72 146.719 Q2138.72 142.993 2137.4 141.187 Q2136.08 139.382 2133.38 139.382 Q2130.07 139.382 2128.14 141.581 Q2126.22 143.78 2126.22 147.576 L2126.22 162.229 L2121.94 162.229 L2121.94 146.719 Q2121.94 142.969 2120.62 141.187 Q2119.3 139.382 2116.55 139.382 Q2113.28 139.382 2111.36 141.604 Q2109.44 143.803 2109.44 147.576 L2109.44 162.229 L2105.16 162.229 L2105.16 136.303 L2109.44 136.303 L2109.44 140.331 Q2110.9 137.946 2112.94 136.812 Q2114.97 135.678 2117.77 135.678 Q2120.6 135.678 2122.57 137.113 Q2124.56 138.548 2125.51 141.28 Z" fill="#000000" fill-rule="nonzero" fill-opacity="1" /><path clip-path="url(#clip570)" d="M2155.62 158.34 L2155.62 172.09 L2151.34 172.09 L2151.34 136.303 L2155.62 136.303 L2155.62 140.238 Q2156.96 137.923 2159 136.812 Q2161.06 135.678 2163.91 135.678 Q2168.63 135.678 2171.57 139.428 Q2174.53 143.178 2174.53 149.289 Q2174.53 155.4 2171.57 159.15 Q2168.63 162.9 2163.91 162.9 Q2161.06 162.9 2159 161.789 Q2156.96 160.655 2155.62 158.34 M2170.11 149.289 Q2170.11 144.59 2168.17 141.928 Q2166.25 139.243 2162.87 139.243 Q2159.49 139.243 2157.54 141.928 Q2155.62 144.59 2155.62 149.289 Q2155.62 153.988 2157.54 156.673 Q2159.49 159.335 2162.87 159.335 Q2166.25 159.335 2168.17 156.673 Q2170.11 153.988 2170.11 149.289 Z" fill="#000000" fill-rule="nonzero" fill-opacity="1" /><path clip-path="url(#clip570)" d="M2181.59 126.21 L2185.85 126.21 L2185.85 162.229 L2181.59 162.229 L2181.59 126.21 Z" fill="#000000" fill-rule="nonzero" fill-opacity="1" /><path clip-path="url(#clip570)" d="M2194.76 136.303 L2199.02 136.303 L2199.02 162.229 L2194.76 162.229 L2194.76 136.303 M2194.76 126.21 L2199.02 126.21 L2199.02 131.604 L2194.76 131.604 L2194.76 126.21 Z" fill="#000000" fill-rule="nonzero" fill-opacity="1" /><path clip-path="url(#clip570)" d="M2229.49 146.581 L2229.49 162.229 L2225.23 162.229 L2225.23 146.719 Q2225.23 143.039 2223.79 141.21 Q2222.36 139.382 2219.49 139.382 Q2216.04 139.382 2214.05 141.581 Q2212.06 143.78 2212.06 147.576 L2212.06 162.229 L2207.77 162.229 L2207.77 136.303 L2212.06 136.303 L2212.06 140.331 Q2213.58 137.993 2215.64 136.835 Q2217.73 135.678 2220.44 135.678 Q2224.9 135.678 2227.2 138.456 Q2229.49 141.21 2229.49 146.581 Z" fill="#000000" fill-rule="nonzero" fill-opacity="1" /><path clip-path="url(#clip570)" d="M2255.04 148.965 Q2255.04 144.335 2253.12 141.789 Q2251.22 139.243 2247.77 139.243 Q2244.35 139.243 2242.43 141.789 Q2240.53 144.335 2240.53 148.965 Q2240.53 153.571 2242.43 156.118 Q2244.35 158.664 2247.77 158.664 Q2251.22 158.664 2253.12 156.118 Q2255.04 153.571 2255.04 148.965 M2259.3 159.011 Q2259.3 165.631 2256.36 168.849 Q2253.42 172.09 2247.36 172.09 Q2245.11 172.09 2243.12 171.742 Q2241.13 171.418 2239.26 170.724 L2239.26 166.58 Q2241.13 167.599 2242.96 168.085 Q2244.79 168.571 2246.69 168.571 Q2250.88 168.571 2252.96 166.372 Q2255.04 164.196 2255.04 159.775 L2255.04 157.668 Q2253.72 159.96 2251.66 161.094 Q2249.6 162.229 2246.73 162.229 Q2241.96 162.229 2239.05 158.594 Q2236.13 154.96 2236.13 148.965 Q2236.13 142.946 2239.05 139.312 Q2241.96 135.678 2246.73 135.678 Q2249.6 135.678 2251.66 136.812 Q2253.72 137.946 2255.04 140.238 L2255.04 136.303 L2259.3 136.303 L2259.3 159.011 Z" fill="#000000" fill-rule="nonzero" fill-opacity="1" /><polyline clip-path="url(#clip570)" style="stroke:#e26f46; stroke-linecap:round; stroke-linejoin:round; stroke-width:4; stroke-opacity:1; fill:none" points="1549.02,196.789 1689.2,196.789 "/>
<path clip-path="url(#clip570)" d="M1734.81 180.643 L1734.81 185.203 Q1732.15 183.93 1729.79 183.305 Q1727.43 182.68 1725.23 182.68 Q1721.41 182.68 1719.33 184.161 Q1717.27 185.643 1717.27 188.374 Q1717.27 190.666 1718.63 191.847 Q1720.02 193.004 1723.86 193.722 L1726.69 194.3 Q1731.92 195.296 1734.4 197.819 Q1736.9 200.319 1736.9 204.532 Q1736.9 209.555 1733.52 212.147 Q1730.16 214.74 1723.66 214.74 Q1721.2 214.74 1718.42 214.184 Q1715.67 213.629 1712.71 212.541 L1712.71 207.726 Q1715.55 209.323 1718.29 210.133 Q1721.02 210.944 1723.66 210.944 Q1727.66 210.944 1729.84 209.37 Q1732.01 207.796 1732.01 204.879 Q1732.01 202.333 1730.44 200.897 Q1728.89 199.462 1725.32 198.745 L1722.48 198.189 Q1717.24 197.147 1714.91 194.925 Q1712.57 192.703 1712.57 188.745 Q1712.57 184.161 1715.79 181.522 Q1719.03 178.884 1724.7 178.884 Q1727.13 178.884 1729.65 179.323 Q1732.17 179.763 1734.81 180.643 Z" fill="#000000" fill-rule="nonzero" fill-opacity="1" /><path clip-path="url(#clip570)" d="M1748.22 180.782 L1748.22 188.143 L1756.99 188.143 L1756.99 191.453 L1748.22 191.453 L1748.22 205.527 Q1748.22 208.698 1749.07 209.601 Q1749.95 210.504 1752.61 210.504 L1756.99 210.504 L1756.99 214.069 L1752.61 214.069 Q1747.68 214.069 1745.81 212.24 Q1743.93 210.388 1743.93 205.527 L1743.93 191.453 L1740.81 191.453 L1740.81 188.143 L1743.93 188.143 L1743.93 180.782 L1748.22 180.782 Z" fill="#000000" fill-rule="nonzero" fill-opacity="1" /><path clip-path="url(#clip570)" d="M1777.61 192.124 Q1776.9 191.708 1776.04 191.522 Q1775.21 191.314 1774.19 191.314 Q1770.58 191.314 1768.63 193.675 Q1766.71 196.013 1766.71 200.411 L1766.71 214.069 L1762.43 214.069 L1762.43 188.143 L1766.71 188.143 L1766.71 192.171 Q1768.05 189.809 1770.21 188.675 Q1772.36 187.518 1775.44 187.518 Q1775.88 187.518 1776.41 187.587 Q1776.94 187.634 1777.59 187.749 L1777.61 192.124 Z" fill="#000000" fill-rule="nonzero" fill-opacity="1" /><path clip-path="url(#clip570)" d="M1793.86 201.036 Q1788.7 201.036 1786.71 202.217 Q1784.72 203.397 1784.72 206.245 Q1784.72 208.513 1786.2 209.856 Q1787.71 211.175 1790.28 211.175 Q1793.82 211.175 1795.95 208.675 Q1798.1 206.152 1798.1 201.985 L1798.1 201.036 L1793.86 201.036 M1802.36 199.277 L1802.36 214.069 L1798.1 214.069 L1798.1 210.133 Q1796.64 212.495 1794.47 213.629 Q1792.29 214.74 1789.14 214.74 Q1785.16 214.74 1782.8 212.518 Q1780.46 210.272 1780.46 206.522 Q1780.46 202.147 1783.38 199.925 Q1786.32 197.703 1792.13 197.703 L1798.1 197.703 L1798.1 197.286 Q1798.1 194.347 1796.16 192.749 Q1794.23 191.129 1790.74 191.129 Q1788.52 191.129 1786.41 191.661 Q1784.3 192.194 1782.36 193.259 L1782.36 189.323 Q1784.7 188.421 1786.9 187.981 Q1789.1 187.518 1791.18 187.518 Q1796.8 187.518 1799.58 190.434 Q1802.36 193.351 1802.36 199.277 Z" fill="#000000" fill-rule="nonzero" fill-opacity="1" /><path clip-path="url(#clip570)" d="M1815.35 180.782 L1815.35 188.143 L1824.12 188.143 L1824.12 191.453 L1815.35 191.453 L1815.35 205.527 Q1815.35 208.698 1816.2 209.601 Q1817.08 210.504 1819.74 210.504 L1824.12 210.504 L1824.12 214.069 L1819.74 214.069 Q1814.81 214.069 1812.94 212.24 Q1811.06 210.388 1811.06 205.527 L1811.06 191.453 L1807.94 191.453 L1807.94 188.143 L1811.06 188.143 L1811.06 180.782 L1815.35 180.782 Z" fill="#000000" fill-rule="nonzero" fill-opacity="1" /><path clip-path="url(#clip570)" d="M1829.72 188.143 L1833.98 188.143 L1833.98 214.069 L1829.72 214.069 L1829.72 188.143 M1829.72 178.05 L1833.98 178.05 L1833.98 183.444 L1829.72 183.444 L1829.72 178.05 Z" fill="#000000" fill-rule="nonzero" fill-opacity="1" /><path clip-path="url(#clip570)" d="M1856.02 178.05 L1856.02 181.592 L1851.94 181.592 Q1849.65 181.592 1848.75 182.518 Q1847.87 183.444 1847.87 185.851 L1847.87 188.143 L1854.88 188.143 L1854.88 191.453 L1847.87 191.453 L1847.87 214.069 L1843.59 214.069 L1843.59 191.453 L1839.51 191.453 L1839.51 188.143 L1843.59 188.143 L1843.59 186.337 Q1843.59 182.009 1845.6 180.041 Q1847.61 178.05 1851.99 178.05 L1856.02 178.05 Z" fill="#000000" fill-rule="nonzero" fill-opacity="1" /><path clip-path="url(#clip570)" d="M1859.58 188.143 L1863.84 188.143 L1863.84 214.069 L1859.58 214.069 L1859.58 188.143 M1859.58 178.05 L1863.84 178.05 L1863.84 183.444 L1859.58 183.444 L1859.58 178.05 Z" fill="#000000" fill-rule="nonzero" fill-opacity="1" /><path clip-path="url(#clip570)" d="M1894.93 200.041 L1894.93 202.124 L1875.35 202.124 Q1875.62 206.522 1877.98 208.837 Q1880.37 211.129 1884.6 211.129 Q1887.06 211.129 1889.35 210.527 Q1891.66 209.925 1893.93 208.721 L1893.93 212.749 Q1891.64 213.721 1889.23 214.231 Q1886.83 214.74 1884.35 214.74 Q1878.15 214.74 1874.51 211.129 Q1870.9 207.518 1870.9 201.36 Q1870.9 194.995 1874.33 191.268 Q1877.78 187.518 1883.61 187.518 Q1888.84 187.518 1891.87 190.897 Q1894.93 194.254 1894.93 200.041 M1890.67 198.791 Q1890.62 195.296 1888.7 193.212 Q1886.8 191.129 1883.66 191.129 Q1880.09 191.129 1877.94 193.143 Q1875.81 195.157 1875.48 198.814 L1890.67 198.791 Z" fill="#000000" fill-rule="nonzero" fill-opacity="1" /><path clip-path="url(#clip570)" d="M1918.98 192.078 L1918.98 178.05 L1923.24 178.05 L1923.24 214.069 L1918.98 214.069 L1918.98 210.18 Q1917.64 212.495 1915.58 213.629 Q1913.54 214.74 1910.67 214.74 Q1905.97 214.74 1903.01 210.99 Q1900.07 207.24 1900.07 201.129 Q1900.07 195.018 1903.01 191.268 Q1905.97 187.518 1910.67 187.518 Q1913.54 187.518 1915.58 188.652 Q1917.64 189.763 1918.98 192.078 M1904.47 201.129 Q1904.47 205.828 1906.39 208.513 Q1908.33 211.175 1911.71 211.175 Q1915.09 211.175 1917.03 208.513 Q1918.98 205.828 1918.98 201.129 Q1918.98 196.43 1917.03 193.768 Q1915.09 191.083 1911.71 191.083 Q1908.33 191.083 1906.39 193.768 Q1904.47 196.43 1904.47 201.129 Z" fill="#000000" fill-rule="nonzero" fill-opacity="1" /><path clip-path="url(#clip570)" d="M1962.1 192.124 Q1961.39 191.708 1960.53 191.522 Q1959.7 191.314 1958.68 191.314 Q1955.07 191.314 1953.12 193.675 Q1951.2 196.013 1951.2 200.411 L1951.2 214.069 L1946.92 214.069 L1946.92 188.143 L1951.2 188.143 L1951.2 192.171 Q1952.54 189.809 1954.7 188.675 Q1956.85 187.518 1959.93 187.518 Q1960.37 187.518 1960.9 187.587 Q1961.43 187.634 1962.08 187.749 L1962.1 192.124 Z" fill="#000000" fill-rule="nonzero" fill-opacity="1" /><path clip-path="url(#clip570)" d="M1987.71 200.041 L1987.71 202.124 L1968.12 202.124 Q1968.4 206.522 1970.76 208.837 Q1973.15 211.129 1977.38 211.129 Q1979.84 211.129 1982.13 210.527 Q1984.44 209.925 1986.71 208.721 L1986.71 212.749 Q1984.42 213.721 1982.01 214.231 Q1979.6 214.74 1977.13 214.74 Q1970.92 214.74 1967.29 211.129 Q1963.68 207.518 1963.68 201.36 Q1963.68 194.995 1967.1 191.268 Q1970.55 187.518 1976.39 187.518 Q1981.62 187.518 1984.65 190.897 Q1987.71 194.254 1987.71 200.041 M1983.45 198.791 Q1983.4 195.296 1981.48 193.212 Q1979.58 191.129 1976.43 191.129 Q1972.87 191.129 1970.71 193.143 Q1968.59 195.157 1968.26 198.814 L1983.45 198.791 Z" fill="#000000" fill-rule="nonzero" fill-opacity="1" /><path clip-path="url(#clip570)" d="M2011.22 188.907 L2011.22 192.934 Q2009.42 192.009 2007.47 191.546 Q2005.53 191.083 2003.45 191.083 Q2000.27 191.083 1998.68 192.055 Q1997.1 193.027 1997.1 194.971 Q1997.1 196.453 1998.24 197.309 Q1999.37 198.143 2002.8 198.907 L2004.26 199.231 Q2008.79 200.203 2010.69 201.985 Q2012.61 203.745 2012.61 206.916 Q2012.61 210.527 2009.74 212.633 Q2006.9 214.74 2001.9 214.74 Q1999.81 214.74 1997.54 214.323 Q1995.3 213.93 1992.8 213.12 L1992.8 208.721 Q1995.16 209.948 1997.45 210.573 Q1999.74 211.175 2001.99 211.175 Q2005 211.175 2006.62 210.157 Q2008.24 209.115 2008.24 207.24 Q2008.24 205.504 2007.06 204.578 Q2005.9 203.652 2001.94 202.796 L2000.46 202.448 Q1996.5 201.615 1994.74 199.902 Q1992.98 198.166 1992.98 195.157 Q1992.98 191.499 1995.58 189.509 Q1998.17 187.518 2002.94 187.518 Q2005.3 187.518 2007.38 187.865 Q2009.46 188.212 2011.22 188.907 Z" fill="#000000" fill-rule="nonzero" fill-opacity="1" /><path clip-path="url(#clip570)" d="M2031.18 201.036 Q2026.02 201.036 2024.02 202.217 Q2022.03 203.397 2022.03 206.245 Q2022.03 208.513 2023.52 209.856 Q2025.02 211.175 2027.59 211.175 Q2031.13 211.175 2033.26 208.675 Q2035.41 206.152 2035.41 201.985 L2035.41 201.036 L2031.18 201.036 M2039.67 199.277 L2039.67 214.069 L2035.41 214.069 L2035.41 210.133 Q2033.96 212.495 2031.78 213.629 Q2029.6 214.74 2026.46 214.74 Q2022.47 214.74 2020.11 212.518 Q2017.77 210.272 2017.77 206.522 Q2017.77 202.147 2020.69 199.925 Q2023.63 197.703 2029.44 197.703 L2035.41 197.703 L2035.41 197.286 Q2035.41 194.347 2033.47 192.749 Q2031.55 191.129 2028.05 191.129 Q2025.83 191.129 2023.72 191.661 Q2021.62 192.194 2019.67 193.259 L2019.67 189.323 Q2022.01 188.421 2024.21 187.981 Q2026.41 187.518 2028.49 187.518 Q2034.12 187.518 2036.9 190.434 Q2039.67 193.351 2039.67 199.277 Z" fill="#000000" fill-rule="nonzero" fill-opacity="1" /><path clip-path="url(#clip570)" d="M2068.63 193.12 Q2070.23 190.249 2072.45 188.884 Q2074.67 187.518 2077.68 187.518 Q2081.73 187.518 2083.93 190.365 Q2086.13 193.189 2086.13 198.421 L2086.13 214.069 L2081.85 214.069 L2081.85 198.559 Q2081.85 194.833 2080.53 193.027 Q2079.21 191.222 2076.5 191.222 Q2073.19 191.222 2071.27 193.421 Q2069.35 195.62 2069.35 199.416 L2069.35 214.069 L2065.07 214.069 L2065.07 198.559 Q2065.07 194.809 2063.75 193.027 Q2062.43 191.222 2059.67 191.222 Q2056.41 191.222 2054.49 193.444 Q2052.57 195.643 2052.57 199.416 L2052.57 214.069 L2048.28 214.069 L2048.28 188.143 L2052.57 188.143 L2052.57 192.171 Q2054.02 189.786 2056.06 188.652 Q2058.1 187.518 2060.9 187.518 Q2063.72 187.518 2065.69 188.953 Q2067.68 190.388 2068.63 193.12 Z" fill="#000000" fill-rule="nonzero" fill-opacity="1" /><path clip-path="url(#clip570)" d="M2098.75 210.18 L2098.75 223.93 L2094.46 223.93 L2094.46 188.143 L2098.75 188.143 L2098.75 192.078 Q2100.09 189.763 2102.13 188.652 Q2104.19 187.518 2107.03 187.518 Q2111.76 187.518 2114.7 191.268 Q2117.66 195.018 2117.66 201.129 Q2117.66 207.24 2114.7 210.99 Q2111.76 214.74 2107.03 214.74 Q2104.19 214.74 2102.13 213.629 Q2100.09 212.495 2098.75 210.18 M2113.24 201.129 Q2113.24 196.43 2111.29 193.768 Q2109.37 191.083 2105.99 191.083 Q2102.61 191.083 2100.67 193.768 Q2098.75 196.43 2098.75 201.129 Q2098.75 205.828 2100.67 208.513 Q2102.61 211.175 2105.99 211.175 Q2109.37 211.175 2111.29 208.513 Q2113.24 205.828 2113.24 201.129 Z" fill="#000000" fill-rule="nonzero" fill-opacity="1" /><path clip-path="url(#clip570)" d="M2124.72 178.05 L2128.98 178.05 L2128.98 214.069 L2124.72 214.069 L2124.72 178.05 Z" fill="#000000" fill-rule="nonzero" fill-opacity="1" /><path clip-path="url(#clip570)" d="M2137.89 188.143 L2142.15 188.143 L2142.15 214.069 L2137.89 214.069 L2137.89 188.143 M2137.89 178.05 L2142.15 178.05 L2142.15 183.444 L2137.89 183.444 L2137.89 178.05 Z" fill="#000000" fill-rule="nonzero" fill-opacity="1" /><path clip-path="url(#clip570)" d="M2172.61 198.421 L2172.61 214.069 L2168.35 214.069 L2168.35 198.559 Q2168.35 194.879 2166.92 193.05 Q2165.48 191.222 2162.61 191.222 Q2159.16 191.222 2157.17 193.421 Q2155.18 195.62 2155.18 199.416 L2155.18 214.069 L2150.9 214.069 L2150.9 188.143 L2155.18 188.143 L2155.18 192.171 Q2156.71 189.833 2158.77 188.675 Q2160.85 187.518 2163.56 187.518 Q2168.03 187.518 2170.32 190.296 Q2172.61 193.05 2172.61 198.421 Z" fill="#000000" fill-rule="nonzero" fill-opacity="1" /><path clip-path="url(#clip570)" d="M2198.17 200.805 Q2198.17 196.175 2196.25 193.629 Q2194.35 191.083 2190.9 191.083 Q2187.47 191.083 2185.55 193.629 Q2183.65 196.175 2183.65 200.805 Q2183.65 205.411 2185.55 207.958 Q2187.47 210.504 2190.9 210.504 Q2194.35 210.504 2196.25 207.958 Q2198.17 205.411 2198.17 200.805 M2202.43 210.851 Q2202.43 217.471 2199.49 220.689 Q2196.55 223.93 2190.48 223.93 Q2188.24 223.93 2186.25 223.582 Q2184.26 223.258 2182.38 222.564 L2182.38 218.42 Q2184.26 219.439 2186.08 219.925 Q2187.91 220.411 2189.81 220.411 Q2194 220.411 2196.08 218.212 Q2198.17 216.036 2198.17 211.615 L2198.17 209.508 Q2196.85 211.8 2194.79 212.934 Q2192.73 214.069 2189.86 214.069 Q2185.09 214.069 2182.17 210.434 Q2179.26 206.8 2179.26 200.805 Q2179.26 194.786 2182.17 191.152 Q2185.09 187.518 2189.86 187.518 Q2192.73 187.518 2194.79 188.652 Q2196.85 189.786 2198.17 192.078 L2198.17 188.143 L2202.43 188.143 L2202.43 210.851 Z" fill="#000000" fill-rule="nonzero" fill-opacity="1" /></svg>
