<?xml version="1.0" encoding="utf-8"?>
<svg xmlns="http://www.w3.org/2000/svg" xmlns:xlink="http://www.w3.org/1999/xlink" width="600" height="400" viewBox="0 0 2400 1600">
<defs>
  <clipPath id="clip270">
    <rect x="0" y="0" width="2400" height="1600"/>
  </clipPath>
</defs>
<path clip-path="url(#clip270)" d="M0 1600 L2400 1600 L2400 0 L0 0  Z" fill="#ffffff" fill-rule="evenodd" fill-opacity="1"/>
<defs>
  <clipPath id="clip271">
    <rect x="480" y="0" width="1681" height="1600"/>
  </clipPath>
</defs>
<path clip-path="url(#clip270)" d="M250.028 1423.18 L2352.76 1423.18 L2352.76 47.2441 L250.028 47.2441  Z" fill="#ffffff" fill-rule="evenodd" fill-opacity="1"/>
<defs>
  <clipPath id="clip272">
    <rect x="250" y="47" width="2104" height="1377"/>
  </clipPath>
</defs>
<polyline clip-path="url(#clip272)" style="stroke:#000000; stroke-linecap:round; stroke-linejoin:round; stroke-width:2; stroke-opacity:0.1; fill:none" points="307.554,1423.18 307.554,47.2441 "/>
<polyline clip-path="url(#clip272)" style="stroke:#000000; stroke-linecap:round; stroke-linejoin:round; stroke-width:2; stroke-opacity:0.1; fill:none" points="803.976,1423.18 803.976,47.2441 "/>
<polyline clip-path="url(#clip272)" style="stroke:#000000; stroke-linecap:round; stroke-linejoin:round; stroke-width:2; stroke-opacity:0.1; fill:none" points="1300.4,1423.18 1300.4,47.2441 "/>
<polyline clip-path="url(#clip272)" style="stroke:#000000; stroke-linecap:round; stroke-linejoin:round; stroke-width:2; stroke-opacity:0.1; fill:none" points="1796.82,1423.18 1796.82,47.2441 "/>
<polyline clip-path="url(#clip272)" style="stroke:#000000; stroke-linecap:round; stroke-linejoin:round; stroke-width:2; stroke-opacity:0.1; fill:none" points="2293.24,1423.18 2293.24,47.2441 "/>
<polyline clip-path="url(#clip270)" style="stroke:#000000; stroke-linecap:round; stroke-linejoin:round; stroke-width:4; stroke-opacity:1; fill:none" points="250.028,1423.18 2352.76,1423.18 "/>
<polyline clip-path="url(#clip270)" style="stroke:#000000; stroke-linecap:round; stroke-linejoin:round; stroke-width:4; stroke-opacity:1; fill:none" points="307.554,1423.18 307.554,1404.28 "/>
<polyline clip-path="url(#clip270)" style="stroke:#000000; stroke-linecap:round; stroke-linejoin:round; stroke-width:4; stroke-opacity:1; fill:none" points="803.976,1423.18 803.976,1404.28 "/>
<polyline clip-path="url(#clip270)" style="stroke:#000000; stroke-linecap:round; stroke-linejoin:round; stroke-width:4; stroke-opacity:1; fill:none" points="1300.4,1423.18 1300.4,1404.28 "/>
<polyline clip-path="url(#clip270)" style="stroke:#000000; stroke-linecap:round; stroke-linejoin:round; stroke-width:4; stroke-opacity:1; fill:none" points="1796.82,1423.18 1796.82,1404.28 "/>
<polyline clip-path="url(#clip270)" style="stroke:#000000; stroke-linecap:round; stroke-linejoin:round; stroke-width:4; stroke-opacity:1; fill:none" points="2293.24,1423.18 2293.24,1404.28 "/>
<path clip-path="url(#clip270)" d="M307.554 1454.1 Q303.943 1454.1 302.114 1457.66 Q300.308 1461.2 300.308 1468.33 Q300.308 1475.44 302.114 1479.01 Q303.943 1482.55 307.554 1482.55 Q311.188 1482.55 312.993 1479.01 Q314.822 1475.44 314.822 1468.33 Q314.822 1461.2 312.993 1457.66 Q311.188 1454.1 307.554 1454.1 M307.554 1450.39 Q313.364 1450.39 316.419 1455 Q319.498 1459.58 319.498 1468.33 Q319.498 1477.06 316.419 1481.67 Q313.364 1486.25 307.554 1486.25 Q301.743 1486.25 298.665 1481.67 Q295.609 1477.06 295.609 1468.33 Q295.609 1459.58 298.665 1455 Q301.743 1450.39 307.554 1450.39 Z" fill="#000000" fill-rule="nonzero" fill-opacity="1" /><path clip-path="url(#clip270)" d="M767.669 1481.64 L783.988 1481.64 L783.988 1485.58 L762.044 1485.58 L762.044 1481.64 Q764.706 1478.89 769.289 1474.26 Q773.896 1469.61 775.076 1468.27 Q777.321 1465.74 778.201 1464.01 Q779.104 1462.25 779.104 1460.56 Q779.104 1457.8 777.159 1456.07 Q775.238 1454.33 772.136 1454.33 Q769.937 1454.33 767.484 1455.09 Q765.053 1455.86 762.275 1457.41 L762.275 1452.69 Q765.099 1451.55 767.553 1450.97 Q770.007 1450.39 772.044 1450.39 Q777.414 1450.39 780.608 1453.08 Q783.803 1455.77 783.803 1460.26 Q783.803 1462.39 782.993 1464.31 Q782.206 1466.2 780.099 1468.8 Q779.521 1469.47 776.419 1472.69 Q773.317 1475.88 767.669 1481.64 Z" fill="#000000" fill-rule="nonzero" fill-opacity="1" /><path clip-path="url(#clip270)" d="M793.849 1451.02 L812.206 1451.02 L812.206 1454.96 L798.132 1454.96 L798.132 1463.43 Q799.15 1463.08 800.169 1462.92 Q801.187 1462.73 802.206 1462.73 Q807.993 1462.73 811.372 1465.9 Q814.752 1469.08 814.752 1474.49 Q814.752 1480.07 811.28 1483.17 Q807.807 1486.25 801.488 1486.25 Q799.312 1486.25 797.044 1485.88 Q794.798 1485.51 792.391 1484.77 L792.391 1480.07 Q794.474 1481.2 796.696 1481.76 Q798.919 1482.32 801.395 1482.32 Q805.4 1482.32 807.738 1480.21 Q810.076 1478.1 810.076 1474.49 Q810.076 1470.88 807.738 1468.77 Q805.4 1466.67 801.395 1466.67 Q799.52 1466.67 797.645 1467.08 Q795.794 1467.5 793.849 1468.38 L793.849 1451.02 Z" fill="#000000" fill-rule="nonzero" fill-opacity="1" /><path clip-path="url(#clip270)" d="M833.965 1454.1 Q830.354 1454.1 828.525 1457.66 Q826.719 1461.2 826.719 1468.33 Q826.719 1475.44 828.525 1479.01 Q830.354 1482.55 833.965 1482.55 Q837.599 1482.55 839.404 1479.01 Q841.233 1475.44 841.233 1468.33 Q841.233 1461.2 839.404 1457.66 Q837.599 1454.1 833.965 1454.1 M833.965 1450.39 Q839.775 1450.39 842.83 1455 Q845.909 1459.58 845.909 1468.33 Q845.909 1477.06 842.83 1481.67 Q839.775 1486.25 833.965 1486.25 Q828.155 1486.25 825.076 1481.67 Q822.02 1477.06 822.02 1468.33 Q822.02 1459.58 825.076 1455 Q828.155 1450.39 833.965 1450.39 Z" fill="#000000" fill-rule="nonzero" fill-opacity="1" /><path clip-path="url(#clip270)" d="M1260.02 1451.02 L1278.37 1451.02 L1278.37 1454.96 L1264.3 1454.96 L1264.3 1463.43 Q1265.32 1463.08 1266.34 1462.92 Q1267.36 1462.73 1268.37 1462.73 Q1274.16 1462.73 1277.54 1465.9 Q1280.92 1469.08 1280.92 1474.49 Q1280.92 1480.07 1277.45 1483.17 Q1273.98 1486.25 1267.66 1486.25 Q1265.48 1486.25 1263.21 1485.88 Q1260.97 1485.51 1258.56 1484.77 L1258.56 1480.07 Q1260.64 1481.2 1262.86 1481.76 Q1265.09 1482.32 1267.56 1482.32 Q1271.57 1482.32 1273.91 1480.21 Q1276.24 1478.1 1276.24 1474.49 Q1276.24 1470.88 1273.91 1468.77 Q1271.57 1466.67 1267.56 1466.67 Q1265.69 1466.67 1263.81 1467.08 Q1261.96 1467.5 1260.02 1468.38 L1260.02 1451.02 Z" fill="#000000" fill-rule="nonzero" fill-opacity="1" /><path clip-path="url(#clip270)" d="M1300.13 1454.1 Q1296.52 1454.1 1294.69 1457.66 Q1292.89 1461.2 1292.89 1468.33 Q1292.89 1475.44 1294.69 1479.01 Q1296.52 1482.55 1300.13 1482.55 Q1303.77 1482.55 1305.57 1479.01 Q1307.4 1475.44 1307.4 1468.33 Q1307.4 1461.2 1305.57 1457.66 Q1303.77 1454.1 1300.13 1454.1 M1300.13 1450.39 Q1305.94 1450.39 1309 1455 Q1312.08 1459.58 1312.08 1468.33 Q1312.08 1477.06 1309 1481.67 Q1305.94 1486.25 1300.13 1486.25 Q1294.32 1486.25 1291.24 1481.67 Q1288.19 1477.06 1288.19 1468.33 Q1288.19 1459.58 1291.24 1455 Q1294.32 1450.39 1300.13 1450.39 Z" fill="#000000" fill-rule="nonzero" fill-opacity="1" /><path clip-path="url(#clip270)" d="M1330.29 1454.1 Q1326.68 1454.1 1324.86 1457.66 Q1323.05 1461.2 1323.05 1468.33 Q1323.05 1475.44 1324.86 1479.01 Q1326.68 1482.55 1330.29 1482.55 Q1333.93 1482.55 1335.73 1479.01 Q1337.56 1475.44 1337.56 1468.33 Q1337.56 1461.2 1335.73 1457.66 Q1333.93 1454.1 1330.29 1454.1 M1330.29 1450.39 Q1336.11 1450.39 1339.16 1455 Q1342.24 1459.58 1342.24 1468.33 Q1342.24 1477.06 1339.16 1481.67 Q1336.11 1486.25 1330.29 1486.25 Q1324.48 1486.25 1321.41 1481.67 Q1318.35 1477.06 1318.35 1468.33 Q1318.35 1459.58 1321.41 1455 Q1324.48 1450.39 1330.29 1450.39 Z" fill="#000000" fill-rule="nonzero" fill-opacity="1" /><path clip-path="url(#clip270)" d="M1755.1 1451.02 L1777.32 1451.02 L1777.32 1453.01 L1764.77 1485.58 L1759.89 1485.58 L1771.69 1454.96 L1755.1 1454.96 L1755.1 1451.02 Z" fill="#000000" fill-rule="nonzero" fill-opacity="1" /><path clip-path="url(#clip270)" d="M1786.49 1451.02 L1804.84 1451.02 L1804.84 1454.96 L1790.77 1454.96 L1790.77 1463.43 Q1791.79 1463.08 1792.81 1462.92 Q1793.82 1462.73 1794.84 1462.73 Q1800.63 1462.73 1804.01 1465.9 Q1807.39 1469.08 1807.39 1474.49 Q1807.39 1480.07 1803.92 1483.17 Q1800.44 1486.25 1794.13 1486.25 Q1791.95 1486.25 1789.68 1485.88 Q1787.44 1485.51 1785.03 1484.77 L1785.03 1480.07 Q1787.11 1481.2 1789.33 1481.76 Q1791.56 1482.32 1794.03 1482.32 Q1798.04 1482.32 1800.38 1480.21 Q1802.71 1478.1 1802.71 1474.49 Q1802.71 1470.88 1800.38 1468.77 Q1798.04 1466.67 1794.03 1466.67 Q1792.16 1466.67 1790.28 1467.08 Q1788.43 1467.5 1786.49 1468.38 L1786.49 1451.02 Z" fill="#000000" fill-rule="nonzero" fill-opacity="1" /><path clip-path="url(#clip270)" d="M1826.6 1454.1 Q1822.99 1454.1 1821.16 1457.66 Q1819.36 1461.2 1819.36 1468.33 Q1819.36 1475.44 1821.16 1479.01 Q1822.99 1482.55 1826.6 1482.55 Q1830.24 1482.55 1832.04 1479.01 Q1833.87 1475.44 1833.87 1468.33 Q1833.87 1461.2 1832.04 1457.66 Q1830.24 1454.1 1826.6 1454.1 M1826.6 1450.39 Q1832.41 1450.39 1835.47 1455 Q1838.55 1459.58 1838.55 1468.33 Q1838.55 1477.06 1835.47 1481.67 Q1832.41 1486.25 1826.6 1486.25 Q1820.79 1486.25 1817.71 1481.67 Q1814.66 1477.06 1814.66 1468.33 Q1814.66 1459.58 1817.71 1455 Q1820.79 1450.39 1826.6 1450.39 Z" fill="#000000" fill-rule="nonzero" fill-opacity="1" /><path clip-path="url(#clip270)" d="M2237.77 1481.64 L2245.41 1481.64 L2245.41 1455.28 L2237.1 1456.95 L2237.1 1452.69 L2245.36 1451.02 L2250.04 1451.02 L2250.04 1481.64 L2257.68 1481.64 L2257.68 1485.58 L2237.77 1485.58 L2237.77 1481.64 Z" fill="#000000" fill-rule="nonzero" fill-opacity="1" /><path clip-path="url(#clip270)" d="M2277.12 1454.1 Q2273.51 1454.1 2271.68 1457.66 Q2269.88 1461.2 2269.88 1468.33 Q2269.88 1475.44 2271.68 1479.01 Q2273.51 1482.55 2277.12 1482.55 Q2280.76 1482.55 2282.56 1479.01 Q2284.39 1475.44 2284.39 1468.33 Q2284.39 1461.2 2282.56 1457.66 Q2280.76 1454.1 2277.12 1454.1 M2277.12 1450.39 Q2282.93 1450.39 2285.99 1455 Q2289.07 1459.58 2289.07 1468.33 Q2289.07 1477.06 2285.99 1481.67 Q2282.93 1486.25 2277.12 1486.25 Q2271.31 1486.25 2268.23 1481.67 Q2265.18 1477.06 2265.18 1468.33 Q2265.18 1459.58 2268.23 1455 Q2271.31 1450.39 2277.12 1450.39 Z" fill="#000000" fill-rule="nonzero" fill-opacity="1" /><path clip-path="url(#clip270)" d="M2307.28 1454.1 Q2303.67 1454.1 2301.84 1457.66 Q2300.04 1461.2 2300.04 1468.33 Q2300.04 1475.44 2301.84 1479.01 Q2303.67 1482.55 2307.28 1482.55 Q2310.92 1482.55 2312.72 1479.01 Q2314.55 1475.44 2314.55 1468.33 Q2314.55 1461.2 2312.72 1457.66 Q2310.92 1454.1 2307.28 1454.1 M2307.28 1450.39 Q2313.09 1450.39 2316.15 1455 Q2319.23 1459.58 2319.23 1468.33 Q2319.23 1477.06 2316.15 1481.67 Q2313.09 1486.25 2307.28 1486.25 Q2301.47 1486.25 2298.4 1481.67 Q2295.34 1477.06 2295.34 1468.33 Q2295.34 1459.58 2298.4 1455 Q2301.47 1450.39 2307.28 1450.39 Z" fill="#000000" fill-rule="nonzero" fill-opacity="1" /><path clip-path="url(#clip270)" d="M2337.45 1454.1 Q2333.83 1454.1 2332.01 1457.66 Q2330.2 1461.2 2330.2 1468.33 Q2330.2 1475.44 2332.01 1479.01 Q2333.83 1482.55 2337.45 1482.55 Q2341.08 1482.55 2342.89 1479.01 Q2344.71 1475.44 2344.71 1468.33 Q2344.71 1461.2 2342.89 1457.66 Q2341.08 1454.1 2337.45 1454.1 M2337.45 1450.39 Q2343.26 1450.39 2346.31 1455 Q2349.39 1459.58 2349.39 1468.33 Q2349.39 1477.06 2346.31 1481.67 Q2343.26 1486.25 2337.45 1486.25 Q2331.64 1486.25 2328.56 1481.67 Q2325.5 1477.06 2325.5 1468.33 Q2325.5 1459.58 2328.56 1455 Q2331.64 1450.39 2337.45 1450.39 Z" fill="#000000" fill-rule="nonzero" fill-opacity="1" /><path clip-path="url(#clip270)" d="M1223.27 1520.52 L1263.47 1520.52 L1263.47 1525.93 L1246.6 1525.93 L1246.6 1568.04 L1240.14 1568.04 L1240.14 1525.93 L1223.27 1525.93 L1223.27 1520.52 Z" fill="#000000" fill-rule="nonzero" fill-opacity="1" /><path clip-path="url(#clip270)" d="M1267.42 1532.4 L1273.27 1532.4 L1273.27 1568.04 L1267.42 1568.04 L1267.42 1532.4 M1267.42 1518.52 L1273.27 1518.52 L1273.27 1525.93 L1267.42 1525.93 L1267.42 1518.52 Z" fill="#000000" fill-rule="nonzero" fill-opacity="1" /><path clip-path="url(#clip270)" d="M1313.28 1539.24 Q1315.48 1535.29 1318.53 1533.41 Q1321.59 1531.54 1325.72 1531.54 Q1331.29 1531.54 1334.32 1535.45 Q1337.34 1539.33 1337.34 1546.53 L1337.34 1568.04 L1331.45 1568.04 L1331.45 1546.72 Q1331.45 1541.59 1329.64 1539.11 Q1327.83 1536.63 1324.1 1536.63 Q1319.55 1536.63 1316.91 1539.65 Q1314.27 1542.68 1314.27 1547.9 L1314.27 1568.04 L1308.38 1568.04 L1308.38 1546.72 Q1308.38 1541.56 1306.56 1539.11 Q1304.75 1536.63 1300.96 1536.63 Q1296.47 1536.63 1293.83 1539.68 Q1291.19 1542.71 1291.19 1547.9 L1291.19 1568.04 L1285.3 1568.04 L1285.3 1532.4 L1291.19 1532.4 L1291.19 1537.93 Q1293.2 1534.66 1296 1533.1 Q1298.8 1531.54 1302.65 1531.54 Q1306.53 1531.54 1309.24 1533.51 Q1311.98 1535.48 1313.28 1539.24 Z" fill="#000000" fill-rule="nonzero" fill-opacity="1" /><path clip-path="url(#clip270)" d="M1379.52 1548.76 L1379.52 1551.62 L1352.59 1551.62 Q1352.97 1557.67 1356.22 1560.85 Q1359.5 1564 1365.32 1564 Q1368.69 1564 1371.84 1563.17 Q1375.03 1562.35 1378.15 1560.69 L1378.15 1566.23 Q1375 1567.57 1371.69 1568.27 Q1368.38 1568.97 1364.97 1568.97 Q1356.44 1568.97 1351.44 1564 Q1346.48 1559.04 1346.48 1550.57 Q1346.48 1541.82 1351.19 1536.69 Q1355.93 1531.54 1363.95 1531.54 Q1371.14 1531.54 1375.31 1536.18 Q1379.52 1540.8 1379.52 1548.76 M1373.66 1547.04 Q1373.6 1542.23 1370.95 1539.37 Q1368.34 1536.5 1364.01 1536.5 Q1359.11 1536.5 1356.15 1539.27 Q1353.22 1542.04 1352.78 1547.07 L1373.66 1547.04 Z" fill="#000000" fill-rule="nonzero" fill-opacity="1" /><polyline clip-path="url(#clip272)" style="stroke:#000000; stroke-linecap:round; stroke-linejoin:round; stroke-width:2; stroke-opacity:0.1; fill:none" points="250.028,1423.18 2352.76,1423.18 "/>
<polyline clip-path="url(#clip272)" style="stroke:#000000; stroke-linecap:round; stroke-linejoin:round; stroke-width:2; stroke-opacity:0.1; fill:none" points="250.028,1066.75 2352.76,1066.75 "/>
<polyline clip-path="url(#clip272)" style="stroke:#000000; stroke-linecap:round; stroke-linejoin:round; stroke-width:2; stroke-opacity:0.1; fill:none" points="250.028,710.314 2352.76,710.314 "/>
<polyline clip-path="url(#clip272)" style="stroke:#000000; stroke-linecap:round; stroke-linejoin:round; stroke-width:2; stroke-opacity:0.1; fill:none" points="250.028,353.881 2352.76,353.881 "/>
<polyline clip-path="url(#clip270)" style="stroke:#000000; stroke-linecap:round; stroke-linejoin:round; stroke-width:4; stroke-opacity:1; fill:none" points="250.028,1423.18 250.028,47.2441 "/>
<polyline clip-path="url(#clip270)" style="stroke:#000000; stroke-linecap:round; stroke-linejoin:round; stroke-width:4; stroke-opacity:1; fill:none" points="250.028,1423.18 268.926,1423.18 "/>
<polyline clip-path="url(#clip270)" style="stroke:#000000; stroke-linecap:round; stroke-linejoin:round; stroke-width:4; stroke-opacity:1; fill:none" points="250.028,1066.75 268.926,1066.75 "/>
<polyline clip-path="url(#clip270)" style="stroke:#000000; stroke-linecap:round; stroke-linejoin:round; stroke-width:4; stroke-opacity:1; fill:none" points="250.028,710.314 268.926,710.314 "/>
<polyline clip-path="url(#clip270)" style="stroke:#000000; stroke-linecap:round; stroke-linejoin:round; stroke-width:4; stroke-opacity:1; fill:none" points="250.028,353.881 268.926,353.881 "/>
<path clip-path="url(#clip270)" d="M126.691 1408.98 Q123.08 1408.98 121.251 1412.54 Q119.445 1416.08 119.445 1423.21 Q119.445 1430.32 121.251 1433.89 Q123.08 1437.43 126.691 1437.43 Q130.325 1437.43 132.13 1433.89 Q133.959 1430.32 133.959 1423.21 Q133.959 1416.08 132.13 1412.54 Q130.325 1408.98 126.691 1408.98 M126.691 1405.27 Q132.501 1405.27 135.556 1409.88 Q138.635 1414.46 138.635 1423.21 Q138.635 1431.94 135.556 1436.55 Q132.501 1441.13 126.691 1441.13 Q120.88 1441.13 117.802 1436.55 Q114.746 1431.94 114.746 1423.21 Q114.746 1414.46 117.802 1409.88 Q120.88 1405.27 126.691 1405.27 Z" fill="#000000" fill-rule="nonzero" fill-opacity="1" /><path clip-path="url(#clip270)" d="M146.853 1434.58 L151.737 1434.58 L151.737 1440.46 L146.853 1440.46 L146.853 1434.58 Z" fill="#000000" fill-rule="nonzero" fill-opacity="1" /><path clip-path="url(#clip270)" d="M171.922 1408.98 Q168.311 1408.98 166.482 1412.54 Q164.677 1416.08 164.677 1423.21 Q164.677 1430.32 166.482 1433.89 Q168.311 1437.43 171.922 1437.43 Q175.556 1437.43 177.362 1433.89 Q179.19 1430.32 179.19 1423.21 Q179.19 1416.08 177.362 1412.54 Q175.556 1408.98 171.922 1408.98 M171.922 1405.27 Q177.732 1405.27 180.788 1409.88 Q183.866 1414.46 183.866 1423.21 Q183.866 1431.94 180.788 1436.55 Q177.732 1441.13 171.922 1441.13 Q166.112 1441.13 163.033 1436.55 Q159.978 1431.94 159.978 1423.21 Q159.978 1414.46 163.033 1409.88 Q166.112 1405.27 171.922 1405.27 Z" fill="#000000" fill-rule="nonzero" fill-opacity="1" /><path clip-path="url(#clip270)" d="M202.084 1408.98 Q198.473 1408.98 196.644 1412.54 Q194.838 1416.08 194.838 1423.21 Q194.838 1430.32 196.644 1433.89 Q198.473 1437.43 202.084 1437.43 Q205.718 1437.43 207.524 1433.89 Q209.352 1430.32 209.352 1423.21 Q209.352 1416.08 207.524 1412.54 Q205.718 1408.98 202.084 1408.98 M202.084 1405.27 Q207.894 1405.27 210.949 1409.88 Q214.028 1414.46 214.028 1423.21 Q214.028 1431.94 210.949 1436.55 Q207.894 1441.13 202.084 1441.13 Q196.274 1441.13 193.195 1436.55 Q190.139 1431.94 190.139 1423.21 Q190.139 1414.46 193.195 1409.88 Q196.274 1405.27 202.084 1405.27 Z" fill="#000000" fill-rule="nonzero" fill-opacity="1" /><path clip-path="url(#clip270)" d="M128.288 1052.55 Q124.677 1052.55 122.848 1056.11 Q121.043 1059.65 121.043 1066.78 Q121.043 1073.89 122.848 1077.45 Q124.677 1080.99 128.288 1080.99 Q131.922 1080.99 133.728 1077.45 Q135.556 1073.89 135.556 1066.78 Q135.556 1059.65 133.728 1056.11 Q131.922 1052.55 128.288 1052.55 M128.288 1048.84 Q134.098 1048.84 137.154 1053.45 Q140.232 1058.03 140.232 1066.78 Q140.232 1075.51 137.154 1080.11 Q134.098 1084.7 128.288 1084.7 Q122.478 1084.7 119.399 1080.11 Q116.343 1075.51 116.343 1066.78 Q116.343 1058.03 119.399 1053.45 Q122.478 1048.84 128.288 1048.84 Z" fill="#000000" fill-rule="nonzero" fill-opacity="1" /><path clip-path="url(#clip270)" d="M148.45 1078.15 L153.334 1078.15 L153.334 1084.03 L148.45 1084.03 L148.45 1078.15 Z" fill="#000000" fill-rule="nonzero" fill-opacity="1" /><path clip-path="url(#clip270)" d="M173.519 1052.55 Q169.908 1052.55 168.079 1056.11 Q166.274 1059.65 166.274 1066.78 Q166.274 1073.89 168.079 1077.45 Q169.908 1080.99 173.519 1080.99 Q177.153 1080.99 178.959 1077.45 Q180.788 1073.89 180.788 1066.78 Q180.788 1059.65 178.959 1056.11 Q177.153 1052.55 173.519 1052.55 M173.519 1048.84 Q179.329 1048.84 182.385 1053.45 Q185.463 1058.03 185.463 1066.78 Q185.463 1075.51 182.385 1080.11 Q179.329 1084.7 173.519 1084.7 Q167.709 1084.7 164.63 1080.11 Q161.575 1075.51 161.575 1066.78 Q161.575 1058.03 164.63 1053.45 Q167.709 1048.84 173.519 1048.84 Z" fill="#000000" fill-rule="nonzero" fill-opacity="1" /><path clip-path="url(#clip270)" d="M197.709 1080.09 L214.028 1080.09 L214.028 1084.03 L192.084 1084.03 L192.084 1080.09 Q194.746 1077.34 199.329 1072.71 Q203.936 1068.05 205.116 1066.71 Q207.362 1064.19 208.241 1062.45 Q209.144 1060.69 209.144 1059 Q209.144 1056.25 207.199 1054.51 Q205.278 1052.78 202.176 1052.78 Q199.977 1052.78 197.524 1053.54 Q195.093 1054.3 192.315 1055.86 L192.315 1051.13 Q195.139 1050 197.593 1049.42 Q200.047 1048.84 202.084 1048.84 Q207.454 1048.84 210.649 1051.53 Q213.843 1054.21 213.843 1058.7 Q213.843 1060.83 213.033 1062.75 Q212.246 1064.65 210.139 1067.24 Q209.561 1067.92 206.459 1071.13 Q203.357 1074.33 197.709 1080.09 Z" fill="#000000" fill-rule="nonzero" fill-opacity="1" /><path clip-path="url(#clip270)" d="M126.205 696.112 Q122.593 696.112 120.765 699.677 Q118.959 703.219 118.959 710.348 Q118.959 717.455 120.765 721.02 Q122.593 724.561 126.205 724.561 Q129.839 724.561 131.644 721.02 Q133.473 717.455 133.473 710.348 Q133.473 703.219 131.644 699.677 Q129.839 696.112 126.205 696.112 M126.205 692.409 Q132.015 692.409 135.07 697.015 Q138.149 701.598 138.149 710.348 Q138.149 719.075 135.07 723.682 Q132.015 728.265 126.205 728.265 Q120.394 728.265 117.316 723.682 Q114.26 719.075 114.26 710.348 Q114.26 701.598 117.316 697.015 Q120.394 692.409 126.205 692.409 Z" fill="#000000" fill-rule="nonzero" fill-opacity="1" /><path clip-path="url(#clip270)" d="M146.366 721.714 L151.251 721.714 L151.251 727.594 L146.366 727.594 L146.366 721.714 Z" fill="#000000" fill-rule="nonzero" fill-opacity="1" /><path clip-path="url(#clip270)" d="M171.436 696.112 Q167.825 696.112 165.996 699.677 Q164.19 703.219 164.19 710.348 Q164.19 717.455 165.996 721.02 Q167.825 724.561 171.436 724.561 Q175.07 724.561 176.876 721.02 Q178.704 717.455 178.704 710.348 Q178.704 703.219 176.876 699.677 Q175.07 696.112 171.436 696.112 M171.436 692.409 Q177.246 692.409 180.301 697.015 Q183.38 701.598 183.38 710.348 Q183.38 719.075 180.301 723.682 Q177.246 728.265 171.436 728.265 Q165.626 728.265 162.547 723.682 Q159.491 719.075 159.491 710.348 Q159.491 701.598 162.547 697.015 Q165.626 692.409 171.436 692.409 Z" fill="#000000" fill-rule="nonzero" fill-opacity="1" /><path clip-path="url(#clip270)" d="M204.445 697.108 L192.639 715.557 L204.445 715.557 L204.445 697.108 M203.218 693.034 L209.098 693.034 L209.098 715.557 L214.028 715.557 L214.028 719.446 L209.098 719.446 L209.098 727.594 L204.445 727.594 L204.445 719.446 L188.843 719.446 L188.843 714.932 L203.218 693.034 Z" fill="#000000" fill-rule="nonzero" fill-opacity="1" /><path clip-path="url(#clip270)" d="M126.529 339.679 Q122.918 339.679 121.089 343.244 Q119.283 346.786 119.283 353.915 Q119.283 361.022 121.089 364.586 Q122.918 368.128 126.529 368.128 Q130.163 368.128 131.968 364.586 Q133.797 361.022 133.797 353.915 Q133.797 346.786 131.968 343.244 Q130.163 339.679 126.529 339.679 M126.529 335.976 Q132.339 335.976 135.394 340.582 Q138.473 345.165 138.473 353.915 Q138.473 362.642 135.394 367.249 Q132.339 371.832 126.529 371.832 Q120.718 371.832 117.64 367.249 Q114.584 362.642 114.584 353.915 Q114.584 345.165 117.64 340.582 Q120.718 335.976 126.529 335.976 Z" fill="#000000" fill-rule="nonzero" fill-opacity="1" /><path clip-path="url(#clip270)" d="M146.691 365.281 L151.575 365.281 L151.575 371.161 L146.691 371.161 L146.691 365.281 Z" fill="#000000" fill-rule="nonzero" fill-opacity="1" /><path clip-path="url(#clip270)" d="M171.76 339.679 Q168.149 339.679 166.32 343.244 Q164.515 346.786 164.515 353.915 Q164.515 361.022 166.32 364.586 Q168.149 368.128 171.76 368.128 Q175.394 368.128 177.2 364.586 Q179.028 361.022 179.028 353.915 Q179.028 346.786 177.2 343.244 Q175.394 339.679 171.76 339.679 M171.76 335.976 Q177.57 335.976 180.626 340.582 Q183.704 345.165 183.704 353.915 Q183.704 362.642 180.626 367.249 Q177.57 371.832 171.76 371.832 Q165.95 371.832 162.871 367.249 Q159.815 362.642 159.815 353.915 Q159.815 345.165 162.871 340.582 Q165.95 335.976 171.76 335.976 Z" fill="#000000" fill-rule="nonzero" fill-opacity="1" /><path clip-path="url(#clip270)" d="M202.5 352.017 Q199.352 352.017 197.5 354.17 Q195.672 356.323 195.672 360.073 Q195.672 363.799 197.5 365.975 Q199.352 368.128 202.5 368.128 Q205.649 368.128 207.477 365.975 Q209.329 363.799 209.329 360.073 Q209.329 356.323 207.477 354.17 Q205.649 352.017 202.5 352.017 M211.783 337.364 L211.783 341.624 Q210.024 340.79 208.218 340.351 Q206.436 339.911 204.676 339.911 Q200.047 339.911 197.593 343.036 Q195.163 346.161 194.815 352.48 Q196.181 350.466 198.241 349.401 Q200.301 348.313 202.778 348.313 Q207.987 348.313 210.996 351.485 Q214.028 354.633 214.028 360.073 Q214.028 365.397 210.88 368.614 Q207.732 371.832 202.5 371.832 Q196.505 371.832 193.334 367.249 Q190.163 362.642 190.163 353.915 Q190.163 345.721 194.051 340.86 Q197.94 335.976 204.491 335.976 Q206.25 335.976 208.033 336.323 Q209.838 336.67 211.783 337.364 Z" fill="#000000" fill-rule="nonzero" fill-opacity="1" /><path clip-path="url(#clip270)" d="M16.4842 1117.5 L16.4842 1087.46 L21.895 1087.46 L21.895 1111.08 L35.9632 1111.08 L35.9632 1088.45 L41.3741 1088.45 L41.3741 1111.08 L58.5933 1111.08 L58.5933 1086.89 L64.0042 1086.89 L64.0042 1117.5 L16.4842 1117.5 Z" fill="#000000" fill-rule="nonzero" fill-opacity="1" /><path clip-path="url(#clip270)" d="M14.5426 1062.5 Q21.8632 1066.77 29.0246 1068.84 Q36.186 1070.91 43.5384 1070.91 Q50.8908 1070.91 58.1159 1068.84 Q65.3091 1066.74 72.5979 1062.5 L72.5979 1067.6 Q65.1182 1072.37 57.8931 1074.76 Q50.668 1077.11 43.5384 1077.11 Q36.4406 1077.11 29.2474 1074.76 Q22.0542 1072.4 14.5426 1067.6 L14.5426 1062.5 Z" fill="#000000" fill-rule="nonzero" fill-opacity="1" /><path clip-path="url(#clip270)" d="M16.4842 1050.89 L16.4842 1020.84 L21.895 1020.84 L21.895 1044.46 L35.9632 1044.46 L35.9632 1021.83 L41.3741 1021.83 L41.3741 1044.46 L58.5933 1044.46 L58.5933 1020.27 L64.0042 1020.27 L64.0042 1050.89 L16.4842 1050.89 Z" fill="#000000" fill-rule="nonzero" fill-opacity="1" /><path clip-path="url(#clip270)" d="M29.4065 987.23 L34.9447 987.23 Q33.6716 989.713 33.035 992.387 Q32.3984 995.06 32.3984 997.925 Q32.3984 1002.29 33.7352 1004.48 Q35.072 1006.65 37.7456 1006.65 Q39.7826 1006.65 40.9603 1005.09 Q42.1061 1003.53 43.1565 998.816 L43.6021 996.811 Q44.9389 990.572 47.3897 987.962 Q49.8086 985.321 54.1691 985.321 Q59.1344 985.321 62.0308 989.267 Q64.9272 993.182 64.9272 1000.06 Q64.9272 1002.92 64.3543 1006.04 Q63.8132 1009.13 62.6992 1012.57 L56.6518 1012.57 Q58.3387 1009.32 59.198 1006.17 Q60.0256 1003.02 60.0256 999.93 Q60.0256 995.792 58.6251 993.564 Q57.1929 991.336 54.6147 991.336 Q52.2276 991.336 50.9545 992.959 Q49.6813 994.551 48.5037 999.994 L48.0262 1002.03 Q46.8804 1007.47 44.5251 1009.89 Q42.138 1012.31 38.0002 1012.31 Q32.9713 1012.31 30.2341 1008.75 Q27.4968 1005.18 27.4968 998.625 Q27.4968 995.378 27.9743 992.514 Q28.4517 989.649 29.4065 987.23 Z" fill="#000000" fill-rule="nonzero" fill-opacity="1" /><path clip-path="url(#clip270)" d="M18.2347 970.202 L28.3562 970.202 L28.3562 958.139 L32.9077 958.139 L32.9077 970.202 L52.2594 970.202 Q56.6199 970.202 57.8613 969.024 Q59.1026 967.815 59.1026 964.155 L59.1026 958.139 L64.0042 958.139 L64.0042 964.155 Q64.0042 970.934 61.4897 973.512 Q58.9434 976.09 52.2594 976.09 L32.9077 976.09 L32.9077 980.387 L28.3562 980.387 L28.3562 976.09 L18.2347 976.09 L18.2347 970.202 Z" fill="#000000" fill-rule="nonzero" fill-opacity="1" /><path clip-path="url(#clip270)" d="M28.3562 950.437 L28.3562 944.58 L64.0042 944.58 L64.0042 950.437 L28.3562 950.437 M14.479 950.437 L14.479 944.58 L21.895 944.58 L21.895 950.437 L14.479 950.437 Z" fill="#000000" fill-rule="nonzero" fill-opacity="1" /><path clip-path="url(#clip270)" d="M35.1993 904.572 Q31.2526 902.375 29.3747 899.32 Q27.4968 896.264 27.4968 892.127 Q27.4968 886.557 31.4117 883.533 Q35.2948 880.509 42.4881 880.509 L64.0042 880.509 L64.0042 886.398 L42.679 886.398 Q37.5546 886.398 35.072 888.212 Q32.5894 890.026 32.5894 893.75 Q32.5894 898.301 35.6131 900.943 Q38.6368 903.585 43.8567 903.585 L64.0042 903.585 L64.0042 909.473 L42.679 909.473 Q37.5228 909.473 35.072 911.287 Q32.5894 913.102 32.5894 916.889 Q32.5894 921.377 35.6449 924.019 Q38.6686 926.661 43.8567 926.661 L64.0042 926.661 L64.0042 932.549 L28.3562 932.549 L28.3562 926.661 L33.8944 926.661 Q30.616 924.655 29.0564 921.854 Q27.4968 919.054 27.4968 915.202 Q27.4968 911.319 29.4702 908.614 Q31.4436 905.877 35.1993 904.572 Z" fill="#000000" fill-rule="nonzero" fill-opacity="1" /><path clip-path="url(#clip270)" d="M46.0847 852.627 Q46.0847 859.725 47.7079 862.462 Q49.3312 865.2 53.2461 865.2 Q56.3653 865.2 58.2114 863.163 Q60.0256 861.094 60.0256 857.561 Q60.0256 852.691 56.5881 849.763 Q53.1188 846.803 47.3897 846.803 L46.0847 846.803 L46.0847 852.627 M43.6657 840.946 L64.0042 840.946 L64.0042 846.803 L58.5933 846.803 Q61.8398 848.808 63.3994 851.8 Q64.9272 854.792 64.9272 859.12 Q64.9272 864.595 61.8716 867.841 Q58.7843 871.056 53.6281 871.056 Q47.6125 871.056 44.5569 867.046 Q41.5014 863.004 41.5014 855.015 L41.5014 846.803 L40.9285 846.803 Q36.8862 846.803 34.6901 849.476 Q32.4621 852.118 32.4621 856.924 Q32.4621 859.98 33.1941 862.876 Q33.9262 865.773 35.3903 868.446 L29.9795 868.446 Q28.7381 865.232 28.1334 862.208 Q27.4968 859.184 27.4968 856.32 Q27.4968 848.585 31.5072 844.766 Q35.5176 840.946 43.6657 840.946 Z" fill="#000000" fill-rule="nonzero" fill-opacity="1" /><path clip-path="url(#clip270)" d="M18.2347 823.091 L28.3562 823.091 L28.3562 811.028 L32.9077 811.028 L32.9077 823.091 L52.2594 823.091 Q56.6199 823.091 57.8613 821.913 Q59.1026 820.703 59.1026 817.043 L59.1026 811.028 L64.0042 811.028 L64.0042 817.043 Q64.0042 823.823 61.4897 826.401 Q58.9434 828.979 52.2594 828.979 L32.9077 828.979 L32.9077 833.276 L28.3562 833.276 L28.3562 828.979 L18.2347 828.979 L18.2347 823.091 Z" fill="#000000" fill-rule="nonzero" fill-opacity="1" /><path clip-path="url(#clip270)" d="M44.7161 772.833 L47.5806 772.833 L47.5806 799.76 Q53.6281 799.378 56.8109 796.132 Q59.9619 792.853 59.9619 787.029 Q59.9619 783.655 59.1344 780.504 Q58.3069 777.321 56.6518 774.202 L62.1899 774.202 Q63.5267 777.353 64.227 780.663 Q64.9272 783.973 64.9272 787.379 Q64.9272 795.909 59.9619 800.906 Q54.9967 805.871 46.5303 805.871 Q37.7774 805.871 32.6531 801.161 Q27.4968 796.418 27.4968 788.397 Q27.4968 781.204 32.1438 777.035 Q36.7589 772.833 44.7161 772.833 M42.9973 778.69 Q38.1912 778.753 35.3266 781.395 Q32.4621 784.005 32.4621 788.334 Q32.4621 793.235 35.2312 796.195 Q38.0002 799.124 43.0292 799.569 L42.9973 778.69 Z" fill="#000000" fill-rule="nonzero" fill-opacity="1" /><path clip-path="url(#clip270)" d="M33.7671 739.763 L14.479 739.763 L14.479 733.907 L64.0042 733.907 L64.0042 739.763 L58.657 739.763 Q61.8398 741.61 63.3994 744.442 Q64.9272 747.243 64.9272 751.19 Q64.9272 757.651 59.771 761.725 Q54.6147 765.767 46.212 765.767 Q37.8093 765.767 32.6531 761.725 Q27.4968 757.651 27.4968 751.19 Q27.4968 747.243 29.0564 744.442 Q30.5842 741.61 33.7671 739.763 M46.212 759.72 Q52.6732 759.72 56.3653 757.078 Q60.0256 754.405 60.0256 749.758 Q60.0256 745.111 56.3653 742.437 Q52.6732 739.763 46.212 739.763 Q39.7508 739.763 36.0905 742.437 Q32.3984 745.111 32.3984 749.758 Q32.3984 754.405 36.0905 757.078 Q39.7508 759.72 46.212 759.72 Z" fill="#000000" fill-rule="nonzero" fill-opacity="1" /><path clip-path="url(#clip270)" d="M58.657 695.458 L77.5631 695.458 L77.5631 701.346 L28.3562 701.346 L28.3562 695.458 L33.7671 695.458 Q30.5842 693.612 29.0564 690.811 Q27.4968 687.978 27.4968 684.064 Q27.4968 677.57 32.6531 673.528 Q37.8093 669.454 46.212 669.454 Q54.6147 669.454 59.771 673.528 Q64.9272 677.57 64.9272 684.064 Q64.9272 687.978 63.3994 690.811 Q61.8398 693.612 58.657 695.458 M46.212 675.533 Q39.7508 675.533 36.0905 678.207 Q32.3984 680.849 32.3984 685.496 Q32.3984 690.143 36.0905 692.816 Q39.7508 695.458 46.212 695.458 Q52.6732 695.458 56.3653 692.816 Q60.0256 690.143 60.0256 685.496 Q60.0256 680.849 56.3653 678.207 Q52.6732 675.533 46.212 675.533 Z" fill="#000000" fill-rule="nonzero" fill-opacity="1" /><path clip-path="url(#clip270)" d="M43.5384 641.986 L43.5384 624.831 L48.7583 624.831 L48.7583 641.986 L43.5384 641.986 Z" fill="#000000" fill-rule="nonzero" fill-opacity="1" /><path clip-path="url(#clip270)" d="M16.4842 601.118 L16.4842 560.919 L21.895 560.919 L21.895 577.788 L64.0042 577.788 L64.0042 584.249 L21.895 584.249 L21.895 601.118 L16.4842 601.118 Z" fill="#000000" fill-rule="nonzero" fill-opacity="1" /><path clip-path="url(#clip270)" d="M33.8307 543.891 Q33.2578 544.877 33.0032 546.055 Q32.7167 547.201 32.7167 548.601 Q32.7167 553.567 35.9632 556.24 Q39.1779 558.882 45.2253 558.882 L64.0042 558.882 L64.0042 564.77 L28.3562 564.77 L28.3562 558.882 L33.8944 558.882 Q30.6479 557.036 29.0883 554.076 Q27.4968 551.116 27.4968 546.883 Q27.4968 546.278 27.5923 545.546 Q27.656 544.814 27.8151 543.922 L33.8307 543.891 Z" fill="#000000" fill-rule="nonzero" fill-opacity="1" /><path clip-path="url(#clip270)" d="M49.9359 538.352 L28.3562 538.352 L28.3562 532.496 L49.7131 532.496 Q54.7739 532.496 57.3202 530.523 Q59.8346 528.549 59.8346 524.603 Q59.8346 519.86 56.8109 517.123 Q53.7872 514.354 48.5673 514.354 L28.3562 514.354 L28.3562 508.497 L64.0042 508.497 L64.0042 514.354 L58.5296 514.354 Q61.7762 516.486 63.3676 519.319 Q64.9272 522.12 64.9272 525.844 Q64.9272 531.987 61.1078 535.17 Q57.2883 538.352 49.9359 538.352 M27.4968 523.616 L27.4968 523.616 Z" fill="#000000" fill-rule="nonzero" fill-opacity="1" /><path clip-path="url(#clip270)" d="M44.7161 465.943 L47.5806 465.943 L47.5806 492.87 Q53.6281 492.488 56.8109 489.241 Q59.9619 485.963 59.9619 480.138 Q59.9619 476.764 59.1344 473.613 Q58.3069 470.43 56.6518 467.311 L62.1899 467.311 Q63.5267 470.462 64.227 473.772 Q64.9272 477.083 64.9272 480.488 Q64.9272 489.018 59.9619 494.015 Q54.9967 498.981 46.5303 498.981 Q37.7774 498.981 32.6531 494.27 Q27.4968 489.528 27.4968 481.507 Q27.4968 474.313 32.1438 470.144 Q36.7589 465.943 44.7161 465.943 M42.9973 471.799 Q38.1912 471.863 35.3266 474.504 Q32.4621 477.114 32.4621 481.443 Q32.4621 486.345 35.2312 489.305 Q38.0002 492.233 43.0292 492.679 L42.9973 471.799 Z" fill="#000000" fill-rule="nonzero" fill-opacity="1" /><path clip-path="url(#clip270)" d="M58.657 429.945 L77.5631 429.945 L77.5631 435.833 L28.3562 435.833 L28.3562 429.945 L33.7671 429.945 Q30.5842 428.098 29.0564 425.298 Q27.4968 422.465 27.4968 418.55 Q27.4968 412.057 32.6531 408.015 Q37.8093 403.941 46.212 403.941 Q54.6147 403.941 59.771 408.015 Q64.9272 412.057 64.9272 418.55 Q64.9272 422.465 63.3994 425.298 Q61.8398 428.098 58.657 429.945 M46.212 410.02 Q39.7508 410.02 36.0905 412.693 Q32.3984 415.335 32.3984 419.982 Q32.3984 424.629 36.0905 427.303 Q39.7508 429.945 46.212 429.945 Q52.6732 429.945 56.3653 427.303 Q60.0256 424.629 60.0256 419.982 Q60.0256 415.335 56.3653 412.693 Q52.6732 410.02 46.212 410.02 Z" fill="#000000" fill-rule="nonzero" fill-opacity="1" /><path clip-path="url(#clip270)" d="M14.5426 395.156 L14.5426 390.063 Q22.0542 385.289 29.2474 382.934 Q36.4406 380.547 43.5384 380.547 Q50.668 380.547 57.8931 382.934 Q65.1182 385.289 72.5979 390.063 L72.5979 395.156 Q65.3091 390.923 58.1159 388.854 Q50.8908 386.753 43.5384 386.753 Q36.186 386.753 29.0246 388.854 Q21.8632 390.923 14.5426 395.156 Z" fill="#000000" fill-rule="nonzero" fill-opacity="1" /><path clip-path="url(#clip270)" d="M39.1142 366.415 L39.1142 352.919 L42.7427 352.919 L42.7427 371.953 L39.2416 371.953 Q38.2549 370.871 36.4725 368.866 Q26.7648 357.917 23.7729 357.917 Q21.6722 357.917 20.3991 359.572 Q19.0941 361.227 19.0941 363.932 Q19.0941 365.587 19.667 367.529 Q20.2081 369.47 21.3221 371.762 L17.4072 371.762 Q16.516 369.311 16.0704 367.21 Q15.6248 365.078 15.6248 363.264 Q15.6248 358.649 17.7255 355.88 Q19.8262 353.11 23.2636 353.11 Q27.6878 353.11 36.7271 363.646 Q38.2549 365.428 39.1142 366.415 Z" fill="#000000" fill-rule="nonzero" fill-opacity="1" /><polyline clip-path="url(#clip272)" style="stroke:#009af9; stroke-linecap:round; stroke-linejoin:round; stroke-width:4; stroke-opacity:1; fill:none" points="309.539,1381.23 311.525,268.75 313.511,172.777 315.496,133.988 317.482,47.2441 319.468,185.237 321.453,323.592 323.439,483.54 325.425,600.858 327.411,714.51 329.396,766.845 331.382,848.97 333.368,965.785 335.353,990.678 337.339,1006.09 339.325,1031.41 341.31,1033.59 343.296,1022.6 345.282,1047.35 347.267,1058.44 349.253,1065.32 351.239,1076.71 353.225,1096.23 355.21,1100.65 357.196,1108.44 359.182,1123.29 361.167,1117.31 363.153,1108.5 365.139,1107.41 367.124,1114.39 369.11,1118.61 371.096,1111.05 373.081,1122.68 375.067,1139.33 377.053,1143.78 379.038,1144.16 381.024,1137.07 383.01,1150.64 384.996,1157.28 386.981,1156.08 388.967,1163.81 390.953,1165.22 392.938,1169.25 394.924,1178.35 396.91,1174.17 398.895,1168.84 400.881,1174.6 402.867,1177.17 404.852,1171.9 406.838,1187.19 408.824,1192.74 410.81,1188.65 412.795,1197.15 414.781,1198.54 416.767,1192.18 418.752,1188.26 420.738,1190.85 422.724,1185.51 424.709,1167.62 426.695,1172.71 428.681,1168.2 430.666,1150.2 432.652,1160.21 434.638,1187.63 436.624,1192.05 438.609,1171.58 440.595,1169.01 442.581,1175.74 444.566,1168.4 446.552,1161.64 448.538,1157.21 450.523,1161.3 452.509,1168.92 454.495,1167.92 456.48,1163.92 458.466,1158.12 460.452,1154.61 462.438,1157.13 464.423,1157.45 466.409,1157.02 468.395,1158.58 470.38,1158.54 472.366,1157.97 474.352,1153.22 476.337,1151.11 478.323,1134.1 480.309,1138.07 482.294,1137.31 484.28,1139.41 486.266,1134.46 488.252,1131.76 490.237,1130.86 492.223,1129.01 494.209,1128.68 496.194,1127.23 498.18,1129.92 500.166,1133.48 502.151,1127.51 504.137,1128.29 506.123,1132.71 508.108,1138.3 510.094,1138.03 512.08,1140.58 514.065,1140.95 516.051,1151.83 518.037,1154.61 520.023,1151.99 522.008,1155.69 523.994,1155.91 525.98,1141.9 527.965,1144.7 529.951,1146.51 531.937,1145.93 533.922,1147.36 535.908,1152.42 537.894,1153.32 539.879,1158.27 541.865,1151.05 543.851,1154.5 545.837,1152.45 547.822,1146.77 549.808,1151.36 551.794,1153.53 553.779,1155.63 555.765,1155.5 557.751,1153.1 559.736,1158.34 561.722,1161.29 563.708,1164.2 565.693,1169.74 567.679,1173.72 569.665,1175.24 571.651,1175.16 573.636,1174.63 575.622,1176.53 577.608,1176.48 579.593,1179.67 581.579,1178.57 583.565,1177.18 585.55,1178.36 587.536,1177.78 589.522,1178 591.507,1179.57 593.493,1179.12 595.479,1185.77 597.465,1187.27 599.45,1188.61 601.436,1187.61 603.422,1188.08 605.407,1189.09 607.393,1190.67 609.379,1197.03 611.364,1195.48 613.35,1196.48 615.336,1197.86 617.321,1200.52 619.307,1201.66 621.293,1203.27 623.279,1204.25 625.264,1204.22 627.25,1205.72 629.236,1207.28 631.221,1208.95 633.207,1208.48 635.193,1210.78 637.178,1211.6 639.164,1213.92 641.15,1215.8 643.135,1215.88 645.121,1217.42 647.107,1219.89 649.092,1219.47 651.078,1219.49 653.064,1221.24 655.05,1221.61 657.035,1221.07 659.021,1223.59 661.007,1224.59 662.992,1224.95 664.978,1226.32 666.964,1225.77 668.949,1227.03 670.935,1227.77 672.921,1227.75 674.906,1227.14 676.892,1227.84 678.878,1228.76 680.864,1228.99 682.849,1229.44 684.835,1230.64 686.821,1230.25 688.806,1232.19 690.792,1233.24 692.778,1233.77 694.763,1234.96 696.749,1235.94 698.735,1236.21 700.72,1238.73 702.706,1239.14 704.692,1239.61 706.678,1239.18 708.663,1241.99 710.649,1241.47 712.635,1242.45 714.62,1244.61 716.606,1242.27 718.592,1244.13 720.577,1243.64 722.563,1244.28 724.549,1244.97 726.534,1245.57 728.52,1243.9 730.506,1244.17 732.492,1242.77 734.477,1242.91 736.463,1241.88 738.449,1242.79 740.434,1245.52 742.42,1246.68 744.406,1247.64 746.391,1248.61 748.377,1251.83 750.363,1252.96 752.348,1253.27 754.334,1253.86 756.32,1254.68 758.305,1255.73 760.291,1257.42 762.277,1260.08 764.263,1260.14 766.248,1261.34 768.234,1264.52 770.22,1265.84 772.205,1267.96 774.191,1268.63 776.177,1270 778.162,1271.5 780.148,1270.08 782.134,1269.91 784.119,1270.22 786.105,1271.15 788.091,1273.1 790.077,1274.63 792.062,1277.29 794.048,1280.33 796.034,1280.66 798.019,1281.25 800.005,1282.56 801.991,1283.28 803.976,1286.1 805.962,1287.19 807.948,1286.83 809.933,1287.2 811.919,1286.94 813.905,1287.18 815.891,1286.9 817.876,1287.9 819.862,1288.53 821.848,1290.5 823.833,1291.6 825.819,1291.31 827.805,1292.76 829.79,1292.61 831.776,1290.59 833.762,1292.15 835.747,1293.1 837.733,1291.92 839.719,1293.82 841.705,1293.46 843.69,1294.47 845.676,1294.68 847.662,1295.67 849.647,1297.02 851.633,1299.15 853.619,1299.46 855.604,1300.68 857.59,1302.22 859.576,1304.24 861.561,1304.12 863.547,1304.6 865.533,1304.66 867.519,1304.97 869.504,1305.51 871.49,1305.43 873.476,1305.5 875.461,1306.84 877.447,1306.98 879.433,1307.28 881.418,1309.81 883.404,1309.1 885.39,1310.36 887.375,1311.44 889.361,1309.34 891.347,1306.89 893.332,1307.57 895.318,1306.21 897.304,1306.94 899.29,1306.46 901.275,1305.72 903.261,1305.92 905.247,1306.67 907.232,1307.28 909.218,1308.22 911.204,1308.02 913.189,1309.05 915.175,1307.33 917.161,1310.06 919.146,1311.65 921.132,1312.92 923.118,1314.18 925.104,1313.12 927.089,1313.98 929.075,1316.44 931.061,1317.18 933.046,1318.76 935.032,1319.46 937.018,1320.83 939.003,1321.55 940.989,1321.83 942.975,1322.79 944.96,1322.74 946.946,1323.15 948.932,1324.42 950.918,1324.79 952.903,1325.91 954.889,1324.4 956.875,1324.66 958.86,1325.34 960.846,1324.92 962.832,1325.55 964.817,1327.31 966.803,1328.28 968.789,1329.24 970.774,1329.48 972.76,1330.82 974.746,1330.71 976.732,1332.29 978.717,1333.19 980.703,1331.46 982.689,1332.12 984.674,1332.85 986.66,1334.28 988.646,1335.17 990.631,1336.42 992.617,1337.56 994.603,1338.11 996.588,1339.39 998.574,1339.36 1000.56,1339.08 1002.55,1338.34 1004.53,1338.77 1006.52,1339.33 1008.5,1338.9 1010.49,1339.37 1012.47,1340.24 1014.46,1339.92 1016.45,1341.81 1018.43,1341.94 1020.42,1341.47 1022.4,1341.59 1024.39,1341.75 1026.37,1342.32 1028.36,1341.32 1030.35,1342.3 1032.33,1344.06 1034.32,1345.2 1036.3,1344.96 1038.29,1345.25 1040.27,1344.47 1042.26,1344.65 1044.25,1345.57 1046.23,1347.07 1048.22,1348.45 1050.2,1347.27 1052.19,1348.06 1054.17,1349.62 1056.16,1350.98 1058.14,1351 1060.13,1351.56 1062.12,1352.31 1064.1,1353.33 1066.09,1353.19 1068.07,1353.66 1070.06,1354.39 1072.04,1355.43 1074.03,1355.18 1076.02,1355.49 1078,1355.39 1079.99,1355.3 1081.97,1356.2 1083.96,1356.23 1085.94,1356.08 1087.93,1356.62 1089.92,1356.9 1091.9,1356.95 1093.89,1356.95 1095.87,1356.2 1097.86,1356.57 1099.84,1357.46 1101.83,1357.66 1103.82,1358.35 1105.8,1357.82 1107.79,1357.95 1109.77,1359.12 1111.76,1359.03 1113.74,1360.34 1115.73,1361.5 1117.72,1361.99 1119.7,1361.98 1121.69,1361.94 1123.67,1362.99 1125.66,1363.81 1127.64,1364.12 1129.63,1364.96 1131.62,1364.72 1133.6,1364.87 1135.59,1365.12 1137.57,1365.64 1139.56,1365.57 1141.54,1364.41 1143.53,1364.22 1145.52,1364.56 1147.5,1363.97 1149.49,1363.4 1151.47,1364.15 1153.46,1364.77 1155.44,1365.38 1157.43,1365.75 1159.42,1364.97 1161.4,1365.09 1163.39,1365.7 1165.37,1366.39 1167.36,1367.51 1169.34,1368.67 1171.33,1368.5 1173.31,1369.68 1175.3,1368.83 1177.29,1369.26 1179.27,1369.42 1181.26,1369.65 1183.24,1369.31 1185.23,1368.86 1187.21,1369.85 1189.2,1370.88 1191.19,1371.46 1193.17,1372.25 1195.16,1372.05 1197.14,1372.01 1199.13,1371.86 1201.11,1373.25 1203.1,1373.29 1205.09,1373.3 1207.07,1373.41 1209.06,1372.25 1211.04,1370.83 1213.03,1371.35 1215.01,1372.48 1217,1372.41 1218.99,1371.14 1220.97,1371.73 1222.96,1372.77 1224.94,1371.9 1226.93,1371.95 1228.91,1372.66 1230.9,1373.56 1232.89,1373 1234.87,1373.42 1236.86,1373.24 1238.84,1373.83 1240.83,1375.12 1242.81,1376.28 1244.8,1377.12 1246.79,1378.39 1248.77,1378.66 1250.76,1378.46 1252.74,1378.61 1254.73,1378.19 1256.71,1378.16 1258.7,1377.32 1260.69,1377.47 1262.67,1377.06 1264.66,1377.54 1266.64,1376.7 1268.63,1378.13 1270.61,1378.18 1272.6,1378.69 1274.59,1377.96 1276.57,1378.34 1278.56,1376.45 1280.54,1376.56 1282.53,1377.29 1284.51,1377.96 1286.5,1377.44 1288.49,1377.9 1290.47,1379.8 1292.46,1378.93 1294.44,1379.07 1296.43,1378.55 1298.41,1378.12 1300.4,1378.2 1302.38,1378.87 1304.37,1378.79 1306.36,1379.24 1308.34,1379.35 1310.33,1380 1312.31,1379.31 1314.3,1379.33 1316.28,1379.37 1318.27,1379.17 1320.26,1380.06 1322.24,1381.03 1324.23,1381.5 1326.21,1381.04 1328.2,1380.87 1330.18,1381.13 1332.17,1381.51 1334.16,1381.38 1336.14,1381.37 1338.13,1381.82 1340.11,1382.16 1342.1,1381.42 1344.08,1380.41 1346.07,1380.4 1348.06,1381.09 1350.04,1381.4 1352.03,1382.65 1354.01,1383.04 1356,1383.81 1357.98,1384.75 1359.97,1384.83 1361.96,1384.62 1363.94,1385.97 1365.93,1386.01 1367.91,1386.38 1369.9,1386.88 1371.88,1386.87 1373.87,1387.17 1375.86,1387.23 1377.84,1387.61 1379.83,1387.8 1381.81,1387.54 1383.8,1387.1 1385.78,1387.01 1387.77,1387.31 1389.76,1387.03 1391.74,1387.03 1393.73,1388.1 1395.71,1388.18 1397.7,1388.48 1399.68,1389 1401.67,1387.97 1403.66,1388.62 1405.64,1390.54 1407.63,1390.81 1409.61,1391.61 1411.6,1390.54 1413.58,1389.82 1415.57,1390.02 1417.55,1390.13 1419.54,1390.31 1421.53,1391.29 1423.51,1391.08 1425.5,1391.91 1427.48,1392.76 1429.47,1391.81 1431.45,1391.06 1433.44,1390.86 1435.43,1390.72 1437.41,1391.45 1439.4,1392.36 1441.38,1392.86 1443.37,1392.4 1445.35,1391.82 1447.34,1392.29 1449.33,1392.3 1451.31,1392.11 1453.3,1392.97 1455.28,1391.6 1457.27,1391.61 1459.25,1391.48 1461.24,1391.97 1463.23,1390.26 1465.21,1390.58 1467.2,1391.56 1469.18,1392.63 1471.17,1392.52 1473.15,1393.06 1475.14,1392.03 1477.13,1391.61 1479.11,1391.72 1481.1,1391.96 1483.08,1392 1485.07,1392.51 1487.05,1392.77 1489.04,1392.21 1491.03,1392.8 1493.01,1392.57 1495,1392.29 1496.98,1392.63 1498.97,1393.18 1500.95,1393.42 1502.94,1392.81 1504.93,1392.9 1506.91,1392.8 1508.9,1393.25 1510.88,1392.98 1512.87,1393.18 1514.85,1392.38 1516.84,1392.75 1518.83,1393.48 1520.81,1393.86 1522.8,1393.19 1524.78,1393.42 1526.77,1393.88 1528.75,1394.32 1530.74,1394.53 1532.73,1394.75 1534.71,1394.76 1536.7,1394.92 1538.68,1395 1540.67,1393.5 1542.65,1394.05 1544.64,1394.43 1546.62,1393.83 1548.61,1393.79 1550.6,1392.99 1552.58,1392.4 1554.57,1392.04 1556.55,1392.2 1558.54,1392.09 1560.52,1392.2 1562.51,1392.69 1564.5,1392.99 1566.48,1393.63 1568.47,1393.86 1570.45,1393.18 1572.44,1393.04 1574.42,1393.27 1576.41,1393.33 1578.4,1393.42 1580.38,1393.01 1582.37,1391.76 1584.35,1392.27 1586.34,1392.66 1588.32,1392.43 1590.31,1393.35 1592.3,1393.64 1594.28,1393 1596.27,1392.44 1598.25,1392.25 1600.24,1392.14 1602.22,1393.22 1604.21,1393.74 1606.2,1393.74 1608.18,1393.41 1610.17,1393.75 1612.15,1394.02 1614.14,1394.26 1616.12,1394.58 1618.11,1394.5 1620.1,1395.14 1622.08,1394.71 1624.07,1394.86 1626.05,1394.8 1628.04,1394.77 1630.02,1394.71 1632.01,1395.2 1634,1395.84 1635.98,1396.86 1637.97,1397.01 1639.95,1397.08 1641.94,1396.05 1643.92,1396.45 1645.91,1396.54 1647.9,1395.89 1649.88,1395.67 1651.87,1396.08 1653.85,1395.99 1655.84,1396.62 1657.82,1396.88 1659.81,1397.16 1661.79,1397.51 1663.78,1397.42 1665.77,1397.52 1667.75,1397.8 1669.74,1398.04 1671.72,1398.51 1673.71,1398.71 1675.69,1399.31 1677.68,1399.68 1679.67,1400.16 1681.65,1399.97 1683.64,1399.99 1685.62,1399.4 1687.61,1399.72 1689.59,1399.34 1691.58,1399.2 1693.57,1399.31 1695.55,1398.97 1697.54,1398.55 1699.52,1398.95 1701.51,1398.9 1703.49,1398.92 1705.48,1399.28 1707.47,1399.5 1709.45,1399.79 1711.44,1400.18 1713.42,1399.82 1715.41,1399.79 1717.39,1400.05 1719.38,1399.78 1721.37,1400.32 1723.35,1400.43 1725.34,1400.25 1727.32,1399.75 1729.31,1399.46 1731.29,1399.85 1733.28,1400.3 1735.27,1399.99 1737.25,1400.54 1739.24,1399.85 1741.22,1399.99 1743.21,1399.5 1745.19,1399.5 1747.18,1399 1749.17,1398.72 1751.15,1398.87 1753.14,1398.98 1755.12,1399.06 1757.11,1399.51 1759.09,1399.63 1761.08,1400.17 1763.07,1400.21 1765.05,1400.13 1767.04,1400.29 1769.02,1400.69 1771.01,1400.55 1772.99,1400.37 1774.98,1401.33 1776.97,1401.66 1778.95,1401.42 1780.94,1401.17 1782.92,1401.26 1784.91,1401.76 1786.89,1401.09 1788.88,1401.7 1790.86,1400.46 1792.85,1400.45 1794.84,1400.74 1796.82,1400.36 1798.81,1401.31 1800.79,1401.43 1802.78,1401.71 1804.76,1402.27 1806.75,1402.51 1808.74,1402.27 1810.72,1402.08 1812.71,1402.08 1814.69,1402.51 1816.68,1402.5 1818.66,1402.45 1820.65,1401.94 1822.64,1402.12 1824.62,1402.32 1826.61,1402.12 1828.59,1402.37 1830.58,1402.56 1832.56,1402.4 1834.55,1402.15 1836.54,1402.33 1838.52,1401.97 1840.51,1401.73 1842.49,1402.31 1844.48,1402.25 1846.46,1402.35 1848.45,1402.5 1850.44,1402.85 1852.42,1403.53 1854.41,1403.76 1856.39,1403.94 1858.38,1403.17 1860.36,1402.49 1862.35,1402.51 1864.34,1402.25 1866.32,1402.35 1868.31,1402.34 1870.29,1402.33 1872.28,1402.57 1874.26,1401.91 1876.25,1401.74 1878.24,1401.54 1880.22,1402.38 1882.21,1402.77 1884.19,1403.27 1886.18,1403.57 1888.16,1403.63 1890.15,1403.38 1892.14,1403.19 1894.12,1402.96 1896.11,1402.72 1898.09,1403.49 1900.08,1403.58 1902.06,1403.24 1904.05,1402.58 1906.03,1402.48 1908.02,1402.34 1910.01,1402.59 1911.99,1403.36 1913.98,1403.43 1915.96,1403.27 1917.95,1403.21 1919.93,1403.44 1921.92,1403.52 1923.91,1403.74 1925.89,1403.65 1927.88,1404.02 1929.86,1404.12 1931.85,1403.95 1933.83,1403.75 1935.82,1403.77 1937.81,1403.7 1939.79,1404.19 1941.78,1403.66 1943.76,1403.94 1945.75,1403.54 1947.73,1403.41 1949.72,1402.8 1951.71,1403.23 1953.69,1402.85 1955.68,1402.94 1957.66,1402.94 1959.65,1403.1 1961.63,1403.57 1963.62,1403.62 1965.61,1402.69 1967.59,1402.66 1969.58,1402.46 1971.56,1402.04 1973.55,1402.68 1975.53,1402.04 1977.52,1401.16 1979.51,1401.48 1981.49,1401.03 1983.48,1400.63 1985.46,1400.46 1987.45,1400.67 1989.43,1399.6 1991.42,1400.55 1993.41,1400.45 1995.39,1400.83 1997.38,1401.73 1999.36,1400.56 2001.35,1400.22 2003.33,1400.15 2005.32,1399.98 2007.31,1400.24 2009.29,1400.67 2011.28,1400.82 2013.26,1400.23 2015.25,1399.78 2017.23,1399.53 2019.22,1399.57 2021.21,1398.18 2023.19,1397.82 2025.18,1398.2 2027.16,1398.27 2029.15,1398.9 2031.13,1399.54 2033.12,1399.76 2035.1,1399.38 2037.09,1399.69 2039.08,1399.97 2041.06,1399.68 2043.05,1399.65 2045.03,1400.13 2047.02,1400.23 2049,1399.7 2050.99,1400.06 2052.98,1400.47 2054.96,1401.1 2056.95,1400.57 2058.93,1401.37 2060.92,1402.37 2062.9,1401.53 2064.89,1401.17 2066.88,1401.56 2068.86,1401.57 2070.85,1401.7 2072.83,1401.09 2074.82,1401.63 2076.8,1401.79 2078.79,1401.45 2080.78,1401.46 2082.76,1401.09 2084.75,1401.05 2086.73,1401.31 2088.72,1400.79 2090.7,1401.18 2092.69,1401.58 2094.68,1401.53 2096.66,1401.05 2098.65,1401.59 2100.63,1400.95 2102.62,1401.3 2104.6,1401.36 2106.59,1401.25 2108.58,1401.17 2110.56,1400.86 2112.55,1401.59 2114.53,1401.85 2116.52,1401.6 2118.5,1401.92 2120.49,1402.14 2122.48,1402.36 2124.46,1402.14 2126.45,1400.77 2128.43,1401.31 2130.42,1401.45 2132.4,1400.41 2134.39,1401.05 2136.38,1401.48 2138.36,1401.67 2140.35,1401.36 2142.33,1400.33 2144.32,1400.23 2146.3,1400.45 2148.29,1400.94 2150.27,1400.55 2152.26,1400.15 2154.25,1400.38 2156.23,1400.19 2158.22,1400.28 2160.2,1400.51 2162.19,1400.99 2164.17,1401.49 2166.16,1400.02 2168.15,1399.56 2170.13,1400.19 2172.12,1400.02 2174.1,1400.26 2176.09,1399.95 2178.07,1400.85 2180.06,1401.3 2182.05,1401.11 2184.03,1401.12 2186.02,1401.53 2188,1401.12 2189.99,1401.48 2191.97,1402.24 2193.96,1402.09 2195.95,1402.67 2197.93,1401.89 2199.92,1402.1 2201.9,1401.78 2203.89,1401.81 2205.87,1401.85 2207.86,1401.97 2209.85,1401.82 2211.83,1402.01 2213.82,1402.06 2215.8,1402.59 2217.79,1402.63 2219.77,1403.16 2221.76,1402.61 2223.75,1402.4 2225.73,1402.23 2227.72,1401.57 2229.7,1401.65 2231.69,1400.84 2233.67,1400.38 2235.66,1401.4 2237.65,1401.39 2239.63,1402.32 2241.62,1402.18 2243.6,1402.4 2245.59,1402.53 2247.57,1402.24 2249.56,1401.83 2251.55,1401.89 2253.53,1401.57 2255.52,1401.03 2257.5,1401.8 2259.49,1402.72 2261.47,1402.8 2263.46,1403.17 2265.45,1402.57 2267.43,1403.03 2269.42,1402.78 2271.4,1403.06 2273.39,1403.27 2275.37,1403.1 2277.36,1402.93 2279.34,1402.98 2281.33,1403.01 2283.32,1403.24 2285.3,1403.24 2287.29,1403.41 2289.27,1403.82 2291.26,1403.4 2293.24,1403.16 "/>
<polyline clip-path="url(#clip272)" style="stroke:#e26f46; stroke-linecap:round; stroke-linejoin:round; stroke-width:4; stroke-opacity:1; fill:none" points="309.539,1381.16 311.525,279.338 313.511,210.161 315.496,194.049 317.482,243.248 319.468,333.772 321.453,423.214 323.439,557.639 325.425,691.986 327.411,809.49 329.396,858.791 331.382,900.384 333.368,955.521 335.353,991.009 337.339,1029.07 339.325,1036.65 341.31,1049.38 343.296,1063.42 345.282,1080.76 347.267,1091.33 349.253,1094.97 351.239,1099.08 353.225,1108.51 355.21,1108.35 357.196,1103.12 359.182,1121.87 361.167,1142.59 363.153,1158.76 365.139,1145.78 367.124,1138.7 369.11,1130.5 371.096,1128.42 373.081,1130.92 375.067,1114.09 377.053,1113.51 379.038,1107.87 381.024,1111.81 383.01,1125.1 384.996,1121.98 386.981,1111.77 388.967,1098.39 390.953,1084.13 392.938,1085.46 394.924,1089.48 396.91,1097.22 398.895,1107.8 400.881,1100.26 402.867,1096.67 404.852,1102.01 406.838,1094.99 408.824,1098.92 410.81,1098.83 412.795,1089.7 414.781,1080.63 416.767,1089.35 418.752,1082.81 420.738,1090.03 422.724,1090.35 424.709,1111.09 426.695,1114.65 428.681,1111.87 430.666,1108.66 432.652,1109.5 434.638,1116.27 436.624,1108.17 438.609,1104.87 440.595,1103.25 442.581,1109.77 444.566,1109.67 446.552,1108.87 448.538,1111.54 450.523,1102.36 452.509,1090.71 454.495,1091.43 456.48,1096.44 458.466,1093.5 460.452,1089.81 462.438,1088.6 464.423,1088.74 466.409,1096.57 468.395,1099.25 470.38,1114.51 472.366,1113.74 474.352,1124.9 476.337,1128.39 478.323,1125.74 480.309,1123.09 482.294,1123.1 484.28,1123.2 486.266,1114.96 488.252,1124 490.237,1122.88 492.223,1127.18 494.209,1131.68 496.194,1130.3 498.18,1132.59 500.166,1133.25 502.151,1133.42 504.137,1137.11 506.123,1135.82 508.108,1143.25 510.094,1137.89 512.08,1142.94 514.065,1139.63 516.051,1133.56 518.037,1144.42 520.023,1139.38 522.008,1145.18 523.994,1146.53 525.98,1143.13 527.965,1145.44 529.951,1139.99 531.937,1131.5 533.922,1132.94 535.908,1136.13 537.894,1137.13 539.879,1136.65 541.865,1132.02 543.851,1135.76 545.837,1143.6 547.822,1141.58 549.808,1139.56 551.794,1137.15 553.779,1137.28 555.765,1144.16 557.751,1146.55 559.736,1147.22 561.722,1147.68 563.708,1151.14 565.693,1153.21 567.679,1151.34 569.665,1155.55 571.651,1157.25 573.636,1156.17 575.622,1160.11 577.608,1165.81 579.593,1162.29 581.579,1163.23 583.565,1161.69 585.55,1165.52 587.536,1166.25 589.522,1170.07 591.507,1174.18 593.493,1176.76 595.479,1174.4 597.465,1175.14 599.45,1182.98 601.436,1184.39 603.422,1185.05 605.407,1182.2 607.393,1184.75 609.379,1190.46 611.364,1189.58 613.35,1187.87 615.336,1184.46 617.321,1187.54 619.307,1190.83 621.293,1192.59 623.279,1192.7 625.264,1189.75 627.25,1188.79 629.236,1187.51 631.221,1188.9 633.207,1190.99 635.193,1186.72 637.178,1185.99 639.164,1184.21 641.15,1186.62 643.135,1191.54 645.121,1193.47 647.107,1192.32 649.092,1193.92 651.078,1194.78 653.064,1192.63 655.05,1193.16 657.035,1193.87 659.021,1193.78 661.007,1194.78 662.992,1193.47 664.978,1193.24 666.964,1197.53 668.949,1197.54 670.935,1199.16 672.921,1200.41 674.906,1201.39 676.892,1203.83 678.878,1205.52 680.864,1206.05 682.849,1206.23 684.835,1208.33 686.821,1210.2 688.806,1210.58 690.792,1213.02 692.778,1212.94 694.763,1215.89 696.749,1217.12 698.735,1217.96 700.72,1218.74 702.706,1220.64 704.692,1222.33 706.678,1223.2 708.663,1222.8 710.649,1224.33 712.635,1224.11 714.62,1224.6 716.606,1223.73 718.592,1223.6 720.577,1224.02 722.563,1225.19 724.549,1226.18 726.534,1228.2 728.52,1231.82 730.506,1231.85 732.492,1234.28 734.477,1233.33 736.463,1234.6 738.449,1236.23 740.434,1235.55 742.42,1234.63 744.406,1236.5 746.391,1235.38 748.377,1239.19 750.363,1238.71 752.348,1239.3 754.334,1240.85 756.32,1241.09 758.305,1240.63 760.291,1243.32 762.277,1243.63 764.263,1243.57 766.248,1244.94 768.234,1246.99 770.22,1246.53 772.205,1248.68 774.191,1250.32 776.177,1251.68 778.162,1251.75 780.148,1253.03 782.134,1255.93 784.119,1257.13 786.105,1257.54 788.091,1260.19 790.077,1261.78 792.062,1263.36 794.048,1265.39 796.034,1266.54 798.019,1268.39 800.005,1269.49 801.991,1270.14 803.976,1272.26 805.962,1274.32 807.948,1274.73 809.933,1273.84 811.919,1274.17 813.905,1274.83 815.891,1277.45 817.876,1276.29 819.862,1278.23 821.848,1279.3 823.833,1281.03 825.819,1282.41 827.805,1283.82 829.79,1283.28 831.776,1284.99 833.762,1285.58 835.747,1287.33 837.733,1287.65 839.719,1287.54 841.705,1287.67 843.69,1289.16 845.676,1290.38 847.662,1291.95 849.647,1291.25 851.633,1292.19 853.619,1293.91 855.604,1291.97 857.59,1292.07 859.576,1291.93 861.561,1293.24 863.547,1293.82 865.533,1295.1 867.519,1297.77 869.504,1297.56 871.49,1298.69 873.476,1299.72 875.461,1299.3 877.447,1299.13 879.433,1299.77 881.418,1300.55 883.404,1301.47 885.39,1300.65 887.375,1302.73 889.361,1303.65 891.347,1304.06 893.332,1306.81 895.318,1308.09 897.304,1307.82 899.29,1307.42 901.275,1305.77 903.261,1307.49 905.247,1307.91 907.232,1307.24 909.218,1309.07 911.204,1309.26 913.189,1311.1 915.175,1311.79 917.161,1312.8 919.146,1313.12 921.132,1313.57 923.118,1314.83 925.104,1315.36 927.089,1315.52 929.075,1315.94 931.061,1317.82 933.046,1318.81 935.032,1319.13 937.018,1319.53 939.003,1320.09 940.989,1319.74 942.975,1321.68 944.96,1323.04 946.946,1323.69 948.932,1324.01 950.918,1324.38 952.903,1325.42 954.889,1327.02 956.875,1328.09 958.86,1327.5 960.846,1327.09 962.832,1327.9 964.817,1329.31 966.803,1329.93 968.789,1330.9 970.774,1332.32 972.76,1332.9 974.746,1334.6 976.732,1334.48 978.717,1335.11 980.703,1335.2 982.689,1335.98 984.674,1336.71 986.66,1338.68 988.646,1338.82 990.631,1339.08 992.617,1341.64 994.603,1341.61 996.588,1342.08 998.574,1343.24 1000.56,1343.35 1002.55,1343.08 1004.53,1344.03 1006.52,1344.4 1008.5,1345.12 1010.49,1346.63 1012.47,1346.53 1014.46,1346.26 1016.45,1345.31 1018.43,1347 1020.42,1348.05 1022.4,1346.6 1024.39,1347.03 1026.37,1347.72 1028.36,1348.76 1030.35,1346.87 1032.33,1347.04 1034.32,1348.33 1036.3,1348.44 1038.29,1347.67 1040.27,1347.6 1042.26,1348.51 1044.25,1348.88 1046.23,1349.63 1048.22,1349.7 1050.2,1350.64 1052.19,1352.95 1054.17,1354.14 1056.16,1354.99 1058.14,1353.51 1060.13,1353.67 1062.12,1354.73 1064.1,1354.78 1066.09,1354.67 1068.07,1355.41 1070.06,1356.98 1072.04,1357.42 1074.03,1358.4 1076.02,1358.99 1078,1359.67 1079.99,1360.62 1081.97,1361.25 1083.96,1362.27 1085.94,1363.16 1087.93,1363.14 1089.92,1363.34 1091.9,1362.27 1093.89,1362.15 1095.87,1362.36 1097.86,1362.9 1099.84,1362.32 1101.83,1363.04 1103.82,1362.89 1105.8,1363.29 1107.79,1363.09 1109.77,1363.78 1111.76,1364.21 1113.74,1366.16 1115.73,1367.2 1117.72,1367.66 1119.7,1367.79 1121.69,1368.61 1123.67,1368.22 1125.66,1368.81 1127.64,1369.59 1129.63,1370.52 1131.62,1371.22 1133.6,1372.48 1135.59,1372.63 1137.57,1372.31 1139.56,1372.69 1141.54,1373.23 1143.53,1373.68 1145.52,1374.74 1147.5,1374.94 1149.49,1374.76 1151.47,1372.94 1153.46,1374.06 1155.44,1374.65 1157.43,1374.72 1159.42,1374.99 1161.4,1374.98 1163.39,1376.21 1165.37,1377.45 1167.36,1377.67 1169.34,1377.78 1171.33,1376.75 1173.31,1376.69 1175.3,1376.53 1177.29,1376.23 1179.27,1375.85 1181.26,1375.92 1183.24,1376.14 1185.23,1376.2 1187.21,1376.22 1189.2,1375.81 1191.19,1376.27 1193.17,1375.35 1195.16,1376.28 1197.14,1376.05 1199.13,1376.22 1201.11,1377.34 1203.1,1376.81 1205.09,1377.47 1207.07,1377.02 1209.06,1378.5 1211.04,1378.04 1213.03,1379.01 1215.01,1379.74 1217,1379.97 1218.99,1380.26 1220.97,1381.87 1222.96,1383.59 1224.94,1383.44 1226.93,1383.04 1228.91,1382.97 1230.9,1382.96 1232.89,1382.79 1234.87,1382.5 1236.86,1382.49 1238.84,1382.36 1240.83,1382.79 1242.81,1383.39 1244.8,1382.76 1246.79,1382.04 1248.77,1381.71 1250.76,1381.06 1252.74,1381.49 1254.73,1381.24 1256.71,1382.01 1258.7,1382.53 1260.69,1382.47 1262.67,1382.83 1264.66,1383.77 1266.64,1383.8 1268.63,1383.42 1270.61,1383.16 1272.6,1383.58 1274.59,1383.74 1276.57,1383.48 1278.56,1383.3 1280.54,1383.4 1282.53,1382.76 1284.51,1384.03 1286.5,1384.63 1288.49,1385.04 1290.47,1385.5 1292.46,1386.13 1294.44,1386.03 1296.43,1386.58 1298.41,1387.55 1300.4,1387.78 1302.38,1387.64 1304.37,1388.59 1306.36,1388.16 1308.34,1388.68 1310.33,1388.62 1312.31,1389.72 1314.3,1390.92 1316.28,1390.37 1318.27,1390.56 1320.26,1390.55 1322.24,1390.28 1324.23,1390.51 1326.21,1391 1328.2,1390.88 1330.18,1392.12 1332.17,1391.81 1334.16,1392.1 1336.14,1392.38 1338.13,1392.34 1340.11,1392.58 1342.1,1392.93 1344.08,1393.53 1346.07,1393.36 1348.06,1394.16 1350.04,1393.64 1352.03,1393.88 1354.01,1393.91 1356,1394.08 1357.98,1394.66 1359.97,1395.16 1361.96,1395.05 1363.94,1396.16 1365.93,1396.96 1367.91,1397.33 1369.9,1397.56 1371.88,1398.06 1373.87,1397.79 1375.86,1398.27 1377.84,1398.27 1379.83,1397.72 1381.81,1397.53 1383.8,1397.72 1385.78,1397.58 1387.77,1397.54 1389.76,1398.33 1391.74,1398.32 1393.73,1398.89 1395.71,1399.42 1397.7,1399.11 1399.68,1398.65 1401.67,1399.06 1403.66,1399.85 1405.64,1399.86 1407.63,1400.14 1409.61,1401.12 1411.6,1400.9 1413.58,1400.58 1415.57,1401.4 1417.55,1400.9 1419.54,1401.67 1421.53,1401.84 1423.51,1401.74 1425.5,1401.6 1427.48,1401.29 1429.47,1401.25 1431.45,1401.54 1433.44,1400.98 1435.43,1400.68 1437.41,1400.5 1439.4,1400.73 1441.38,1400.48 1443.37,1400.63 1445.35,1400.86 1447.34,1400.36 1449.33,1400.59 1451.31,1400.13 1453.3,1399.39 1455.28,1399.76 1457.27,1399.97 1459.25,1399.18 1461.24,1399.52 1463.23,1397.87 1465.21,1398.44 1467.2,1398.05 1469.18,1398.18 1471.17,1397.74 1473.15,1398.14 1475.14,1397.77 1477.13,1397.84 1479.11,1398.18 1481.1,1398.43 1483.08,1398.55 1485.07,1398.45 1487.05,1398.39 1489.04,1397.43 1491.03,1397.87 1493.01,1398.16 1495,1398.29 1496.98,1398.49 1498.97,1398.44 1500.95,1398.55 1502.94,1399.22 1504.93,1399.98 1506.91,1400.49 1508.9,1400.57 1510.88,1400.47 1512.87,1399.82 1514.85,1400.27 1516.84,1400.14 1518.83,1400.09 1520.81,1400.58 1522.8,1400.53 1524.78,1400.24 1526.77,1399.47 1528.75,1399.2 1530.74,1398.98 1532.73,1398.9 1534.71,1398.56 1536.7,1398.77 1538.68,1399.07 1540.67,1399.19 1542.65,1399.47 1544.64,1399.48 1546.62,1399.42 1548.61,1399.82 1550.6,1400.01 1552.58,1400.06 1554.57,1400.59 1556.55,1401.67 1558.54,1401.36 1560.52,1401.55 1562.51,1401.65 1564.5,1401.98 1566.48,1401.95 1568.47,1400.66 1570.45,1401.03 1572.44,1400.59 1574.42,1400.97 1576.41,1401.19 1578.4,1401.5 1580.38,1401.07 1582.37,1401.64 1584.35,1401.9 1586.34,1402.01 1588.32,1401.94 1590.31,1402.5 1592.3,1403.12 1594.28,1403.1 1596.27,1403.64 1598.25,1404.11 1600.24,1403.12 1602.22,1403.12 1604.21,1403.48 1606.2,1403.94 1608.18,1404.16 1610.17,1404.62 1612.15,1405.09 1614.14,1405.47 1616.12,1405.55 1618.11,1404.53 1620.1,1405.44 1622.08,1405.27 1624.07,1404.76 1626.05,1404.13 1628.04,1404.46 1630.02,1404.02 1632.01,1404.44 1634,1404.2 1635.98,1404.16 1637.97,1404.38 1639.95,1404.07 1641.94,1402.57 1643.92,1403.18 1645.91,1403.21 1647.9,1403.22 1649.88,1402.59 1651.87,1403.25 1653.85,1403.4 1655.84,1404.06 1657.82,1403.7 1659.81,1404.33 1661.79,1404.5 1663.78,1404.24 1665.77,1404.6 1667.75,1404.28 1669.74,1404.36 1671.72,1404.29 1673.71,1404.14 1675.69,1404.66 1677.68,1404.25 1679.67,1402.83 1681.65,1402.59 1683.64,1402.22 1685.62,1402.7 1687.61,1402.81 1689.59,1402.72 1691.58,1402.47 1693.57,1402.9 1695.55,1403.47 1697.54,1403.91 1699.52,1404.45 1701.51,1404.43 1703.49,1404.42 1705.48,1404.95 1707.47,1405.27 1709.45,1406.54 1711.44,1406.77 1713.42,1406.64 1715.41,1406.62 1717.39,1406.52 1719.38,1406.07 1721.37,1405.42 1723.35,1405.49 1725.34,1405.66 1727.32,1405.81 1729.31,1406.09 1731.29,1405.9 1733.28,1405.4 1735.27,1405.24 1737.25,1404.78 1739.24,1405.07 1741.22,1405.31 1743.21,1405.59 1745.19,1406.02 1747.18,1406.48 1749.17,1406.93 1751.15,1407.37 1753.14,1407.26 1755.12,1408.02 1757.11,1407.57 1759.09,1407.9 1761.08,1407.68 1763.07,1408.05 1765.05,1407.1 1767.04,1407.4 1769.02,1407.38 1771.01,1407.67 1772.99,1406.51 1774.98,1405.65 1776.97,1406.17 1778.95,1405.53 1780.94,1405.48 1782.92,1404.68 1784.91,1404.21 1786.89,1404.08 1788.88,1404.13 1790.86,1404.31 1792.85,1404.3 1794.84,1403.81 1796.82,1403.65 1798.81,1403.27 1800.79,1402.51 1802.78,1402.25 1804.76,1402.18 1806.75,1401.66 1808.74,1401.93 1810.72,1400.73 1812.71,1399.93 1814.69,1398.84 1816.68,1399.17 1818.66,1399.44 1820.65,1398.94 1822.64,1398.69 1824.62,1398.65 1826.61,1398.26 1828.59,1398.41 1830.58,1398.39 1832.56,1398.43 1834.55,1397.36 1836.54,1397.12 1838.52,1396.98 1840.51,1397.69 1842.49,1397.88 1844.48,1398.03 1846.46,1398.94 1848.45,1399.72 1850.44,1399.3 1852.42,1399.78 1854.41,1400.69 1856.39,1400.61 1858.38,1401.17 1860.36,1401.56 1862.35,1401.33 1864.34,1401.49 1866.32,1401.9 1868.31,1402.29 1870.29,1402 1872.28,1402.24 1874.26,1402.55 1876.25,1402.41 1878.24,1402.33 1880.22,1402.51 1882.21,1401.66 1884.19,1400.82 1886.18,1400.68 1888.16,1400.03 1890.15,1399.75 1892.14,1400.18 1894.12,1399.71 1896.11,1400.41 1898.09,1401.1 1900.08,1401.42 1902.06,1400.87 1904.05,1400.83 1906.03,1401 1908.02,1398.74 1910.01,1399.18 1911.99,1399.31 1913.98,1399.83 1915.96,1399.52 1917.95,1399.28 1919.93,1398.66 1921.92,1399.21 1923.91,1400.04 1925.89,1401.28 1927.88,1400.94 1929.86,1400.85 1931.85,1400.79 1933.83,1400.04 1935.82,1399.45 1937.81,1399.27 1939.79,1398.94 1941.78,1399.42 1943.76,1399.88 1945.75,1400.33 1947.73,1400.61 1949.72,1401.52 1951.71,1401.96 1953.69,1401.69 1955.68,1401.46 1957.66,1401.8 1959.65,1401.8 1961.63,1401.65 1963.62,1401.8 1965.61,1401.18 1967.59,1401.38 1969.58,1400.82 1971.56,1400.86 1973.55,1401.23 1975.53,1401.49 1977.52,1402.12 1979.51,1402.83 1981.49,1403.14 1983.48,1403.14 1985.46,1402.98 1987.45,1402.7 1989.43,1402.64 1991.42,1402.41 1993.41,1402.7 1995.39,1402.83 1997.38,1403.04 1999.36,1403.39 2001.35,1403.95 2003.33,1404.22 2005.32,1404.35 2007.31,1404.43 2009.29,1404.44 2011.28,1404.74 2013.26,1404.51 2015.25,1404.01 2017.23,1403.95 2019.22,1403.94 2021.21,1403.82 2023.19,1403.83 2025.18,1404.29 2027.16,1404.11 2029.15,1403.69 2031.13,1402.88 2033.12,1402.99 2035.1,1403.13 2037.09,1402.66 2039.08,1402.98 2041.06,1402.9 2043.05,1402.71 2045.03,1403.43 2047.02,1402.81 2049,1402.85 2050.99,1402.69 2052.98,1402.38 2054.96,1402.52 2056.95,1402.37 2058.93,1401.69 2060.92,1401.63 2062.9,1401.71 2064.89,1401.73 2066.88,1401.98 2068.86,1401.82 2070.85,1402.55 2072.83,1402.48 2074.82,1402.46 2076.8,1402.6 2078.79,1402.72 2080.78,1403.49 2082.76,1403.77 2084.75,1403.72 2086.73,1404.17 2088.72,1404.7 2090.7,1404.21 2092.69,1403.86 2094.68,1404.03 2096.66,1403.79 2098.65,1403.69 2100.63,1403.86 2102.62,1404.08 2104.6,1403.94 2106.59,1404.32 2108.58,1404.14 2110.56,1404.22 2112.55,1404.35 2114.53,1403.83 2116.52,1404.47 2118.5,1404.33 2120.49,1404.58 2122.48,1404.8 2124.46,1404.21 2126.45,1404.36 2128.43,1404.7 2130.42,1404.81 2132.4,1404.39 2134.39,1404.31 2136.38,1404.37 2138.36,1404.44 2140.35,1404.84 2142.33,1405 2144.32,1404.87 2146.3,1405.27 2148.29,1405.87 2150.27,1405.5 2152.26,1405.28 2154.25,1405.23 2156.23,1405.58 2158.22,1405.48 2160.2,1405.8 2162.19,1406.18 2164.17,1406.72 2166.16,1406.36 2168.15,1406.38 2170.13,1405.92 2172.12,1405.95 2174.1,1405.61 2176.09,1406.39 2178.07,1406.13 2180.06,1406.12 2182.05,1406.72 2184.03,1406.72 2186.02,1407.08 2188,1407.05 2189.99,1407.03 2191.97,1406.94 2193.96,1406.96 2195.95,1407.29 2197.93,1406.47 2199.92,1406.41 2201.9,1406.75 2203.89,1406.57 2205.87,1406.2 2207.86,1406.36 2209.85,1406.39 2211.83,1405.89 2213.82,1405.78 2215.8,1405.56 2217.79,1405.52 2219.77,1405.76 2221.76,1405.22 2223.75,1405.36 2225.73,1405.74 2227.72,1405.26 2229.7,1405.46 2231.69,1405.02 2233.67,1404.64 2235.66,1404.45 2237.65,1405.48 2239.63,1404.97 2241.62,1404.79 2243.6,1404.37 2245.59,1404.55 2247.57,1403.94 2249.56,1404.23 2251.55,1403.93 2253.53,1404.07 2255.52,1403.56 2257.5,1403.21 2259.49,1402.55 2261.47,1401.86 2263.46,1402.51 2265.45,1402.28 2267.43,1402.05 2269.42,1402.21 2271.4,1402.2 2273.39,1401.53 2275.37,1401.92 2277.36,1401.84 2279.34,1402.53 2281.33,1402.84 2283.32,1402.87 2285.3,1403.07 2287.29,1403.64 2289.27,1403.45 2291.26,1403.33 2293.24,1403.46 "/>
<path clip-path="url(#clip270)" d="M1525.66 248.629 L2282.66 248.629 L2282.66 93.1086 L1525.66 93.1086  Z" fill="#ffffff" fill-rule="evenodd" fill-opacity="1"/>
<polyline clip-path="url(#clip270)" style="stroke:#000000; stroke-linecap:round; stroke-linejoin:round; stroke-width:4; stroke-opacity:1; fill:none" points="1525.66,248.629 2282.66,248.629 2282.66,93.1086 1525.66,93.1086 1525.66,248.629 "/>
<polyline clip-path="url(#clip270)" style="stroke:#009af9; stroke-linecap:round; stroke-linejoin:round; stroke-width:4; stroke-opacity:1; fill:none" points="1549.02,144.949 1689.2,144.949 "/>
<path clip-path="url(#clip270)" d="M1712.57 127.669 L1719.54 127.669 L1728.36 151.187 L1737.22 127.669 L1744.19 127.669 L1744.19 162.229 L1739.63 162.229 L1739.63 131.882 L1730.72 155.585 L1726.02 155.585 L1717.11 131.882 L1717.11 162.229 L1712.57 162.229 L1712.57 127.669 Z" fill="#000000" fill-rule="nonzero" fill-opacity="1" /><path clip-path="url(#clip270)" d="M1752.85 151.997 L1752.85 136.303 L1757.1 136.303 L1757.1 151.835 Q1757.1 155.516 1758.54 157.368 Q1759.98 159.196 1762.85 159.196 Q1766.29 159.196 1768.29 156.997 Q1770.3 154.798 1770.3 151.002 L1770.3 136.303 L1774.56 136.303 L1774.56 162.229 L1770.3 162.229 L1770.3 158.247 Q1768.75 160.608 1766.69 161.766 Q1764.65 162.9 1761.94 162.9 Q1757.48 162.9 1755.16 160.122 Q1752.85 157.344 1752.85 151.997 M1763.56 135.678 L1763.56 135.678 Z" fill="#000000" fill-rule="nonzero" fill-opacity="1" /><path clip-path="url(#clip270)" d="M1783.33 126.21 L1787.59 126.21 L1787.59 162.229 L1783.33 162.229 L1783.33 126.21 Z" fill="#000000" fill-rule="nonzero" fill-opacity="1" /><path clip-path="url(#clip270)" d="M1800.72 128.942 L1800.72 136.303 L1809.49 136.303 L1809.49 139.613 L1800.72 139.613 L1800.72 153.687 Q1800.72 156.858 1801.57 157.761 Q1802.45 158.664 1805.11 158.664 L1809.49 158.664 L1809.49 162.229 L1805.11 162.229 Q1800.18 162.229 1798.31 160.4 Q1796.43 158.548 1796.43 153.687 L1796.43 139.613 L1793.31 139.613 L1793.31 136.303 L1796.43 136.303 L1796.43 128.942 L1800.72 128.942 Z" fill="#000000" fill-rule="nonzero" fill-opacity="1" /><path clip-path="url(#clip270)" d="M1815.09 136.303 L1819.35 136.303 L1819.35 162.229 L1815.09 162.229 L1815.09 136.303 M1815.09 126.21 L1819.35 126.21 L1819.35 131.604 L1815.09 131.604 L1815.09 126.21 Z" fill="#000000" fill-rule="nonzero" fill-opacity="1" /><path clip-path="url(#clip270)" d="M1849.81 146.581 L1849.81 162.229 L1845.55 162.229 L1845.55 146.719 Q1845.55 143.039 1844.12 141.21 Q1842.68 139.382 1839.81 139.382 Q1836.36 139.382 1834.37 141.581 Q1832.38 143.78 1832.38 147.576 L1832.38 162.229 L1828.1 162.229 L1828.1 136.303 L1832.38 136.303 L1832.38 140.331 Q1833.91 137.993 1835.97 136.835 Q1838.05 135.678 1840.76 135.678 Q1845.23 135.678 1847.52 138.456 Q1849.81 141.21 1849.81 146.581 Z" fill="#000000" fill-rule="nonzero" fill-opacity="1" /><path clip-path="url(#clip270)" d="M1868.35 139.289 Q1864.93 139.289 1862.94 141.974 Q1860.95 144.636 1860.95 149.289 Q1860.95 153.942 1862.91 156.627 Q1864.91 159.289 1868.35 159.289 Q1871.76 159.289 1873.75 156.604 Q1875.74 153.918 1875.74 149.289 Q1875.74 144.682 1873.75 141.997 Q1871.76 139.289 1868.35 139.289 M1868.35 135.678 Q1873.91 135.678 1877.08 139.289 Q1880.25 142.9 1880.25 149.289 Q1880.25 155.655 1877.08 159.289 Q1873.91 162.9 1868.35 162.9 Q1862.78 162.9 1859.6 159.289 Q1856.46 155.655 1856.46 149.289 Q1856.46 142.9 1859.6 139.289 Q1862.78 135.678 1868.35 135.678 Z" fill="#000000" fill-rule="nonzero" fill-opacity="1" /><path clip-path="url(#clip270)" d="M1907.5 141.28 Q1909.09 138.409 1911.32 137.044 Q1913.54 135.678 1916.55 135.678 Q1920.6 135.678 1922.8 138.525 Q1925 141.349 1925 146.581 L1925 162.229 L1920.72 162.229 L1920.72 146.719 Q1920.72 142.993 1919.4 141.187 Q1918.08 139.382 1915.37 139.382 Q1912.06 139.382 1910.14 141.581 Q1908.22 143.78 1908.22 147.576 L1908.22 162.229 L1903.93 162.229 L1903.93 146.719 Q1903.93 142.969 1902.61 141.187 Q1901.29 139.382 1898.54 139.382 Q1895.28 139.382 1893.35 141.604 Q1891.43 143.803 1891.43 147.576 L1891.43 162.229 L1887.15 162.229 L1887.15 136.303 L1891.43 136.303 L1891.43 140.331 Q1892.89 137.946 1894.93 136.812 Q1896.97 135.678 1899.77 135.678 Q1902.59 135.678 1904.56 137.113 Q1906.55 138.548 1907.5 141.28 Z" fill="#000000" fill-rule="nonzero" fill-opacity="1" /><path clip-path="url(#clip270)" d="M1933.49 136.303 L1937.75 136.303 L1937.75 162.229 L1933.49 162.229 L1933.49 136.303 M1933.49 126.21 L1937.75 126.21 L1937.75 131.604 L1933.49 131.604 L1933.49 126.21 Z" fill="#000000" fill-rule="nonzero" fill-opacity="1" /><path clip-path="url(#clip270)" d="M1958.45 149.196 Q1953.28 149.196 1951.29 150.377 Q1949.3 151.557 1949.3 154.405 Q1949.3 156.673 1950.78 158.016 Q1952.29 159.335 1954.86 159.335 Q1958.4 159.335 1960.53 156.835 Q1962.68 154.312 1962.68 150.145 L1962.68 149.196 L1958.45 149.196 M1966.94 147.437 L1966.94 162.229 L1962.68 162.229 L1962.68 158.293 Q1961.22 160.655 1959.05 161.789 Q1956.87 162.9 1953.72 162.9 Q1949.74 162.9 1947.38 160.678 Q1945.04 158.432 1945.04 154.682 Q1945.04 150.307 1947.96 148.085 Q1950.9 145.863 1956.71 145.863 L1962.68 145.863 L1962.68 145.446 Q1962.68 142.507 1960.74 140.909 Q1958.82 139.289 1955.32 139.289 Q1953.1 139.289 1950.99 139.821 Q1948.89 140.354 1946.94 141.419 L1946.94 137.483 Q1949.28 136.581 1951.48 136.141 Q1953.68 135.678 1955.76 135.678 Q1961.39 135.678 1964.16 138.594 Q1966.94 141.511 1966.94 147.437 Z" fill="#000000" fill-rule="nonzero" fill-opacity="1" /><path clip-path="url(#clip270)" d="M1975.71 126.21 L1979.97 126.21 L1979.97 162.229 L1975.71 162.229 L1975.71 126.21 Z" fill="#000000" fill-rule="nonzero" fill-opacity="1" /><path clip-path="url(#clip270)" d="M2018.98 140.284 Q2018.26 139.868 2017.4 139.682 Q2016.57 139.474 2015.55 139.474 Q2011.94 139.474 2010 141.835 Q2008.08 144.173 2008.08 148.571 L2008.08 162.229 L2003.79 162.229 L2003.79 136.303 L2008.08 136.303 L2008.08 140.331 Q2009.42 137.969 2011.57 136.835 Q2013.72 135.678 2016.8 135.678 Q2017.24 135.678 2017.77 135.747 Q2018.31 135.794 2018.96 135.909 L2018.98 140.284 Z" fill="#000000" fill-rule="nonzero" fill-opacity="1" /><path clip-path="url(#clip270)" d="M2044.58 148.201 L2044.58 150.284 L2025 150.284 Q2025.27 154.682 2027.64 156.997 Q2030.02 159.289 2034.26 159.289 Q2036.71 159.289 2039 158.687 Q2041.32 158.085 2043.58 156.881 L2043.58 160.909 Q2041.29 161.881 2038.89 162.391 Q2036.48 162.9 2034 162.9 Q2027.8 162.9 2024.16 159.289 Q2020.55 155.678 2020.55 149.52 Q2020.55 143.155 2023.98 139.428 Q2027.43 135.678 2033.26 135.678 Q2038.49 135.678 2041.52 139.057 Q2044.58 142.414 2044.58 148.201 M2040.32 146.951 Q2040.27 143.456 2038.35 141.372 Q2036.46 139.289 2033.31 139.289 Q2029.74 139.289 2027.59 141.303 Q2025.46 143.317 2025.14 146.974 L2040.32 146.951 Z" fill="#000000" fill-rule="nonzero" fill-opacity="1" /><path clip-path="url(#clip270)" d="M2068.1 137.067 L2068.1 141.094 Q2066.29 140.169 2064.35 139.706 Q2062.4 139.243 2060.32 139.243 Q2057.15 139.243 2055.55 140.215 Q2053.98 141.187 2053.98 143.131 Q2053.98 144.613 2055.11 145.469 Q2056.25 146.303 2059.67 147.067 L2061.13 147.391 Q2065.67 148.363 2067.57 150.145 Q2069.49 151.905 2069.49 155.076 Q2069.49 158.687 2066.62 160.793 Q2063.77 162.9 2058.77 162.9 Q2056.69 162.9 2054.42 162.483 Q2052.17 162.09 2049.67 161.28 L2049.67 156.881 Q2052.03 158.108 2054.33 158.733 Q2056.62 159.335 2058.86 159.335 Q2061.87 159.335 2063.49 158.317 Q2065.11 157.275 2065.11 155.4 Q2065.11 153.664 2063.93 152.738 Q2062.77 151.812 2058.82 150.956 L2057.33 150.608 Q2053.38 149.775 2051.62 148.062 Q2049.86 146.326 2049.86 143.317 Q2049.86 139.659 2052.45 137.669 Q2055.04 135.678 2059.81 135.678 Q2062.17 135.678 2064.26 136.025 Q2066.34 136.372 2068.1 137.067 Z" fill="#000000" fill-rule="nonzero" fill-opacity="1" /><path clip-path="url(#clip270)" d="M2088.05 149.196 Q2082.89 149.196 2080.9 150.377 Q2078.91 151.557 2078.91 154.405 Q2078.91 156.673 2080.39 158.016 Q2081.89 159.335 2084.46 159.335 Q2088.01 159.335 2090.14 156.835 Q2092.29 154.312 2092.29 150.145 L2092.29 149.196 L2088.05 149.196 M2096.55 147.437 L2096.55 162.229 L2092.29 162.229 L2092.29 158.293 Q2090.83 160.655 2088.65 161.789 Q2086.48 162.9 2083.33 162.9 Q2079.35 162.9 2076.99 160.678 Q2074.65 158.432 2074.65 154.682 Q2074.65 150.307 2077.57 148.085 Q2080.51 145.863 2086.32 145.863 L2092.29 145.863 L2092.29 145.446 Q2092.29 142.507 2090.34 140.909 Q2088.42 139.289 2084.93 139.289 Q2082.71 139.289 2080.6 139.821 Q2078.49 140.354 2076.55 141.419 L2076.55 137.483 Q2078.89 136.581 2081.08 136.141 Q2083.28 135.678 2085.37 135.678 Q2090.99 135.678 2093.77 138.594 Q2096.55 141.511 2096.55 147.437 Z" fill="#000000" fill-rule="nonzero" fill-opacity="1" /><path clip-path="url(#clip270)" d="M2125.51 141.28 Q2127.1 138.409 2129.33 137.044 Q2131.55 135.678 2134.56 135.678 Q2138.61 135.678 2140.81 138.525 Q2143.01 141.349 2143.01 146.581 L2143.01 162.229 L2138.72 162.229 L2138.72 146.719 Q2138.72 142.993 2137.4 141.187 Q2136.08 139.382 2133.38 139.382 Q2130.07 139.382 2128.14 141.581 Q2126.22 143.78 2126.22 147.576 L2126.22 162.229 L2121.94 162.229 L2121.94 146.719 Q2121.94 142.969 2120.62 141.187 Q2119.3 139.382 2116.55 139.382 Q2113.28 139.382 2111.36 141.604 Q2109.44 143.803 2109.44 147.576 L2109.44 162.229 L2105.16 162.229 L2105.16 136.303 L2109.44 136.303 L2109.44 140.331 Q2110.9 137.946 2112.94 136.812 Q2114.97 135.678 2117.77 135.678 Q2120.6 135.678 2122.57 137.113 Q2124.56 138.548 2125.51 141.28 Z" fill="#000000" fill-rule="nonzero" fill-opacity="1" /><path clip-path="url(#clip270)" d="M2155.62 158.34 L2155.62 172.09 L2151.34 172.09 L2151.34 136.303 L2155.62 136.303 L2155.62 140.238 Q2156.96 137.923 2159 136.812 Q2161.06 135.678 2163.91 135.678 Q2168.63 135.678 2171.57 139.428 Q2174.53 143.178 2174.53 149.289 Q2174.53 155.4 2171.57 159.15 Q2168.63 162.9 2163.91 162.9 Q2161.06 162.9 2159 161.789 Q2156.96 160.655 2155.62 158.34 M2170.11 149.289 Q2170.11 144.59 2168.17 141.928 Q2166.25 139.243 2162.87 139.243 Q2159.49 139.243 2157.54 141.928 Q2155.62 144.59 2155.62 149.289 Q2155.62 153.988 2157.54 156.673 Q2159.49 159.335 2162.87 159.335 Q2166.25 159.335 2168.17 156.673 Q2170.11 153.988 2170.11 149.289 Z" fill="#000000" fill-rule="nonzero" fill-opacity="1" /><path clip-path="url(#clip270)" d="M2181.59 126.21 L2185.85 126.21 L2185.85 162.229 L2181.59 162.229 L2181.59 126.21 Z" fill="#000000" fill-rule="nonzero" fill-opacity="1" /><path clip-path="url(#clip270)" d="M2194.76 136.303 L2199.02 136.303 L2199.02 162.229 L2194.76 162.229 L2194.76 136.303 M2194.76 126.21 L2199.02 126.21 L2199.02 131.604 L2194.76 131.604 L2194.76 126.21 Z" fill="#000000" fill-rule="nonzero" fill-opacity="1" /><path clip-path="url(#clip270)" d="M2229.49 146.581 L2229.49 162.229 L2225.23 162.229 L2225.23 146.719 Q2225.23 143.039 2223.79 141.21 Q2222.36 139.382 2219.49 139.382 Q2216.04 139.382 2214.05 141.581 Q2212.06 143.78 2212.06 147.576 L2212.06 162.229 L2207.77 162.229 L2207.77 136.303 L2212.06 136.303 L2212.06 140.331 Q2213.58 137.993 2215.64 136.835 Q2217.73 135.678 2220.44 135.678 Q2224.9 135.678 2227.2 138.456 Q2229.49 141.21 2229.49 146.581 Z" fill="#000000" fill-rule="nonzero" fill-opacity="1" /><path clip-path="url(#clip270)" d="M2255.04 148.965 Q2255.04 144.335 2253.12 141.789 Q2251.22 139.243 2247.77 139.243 Q2244.35 139.243 2242.43 141.789 Q2240.53 144.335 2240.53 148.965 Q2240.53 153.571 2242.43 156.118 Q2244.35 158.664 2247.77 158.664 Q2251.22 158.664 2253.12 156.118 Q2255.04 153.571 2255.04 148.965 M2259.3 159.011 Q2259.3 165.631 2256.36 168.849 Q2253.42 172.09 2247.36 172.09 Q2245.11 172.09 2243.12 171.742 Q2241.13 171.418 2239.26 170.724 L2239.26 166.58 Q2241.13 167.599 2242.96 168.085 Q2244.79 168.571 2246.69 168.571 Q2250.88 168.571 2252.96 166.372 Q2255.04 164.196 2255.04 159.775 L2255.04 157.668 Q2253.72 159.96 2251.66 161.094 Q2249.6 162.229 2246.73 162.229 Q2241.96 162.229 2239.05 158.594 Q2236.13 154.96 2236.13 148.965 Q2236.13 142.946 2239.05 139.312 Q2241.96 135.678 2246.73 135.678 Q2249.6 135.678 2251.66 136.812 Q2253.72 137.946 2255.04 140.238 L2255.04 136.303 L2259.3 136.303 L2259.3 159.011 Z" fill="#000000" fill-rule="nonzero" fill-opacity="1" /><polyline clip-path="url(#clip270)" style="stroke:#e26f46; stroke-linecap:round; stroke-linejoin:round; stroke-width:4; stroke-opacity:1; fill:none" points="1549.02,196.789 1689.2,196.789 "/>
<path clip-path="url(#clip270)" d="M1734.81 180.643 L1734.81 185.203 Q1732.15 183.93 1729.79 183.305 Q1727.43 182.68 1725.23 182.68 Q1721.41 182.68 1719.33 184.161 Q1717.27 185.643 1717.27 188.374 Q1717.27 190.666 1718.63 191.847 Q1720.02 193.004 1723.86 193.722 L1726.69 194.3 Q1731.92 195.296 1734.4 197.819 Q1736.9 200.319 1736.9 204.532 Q1736.9 209.555 1733.52 212.147 Q1730.16 214.74 1723.66 214.74 Q1721.2 214.74 1718.42 214.184 Q1715.67 213.629 1712.71 212.541 L1712.71 207.726 Q1715.55 209.323 1718.29 210.133 Q1721.02 210.944 1723.66 210.944 Q1727.66 210.944 1729.84 209.37 Q1732.01 207.796 1732.01 204.879 Q1732.01 202.333 1730.44 200.897 Q1728.89 199.462 1725.32 198.745 L1722.48 198.189 Q1717.24 197.147 1714.91 194.925 Q1712.57 192.703 1712.57 188.745 Q1712.57 184.161 1715.79 181.522 Q1719.03 178.884 1724.7 178.884 Q1727.13 178.884 1729.65 179.323 Q1732.17 179.763 1734.81 180.643 Z" fill="#000000" fill-rule="nonzero" fill-opacity="1" /><path clip-path="url(#clip270)" d="M1748.22 180.782 L1748.22 188.143 L1756.99 188.143 L1756.99 191.453 L1748.22 191.453 L1748.22 205.527 Q1748.22 208.698 1749.07 209.601 Q1749.95 210.504 1752.61 210.504 L1756.99 210.504 L1756.99 214.069 L1752.61 214.069 Q1747.68 214.069 1745.81 212.24 Q1743.93 210.388 1743.93 205.527 L1743.93 191.453 L1740.81 191.453 L1740.81 188.143 L1743.93 188.143 L1743.93 180.782 L1748.22 180.782 Z" fill="#000000" fill-rule="nonzero" fill-opacity="1" /><path clip-path="url(#clip270)" d="M1777.61 192.124 Q1776.9 191.708 1776.04 191.522 Q1775.21 191.314 1774.19 191.314 Q1770.58 191.314 1768.63 193.675 Q1766.71 196.013 1766.71 200.411 L1766.71 214.069 L1762.43 214.069 L1762.43 188.143 L1766.71 188.143 L1766.71 192.171 Q1768.05 189.809 1770.21 188.675 Q1772.36 187.518 1775.44 187.518 Q1775.88 187.518 1776.41 187.587 Q1776.94 187.634 1777.59 187.749 L1777.61 192.124 Z" fill="#000000" fill-rule="nonzero" fill-opacity="1" /><path clip-path="url(#clip270)" d="M1793.86 201.036 Q1788.7 201.036 1786.71 202.217 Q1784.72 203.397 1784.72 206.245 Q1784.72 208.513 1786.2 209.856 Q1787.71 211.175 1790.28 211.175 Q1793.82 211.175 1795.95 208.675 Q1798.1 206.152 1798.1 201.985 L1798.1 201.036 L1793.86 201.036 M1802.36 199.277 L1802.36 214.069 L1798.1 214.069 L1798.1 210.133 Q1796.64 212.495 1794.47 213.629 Q1792.29 214.74 1789.14 214.74 Q1785.16 214.74 1782.8 212.518 Q1780.46 210.272 1780.46 206.522 Q1780.46 202.147 1783.38 199.925 Q1786.32 197.703 1792.13 197.703 L1798.1 197.703 L1798.1 197.286 Q1798.1 194.347 1796.16 192.749 Q1794.23 191.129 1790.74 191.129 Q1788.52 191.129 1786.41 191.661 Q1784.3 192.194 1782.36 193.259 L1782.36 189.323 Q1784.7 188.421 1786.9 187.981 Q1789.1 187.518 1791.18 187.518 Q1796.8 187.518 1799.58 190.434 Q1802.36 193.351 1802.36 199.277 Z" fill="#000000" fill-rule="nonzero" fill-opacity="1" /><path clip-path="url(#clip270)" d="M1815.35 180.782 L1815.35 188.143 L1824.12 188.143 L1824.12 191.453 L1815.35 191.453 L1815.35 205.527 Q1815.35 208.698 1816.2 209.601 Q1817.08 210.504 1819.74 210.504 L1824.12 210.504 L1824.12 214.069 L1819.74 214.069 Q1814.81 214.069 1812.94 212.24 Q1811.06 210.388 1811.06 205.527 L1811.06 191.453 L1807.94 191.453 L1807.94 188.143 L1811.06 188.143 L1811.06 180.782 L1815.35 180.782 Z" fill="#000000" fill-rule="nonzero" fill-opacity="1" /><path clip-path="url(#clip270)" d="M1829.72 188.143 L1833.98 188.143 L1833.98 214.069 L1829.72 214.069 L1829.72 188.143 M1829.72 178.05 L1833.98 178.05 L1833.98 183.444 L1829.72 183.444 L1829.72 178.05 Z" fill="#000000" fill-rule="nonzero" fill-opacity="1" /><path clip-path="url(#clip270)" d="M1856.02 178.05 L1856.02 181.592 L1851.94 181.592 Q1849.65 181.592 1848.75 182.518 Q1847.87 183.444 1847.87 185.851 L1847.87 188.143 L1854.88 188.143 L1854.88 191.453 L1847.87 191.453 L1847.87 214.069 L1843.59 214.069 L1843.59 191.453 L1839.51 191.453 L1839.51 188.143 L1843.59 188.143 L1843.59 186.337 Q1843.59 182.009 1845.6 180.041 Q1847.61 178.05 1851.99 178.05 L1856.02 178.05 Z" fill="#000000" fill-rule="nonzero" fill-opacity="1" /><path clip-path="url(#clip270)" d="M1859.58 188.143 L1863.84 188.143 L1863.84 214.069 L1859.58 214.069 L1859.58 188.143 M1859.58 178.05 L1863.84 178.05 L1863.84 183.444 L1859.58 183.444 L1859.58 178.05 Z" fill="#000000" fill-rule="nonzero" fill-opacity="1" /><path clip-path="url(#clip270)" d="M1894.93 200.041 L1894.93 202.124 L1875.35 202.124 Q1875.62 206.522 1877.98 208.837 Q1880.37 211.129 1884.6 211.129 Q1887.06 211.129 1889.35 210.527 Q1891.66 209.925 1893.93 208.721 L1893.93 212.749 Q1891.64 213.721 1889.23 214.231 Q1886.83 214.74 1884.35 214.74 Q1878.15 214.74 1874.51 211.129 Q1870.9 207.518 1870.9 201.36 Q1870.9 194.995 1874.33 191.268 Q1877.78 187.518 1883.61 187.518 Q1888.84 187.518 1891.87 190.897 Q1894.93 194.254 1894.93 200.041 M1890.67 198.791 Q1890.62 195.296 1888.7 193.212 Q1886.8 191.129 1883.66 191.129 Q1880.09 191.129 1877.94 193.143 Q1875.81 195.157 1875.48 198.814 L1890.67 198.791 Z" fill="#000000" fill-rule="nonzero" fill-opacity="1" /><path clip-path="url(#clip270)" d="M1918.98 192.078 L1918.98 178.05 L1923.24 178.05 L1923.24 214.069 L1918.98 214.069 L1918.98 210.18 Q1917.64 212.495 1915.58 213.629 Q1913.54 214.74 1910.67 214.74 Q1905.97 214.74 1903.01 210.99 Q1900.07 207.24 1900.07 201.129 Q1900.07 195.018 1903.01 191.268 Q1905.97 187.518 1910.67 187.518 Q1913.54 187.518 1915.58 188.652 Q1917.64 189.763 1918.98 192.078 M1904.47 201.129 Q1904.47 205.828 1906.39 208.513 Q1908.33 211.175 1911.71 211.175 Q1915.09 211.175 1917.03 208.513 Q1918.98 205.828 1918.98 201.129 Q1918.98 196.43 1917.03 193.768 Q1915.09 191.083 1911.71 191.083 Q1908.33 191.083 1906.39 193.768 Q1904.47 196.43 1904.47 201.129 Z" fill="#000000" fill-rule="nonzero" fill-opacity="1" /><path clip-path="url(#clip270)" d="M1962.1 192.124 Q1961.39 191.708 1960.53 191.522 Q1959.7 191.314 1958.68 191.314 Q1955.07 191.314 1953.12 193.675 Q1951.2 196.013 1951.2 200.411 L1951.2 214.069 L1946.92 214.069 L1946.92 188.143 L1951.2 188.143 L1951.2 192.171 Q1952.54 189.809 1954.7 188.675 Q1956.85 187.518 1959.93 187.518 Q1960.37 187.518 1960.9 187.587 Q1961.43 187.634 1962.08 187.749 L1962.1 192.124 Z" fill="#000000" fill-rule="nonzero" fill-opacity="1" /><path clip-path="url(#clip270)" d="M1987.71 200.041 L1987.71 202.124 L1968.12 202.124 Q1968.4 206.522 1970.76 208.837 Q1973.15 211.129 1977.38 211.129 Q1979.84 211.129 1982.13 210.527 Q1984.44 209.925 1986.71 208.721 L1986.71 212.749 Q1984.42 213.721 1982.01 214.231 Q1979.6 214.74 1977.13 214.74 Q1970.92 214.74 1967.29 211.129 Q1963.68 207.518 1963.68 201.36 Q1963.68 194.995 1967.1 191.268 Q1970.55 187.518 1976.39 187.518 Q1981.62 187.518 1984.65 190.897 Q1987.71 194.254 1987.71 200.041 M1983.45 198.791 Q1983.4 195.296 1981.48 193.212 Q1979.58 191.129 1976.43 191.129 Q1972.87 191.129 1970.71 193.143 Q1968.59 195.157 1968.26 198.814 L1983.45 198.791 Z" fill="#000000" fill-rule="nonzero" fill-opacity="1" /><path clip-path="url(#clip270)" d="M2011.22 188.907 L2011.22 192.934 Q2009.42 192.009 2007.47 191.546 Q2005.53 191.083 2003.45 191.083 Q2000.27 191.083 1998.68 192.055 Q1997.1 193.027 1997.1 194.971 Q1997.1 196.453 1998.24 197.309 Q1999.37 198.143 2002.8 198.907 L2004.26 199.231 Q2008.79 200.203 2010.69 201.985 Q2012.61 203.745 2012.61 206.916 Q2012.61 210.527 2009.74 212.633 Q2006.9 214.74 2001.9 214.74 Q1999.81 214.74 1997.54 214.323 Q1995.3 213.93 1992.8 213.12 L1992.8 208.721 Q1995.16 209.948 1997.45 210.573 Q1999.74 211.175 2001.99 211.175 Q2005 211.175 2006.62 210.157 Q2008.24 209.115 2008.24 207.24 Q2008.24 205.504 2007.06 204.578 Q2005.9 203.652 2001.94 202.796 L2000.46 202.448 Q1996.5 201.615 1994.74 199.902 Q1992.98 198.166 1992.98 195.157 Q1992.98 191.499 1995.58 189.509 Q1998.17 187.518 2002.94 187.518 Q2005.3 187.518 2007.38 187.865 Q2009.46 188.212 2011.22 188.907 Z" fill="#000000" fill-rule="nonzero" fill-opacity="1" /><path clip-path="url(#clip270)" d="M2031.18 201.036 Q2026.02 201.036 2024.02 202.217 Q2022.03 203.397 2022.03 206.245 Q2022.03 208.513 2023.52 209.856 Q2025.02 211.175 2027.59 211.175 Q2031.13 211.175 2033.26 208.675 Q2035.41 206.152 2035.41 201.985 L2035.41 201.036 L2031.18 201.036 M2039.67 199.277 L2039.67 214.069 L2035.41 214.069 L2035.41 210.133 Q2033.96 212.495 2031.78 213.629 Q2029.6 214.74 2026.46 214.74 Q2022.47 214.74 2020.11 212.518 Q2017.77 210.272 2017.77 206.522 Q2017.77 202.147 2020.69 199.925 Q2023.63 197.703 2029.44 197.703 L2035.41 197.703 L2035.41 197.286 Q2035.41 194.347 2033.47 192.749 Q2031.55 191.129 2028.05 191.129 Q2025.83 191.129 2023.72 191.661 Q2021.62 192.194 2019.67 193.259 L2019.67 189.323 Q2022.01 188.421 2024.21 187.981 Q2026.41 187.518 2028.49 187.518 Q2034.12 187.518 2036.9 190.434 Q2039.67 193.351 2039.67 199.277 Z" fill="#000000" fill-rule="nonzero" fill-opacity="1" /><path clip-path="url(#clip270)" d="M2068.63 193.12 Q2070.23 190.249 2072.45 188.884 Q2074.67 187.518 2077.68 187.518 Q2081.73 187.518 2083.93 190.365 Q2086.13 193.189 2086.13 198.421 L2086.13 214.069 L2081.85 214.069 L2081.85 198.559 Q2081.85 194.833 2080.53 193.027 Q2079.21 191.222 2076.5 191.222 Q2073.19 191.222 2071.27 193.421 Q2069.35 195.62 2069.35 199.416 L2069.35 214.069 L2065.07 214.069 L2065.07 198.559 Q2065.07 194.809 2063.75 193.027 Q2062.43 191.222 2059.67 191.222 Q2056.41 191.222 2054.49 193.444 Q2052.57 195.643 2052.57 199.416 L2052.57 214.069 L2048.28 214.069 L2048.28 188.143 L2052.57 188.143 L2052.57 192.171 Q2054.02 189.786 2056.06 188.652 Q2058.1 187.518 2060.9 187.518 Q2063.72 187.518 2065.69 188.953 Q2067.68 190.388 2068.63 193.12 Z" fill="#000000" fill-rule="nonzero" fill-opacity="1" /><path clip-path="url(#clip270)" d="M2098.75 210.18 L2098.75 223.93 L2094.46 223.93 L2094.46 188.143 L2098.75 188.143 L2098.75 192.078 Q2100.09 189.763 2102.13 188.652 Q2104.19 187.518 2107.03 187.518 Q2111.76 187.518 2114.7 191.268 Q2117.66 195.018 2117.66 201.129 Q2117.66 207.24 2114.7 210.99 Q2111.76 214.74 2107.03 214.74 Q2104.19 214.74 2102.13 213.629 Q2100.09 212.495 2098.75 210.18 M2113.24 201.129 Q2113.24 196.43 2111.29 193.768 Q2109.37 191.083 2105.99 191.083 Q2102.61 191.083 2100.67 193.768 Q2098.75 196.43 2098.75 201.129 Q2098.75 205.828 2100.67 208.513 Q2102.61 211.175 2105.99 211.175 Q2109.37 211.175 2111.29 208.513 Q2113.24 205.828 2113.24 201.129 Z" fill="#000000" fill-rule="nonzero" fill-opacity="1" /><path clip-path="url(#clip270)" d="M2124.72 178.05 L2128.98 178.05 L2128.98 214.069 L2124.72 214.069 L2124.72 178.05 Z" fill="#000000" fill-rule="nonzero" fill-opacity="1" /><path clip-path="url(#clip270)" d="M2137.89 188.143 L2142.15 188.143 L2142.15 214.069 L2137.89 214.069 L2137.89 188.143 M2137.89 178.05 L2142.15 178.05 L2142.15 183.444 L2137.89 183.444 L2137.89 178.05 Z" fill="#000000" fill-rule="nonzero" fill-opacity="1" /><path clip-path="url(#clip270)" d="M2172.61 198.421 L2172.61 214.069 L2168.35 214.069 L2168.35 198.559 Q2168.35 194.879 2166.92 193.05 Q2165.48 191.222 2162.61 191.222 Q2159.16 191.222 2157.17 193.421 Q2155.18 195.62 2155.18 199.416 L2155.18 214.069 L2150.9 214.069 L2150.9 188.143 L2155.18 188.143 L2155.18 192.171 Q2156.71 189.833 2158.77 188.675 Q2160.85 187.518 2163.56 187.518 Q2168.03 187.518 2170.32 190.296 Q2172.61 193.05 2172.61 198.421 Z" fill="#000000" fill-rule="nonzero" fill-opacity="1" /><path clip-path="url(#clip270)" d="M2198.17 200.805 Q2198.17 196.175 2196.25 193.629 Q2194.35 191.083 2190.9 191.083 Q2187.47 191.083 2185.55 193.629 Q2183.65 196.175 2183.65 200.805 Q2183.65 205.411 2185.55 207.958 Q2187.47 210.504 2190.9 210.504 Q2194.35 210.504 2196.25 207.958 Q2198.17 205.411 2198.17 200.805 M2202.43 210.851 Q2202.43 217.471 2199.49 220.689 Q2196.55 223.93 2190.48 223.93 Q2188.24 223.93 2186.25 223.582 Q2184.26 223.258 2182.38 222.564 L2182.38 218.42 Q2184.26 219.439 2186.08 219.925 Q2187.91 220.411 2189.81 220.411 Q2194 220.411 2196.08 218.212 Q2198.17 216.036 2198.17 211.615 L2198.17 209.508 Q2196.85 211.8 2194.79 212.934 Q2192.73 214.069 2189.86 214.069 Q2185.09 214.069 2182.17 210.434 Q2179.26 206.8 2179.26 200.805 Q2179.26 194.786 2182.17 191.152 Q2185.09 187.518 2189.86 187.518 Q2192.73 187.518 2194.79 188.652 Q2196.85 189.786 2198.17 192.078 L2198.17 188.143 L2202.43 188.143 L2202.43 210.851 Z" fill="#000000" fill-rule="nonzero" fill-opacity="1" /></svg>
