<?xml version="1.0" encoding="utf-8"?>
<svg xmlns="http://www.w3.org/2000/svg" xmlns:xlink="http://www.w3.org/1999/xlink" width="600" height="400" viewBox="0 0 2400 1600">
<defs>
  <clipPath id="clip300">
    <rect x="0" y="0" width="2400" height="1600"/>
  </clipPath>
</defs>
<path clip-path="url(#clip300)" d="M0 1600 L2400 1600 L2400 0 L0 0  Z" fill="#ffffff" fill-rule="evenodd" fill-opacity="1"/>
<defs>
  <clipPath id="clip301">
    <rect x="480" y="0" width="1681" height="1600"/>
  </clipPath>
</defs>
<path clip-path="url(#clip300)" d="M250.028 1423.18 L2352.76 1423.18 L2352.76 47.2441 L250.028 47.2441  Z" fill="#ffffff" fill-rule="evenodd" fill-opacity="1"/>
<defs>
  <clipPath id="clip302">
    <rect x="250" y="47" width="2104" height="1377"/>
  </clipPath>
</defs>
<polyline clip-path="url(#clip302)" style="stroke:#000000; stroke-linecap:round; stroke-linejoin:round; stroke-width:2; stroke-opacity:0.1; fill:none" points="307.554,1423.18 307.554,47.2441 "/>
<polyline clip-path="url(#clip302)" style="stroke:#000000; stroke-linecap:round; stroke-linejoin:round; stroke-width:2; stroke-opacity:0.1; fill:none" points="803.976,1423.18 803.976,47.2441 "/>
<polyline clip-path="url(#clip302)" style="stroke:#000000; stroke-linecap:round; stroke-linejoin:round; stroke-width:2; stroke-opacity:0.1; fill:none" points="1300.4,1423.18 1300.4,47.2441 "/>
<polyline clip-path="url(#clip302)" style="stroke:#000000; stroke-linecap:round; stroke-linejoin:round; stroke-width:2; stroke-opacity:0.1; fill:none" points="1796.82,1423.18 1796.82,47.2441 "/>
<polyline clip-path="url(#clip302)" style="stroke:#000000; stroke-linecap:round; stroke-linejoin:round; stroke-width:2; stroke-opacity:0.1; fill:none" points="2293.24,1423.18 2293.24,47.2441 "/>
<polyline clip-path="url(#clip300)" style="stroke:#000000; stroke-linecap:round; stroke-linejoin:round; stroke-width:4; stroke-opacity:1; fill:none" points="250.028,1423.18 2352.76,1423.18 "/>
<polyline clip-path="url(#clip300)" style="stroke:#000000; stroke-linecap:round; stroke-linejoin:round; stroke-width:4; stroke-opacity:1; fill:none" points="307.554,1423.18 307.554,1404.28 "/>
<polyline clip-path="url(#clip300)" style="stroke:#000000; stroke-linecap:round; stroke-linejoin:round; stroke-width:4; stroke-opacity:1; fill:none" points="803.976,1423.18 803.976,1404.28 "/>
<polyline clip-path="url(#clip300)" style="stroke:#000000; stroke-linecap:round; stroke-linejoin:round; stroke-width:4; stroke-opacity:1; fill:none" points="1300.4,1423.18 1300.4,1404.28 "/>
<polyline clip-path="url(#clip300)" style="stroke:#000000; stroke-linecap:round; stroke-linejoin:round; stroke-width:4; stroke-opacity:1; fill:none" points="1796.82,1423.18 1796.82,1404.28 "/>
<polyline clip-path="url(#clip300)" style="stroke:#000000; stroke-linecap:round; stroke-linejoin:round; stroke-width:4; stroke-opacity:1; fill:none" points="2293.24,1423.18 2293.24,1404.28 "/>
<path clip-path="url(#clip300)" d="M307.554 1454.1 Q303.943 1454.1 302.114 1457.66 Q300.308 1461.2 300.308 1468.33 Q300.308 1475.44 302.114 1479.01 Q303.943 1482.55 307.554 1482.55 Q311.188 1482.55 312.993 1479.01 Q314.822 1475.44 314.822 1468.33 Q314.822 1461.2 312.993 1457.66 Q311.188 1454.1 307.554 1454.1 M307.554 1450.39 Q313.364 1450.39 316.419 1455 Q319.498 1459.58 319.498 1468.33 Q319.498 1477.06 316.419 1481.67 Q313.364 1486.25 307.554 1486.25 Q301.743 1486.25 298.665 1481.67 Q295.609 1477.06 295.609 1468.33 Q295.609 1459.58 298.665 1455 Q301.743 1450.39 307.554 1450.39 Z" fill="#000000" fill-rule="nonzero" fill-opacity="1" /><path clip-path="url(#clip300)" d="M767.669 1481.64 L783.988 1481.64 L783.988 1485.58 L762.044 1485.58 L762.044 1481.64 Q764.706 1478.89 769.289 1474.26 Q773.896 1469.61 775.076 1468.27 Q777.321 1465.74 778.201 1464.01 Q779.104 1462.25 779.104 1460.56 Q779.104 1457.8 777.159 1456.07 Q775.238 1454.33 772.136 1454.33 Q769.937 1454.33 767.484 1455.09 Q765.053 1455.86 762.275 1457.41 L762.275 1452.69 Q765.099 1451.55 767.553 1450.97 Q770.007 1450.39 772.044 1450.39 Q777.414 1450.39 780.608 1453.08 Q783.803 1455.77 783.803 1460.26 Q783.803 1462.39 782.993 1464.31 Q782.206 1466.2 780.099 1468.8 Q779.521 1469.47 776.419 1472.69 Q773.317 1475.88 767.669 1481.64 Z" fill="#000000" fill-rule="nonzero" fill-opacity="1" /><path clip-path="url(#clip300)" d="M793.849 1451.02 L812.206 1451.02 L812.206 1454.96 L798.132 1454.96 L798.132 1463.43 Q799.15 1463.08 800.169 1462.92 Q801.187 1462.73 802.206 1462.73 Q807.993 1462.73 811.372 1465.9 Q814.752 1469.08 814.752 1474.49 Q814.752 1480.07 811.28 1483.17 Q807.807 1486.25 801.488 1486.25 Q799.312 1486.25 797.044 1485.88 Q794.798 1485.51 792.391 1484.77 L792.391 1480.07 Q794.474 1481.2 796.696 1481.76 Q798.919 1482.32 801.395 1482.32 Q805.4 1482.32 807.738 1480.21 Q810.076 1478.1 810.076 1474.49 Q810.076 1470.88 807.738 1468.77 Q805.4 1466.67 801.395 1466.67 Q799.52 1466.67 797.645 1467.08 Q795.794 1467.5 793.849 1468.38 L793.849 1451.02 Z" fill="#000000" fill-rule="nonzero" fill-opacity="1" /><path clip-path="url(#clip300)" d="M833.965 1454.1 Q830.354 1454.1 828.525 1457.66 Q826.719 1461.2 826.719 1468.33 Q826.719 1475.44 828.525 1479.01 Q830.354 1482.55 833.965 1482.55 Q837.599 1482.55 839.404 1479.01 Q841.233 1475.44 841.233 1468.33 Q841.233 1461.2 839.404 1457.66 Q837.599 1454.1 833.965 1454.1 M833.965 1450.39 Q839.775 1450.39 842.83 1455 Q845.909 1459.58 845.909 1468.33 Q845.909 1477.06 842.83 1481.67 Q839.775 1486.25 833.965 1486.25 Q828.155 1486.25 825.076 1481.67 Q822.02 1477.06 822.02 1468.33 Q822.02 1459.58 825.076 1455 Q828.155 1450.39 833.965 1450.39 Z" fill="#000000" fill-rule="nonzero" fill-opacity="1" /><path clip-path="url(#clip300)" d="M1260.02 1451.02 L1278.37 1451.02 L1278.37 1454.96 L1264.3 1454.96 L1264.3 1463.43 Q1265.32 1463.08 1266.34 1462.92 Q1267.36 1462.73 1268.37 1462.73 Q1274.16 1462.73 1277.54 1465.9 Q1280.92 1469.08 1280.92 1474.49 Q1280.92 1480.07 1277.45 1483.17 Q1273.98 1486.25 1267.66 1486.25 Q1265.48 1486.25 1263.21 1485.88 Q1260.97 1485.51 1258.56 1484.77 L1258.56 1480.07 Q1260.64 1481.2 1262.86 1481.76 Q1265.09 1482.32 1267.56 1482.32 Q1271.57 1482.32 1273.91 1480.21 Q1276.24 1478.1 1276.24 1474.49 Q1276.24 1470.88 1273.91 1468.77 Q1271.57 1466.67 1267.56 1466.67 Q1265.69 1466.67 1263.81 1467.08 Q1261.96 1467.5 1260.02 1468.38 L1260.02 1451.02 Z" fill="#000000" fill-rule="nonzero" fill-opacity="1" /><path clip-path="url(#clip300)" d="M1300.13 1454.1 Q1296.52 1454.1 1294.69 1457.66 Q1292.89 1461.2 1292.89 1468.33 Q1292.89 1475.44 1294.69 1479.01 Q1296.52 1482.55 1300.13 1482.55 Q1303.77 1482.55 1305.57 1479.01 Q1307.4 1475.44 1307.4 1468.33 Q1307.4 1461.2 1305.57 1457.66 Q1303.77 1454.1 1300.13 1454.1 M1300.13 1450.39 Q1305.94 1450.39 1309 1455 Q1312.08 1459.58 1312.08 1468.33 Q1312.08 1477.06 1309 1481.67 Q1305.94 1486.25 1300.13 1486.25 Q1294.32 1486.25 1291.24 1481.67 Q1288.19 1477.06 1288.19 1468.33 Q1288.19 1459.58 1291.24 1455 Q1294.32 1450.39 1300.13 1450.39 Z" fill="#000000" fill-rule="nonzero" fill-opacity="1" /><path clip-path="url(#clip300)" d="M1330.29 1454.1 Q1326.68 1454.1 1324.86 1457.66 Q1323.05 1461.2 1323.05 1468.33 Q1323.05 1475.44 1324.86 1479.01 Q1326.68 1482.55 1330.29 1482.55 Q1333.93 1482.55 1335.73 1479.01 Q1337.56 1475.44 1337.56 1468.33 Q1337.56 1461.2 1335.73 1457.66 Q1333.93 1454.1 1330.29 1454.1 M1330.29 1450.39 Q1336.11 1450.39 1339.16 1455 Q1342.24 1459.58 1342.24 1468.33 Q1342.24 1477.06 1339.16 1481.67 Q1336.11 1486.25 1330.29 1486.25 Q1324.48 1486.25 1321.41 1481.67 Q1318.35 1477.06 1318.35 1468.33 Q1318.35 1459.58 1321.41 1455 Q1324.48 1450.39 1330.29 1450.39 Z" fill="#000000" fill-rule="nonzero" fill-opacity="1" /><path clip-path="url(#clip300)" d="M1755.1 1451.02 L1777.32 1451.02 L1777.32 1453.01 L1764.77 1485.58 L1759.89 1485.58 L1771.69 1454.96 L1755.1 1454.96 L1755.1 1451.02 Z" fill="#000000" fill-rule="nonzero" fill-opacity="1" /><path clip-path="url(#clip300)" d="M1786.49 1451.02 L1804.84 1451.02 L1804.84 1454.96 L1790.77 1454.96 L1790.77 1463.43 Q1791.79 1463.08 1792.81 1462.92 Q1793.82 1462.73 1794.84 1462.73 Q1800.63 1462.73 1804.01 1465.9 Q1807.39 1469.08 1807.39 1474.49 Q1807.39 1480.07 1803.92 1483.17 Q1800.44 1486.25 1794.13 1486.25 Q1791.95 1486.25 1789.68 1485.88 Q1787.44 1485.51 1785.03 1484.77 L1785.03 1480.07 Q1787.11 1481.2 1789.33 1481.76 Q1791.56 1482.32 1794.03 1482.32 Q1798.04 1482.32 1800.38 1480.21 Q1802.71 1478.1 1802.71 1474.49 Q1802.71 1470.88 1800.38 1468.77 Q1798.04 1466.67 1794.03 1466.67 Q1792.16 1466.67 1790.28 1467.08 Q1788.43 1467.5 1786.49 1468.38 L1786.49 1451.02 Z" fill="#000000" fill-rule="nonzero" fill-opacity="1" /><path clip-path="url(#clip300)" d="M1826.6 1454.1 Q1822.99 1454.1 1821.16 1457.66 Q1819.36 1461.2 1819.36 1468.33 Q1819.36 1475.44 1821.16 1479.01 Q1822.99 1482.55 1826.6 1482.55 Q1830.24 1482.55 1832.04 1479.01 Q1833.87 1475.44 1833.87 1468.33 Q1833.87 1461.2 1832.04 1457.66 Q1830.24 1454.1 1826.6 1454.1 M1826.6 1450.39 Q1832.41 1450.39 1835.47 1455 Q1838.55 1459.58 1838.55 1468.33 Q1838.55 1477.06 1835.47 1481.67 Q1832.41 1486.25 1826.6 1486.25 Q1820.79 1486.25 1817.71 1481.67 Q1814.66 1477.06 1814.66 1468.33 Q1814.66 1459.58 1817.71 1455 Q1820.79 1450.39 1826.6 1450.39 Z" fill="#000000" fill-rule="nonzero" fill-opacity="1" /><path clip-path="url(#clip300)" d="M2237.77 1481.64 L2245.41 1481.64 L2245.41 1455.28 L2237.1 1456.95 L2237.1 1452.69 L2245.36 1451.02 L2250.04 1451.02 L2250.04 1481.64 L2257.68 1481.64 L2257.68 1485.58 L2237.77 1485.58 L2237.77 1481.64 Z" fill="#000000" fill-rule="nonzero" fill-opacity="1" /><path clip-path="url(#clip300)" d="M2277.12 1454.1 Q2273.51 1454.1 2271.68 1457.66 Q2269.88 1461.2 2269.88 1468.33 Q2269.88 1475.44 2271.68 1479.01 Q2273.51 1482.55 2277.12 1482.55 Q2280.76 1482.55 2282.56 1479.01 Q2284.39 1475.44 2284.39 1468.33 Q2284.39 1461.2 2282.56 1457.66 Q2280.76 1454.1 2277.12 1454.1 M2277.12 1450.39 Q2282.93 1450.39 2285.99 1455 Q2289.07 1459.58 2289.07 1468.33 Q2289.07 1477.06 2285.99 1481.67 Q2282.93 1486.25 2277.12 1486.25 Q2271.31 1486.25 2268.23 1481.67 Q2265.18 1477.06 2265.18 1468.33 Q2265.18 1459.58 2268.23 1455 Q2271.31 1450.39 2277.12 1450.39 Z" fill="#000000" fill-rule="nonzero" fill-opacity="1" /><path clip-path="url(#clip300)" d="M2307.28 1454.1 Q2303.67 1454.1 2301.84 1457.66 Q2300.04 1461.2 2300.04 1468.33 Q2300.04 1475.44 2301.84 1479.01 Q2303.67 1482.55 2307.28 1482.55 Q2310.92 1482.55 2312.72 1479.01 Q2314.55 1475.44 2314.55 1468.33 Q2314.55 1461.2 2312.72 1457.66 Q2310.92 1454.1 2307.28 1454.1 M2307.28 1450.39 Q2313.09 1450.39 2316.15 1455 Q2319.23 1459.58 2319.23 1468.33 Q2319.23 1477.06 2316.15 1481.67 Q2313.09 1486.25 2307.28 1486.25 Q2301.47 1486.25 2298.4 1481.67 Q2295.34 1477.06 2295.34 1468.33 Q2295.34 1459.58 2298.4 1455 Q2301.47 1450.39 2307.28 1450.39 Z" fill="#000000" fill-rule="nonzero" fill-opacity="1" /><path clip-path="url(#clip300)" d="M2337.45 1454.1 Q2333.83 1454.1 2332.01 1457.66 Q2330.2 1461.2 2330.2 1468.33 Q2330.2 1475.44 2332.01 1479.01 Q2333.83 1482.55 2337.45 1482.55 Q2341.08 1482.55 2342.89 1479.01 Q2344.71 1475.44 2344.71 1468.33 Q2344.71 1461.2 2342.89 1457.66 Q2341.08 1454.1 2337.45 1454.1 M2337.45 1450.39 Q2343.26 1450.39 2346.31 1455 Q2349.39 1459.58 2349.39 1468.33 Q2349.39 1477.06 2346.31 1481.67 Q2343.26 1486.25 2337.45 1486.25 Q2331.64 1486.25 2328.56 1481.67 Q2325.5 1477.06 2325.5 1468.33 Q2325.5 1459.58 2328.56 1455 Q2331.64 1450.39 2337.45 1450.39 Z" fill="#000000" fill-rule="nonzero" fill-opacity="1" /><path clip-path="url(#clip300)" d="M1223.27 1520.52 L1263.47 1520.52 L1263.47 1525.93 L1246.6 1525.93 L1246.6 1568.04 L1240.14 1568.04 L1240.14 1525.93 L1223.27 1525.93 L1223.27 1520.52 Z" fill="#000000" fill-rule="nonzero" fill-opacity="1" /><path clip-path="url(#clip300)" d="M1267.42 1532.4 L1273.27 1532.4 L1273.27 1568.04 L1267.42 1568.04 L1267.42 1532.4 M1267.42 1518.52 L1273.27 1518.52 L1273.27 1525.93 L1267.42 1525.93 L1267.42 1518.52 Z" fill="#000000" fill-rule="nonzero" fill-opacity="1" /><path clip-path="url(#clip300)" d="M1313.28 1539.24 Q1315.48 1535.29 1318.53 1533.41 Q1321.59 1531.54 1325.72 1531.54 Q1331.29 1531.54 1334.32 1535.45 Q1337.34 1539.33 1337.34 1546.53 L1337.34 1568.04 L1331.45 1568.04 L1331.45 1546.72 Q1331.45 1541.59 1329.64 1539.11 Q1327.83 1536.63 1324.1 1536.63 Q1319.55 1536.63 1316.91 1539.65 Q1314.27 1542.68 1314.27 1547.9 L1314.27 1568.04 L1308.38 1568.04 L1308.38 1546.72 Q1308.38 1541.56 1306.56 1539.11 Q1304.75 1536.63 1300.96 1536.63 Q1296.47 1536.63 1293.83 1539.68 Q1291.19 1542.71 1291.19 1547.9 L1291.19 1568.04 L1285.3 1568.04 L1285.3 1532.4 L1291.19 1532.4 L1291.19 1537.93 Q1293.2 1534.66 1296 1533.1 Q1298.8 1531.54 1302.65 1531.54 Q1306.53 1531.54 1309.24 1533.51 Q1311.98 1535.48 1313.28 1539.24 Z" fill="#000000" fill-rule="nonzero" fill-opacity="1" /><path clip-path="url(#clip300)" d="M1379.52 1548.76 L1379.52 1551.62 L1352.59 1551.62 Q1352.97 1557.67 1356.22 1560.85 Q1359.5 1564 1365.32 1564 Q1368.69 1564 1371.84 1563.17 Q1375.03 1562.35 1378.15 1560.69 L1378.15 1566.23 Q1375 1567.57 1371.69 1568.27 Q1368.38 1568.97 1364.97 1568.97 Q1356.44 1568.97 1351.44 1564 Q1346.48 1559.04 1346.48 1550.57 Q1346.48 1541.82 1351.19 1536.69 Q1355.93 1531.54 1363.95 1531.54 Q1371.14 1531.54 1375.31 1536.18 Q1379.52 1540.8 1379.52 1548.76 M1373.66 1547.04 Q1373.6 1542.23 1370.95 1539.37 Q1368.34 1536.5 1364.01 1536.5 Q1359.11 1536.5 1356.15 1539.27 Q1353.22 1542.04 1352.78 1547.07 L1373.66 1547.04 Z" fill="#000000" fill-rule="nonzero" fill-opacity="1" /><polyline clip-path="url(#clip302)" style="stroke:#000000; stroke-linecap:round; stroke-linejoin:round; stroke-width:2; stroke-opacity:0.1; fill:none" points="250.028,1423.18 2352.76,1423.18 "/>
<polyline clip-path="url(#clip302)" style="stroke:#000000; stroke-linecap:round; stroke-linejoin:round; stroke-width:2; stroke-opacity:0.1; fill:none" points="250.028,1062.17 2352.76,1062.17 "/>
<polyline clip-path="url(#clip302)" style="stroke:#000000; stroke-linecap:round; stroke-linejoin:round; stroke-width:2; stroke-opacity:0.1; fill:none" points="250.028,701.155 2352.76,701.155 "/>
<polyline clip-path="url(#clip302)" style="stroke:#000000; stroke-linecap:round; stroke-linejoin:round; stroke-width:2; stroke-opacity:0.1; fill:none" points="250.028,340.142 2352.76,340.142 "/>
<polyline clip-path="url(#clip300)" style="stroke:#000000; stroke-linecap:round; stroke-linejoin:round; stroke-width:4; stroke-opacity:1; fill:none" points="250.028,1423.18 250.028,47.2441 "/>
<polyline clip-path="url(#clip300)" style="stroke:#000000; stroke-linecap:round; stroke-linejoin:round; stroke-width:4; stroke-opacity:1; fill:none" points="250.028,1423.18 268.926,1423.18 "/>
<polyline clip-path="url(#clip300)" style="stroke:#000000; stroke-linecap:round; stroke-linejoin:round; stroke-width:4; stroke-opacity:1; fill:none" points="250.028,1062.17 268.926,1062.17 "/>
<polyline clip-path="url(#clip300)" style="stroke:#000000; stroke-linecap:round; stroke-linejoin:round; stroke-width:4; stroke-opacity:1; fill:none" points="250.028,701.155 268.926,701.155 "/>
<polyline clip-path="url(#clip300)" style="stroke:#000000; stroke-linecap:round; stroke-linejoin:round; stroke-width:4; stroke-opacity:1; fill:none" points="250.028,340.142 268.926,340.142 "/>
<path clip-path="url(#clip300)" d="M126.691 1408.98 Q123.08 1408.98 121.251 1412.54 Q119.445 1416.08 119.445 1423.21 Q119.445 1430.32 121.251 1433.89 Q123.08 1437.43 126.691 1437.43 Q130.325 1437.43 132.13 1433.89 Q133.959 1430.32 133.959 1423.21 Q133.959 1416.08 132.13 1412.54 Q130.325 1408.98 126.691 1408.98 M126.691 1405.27 Q132.501 1405.27 135.556 1409.88 Q138.635 1414.46 138.635 1423.21 Q138.635 1431.94 135.556 1436.55 Q132.501 1441.13 126.691 1441.13 Q120.88 1441.13 117.802 1436.55 Q114.746 1431.94 114.746 1423.21 Q114.746 1414.46 117.802 1409.88 Q120.88 1405.27 126.691 1405.27 Z" fill="#000000" fill-rule="nonzero" fill-opacity="1" /><path clip-path="url(#clip300)" d="M146.853 1434.58 L151.737 1434.58 L151.737 1440.46 L146.853 1440.46 L146.853 1434.58 Z" fill="#000000" fill-rule="nonzero" fill-opacity="1" /><path clip-path="url(#clip300)" d="M171.922 1408.98 Q168.311 1408.98 166.482 1412.54 Q164.677 1416.08 164.677 1423.21 Q164.677 1430.32 166.482 1433.89 Q168.311 1437.43 171.922 1437.43 Q175.556 1437.43 177.362 1433.89 Q179.19 1430.32 179.19 1423.21 Q179.19 1416.08 177.362 1412.54 Q175.556 1408.98 171.922 1408.98 M171.922 1405.27 Q177.732 1405.27 180.788 1409.88 Q183.866 1414.46 183.866 1423.21 Q183.866 1431.94 180.788 1436.55 Q177.732 1441.13 171.922 1441.13 Q166.112 1441.13 163.033 1436.55 Q159.978 1431.94 159.978 1423.21 Q159.978 1414.46 163.033 1409.88 Q166.112 1405.27 171.922 1405.27 Z" fill="#000000" fill-rule="nonzero" fill-opacity="1" /><path clip-path="url(#clip300)" d="M202.084 1408.98 Q198.473 1408.98 196.644 1412.54 Q194.838 1416.08 194.838 1423.21 Q194.838 1430.32 196.644 1433.89 Q198.473 1437.43 202.084 1437.43 Q205.718 1437.43 207.524 1433.89 Q209.352 1430.32 209.352 1423.21 Q209.352 1416.08 207.524 1412.54 Q205.718 1408.98 202.084 1408.98 M202.084 1405.27 Q207.894 1405.27 210.949 1409.88 Q214.028 1414.46 214.028 1423.21 Q214.028 1431.94 210.949 1436.55 Q207.894 1441.13 202.084 1441.13 Q196.274 1441.13 193.195 1436.55 Q190.139 1431.94 190.139 1423.21 Q190.139 1414.46 193.195 1409.88 Q196.274 1405.27 202.084 1405.27 Z" fill="#000000" fill-rule="nonzero" fill-opacity="1" /><path clip-path="url(#clip300)" d="M128.288 1047.97 Q124.677 1047.97 122.848 1051.53 Q121.043 1055.07 121.043 1062.2 Q121.043 1069.31 122.848 1072.87 Q124.677 1076.41 128.288 1076.41 Q131.922 1076.41 133.728 1072.87 Q135.556 1069.31 135.556 1062.2 Q135.556 1055.07 133.728 1051.53 Q131.922 1047.97 128.288 1047.97 M128.288 1044.26 Q134.098 1044.26 137.154 1048.87 Q140.232 1053.45 140.232 1062.2 Q140.232 1070.93 137.154 1075.54 Q134.098 1080.12 128.288 1080.12 Q122.478 1080.12 119.399 1075.54 Q116.343 1070.93 116.343 1062.2 Q116.343 1053.45 119.399 1048.87 Q122.478 1044.26 128.288 1044.26 Z" fill="#000000" fill-rule="nonzero" fill-opacity="1" /><path clip-path="url(#clip300)" d="M148.45 1073.57 L153.334 1073.57 L153.334 1079.45 L148.45 1079.45 L148.45 1073.57 Z" fill="#000000" fill-rule="nonzero" fill-opacity="1" /><path clip-path="url(#clip300)" d="M173.519 1047.97 Q169.908 1047.97 168.079 1051.53 Q166.274 1055.07 166.274 1062.2 Q166.274 1069.31 168.079 1072.87 Q169.908 1076.41 173.519 1076.41 Q177.153 1076.41 178.959 1072.87 Q180.788 1069.31 180.788 1062.2 Q180.788 1055.07 178.959 1051.53 Q177.153 1047.97 173.519 1047.97 M173.519 1044.26 Q179.329 1044.26 182.385 1048.87 Q185.463 1053.45 185.463 1062.2 Q185.463 1070.93 182.385 1075.54 Q179.329 1080.12 173.519 1080.12 Q167.709 1080.12 164.63 1075.54 Q161.575 1070.93 161.575 1062.2 Q161.575 1053.45 164.63 1048.87 Q167.709 1044.26 173.519 1044.26 Z" fill="#000000" fill-rule="nonzero" fill-opacity="1" /><path clip-path="url(#clip300)" d="M197.709 1075.51 L214.028 1075.51 L214.028 1079.45 L192.084 1079.45 L192.084 1075.51 Q194.746 1072.76 199.329 1068.13 Q203.936 1063.48 205.116 1062.13 Q207.362 1059.61 208.241 1057.87 Q209.144 1056.11 209.144 1054.42 Q209.144 1051.67 207.199 1049.93 Q205.278 1048.2 202.176 1048.2 Q199.977 1048.2 197.524 1048.96 Q195.093 1049.73 192.315 1051.28 L192.315 1046.55 Q195.139 1045.42 197.593 1044.84 Q200.047 1044.26 202.084 1044.26 Q207.454 1044.26 210.649 1046.95 Q213.843 1049.63 213.843 1054.12 Q213.843 1056.25 213.033 1058.17 Q212.246 1060.07 210.139 1062.66 Q209.561 1063.34 206.459 1066.55 Q203.357 1069.75 197.709 1075.51 Z" fill="#000000" fill-rule="nonzero" fill-opacity="1" /><path clip-path="url(#clip300)" d="M126.205 686.953 Q122.593 686.953 120.765 690.518 Q118.959 694.06 118.959 701.189 Q118.959 708.296 120.765 711.861 Q122.593 715.402 126.205 715.402 Q129.839 715.402 131.644 711.861 Q133.473 708.296 133.473 701.189 Q133.473 694.06 131.644 690.518 Q129.839 686.953 126.205 686.953 M126.205 683.25 Q132.015 683.25 135.07 687.856 Q138.149 692.439 138.149 701.189 Q138.149 709.916 135.07 714.523 Q132.015 719.106 126.205 719.106 Q120.394 719.106 117.316 714.523 Q114.26 709.916 114.26 701.189 Q114.26 692.439 117.316 687.856 Q120.394 683.25 126.205 683.25 Z" fill="#000000" fill-rule="nonzero" fill-opacity="1" /><path clip-path="url(#clip300)" d="M146.366 712.555 L151.251 712.555 L151.251 718.435 L146.366 718.435 L146.366 712.555 Z" fill="#000000" fill-rule="nonzero" fill-opacity="1" /><path clip-path="url(#clip300)" d="M171.436 686.953 Q167.825 686.953 165.996 690.518 Q164.19 694.06 164.19 701.189 Q164.19 708.296 165.996 711.861 Q167.825 715.402 171.436 715.402 Q175.07 715.402 176.876 711.861 Q178.704 708.296 178.704 701.189 Q178.704 694.06 176.876 690.518 Q175.07 686.953 171.436 686.953 M171.436 683.25 Q177.246 683.25 180.301 687.856 Q183.38 692.439 183.38 701.189 Q183.38 709.916 180.301 714.523 Q177.246 719.106 171.436 719.106 Q165.626 719.106 162.547 714.523 Q159.491 709.916 159.491 701.189 Q159.491 692.439 162.547 687.856 Q165.626 683.25 171.436 683.25 Z" fill="#000000" fill-rule="nonzero" fill-opacity="1" /><path clip-path="url(#clip300)" d="M204.445 687.949 L192.639 706.398 L204.445 706.398 L204.445 687.949 M203.218 683.875 L209.098 683.875 L209.098 706.398 L214.028 706.398 L214.028 710.287 L209.098 710.287 L209.098 718.435 L204.445 718.435 L204.445 710.287 L188.843 710.287 L188.843 705.773 L203.218 683.875 Z" fill="#000000" fill-rule="nonzero" fill-opacity="1" /><path clip-path="url(#clip300)" d="M126.529 325.941 Q122.918 325.941 121.089 329.505 Q119.283 333.047 119.283 340.177 Q119.283 347.283 121.089 350.848 Q122.918 354.39 126.529 354.39 Q130.163 354.39 131.968 350.848 Q133.797 347.283 133.797 340.177 Q133.797 333.047 131.968 329.505 Q130.163 325.941 126.529 325.941 M126.529 322.237 Q132.339 322.237 135.394 326.843 Q138.473 331.427 138.473 340.177 Q138.473 348.904 135.394 353.51 Q132.339 358.093 126.529 358.093 Q120.718 358.093 117.64 353.51 Q114.584 348.904 114.584 340.177 Q114.584 331.427 117.64 326.843 Q120.718 322.237 126.529 322.237 Z" fill="#000000" fill-rule="nonzero" fill-opacity="1" /><path clip-path="url(#clip300)" d="M146.691 351.542 L151.575 351.542 L151.575 357.422 L146.691 357.422 L146.691 351.542 Z" fill="#000000" fill-rule="nonzero" fill-opacity="1" /><path clip-path="url(#clip300)" d="M171.76 325.941 Q168.149 325.941 166.32 329.505 Q164.515 333.047 164.515 340.177 Q164.515 347.283 166.32 350.848 Q168.149 354.39 171.76 354.39 Q175.394 354.39 177.2 350.848 Q179.028 347.283 179.028 340.177 Q179.028 333.047 177.2 329.505 Q175.394 325.941 171.76 325.941 M171.76 322.237 Q177.57 322.237 180.626 326.843 Q183.704 331.427 183.704 340.177 Q183.704 348.904 180.626 353.51 Q177.57 358.093 171.76 358.093 Q165.95 358.093 162.871 353.51 Q159.815 348.904 159.815 340.177 Q159.815 331.427 162.871 326.843 Q165.95 322.237 171.76 322.237 Z" fill="#000000" fill-rule="nonzero" fill-opacity="1" /><path clip-path="url(#clip300)" d="M202.5 338.279 Q199.352 338.279 197.5 340.431 Q195.672 342.584 195.672 346.334 Q195.672 350.061 197.5 352.237 Q199.352 354.39 202.5 354.39 Q205.649 354.39 207.477 352.237 Q209.329 350.061 209.329 346.334 Q209.329 342.584 207.477 340.431 Q205.649 338.279 202.5 338.279 M211.783 323.626 L211.783 327.885 Q210.024 327.052 208.218 326.612 Q206.436 326.172 204.676 326.172 Q200.047 326.172 197.593 329.297 Q195.163 332.422 194.815 338.742 Q196.181 336.728 198.241 335.663 Q200.301 334.575 202.778 334.575 Q207.987 334.575 210.996 337.746 Q214.028 340.894 214.028 346.334 Q214.028 351.658 210.88 354.876 Q207.732 358.093 202.5 358.093 Q196.505 358.093 193.334 353.51 Q190.163 348.904 190.163 340.177 Q190.163 331.982 194.051 327.121 Q197.94 322.237 204.491 322.237 Q206.25 322.237 208.033 322.584 Q209.838 322.931 211.783 323.626 Z" fill="#000000" fill-rule="nonzero" fill-opacity="1" /><path clip-path="url(#clip300)" d="M16.4842 1117.5 L16.4842 1087.46 L21.895 1087.46 L21.895 1111.08 L35.9632 1111.08 L35.9632 1088.45 L41.3741 1088.45 L41.3741 1111.08 L58.5933 1111.08 L58.5933 1086.89 L64.0042 1086.89 L64.0042 1117.5 L16.4842 1117.5 Z" fill="#000000" fill-rule="nonzero" fill-opacity="1" /><path clip-path="url(#clip300)" d="M14.5426 1062.5 Q21.8632 1066.77 29.0246 1068.84 Q36.186 1070.91 43.5384 1070.91 Q50.8908 1070.91 58.1159 1068.84 Q65.3091 1066.74 72.5979 1062.5 L72.5979 1067.6 Q65.1182 1072.37 57.8931 1074.76 Q50.668 1077.11 43.5384 1077.11 Q36.4406 1077.11 29.2474 1074.76 Q22.0542 1072.4 14.5426 1067.6 L14.5426 1062.5 Z" fill="#000000" fill-rule="nonzero" fill-opacity="1" /><path clip-path="url(#clip300)" d="M16.4842 1050.89 L16.4842 1020.84 L21.895 1020.84 L21.895 1044.46 L35.9632 1044.46 L35.9632 1021.83 L41.3741 1021.83 L41.3741 1044.46 L58.5933 1044.46 L58.5933 1020.27 L64.0042 1020.27 L64.0042 1050.89 L16.4842 1050.89 Z" fill="#000000" fill-rule="nonzero" fill-opacity="1" /><path clip-path="url(#clip300)" d="M29.4065 987.23 L34.9447 987.23 Q33.6716 989.713 33.035 992.387 Q32.3984 995.06 32.3984 997.925 Q32.3984 1002.29 33.7352 1004.48 Q35.072 1006.65 37.7456 1006.65 Q39.7826 1006.65 40.9603 1005.09 Q42.1061 1003.53 43.1565 998.816 L43.6021 996.811 Q44.9389 990.572 47.3897 987.962 Q49.8086 985.321 54.1691 985.321 Q59.1344 985.321 62.0308 989.267 Q64.9272 993.182 64.9272 1000.06 Q64.9272 1002.92 64.3543 1006.04 Q63.8132 1009.13 62.6992 1012.57 L56.6518 1012.57 Q58.3387 1009.32 59.198 1006.17 Q60.0256 1003.02 60.0256 999.93 Q60.0256 995.792 58.6251 993.564 Q57.1929 991.336 54.6147 991.336 Q52.2276 991.336 50.9545 992.959 Q49.6813 994.551 48.5037 999.994 L48.0262 1002.03 Q46.8804 1007.47 44.5251 1009.89 Q42.138 1012.31 38.0002 1012.31 Q32.9713 1012.31 30.2341 1008.75 Q27.4968 1005.18 27.4968 998.625 Q27.4968 995.378 27.9743 992.514 Q28.4517 989.649 29.4065 987.23 Z" fill="#000000" fill-rule="nonzero" fill-opacity="1" /><path clip-path="url(#clip300)" d="M18.2347 970.202 L28.3562 970.202 L28.3562 958.139 L32.9077 958.139 L32.9077 970.202 L52.2594 970.202 Q56.6199 970.202 57.8613 969.024 Q59.1026 967.815 59.1026 964.155 L59.1026 958.139 L64.0042 958.139 L64.0042 964.155 Q64.0042 970.934 61.4897 973.512 Q58.9434 976.09 52.2594 976.09 L32.9077 976.09 L32.9077 980.387 L28.3562 980.387 L28.3562 976.09 L18.2347 976.09 L18.2347 970.202 Z" fill="#000000" fill-rule="nonzero" fill-opacity="1" /><path clip-path="url(#clip300)" d="M28.3562 950.437 L28.3562 944.58 L64.0042 944.58 L64.0042 950.437 L28.3562 950.437 M14.479 950.437 L14.479 944.58 L21.895 944.58 L21.895 950.437 L14.479 950.437 Z" fill="#000000" fill-rule="nonzero" fill-opacity="1" /><path clip-path="url(#clip300)" d="M35.1993 904.572 Q31.2526 902.375 29.3747 899.32 Q27.4968 896.264 27.4968 892.127 Q27.4968 886.557 31.4117 883.533 Q35.2948 880.509 42.4881 880.509 L64.0042 880.509 L64.0042 886.398 L42.679 886.398 Q37.5546 886.398 35.072 888.212 Q32.5894 890.026 32.5894 893.75 Q32.5894 898.301 35.6131 900.943 Q38.6368 903.585 43.8567 903.585 L64.0042 903.585 L64.0042 909.473 L42.679 909.473 Q37.5228 909.473 35.072 911.287 Q32.5894 913.102 32.5894 916.889 Q32.5894 921.377 35.6449 924.019 Q38.6686 926.661 43.8567 926.661 L64.0042 926.661 L64.0042 932.549 L28.3562 932.549 L28.3562 926.661 L33.8944 926.661 Q30.616 924.655 29.0564 921.854 Q27.4968 919.054 27.4968 915.202 Q27.4968 911.319 29.4702 908.614 Q31.4436 905.877 35.1993 904.572 Z" fill="#000000" fill-rule="nonzero" fill-opacity="1" /><path clip-path="url(#clip300)" d="M46.0847 852.627 Q46.0847 859.725 47.7079 862.462 Q49.3312 865.2 53.2461 865.2 Q56.3653 865.2 58.2114 863.163 Q60.0256 861.094 60.0256 857.561 Q60.0256 852.691 56.5881 849.763 Q53.1188 846.803 47.3897 846.803 L46.0847 846.803 L46.0847 852.627 M43.6657 840.946 L64.0042 840.946 L64.0042 846.803 L58.5933 846.803 Q61.8398 848.808 63.3994 851.8 Q64.9272 854.792 64.9272 859.12 Q64.9272 864.595 61.8716 867.841 Q58.7843 871.056 53.6281 871.056 Q47.6125 871.056 44.5569 867.046 Q41.5014 863.004 41.5014 855.015 L41.5014 846.803 L40.9285 846.803 Q36.8862 846.803 34.6901 849.476 Q32.4621 852.118 32.4621 856.924 Q32.4621 859.98 33.1941 862.876 Q33.9262 865.773 35.3903 868.446 L29.9795 868.446 Q28.7381 865.232 28.1334 862.208 Q27.4968 859.184 27.4968 856.32 Q27.4968 848.585 31.5072 844.766 Q35.5176 840.946 43.6657 840.946 Z" fill="#000000" fill-rule="nonzero" fill-opacity="1" /><path clip-path="url(#clip300)" d="M18.2347 823.091 L28.3562 823.091 L28.3562 811.028 L32.9077 811.028 L32.9077 823.091 L52.2594 823.091 Q56.6199 823.091 57.8613 821.913 Q59.1026 820.703 59.1026 817.043 L59.1026 811.028 L64.0042 811.028 L64.0042 817.043 Q64.0042 823.823 61.4897 826.401 Q58.9434 828.979 52.2594 828.979 L32.9077 828.979 L32.9077 833.276 L28.3562 833.276 L28.3562 828.979 L18.2347 828.979 L18.2347 823.091 Z" fill="#000000" fill-rule="nonzero" fill-opacity="1" /><path clip-path="url(#clip300)" d="M44.7161 772.833 L47.5806 772.833 L47.5806 799.76 Q53.6281 799.378 56.8109 796.132 Q59.9619 792.853 59.9619 787.029 Q59.9619 783.655 59.1344 780.504 Q58.3069 777.321 56.6518 774.202 L62.1899 774.202 Q63.5267 777.353 64.227 780.663 Q64.9272 783.973 64.9272 787.379 Q64.9272 795.909 59.9619 800.906 Q54.9967 805.871 46.5303 805.871 Q37.7774 805.871 32.6531 801.161 Q27.4968 796.418 27.4968 788.397 Q27.4968 781.204 32.1438 777.035 Q36.7589 772.833 44.7161 772.833 M42.9973 778.69 Q38.1912 778.753 35.3266 781.395 Q32.4621 784.005 32.4621 788.334 Q32.4621 793.235 35.2312 796.195 Q38.0002 799.124 43.0292 799.569 L42.9973 778.69 Z" fill="#000000" fill-rule="nonzero" fill-opacity="1" /><path clip-path="url(#clip300)" d="M33.7671 739.763 L14.479 739.763 L14.479 733.907 L64.0042 733.907 L64.0042 739.763 L58.657 739.763 Q61.8398 741.61 63.3994 744.442 Q64.9272 747.243 64.9272 751.19 Q64.9272 757.651 59.771 761.725 Q54.6147 765.767 46.212 765.767 Q37.8093 765.767 32.6531 761.725 Q27.4968 757.651 27.4968 751.19 Q27.4968 747.243 29.0564 744.442 Q30.5842 741.61 33.7671 739.763 M46.212 759.72 Q52.6732 759.72 56.3653 757.078 Q60.0256 754.405 60.0256 749.758 Q60.0256 745.111 56.3653 742.437 Q52.6732 739.763 46.212 739.763 Q39.7508 739.763 36.0905 742.437 Q32.3984 745.111 32.3984 749.758 Q32.3984 754.405 36.0905 757.078 Q39.7508 759.72 46.212 759.72 Z" fill="#000000" fill-rule="nonzero" fill-opacity="1" /><path clip-path="url(#clip300)" d="M46.212 697.622 Q52.6732 697.622 56.3653 694.981 Q60.0256 692.307 60.0256 687.66 Q60.0256 683.013 56.3653 680.34 Q52.6732 677.666 46.212 677.666 Q39.7508 677.666 36.0905 680.34 Q32.3984 683.013 32.3984 687.66 Q32.3984 692.307 36.0905 694.981 Q39.7508 697.622 46.212 697.622 M58.657 677.666 Q61.8398 679.512 63.3994 682.345 Q64.9272 685.146 64.9272 689.092 Q64.9272 695.554 59.771 699.628 Q54.6147 703.67 46.212 703.67 Q37.8093 703.67 32.6531 699.628 Q27.4968 695.554 27.4968 689.092 Q27.4968 685.146 29.0564 682.345 Q30.5842 679.512 33.7671 677.666 L28.3562 677.666 L28.3562 671.81 L77.5631 671.81 L77.5631 677.666 L58.657 677.666 Z" fill="#000000" fill-rule="nonzero" fill-opacity="1" /><path clip-path="url(#clip300)" d="M43.5384 641.986 L43.5384 624.831 L48.7583 624.831 L48.7583 641.986 L43.5384 641.986 Z" fill="#000000" fill-rule="nonzero" fill-opacity="1" /><path clip-path="url(#clip300)" d="M16.4842 601.118 L16.4842 560.919 L21.895 560.919 L21.895 577.788 L64.0042 577.788 L64.0042 584.249 L21.895 584.249 L21.895 601.118 L16.4842 601.118 Z" fill="#000000" fill-rule="nonzero" fill-opacity="1" /><path clip-path="url(#clip300)" d="M33.8307 543.891 Q33.2578 544.877 33.0032 546.055 Q32.7167 547.201 32.7167 548.601 Q32.7167 553.567 35.9632 556.24 Q39.1779 558.882 45.2253 558.882 L64.0042 558.882 L64.0042 564.77 L28.3562 564.77 L28.3562 558.882 L33.8944 558.882 Q30.6479 557.036 29.0883 554.076 Q27.4968 551.116 27.4968 546.883 Q27.4968 546.278 27.5923 545.546 Q27.656 544.814 27.8151 543.922 L33.8307 543.891 Z" fill="#000000" fill-rule="nonzero" fill-opacity="1" /><path clip-path="url(#clip300)" d="M49.9359 538.352 L28.3562 538.352 L28.3562 532.496 L49.7131 532.496 Q54.7739 532.496 57.3202 530.523 Q59.8346 528.549 59.8346 524.603 Q59.8346 519.86 56.8109 517.123 Q53.7872 514.354 48.5673 514.354 L28.3562 514.354 L28.3562 508.497 L64.0042 508.497 L64.0042 514.354 L58.5296 514.354 Q61.7762 516.486 63.3676 519.319 Q64.9272 522.12 64.9272 525.844 Q64.9272 531.987 61.1078 535.17 Q57.2883 538.352 49.9359 538.352 M27.4968 523.616 L27.4968 523.616 Z" fill="#000000" fill-rule="nonzero" fill-opacity="1" /><path clip-path="url(#clip300)" d="M44.7161 465.943 L47.5806 465.943 L47.5806 492.87 Q53.6281 492.488 56.8109 489.241 Q59.9619 485.963 59.9619 480.138 Q59.9619 476.764 59.1344 473.613 Q58.3069 470.43 56.6518 467.311 L62.1899 467.311 Q63.5267 470.462 64.227 473.772 Q64.9272 477.083 64.9272 480.488 Q64.9272 489.018 59.9619 494.015 Q54.9967 498.981 46.5303 498.981 Q37.7774 498.981 32.6531 494.27 Q27.4968 489.528 27.4968 481.507 Q27.4968 474.313 32.1438 470.144 Q36.7589 465.943 44.7161 465.943 M42.9973 471.799 Q38.1912 471.863 35.3266 474.504 Q32.4621 477.114 32.4621 481.443 Q32.4621 486.345 35.2312 489.305 Q38.0002 492.233 43.0292 492.679 L42.9973 471.799 Z" fill="#000000" fill-rule="nonzero" fill-opacity="1" /><path clip-path="url(#clip300)" d="M46.212 432.109 Q52.6732 432.109 56.3653 429.467 Q60.0256 426.793 60.0256 422.147 Q60.0256 417.5 56.3653 414.826 Q52.6732 412.152 46.212 412.152 Q39.7508 412.152 36.0905 414.826 Q32.3984 417.5 32.3984 422.147 Q32.3984 426.793 36.0905 429.467 Q39.7508 432.109 46.212 432.109 M58.657 412.152 Q61.8398 413.998 63.3994 416.831 Q64.9272 419.632 64.9272 423.579 Q64.9272 430.04 59.771 434.114 Q54.6147 438.156 46.212 438.156 Q37.8093 438.156 32.6531 434.114 Q27.4968 430.04 27.4968 423.579 Q27.4968 419.632 29.0564 416.831 Q30.5842 413.998 33.7671 412.152 L28.3562 412.152 L28.3562 406.296 L77.5631 406.296 L77.5631 412.152 L58.657 412.152 Z" fill="#000000" fill-rule="nonzero" fill-opacity="1" /><path clip-path="url(#clip300)" d="M14.5426 395.156 L14.5426 390.063 Q22.0542 385.289 29.2474 382.934 Q36.4406 380.547 43.5384 380.547 Q50.668 380.547 57.8931 382.934 Q65.1182 385.289 72.5979 390.063 L72.5979 395.156 Q65.3091 390.923 58.1159 388.854 Q50.8908 386.753 43.5384 386.753 Q36.186 386.753 29.0246 388.854 Q21.8632 390.923 14.5426 395.156 Z" fill="#000000" fill-rule="nonzero" fill-opacity="1" /><path clip-path="url(#clip300)" d="M39.1142 366.415 L39.1142 352.919 L42.7427 352.919 L42.7427 371.953 L39.2416 371.953 Q38.2549 370.871 36.4725 368.866 Q26.7648 357.917 23.7729 357.917 Q21.6722 357.917 20.3991 359.572 Q19.0941 361.227 19.0941 363.932 Q19.0941 365.587 19.667 367.529 Q20.2081 369.47 21.3221 371.762 L17.4072 371.762 Q16.516 369.311 16.0704 367.21 Q15.6248 365.078 15.6248 363.264 Q15.6248 358.649 17.7255 355.88 Q19.8262 353.11 23.2636 353.11 Q27.6878 353.11 36.7271 363.646 Q38.2549 365.428 39.1142 366.415 Z" fill="#000000" fill-rule="nonzero" fill-opacity="1" /><polyline clip-path="url(#clip302)" style="stroke:#009af9; stroke-linecap:round; stroke-linejoin:round; stroke-width:4; stroke-opacity:1; fill:none" points="309.539,1347.51 311.525,148.444 313.511,138.732 315.496,72.834 317.482,47.2441 319.468,187.393 321.453,355.351 323.439,400.486 325.425,538.209 327.411,693.032 329.396,652.873 331.382,720.87 333.368,873.137 335.353,806.693 337.339,791.793 339.325,855.756 341.31,807.168 343.296,829.276 345.282,820.804 347.267,838.936 349.253,813.262 351.239,823.72 353.225,851.878 355.21,840.66 357.196,818.399 359.182,840.721 361.167,827.977 363.153,808.127 365.139,811.219 367.124,839.16 369.11,815.533 371.096,803.888 373.081,765.602 375.067,740.858 377.053,754.648 379.038,746.879 381.024,744.238 383.01,734.044 384.996,723.284 386.981,706.346 388.967,701.026 390.953,701.381 392.938,674.303 394.924,693.639 396.91,695.981 398.895,709.819 400.881,706.575 402.867,710.799 404.852,692.983 406.838,676.714 408.824,673.205 410.81,703.309 412.795,694.296 414.781,692.172 416.767,702.636 418.752,678.716 420.738,666.573 422.724,657.175 424.709,662.556 426.695,645.33 428.681,648.061 430.666,633.119 432.652,640.516 434.638,630.338 436.624,632.312 438.609,619.559 440.595,607.979 442.581,605.172 444.566,610.643 446.552,618.13 448.538,610.354 450.523,601.284 452.509,588.858 454.495,589.509 456.48,581.825 458.466,572.658 460.452,575.283 462.438,571.371 464.423,581.627 466.409,590.058 468.395,573.987 470.38,574.95 472.366,586.604 474.352,587.465 476.337,594.99 478.323,592.499 480.309,605.185 482.294,622.3 484.28,618.159 486.266,618.57 488.252,629.235 490.237,621.985 492.223,614.598 494.209,630.76 496.194,640.431 498.18,643.141 500.166,623.363 502.151,629.003 504.137,633.439 506.123,619.988 508.108,623.825 510.094,621.469 512.08,631.719 514.065,625.727 516.051,628.228 518.037,624.44 520.023,620.495 522.008,613.036 523.994,610.496 525.98,619.735 527.965,614.308 529.951,614.997 531.937,615.826 533.922,611.972 535.908,604.69 537.894,602.904 539.879,600.325 541.865,601.85 543.851,586.161 545.837,592.438 547.822,601.857 549.808,609.481 551.794,604.354 553.779,611.235 555.765,602.387 557.751,609.593 559.736,603.36 561.722,596.999 563.708,603.258 565.693,595.521 567.679,602.851 569.665,602.502 571.651,598.984 573.636,601.104 575.622,607.512 577.608,606.199 579.593,620.023 581.579,638.528 583.565,628.938 585.55,643.978 587.536,650.944 589.522,638.147 591.507,636.317 593.493,640.657 595.479,650.203 597.465,644.467 599.45,654.365 601.436,659.006 603.422,674.634 605.407,664.111 607.393,665.384 609.379,669.381 611.364,662.432 613.35,665.327 615.336,658.671 617.321,659.621 619.307,663.812 621.293,672.329 623.279,674.382 625.264,676.972 627.25,678.011 629.236,677.256 631.221,671.746 633.207,663.795 635.193,671.222 637.178,677.751 639.164,679.063 641.15,695.094 643.135,692.268 645.121,687.901 647.107,697.925 649.092,699.056 651.078,698.305 653.064,713.241 655.05,715.71 657.035,714.409 659.021,722.098 661.007,715.278 662.992,720.062 664.978,720.435 666.964,730.763 668.949,733.111 670.935,739.17 672.921,735.595 674.906,737.288 676.892,745.456 678.878,743.575 680.864,736.197 682.849,730.649 684.835,723.97 686.821,724.185 688.806,728.784 690.792,726.668 692.778,726.198 694.763,724.243 696.749,719.489 698.735,723.157 700.72,727.156 702.706,727.737 704.692,729.269 706.678,723.321 708.663,717.838 710.649,709.81 712.635,706.123 714.62,708.058 716.606,706.82 718.592,705.415 720.577,705.856 722.563,701.964 724.549,703.736 726.534,724.383 728.52,725.236 730.506,722.937 732.492,736.559 734.477,732.29 736.463,730.593 738.449,726.037 740.434,725.034 742.42,719.772 744.406,727.561 746.391,733.033 748.377,737.189 750.363,747.797 752.348,748.872 754.334,748.6 756.32,748.804 758.305,752.002 760.291,754.242 762.277,760.81 764.263,760.481 766.248,755.599 768.234,757.933 770.22,751.302 772.205,750.886 774.191,773.446 776.177,773.125 778.162,772.57 780.148,778.911 782.134,777.026 784.119,773.576 786.105,774.635 788.091,767.048 790.077,781.193 792.062,790.849 794.048,791.248 796.034,792.799 798.019,800.545 800.005,798.161 801.991,801.174 803.976,810.04 805.962,802.689 807.948,796.328 809.933,791 811.919,795.816 813.905,799.145 815.891,799.684 817.876,793.335 819.862,787.169 821.848,788.908 823.833,794.425 825.819,792.843 827.805,793.774 829.79,788.326 831.776,786.716 833.762,781.594 835.747,771.535 837.733,785.542 839.719,783.448 841.705,786.299 843.69,789.375 845.676,787.276 847.662,794.125 849.647,795.986 851.633,806.359 853.619,806.587 855.604,812.225 857.59,806.505 859.576,804.143 861.561,810.745 863.547,816.627 865.533,821.439 867.519,825.091 869.504,819.062 871.49,833.07 873.476,831.812 875.461,837.477 877.447,838.12 879.433,840.697 881.418,837.822 883.404,842.175 885.39,842.791 887.375,845.334 889.361,837.119 891.347,837.59 893.332,830.069 895.318,843.453 897.304,848.287 899.29,851.287 901.275,850.264 903.261,857.126 905.247,848.882 907.232,841.335 909.218,840.118 911.204,839.112 913.189,837.609 915.175,831.999 917.161,822.141 919.146,815.832 921.132,809.589 923.118,805.897 925.104,826.438 927.089,829.774 929.075,842.557 931.061,846.528 933.046,849.334 935.032,851.482 937.018,849.103 939.003,852.477 940.989,846.039 942.975,851.56 944.96,842.736 946.946,852.822 948.932,850.005 950.918,854.433 952.903,860.567 954.889,860.992 956.875,868.148 958.86,862.589 960.846,863.345 962.832,867.659 964.817,877.334 966.803,877.471 968.789,874.28 970.774,870.823 972.76,872.289 974.746,873.245 976.732,883.822 978.717,886.886 980.703,894.193 982.689,884.946 984.674,879.777 986.66,880.505 988.646,882.893 990.631,880.259 992.617,880.956 994.603,889.798 996.588,888.977 998.574,887.413 1000.56,888.461 1002.55,888.629 1004.53,898.724 1006.52,901.631 1008.5,903.457 1010.49,903.698 1012.47,902.691 1014.46,899.714 1016.45,895.174 1018.43,889.268 1020.42,891.358 1022.4,900.334 1024.39,905.584 1026.37,900.872 1028.36,900.785 1030.35,904.695 1032.33,905.219 1034.32,904.676 1036.3,912.555 1038.29,921.38 1040.27,918.813 1042.26,921.349 1044.25,921.58 1046.23,920.609 1048.22,919.935 1050.2,923.085 1052.19,928.642 1054.17,928.973 1056.16,926.915 1058.14,927.931 1060.13,924.63 1062.12,931.199 1064.1,933.977 1066.09,937.194 1068.07,940.115 1070.06,941.081 1072.04,944.03 1074.03,944.674 1076.02,952.74 1078,950.818 1079.99,959.945 1081.97,967.418 1083.96,966.794 1085.94,970.005 1087.93,966.765 1089.92,969.106 1091.9,972.375 1093.89,971.234 1095.87,964.466 1097.86,967.253 1099.84,967.748 1101.83,970.339 1103.82,965.596 1105.8,960.548 1107.79,957.027 1109.77,957.205 1111.76,957.863 1113.74,954.713 1115.73,953.216 1117.72,951.095 1119.7,958.539 1121.69,952.74 1123.67,947.107 1125.66,945.718 1127.64,947.931 1129.63,946.801 1131.62,949.403 1133.6,954.766 1135.59,947.938 1137.57,942.011 1139.56,938.852 1141.54,935.961 1143.53,945.289 1145.52,943.124 1147.5,942.946 1149.49,940.448 1151.47,946.739 1153.46,945.573 1155.44,952.257 1157.43,945.595 1159.42,948.817 1161.4,942.388 1163.39,943.021 1165.37,952.447 1167.36,952.415 1169.34,954.047 1171.33,954.358 1173.31,955.779 1175.3,961.811 1177.29,966.037 1179.27,978.555 1181.26,978.794 1183.24,990.976 1185.23,994.082 1187.21,1002.63 1189.2,1008.78 1191.19,1006.22 1193.17,1004.26 1195.16,1000.05 1197.14,998.496 1199.13,999.818 1201.11,997.856 1203.1,1008.84 1205.09,1017.61 1207.07,1015 1209.06,1019.71 1211.04,1017.01 1213.03,1021.15 1215.01,1019.12 1217,1015.05 1218.99,1023.21 1220.97,1026 1222.96,1019.56 1224.94,1016.88 1226.93,1020.45 1228.91,1023.06 1230.9,1017.24 1232.89,1029.85 1234.87,1030.17 1236.86,1030.55 1238.84,1032.43 1240.83,1032.51 1242.81,1031.28 1244.8,1025.47 1246.79,1025.52 1248.77,1024.87 1250.76,1020.09 1252.74,1020.13 1254.73,1022.52 1256.71,1020.14 1258.7,1018.01 1260.69,1012.33 1262.67,1008.97 1264.66,1011.68 1266.64,1011.05 1268.63,1011.88 1270.61,1013.51 1272.6,1014.95 1274.59,1016.52 1276.57,1017.93 1278.56,1007.38 1280.54,1006.94 1282.53,1013.92 1284.51,1017.78 1286.5,1017.96 1288.49,1017.99 1290.47,1023.7 1292.46,1019.35 1294.44,1023.22 1296.43,1026.84 1298.41,1031.85 1300.4,1025.22 1302.38,1025.23 1304.37,1021.02 1306.36,1026.74 1308.34,1027.13 1310.33,1031.29 1312.31,1024.65 1314.3,1022.98 1316.28,1020.93 1318.27,1020.73 1320.26,1030.15 1322.24,1035.31 1324.23,1034.09 1326.21,1026.62 1328.2,1027.01 1330.18,1031.15 1332.17,1036.75 1334.16,1033.6 1336.14,1035.7 1338.13,1034.5 1340.11,1034.27 1342.1,1038.4 1344.08,1033.52 1346.07,1037.28 1348.06,1041.19 1350.04,1045.05 1352.03,1040.97 1354.01,1046.82 1356,1050.04 1357.98,1053.23 1359.97,1056.77 1361.96,1056.7 1363.94,1057.73 1365.93,1059.19 1367.91,1055.97 1369.9,1053.62 1371.88,1058.85 1373.87,1060.2 1375.86,1065.55 1377.84,1063.58 1379.83,1063.33 1381.81,1069.31 1383.8,1068.71 1385.78,1071.54 1387.77,1072.84 1389.76,1068.14 1391.74,1067.38 1393.73,1075.43 1395.71,1079.87 1397.7,1080.32 1399.68,1081.94 1401.67,1078.33 1403.66,1076.57 1405.64,1075.4 1407.63,1078.98 1409.61,1079.35 1411.6,1075.6 1413.58,1080.21 1415.57,1078.49 1417.55,1075.66 1419.54,1072.78 1421.53,1072.1 1423.51,1074.22 1425.5,1075.9 1427.48,1068.99 1429.47,1073.79 1431.45,1068.02 1433.44,1064.84 1435.43,1073.7 1437.41,1073.73 1439.4,1075.45 1441.38,1077.82 1443.37,1077.17 1445.35,1070.3 1447.34,1069.7 1449.33,1066.33 1451.31,1075.92 1453.3,1077.19 1455.28,1078.94 1457.27,1080.39 1459.25,1082.15 1461.24,1089.31 1463.23,1099.4 1465.21,1106.11 1467.2,1108.46 1469.18,1112.98 1471.17,1111.22 1473.15,1108.49 1475.14,1111.21 1477.13,1108.96 1479.11,1111.09 1481.1,1112.3 1483.08,1111.41 1485.07,1112.9 1487.05,1111.78 1489.04,1111.67 1491.03,1110.72 1493.01,1109.09 1495,1111.57 1496.98,1112.98 1498.97,1114.72 1500.95,1116.13 1502.94,1110.47 1504.93,1113.96 1506.91,1115.12 1508.9,1115.69 1510.88,1114.7 1512.87,1113.08 1514.85,1110.17 1516.84,1111.22 1518.83,1108.71 1520.81,1113.26 1522.8,1112.84 1524.78,1113.85 1526.77,1113.31 1528.75,1120.22 1530.74,1122.64 1532.73,1122.4 1534.71,1119.58 1536.7,1119.25 1538.68,1119.85 1540.67,1129.19 1542.65,1129.48 1544.64,1135.17 1546.62,1136.69 1548.61,1140.69 1550.6,1142.47 1552.58,1148.91 1554.57,1149.79 1556.55,1146.18 1558.54,1145.6 1560.52,1144.99 1562.51,1144.88 1564.5,1142.64 1566.48,1139.69 1568.47,1140 1570.45,1144.55 1572.44,1143.97 1574.42,1138.65 1576.41,1141.15 1578.4,1141.78 1580.38,1143.2 1582.37,1142.23 1584.35,1144.94 1586.34,1147.19 1588.32,1148.07 1590.31,1151.44 1592.3,1149.87 1594.28,1152.38 1596.27,1158.49 1598.25,1163.71 1600.24,1161.01 1602.22,1159.58 1604.21,1158.41 1606.2,1150.81 1608.18,1149.57 1610.17,1149.62 1612.15,1148.12 1614.14,1143.09 1616.12,1140.76 1618.11,1139.59 1620.1,1141.35 1622.08,1140.43 1624.07,1142.01 1626.05,1143.84 1628.04,1147.53 1630.02,1149.08 1632.01,1149.03 1634,1149.52 1635.98,1152.58 1637.97,1154.49 1639.95,1150.23 1641.94,1151.26 1643.92,1150.55 1645.91,1141.89 1647.9,1141.19 1649.88,1142.8 1651.87,1139.12 1653.85,1137.11 1655.84,1138.68 1657.82,1138.49 1659.81,1133.98 1661.79,1130.88 1663.78,1128.85 1665.77,1129.18 1667.75,1137.81 1669.74,1141.62 1671.72,1139.77 1673.71,1143.1 1675.69,1143.65 1677.68,1145.68 1679.67,1146.44 1681.65,1152.05 1683.64,1158.42 1685.62,1162.81 1687.61,1164.67 1689.59,1160.57 1691.58,1157.69 1693.57,1159.9 1695.55,1153.66 1697.54,1156.39 1699.52,1160.06 1701.51,1157.86 1703.49,1159.78 1705.48,1160.03 1707.47,1161.49 1709.45,1156.88 1711.44,1154.88 1713.42,1153.08 1715.41,1152.1 1717.39,1152.31 1719.38,1149.25 1721.37,1151.36 1723.35,1149.24 1725.34,1151.39 1727.32,1150.43 1729.31,1148.34 1731.29,1158.42 1733.28,1158.71 1735.27,1159.29 1737.25,1158.46 1739.24,1156.89 1741.22,1152.03 1743.21,1155.56 1745.19,1157.22 1747.18,1154.62 1749.17,1154.97 1751.15,1162.51 1753.14,1156.93 1755.12,1157.49 1757.11,1157.1 1759.09,1153.36 1761.08,1150.21 1763.07,1148.46 1765.05,1149.75 1767.04,1155.39 1769.02,1158.11 1771.01,1155.47 1772.99,1151.55 1774.98,1155.87 1776.97,1156.72 1778.95,1160.46 1780.94,1162.49 1782.92,1163.46 1784.91,1169.06 1786.89,1169.97 1788.88,1175.06 1790.86,1175.85 1792.85,1179.9 1794.84,1175.65 1796.82,1172.91 1798.81,1170.05 1800.79,1176.48 1802.78,1176.98 1804.76,1180.04 1806.75,1176.01 1808.74,1174.19 1810.72,1176.42 1812.71,1184.54 1814.69,1180.41 1816.68,1189.31 1818.66,1188.15 1820.65,1187 1822.64,1189.64 1824.62,1187.66 1826.61,1191.33 1828.59,1193.04 1830.58,1194.93 1832.56,1196.94 1834.55,1195.9 1836.54,1192.46 1838.52,1189.58 1840.51,1190.97 1842.49,1189.17 1844.48,1187.72 1846.46,1190.57 1848.45,1189.77 1850.44,1190.89 1852.42,1186.39 1854.41,1189.57 1856.39,1189.91 1858.38,1189.01 1860.36,1189.16 1862.35,1193.96 1864.34,1198.52 1866.32,1197.44 1868.31,1195.13 1870.29,1195.03 1872.28,1192.95 1874.26,1191.52 1876.25,1195.05 1878.24,1193.39 1880.22,1191.93 1882.21,1191.09 1884.19,1192.86 1886.18,1190.35 1888.16,1187.56 1890.15,1184.93 1892.14,1184.23 1894.12,1184.23 1896.11,1183.68 1898.09,1183.14 1900.08,1183.53 1902.06,1180.93 1904.05,1179.17 1906.03,1176.8 1908.02,1178.11 1910.01,1178.33 1911.99,1179.16 1913.98,1178.95 1915.96,1178.12 1917.95,1176.03 1919.93,1177.52 1921.92,1177.8 1923.91,1181.52 1925.89,1186.37 1927.88,1183.07 1929.86,1182.25 1931.85,1187.7 1933.83,1183.94 1935.82,1183.27 1937.81,1196.03 1939.79,1193.92 1941.78,1191.47 1943.76,1198.92 1945.75,1216.63 1947.73,1216.2 1949.72,1218.16 1951.71,1221.02 1953.69,1220.25 1955.68,1222.67 1957.66,1223.63 1959.65,1223.34 1961.63,1228.34 1963.62,1227.34 1965.61,1231 1967.59,1233.44 1969.58,1235.08 1971.56,1231.15 1973.55,1233.48 1975.53,1241.46 1977.52,1242.15 1979.51,1237.53 1981.49,1239.86 1983.48,1240.66 1985.46,1241.45 1987.45,1241.26 1989.43,1247.19 1991.42,1244.44 1993.41,1242.29 1995.39,1248.25 1997.38,1249.38 1999.36,1247.83 2001.35,1246.6 2003.33,1247.56 2005.32,1248.7 2007.31,1247.95 2009.29,1246.42 2011.28,1248.25 2013.26,1249.41 2015.25,1246.84 2017.23,1245.95 2019.22,1246.74 2021.21,1245.5 2023.19,1244.91 2025.18,1245 2027.16,1241.84 2029.15,1246.64 2031.13,1243.77 2033.12,1240.9 2035.1,1240.26 2037.09,1240.58 2039.08,1241.14 2041.06,1240.62 2043.05,1244.8 2045.03,1243.62 2047.02,1239.49 2049,1240.87 2050.99,1240.72 2052.98,1239.61 2054.96,1237.49 2056.95,1235.42 2058.93,1235.84 2060.92,1245.81 2062.9,1247.99 2064.89,1246.14 2066.88,1245.44 2068.86,1243.44 2070.85,1250.29 2072.83,1245.89 2074.82,1248.96 2076.8,1251.22 2078.79,1257.74 2080.78,1256.21 2082.76,1258.07 2084.75,1261.58 2086.73,1261.38 2088.72,1262.49 2090.7,1262.87 2092.69,1260.48 2094.68,1259.55 2096.66,1260.43 2098.65,1259.07 2100.63,1259.18 2102.62,1259.16 2104.6,1258.55 2106.59,1260.97 2108.58,1265.18 2110.56,1267.18 2112.55,1267.62 2114.53,1267.8 2116.52,1272.39 2118.5,1273.73 2120.49,1273.33 2122.48,1274.21 2124.46,1273.65 2126.45,1277.56 2128.43,1281.55 2130.42,1279.38 2132.4,1280 2134.39,1292.35 2136.38,1291.6 2138.36,1292.64 2140.35,1297.93 2142.33,1291.42 2144.32,1290.45 2146.3,1287.4 2148.29,1283.51 2150.27,1286.1 2152.26,1288.1 2154.25,1292.78 2156.23,1291.94 2158.22,1288.93 2160.2,1289.45 2162.19,1291.48 2164.17,1297.89 2166.16,1298.19 2168.15,1303.06 2170.13,1303.24 2172.12,1303.93 2174.1,1303.13 2176.09,1302.38 2178.07,1304.46 2180.06,1305.77 2182.05,1313.28 2184.03,1314.03 2186.02,1317.97 2188,1316.66 2189.99,1316.41 2191.97,1316.5 2193.96,1313.57 2195.95,1316.15 2197.93,1317.72 2199.92,1319.56 2201.9,1318.25 2203.89,1326.96 2205.87,1323.31 2207.86,1325.81 2209.85,1326.16 2211.83,1327.71 2213.82,1324.17 2215.8,1323.81 2217.79,1326.63 2219.77,1327.03 2221.76,1327.5 2223.75,1328.21 2225.73,1328.64 2227.72,1329.5 2229.7,1328.56 2231.69,1329.71 2233.67,1332.66 2235.66,1333.37 2237.65,1336.59 2239.63,1339.79 2241.62,1339.98 2243.6,1338.52 2245.59,1337.53 2247.57,1337.87 2249.56,1336.71 2251.55,1336.18 2253.53,1335.31 2255.52,1336.61 2257.5,1337.21 2259.49,1337.75 2261.47,1337.95 2263.46,1339.23 2265.45,1337.4 2267.43,1338.44 2269.42,1339.47 2271.4,1340.43 2273.39,1343.48 2275.37,1344.9 2277.36,1348.93 2279.34,1353.71 2281.33,1351.96 2283.32,1351.95 2285.3,1354.04 2287.29,1352.57 2289.27,1352.39 2291.26,1352.83 2293.24,1352.16 "/>
<polyline clip-path="url(#clip302)" style="stroke:#e26f46; stroke-linecap:round; stroke-linejoin:round; stroke-width:4; stroke-opacity:1; fill:none" points="309.539,1419.39 311.525,70.9033 313.511,66.9599 315.496,145.745 317.482,220.584 319.468,271.157 321.453,454.449 323.439,619.064 325.425,721.362 327.411,854.953 329.396,831.499 331.382,829.777 333.368,839.664 335.353,855.272 337.339,830.105 339.325,787.88 341.31,760.367 343.296,768.754 345.282,761.016 347.267,762.605 349.253,894.561 351.239,827.594 353.225,800.947 355.21,757.568 357.196,807.204 359.182,812.908 361.167,809.312 363.153,782.693 365.139,735.127 367.124,762.432 369.11,756.244 371.096,744.466 373.081,753.857 375.067,754.89 377.053,735.877 379.038,757.265 381.024,743.774 383.01,728.217 384.996,733.539 386.981,752.452 388.967,755.867 390.953,738.759 392.938,746.958 394.924,741.406 396.91,782.202 398.895,786.604 400.881,795.855 402.867,791.689 404.852,778.801 406.838,779.792 408.824,772.516 410.81,756.703 412.795,755.199 414.781,757.3 416.767,758.295 418.752,753.094 420.738,756.423 422.724,749.593 424.709,752.344 426.695,739.185 428.681,739.456 430.666,741.278 432.652,761.484 434.638,746.651 436.624,745.851 438.609,724.347 440.595,719.959 442.581,697.982 444.566,703.867 446.552,698.972 448.538,687.183 450.523,702.607 452.509,704.816 454.495,701.046 456.48,687.699 458.466,709.809 460.452,718.205 462.438,715.016 464.423,710.319 466.409,704.929 468.395,714.712 470.38,715.288 472.366,726.969 474.352,728.025 476.337,737.968 478.323,729.444 480.309,728.467 482.294,722.782 484.28,738.563 486.266,739.184 488.252,730.317 490.237,733.696 492.223,720.946 494.209,720.385 496.194,722.963 498.18,726.054 500.166,730.015 502.151,716.881 504.137,716.773 506.123,721.571 508.108,708.042 510.094,726.369 512.08,717.546 514.065,749.002 516.051,748.313 518.037,755.604 520.023,776.85 522.008,774.76 523.994,784.653 525.98,775.665 527.965,781.211 529.951,791.256 531.937,799.695 533.922,776.24 535.908,785.171 537.894,791.682 539.879,794.708 541.865,801.714 543.851,805.349 545.837,811.87 547.822,831.42 549.808,840.044 551.794,854.032 553.779,853.813 555.765,855.934 557.751,863.25 559.736,866.156 561.722,858.816 563.708,863.468 565.693,863.245 567.679,868.855 569.665,863.561 571.651,865.443 573.636,852.317 575.622,859.221 577.608,863.343 579.593,863.889 581.579,855.075 583.565,856.743 585.55,858.199 587.536,851.98 589.522,847.991 591.507,837.899 593.493,839.63 595.479,846.986 597.465,845.856 599.45,858.238 601.436,852.792 603.422,858.959 605.407,850.46 607.393,858.773 609.379,852.657 611.364,851.48 613.35,860.954 615.336,880.327 617.321,875.726 619.307,868.599 621.293,862.427 623.279,870.39 625.264,877.161 627.25,890.598 629.236,885.4 631.221,892.455 633.207,887.765 635.193,893.312 637.178,893.363 639.164,889.995 641.15,887.107 643.135,897.277 645.121,915.367 647.107,915.199 649.092,915.908 651.078,914.547 653.064,917.847 655.05,913.893 657.035,911.552 659.021,907.051 661.007,926.369 662.992,931.739 664.978,928.148 666.964,927.993 668.949,932.869 670.935,933.483 672.921,932.907 674.906,929.536 676.892,942.19 678.878,944.257 680.864,955.003 682.849,955.38 684.835,957.552 686.821,975.871 688.806,965.993 690.792,964.947 692.778,968.288 694.763,978.988 696.749,977.119 698.735,980.077 700.72,979.151 702.706,973.98 704.692,970.174 706.678,972.195 708.663,982.713 710.649,988.52 712.635,992.351 714.62,1004.14 716.606,1002.91 718.592,1000.12 720.577,1001.31 722.563,1004.75 724.549,1010.04 726.534,1002.7 728.52,1005.18 730.506,1007.54 732.492,1002.93 734.477,1005.22 736.463,1002.33 738.449,1011.7 740.434,1023.92 742.42,1031.68 744.406,1050.96 746.391,1054.41 748.377,1060.16 750.363,1064.91 752.348,1064.96 754.334,1063.17 756.32,1065.17 758.305,1066.1 760.291,1062.83 762.277,1062.21 764.263,1064.45 766.248,1065.22 768.234,1062.91 770.22,1058.93 772.205,1060.2 774.191,1060.51 776.177,1057.58 778.162,1056.16 780.148,1056.17 782.134,1064.74 784.119,1059.14 786.105,1061.49 788.091,1058.08 790.077,1056.96 792.062,1058.79 794.048,1058.03 796.034,1060.2 798.019,1058.66 800.005,1059.14 801.991,1058.02 803.976,1065.02 805.962,1064.82 807.948,1065.87 809.933,1063.84 811.919,1062.58 813.905,1062.22 815.891,1066.3 817.876,1066.37 819.862,1072.79 821.848,1076.34 823.833,1087.11 825.819,1090.34 827.805,1091.41 829.79,1090.84 831.776,1090.72 833.762,1106.35 835.747,1109.17 837.733,1108.92 839.719,1106.57 841.705,1112.16 843.69,1110.04 845.676,1112.32 847.662,1111.58 849.647,1113.05 851.633,1114.1 853.619,1117.92 855.604,1114.71 857.59,1118.31 859.576,1127.87 861.561,1127.56 863.547,1130.93 865.533,1133.44 867.519,1135.16 869.504,1132.38 871.49,1132.47 873.476,1130.76 875.461,1129.22 877.447,1132.55 879.433,1133.52 881.418,1134.13 883.404,1133.72 885.39,1134.66 887.375,1135.36 889.361,1133.17 891.347,1134.85 893.332,1141.06 895.318,1144.8 897.304,1150.15 899.29,1155.54 901.275,1152.12 903.261,1148.75 905.247,1149.7 907.232,1148.9 909.218,1147.06 911.204,1158.76 913.189,1161.62 915.175,1160.82 917.161,1153.56 919.146,1157.75 921.132,1156.5 923.118,1161.05 925.104,1160 927.089,1162.48 929.075,1162.61 931.061,1160.76 933.046,1159.85 935.032,1162.71 937.018,1166.41 939.003,1171.88 940.989,1179.31 942.975,1182.18 944.96,1183.42 946.946,1182.58 948.932,1183.98 950.918,1182.59 952.903,1177.44 954.889,1176.26 956.875,1175.47 958.86,1173.22 960.846,1165.99 962.832,1164.03 964.817,1166.84 966.803,1173.04 968.789,1172.2 970.774,1176.46 972.76,1181.4 974.746,1185.87 976.732,1186.5 978.717,1192.12 980.703,1192.22 982.689,1197.16 984.674,1197.19 986.66,1207.85 988.646,1215.16 990.631,1221.64 992.617,1218.31 994.603,1220.45 996.588,1226.29 998.574,1228.36 1000.56,1229.71 1002.55,1236.93 1004.53,1242.85 1006.52,1246.76 1008.5,1247.39 1010.49,1248.75 1012.47,1250.04 1014.46,1253.05 1016.45,1254.69 1018.43,1255.44 1020.42,1253.23 1022.4,1255.14 1024.39,1259.55 1026.37,1259.13 1028.36,1260.03 1030.35,1262.38 1032.33,1258.23 1034.32,1260.83 1036.3,1261.9 1038.29,1263.64 1040.27,1263.27 1042.26,1264.82 1044.25,1265.87 1046.23,1267.79 1048.22,1269.46 1050.2,1268.5 1052.19,1268.38 1054.17,1266.25 1056.16,1267.44 1058.14,1263.45 1060.13,1268.02 1062.12,1266.99 1064.1,1268.95 1066.09,1274.41 1068.07,1271.08 1070.06,1271.02 1072.04,1268.7 1074.03,1274.29 1076.02,1272.48 1078,1273.39 1079.99,1277.02 1081.97,1280.86 1083.96,1280.85 1085.94,1279.63 1087.93,1277.84 1089.92,1279.29 1091.9,1281.45 1093.89,1281.34 1095.87,1286.77 1097.86,1289.45 1099.84,1291.17 1101.83,1289.7 1103.82,1285.27 1105.8,1289.22 1107.79,1292.95 1109.77,1290.01 1111.76,1288 1113.74,1286.58 1115.73,1290.61 1117.72,1297.92 1119.7,1295.7 1121.69,1299.25 1123.67,1299.13 1125.66,1298.38 1127.64,1299.21 1129.63,1302.96 1131.62,1303.96 1133.6,1305.72 1135.59,1301.95 1137.57,1304 1139.56,1308.8 1141.54,1310 1143.53,1311.28 1145.52,1311.95 1147.5,1314.03 1149.49,1314.35 1151.47,1315.26 1153.46,1310.97 1155.44,1315.99 1157.43,1318.02 1159.42,1319.37 1161.4,1321.09 1163.39,1320 1165.37,1321.4 1167.36,1320.7 1169.34,1319.09 1171.33,1321.02 1173.31,1321.39 1175.3,1320.8 1177.29,1321.09 1179.27,1320.46 1181.26,1320.61 1183.24,1324.21 1185.23,1322.87 1187.21,1323.5 1189.2,1328.86 1191.19,1326.3 1193.17,1333.44 1195.16,1334.18 1197.14,1330.7 1199.13,1333.39 1201.11,1331.37 1203.1,1332.48 1205.09,1333.92 1207.07,1337.04 1209.06,1336.42 1211.04,1333.96 1213.03,1337.29 1215.01,1336.43 1217,1336.11 1218.99,1336.61 1220.97,1342.44 1222.96,1343.39 1224.94,1343.64 1226.93,1343.69 1228.91,1344.69 1230.9,1337.77 1232.89,1341.95 1234.87,1340.68 1236.86,1342.51 1238.84,1343.87 1240.83,1343.89 1242.81,1341.99 1244.8,1343.95 1246.79,1343.7 1248.77,1346.86 1250.76,1347.31 1252.74,1346.95 1254.73,1350.23 1256.71,1352.85 1258.7,1352.08 1260.69,1350.45 1262.67,1345.51 1264.66,1344.27 1266.64,1343.74 1268.63,1349.62 1270.61,1350.85 1272.6,1350.15 1274.59,1348.47 1276.57,1350.96 1278.56,1355.25 1280.54,1356.41 1282.53,1357.34 1284.51,1356.89 1286.5,1356.07 1288.49,1357.27 1290.47,1355.82 1292.46,1358.32 1294.44,1359.03 1296.43,1358.79 1298.41,1358.3 1300.4,1355.83 1302.38,1355.53 1304.37,1354.19 1306.36,1353.32 1308.34,1349.69 1310.33,1356.33 1312.31,1355.81 1314.3,1355.35 1316.28,1354.23 1318.27,1353.99 1320.26,1357.83 1322.24,1356.29 1324.23,1357.47 1326.21,1353.81 1328.2,1354.35 1330.18,1355.18 1332.17,1354.62 1334.16,1354.35 1336.14,1355.79 1338.13,1354.98 1340.11,1357.27 1342.1,1358.16 1344.08,1359.23 1346.07,1358.89 1348.06,1359.99 1350.04,1360.57 1352.03,1362.13 1354.01,1363.2 1356,1363.22 1357.98,1362.18 1359.97,1361.51 1361.96,1364.05 1363.94,1361.3 1365.93,1361.5 1367.91,1361.37 1369.9,1361.98 1371.88,1361.43 1373.87,1362.53 1375.86,1361.78 1377.84,1362.42 1379.83,1361.85 1381.81,1363.18 1383.8,1364.13 1385.78,1362.99 1387.77,1364.7 1389.76,1365.57 1391.74,1364.47 1393.73,1363.7 1395.71,1361.53 1397.7,1361.94 1399.68,1361.98 1401.67,1362.27 1403.66,1362.13 1405.64,1361.87 1407.63,1360.57 1409.61,1359.84 1411.6,1361.97 1413.58,1361.19 1415.57,1360.14 1417.55,1363.08 1419.54,1364.04 1421.53,1364.35 1423.51,1365.29 1425.5,1365.48 1427.48,1364.91 1429.47,1369.25 1431.45,1368.22 1433.44,1367.53 1435.43,1371.22 1437.41,1369.75 1439.4,1369.08 1441.38,1367.95 1443.37,1372.98 1445.35,1372.68 1447.34,1372.16 1449.33,1371.95 1451.31,1372.71 1453.3,1371.42 1455.28,1371.29 1457.27,1370.97 1459.25,1370.94 1461.24,1370.15 1463.23,1369.39 1465.21,1368.47 1467.2,1366.89 1469.18,1368.42 1471.17,1367.19 1473.15,1368.13 1475.14,1367.69 1477.13,1365.97 1479.11,1363.46 1481.1,1360.81 1483.08,1359.55 1485.07,1358.51 1487.05,1358.16 1489.04,1358.44 1491.03,1360.75 1493.01,1360.51 1495,1359.66 1496.98,1359.36 1498.97,1359.04 1500.95,1358.68 1502.94,1358.1 1504.93,1359.58 1506.91,1358.69 1508.9,1357.62 1510.88,1356.44 1512.87,1355.69 1514.85,1354.93 1516.84,1353.95 1518.83,1354.27 1520.81,1353.47 1522.8,1354.53 1524.78,1354.09 1526.77,1356.57 1528.75,1356.4 1530.74,1358.53 1532.73,1359.03 1534.71,1363.11 1536.7,1362.26 1538.68,1362.81 1540.67,1362.8 1542.65,1362.54 1544.64,1361.16 1546.62,1359.42 1548.61,1358.94 1550.6,1357.66 1552.58,1358.11 1554.57,1363.45 1556.55,1362.31 1558.54,1360.25 1560.52,1359.24 1562.51,1358.28 1564.5,1357.89 1566.48,1358.5 1568.47,1358.59 1570.45,1359.1 1572.44,1358.12 1574.42,1357.34 1576.41,1356.73 1578.4,1359.76 1580.38,1362.3 1582.37,1361.53 1584.35,1360.71 1586.34,1359.03 1588.32,1360.57 1590.31,1362.64 1592.3,1360.47 1594.28,1359.41 1596.27,1359.46 1598.25,1359.99 1600.24,1359.15 1602.22,1360.86 1604.21,1361.61 1606.2,1361 1608.18,1359.25 1610.17,1358.05 1612.15,1357.38 1614.14,1355.86 1616.12,1356.27 1618.11,1355.43 1620.1,1363.52 1622.08,1362.35 1624.07,1364.08 1626.05,1362.81 1628.04,1360.79 1630.02,1362.48 1632.01,1363.81 1634,1362.13 1635.98,1364.41 1637.97,1364.84 1639.95,1363.6 1641.94,1362.73 1643.92,1364.55 1645.91,1363.92 1647.9,1366.83 1649.88,1366.8 1651.87,1368.14 1653.85,1365.43 1655.84,1365.64 1657.82,1365.66 1659.81,1368.86 1661.79,1368.99 1663.78,1366.52 1665.77,1365.63 1667.75,1365.08 1669.74,1364.13 1671.72,1361.81 1673.71,1361.3 1675.69,1358.12 1677.68,1359.39 1679.67,1359.1 1681.65,1364.45 1683.64,1364.6 1685.62,1369.52 1687.61,1370.87 1689.59,1372.06 1691.58,1371.6 1693.57,1371.59 1695.55,1372.66 1697.54,1372.79 1699.52,1376.51 1701.51,1377.84 1703.49,1380.14 1705.48,1381.5 1707.47,1381.78 1709.45,1382.85 1711.44,1384.06 1713.42,1384.24 1715.41,1385.08 1717.39,1390.8 1719.38,1391.75 1721.37,1392.29 1723.35,1390.09 1725.34,1390.92 1727.32,1388.89 1729.31,1389.97 1731.29,1391.18 1733.28,1394.33 1735.27,1395.01 1737.25,1393.84 1739.24,1394.76 1741.22,1395.67 1743.21,1395.21 1745.19,1393.26 1747.18,1394.42 1749.17,1393.95 1751.15,1391.81 1753.14,1391.75 1755.12,1392.08 1757.11,1391.36 1759.09,1391.38 1761.08,1391.38 1763.07,1390.2 1765.05,1390.37 1767.04,1389.76 1769.02,1389.87 1771.01,1390.67 1772.99,1392.97 1774.98,1391.56 1776.97,1390.82 1778.95,1391.1 1780.94,1392.52 1782.92,1391.92 1784.91,1392.6 1786.89,1391.76 1788.88,1395.72 1790.86,1397.99 1792.85,1398.11 1794.84,1398.36 1796.82,1399.69 1798.81,1399.67 1800.79,1398.87 1802.78,1398.09 1804.76,1396.98 1806.75,1397.45 1808.74,1396.63 1810.72,1396.74 1812.71,1395.67 1814.69,1394.51 1816.68,1395.02 1818.66,1395.44 1820.65,1397.5 1822.64,1399.01 1824.62,1401.35 1826.61,1403.35 1828.59,1405.86 1830.58,1407.48 1832.56,1406.29 1834.55,1402.83 1836.54,1403.8 1838.52,1404.93 1840.51,1406.61 1842.49,1406.92 1844.48,1413.73 1846.46,1409.1 1848.45,1407.57 1850.44,1410.11 1852.42,1410.97 1854.41,1411.84 1856.39,1406.47 1858.38,1404.06 1860.36,1403.65 1862.35,1407.65 1864.34,1412.39 1866.32,1410.49 1868.31,1413.44 1870.29,1408.95 1872.28,1411.13 1874.26,1413.11 1876.25,1414.89 1878.24,1412.99 1880.22,1414.87 1882.21,1416.37 1884.19,1414.87 1886.18,1416.27 1888.16,1413.9 1890.15,1415.09 1892.14,1414.84 1894.12,1417 1896.11,1417.93 1898.09,1418.88 1900.08,1419.18 1902.06,1419.32 1904.05,1419.45 1906.03,1419.92 1908.02,1420.08 1910.01,1419.59 1911.99,1419.54 1913.98,1418.66 1915.96,1418.31 1917.95,1419.26 1919.93,1419.67 1921.92,1419.6 1923.91,1419.28 1925.89,1419.14 1927.88,1419.68 1929.86,1419.79 1931.85,1419.91 1933.83,1420.13 1935.82,1419.89 1937.81,1419.41 1939.79,1419.8 1941.78,1420.03 1943.76,1420.02 1945.75,1420.03 1947.73,1419.3 1949.72,1419.75 1951.71,1419.94 1953.69,1419.78 1955.68,1419.99 1957.66,1420.19 1959.65,1419.93 1961.63,1419.75 1963.62,1419.96 1965.61,1419.8 1967.59,1419.66 1969.58,1419.75 1971.56,1419.71 1973.55,1419.4 1975.53,1419.78 1977.52,1419.81 1979.51,1419.86 1981.49,1419.08 1983.48,1418.35 1985.46,1418.68 1987.45,1419.26 1989.43,1419.4 1991.42,1419.07 1993.41,1419.49 1995.39,1419.84 1997.38,1420.04 1999.36,1419.77 2001.35,1419.56 2003.33,1419.28 2005.32,1419.11 2007.31,1419.39 2009.29,1419.5 2011.28,1419.3 2013.26,1419.63 2015.25,1419.62 2017.23,1419.65 2019.22,1419.9 2021.21,1419.76 2023.19,1419.53 2025.18,1419.67 2027.16,1419.95 2029.15,1419.96 2031.13,1419.87 2033.12,1419.76 2035.1,1419.91 2037.09,1420.15 2039.08,1420.62 2041.06,1420.41 2043.05,1420.02 2045.03,1420 2047.02,1419.66 2049,1419.67 2050.99,1419.38 2052.98,1419.57 2054.96,1419.68 2056.95,1419.12 2058.93,1418.97 2060.92,1418.85 2062.9,1419.14 2064.89,1419.05 2066.88,1418.81 2068.86,1418.9 2070.85,1419.39 2072.83,1419.12 2074.82,1418.78 2076.8,1419.3 2078.79,1419.19 2080.78,1419.33 2082.76,1419.61 2084.75,1418.98 2086.73,1419.52 2088.72,1419.27 2090.7,1419.54 2092.69,1419.78 2094.68,1419.49 2096.66,1419.58 2098.65,1418.79 2100.63,1418.5 2102.62,1418.34 2104.6,1418.6 2106.59,1418.22 2108.58,1418.06 2110.56,1418.41 2112.55,1418.3 2114.53,1418.68 2116.52,1418.62 2118.5,1418.37 2120.49,1418.35 2122.48,1418.4 2124.46,1419.17 2126.45,1419.31 2128.43,1419.75 2130.42,1419.53 2132.4,1419.84 2134.39,1419.42 2136.38,1418.92 2138.36,1419.42 2140.35,1419.25 2142.33,1419.42 2144.32,1419.74 2146.3,1420.1 2148.29,1420.3 2150.27,1420.16 2152.26,1420.34 2154.25,1420.3 2156.23,1420.25 2158.22,1419.93 2160.2,1420.16 2162.19,1420.06 2164.17,1419.83 2166.16,1419.5 2168.15,1419.81 2170.13,1419.72 2172.12,1419.68 2174.1,1419.47 2176.09,1419.45 2178.07,1419.67 2180.06,1420.13 2182.05,1419.57 2184.03,1419.67 2186.02,1419.45 2188,1419.65 2189.99,1419.95 2191.97,1419.45 2193.96,1419.32 2195.95,1419.61 2197.93,1419.9 2199.92,1419.51 2201.9,1419.43 2203.89,1419.49 2205.87,1419.46 2207.86,1420.11 2209.85,1420.02 2211.83,1420.09 2213.82,1419.94 2215.8,1419.58 2217.79,1419.51 2219.77,1419.29 2221.76,1419.62 2223.75,1419.16 2225.73,1418.48 2227.72,1419.22 2229.7,1420.29 2231.69,1420.19 2233.67,1420.25 2235.66,1420.05 2237.65,1420.57 2239.63,1420.41 2241.62,1420.78 2243.6,1420.41 2245.59,1420.38 2247.57,1419.89 2249.56,1419.4 2251.55,1419.47 2253.53,1419.59 2255.52,1419.76 2257.5,1420.31 2259.49,1420.22 2261.47,1420.07 2263.46,1419.61 2265.45,1419.18 2267.43,1419.17 2269.42,1419.42 2271.4,1419.49 2273.39,1419.41 2275.37,1419.59 2277.36,1419.96 2279.34,1419.54 2281.33,1419.31 2283.32,1419.85 2285.3,1419.84 2287.29,1420.13 2289.27,1420.04 2291.26,1420.2 2293.24,1420.32 "/>
<path clip-path="url(#clip300)" d="M1525.66 248.629 L2282.66 248.629 L2282.66 93.1086 L1525.66 93.1086  Z" fill="#ffffff" fill-rule="evenodd" fill-opacity="1"/>
<polyline clip-path="url(#clip300)" style="stroke:#000000; stroke-linecap:round; stroke-linejoin:round; stroke-width:4; stroke-opacity:1; fill:none" points="1525.66,248.629 2282.66,248.629 2282.66,93.1086 1525.66,93.1086 1525.66,248.629 "/>
<polyline clip-path="url(#clip300)" style="stroke:#009af9; stroke-linecap:round; stroke-linejoin:round; stroke-width:4; stroke-opacity:1; fill:none" points="1549.02,144.949 1689.2,144.949 "/>
<path clip-path="url(#clip300)" d="M1712.57 127.669 L1719.54 127.669 L1728.36 151.187 L1737.22 127.669 L1744.19 127.669 L1744.19 162.229 L1739.63 162.229 L1739.63 131.882 L1730.72 155.585 L1726.02 155.585 L1717.11 131.882 L1717.11 162.229 L1712.57 162.229 L1712.57 127.669 Z" fill="#000000" fill-rule="nonzero" fill-opacity="1" /><path clip-path="url(#clip300)" d="M1752.85 151.997 L1752.85 136.303 L1757.1 136.303 L1757.1 151.835 Q1757.1 155.516 1758.54 157.368 Q1759.98 159.196 1762.85 159.196 Q1766.29 159.196 1768.29 156.997 Q1770.3 154.798 1770.3 151.002 L1770.3 136.303 L1774.56 136.303 L1774.56 162.229 L1770.3 162.229 L1770.3 158.247 Q1768.75 160.608 1766.69 161.766 Q1764.65 162.9 1761.94 162.9 Q1757.48 162.9 1755.16 160.122 Q1752.85 157.344 1752.85 151.997 M1763.56 135.678 L1763.56 135.678 Z" fill="#000000" fill-rule="nonzero" fill-opacity="1" /><path clip-path="url(#clip300)" d="M1783.33 126.21 L1787.59 126.21 L1787.59 162.229 L1783.33 162.229 L1783.33 126.21 Z" fill="#000000" fill-rule="nonzero" fill-opacity="1" /><path clip-path="url(#clip300)" d="M1800.72 128.942 L1800.72 136.303 L1809.49 136.303 L1809.49 139.613 L1800.72 139.613 L1800.72 153.687 Q1800.72 156.858 1801.57 157.761 Q1802.45 158.664 1805.11 158.664 L1809.49 158.664 L1809.49 162.229 L1805.11 162.229 Q1800.18 162.229 1798.31 160.4 Q1796.43 158.548 1796.43 153.687 L1796.43 139.613 L1793.31 139.613 L1793.31 136.303 L1796.43 136.303 L1796.43 128.942 L1800.72 128.942 Z" fill="#000000" fill-rule="nonzero" fill-opacity="1" /><path clip-path="url(#clip300)" d="M1815.09 136.303 L1819.35 136.303 L1819.35 162.229 L1815.09 162.229 L1815.09 136.303 M1815.09 126.21 L1819.35 126.21 L1819.35 131.604 L1815.09 131.604 L1815.09 126.21 Z" fill="#000000" fill-rule="nonzero" fill-opacity="1" /><path clip-path="url(#clip300)" d="M1849.81 146.581 L1849.81 162.229 L1845.55 162.229 L1845.55 146.719 Q1845.55 143.039 1844.12 141.21 Q1842.68 139.382 1839.81 139.382 Q1836.36 139.382 1834.37 141.581 Q1832.38 143.78 1832.38 147.576 L1832.38 162.229 L1828.1 162.229 L1828.1 136.303 L1832.38 136.303 L1832.38 140.331 Q1833.91 137.993 1835.97 136.835 Q1838.05 135.678 1840.76 135.678 Q1845.23 135.678 1847.52 138.456 Q1849.81 141.21 1849.81 146.581 Z" fill="#000000" fill-rule="nonzero" fill-opacity="1" /><path clip-path="url(#clip300)" d="M1868.35 139.289 Q1864.93 139.289 1862.94 141.974 Q1860.95 144.636 1860.95 149.289 Q1860.95 153.942 1862.91 156.627 Q1864.91 159.289 1868.35 159.289 Q1871.76 159.289 1873.75 156.604 Q1875.74 153.918 1875.74 149.289 Q1875.74 144.682 1873.75 141.997 Q1871.76 139.289 1868.35 139.289 M1868.35 135.678 Q1873.91 135.678 1877.08 139.289 Q1880.25 142.9 1880.25 149.289 Q1880.25 155.655 1877.08 159.289 Q1873.91 162.9 1868.35 162.9 Q1862.78 162.9 1859.6 159.289 Q1856.46 155.655 1856.46 149.289 Q1856.46 142.9 1859.6 139.289 Q1862.78 135.678 1868.35 135.678 Z" fill="#000000" fill-rule="nonzero" fill-opacity="1" /><path clip-path="url(#clip300)" d="M1907.5 141.28 Q1909.09 138.409 1911.32 137.044 Q1913.54 135.678 1916.55 135.678 Q1920.6 135.678 1922.8 138.525 Q1925 141.349 1925 146.581 L1925 162.229 L1920.72 162.229 L1920.72 146.719 Q1920.72 142.993 1919.4 141.187 Q1918.08 139.382 1915.37 139.382 Q1912.06 139.382 1910.14 141.581 Q1908.22 143.78 1908.22 147.576 L1908.22 162.229 L1903.93 162.229 L1903.93 146.719 Q1903.93 142.969 1902.61 141.187 Q1901.29 139.382 1898.54 139.382 Q1895.28 139.382 1893.35 141.604 Q1891.43 143.803 1891.43 147.576 L1891.43 162.229 L1887.15 162.229 L1887.15 136.303 L1891.43 136.303 L1891.43 140.331 Q1892.89 137.946 1894.93 136.812 Q1896.97 135.678 1899.77 135.678 Q1902.59 135.678 1904.56 137.113 Q1906.55 138.548 1907.5 141.28 Z" fill="#000000" fill-rule="nonzero" fill-opacity="1" /><path clip-path="url(#clip300)" d="M1933.49 136.303 L1937.75 136.303 L1937.75 162.229 L1933.49 162.229 L1933.49 136.303 M1933.49 126.21 L1937.75 126.21 L1937.75 131.604 L1933.49 131.604 L1933.49 126.21 Z" fill="#000000" fill-rule="nonzero" fill-opacity="1" /><path clip-path="url(#clip300)" d="M1958.45 149.196 Q1953.28 149.196 1951.29 150.377 Q1949.3 151.557 1949.3 154.405 Q1949.3 156.673 1950.78 158.016 Q1952.29 159.335 1954.86 159.335 Q1958.4 159.335 1960.53 156.835 Q1962.68 154.312 1962.68 150.145 L1962.68 149.196 L1958.45 149.196 M1966.94 147.437 L1966.94 162.229 L1962.68 162.229 L1962.68 158.293 Q1961.22 160.655 1959.05 161.789 Q1956.87 162.9 1953.72 162.9 Q1949.74 162.9 1947.38 160.678 Q1945.04 158.432 1945.04 154.682 Q1945.04 150.307 1947.96 148.085 Q1950.9 145.863 1956.71 145.863 L1962.68 145.863 L1962.68 145.446 Q1962.68 142.507 1960.74 140.909 Q1958.82 139.289 1955.32 139.289 Q1953.1 139.289 1950.99 139.821 Q1948.89 140.354 1946.94 141.419 L1946.94 137.483 Q1949.28 136.581 1951.48 136.141 Q1953.68 135.678 1955.76 135.678 Q1961.39 135.678 1964.16 138.594 Q1966.94 141.511 1966.94 147.437 Z" fill="#000000" fill-rule="nonzero" fill-opacity="1" /><path clip-path="url(#clip300)" d="M1975.71 126.21 L1979.97 126.21 L1979.97 162.229 L1975.71 162.229 L1975.71 126.21 Z" fill="#000000" fill-rule="nonzero" fill-opacity="1" /><path clip-path="url(#clip300)" d="M2018.98 140.284 Q2018.26 139.868 2017.4 139.682 Q2016.57 139.474 2015.55 139.474 Q2011.94 139.474 2010 141.835 Q2008.08 144.173 2008.08 148.571 L2008.08 162.229 L2003.79 162.229 L2003.79 136.303 L2008.08 136.303 L2008.08 140.331 Q2009.42 137.969 2011.57 136.835 Q2013.72 135.678 2016.8 135.678 Q2017.24 135.678 2017.77 135.747 Q2018.31 135.794 2018.96 135.909 L2018.98 140.284 Z" fill="#000000" fill-rule="nonzero" fill-opacity="1" /><path clip-path="url(#clip300)" d="M2044.58 148.201 L2044.58 150.284 L2025 150.284 Q2025.27 154.682 2027.64 156.997 Q2030.02 159.289 2034.26 159.289 Q2036.71 159.289 2039 158.687 Q2041.32 158.085 2043.58 156.881 L2043.58 160.909 Q2041.29 161.881 2038.89 162.391 Q2036.48 162.9 2034 162.9 Q2027.8 162.9 2024.16 159.289 Q2020.55 155.678 2020.55 149.52 Q2020.55 143.155 2023.98 139.428 Q2027.43 135.678 2033.26 135.678 Q2038.49 135.678 2041.52 139.057 Q2044.58 142.414 2044.58 148.201 M2040.32 146.951 Q2040.27 143.456 2038.35 141.372 Q2036.46 139.289 2033.31 139.289 Q2029.74 139.289 2027.59 141.303 Q2025.46 143.317 2025.14 146.974 L2040.32 146.951 Z" fill="#000000" fill-rule="nonzero" fill-opacity="1" /><path clip-path="url(#clip300)" d="M2068.1 137.067 L2068.1 141.094 Q2066.29 140.169 2064.35 139.706 Q2062.4 139.243 2060.32 139.243 Q2057.15 139.243 2055.55 140.215 Q2053.98 141.187 2053.98 143.131 Q2053.98 144.613 2055.11 145.469 Q2056.25 146.303 2059.67 147.067 L2061.13 147.391 Q2065.67 148.363 2067.57 150.145 Q2069.49 151.905 2069.49 155.076 Q2069.49 158.687 2066.62 160.793 Q2063.77 162.9 2058.77 162.9 Q2056.69 162.9 2054.42 162.483 Q2052.17 162.09 2049.67 161.28 L2049.67 156.881 Q2052.03 158.108 2054.33 158.733 Q2056.62 159.335 2058.86 159.335 Q2061.87 159.335 2063.49 158.317 Q2065.11 157.275 2065.11 155.4 Q2065.11 153.664 2063.93 152.738 Q2062.77 151.812 2058.82 150.956 L2057.33 150.608 Q2053.38 149.775 2051.62 148.062 Q2049.86 146.326 2049.86 143.317 Q2049.86 139.659 2052.45 137.669 Q2055.04 135.678 2059.81 135.678 Q2062.17 135.678 2064.26 136.025 Q2066.34 136.372 2068.1 137.067 Z" fill="#000000" fill-rule="nonzero" fill-opacity="1" /><path clip-path="url(#clip300)" d="M2088.05 149.196 Q2082.89 149.196 2080.9 150.377 Q2078.91 151.557 2078.91 154.405 Q2078.91 156.673 2080.39 158.016 Q2081.89 159.335 2084.46 159.335 Q2088.01 159.335 2090.14 156.835 Q2092.29 154.312 2092.29 150.145 L2092.29 149.196 L2088.05 149.196 M2096.55 147.437 L2096.55 162.229 L2092.29 162.229 L2092.29 158.293 Q2090.83 160.655 2088.65 161.789 Q2086.48 162.9 2083.33 162.9 Q2079.35 162.9 2076.99 160.678 Q2074.65 158.432 2074.65 154.682 Q2074.65 150.307 2077.57 148.085 Q2080.51 145.863 2086.32 145.863 L2092.29 145.863 L2092.29 145.446 Q2092.29 142.507 2090.34 140.909 Q2088.42 139.289 2084.93 139.289 Q2082.71 139.289 2080.6 139.821 Q2078.49 140.354 2076.55 141.419 L2076.55 137.483 Q2078.89 136.581 2081.08 136.141 Q2083.28 135.678 2085.37 135.678 Q2090.99 135.678 2093.77 138.594 Q2096.55 141.511 2096.55 147.437 Z" fill="#000000" fill-rule="nonzero" fill-opacity="1" /><path clip-path="url(#clip300)" d="M2125.51 141.28 Q2127.1 138.409 2129.33 137.044 Q2131.55 135.678 2134.56 135.678 Q2138.61 135.678 2140.81 138.525 Q2143.01 141.349 2143.01 146.581 L2143.01 162.229 L2138.72 162.229 L2138.72 146.719 Q2138.72 142.993 2137.4 141.187 Q2136.08 139.382 2133.38 139.382 Q2130.07 139.382 2128.14 141.581 Q2126.22 143.78 2126.22 147.576 L2126.22 162.229 L2121.94 162.229 L2121.94 146.719 Q2121.94 142.969 2120.62 141.187 Q2119.3 139.382 2116.55 139.382 Q2113.28 139.382 2111.36 141.604 Q2109.44 143.803 2109.44 147.576 L2109.44 162.229 L2105.16 162.229 L2105.16 136.303 L2109.44 136.303 L2109.44 140.331 Q2110.9 137.946 2112.94 136.812 Q2114.97 135.678 2117.77 135.678 Q2120.6 135.678 2122.57 137.113 Q2124.56 138.548 2125.51 141.28 Z" fill="#000000" fill-rule="nonzero" fill-opacity="1" /><path clip-path="url(#clip300)" d="M2155.62 158.34 L2155.62 172.09 L2151.34 172.09 L2151.34 136.303 L2155.62 136.303 L2155.62 140.238 Q2156.96 137.923 2159 136.812 Q2161.06 135.678 2163.91 135.678 Q2168.63 135.678 2171.57 139.428 Q2174.53 143.178 2174.53 149.289 Q2174.53 155.4 2171.57 159.15 Q2168.63 162.9 2163.91 162.9 Q2161.06 162.9 2159 161.789 Q2156.96 160.655 2155.62 158.34 M2170.11 149.289 Q2170.11 144.59 2168.17 141.928 Q2166.25 139.243 2162.87 139.243 Q2159.49 139.243 2157.54 141.928 Q2155.62 144.59 2155.62 149.289 Q2155.62 153.988 2157.54 156.673 Q2159.49 159.335 2162.87 159.335 Q2166.25 159.335 2168.17 156.673 Q2170.11 153.988 2170.11 149.289 Z" fill="#000000" fill-rule="nonzero" fill-opacity="1" /><path clip-path="url(#clip300)" d="M2181.59 126.21 L2185.85 126.21 L2185.85 162.229 L2181.59 162.229 L2181.59 126.21 Z" fill="#000000" fill-rule="nonzero" fill-opacity="1" /><path clip-path="url(#clip300)" d="M2194.76 136.303 L2199.02 136.303 L2199.02 162.229 L2194.76 162.229 L2194.76 136.303 M2194.76 126.21 L2199.02 126.21 L2199.02 131.604 L2194.76 131.604 L2194.76 126.21 Z" fill="#000000" fill-rule="nonzero" fill-opacity="1" /><path clip-path="url(#clip300)" d="M2229.49 146.581 L2229.49 162.229 L2225.23 162.229 L2225.23 146.719 Q2225.23 143.039 2223.79 141.21 Q2222.36 139.382 2219.49 139.382 Q2216.04 139.382 2214.05 141.581 Q2212.06 143.78 2212.06 147.576 L2212.06 162.229 L2207.77 162.229 L2207.77 136.303 L2212.06 136.303 L2212.06 140.331 Q2213.58 137.993 2215.64 136.835 Q2217.73 135.678 2220.44 135.678 Q2224.9 135.678 2227.2 138.456 Q2229.49 141.21 2229.49 146.581 Z" fill="#000000" fill-rule="nonzero" fill-opacity="1" /><path clip-path="url(#clip300)" d="M2255.04 148.965 Q2255.04 144.335 2253.12 141.789 Q2251.22 139.243 2247.77 139.243 Q2244.35 139.243 2242.43 141.789 Q2240.53 144.335 2240.53 148.965 Q2240.53 153.571 2242.43 156.118 Q2244.35 158.664 2247.77 158.664 Q2251.22 158.664 2253.12 156.118 Q2255.04 153.571 2255.04 148.965 M2259.3 159.011 Q2259.3 165.631 2256.36 168.849 Q2253.42 172.09 2247.36 172.09 Q2245.11 172.09 2243.12 171.742 Q2241.13 171.418 2239.26 170.724 L2239.26 166.58 Q2241.13 167.599 2242.96 168.085 Q2244.79 168.571 2246.69 168.571 Q2250.88 168.571 2252.96 166.372 Q2255.04 164.196 2255.04 159.775 L2255.04 157.668 Q2253.72 159.96 2251.66 161.094 Q2249.6 162.229 2246.73 162.229 Q2241.96 162.229 2239.05 158.594 Q2236.13 154.96 2236.13 148.965 Q2236.13 142.946 2239.05 139.312 Q2241.96 135.678 2246.73 135.678 Q2249.6 135.678 2251.66 136.812 Q2253.72 137.946 2255.04 140.238 L2255.04 136.303 L2259.3 136.303 L2259.3 159.011 Z" fill="#000000" fill-rule="nonzero" fill-opacity="1" /><polyline clip-path="url(#clip300)" style="stroke:#e26f46; stroke-linecap:round; stroke-linejoin:round; stroke-width:4; stroke-opacity:1; fill:none" points="1549.02,196.789 1689.2,196.789 "/>
<path clip-path="url(#clip300)" d="M1734.81 180.643 L1734.81 185.203 Q1732.15 183.93 1729.79 183.305 Q1727.43 182.68 1725.23 182.68 Q1721.41 182.68 1719.33 184.161 Q1717.27 185.643 1717.27 188.374 Q1717.27 190.666 1718.63 191.847 Q1720.02 193.004 1723.86 193.722 L1726.69 194.3 Q1731.92 195.296 1734.4 197.819 Q1736.9 200.319 1736.9 204.532 Q1736.9 209.555 1733.52 212.147 Q1730.16 214.74 1723.66 214.74 Q1721.2 214.74 1718.42 214.184 Q1715.67 213.629 1712.71 212.541 L1712.71 207.726 Q1715.55 209.323 1718.29 210.133 Q1721.02 210.944 1723.66 210.944 Q1727.66 210.944 1729.84 209.37 Q1732.01 207.796 1732.01 204.879 Q1732.01 202.333 1730.44 200.897 Q1728.89 199.462 1725.32 198.745 L1722.48 198.189 Q1717.24 197.147 1714.91 194.925 Q1712.57 192.703 1712.57 188.745 Q1712.57 184.161 1715.79 181.522 Q1719.03 178.884 1724.7 178.884 Q1727.13 178.884 1729.65 179.323 Q1732.17 179.763 1734.81 180.643 Z" fill="#000000" fill-rule="nonzero" fill-opacity="1" /><path clip-path="url(#clip300)" d="M1748.22 180.782 L1748.22 188.143 L1756.99 188.143 L1756.99 191.453 L1748.22 191.453 L1748.22 205.527 Q1748.22 208.698 1749.07 209.601 Q1749.95 210.504 1752.61 210.504 L1756.99 210.504 L1756.99 214.069 L1752.61 214.069 Q1747.68 214.069 1745.81 212.24 Q1743.93 210.388 1743.93 205.527 L1743.93 191.453 L1740.81 191.453 L1740.81 188.143 L1743.93 188.143 L1743.93 180.782 L1748.22 180.782 Z" fill="#000000" fill-rule="nonzero" fill-opacity="1" /><path clip-path="url(#clip300)" d="M1777.61 192.124 Q1776.9 191.708 1776.04 191.522 Q1775.21 191.314 1774.19 191.314 Q1770.58 191.314 1768.63 193.675 Q1766.71 196.013 1766.71 200.411 L1766.71 214.069 L1762.43 214.069 L1762.43 188.143 L1766.71 188.143 L1766.71 192.171 Q1768.05 189.809 1770.21 188.675 Q1772.36 187.518 1775.44 187.518 Q1775.88 187.518 1776.41 187.587 Q1776.94 187.634 1777.59 187.749 L1777.61 192.124 Z" fill="#000000" fill-rule="nonzero" fill-opacity="1" /><path clip-path="url(#clip300)" d="M1793.86 201.036 Q1788.7 201.036 1786.71 202.217 Q1784.72 203.397 1784.72 206.245 Q1784.72 208.513 1786.2 209.856 Q1787.71 211.175 1790.28 211.175 Q1793.82 211.175 1795.95 208.675 Q1798.1 206.152 1798.1 201.985 L1798.1 201.036 L1793.86 201.036 M1802.36 199.277 L1802.36 214.069 L1798.1 214.069 L1798.1 210.133 Q1796.64 212.495 1794.47 213.629 Q1792.29 214.74 1789.14 214.74 Q1785.16 214.74 1782.8 212.518 Q1780.46 210.272 1780.46 206.522 Q1780.46 202.147 1783.38 199.925 Q1786.32 197.703 1792.13 197.703 L1798.1 197.703 L1798.1 197.286 Q1798.1 194.347 1796.16 192.749 Q1794.23 191.129 1790.74 191.129 Q1788.52 191.129 1786.41 191.661 Q1784.3 192.194 1782.36 193.259 L1782.36 189.323 Q1784.7 188.421 1786.9 187.981 Q1789.1 187.518 1791.18 187.518 Q1796.8 187.518 1799.58 190.434 Q1802.36 193.351 1802.36 199.277 Z" fill="#000000" fill-rule="nonzero" fill-opacity="1" /><path clip-path="url(#clip300)" d="M1815.35 180.782 L1815.35 188.143 L1824.12 188.143 L1824.12 191.453 L1815.35 191.453 L1815.35 205.527 Q1815.35 208.698 1816.2 209.601 Q1817.08 210.504 1819.74 210.504 L1824.12 210.504 L1824.12 214.069 L1819.74 214.069 Q1814.81 214.069 1812.94 212.24 Q1811.06 210.388 1811.06 205.527 L1811.06 191.453 L1807.94 191.453 L1807.94 188.143 L1811.06 188.143 L1811.06 180.782 L1815.35 180.782 Z" fill="#000000" fill-rule="nonzero" fill-opacity="1" /><path clip-path="url(#clip300)" d="M1829.72 188.143 L1833.98 188.143 L1833.98 214.069 L1829.72 214.069 L1829.72 188.143 M1829.72 178.05 L1833.98 178.05 L1833.98 183.444 L1829.72 183.444 L1829.72 178.05 Z" fill="#000000" fill-rule="nonzero" fill-opacity="1" /><path clip-path="url(#clip300)" d="M1856.02 178.05 L1856.02 181.592 L1851.94 181.592 Q1849.65 181.592 1848.75 182.518 Q1847.87 183.444 1847.87 185.851 L1847.87 188.143 L1854.88 188.143 L1854.88 191.453 L1847.87 191.453 L1847.87 214.069 L1843.59 214.069 L1843.59 191.453 L1839.51 191.453 L1839.51 188.143 L1843.59 188.143 L1843.59 186.337 Q1843.59 182.009 1845.6 180.041 Q1847.61 178.05 1851.99 178.05 L1856.02 178.05 Z" fill="#000000" fill-rule="nonzero" fill-opacity="1" /><path clip-path="url(#clip300)" d="M1859.58 188.143 L1863.84 188.143 L1863.84 214.069 L1859.58 214.069 L1859.58 188.143 M1859.58 178.05 L1863.84 178.05 L1863.84 183.444 L1859.58 183.444 L1859.58 178.05 Z" fill="#000000" fill-rule="nonzero" fill-opacity="1" /><path clip-path="url(#clip300)" d="M1894.93 200.041 L1894.93 202.124 L1875.35 202.124 Q1875.62 206.522 1877.98 208.837 Q1880.37 211.129 1884.6 211.129 Q1887.06 211.129 1889.35 210.527 Q1891.66 209.925 1893.93 208.721 L1893.93 212.749 Q1891.64 213.721 1889.23 214.231 Q1886.83 214.74 1884.35 214.74 Q1878.15 214.74 1874.51 211.129 Q1870.9 207.518 1870.9 201.36 Q1870.9 194.995 1874.33 191.268 Q1877.78 187.518 1883.61 187.518 Q1888.84 187.518 1891.87 190.897 Q1894.93 194.254 1894.93 200.041 M1890.67 198.791 Q1890.62 195.296 1888.7 193.212 Q1886.8 191.129 1883.66 191.129 Q1880.09 191.129 1877.94 193.143 Q1875.81 195.157 1875.48 198.814 L1890.67 198.791 Z" fill="#000000" fill-rule="nonzero" fill-opacity="1" /><path clip-path="url(#clip300)" d="M1918.98 192.078 L1918.98 178.05 L1923.24 178.05 L1923.24 214.069 L1918.98 214.069 L1918.98 210.18 Q1917.64 212.495 1915.58 213.629 Q1913.54 214.74 1910.67 214.74 Q1905.97 214.74 1903.01 210.99 Q1900.07 207.24 1900.07 201.129 Q1900.07 195.018 1903.01 191.268 Q1905.97 187.518 1910.67 187.518 Q1913.54 187.518 1915.58 188.652 Q1917.64 189.763 1918.98 192.078 M1904.47 201.129 Q1904.47 205.828 1906.39 208.513 Q1908.33 211.175 1911.71 211.175 Q1915.09 211.175 1917.03 208.513 Q1918.98 205.828 1918.98 201.129 Q1918.98 196.43 1917.03 193.768 Q1915.09 191.083 1911.71 191.083 Q1908.33 191.083 1906.39 193.768 Q1904.47 196.43 1904.47 201.129 Z" fill="#000000" fill-rule="nonzero" fill-opacity="1" /><path clip-path="url(#clip300)" d="M1962.1 192.124 Q1961.39 191.708 1960.53 191.522 Q1959.7 191.314 1958.68 191.314 Q1955.07 191.314 1953.12 193.675 Q1951.2 196.013 1951.2 200.411 L1951.2 214.069 L1946.92 214.069 L1946.92 188.143 L1951.2 188.143 L1951.2 192.171 Q1952.54 189.809 1954.7 188.675 Q1956.85 187.518 1959.93 187.518 Q1960.37 187.518 1960.9 187.587 Q1961.43 187.634 1962.08 187.749 L1962.1 192.124 Z" fill="#000000" fill-rule="nonzero" fill-opacity="1" /><path clip-path="url(#clip300)" d="M1987.71 200.041 L1987.71 202.124 L1968.12 202.124 Q1968.4 206.522 1970.76 208.837 Q1973.15 211.129 1977.38 211.129 Q1979.84 211.129 1982.13 210.527 Q1984.44 209.925 1986.71 208.721 L1986.71 212.749 Q1984.42 213.721 1982.01 214.231 Q1979.6 214.74 1977.13 214.74 Q1970.92 214.74 1967.29 211.129 Q1963.68 207.518 1963.68 201.36 Q1963.68 194.995 1967.1 191.268 Q1970.55 187.518 1976.39 187.518 Q1981.62 187.518 1984.65 190.897 Q1987.71 194.254 1987.71 200.041 M1983.45 198.791 Q1983.4 195.296 1981.48 193.212 Q1979.58 191.129 1976.43 191.129 Q1972.87 191.129 1970.71 193.143 Q1968.59 195.157 1968.26 198.814 L1983.45 198.791 Z" fill="#000000" fill-rule="nonzero" fill-opacity="1" /><path clip-path="url(#clip300)" d="M2011.22 188.907 L2011.22 192.934 Q2009.42 192.009 2007.47 191.546 Q2005.53 191.083 2003.45 191.083 Q2000.27 191.083 1998.68 192.055 Q1997.1 193.027 1997.1 194.971 Q1997.1 196.453 1998.24 197.309 Q1999.37 198.143 2002.8 198.907 L2004.26 199.231 Q2008.79 200.203 2010.69 201.985 Q2012.61 203.745 2012.61 206.916 Q2012.61 210.527 2009.74 212.633 Q2006.9 214.74 2001.9 214.74 Q1999.81 214.74 1997.54 214.323 Q1995.3 213.93 1992.8 213.12 L1992.8 208.721 Q1995.16 209.948 1997.45 210.573 Q1999.74 211.175 2001.99 211.175 Q2005 211.175 2006.62 210.157 Q2008.24 209.115 2008.24 207.24 Q2008.24 205.504 2007.06 204.578 Q2005.9 203.652 2001.94 202.796 L2000.46 202.448 Q1996.5 201.615 1994.74 199.902 Q1992.98 198.166 1992.98 195.157 Q1992.98 191.499 1995.58 189.509 Q1998.17 187.518 2002.94 187.518 Q2005.3 187.518 2007.38 187.865 Q2009.46 188.212 2011.22 188.907 Z" fill="#000000" fill-rule="nonzero" fill-opacity="1" /><path clip-path="url(#clip300)" d="M2031.18 201.036 Q2026.02 201.036 2024.02 202.217 Q2022.03 203.397 2022.03 206.245 Q2022.03 208.513 2023.52 209.856 Q2025.02 211.175 2027.59 211.175 Q2031.13 211.175 2033.26 208.675 Q2035.41 206.152 2035.41 201.985 L2035.41 201.036 L2031.18 201.036 M2039.67 199.277 L2039.67 214.069 L2035.41 214.069 L2035.41 210.133 Q2033.96 212.495 2031.78 213.629 Q2029.6 214.74 2026.46 214.74 Q2022.47 214.74 2020.11 212.518 Q2017.77 210.272 2017.77 206.522 Q2017.77 202.147 2020.69 199.925 Q2023.63 197.703 2029.44 197.703 L2035.41 197.703 L2035.41 197.286 Q2035.41 194.347 2033.47 192.749 Q2031.55 191.129 2028.05 191.129 Q2025.83 191.129 2023.72 191.661 Q2021.62 192.194 2019.67 193.259 L2019.67 189.323 Q2022.01 188.421 2024.21 187.981 Q2026.41 187.518 2028.49 187.518 Q2034.12 187.518 2036.9 190.434 Q2039.67 193.351 2039.67 199.277 Z" fill="#000000" fill-rule="nonzero" fill-opacity="1" /><path clip-path="url(#clip300)" d="M2068.63 193.12 Q2070.23 190.249 2072.45 188.884 Q2074.67 187.518 2077.68 187.518 Q2081.73 187.518 2083.93 190.365 Q2086.13 193.189 2086.13 198.421 L2086.13 214.069 L2081.85 214.069 L2081.85 198.559 Q2081.85 194.833 2080.53 193.027 Q2079.21 191.222 2076.5 191.222 Q2073.19 191.222 2071.27 193.421 Q2069.35 195.62 2069.35 199.416 L2069.35 214.069 L2065.07 214.069 L2065.07 198.559 Q2065.07 194.809 2063.75 193.027 Q2062.43 191.222 2059.67 191.222 Q2056.41 191.222 2054.49 193.444 Q2052.57 195.643 2052.57 199.416 L2052.57 214.069 L2048.28 214.069 L2048.28 188.143 L2052.57 188.143 L2052.57 192.171 Q2054.02 189.786 2056.06 188.652 Q2058.1 187.518 2060.9 187.518 Q2063.72 187.518 2065.69 188.953 Q2067.68 190.388 2068.63 193.12 Z" fill="#000000" fill-rule="nonzero" fill-opacity="1" /><path clip-path="url(#clip300)" d="M2098.75 210.18 L2098.75 223.93 L2094.46 223.93 L2094.46 188.143 L2098.75 188.143 L2098.75 192.078 Q2100.09 189.763 2102.13 188.652 Q2104.19 187.518 2107.03 187.518 Q2111.76 187.518 2114.7 191.268 Q2117.66 195.018 2117.66 201.129 Q2117.66 207.24 2114.7 210.99 Q2111.76 214.74 2107.03 214.74 Q2104.19 214.74 2102.13 213.629 Q2100.09 212.495 2098.75 210.18 M2113.24 201.129 Q2113.24 196.43 2111.29 193.768 Q2109.37 191.083 2105.99 191.083 Q2102.61 191.083 2100.67 193.768 Q2098.75 196.43 2098.75 201.129 Q2098.75 205.828 2100.67 208.513 Q2102.61 211.175 2105.99 211.175 Q2109.37 211.175 2111.29 208.513 Q2113.24 205.828 2113.24 201.129 Z" fill="#000000" fill-rule="nonzero" fill-opacity="1" /><path clip-path="url(#clip300)" d="M2124.72 178.05 L2128.98 178.05 L2128.98 214.069 L2124.72 214.069 L2124.72 178.05 Z" fill="#000000" fill-rule="nonzero" fill-opacity="1" /><path clip-path="url(#clip300)" d="M2137.89 188.143 L2142.15 188.143 L2142.15 214.069 L2137.89 214.069 L2137.89 188.143 M2137.89 178.05 L2142.15 178.05 L2142.15 183.444 L2137.89 183.444 L2137.89 178.05 Z" fill="#000000" fill-rule="nonzero" fill-opacity="1" /><path clip-path="url(#clip300)" d="M2172.61 198.421 L2172.61 214.069 L2168.35 214.069 L2168.35 198.559 Q2168.35 194.879 2166.92 193.05 Q2165.48 191.222 2162.61 191.222 Q2159.16 191.222 2157.17 193.421 Q2155.18 195.62 2155.18 199.416 L2155.18 214.069 L2150.9 214.069 L2150.9 188.143 L2155.18 188.143 L2155.18 192.171 Q2156.71 189.833 2158.77 188.675 Q2160.85 187.518 2163.56 187.518 Q2168.03 187.518 2170.32 190.296 Q2172.61 193.05 2172.61 198.421 Z" fill="#000000" fill-rule="nonzero" fill-opacity="1" /><path clip-path="url(#clip300)" d="M2198.17 200.805 Q2198.17 196.175 2196.25 193.629 Q2194.35 191.083 2190.9 191.083 Q2187.47 191.083 2185.55 193.629 Q2183.65 196.175 2183.65 200.805 Q2183.65 205.411 2185.55 207.958 Q2187.47 210.504 2190.9 210.504 Q2194.35 210.504 2196.25 207.958 Q2198.17 205.411 2198.17 200.805 M2202.43 210.851 Q2202.43 217.471 2199.49 220.689 Q2196.55 223.93 2190.48 223.93 Q2188.24 223.93 2186.25 223.582 Q2184.26 223.258 2182.38 222.564 L2182.38 218.42 Q2184.26 219.439 2186.08 219.925 Q2187.91 220.411 2189.81 220.411 Q2194 220.411 2196.08 218.212 Q2198.17 216.036 2198.17 211.615 L2198.17 209.508 Q2196.85 211.8 2194.79 212.934 Q2192.73 214.069 2189.86 214.069 Q2185.09 214.069 2182.17 210.434 Q2179.26 206.8 2179.26 200.805 Q2179.26 194.786 2182.17 191.152 Q2185.09 187.518 2189.86 187.518 Q2192.73 187.518 2194.79 188.652 Q2196.85 189.786 2198.17 192.078 L2198.17 188.143 L2202.43 188.143 L2202.43 210.851 Z" fill="#000000" fill-rule="nonzero" fill-opacity="1" /></svg>
